<?xml version="1.0" encoding="UTF-8"?>
<svg width="480px" height="300px" viewBox="0 0 480 300" version="1.1" xmlns="http://www.w3.org/2000/svg" xmlns:xlink="http://www.w3.org/1999/xlink">
    <!-- Generator: Sketch 51 (57462) - http://www.bohemiancoding.com/sketch -->
    <title>Avatars</title>
    <desc>Created with Sketch.</desc>
    <defs></defs>
    <g id="Avatars" stroke="none" stroke-width="1" fill="none" fill-rule="evenodd">
        <rect id="Frame" fill="#E6E6E6" x="0" y="0" width="480" height="300"></rect>
        <g id="Dwarf" transform="translate(107.000000, 33.000000)">
            <g id="Female" transform="translate(1.000000, 0.000000)">
                <g id="body" transform="translate(0.000000, 26.000000)">
                    <path d="M1,241.747178 C1.73282108,230.994245 1.69896691,223.469144 0.8984375,219.171875 C-1.90803452,204.10664 10.8664471,160.45187 11.4408338,155.403559 C11.988784,150.5876 18.9237169,137.036144 28.3296641,130.332325 C35.3231847,125.347894 54.634249,117.407454 86.2628569,106.511006 C81.6513797,102.355001 78.2187087,98.7289365 75.9648438,95.6328125 C70.9923502,88.8021208 68.3053887,77.9350652 67.8319061,76.1820447 C65.4223408,67.2608768 66.2976481,23.7913237 73.5272647,17.0323397 C80.4523564,10.5580568 102.277863,-0.520547467 120.427734,0.166015625 C132.308458,0.615432913 149.334045,5.02828779 158.341576,14.3398437 C162.319153,18.451673 161.359506,23.4010289 163.261069,26.7990207 C170.865545,40.3878103 166.843683,71.1173339 166.843683,86.4024334 C166.843683,98.1377437 159.489792,99.6957126 158.341576,105.191077 C157.883342,107.384191 163.025483,109.286528 173.768002,110.898089 C178.481409,112.4516 213.269531,124.332325 225.136719,126.332325 C237.003906,128.332325 246.367446,148.406415 251.412412,159.744993 C255.67676,169.329129 265.457509,204.407652 266.243189,209.490243 C267.202494,215.696025 266.813888,226.448337 265.077368,241.747178 L206.737448,241.747178 L45.3550448,240.747178 L1,241.747178 Z" fill="#E5B296"></path>
                    <polygon id="armpit-l" fill="#000000" opacity="0.5" points="59.4343274 243.248594 67.1567259 204.435764 67.1567259 243.248594"></polygon>
                    <polygon id="armpit-r" fill="#000000" opacity="0.5" transform="translate(202.998255, 223.713082) scale(-1, 1) translate(-202.998255, -223.713082) " points="199.137056 243.119497 206.859454 204.306667 206.859454 243.119497"></polygon>
                    <path d="M172.953616,236.639718 C179.55764,235.979834 186.906523,232.094101 191.695221,226.169596 C197.533865,218.946114 199.326086,209.363264 195.93051,197.979714 C195.038298,194.988606 194.227006,193.1002 193.272654,191.601953 C192.946003,191.089141 192.624877,190.647445 192.12704,190.007834 C189.967396,187.233164 189.186624,185.998017 187.706905,182.46412 L188.629307,182.07789 C190.069431,185.517224 190.806192,186.682748 192.916177,189.393616 C193.431654,190.055892 193.769377,190.520415 194.11608,191.064708 C195.12486,192.6484 195.971875,194.619959 196.888786,197.693872 C200.377552,209.389835 198.521247,219.315334 192.472936,226.798213 C187.514141,232.933159 179.919922,236.948614 173.053042,237.634763 C153.346994,239.603821 140.418836,231.468239 133.884756,211.857277 C133.803068,212.658048 133.699429,213.296712 133.567462,213.772431 C129.110706,229.838362 115.546035,240.260982 100.261836,240.874259 C84.6305663,241.501462 71.5334247,231.767912 67.5165019,214.40823 C65.9643693,207.700477 66.1858143,201.774859 67.8319259,194.330164 C68.1051516,193.094475 68.4173776,191.806376 68.8121832,190.265482 C68.9669131,189.661584 69.1281634,189.042145 69.3451829,188.215573 C69.3216387,188.305247 69.7662017,186.614609 69.8899062,186.141661 C70.3047499,184.555627 70.6104641,183.353302 70.8998346,182.153752 L71.8719493,182.388258 C71.5808243,183.595081 71.2736782,184.803038 70.85736,186.394708 C70.7334605,186.868402 70.2887053,188.559771 70.3124011,188.46952 C70.0958409,189.294342 69.9350417,189.912048 69.7808917,190.513683 C69.3886188,192.044692 69.0788732,193.322558 68.808342,194.546061 C67.1919864,201.856182 66.9759737,207.636438 68.4907596,214.182793 C72.3981587,231.069153 85.0654006,240.483209 100.221743,239.875063 C115.077716,239.278968 128.264896,229.1464 132.603852,213.505121 C132.828098,212.696747 132.971799,211.247875 133.058365,209.239904 C131.902723,205.208076 130.984931,200.779332 130.303746,195.907571 L131.270683,195.672658 L134.089133,203.698118 C134.182276,203.771918 134.225356,203.845889 134.262159,203.939716 C134.310313,204.062481 134.34791,204.260311 134.395394,204.599911 C134.182336,204.905029 134.170486,205.282611 134.15755,205.821011 C134.159623,205.734738 134.129671,207.037566 134.119167,207.439573 C134.103244,208.048965 134.086082,208.585859 134.065293,209.095656 C140.177042,230.047734 152.947175,238.638792 172.953616,236.639718 Z M134.22235,204.292407 C134.223362,204.288092 134.224026,204.283728 134.224759,204.278677 C134.224366,204.281388 134.223974,204.284158 134.223585,204.286986 L134.22235,204.292407 Z M133.3377,204.329562 C133.334869,204.316914 133.332672,204.308592 133.331214,204.304874 C133.331743,204.306224 133.332276,204.307571 133.332814,204.308914 L133.3377,204.329562 Z M133.221657,204.245966 L132.228499,201.417975 C132.513621,202.894629 132.824114,204.322932 133.160116,205.703308 C133.179236,204.926004 133.195693,204.499822 133.221657,204.245966 Z" id="breast" fill="#000000" fill-rule="nonzero" opacity="0.3" transform="translate(132.552725, 211.490351) rotate(2.000000) translate(-132.552725, -211.490351) "></path>
                    <g id="nipples" opacity="0.700000048" transform="translate(89.000000, 205.000000)">
                        <g id="right" transform="translate(77.000000, 0.000000)">
                            <path d="M7,14 C3.13400675,14 0,10.8659932 0,7 C0,3.13400675 3.13400675,0 7,0 C10.8659932,0 14,3.13400675 14,7 C14,10.8659932 10.8659932,14 7,14 Z" id="ra" fill="#000000" fill-rule="nonzero" opacity="0.3"></path>
                            <circle id="rn" fill="#E5B296" opacity="0.400000006" cx="7" cy="7" r="2"></circle>
                            <path d="M7,10 C5.34314575,10 4,8.65685425 4,7 C4,5.34314575 5.34314575,4 7,4 C8.65685425,4 10,5.34314575 10,7 C10,8.65685425 8.65685425,10 7,10 Z M7,8.8 C7.99411255,8.8 8.8,7.99411255 8.8,7 C8.8,6.00588745 7.99411255,5.2 7,5.2 C6.00588745,5.2 5.2,6.00588745 5.2,7 C5.2,7.99411255 6.00588745,8.8 7,8.8 Z" id="rno" fill="#000000" fill-rule="nonzero" opacity="0.3"></path>
                        </g>
                        <g id="left">
                            <path d="M7,14 C3.13400675,14 0,10.8659932 0,7 C0,3.13400675 3.13400675,0 7,0 C10.8659932,0 14,3.13400675 14,7 C14,10.8659932 10.8659932,14 7,14 Z" id="la" fill="#000000" fill-rule="nonzero" opacity="0.3"></path>
                            <circle id="ln" fill="#E5B296" opacity="0.400000006" cx="7" cy="7" r="2"></circle>
                            <path d="M7,10 C5.34314575,10 4,8.65685425 4,7 C4,5.34314575 5.34314575,4 7,4 C8.65685425,4 10,5.34314575 10,7 C10,8.65685425 8.65685425,10 7,10 Z M7,8.8 C7.99411255,8.8 8.8,7.99411255 8.8,7 C8.8,6.00588745 7.99411255,5.2 7,5.2 C6.00588745,5.2 5.2,6.00588745 5.2,7 C5.2,7.99411255 6.00588745,8.8 7,8.8 Z" id="lno" fill="#000000" fill-rule="nonzero" opacity="0.3"></path>
                        </g>
                    </g>
                    <path d="M72.5027934,179.44979 L60.6393986,115.740724 L64.6731802,114.649777 L78.4762584,184.595454 C79.9781268,189.982141 83.1666001,197.453572 95.8518131,201.191331 C109.682629,205.266647 121.996723,205.571345 132.794093,202.105424 L132.794093,203.604143 C132.899694,203.072522 133.016594,202.572949 133.144792,202.105424 C143.214865,205.571345 155.16531,205.266647 168.996126,201.191331 C182.496236,197.213459 185.693306,188.449593 187.197196,182.902195 L186.66082,183.2946 L183.131182,113.521965 L189.098096,115.703857 L191.689272,179.50458 C200.517236,187.922098 207.26764,209.68906 203.926322,220.25519 C198.479943,237.478085 189.398784,241 168.996126,241 C150.37559,241 134.97271,234.315251 132.42397,218.082634 C129.875229,234.315251 114.472349,241 95.8518131,241 C75.4491551,241 66.3679962,237.478085 60.9216167,220.25519 C57.5901809,209.720308 59.208353,186.908323 72.5027934,179.44979 Z" id="bra" fill="#414141"></path>
                </g>
                <g id="face" transform="translate(81.000000, 68.000000)">
                    <path d="M0.636063128,53.1104337 L1.36393687,52.4247225 C1.52514323,52.595841 6.20990851,58.3044368 8.19310229,60.2482196 C14.4404401,66.3714072 22.2099731,69.7695313 33.4335937,69.7695313 C53.4885159,69.7695313 64.9290679,68.5804152 71.313172,65.9789644 C76.552561,63.8439722 78.3133991,61.2914032 80.1102793,54.8841013 C80.2047981,54.547067 80.6403084,52.9668365 80.7656187,52.5210309 C81.035106,51.5622994 81.2715494,50.7631669 81.5236588,49.9730162 L82.4763412,50.2769838 C82.2282114,51.0546617 81.9949014,51.8432041 81.7283105,52.7916314 C81.6038936,53.2342583 81.1684894,54.8141039 81.0731326,55.1541264 C79.2010414,61.829615 77.2675588,64.6324553 71.6905335,66.9050305 C65.1493562,69.5704868 53.6132824,70.7695313 33.4335937,70.7695313 C21.9388875,70.7695313 13.921486,67.2629981 7.49312726,60.9623869 C5.46222756,58.9718462 0.760122377,53.242121 0.636063128,53.1104337 Z" id="jaw" fill="#000000" fill-rule="nonzero" opacity="0.3"></path>
                    <g id="mouth" transform="translate(28.000000, 42.000000)">
                        <path d="M17.0274153,8.60205078 C23.6616211,8.60205078 31.2535802,4.02803496 31.2535802,3.1907959 C31.2535802,2.0862264 25.3528991,1.3815918 17.0274153,1.3815918 C8.70193147,1.3815918 1.54456005,2.58195394 1.54456005,3.68652344 C1.54456005,4.64240806 11.1694336,8.60205078 17.0274153,8.60205078 Z" id="lips" fill="#990000" opacity="0.100000001"></path>
                        <path d="M3.65268312,3.07749793 C9.68981951,3.51547142 14.2577444,3.734375 17.3531041,3.734375 C20.4595044,3.734375 24.7435792,3.5138674 30.2026706,3.0726367 C29.9998841,3.02746821 29.7854332,2.97938359 29.5543657,2.92731996 C24.1613008,1.7121663 22.7089229,1.43747443 20.2731013,1.32377651 C19.8407342,1.30359472 19.5863371,1.39716679 19.0698118,1.70865949 C19.04532,1.72343789 19.04532,1.72343789 19.0205065,1.73841793 C18.3919598,2.11775404 18.0224729,2.26575871 17.4254505,2.28007472 C16.9584837,2.29127213 16.5332107,2.18552187 15.4037848,1.83653712 C15.3687871,1.82572427 15.3687871,1.82572427 15.333846,1.81493954 C14.3602769,1.51455888 13.8914059,1.40664099 13.5497543,1.43397792 C10.3973215,1.68621683 7.15916834,2.22454429 3.65268312,3.07749793 Z M29.9784041,4.09340377 C24.6375227,4.52064986 20.429929,4.734375 17.3531041,4.734375 C14.1973659,4.734375 9.54103244,4.50950645 3.38063165,4.05994156 C5.56684908,5.77721812 8.85200369,7.7797605 13.5497543,8.15564655 C13.8914059,8.18298348 19.8407342,8.28602975 20.2731013,8.26584796 C23.2464181,8.12706113 27.355827,5.79020054 29.9784041,4.09340377 Z M3.06516253,2.19666804 C6.76293218,1.27824204 10.1673544,0.701911347 13.4822054,0.436676698 C13.9771624,0.397073182 14.490484,0.515222068 15.585094,0.85294813 C15.6202716,0.863805868 15.6202716,0.863805868 15.6553775,0.874652152 C16.6719246,1.18875817 17.0722351,1.28830114 17.4051573,1.28031799 C17.8173482,1.27043406 18.06514,1.17117658 18.5738681,0.864152542 C18.5985057,0.849278681 18.5985057,0.849278681 18.6234331,0.834237461 C19.2751849,0.441195861 19.6730684,0.294846766 20.3125773,0.324697405 C22.8184758,0.441666338 24.2921118,0.720378811 29.7411261,1.94813886 C29.9824811,2.00252046 30.2055664,2.05252847 30.4160633,2.09938266 L30.2551753,1.89656716 L30.951987,1.24356956 L32.6034111,3.32535667 L32.0212721,3.87089201 L32.0323394,3.88966978 C31.9932313,3.91689913 31.9532456,3.94465525 31.9124047,3.972914 L31.9065994,3.97835427 C29.4815278,5.65433048 24.0614414,9.08993967 20.3125773,9.26492707 C19.6730684,9.29477771 13.9771624,9.19255129 13.4822054,9.15294777 C7.82139147,8.70000313 4.16715053,6.03927496 1.83950784,4.0462067 L1.55228042,4.40828591 L0.85546875,3.75528831 L2.50689285,1.6735012 L3.06516253,2.19666804 Z" id="mouth-outline" fill="#000000" fill-rule="nonzero" opacity="0.3"></path>
                    </g>
                    <path d="M50.1704058,32.8465079 C49.869149,33.6044243 49.0286721,33.9619952 47.4888342,34.1722328 C44.4311467,34.5897059 43.0085241,34.2184914 42.2302566,32.8914498 C42.118289,32.9001617 41.954465,32.9172203 41.6153695,32.9534508 C41.2639316,32.9894595 40.9896529,33.0114843 40.7167244,33.0219948 C40.1869261,33.0423975 39.7488762,33.0136092 39.3883591,32.9145883 C38.3187521,32.6208063 37.8331633,31.4553167 38.0510784,30.8126541 C38.2257244,30.2975984 38.3286453,30.0309594 38.4445356,29.818312 C38.7861236,29.1915315 39.0427569,29.1352994 40.0911034,29.2032559 C40.7189748,29.2439562 41.2305747,29.2422399 41.9452106,29.1682565 L42.0319639,30.006242 L42.2941089,29.908678 C42.3884412,30.1621398 42.4619216,30.4198876 42.5470976,30.7726896 C42.5649677,30.8467082 42.5799875,30.9103943 42.611548,31.0451171 C42.7116671,31.4719429 42.8200792,31.8330738 42.9582474,32.1337269 C42.9795396,32.1655041 42.9967097,32.2003956 43.008843,32.2384391 C43.5693514,33.3411354 44.6089999,33.5561457 47.353557,33.181425 C49.1948559,32.9300282 49.450379,32.6989991 49.2424292,31.4877348 C49.0773765,30.526337 46.6151841,23.2796213 46.1622693,21.8314455 C45.6332955,20.1400746 45.3569693,18.4311548 45.0182217,15.2340704 C45.0482752,15.5177139 44.7599112,12.7444187 44.669819,11.9331351 C44.5194749,10.5792814 44.3680626,9.37115706 44.1898306,8.14369689 L45.1794524,8 C45.3594421,9.23956567 45.51221,10.4585057 45.6637095,11.8227645 C45.7542568,12.6381456 46.0430484,15.4155534 46.0126553,15.1287051 C46.3447704,18.2631928 46.6131388,19.9228974 47.1166817,21.5329545 C47.4147849,22.4861267 48.74564,26.4255303 49.5704265,29.0413468 C50.0524242,29.0723428 50.4618827,29.0658806 50.9382785,29.0349994 C51.986625,28.9670429 52.2432583,29.0232749 52.5848463,29.6500555 C52.7007367,29.8627029 52.8036575,30.1293419 52.9783035,30.6443976 C53.1962186,31.2870602 52.7106298,32.4525498 51.6410228,32.7463318 C51.2805057,32.8453527 50.8424558,32.874141 50.3126575,32.8537383 C50.2713122,32.8521461 50.223895,32.849736 50.1704058,32.8465079 Z M50.2937448,31.8631043 C50.3145266,31.8566809 50.3336581,31.8538058 50.3511392,31.854479 C50.7874725,31.8712823 51.1342364,31.8484932 51.376168,31.7820435 C51.8459634,31.6530079 52.0766424,31.0993419 52.031266,30.9655206 C51.8753864,30.5058095 51.7856306,30.2732776 51.7067787,30.128592 C51.6240453,29.9767844 51.679905,29.9890241 51.0029653,30.032905 C50.613206,30.0581702 50.2609505,30.0683234 49.8849401,30.0572307 C50.0669288,30.659763 50.1924716,31.1115255 50.2280102,31.3185303 C50.2613609,31.5127915 50.2834785,31.6939907 50.2937448,31.8631043 Z M42.1804672,32.8036629 C42.117354,32.6886079 42.0586426,32.5667724 42.0037443,32.4380569 C41.9920738,32.6094022 42.0724922,32.7304892 42.1804672,32.8036629 Z M41.8157538,31.9265675 C41.7510114,31.7226357 41.6922863,31.505032 41.6379732,31.2734853 C41.6065308,31.1392773 41.5921672,31.0783735 41.575026,31.0073741 C41.4983965,30.689972 41.4346322,30.4663055 41.3569124,30.2574798 L41.4844975,30.2099957 C40.9727178,30.2412504 40.5309946,30.2338696 40.0264166,30.2011615 C39.3494769,30.1572806 39.4053366,30.1450409 39.3226032,30.2968485 C39.2437513,30.4415341 39.1539955,30.6740661 38.9981159,31.1337772 C38.9527395,31.2675984 39.1834185,31.8212644 39.6532139,31.9503 C39.8951455,32.0167498 40.2419094,32.0395388 40.6782427,32.0227355 C40.925931,32.013197 41.1812968,31.9926909 41.513442,31.958659 C41.6320721,31.9459298 41.7312575,31.9353598 41.8157538,31.9265675 Z" id="nose" fill="#000000" fill-rule="nonzero" opacity="0.3"></path>
                    <g id="eye-l" transform="translate(26.759711, 11.015426) rotate(-8.000000) translate(-26.759711, -11.015426) translate(14.759711, 3.015426)">
                        <path d="M14.1142716,14.8970681 C16.9465528,14.8970681 19.5591686,14.561226 21.9521188,13.8895417 C18.4896273,10.7007841 15.3422409,9.10640528 12.5099596,9.10640528 C9.67767837,9.10640528 7.20782417,9.74410291 5.10039701,11.0194982 C8.27736548,13.6045448 11.2819903,14.8970681 14.1142716,14.8970681 Z" id="eye-white" fill="#FFFFFF" opacity="0.800000012"></path>
                        <path d="M13.8672808,14.3857797 C15.8976816,14.3857797 17.5436467,12.6615201 17.5436467,10.5345381 C17.5436467,10.2443832 16.0350745,9.77756838 13.01793,9.13409366 C11.1332532,8.64973528 10.1909148,9.11655009 10.1909148,10.5345381 C10.1909148,12.6615201 11.8368799,14.3857797 13.8672808,14.3857797 Z" id="iris" fill="#AEEDA9" opacity="0.700000048"></path>
                        <path d="M9.98585527,9.47176823 C8.53533395,9.74558386 7.01474185,10.2467203 5.25972634,10.9735094 C9.25176825,14.7297374 14.8536689,15.819474 21.6874423,13.6408538 C20.5808753,12.5627882 19.6531268,11.8209725 18.9094777,11.4168707 C18.5661474,11.2303036 18.0869687,11.0202146 17.4727132,10.7870377 C17.5786859,11.3471269 17.5196576,11.9274918 17.292402,12.3849991 C16.6200891,13.7384886 15.4122704,14.6330287 14.101794,14.6693692 C11.2608678,14.7481502 8.91428724,12.1855009 9.98585527,9.47176823 Z M10.3519759,9.40725656 L10.6001131,9.5232481 C9.535935,11.8606657 11.5684876,14.1471774 14.0858048,14.0773703 C15.1651524,14.0474391 16.1889504,13.2891892 16.7703397,12.1187457 C16.9835294,11.6895555 16.9960125,11.0786374 16.8011528,10.54184 C16.3984232,10.3998798 15.9517986,10.2504502 15.4614223,10.093632 C15.3498293,10.1596958 15.27445,10.1923144 15.1519259,10.2220037 L15.0779019,9.9982874 L15.1122837,9.9830516 C14.4921929,9.78848189 13.8076525,9.58304742 13.058919,9.36689254 C13.0737076,9.43276846 13.0923314,9.51494207 13.1022546,9.55546088 L12.8753522,9.61251497 C12.8567135,9.53640795 12.8101874,9.32636555 12.8096757,9.3241695 C12.8011581,9.28761029 12.7929657,9.25546658 12.7846088,9.22664033 C11.9717475,9.21305252 11.170951,9.27336024 10.3519759,9.40725656 Z M5.02332459,11.0721705 C4.9829453,11.0891501 4.94244107,11.1062464 4.90180998,11.1234592 L4.67636593,10.5770695 C11.4116167,7.72377585 14.8194613,8.00213749 23.0581956,11.4563066 L22.8347385,12.0035337 C20.0670368,10.8431479 17.8650897,10.0479452 15.9036416,9.61462439 C17.4385279,10.1132878 18.5310138,10.5392046 19.1857004,10.8949638 C20.1953866,11.4436313 21.4784644,12.5372779 23.0457721,14.1789078 L22.6257061,14.5906761 C22.4670338,14.4244794 22.3114472,14.2641252 22.1589586,14.1096169 C14.9527318,16.4922503 8.99645584,15.3542803 4.78205882,11.3316975 L5.02332459,11.0721705 Z M15.720634,11.3393683 L16.1896376,11.4479626 L16.1559915,11.6816235 C15.9939558,11.6709168 15.8835524,11.6429292 15.6579548,11.5678496 L15.1889512,11.4592554 L15.2225972,11.2255944 C15.384633,11.2363011 15.4950364,11.2642887 15.720634,11.3393683 Z M14.7783224,13.1505256 L14.5616457,13.2394766 L14.1594009,12.2334534 L14.3760776,12.1445024 L14.7783224,13.1505256 Z M15.2793005,10.7759423 L15.2945133,10.5395562 L16.3787478,10.6111981 L16.363535,10.8475843 L15.2793005,10.7759423 Z M10.8546789,10.7562065 L10.8698918,10.5198203 C11.0154019,10.529435 11.131578,10.5284619 11.3937789,10.5196346 C11.6635821,10.5105514 11.7849759,10.5095345 11.940642,10.5198203 L11.9254292,10.7562065 C11.7799191,10.7465917 11.663743,10.7475649 11.4015421,10.7563922 C11.1317389,10.7654754 11.0103451,10.7664923 10.8546789,10.7562065 Z M11.3152211,11.9659156 L11.2392381,11.7418882 C11.2628634,11.7336105 11.2628634,11.7336105 11.2858517,11.7253552 C11.4097481,11.6805861 11.5181517,11.634694 11.6324427,11.579306 C11.7505315,11.5220776 11.7462771,11.5243645 12.1286503,11.3155876 L12.2395492,11.5241272 C11.8518273,11.7358244 11.8565403,11.733291 11.7333121,11.7930101 C11.611836,11.8518801 11.4959846,11.9009252 11.3643774,11.9484805 C11.3400989,11.9571992 11.3400989,11.9571992 11.3152211,11.9659156 Z M13.5909909,13.3314099 L13.3669003,13.2639032 C13.4250392,13.0657505 13.4527232,12.9421769 13.4663811,12.8206899 C13.4782153,12.7154245 13.480174,12.6350944 13.4800787,12.3743946 C13.480071,12.3530177 13.480071,12.3530177 13.4800684,12.3308882 L13.7138527,12.3308882 C13.7138553,12.3529467 13.7138553,12.3529467 13.713863,12.3743069 C13.7139618,12.6446661 13.7118833,12.7299076 13.6986631,12.8475018 C13.6832218,12.9848519 13.6527037,13.1210763 13.5909909,13.3314099 Z M15.7314991,12.3664895 L15.5784554,12.5455637 L14.8177005,11.8780142 L14.9707442,11.69894 L15.7314991,12.3664895 Z M12.2383053,12.8279186 L12.0558377,12.6798252 L12.5922117,12.0012873 L12.7746793,12.1493807 L12.2383053,12.8279186 Z M11.4502973,9.53795512 L11.5643391,9.33116331 L12.4063564,9.80793272 L12.2923145,10.0147245 L11.4502973,9.53795512 Z M13.5584956,11.7988872 C12.7515238,11.7988872 12.2587983,11.4436151 12.2587983,10.7894663 C12.2587983,10.1353175 12.9944545,9.75647796 13.8014264,9.75647796 C14.6083982,9.75647796 14.858193,10.1353175 14.858193,10.7894663 C14.858193,11.4436151 14.3654675,11.7988872 13.5584956,11.7988872 Z" id="eye" fill="#000000" fill-rule="nonzero" opacity="0.5"></path>
                        <path d="M7.47890559,9.58494107 L7.45174527,9.62488754 C6.85021277,9.4371593 6.43932906,9.25596565 6.21909415,9.08130658 C5.99885924,8.9066475 5.84051004,8.75639629 5.74404653,8.63055292 L5.59462658,7.81076647 C5.89902312,8.29970341 6.16672726,8.63577475 6.39773899,8.81898047 C6.56599046,8.95241365 6.82472747,9.09195445 7.17395001,9.23760286 L6.55456622,8.5321373 L6.27080498,7.610152 C6.57816754,8.12563483 6.82036521,8.49625295 6.99739802,8.72200636 C7.17443082,8.94775976 7.42059606,9.1999053 7.73589374,9.47844295 L7.54150766,9.65624355 L7.47890559,9.58494107 Z M6.25224828,10.0799969 L6.13577271,10.3246653 C5.52799311,10.1350392 5.0878163,9.9645498 4.81524228,9.81319713 C4.54266826,9.66184446 4.34231794,9.52859838 4.2141913,9.4134589 L3.912385,8.78073678 C4.38814696,9.14802866 4.75871158,9.40535008 5.02407885,9.55270105 C5.28944613,9.70005202 5.69883594,9.87581731 6.25224828,10.0799969 Z M8.2580501,9.32056719 L8.05743863,9.49011026 L7.11809266,8.40248002 L6.83972876,7.36307972 C7.13085969,7.9650829 7.35770076,8.37825652 7.52025199,8.6026006 C7.68280321,8.82694467 7.92873592,9.06626687 8.2580501,9.32056719 Z M9.59678909,8.86290716 L9.40036308,9.03807326 C9.02638922,8.7243079 8.76189979,8.46605432 8.60689479,8.26331253 C8.45188979,8.06057074 8.3076295,7.88914355 8.17411392,7.74903095 L8.02759308,6.81044689 C8.23394622,7.30376857 8.38379274,7.62400006 8.47713264,7.77114135 C8.59777921,7.96132894 8.73436934,7.96163993 8.82511474,8.08033212 C9.02116979,8.33676612 9.27839458,8.59762447 9.59678909,8.86290716 Z M10.9493696,8.95202831 L10.7555661,9.13056913 C10.3676239,8.89329797 10.0911068,8.6701498 9.92601487,8.4611246 C9.76092295,8.25209941 9.66807763,8.13388833 9.64747893,8.10649138 L9.5281875,7.15264973 C9.7539139,7.7479523 9.95328193,8.15512856 10.1262916,8.37417852 C10.2993013,8.59322848 10.5736606,8.78584508 10.9493696,8.95202831 Z M12.0868288,8.9358105 L11.8977696,9.12018918 C11.5112943,8.84862572 11.2433473,8.62349073 11.0939287,8.44478421 C10.9445102,8.26607769 10.8192986,8.1198771 10.7182942,8.00618245 L10.7621667,7.35149763 C10.8593335,7.72193413 10.9411143,7.96625028 11.0075091,8.08444608 C11.0927906,8.23626408 11.2431948,8.27799905 11.320914,8.37095229 C11.4893942,8.57245669 11.7446991,8.76074276 12.0868288,8.9358105 Z M13.0947196,9.06346482 L12.8849568,9.21955612 C12.3967277,8.90120249 12.0833844,8.63351202 11.9449271,8.41648471 C11.8064697,8.1994574 11.7135608,8.03184239 11.6662004,7.91363969 L11.8290142,7.07951393 C11.8826736,7.51304312 11.9320369,7.79864695 11.9771041,7.93632543 C12.0414008,8.13274946 12.1489802,8.18476306 12.2231464,8.30101603 C12.3752899,8.5394959 12.6658143,8.79364549 13.0947196,9.06346482 Z M13.6505634,9.2074686 L13.4017783,9.2665726 C13.1823125,8.87240801 13.0529336,8.57886941 13.0136415,8.38595681 C12.9743495,8.19304421 12.9605025,8.03744535 12.9721005,7.91916024 L13.3141117,7.55558667 C13.2223329,7.76602329 13.1724447,7.9218152 13.1644469,8.0229624 C13.1505289,8.19898354 13.2285011,8.40597269 13.2500385,8.51171492 C13.2901399,8.7086013 13.4236482,8.94051919 13.6505634,9.2074686 Z M14.1535506,9.34669626 L13.8988177,9.34711227 C13.7546122,9.08103142 13.6824101,8.8770618 13.6822114,8.73520341 C13.6820128,8.59334501 13.7377162,8.48329732 13.8493216,8.40506031 L14.1519336,8.19184313 C14.009529,8.45061102 13.9384078,8.63796636 13.9385702,8.75390916 C13.9387325,8.86985196 14.0103927,9.06744766 14.1535506,9.34669626 Z M14.7658805,9.34191621 L14.5111473,9.34195174 C14.3832456,9.0907247 14.3192875,8.9039701 14.3192729,8.78168794 C14.3192582,8.65940577 14.400821,8.5663848 14.5639611,8.50262501 L14.7657561,8.30151404 C14.6854782,8.52385242 14.6453461,8.69184159 14.6453597,8.80548155 C14.6453733,8.91912151 14.6855469,9.09793306 14.7658805,9.34191621 Z M5.31617265,12.1707608 L5.4878301,12.4539258 C5.32624485,12.4835485 5.22953513,12.5063913 5.19770095,12.5224542 C4.96828588,12.6382123 4.79286862,12.7043411 4.67144917,12.7208405 C4.52475704,12.7407742 4.40004778,12.6990844 4.2973214,12.5957711 L3.88165619,12.4055134 C4.25841044,12.4549829 4.52779862,12.4687093 4.68982071,12.4466925 C4.85184279,12.4246756 5.06062678,12.3326984 5.31617265,12.1707608 Z M5.60861867,12.4627394 L5.73633973,12.7007721 C5.56926895,12.8827475 5.42544551,13.0114669 5.3048694,13.0869302 C5.1842933,13.1623936 5.0676785,13.2172937 4.955025,13.2516306 L4.49851449,13.1575051 C4.84473601,13.0920445 5.08340541,13.0182839 5.21452271,12.9362234 C5.34564001,12.8541628 5.47700533,12.6963348 5.60861867,12.4627394 Z M6.11672645,12.6143241 L6.26607052,12.8371955 C6.1087443,13.0672953 5.97245752,13.2273836 5.85721019,13.3174604 C5.74196285,13.4075373 5.63762075,13.4431382 5.54418388,13.4242632 L5.12005813,13.393316 C5.41850757,13.2998894 5.62509707,13.20834 5.73982664,13.1186678 C5.8545562,13.0289957 5.98018947,12.8608811 6.11672645,12.6143241 Z M6.38161159,13.1563656 L6.59272784,13.3103138 C6.46549358,13.653842 6.36621444,13.882649 6.29489043,13.9967348 C6.22356641,14.1108205 6.07994037,14.2385729 5.86401232,14.3799919 L5.54316423,14.5424654 C5.85984981,14.2463342 6.07211703,14.0120143 6.17996589,13.8395054 C6.28781476,13.6669966 6.35502999,13.4392833 6.38161159,13.1563656 Z M6.82162242,13.2802594 L7.03856149,13.4244564 C6.9109203,13.8554563 6.80597354,14.1431248 6.72372121,14.287462 C6.64146889,14.4317992 6.43770174,14.6184645 6.11241976,14.8474581 L5.83062676,14.8781857 C6.20744332,14.53124 6.44370683,14.2737903 6.53941731,14.1058366 C6.63512779,13.9378829 6.72919616,13.6626905 6.82162242,13.2802594 Z M7.78030084,13.6256808 L7.96259279,13.7295096 C7.87568584,14.0715468 7.79707838,14.3032053 7.72677041,14.4244851 C7.65646243,14.5457649 7.598183,14.6219274 7.5519321,14.6529727 L7.18836666,14.9259668 C7.33605485,14.6687963 7.44747528,14.4753927 7.52262795,14.3457559 C7.59778063,14.2161191 7.68367159,13.976094 7.78030084,13.6256808 Z M8.06859731,13.8674831 L8.31450131,13.885426 C8.32132167,14.2293177 8.30618732,14.4526704 8.26909827,14.5554841 C8.23200922,14.6582978 8.20086093,14.7059644 8.17565341,14.6984838 L7.7609498,14.8165404 C7.9120439,14.6569226 8.00324357,14.5337234 8.03454884,14.4469428 C8.0658541,14.3601622 8.07720359,14.167009 8.06859731,13.8674831 Z M8.87950877,14.1190358 L9.05815996,14.1445768 C9.04246983,14.4966741 9.02725309,14.7310876 9.01250974,14.8478173 C8.99776639,14.9645469 8.99144069,15.0515991 8.99353264,15.1089738 L8.64375182,15.3764815 C8.75295463,15.1419132 8.81555589,14.9612906 8.83155562,14.8346136 C8.84755534,14.7079366 8.86353973,14.4694106 8.87950877,14.1190358 Z M9.92912887,14.3803798 L10.1531268,14.511385 C10.1481254,14.7319674 10.1217155,14.8899422 10.0738971,14.9853095 C10.0260787,15.0806767 9.89867028,15.2294716 9.69167174,15.4316942 L9.65353141,15.4289112 C9.75876275,15.193553 9.83875114,15.0212827 9.89349658,14.9121003 C9.94824203,14.802918 9.96011946,14.6256778 9.92912887,14.3803798 Z M10.8289458,14.7422688 L11.0834581,14.7537218 C11.0863893,14.9846591 11.0858784,15.1513574 11.0819255,15.2538168 C11.0779726,15.3562763 11.0668331,15.4915565 11.0485069,15.6596576 L10.909603,15.6495222 C10.8735395,15.4898403 10.8583585,15.3361092 10.8640599,15.1883289 C10.8697613,15.0405485 10.8580566,14.8918618 10.8289458,14.7422688 Z M7.00065588,9.88372029 L6.87372309,10.1222443 C6.31305539,9.9207627 5.91483029,9.74684536 5.6790478,9.60049224 C5.44326531,9.45413912 5.33401223,9.37644262 5.35128857,9.36740274 L5.10247102,8.70549337 C5.40882996,9.110236 5.66813641,9.37848165 5.88039038,9.51023032 C6.09264434,9.64197899 6.46606617,9.76647564 7.00065588,9.88372029 Z M6.0450538,10.5143764 L5.97206179,10.7779524 C5.30231987,10.7956811 4.83427701,10.7615293 4.56793323,10.6754972 C4.30158945,10.5894651 4.05175208,10.4252682 3.81842112,10.1829066 L3.59971507,9.72450362 C4.07127795,10.1039895 4.43214043,10.3341351 4.68230251,10.4149404 C4.93246458,10.4957456 5.38671502,10.528891 6.0450538,10.5143764 Z M8.94122312,9.27993246 L8.73400331,9.4399365 C8.31546677,9.10246317 8.03933595,8.83272404 7.90561083,8.63071912 C7.77188571,8.42871419 7.68521892,8.25273316 7.64561048,8.10277601 L7.62066558,7.28510066 C7.83515166,7.83706657 8.02344874,8.23548961 8.18555683,8.48036979 C8.34766492,8.72524997 8.59955368,8.99177086 8.94122312,9.27993246 Z" id="eye-lashes" fill="#000000" fill-rule="nonzero" opacity="0.400000006" transform="translate(9.182798, 11.235052) rotate(1.000000) translate(-9.182798, -11.235052) "></path>
                        <path d="M1.20397407,3.32114711 L0.721447441,2.44526581 C7.70015177,-1.39933128 13.078327,1.38268152 22.8809345,3.74606983 L22.6465525,4.7182144 C13.0641213,2.40791014 7.92765411,-0.38295604 1.20397407,3.32114711 Z" id="eye-brow" fill="#000000" fill-rule="nonzero" opacity="0.3"></path>
                    </g>
                    <g id="eye-r" transform="translate(58.771127, 9.753959) scale(-1, 1) rotate(-5.000000) translate(-58.771127, -9.753959) translate(46.771127, 1.753959)">
                        <path d="M11.1142716,14.8970681 C13.9465528,14.8970681 16.5591686,14.561226 18.9521188,13.8895417 C15.4896273,10.7007841 12.3422409,9.10640528 9.50995962,9.10640528 C6.67767837,9.10640528 4.20782417,9.74410291 2.10039701,11.0194982 C5.27736548,13.6045448 8.28199035,14.8970681 11.1142716,14.8970681 Z" id="eye-white" fill="#FFFFFF" opacity="0.800000012"></path>
                        <path d="M10.8672808,14.3857797 C12.8976816,14.3857797 14.5436467,12.6615201 14.5436467,10.5345381 C14.5436467,10.2443832 13.0350745,9.77756838 10.01793,9.13409366 C8.13325322,8.64973528 7.19091484,9.11655009 7.19091484,10.5345381 C7.19091484,12.6615201 8.83687993,14.3857797 10.8672808,14.3857797 Z" id="iris" fill="#AEEDA9" opacity="0.700000048"></path>
                        <path d="M6.98585527,9.47176823 C5.53533395,9.74558386 4.01474185,10.2467203 2.25972634,10.9735094 C6.25176825,14.7297374 11.8536689,15.819474 18.6874423,13.6408538 C17.5808753,12.5627882 16.6531268,11.8209725 15.9094777,11.4168707 C15.5661474,11.2303036 15.0869687,11.0202146 14.4727132,10.7870377 C14.5786859,11.3471269 14.5196576,11.9274918 14.292402,12.3849991 C13.6200891,13.7384886 12.4122704,14.6330287 11.101794,14.6693692 C8.26086784,14.7481502 5.91428724,12.1855009 6.98585527,9.47176823 Z M7.3519759,9.40725656 L7.60011312,9.5232481 C6.535935,11.8606657 8.56848758,14.1471774 11.0858048,14.0773703 C12.1651524,14.0474391 13.1889504,13.2891892 13.7703397,12.1187457 C13.9835294,11.6895555 13.9960125,11.0786374 13.8011528,10.54184 C13.3984232,10.3998798 12.9517986,10.2504502 12.4614223,10.093632 C12.3498293,10.1596958 12.27445,10.1923144 12.1519259,10.2220037 L12.0779019,9.9982874 L12.1122837,9.9830516 C11.4921929,9.78848189 10.8076525,9.58304742 10.058919,9.36689254 C10.0737076,9.43276846 10.0923314,9.51494207 10.1022546,9.55546088 L9.87535222,9.61251497 C9.8567135,9.53640795 9.81018739,9.32636555 9.80967575,9.3241695 C9.80115813,9.28761029 9.79296567,9.25546658 9.78460878,9.22664033 C8.97174755,9.21305252 8.17095104,9.27336024 7.3519759,9.40725656 Z M2.02332459,11.0721705 C1.9829453,11.0891501 1.94244107,11.1062464 1.90180998,11.1234592 L1.67636593,10.5770695 C8.41161669,7.72377585 11.8194613,8.00213749 20.0581956,11.4563066 L19.8347385,12.0035337 C17.0670368,10.8431479 14.8650897,10.0479452 12.9036416,9.61462439 C14.4385279,10.1132878 15.5310138,10.5392046 16.1857004,10.8949638 C17.1953866,11.4436313 18.4784644,12.5372779 20.0457721,14.1789078 L19.6257061,14.5906761 C19.4670338,14.4244794 19.3114472,14.2641252 19.1589586,14.1096169 C11.9527318,16.4922503 5.99645584,15.3542803 1.78205882,11.3316975 L2.02332459,11.0721705 Z M12.720634,11.3393683 L13.1896376,11.4479626 L13.1559915,11.6816235 C12.9939558,11.6709168 12.8835524,11.6429292 12.6579548,11.5678496 L12.1889512,11.4592554 L12.2225972,11.2255944 C12.384633,11.2363011 12.4950364,11.2642887 12.720634,11.3393683 Z M11.7783224,13.1505256 L11.5616457,13.2394766 L11.1594009,12.2334534 L11.3760776,12.1445024 L11.7783224,13.1505256 Z M12.2793005,10.7759423 L12.2945133,10.5395562 L13.3787478,10.6111981 L13.363535,10.8475843 L12.2793005,10.7759423 Z M7.85467894,10.7562065 L7.86989176,10.5198203 C8.01540186,10.529435 8.13157801,10.5284619 8.3937789,10.5196346 C8.66358208,10.5105514 8.78497588,10.5095345 8.94064204,10.5198203 L8.92542922,10.7562065 C8.77991912,10.7465917 8.66374297,10.7475649 8.40154208,10.7563922 C8.1317389,10.7654754 8.0103451,10.7664923 7.85467894,10.7562065 Z M8.31522112,11.9659156 L8.23923812,11.7418882 C8.26286343,11.7336105 8.26286343,11.7336105 8.28585167,11.7253552 C8.40974806,11.6805861 8.5181517,11.634694 8.63244273,11.579306 C8.75053153,11.5220776 8.7462771,11.5243645 9.12865033,11.3155876 L9.23954916,11.5241272 C8.85182728,11.7358244 8.85654029,11.733291 8.73331212,11.7930101 C8.61183604,11.8518801 8.49598456,11.9009252 8.36437744,11.9484805 C8.34009888,11.9571992 8.34009888,11.9571992 8.31522112,11.9659156 Z M10.5909909,13.3314099 L10.3669003,13.2639032 C10.4250392,13.0657505 10.4527232,12.9421769 10.4663811,12.8206899 C10.4782153,12.7154245 10.480174,12.6350944 10.4800787,12.3743946 C10.480071,12.3530177 10.480071,12.3530177 10.4800684,12.3308882 L10.7138527,12.3308882 C10.7138553,12.3529467 10.7138553,12.3529467 10.713863,12.3743069 C10.7139618,12.6446661 10.7118833,12.7299076 10.6986631,12.8475018 C10.6832218,12.9848519 10.6527037,13.1210763 10.5909909,13.3314099 Z M12.7314991,12.3664895 L12.5784554,12.5455637 L11.8177005,11.8780142 L11.9707442,11.69894 L12.7314991,12.3664895 Z M9.23830532,12.8279186 L9.05583774,12.6798252 L9.59221171,12.0012873 L9.77467929,12.1493807 L9.23830532,12.8279186 Z M8.45029728,9.53795512 L8.56433915,9.33116331 L9.40635639,9.80793272 L9.29231453,10.0147245 L8.45029728,9.53795512 Z M10.5584956,11.7988872 C9.75152378,11.7988872 9.25879827,11.4436151 9.25879827,10.7894663 C9.25879827,10.1353175 9.99445453,9.75647796 10.8014264,9.75647796 C11.6083982,9.75647796 11.858193,10.1353175 11.858193,10.7894663 C11.858193,11.4436151 11.3654675,11.7988872 10.5584956,11.7988872 Z" id="eye" fill="#000000" fill-rule="nonzero" opacity="0.5"></path>
                        <path d="M4.47890559,9.58494107 L4.45174527,9.62488754 C3.85021277,9.4371593 3.43932906,9.25596565 3.21909415,9.08130658 C2.99885924,8.9066475 2.84051004,8.75639629 2.74404653,8.63055292 L2.59462658,7.81076647 C2.89902312,8.29970341 3.16672726,8.63577475 3.39773899,8.81898047 C3.56599046,8.95241365 3.82472747,9.09195445 4.17395001,9.23760286 L3.55456622,8.5321373 L3.27080498,7.610152 C3.57816754,8.12563483 3.82036521,8.49625295 3.99739802,8.72200636 C4.17443082,8.94775976 4.42059606,9.1999053 4.73589374,9.47844295 L4.54150766,9.65624355 L4.47890559,9.58494107 Z M3.25224828,10.0799969 L3.13577271,10.3246653 C2.52799311,10.1350392 2.0878163,9.9645498 1.81524228,9.81319713 C1.54266826,9.66184446 1.34231794,9.52859838 1.2141913,9.4134589 L0.912384997,8.78073678 C1.38814696,9.14802866 1.75871158,9.40535008 2.02407885,9.55270105 C2.28944613,9.70005202 2.69883594,9.87581731 3.25224828,10.0799969 Z M5.2580501,9.32056719 L5.05743863,9.49011026 L4.11809266,8.40248002 L3.83972876,7.36307972 C4.13085969,7.9650829 4.35770076,8.37825652 4.52025199,8.6026006 C4.68280321,8.82694467 4.92873592,9.06626687 5.2580501,9.32056719 Z M6.59678909,8.86290716 L6.40036308,9.03807326 C6.02638922,8.7243079 5.76189979,8.46605432 5.60689479,8.26331253 C5.45188979,8.06057074 5.3076295,7.88914355 5.17411392,7.74903095 L5.02759308,6.81044689 C5.23394622,7.30376857 5.38379274,7.62400006 5.47713264,7.77114135 C5.59777921,7.96132894 5.73436934,7.96163993 5.82511474,8.08033212 C6.02116979,8.33676612 6.27839458,8.59762447 6.59678909,8.86290716 Z M7.94936961,8.95202831 L7.75556608,9.13056913 C7.36762386,8.89329797 7.09110679,8.6701498 6.92601487,8.4611246 C6.76092295,8.25209941 6.66807763,8.13388833 6.64747893,8.10649138 L6.5281875,7.15264973 C6.7539139,7.7479523 6.95328193,8.15512856 7.12629159,8.37417852 C7.29930126,8.59322848 7.5736606,8.78584508 7.94936961,8.95202831 Z M9.0868288,8.9358105 L8.89776957,9.12018918 C8.51129426,8.84862572 8.24334731,8.62349073 8.09392875,8.44478421 C7.94451018,8.26607769 7.81929865,8.1198771 7.71829415,8.00618245 L7.76216667,7.35149763 C7.85933351,7.72193413 7.94111431,7.96625028 8.00750907,8.08444608 C8.09279061,8.23626408 8.24319478,8.27799905 8.32091404,8.37095229 C8.48939418,8.57245669 8.7446991,8.76074276 9.0868288,8.9358105 Z M10.0947196,9.06346482 L9.88495681,9.21955612 C9.39672768,8.90120249 9.08338443,8.63351202 8.94492705,8.41648471 C8.80646968,8.1994574 8.7135608,8.03184239 8.66620042,7.91363969 L8.82901421,7.07951393 C8.88267358,7.51304312 8.93203686,7.79864695 8.97710406,7.93632543 C9.04140083,8.13274946 9.1489802,8.18476306 9.22314635,8.30101603 C9.37528985,8.5394959 9.66581425,8.79364549 10.0947196,9.06346482 Z M10.6505634,9.2074686 L10.4017783,9.2665726 C10.1823125,8.87240801 10.0529336,8.57886941 10.0136415,8.38595681 C9.97434951,8.19304421 9.9605025,8.03744535 9.97210049,7.91916024 L10.3141117,7.55558667 C10.2223329,7.76602329 10.1724447,7.9218152 10.1644469,8.0229624 C10.1505289,8.19898354 10.2285011,8.40597269 10.2500385,8.51171492 C10.2901399,8.7086013 10.4236482,8.94051919 10.6505634,9.2074686 Z M11.1535506,9.34669626 L10.8988177,9.34711227 C10.7546122,9.08103142 10.6824101,8.8770618 10.6822114,8.73520341 C10.6820128,8.59334501 10.7377162,8.48329732 10.8493216,8.40506031 L11.1519336,8.19184313 C11.009529,8.45061102 10.9384078,8.63796636 10.9385702,8.75390916 C10.9387325,8.86985196 11.0103927,9.06744766 11.1535506,9.34669626 Z M11.7658805,9.34191621 L11.5111473,9.34195174 C11.3832456,9.0907247 11.3192875,8.9039701 11.3192729,8.78168794 C11.3192582,8.65940577 11.400821,8.5663848 11.5639611,8.50262501 L11.7657561,8.30151404 C11.6854782,8.52385242 11.6453461,8.69184159 11.6453597,8.80548155 C11.6453733,8.91912151 11.6855469,9.09793306 11.7658805,9.34191621 Z M2.31617265,12.1707608 L2.4878301,12.4539258 C2.32624485,12.4835485 2.22953513,12.5063913 2.19770095,12.5224542 C1.96828588,12.6382123 1.79286862,12.7043411 1.67144917,12.7208405 C1.52475704,12.7407742 1.40004778,12.6990844 1.2973214,12.5957711 L0.881656191,12.4055134 C1.25841044,12.4549829 1.52779862,12.4687093 1.68982071,12.4466925 C1.85184279,12.4246756 2.06062678,12.3326984 2.31617265,12.1707608 Z M2.60861867,12.4627394 L2.73633973,12.7007721 C2.56926895,12.8827475 2.42544551,13.0114669 2.3048694,13.0869302 C2.1842933,13.1623936 2.0676785,13.2172937 1.955025,13.2516306 L1.49851449,13.1575051 C1.84473601,13.0920445 2.08340541,13.0182839 2.21452271,12.9362234 C2.34564001,12.8541628 2.47700533,12.6963348 2.60861867,12.4627394 Z M3.11672645,12.6143241 L3.26607052,12.8371955 C3.1087443,13.0672953 2.97245752,13.2273836 2.85721019,13.3174604 C2.74196285,13.4075373 2.63762075,13.4431382 2.54418388,13.4242632 L2.12005813,13.393316 C2.41850757,13.2998894 2.62509707,13.20834 2.73982664,13.1186678 C2.8545562,13.0289957 2.98018947,12.8608811 3.11672645,12.6143241 Z M3.38161159,13.1563656 L3.59272784,13.3103138 C3.46549358,13.653842 3.36621444,13.882649 3.29489043,13.9967348 C3.22356641,14.1108205 3.07994037,14.2385729 2.86401232,14.3799919 L2.54316423,14.5424654 C2.85984981,14.2463342 3.07211703,14.0120143 3.17996589,13.8395054 C3.28781476,13.6669966 3.35502999,13.4392833 3.38161159,13.1563656 Z M3.82162242,13.2802594 L4.03856149,13.4244564 C3.9109203,13.8554563 3.80597354,14.1431248 3.72372121,14.287462 C3.64146889,14.4317992 3.43770174,14.6184645 3.11241976,14.8474581 L2.83062676,14.8781857 C3.20744332,14.53124 3.44370683,14.2737903 3.53941731,14.1058366 C3.63512779,13.9378829 3.72919616,13.6626905 3.82162242,13.2802594 Z M4.78030084,13.6256808 L4.96259279,13.7295096 C4.87568584,14.0715468 4.79707838,14.3032053 4.72677041,14.4244851 C4.65646243,14.5457649 4.598183,14.6219274 4.5519321,14.6529727 L4.18836666,14.9259668 C4.33605485,14.6687963 4.44747528,14.4753927 4.52262795,14.3457559 C4.59778063,14.2161191 4.68367159,13.976094 4.78030084,13.6256808 Z M5.06859731,13.8674831 L5.31450131,13.885426 C5.32132167,14.2293177 5.30618732,14.4526704 5.26909827,14.5554841 C5.23200922,14.6582978 5.20086093,14.7059644 5.17565341,14.6984838 L4.7609498,14.8165404 C4.9120439,14.6569226 5.00324357,14.5337234 5.03454884,14.4469428 C5.0658541,14.3601622 5.07720359,14.167009 5.06859731,13.8674831 Z M5.87950877,14.1190358 L6.05815996,14.1445768 C6.04246983,14.4966741 6.02725309,14.7310876 6.01250974,14.8478173 C5.99776639,14.9645469 5.99144069,15.0515991 5.99353264,15.1089738 L5.64375182,15.3764815 C5.75295463,15.1419132 5.81555589,14.9612906 5.83155562,14.8346136 C5.84755534,14.7079366 5.86353973,14.4694106 5.87950877,14.1190358 Z M6.92912887,14.3803798 L7.15312681,14.511385 C7.1481254,14.7319674 7.1217155,14.8899422 7.07389712,14.9853095 C7.02607875,15.0806767 6.89867028,15.2294716 6.69167174,15.4316942 L6.65353141,15.4289112 C6.75876275,15.193553 6.83875114,15.0212827 6.89349658,14.9121003 C6.94824203,14.802918 6.96011946,14.6256778 6.92912887,14.3803798 Z M7.82894579,14.7422688 L8.08345811,14.7537218 C8.08638927,14.9846591 8.0858784,15.1513574 8.0819255,15.2538168 C8.07797259,15.3562763 8.06683307,15.4915565 8.04850693,15.6596576 L7.90960304,15.6495222 C7.87353952,15.4898403 7.85835846,15.3361092 7.86405986,15.1883289 C7.86976126,15.0405485 7.85805657,14.8918618 7.82894579,14.7422688 Z M4.00065588,9.88372029 L3.87372309,10.1222443 C3.31305539,9.9207627 2.91483029,9.74684536 2.6790478,9.60049224 C2.44326531,9.45413912 2.33401223,9.37644262 2.35128857,9.36740274 L2.10247102,8.70549337 C2.40882996,9.110236 2.66813641,9.37848165 2.88039038,9.51023032 C3.09264434,9.64197899 3.46606617,9.76647564 4.00065588,9.88372029 Z M3.0450538,10.5143764 L2.97206179,10.7779524 C2.30231987,10.7956811 1.83427701,10.7615293 1.56793323,10.6754972 C1.30158945,10.5894651 1.05175208,10.4252682 0.81842112,10.1829066 L0.599715071,9.72450362 C1.07127795,10.1039895 1.43214043,10.3341351 1.68230251,10.4149404 C1.93246458,10.4957456 2.38671502,10.528891 3.0450538,10.5143764 Z M5.94122312,9.27993246 L5.73400331,9.4399365 C5.31546677,9.10246317 5.03933595,8.83272404 4.90561083,8.63071912 C4.77188571,8.42871419 4.68521892,8.25273316 4.64561048,8.10277601 L4.62066558,7.28510066 C4.83515166,7.83706657 5.02344874,8.23548961 5.18555683,8.48036979 C5.34766492,8.72524997 5.59955368,8.99177086 5.94122312,9.27993246 Z" id="eye-lashes" fill="#000000" fill-rule="nonzero" opacity="0.400000006" transform="translate(6.182798, 11.235052) rotate(1.000000) translate(-6.182798, -11.235052) "></path>
                        <path d="M2.18875286,3.66977008 L1.70622623,2.79388878 C8.68493057,-1.05070831 14.0631058,1.73130449 23.8657133,4.0946928 L23.6313313,5.06683737 C14.0489001,2.75653311 8.91243291,-0.0343330688 2.18875286,3.66977008 Z" id="eye-brow" fill="#000000" fill-rule="nonzero" opacity="0.3"></path>
                    </g>
                </g>
                <g id="hair" transform="translate(34.000000, 0.000000)">
                    <path d="M47.4169586,113.878723 C48.1708568,117.095357 49.1194527,120.273863 49.6948701,122.41748 C50.8016948,126.540764 57.3095494,127.786142 51.6645028,135.108398 C47.9001357,139.991203 40.3661195,162.71831 3.6484375,150.21875 C-6.4530096,146.779981 13.8290998,127.627119 17.269094,119.308594 C18.6729639,115.913784 20.8485718,112.277446 23.6796802,109.205625 C18.3695042,106.112106 22.048202,89.6927138 27.4937963,84.9824219 C29.0155558,83.6661411 30.625042,82.2965834 32.4474645,81.2257217 C18.9291342,77.7627832 24.8662231,67.0599408 33.1461719,60.7327129 C24.0587386,56.8839276 22.9184265,50.9034368 29.697515,47.9963359 C28.9735327,44.7369728 30.2029621,39.4358592 34.3378906,31.2827239 L35.3378906,29.5703125 C42.1786934,24.1087039 50.1848738,20.4544586 58.7405393,18.2974244 C49.0964149,15.3407219 57.6971545,2.41786815 68.8964844,1.55664063 C81.5636708,0.582535055 93.2339833,-0.670830232 104.513672,5.68945312 C112.457491,10.1687383 109.960285,15.4910177 105.123027,18.9966889 C107.581879,19.6003671 109.998136,20.282269 112.357422,21.0351563 C118.414615,22.9681066 147.357574,33.6455532 137.891894,46.3940578 C149.309644,47.4015899 150.407314,55.810468 141.138661,60.7327129 C147.741999,67.0599408 152.476884,77.7627832 141.695887,81.2257217 C143.149286,82.2965834 144.432867,83.6661411 145.646484,84.9824219 C149.989397,89.6927138 152.923194,106.112106 148.688278,109.205625 C150.946114,112.277446 152.681182,115.913784 153.800781,119.308594 C156.544209,127.627119 168.96225,141.168652 160.90625,144.607422 C131.623551,157.106982 129.372236,139.991203 126.370117,135.108398 C121.868139,127.786142 127.058215,126.540764 127.940918,122.41748 C128.399819,120.273863 129.156333,117.095357 129.757574,113.878723 L129.646484,81.578125 C129.159671,75.9536934 128.578784,67.5865468 128.622461,61.6902257 C127.639357,58.4495603 126.652629,52.7819804 126.370117,51.9697266 C125.833993,50.428308 125.151042,49.633441 124.505672,49.1666204 C114.50277,47.1761019 102.416004,41.1459064 99.3945312,40.7929688 C95.1271412,40.2944958 91.1672113,43.8914726 86.8710937,43.8417969 C70.5705409,43.6533146 79.1797179,37.3292984 67.2929687,42.328125 C64.5076989,43.4994361 60.6497679,45.2637281 56.4566107,46.9934094 C57.315989,49.4181328 53.6705444,47.3700151 51.6645028,51.9697266 C51.31026,52.7819804 50.0729988,58.4495603 48.8402809,61.6902257 C48.8950479,67.5865468 48.1666711,75.9536934 47.5562542,81.578125 L47.4169586,113.878723 Z" fill="#F7F7F7"></path>
                    <path d="M35.7224672,29.903184 L34.7838201,31.5088807 C30.8910107,39.1846125 29.4515707,44.5832375 30.1856187,47.8879165 L29.8945764,48.4558648 C23.4535904,51.217976 24.7850477,56.6485447 33.3411682,60.2723039 L34.1331877,60.6077466 L33.4497608,61.129996 C29.0850245,64.4653645 25.8640033,68.6198291 25.1115217,72.1573554 C24.2543753,76.186926 26.5588614,79.2011164 32.5715413,80.7413614 L33.7464865,81.0423425 L32.7007722,81.6568078 C31.2028386,82.5369987 29.9907238,83.4837406 27.8208957,85.3605832 C22.2092822,90.2144772 19.2866006,106.067716 23.9313677,108.773591 L24.4691065,109.086858 L24.0473454,109.544479 C21.4078008,112.408449 19.2078504,115.928727 17.7311447,119.499667 C16.7134498,121.960637 15.8156356,123.241931 9.70538028,131.437099 C9.15688947,132.172743 8.69370955,132.798625 8.25597412,133.396904 C4.85852947,138.040391 2.86097124,141.249687 1.90978412,143.893978 C0.786462317,147.016802 1.32388094,148.899238 3.80956851,149.745425 C24.3121648,156.724989 36.9684817,153.560495 45.2404831,143.7462 C47.285384,141.320033 51.3207974,134.735306 51.2685189,134.803117 C54.3158279,130.850417 54.0807626,129.13968 51.4746459,126.125449 C50.0533311,124.482646 49.522722,123.704777 49.2119656,122.547108 C49.0819656,122.062815 48.0770485,118.468342 47.7550839,117.26259 C47.4416272,116.0887 47.170197,115.017018 46.9301505,113.992819 L47.0591731,81.524177 C47.8602896,74.1426235 48.3872051,66.7444942 48.3403024,61.6948697 C48.7533468,60.5050347 49.1377799,59.2795811 49.5600273,57.7759533 C49.7827459,56.9828501 51.0446795,52.1401855 51.2061928,51.7698468 C51.7297075,50.5694646 52.3966555,49.7054265 53.20251,49.0973168 C53.6046379,48.7938653 54.0257419,48.5639845 54.4996891,48.3702053 C54.7841339,48.2539064 55.8158677,47.9032266 55.5404628,48.0005604 C56.1577189,47.7824093 56.1888956,47.7347834 55.9853352,47.1604404 L55.8265533,46.7124397 C56.4935808,46.4372902 56.7230983,46.3421033 56.9547861,46.2455231 C59.3502207,45.2469746 66.3096052,42.1992524 67.0991418,41.8672225 C72.1589882,39.7393662 73.7762082,39.4853838 75.3046397,40.4517886 C75.2125678,40.3935729 76.6174816,41.3869191 77.1791758,41.686237 C79.0819684,42.7002046 81.9811139,43.2852209 86.8768748,43.3418303 C88.4748632,43.3603077 89.7572913,42.9797253 92.5976733,41.830433 C92.9313171,41.6954321 93.0583942,41.6441547 93.2338202,41.574011 C95.9674619,40.4809712 97.6054234,40.0805839 99.4525417,40.2963454 C100.308051,40.3962773 101.715936,40.8638902 104.265409,41.8470267 C103.944918,41.7234381 109.980059,44.0913163 111.925809,44.8193324 C114.470351,45.7713908 116.740996,46.5564774 118.89672,47.2122052 C120.9463,47.8356462 122.844939,48.3263408 124.603255,48.6762354 C125.653816,49.3800229 126.331856,50.3376949 126.842368,51.805472 C126.96906,52.1697274 127.972958,57.0003327 128.152465,57.8018627 C128.489675,59.3075585 128.796769,60.5350329 129.086134,61.4961229 C129.085006,66.7484383 129.505413,74.149864 130.146481,81.5764054 L130.249062,113.97059 C130.057803,114.993822 129.841506,116.064657 129.591694,117.23774 C129.335058,118.442863 128.533643,122.037264 128.42984,122.522148 C128.184821,123.66668 127.762171,124.443602 126.722141,125.950915 C124.543654,129.110213 124.350863,130.869537 126.796051,134.84652 C126.880359,134.983644 126.965319,135.131717 127.052214,135.292385 C127.213093,135.589853 129.115775,139.823418 129.936137,141.22893 C134.744498,149.467005 143.438334,151.520098 160.709956,144.147565 C162.923561,143.202669 163.52114,141.417591 162.79458,138.587678 C162.203799,136.28662 160.976799,133.821581 158.350353,129.276853 C158.246757,129.097593 158.176207,128.97572 158.001719,128.674528 C155.072118,123.618622 154.07043,121.722618 153.325938,119.465196 C152.146606,115.889266 150.390565,112.365859 148.285399,109.501747 L147.988401,109.097677 L148.393346,108.801873 C152.096136,106.097062 149.755374,90.1765149 145.278886,85.3213491 C143.551827,83.4481934 142.58739,82.503641 141.399299,81.6282581 L140.612507,81.0485512 L141.542978,80.7496768 C146.294255,79.2235302 148.133813,76.2065379 147.443442,72.1369518 C146.840356,68.5818893 144.271063,64.4266186 140.792736,61.0937335 L140.293528,60.615399 L140.904148,60.291121 C149.967446,55.4779323 148.507328,47.8327344 137.847944,46.8921224 L136.95766,46.8135615 L137.490452,46.09599 C141.468341,40.7385156 138.653888,35.3571443 130.669881,30.0757927 C125.241486,26.4849568 117.955306,23.3463753 112.205416,21.5114903 C109.846264,20.7586461 107.440692,20.0805524 105.003811,19.4822686 L103.95594,19.2250035 L104.829617,18.5918304 C110.457545,14.5131423 110.927073,9.87979076 104.268088,6.12498561 C99.2696565,3.30651769 93.9745103,1.85783485 87.8161292,1.41304293 C83.122562,1.07404786 79.504188,1.23023131 70.2762407,1.95102834 C69.7231622,1.99422943 69.3283047,2.0249099 68.9348211,2.05516875 C63.8515048,2.44607535 58.8865738,5.51519312 56.4248209,9.40844741 C54.004058,13.2368763 54.7621586,16.5547593 58.8870967,17.8193858 L60.5995323,18.3443855 L58.8627731,18.7822531 C50.0686889,20.9993969 42.2571604,24.7046009 35.7224672,29.903184 Z M48.7212329,117.004605 C49.0412425,118.203036 50.0459232,121.796664 50.1777745,122.287853 C50.4363152,123.251001 50.9068096,123.940743 52.1172553,125.339811 C55.1231244,128.816314 55.429228,131.044046 52.0604868,135.41368 C52.1616745,135.282428 48.1108007,141.892383 46.0051127,144.39067 C37.4606833,154.528186 24.3704281,157.801179 3.48730649,150.692075 C0.387308887,149.636763 -0.323321302,147.147612 0.968810813,143.555497 C1.96265747,140.792613 3.99637848,137.525217 7.44892488,132.80642 C7.88864972,132.205422 8.35353754,131.577232 8.9036874,130.839363 C14.9228587,122.766358 15.8385098,121.459609 16.8070433,119.11752 C18.2557428,115.614304 20.3781296,112.162156 22.9293843,109.289705 C18.2436058,105.428665 21.3086248,89.6713346 27.166697,84.6042605 C28.9082006,83.097907 30.0520267,82.1733299 31.2230218,81.3995159 C25.5277105,79.6334568 23.2120249,76.2808409 24.1334054,71.9492963 C24.9042101,68.3256305 27.9811812,64.2276166 32.1817714,60.8531834 C23.7618546,56.9728624 22.3467383,50.843796 29.1308909,47.701517 C28.5246418,44.1008427 30.0497587,38.6325845 33.9061212,31.0305827 L34.9061212,29.3181713 C41.3251477,24.1503547 48.7859696,20.4926435 57.1491845,18.1991281 C53.6094406,16.3991485 53.1368092,12.7372962 55.579612,8.87401136 C58.2078468,4.71746638 63.4555104,1.47357484 68.8581476,1.0581125 C69.2511512,1.02789056 69.6456552,0.99723755 70.1983677,0.954065059 C79.4782253,0.229213297 83.1266022,0.0717348052 87.888167,0.415641025 C94.1862483,0.870522861 99.6237215,2.35814449 104.759256,5.25392064 C111.788155,9.21730918 111.611214,14.41976 106.249918,18.7634626 C108.364665,19.3034949 110.454416,19.9030339 112.509428,20.5588222 C118.339321,22.4192372 125.702764,25.5911002 131.221589,29.2417556 C139.287634,34.5773742 142.468324,40.2611769 138.782245,45.9866815 C149.444122,47.3372674 151.000549,55.6681678 141.968327,60.8459399 C145.342844,64.2307359 147.81481,68.3470797 148.429357,71.9696999 C149.158271,76.2664964 147.309617,79.6160623 142.724224,81.3925375 C143.678376,82.1773094 144.59961,83.1093685 146.014082,84.6434946 C150.693245,89.7184799 153.128678,105.460301 149.360722,109.282301 C151.411,112.164293 153.115124,115.633164 154.275624,119.151992 C154.989206,121.31569 155.978693,123.1886 158.86696,128.173172 C159.041631,128.47468 159.112349,128.596843 159.216168,128.776489 C161.890407,133.403916 163.141348,135.917052 163.763166,138.339001 C164.601026,141.602418 163.831004,143.902614 161.102544,145.067279 C143.397802,152.624693 134.155786,150.442145 129.072487,141.733021 C128.218801,140.270417 126.307054,136.01668 126.172614,135.7681 C123.27251,131.024926 123.511306,128.845781 125.808257,125.514598 C126.867256,123.979786 127.242995,123.289098 127.451996,122.312813 C127.557022,121.822215 128.358281,118.228515 128.613625,117.029456 C128.861812,115.864006 129.0765,114.801137 129.257577,113.880443 L129.148347,81.6212405 C128.509826,74.2440454 128.088929,66.8531237 128.121948,61.7623137 C127.826311,60.7772777 127.516109,59.5362001 127.176638,58.020405 C126.975283,57.1213231 125.999596,52.4264654 125.897867,52.1339812 C125.470685,50.9057857 124.94072,50.1313062 124.296957,49.6347447 C122.535177,49.27953 120.642057,48.7883409 118.605706,48.1689239 C116.427654,47.5064044 114.138046,46.7147614 111.575378,45.7559208 C109.620794,45.0245996 103.578592,42.6539508 103.90561,42.7800569 C101.450276,41.8332225 100.072278,41.3755357 99.3365208,41.2895921 C97.7025764,41.0987314 96.1931974,41.4676877 93.6050888,42.5025365 C93.4313954,42.5719874 93.3050787,42.622958 92.9727578,42.7574237 C90.0084101,43.9568757 88.64224,44.36231 86.8653127,44.3417635 C81.8223834,44.2834524 78.7713008,43.6677768 76.7088964,42.5687545 C76.0807751,42.2340388 74.6311041,41.2090469 74.7702199,41.2970078 C73.6189726,40.569091 72.2569601,40.7829934 67.4867957,42.7890275 C66.7068172,43.1170379 59.7455099,46.1656021 57.3395495,47.1685383 C57.2163794,48.1363305 56.8176877,48.6032312 55.9016913,48.9334128 C56.0202507,48.8903228 55.116975,49.1981759 54.8781409,49.2958262 C54.4793914,49.45886 54.1328783,49.6480216 53.8048649,49.8955453 C53.1392645,50.3978171 52.5789558,51.1237029 52.1228129,52.1696063 C51.9979067,52.4560073 50.7776321,57.1388058 50.5227863,58.0463144 C50.0987341,59.5563692 49.7109547,60.7944742 49.3410642,61.7794783 C49.3811201,66.8745335 48.8534401,74.2596883 48.0562495,81.5802812 L47.9172084,113.821888 C48.1514007,114.817949 48.4160978,115.86188 48.7212329,117.004605 Z M55.8805125,48.94099 C55.8898639,48.937675 55.8966876,48.9352314 55.9016913,48.9334128 C55.8946621,48.9359466 55.8876025,48.9384722 55.8805125,48.94099 Z M55.8736849,48.9434087 C55.8759639,48.9426033 55.8782397,48.9417971 55.8805125,48.94099 C55.8787623,48.9416128 55.8762936,48.9424868 55.8736849,48.9434087 Z" id="hair-outline" fill="#000000" fill-rule="nonzero" opacity="0.05"></path>
                </g>
            </g>
        </g>
    </g>
</svg>