<?xml version="1.0" encoding="UTF-8"?>
<svg width="480px" height="300px" viewBox="0 0 480 300" version="1.1" xmlns="http://www.w3.org/2000/svg" xmlns:xlink="http://www.w3.org/1999/xlink">
    <!-- Generator: Sketch 51 (57462) - http://www.bohemiancoding.com/sketch -->
    <title>Avatars</title>
    <desc>Created with Sketch.</desc>
    <defs></defs>
    <g id="Avatars" stroke="none" stroke-width="1" fill="none" fill-rule="evenodd">
        <rect id="Frame" fill="#E6E6E6" x="0" y="0" width="480" height="300"></rect>
        <g id="Dwarf" transform="translate(107.000000, 33.000000)">
            <g id="Male" transform="translate(0.000000, 12.000000)">
                <g id="body" transform="translate(0.000000, 14.000000)">
                    <path d="M2,241.747178 C2.73282108,230.994245 2.69896691,223.469144 1.8984375,219.171875 C-0.908034515,204.10664 0.601436443,192.57206 1.41864441,187.680306 C2.25593454,182.668341 11.8664471,160.45187 12.4408338,155.403559 C12.988784,150.5876 19.9237169,137.036144 29.3296641,130.332325 C39.819945,122.855679 58.4176262,117.860633 62.0982751,113.86105 C65.0025405,110.705124 74.3907345,108.25511 90.2628569,106.511006 C86.9847131,102.355001 84.2187087,98.7289365 81.9648438,95.6328125 C76.9923502,88.8021208 69.3053887,77.9350652 68.8319061,76.1820447 C66.4223408,67.2608768 67.2976481,23.7913237 74.5272647,17.0323397 C81.4523564,10.5580568 103.277863,-0.520547467 121.427734,0.166015625 C133.308458,0.615432913 150.334045,5.02828779 159.341576,14.3398438 C163.319153,18.451673 162.359506,23.4010289 164.261069,26.7990207 C171.865545,40.3878103 167.843683,71.1173339 167.843683,86.4024334 C167.843683,98.1377437 160.489792,99.6957126 159.341576,105.191077 C158.883342,107.384191 162.69215,109.953195 170.768002,112.898089 C175.481409,114.4516 177.842887,115.199858 192.492973,119.989608 C204.043423,123.765951 214.269531,124.332325 226.136719,126.332325 C238.003906,128.332325 247.367446,148.406415 252.412412,159.744993 C256.67676,169.329129 266.457509,204.407652 267.243189,209.490243 C268.202494,215.696025 267.813888,226.448337 266.077368,241.747178 L207.737448,241.747178 L46.3550448,241.747178 L2,241.747178 Z" fill="#B37536"></path>
                    <polygon id="armpit-l" fill="#000000" opacity="0.5" points="59.4343274 242.248594 67.1567259 204.435764 67.1567259 242.248594"></polygon>
                    <polygon id="armpit-r" fill="#000000" opacity="0.5" transform="translate(203.998255, 223.213082) scale(-1, 1) translate(-203.998255, -223.213082) " points="200.137056 242.119497 207.859454 204.306667 207.859454 242.119497"></polygon>
                    <path d="M68.2465127,211.617517 L69.2465127,211.617517 C69.2465127,212.673441 69.2320869,213.582443 69.1984393,215.032226 C69.0469685,221.55869 69.3283619,223.091978 71.6424814,225.364749 C72.2503269,225.961733 73.0047109,226.562995 73.9380806,227.192992 C87.5769823,236.398849 115.697342,237.476106 131.681652,229.638949 C133.663209,228.667386 134.049511,226.31908 133.740749,220.694761 C133.728281,220.468923 133.728281,220.468923 133.715659,220.242937 C133.406922,214.717348 133.584719,212.684281 135.131848,211.250755 L135.811511,211.98428 C134.596328,213.110234 134.426921,215.047363 134.714101,220.18715 C134.726735,220.413333 134.726735,220.413333 134.739245,220.639946 C135.072747,226.714908 134.647758,229.29839 132.121887,230.536832 C115.825926,238.526792 87.3245457,237.434938 73.3786245,228.021852 C72.397607,227.359694 71.5963281,226.721056 70.9417773,226.078201 C68.359964,223.542519 68.0409946,221.804483 68.1987085,215.009024 C68.2321905,213.566378 68.2465127,212.663902 68.2465127,211.617517 Z M199.133725,210.617517 C199.133725,211.663806 199.148335,212.566216 199.182492,214.00879 C199.343419,220.805503 199.017577,222.545853 196.38349,225.081682 C195.716043,225.724232 194.898991,226.362555 193.898616,227.024417 C179.675857,236.434395 150.60658,237.525968 133.986924,229.538546 L134.420095,228.637235 C150.732374,236.47693 179.427899,235.399392 193.346837,226.190427 C194.299497,225.560134 195.069513,224.958557 195.689947,224.361267 C198.05063,222.088644 198.337271,220.55767 198.182772,214.03246 C198.148443,212.582605 198.133725,211.673538 198.133725,210.617517 L199.133725,210.617517 Z" id="breast" fill="#000000" fill-rule="nonzero" opacity="0.3"></path>
                    <g id="nipples" opacity="0.700000048" transform="translate(85.000000, 209.000000)">
                        <g id="left" transform="translate(0.000000, 2.000000)">
                            <path d="M5.5,11 C2.46243388,11 0,8.53756612 0,5.5 C0,2.46243388 2.46243388,0 5.5,0 C8.53756612,0 11,2.46243388 11,5.5 C11,8.53756612 8.53756612,11 5.5,11 Z" id="la" fill="#000000" fill-rule="nonzero" opacity="0.3"></path>
                            <circle id="ln" fill="#B37536" opacity="0.400000006" cx="5.5" cy="5.5" r="1.5"></circle>
                            <path d="M5.5,8 C4.11928813,8 3,6.88071187 3,5.5 C3,4.11928813 4.11928813,3 5.5,3 C6.88071187,3 8,4.11928813 8,5.5 C8,6.88071187 6.88071187,8 5.5,8 Z M5.5,7 C6.32842712,7 7,6.32842712 7,5.5 C7,4.67157288 6.32842712,4 5.5,4 C4.67157288,4 4,4.67157288 4,5.5 C4,6.32842712 4.67157288,7 5.5,7 Z" id="lno" fill="#000000" fill-rule="nonzero" opacity="0.3"></path>
                        </g>
                        <g id="right" transform="translate(88.000000, 0.000000)">
                            <path d="M5.5,11 C2.46243388,11 0,8.53756612 0,5.5 C0,2.46243388 2.46243388,0 5.5,0 C8.53756612,0 11,2.46243388 11,5.5 C11,8.53756612 8.53756612,11 5.5,11 Z" id="ra" fill="#000000" fill-rule="nonzero" opacity="0.3"></path>
                            <circle id="rn" fill="#B37536" opacity="0.400000006" cx="5.5" cy="5.5" r="1.5"></circle>
                            <path d="M5.5,8 C4.11928813,8 3,6.88071187 3,5.5 C3,4.11928813 4.11928813,3 5.5,3 C6.88071187,3 8,4.11928813 8,5.5 C8,6.88071187 6.88071187,8 5.5,8 Z M5.5,7 C6.32842712,7 7,6.32842712 7,5.5 C7,4.67157288 6.32842712,4 5.5,4 C4.67157288,4 4,4.67157288 4,5.5 C4,6.32842712 4.67157288,7 5.5,7 Z" id="rno" fill="#000000" fill-rule="nonzero" opacity="0.3"></path>
                        </g>
                    </g>
                    <path d="M93.0542835,146.284801 L91.5837796,145.812855 C92.6598174,144.607711 95.3255532,141.43586 95.7924119,140.950099 C96.8534293,139.846123 97.7328632,139.350571 99.192175,139.11167 C99.7025292,139.028121 116.078369,138.790537 124.107953,137.078468 L124.348466,138.068017 C116.171811,139.11167 99.9172982,140.029571 99.6315312,140.076353 C98.6639133,140.23476 98.0990092,140.553078 97.2376049,141.449359 C96.7987162,141.906017 94.1499979,145.05762 93.0542835,146.284801 Z" id="collarbone-l" fill="#000000" fill-rule="nonzero" opacity="0.129999995" transform="translate(107.966123, 141.681635) scale(-1, 1) translate(-107.966123, -141.681635) "></path>
                    <path d="M140.00367,146.284801 L138.704694,145.812855 C139.655217,144.607711 142.010006,141.43586 142.422408,140.950099 C143.359662,139.846123 144.136513,139.350571 145.425603,139.11167 C145.876426,139.028121 160.342094,138.790537 167.435062,137.078468 L167.64752,138.068017 C160.424637,139.11167 146.066144,140.029571 145.81371,140.076353 C144.958961,140.23476 144.45995,140.553078 143.699025,141.449359 C143.311331,141.906017 140.971574,145.05762 140.00367,146.284801 Z" id="collarbone-r" fill="#000000" fill-rule="nonzero" opacity="0.129999995"></path>
                    <path d="M6.51146332,208.35656 L7.62693739,208.300644 C7.64817233,208.669802 7.71970057,209.922297 7.73340532,210.16092 C7.77315462,210.853023 7.80382917,211.37653 7.8335601,211.866309 C8.26664174,219.000771 8.76491336,221.490627 10.5324942,224.267697 C11.9440958,226.485484 13.8529803,228.438764 19.4170762,233.54639 L18.6338426,234.289935 C12.9940356,229.112809 11.0523905,227.126006 9.57214487,224.800372 C7.68410351,221.834044 7.16111858,219.220696 6.7182682,211.925307 C6.68846179,211.434285 6.65773101,210.909818 6.61792624,210.216749 C6.60420851,209.9779 6.53268362,208.725464 6.51146332,208.35656 Z M3.16492371,234.436791 L2.14155426,234.018702 C3.05519688,232.069847 3.6841538,230.549658 4.17583699,229.180627 C4.24231698,228.995521 4.81909967,227.287058 4.96154826,226.972433 C5.37290372,226.063877 4.7754478,226.488139 8.66570643,224.060698 L9.28647909,224.927665 C5.7651995,227.124871 6.26644617,226.768929 5.99049921,227.378409 C5.87218889,227.63972 5.3197684,229.276021 5.23497689,229.512113 C4.73268485,230.910683 4.09177698,232.459758 3.16492371,234.436791 Z M64.6887728,186.357992 L65.7609221,186.065211 C65.9770413,186.754888 66.2117194,187.454392 66.4901019,188.247044 C69.1178854,195.729266 69.1377344,195.797286 68.9837271,198.36085 C68.8476837,200.625392 67.937862,202.748558 66.0741681,204.962188 L65.1958833,204.317804 C66.9224831,202.267009 67.7456247,200.34612 67.8683985,198.302459 C68.0105126,195.936867 67.9874309,195.857769 65.4286134,188.571918 C65.1467501,187.769354 64.9085983,187.059497 64.6887728,186.357992 Z M83.6808778,125.0838 L83.1801868,124.151605 C84.8166801,123.385625 86.4441807,122.953417 90.3616937,122.10754 C94.1836793,121.282288 95.768466,120.861424 97.2942451,120.147265 C98.6276825,119.523133 99.2217566,118.88698 100.26313,117.270957 C101.404671,115.499491 102.118861,114.734713 103.688553,114 L104.189244,114.932195 C102.855806,115.556326 102.261732,116.19248 101.220359,117.808503 C100.078818,119.579969 99.3646278,120.344747 97.7949362,121.07946 C96.1584429,121.84544 94.5309422,122.277647 90.6134292,123.123525 C86.7914436,123.948777 85.2066569,124.369641 83.6808778,125.0838 Z" id="arm-lines-l" fill="#000000" fill-rule="nonzero" opacity="0.1"></path>
                    <path d="M151.691455,214.313857 L152.935415,214.253818 C152.959096,214.650196 153.038863,215.995042 153.054146,216.25126 C153.098474,216.994395 153.132682,217.556502 153.165837,218.082394 C153.648804,225.74291 154.204469,228.416353 156.175649,231.398188 C157.749846,233.779501 159.878605,235.876805 166.083602,241.361037 L165.210152,242.159407 C158.920723,236.60055 156.755429,234.467252 155.104681,231.970139 C152.999166,228.785092 152.41594,225.979051 151.92208,218.145743 C151.888841,217.618515 151.85457,217.055378 151.81018,216.311206 C151.794883,216.054745 151.715119,214.709962 151.691455,214.313857 Z M149.282801,243.436791 L148.141554,242.987874 C149.160435,240.895322 148.538481,238.143344 149.086799,236.673368 C149.160936,236.474614 149.804156,234.640178 149.963012,234.302355 C150.42175,233.326808 149.755476,233.782353 154.093835,231.175926 L154.786111,232.106818 C150.859232,234.466033 151.418215,234.083846 151.110483,234.738266 C150.978545,235.018844 150.362494,236.775797 150.267936,237.029296 C149.707787,238.530989 150.316414,241.313983 149.282801,243.436791 Z M210.002772,184.827578 L211.198417,184.513209 C211.43943,185.253738 211.70114,186.004819 212.011588,186.855917 C214.942053,194.889834 214.964188,194.962869 214.792441,197.715455 C214.640728,200.146971 213.626108,202.426687 211.547744,204.803538 L210.568294,204.11164 C212.493773,201.909631 213.411728,199.847107 213.548644,197.652759 C213.707127,195.112742 213.681387,195.027812 210.827831,187.204745 C210.513502,186.343005 210.247918,185.580807 210.002772,184.827578 Z M241.719712,124.901054 L241.161349,123.900125 C242.986342,123.077665 244.801306,122.61359 249.170059,121.705342 C253.43228,120.819241 255.199611,120.367345 256.901137,119.600528 C258.388167,118.930377 259.050669,118.247317 260.211993,116.512138 C261.485023,114.610055 262.281477,113.788887 264.031974,113 L264.590337,114.000929 C263.103308,114.671081 262.440805,115.354141 261.279481,117.089319 C260.006451,118.991403 259.209997,119.812571 257.4595,120.601457 C255.634507,121.423917 253.819543,121.887992 249.45079,122.79624 C245.188569,123.682341 243.421238,124.134237 241.719712,124.901054 Z" id="arm-lines-r" fill="#000000" fill-rule="nonzero" opacity="0.1" transform="translate(206.365946, 178.218396) scale(-1, 1) translate(-206.365946, -178.218396) "></path>
                </g>
                <g id="face" transform="translate(72.000000, 28.000000)">
                    <path d="M59.2681976,98.721207 L58.7005524,97.8979336 C59.0305472,97.670403 59.3345912,97.4725227 59.6445492,97.2806126 C59.824128,97.1694267 60.3202639,96.8712773 60.2853271,96.8925292 C60.5768932,96.7151711 60.660863,96.6457564 60.6696783,96.6242324 C60.6808115,96.597049 60.6714519,96.4779184 60.5969064,96.1183683 C60.5854374,96.0630509 60.5647351,95.9649771 60.5265679,95.7836069 C60.49498,95.6323484 60.4682692,95.5002896 60.4415886,95.3618098 C60.3716775,94.9989509 60.3098674,94.6310204 60.2528686,94.2235677 L61.2432252,94.085026 C61.2846485,94.3811379 61.7499069,96.6251844 61.5950744,97.003234 C61.4312639,97.4032047 59.295549,98.7023483 59.2681976,98.721207 Z" id="jaw-cleft" fill="#000000" fill-rule="nonzero" opacity="0.3" transform="translate(60.163532, 96.403117) rotate(-4.000000) translate(-60.163532, -96.403117) "></path>
                    <path d="M59.1282295,76.1311035 C67.6549553,76.1311035 77.4126499,72.5267426 77.4126499,71.6895035 C77.4126499,70.584934 69.8286992,69.8802994 59.1282295,69.8802994 C48.4277597,69.8802994 39.2286264,71.0806615 39.2286264,72.185231 C39.2286264,73.1411157 51.5991588,76.1311035 59.1282295,76.1311035 Z" id="lips" fill="#3E3E3E" opacity="0.100000001"></path>
                    <path d="M41.5050018,71.6349579 C49.2809502,72.0741937 55.1631345,72.293728 59.1472259,72.293728 C63.1397797,72.293728 68.6459597,72.0732204 75.6623498,71.6319897 C75.401715,71.5868212 75.1260883,71.5387366 74.8291049,71.486673 C67.8975765,70.2715193 68.835559,70.2692712 65.7048778,70.1555732 C65.1491706,70.1353915 62.0175266,69.9565198 61.3536537,70.2680125 C61.3221751,70.2827909 61.3221751,70.2827909 61.2902832,70.297771 C60.4824328,70.6771071 60.0075434,70.8251117 59.2402103,70.8394277 C58.6400332,70.8506251 58.0934439,70.7448749 56.64183,70.3958901 C56.5968487,70.3850773 56.5968487,70.3850773 56.55194,70.3742926 C55.3006438,70.0739119 51.9562796,70.1264584 51.5171661,70.1537954 C47.4742955,70.4054835 45.5906369,70.8092211 41.505004,71.6349575 Z M75.0746084,72.6713193 C68.3521711,73.0861933 63.044076,73.293728 59.1472259,73.293728 C55.1276308,73.293728 49.2138051,73.0728743 41.4014051,72.6313346 C44.24736,74.0269174 48.5120249,75.1575359 54.4091171,75.5246582 C54.8482306,75.5519951 62.494706,75.6550414 63.0504131,75.6348596 C66.7540737,75.5003526 71.7364376,74.0367169 75.0746084,72.6713193 Z M40.7797041,70.753322 C45.2477225,69.8534963 47.1763512,69.4213259 51.4303477,69.1564941 C52.0664996,69.1168906 55.4679947,69.0745751 56.8748607,69.4123012 C56.9200734,69.4231589 56.9200734,69.4231589 56.9651938,69.4340052 C58.2717284,69.7481112 58.7862342,69.8476542 59.2141281,69.839671 C59.7439035,69.8297871 60.0623821,69.7305296 60.7162336,69.4235056 C60.7478994,69.4086317 60.7478994,69.4086317 60.7799378,69.3935905 C61.6176129,69.0005489 64.9336753,69.1266435 65.755615,69.1564941 C68.9763637,69.2734631 68.0657035,69.2797318 75.0691419,70.5074919 C75.3793475,70.5618735 75.6660716,70.6118815 75.9366163,70.6587357 L75.7298324,70.4559202 L76.6254215,69.8029226 L78.7479424,71.8847097 L77.9997383,72.430245 L78.0139627,72.4490228 C77.9650954,72.4754953 77.915201,72.5021562 77.8643049,72.5289931 L77.8523533,72.5377073 L77.8507483,72.536133 C74.7395175,74.1728441 67.919027,76.4589664 63.1011503,76.6339387 C62.2792106,76.6637894 54.9584506,76.5615629 54.3222987,76.5219594 C47.0480742,76.069104 42.2107215,74.5274307 39.2102993,72.6034147 L38.8389484,72.9676389 L37.9433594,72.3146413 L40.0658803,70.2328542 L40.7797041,70.753322 Z" id="mouth-outline" fill="#000000" fill-rule="nonzero" opacity="0.3"></path>
                    <path d="M64.1954841,60.0639118 C63.7945937,61.0724914 62.6761486,61.5483206 60.6270452,61.8280894 C56.5580987,62.383632 54.6649769,61.8896469 53.6293155,60.1237172 C53.4803172,60.1353104 53.2623122,60.1580108 52.8110688,60.2062236 C52.343401,60.2541413 51.978411,60.2834503 51.6152177,60.297437 C50.910201,60.3245873 50.3272763,60.286278 49.8475266,60.1545082 C48.4241719,59.7635647 47.777986,58.2126165 48.0679714,57.3574083 C48.3003774,56.6720099 48.437337,56.3171863 48.5915554,56.0342106 C49.0461157,55.200137 49.3876244,55.1253076 50.7826872,55.2157391 C51.6182125,55.2699 52.2990121,55.2676161 53.2499972,55.1691644 L53.3654421,56.2842941 L53.7142854,56.1544631 C53.8398159,56.4917514 53.9375983,56.8347433 54.0509443,57.3042264 C54.0747245,57.4027249 54.0947117,57.4874737 54.1367101,57.6667529 C54.2699413,58.2347414 54.4142081,58.7153079 54.5980722,59.1153951 C54.6264063,59.1576819 54.6492551,59.2041129 54.6654012,59.2547385 C55.4112846,60.7221258 56.7947728,61.0082458 60.4470281,60.509595 C62.8972938,60.1750546 63.2373252,59.867618 62.9606009,58.2557562 C62.7409608,56.9763984 59.4644556,47.3330003 58.8617498,45.4058741 C58.1578303,43.1551216 57.7901156,40.8810164 57.3393352,36.6265708 C57.3793281,37.0040227 56.9955945,33.3135247 56.8757063,32.2339279 C56.6756395,30.4323186 56.474151,28.8246353 56.236973,27.1912213 L57.5538891,27 C57.7934062,28.6495232 57.9966985,30.2715992 58.198303,32.0870549 C58.3187966,33.1721043 58.7030993,36.8680751 58.6626545,36.4863583 C59.1046089,40.6575049 59.4617339,42.8661181 60.1318119,45.0086641 C60.5285057,46.2770758 62.2995103,51.5193453 63.3970756,55.0002823 C64.0384828,55.0415294 64.5833602,55.0329301 65.2173128,54.9918357 C66.6123756,54.9014041 66.9538843,54.9762336 67.4084446,55.8103072 C67.562663,56.0932828 67.6996226,56.4481064 67.9320286,57.1335048 C68.222014,57.9887131 67.5758281,59.5396613 66.1524734,59.9306048 C65.6727237,60.0623745 65.089799,60.1006839 64.3847823,60.0735335 C64.329763,60.0714147 64.2666636,60.0682075 64.1954841,60.0639118 Z M64.3596146,58.7552704 C64.3872695,58.7467226 64.4127283,58.7428966 64.4359909,58.7437925 C65.0166312,58.7661531 65.4780793,58.7358271 65.8000241,58.6474006 C66.4251934,58.4756894 66.732164,57.7389114 66.6717805,57.5608318 C66.4643474,56.949082 66.3449069,56.6396455 66.2399765,56.4471086 C66.129881,56.2450941 66.2042151,56.2613818 65.3033932,56.3197753 C64.7847302,56.3533964 64.3159743,56.3669075 63.8156073,56.3521461 C64.0577845,57.153952 64.2248476,57.7551244 64.2721398,58.0305913 C64.3165205,58.2890998 64.3459529,58.5302264 64.3596146,58.7552704 Z M53.5630593,60.0068969 C53.479073,59.8537901 53.4009441,59.6916603 53.3278895,59.5203752 C53.3123593,59.7483889 53.4193742,59.9095226 53.5630593,60.0068969 Z M53.0777256,58.8397225 C52.991571,58.5683451 52.913424,58.278774 52.8411481,57.9706487 C52.7993069,57.7920545 52.7801929,57.7110082 52.7573826,57.6165274 C52.6554097,57.1941518 52.5705569,56.8965129 52.467133,56.618623 L52.6369139,56.5554346 C51.955875,56.5970261 51.3680621,56.5872042 50.6966068,56.5436788 C49.7957849,56.4852852 49.870119,56.4689975 49.7600235,56.671012 C49.6550931,56.863549 49.5356526,57.1729854 49.3282195,57.7847353 C49.267836,57.9628148 49.5748066,58.6995929 50.1999759,58.871304 C50.5219207,58.9597305 50.9833688,58.9900565 51.5640091,58.9676959 C51.8936146,58.9550027 52.2334366,58.9277148 52.6754312,58.8824275 C52.8332953,58.8654885 52.965284,58.8514227 53.0777256,58.8397225 Z" id="nose" fill="#000000" fill-rule="nonzero" opacity="0.3"></path>
                    <g id="eye-l" transform="translate(36.000000, 29.000000) rotate(-5.000000) translate(-36.000000, -29.000000) translate(19.000000, 19.000000)">
                        <path d="M20.12001,17.0993705 C23.2659011,17.0993705 26.1678039,16.7364235 28.8257182,16.0105294 C28.6740334,14.1314754 27.7189488,12.8746534 25.9604643,12.2400634 C23.2964714,11.2786995 19.9432497,10.1396323 17.9632471,10.1396323 C16.3036621,10.1396323 14.9035568,10.6000577 13.4680345,10.9836453 C12.6109424,11.2126698 11.4909497,11.8544055 10.1080564,12.9088523 C13.636801,15.7025311 16.9741188,17.0993705 20.12001,17.0993705 Z" id="eye-white" fill="#FFFFFF" opacity="0.800000012"></path>
                        <path d="M19.9424768,15.4702226 C22.1976978,15.4702226 24.0259156,13.6068026 24.0259156,11.3081576 C24.0259156,10.994585 22.3503038,10.4900948 18.99908,9.79468699 C16.9057187,9.27123734 15.8590381,9.77572753 15.8590381,11.3081576 C15.8590381,13.6068026 17.6872559,15.4702226 19.9424768,15.4702226 Z" id="iris" fill="#734420" opacity="0.700000048"></path>
                        <path d="M15.9045066,10.3676306 C14.8456376,10.632247 13.7198182,10.9396923 12.4530922,11.5021721 C11.7608836,11.8095419 11.0702858,12.4243965 10.2675895,12.8431639 C14.7841719,16.9901749 21.1605419,18.14179 28.9515716,15.6083901 L29.15491,16.2162009 C21.1061038,18.8334216 14.454887,17.6114746 9.75446957,13.2462484 L10.0274779,12.9605134 C9.98120574,12.9815441 9.93454659,13.0018037 9.88748042,13.0212038 L9.63707364,12.4307164 C10.6073734,12.0307723 11.201912,11.1695061 12.0085071,10.8149703 C17.4207713,8.43602941 19.5434412,8.31492745 27.5075296,11.5637049 L27.2593298,12.1550971 C24.5488568,11.0494184 22.6598438,10.3135653 21.0745475,9.97643599 C24.0423691,10.914332 27.0550766,12.1063955 27.6910533,12.4487498 C28.2153226,12.7309707 28.4094756,12.8621883 28.758396,13.6474444 C28.9134929,13.9964945 28.7099909,14.6607147 29.2456878,15.2066496 L28.7791092,15.6516506 C28.2080273,15.0696544 28.3069551,14.3907318 28.1537816,14.0429186 C27.8514929,13.3565072 27.6756075,13.2693997 27.1897468,12.9289379 C26.8305175,12.6772117 25.7150037,12.2157304 24.2743826,11.6997596 C24.3832683,12.2946139 24.3155271,12.9078256 24.0677709,13.393124 C23.3210148,14.8558499 21.9794581,15.822586 20.5238766,15.8618595 C17.4124827,15.9458088 14.8349317,13.2543766 15.9045066,10.3676306 Z M16.4730068,10.2269749 L16.6344652,10.3004087 C15.4524538,12.826473 17.7100648,15.2975229 20.506117,15.2220819 C21.7049774,15.1897351 22.8421375,14.3702888 23.4879022,13.1053819 C23.7193665,12.6519959 23.7378258,12.010959 23.5363959,11.4405105 C23.0480298,11.2721067 22.5339998,11.100786 22.0081588,10.931537 C21.8979169,10.9932253 21.816689,11.0257577 21.6902864,11.055559 L21.6080659,10.8137871 L21.6213042,10.8080794 C20.8732048,10.5713777 20.1083584,10.3412095 19.3655521,10.1315419 C19.3819742,10.2027163 19.4026448,10.2914544 19.4136612,10.3352213 L19.1616346,10.39688 C19.1409321,10.3146306 19.0892543,10.0876363 19.088686,10.085263 C19.0516044,9.93040344 19.0200711,9.84885224 18.9613424,9.76915592 C18.397213,9.78871429 17.8422061,9.87397622 17.2634067,10.0267789 C17.0026426,10.0956205 16.7395947,10.1611509 16.4730068,10.2269749 Z M19.2905316,9.84723617 L19.3140692,9.76544897 C19.2952792,9.76520039 19.2765076,9.76501953 19.2577522,9.76490989 C19.2695283,9.7907934 19.2803306,9.81800507 19.2905319,9.84723483 Z M22.3219658,12.2631031 L22.8429008,12.3804617 L22.8055292,12.6329808 C22.6255517,12.62141 22.5029236,12.5911636 22.2523463,12.5100245 L21.7314113,12.3926659 L21.7687829,12.1401469 C21.9487604,12.1517176 22.0713885,12.1819641 22.3219658,12.2631031 Z M21.2753149,14.220434 L21.0346463,14.316564 L20.5878621,13.2293474 L20.8285308,13.1332174 L21.2753149,14.220434 Z M21.8317648,11.6542045 L21.848662,11.3987403 L23.0529506,11.4761642 L23.0360533,11.7316285 L21.8317648,11.6542045 Z M16.9172183,11.6328758 L16.9341156,11.3774116 C17.0957376,11.3878023 17.2247776,11.3867506 17.5160112,11.3772109 C17.8156888,11.3673946 17.9505242,11.3662956 18.1234268,11.3774116 L18.1065295,11.6328758 C17.9449075,11.6224851 17.8158675,11.6235368 17.5246339,11.6330765 C17.2249563,11.6428928 17.0901209,11.6439918 16.9172183,11.6328758 Z M17.4287549,12.9402173 L17.3443586,12.6981092 C17.3705998,12.6891636 17.3705998,12.6891636 17.3961335,12.6802419 C17.5337485,12.6318596 17.6541554,12.5822637 17.7811015,12.5224055 C17.9122659,12.4605584 17.9075404,12.4630298 18.3322527,12.2374031 L18.455431,12.4627733 C18.0247779,12.6915561 18.0300127,12.6888183 17.8931399,12.7533571 C17.7582131,12.8169783 17.6295337,12.8699817 17.4833542,12.9213751 C17.4563873,12.9307975 17.4563873,12.9307975 17.4287549,12.9402173 Z M19.9565138,14.415917 L19.7076103,14.342962 C19.7721868,14.128817 19.8029361,13.9952701 19.8181063,13.8639782 C19.8312509,13.7502171 19.8334265,13.6634038 19.8333207,13.3816636 C19.8333121,13.3585614 19.8333121,13.3585614 19.8333092,13.3346459 L20.0929797,13.3346459 C20.0929826,13.3584847 20.0929826,13.3584847 20.0929912,13.3815688 C20.0931009,13.673748 20.0907923,13.7658691 20.0761082,13.892954 C20.0589571,14.0413893 20.0250599,14.188608 19.9565138,14.415917 Z M22.334034,13.3731204 L22.1640443,13.5666473 L21.3190532,12.8452217 L21.489043,12.6516949 L22.334034,13.3731204 Z M18.4540494,13.8717903 L18.2513778,13.7117447 L18.8471428,12.9784438 L19.0498145,13.1384894 L18.4540494,13.8717903 Z M17.5787877,10.3163027 L17.705457,10.0928213 L18.6407083,10.6080694 L18.5140389,10.8315509 L17.5787877,10.3163027 Z M19.9204204,12.7597086 C19.024095,12.7597086 18.4768115,12.3757634 18.4768115,11.66882 C18.4768115,10.9618765 19.2939248,10.5524619 20.1902501,10.5524619 C21.0865755,10.5524619 21.3640293,10.9618765 21.3640293,11.66882 C21.3640293,12.3757634 20.8167458,12.7597086 19.9204204,12.7597086 Z" id="eye" fill="#000000" fill-rule="nonzero" opacity="0.5"></path>
                        <path d="M29.4371892,17.1109718 L29.7307877,17.5156938 C24.835763,21.0667042 16.0086799,20.2621194 8.75982004,16.7569072 L8.97748474,16.3067716 C16.0782015,19.7403486 24.726037,20.5285951 29.4371892,17.1109718 Z" id="eye-line" fill="#000000" fill-rule="nonzero" opacity="0.3"></path>
                        <path d="M0.904202368,4.29614848 L1.7077952,1.37815459 C3.33171009,-0.08898098 5.19557094,-0.0260829952 11.9180563,0.869020253 C12.256713,0.91408134 12.3978362,0.932792026 12.5945472,0.958646972 C15.5987802,1.35351204 17.3036879,1.49633999 18.7082748,1.41056572 C19.2200991,1.37931002 19.7412915,1.3451951 20.3656096,1.30256835 C26.2119114,0.903398666 24.3709091,0.600146091 26.4819045,0.868815128 C29.411126,1.24162083 31.6115866,2.36686547 33.3726407,4.55255402 L30.7502324,6.5528133 C28.6010926,3.88546194 29.7455572,3.91222575 20.5988681,4.53673697 C19.9670174,4.57987802 19.4380548,4.61450154 18.9170036,4.6463207 C17.2192818,4.74999591 15.3712754,4.59517992 12.1484638,4.17158571 C11.949444,4.1454273 11.8064821,4.12647284 11.4662607,4.0812033 C6.52312227,3.42302124 1.34908634,3.89421541 0.904202368,4.29614848 Z" id="eye-brow" fill="#201D1D" fill-rule="nonzero"></path>
                        <path d="M11.5415091,3.54583269 C11.9529501,3.60054467 12.0295748,3.61069768 12.2228111,3.63609592 C15.5814969,4.07754894 17.3040392,4.2034031 18.8822155,4.1070282 C19.3873052,4.07618376 19.9096637,4.0421115 20.5599917,3.99770886 C29.5507653,3.38384314 28.7026852,3.37119729 30.8360205,5.8007738 L32.5820343,4.46899018 C31.0013153,2.69940648 29.0467375,1.74020153 26.4098729,1.40460446 C24.4085167,1.14988934 26.4013279,1.4321483 20.404486,1.84159645 C19.7598604,1.88560975 19.2424642,1.91936116 18.7430629,1.94985822 C17.3397722,2.03555333 15.6772739,1.90909068 12.5201999,1.49413676 C12.3283932,1.46892641 12.2522866,1.45884195 11.842757,1.40438409 C5.11198053,0.508176875 3.54244775,0.533959775 2.20171252,1.67241586 L1.69490993,3.51270959 C3.78296214,3.13933994 8.08714941,3.08588248 11.5415091,3.54583269 Z M0.904202368,4.29614848 L1.7077952,1.37815459 C3.33171009,-0.08898098 5.19557094,-0.0260829952 11.9180563,0.869020253 C12.256713,0.91408134 12.3978362,0.932792026 12.5945472,0.958646972 C15.5987802,1.35351204 17.3036879,1.49633999 18.7082748,1.41056572 C19.2200991,1.37931002 19.7412915,1.3451951 20.3656096,1.30256835 C26.2119114,0.903398666 24.3709091,0.600146091 26.4819045,0.868815128 C29.411126,1.24162083 31.6115866,2.36686547 33.3726407,4.55255402 L30.7502324,6.5528133 C28.6010926,3.88546194 29.7455572,3.91222575 20.5988681,4.53673697 C19.9670174,4.57987802 19.4380548,4.61450154 18.9170036,4.6463207 C17.2192818,4.74999591 15.3712754,4.59517992 12.1484638,4.17158571 C11.949444,4.1454273 11.8064821,4.12647284 11.4662607,4.0812033 C6.52312227,3.42302124 1.34908634,3.89421541 0.904202368,4.29614848 Z" id="eye-brow" fill="#000000" fill-rule="nonzero" opacity="0.05"></path>
                        <path d="M13.5109486,10.4608525 L13.4786559,10.5070639 C12.7634546,10.289894 12.2749282,10.0802836 12.0130765,9.87823252 C11.7512249,9.67618147 11.6576068,9.61477887 11.7322223,9.69402471 C11.9757025,9.62740586 12.2347751,9.70006547 12.50944,9.91200355 C12.7118313,10.0681735 12.9729507,10.1705388 13.2927984,10.2190993 L12.4119412,9.24293643 C12.5524631,9.12820882 12.7279669,9.2014243 12.9384528,9.46258286 C13.1489387,9.72374142 13.4416206,10.0154312 13.8164986,10.3376522 L13.5853803,10.5433375 L13.5109486,10.4608525 Z M12.0524956,11.0335486 L11.9140102,11.3165886 C11.1913814,11.0972232 10.6680264,10.8999957 10.3439454,10.7249063 C10.0198644,10.5498168 9.86724153,10.4758437 9.88607689,10.5029869 C10.2125165,10.4399132 10.5334926,10.4936064 10.8490051,10.6640665 C11.1645175,10.8345267 11.5656811,10.9576874 12.0524956,11.0335486 Z M14.4373244,10.1550166 L14.1988043,10.3511493 L13.0819545,9.09294486 C13.2074558,8.9877538 13.3668403,9.06492237 13.560108,9.32445056 C13.7533758,9.58397876 14.0457812,9.86083412 14.4373244,10.1550166 Z M16.3892416,9.97814947 L16.07641,10.0331984 C15.5990773,9.69194976 15.2682632,9.40405646 15.0839676,9.16951846 C14.899672,8.93498046 14.8026457,8.83984839 14.7928887,8.88412227 C14.9031543,8.73261873 15.0137761,8.74197576 15.124754,8.91219338 C15.2681986,9.1322083 15.2355304,8.82053422 15.3434235,8.95784103 C15.5765262,9.25449186 15.9251322,9.59459467 16.3892416,9.97814947 Z M17.6372098,9.7286794 L17.4067841,9.93522097 C17.0900017,9.73382019 16.8334662,9.51221637 16.6371776,9.27040953 C16.4408891,9.02860269 16.3304992,8.89185245 16.3060081,8.8601588 C16.4798333,8.81320087 16.6695972,8.9164238 16.8752997,9.1698276 C17.0810022,9.4232314 17.3349722,9.60951534 17.6372098,9.7286794 Z M18.9896093,9.70991814 L18.7648244,9.92321312 C18.3053187,9.60906007 17.9867391,9.34861692 17.8090856,9.14188366 C17.6314321,8.9351504 17.5902569,8.8501482 17.6855601,8.88687705 C17.8358634,8.81050301 17.9504856,8.84068228 18.0294266,8.97741485 C18.1308234,9.15304263 17.9865577,8.94894141 18.0789632,9.0564726 C18.2792803,9.28957916 18.5828289,9.50739434 18.9896093,9.70991814 Z M20.1879564,9.85759262 L19.9385558,10.0381639 C19.3580683,9.66988251 18.985514,9.36020986 18.820893,9.10914592 C18.656272,8.85808198 18.5424734,8.72957885 18.4794973,8.72363653 C18.6723497,8.5818615 18.7955676,8.59060936 18.8491509,8.7498801 C18.9255976,8.97710952 19.0635051,8.84108312 19.1516861,8.97556817 C19.3325794,9.25144909 19.6780029,9.54545724 20.1879564,9.85759262 Z M20.8488355,10.0241807 L20.5530385,10.092554 C20.2921013,9.63657216 20.1382743,9.29699759 20.0915574,9.0738303 C20.0448406,8.850663 20.0250047,8.73430137 20.0320498,8.7247454 C20.194021,8.68778955 20.2702521,8.72781673 20.260743,8.84482697 C20.244195,9.04845368 20.347018,9.09698529 20.3726252,9.21931119 C20.4203044,9.44707547 20.5790411,9.71536529 20.8488355,10.0241807 Z M21.4468697,10.1852435 L21.1440012,10.1857248 C20.9725458,9.87791421 20.8867,9.64195581 20.8864638,9.47784961 C20.8862277,9.31374342 20.9524571,9.18643682 21.085152,9.09592982 L21.4449472,8.84927356 C21.275633,9.1486243 21.1910725,9.36536278 21.1912655,9.49948901 C21.1914585,9.63361525 21.2766599,9.86220009 21.4468697,10.1852435 Z M22.1749087,10.1797138 L21.8720398,10.1797549 C21.7199691,9.88912769 21.6439251,9.67308417 21.6439077,9.53162436 C21.6438903,9.39016456 21.7408656,9.282555 21.9348336,9.2087957 L22.1747608,8.97614428 C22.0793132,9.23335223 22.0315975,9.42768732 22.0316136,9.55914955 C22.0316298,9.69061179 22.0793948,9.89746655 22.1749087,10.1797138 Z M10.9395342,13.4522092 L11.143629,13.7797833 C10.9515097,13.8140517 10.8365252,13.840477 10.7986755,13.859059 C10.5259089,13.9929716 10.3173439,14.0694715 10.1729804,14.0885585 C9.99856855,14.1116184 9.85029357,14.0633903 9.72815546,13.9438743 C9.84662886,13.8543715 10.0021849,13.7968852 10.1948235,13.7714155 C10.3874621,13.7459458 10.6356991,13.6395437 10.9395342,13.4522092 Z M11.2872424,13.7899791 L11.4390983,14.0653427 C11.2404569,14.2758576 11.0694559,14.4247642 10.9260951,14.5120625 C10.7827343,14.5993608 10.6440833,14.6628709 10.5101422,14.7025929 C10.5599375,14.5542746 10.6627821,14.4326503 10.818676,14.33772 C10.9745699,14.2427898 11.1307587,14.0602095 11.2872424,13.7899791 Z M11.8913649,13.9653369 L12.0689298,14.2231615 C11.8818744,14.4893481 11.7198341,14.6745432 11.5828091,14.7787469 C11.445784,14.8829506 11.3217249,14.9241349 11.2106317,14.9022997 L10.7063609,14.866499 C11.0612069,14.7584202 11.3068346,14.652513 11.4432441,14.5487775 C11.5796536,14.4450419 11.7290272,14.2505618 11.8913649,13.9653369 Z M12.2063041,14.5923874 L12.457314,14.7704795 C12.3060369,15.1678836 12.1879975,15.4325746 12.1031957,15.5645526 C11.975993,15.7625196 11.7742116,15.6820102 11.9665544,15.3826648 C12.0947829,15.1831012 12.1746995,14.9196754 12.2063041,14.5923874 Z M12.7294617,14.7357116 L12.9873947,14.9025233 C12.8356338,15.4011173 12.7108557,15.7339012 12.6130606,15.9008749 C12.4663679,16.1513355 12.223235,15.982206 12.3939296,15.690765 C12.5077261,15.496471 12.6195701,15.1781199 12.7294617,14.7357116 Z M13.8692971,15.1353058 L14.0860359,15.2554182 C13.9827065,15.6510975 13.889245,15.9190873 13.8056512,16.0593875 C13.7220575,16.1996877 13.6527653,16.2877949 13.5977746,16.323709 C13.4851929,16.2367449 13.473579,16.118279 13.562933,15.9683111 C13.6522869,15.8183432 13.7544082,15.5406748 13.8692971,15.1353058 Z M14.2120716,15.4150302 L14.5044429,15.4357871 C14.512552,15.8336117 14.4945578,16.0919931 14.4504602,16.2109312 C14.4063626,16.3298693 14.3693284,16.3850115 14.3393575,16.3763577 L13.8462894,16.5129292 C14.025935,16.3282784 14.1343682,16.1857578 14.1715891,16.0853673 C14.20881,15.9849768 14.2223041,15.7615311 14.2120716,15.4150302 Z M15.1762171,15.7060343 L15.3886272,15.7355809 C15.3699722,16.142898 15.35188,16.4140748 15.3343507,16.5491113 C15.3168213,16.6841478 15.3093003,16.7848525 15.3117875,16.8512253 C15.1643744,16.7861769 15.1001794,16.6803807 15.1192025,16.5338368 C15.1382256,16.3872929 15.1572305,16.1113588 15.1762171,15.7060343 Z M16.424179,16.0083651 L16.6905047,16.1599159 C16.6845582,16.4150925 16.6531578,16.5978427 16.5963034,16.7081665 C16.5110218,16.8736522 16.2841778,16.8129342 16.3818134,16.6234759 C16.4469039,16.4971704 16.4610257,16.2921335 16.424179,16.0083651 Z M17.4940301,16.4270095 L17.7966364,16.4402588 C17.8001214,16.7074141 17.799514,16.9002559 17.7948141,17.0187842 C17.7877643,17.1965766 17.5256113,17.1994611 17.5357795,16.9430257 C17.5425582,16.7720687 17.5286418,16.6000633 17.4940301,16.4270095 Z M12.9423263,10.8064896 L12.7914076,11.0824216 C12.1247932,10.8493415 11.6513174,10.6481485 11.3709802,10.4788426 C11.090643,10.3095368 10.9607449,10.2196551 10.9812858,10.2091975 C11.1483124,10.1669381 11.3580069,10.2220139 11.6103695,10.3744248 C11.8627321,10.5268358 12.3067177,10.6708574 12.9423263,10.8064896 Z M11.8061486,11.5360522 L11.7193636,11.8409651 C10.9230637,11.8614742 10.366577,11.8219664 10.0499035,11.7224418 C9.73323003,11.6229171 9.5737998,11.4617356 9.57161285,11.2388972 C9.9589288,11.3243684 10.3013038,11.4138431 10.5987378,11.5073211 C10.8961718,11.6007991 11.2986421,11.6103762 11.8061486,11.5360522 Z M15.2495933,10.1080091 L15.0032162,10.2931068 C14.5055908,9.90270712 14.1772808,9.59066451 14.0182863,9.35697894 C13.8592918,9.12329337 13.7898342,9.00422392 13.8099136,8.99977058 C14.0658863,9.02960119 14.2902431,9.186159 14.482984,9.469444 C14.6757249,9.752729 14.9312613,9.96558404 15.2495933,10.1080091 Z" id="eye-lashes" fill="#000000" fill-rule="nonzero" opacity="0.300000012" transform="translate(15.873261, 12.884189) rotate(-1.000000) translate(-15.873261, -12.884189) "></path>
                    </g>
                    <g id="eye-r" transform="translate(76.000000, 29.000000) scale(-1, 1) rotate(-5.000000) translate(-76.000000, -29.000000) translate(59.000000, 19.000000)">
                        <path d="M17.7689193,17.4267307 C20.8920252,17.4267307 23.7729099,17.0564036 26.4115733,16.3157494 C26.2609871,14.3984872 25.31282,13.1161093 23.567072,12.4686157 C20.922374,11.4877038 17.5934392,10.3254751 15.6277775,10.3254751 C13.9802127,10.3254751 12.5902482,10.7952627 11.1651231,11.18665 C10.3142389,11.4203314 9.20235813,12.075116 7.82948088,13.1510037 C11.3326672,16.0014884 14.6458134,17.4267307 17.7689193,17.4267307 Z" id="eye-white" fill="#FFFFFF" opacity="0.800000012"></path>
                        <path d="M17.592672,15.7644561 C19.8315587,15.7644561 21.646535,13.8631459 21.646535,11.5177608 C21.646535,11.1978122 19.9830594,10.6830638 16.6561081,9.97351574 C14.5779087,9.43942241 13.538809,9.95417076 13.538809,11.5177608 C13.538809,13.8631459 15.3537853,15.7644561 17.592672,15.7644561 Z" id="iris" fill="#734420" opacity="0.700000048"></path>
                        <path d="M13.5839482,10.5581094 C12.5327484,10.8281064 11.4150832,11.1418033 10.1575319,11.7157204 C9.47033694,12.0293402 8.78474099,12.6566971 7.98785851,13.0839795 C12.4717279,17.3153147 18.8019148,18.4903464 26.5365152,15.9054331 L26.7383808,16.525603 C18.7478709,19.1960415 12.144828,17.9492478 7.47845504,13.4952603 L7.74948598,13.2037152 C7.70354899,13.2251735 7.65722779,13.2458451 7.61050251,13.2656396 L7.36190939,12.6631455 C8.32518136,12.255069 8.91541388,11.3762901 9.71616687,11.0145452 C15.0892308,8.58723159 17.1965265,8.46366718 25.1029321,11.7785043 L24.85653,12.3819218 C22.1656886,11.2537605 20.2903574,10.5029448 18.7165432,10.1589604 C21.6628693,11.1159273 24.6537562,12.3322299 25.2851266,12.6815456 C25.8055987,12.9695051 25.9983454,13.1033908 26.3447387,13.904614 C26.4987122,14.2607617 26.2966841,14.9384879 26.828501,15.4955237 L26.3653018,15.9495733 C25.7983562,15.3557429 25.8965675,14.6630153 25.7445034,14.3081298 C25.4444041,13.607761 25.2697926,13.5188823 24.787451,13.1714976 C24.4308235,12.9146529 23.3233892,12.4437879 21.8932023,11.9173256 C22.0012994,12.5242755 21.9340489,13.1499561 21.6880871,13.6451224 C20.9467397,15.137591 19.6148997,16.1239844 18.1698607,16.1640564 C15.0810023,16.2497128 12.5221201,13.5035537 13.5839482,10.5581094 Z M14.1483308,10.4145937 L14.3086198,10.4895206 C13.1351696,13.0669492 15.376429,15.5882448 18.1522297,15.5112698 C19.342407,15.4782653 20.4713308,14.6421566 21.1124184,13.3515294 C21.3422062,12.8889243 21.3605317,12.2348528 21.1605607,11.652805 C20.6757319,11.4809769 20.1654249,11.3061726 19.6433925,11.1334821 C19.533949,11.1964248 19.4533095,11.2296187 19.3278224,11.260026 L19.2461974,11.013338 L19.2593398,11.0075141 C18.5166588,10.7659995 17.7573521,10.5311511 17.0199258,10.3172201 C17.036229,10.3898418 17.0567499,10.4803843 17.0676864,10.5250411 L16.8174853,10.5879536 C16.7969327,10.5040318 16.7456292,10.2724218 16.745065,10.2700002 C16.708252,10.1119918 16.6769471,10.0287824 16.6186437,9.94746553 C16.0586003,9.96742159 15.5076132,10.0544172 14.933006,10.2103269 C14.6741305,10.2805683 14.4129879,10.3474313 14.1483308,10.4145937 Z M16.9454487,10.0271334 L16.9688158,9.9436832 C16.9501619,9.94342956 16.9315263,9.94324503 16.9129067,9.94313316 C16.9245975,9.96954298 16.9353216,9.99730797 16.945449,10.0271321 Z M19.9549266,12.4921239 L20.4720885,12.6118689 L20.4349876,12.8695226 C20.2563137,12.8577165 20.1345738,12.8268551 19.8858114,12.7440662 L19.3686495,12.6243213 L19.4057504,12.3666675 C19.5844243,12.3784736 19.7061642,12.409335 19.9549266,12.4921239 Z M18.9158565,14.4892547 L18.676931,14.5873394 L18.2333828,13.4780156 L18.4723083,13.3799309 L18.9158565,14.4892547 Z M19.4682761,11.8708442 L19.485051,11.6101854 L20.680617,11.6891837 L20.6638421,11.9498425 L19.4682761,11.8708442 Z M14.589325,11.8490818 L14.6060999,11.588423 C14.7665513,11.599025 14.8946566,11.5979519 15.1837809,11.5882182 C15.481288,11.5782023 15.6151468,11.577081 15.7867971,11.588423 L15.7700222,11.8490818 C15.6095708,11.8384798 15.4814654,11.8395529 15.1923412,11.8492866 C14.894834,11.8593025 14.7609753,11.8604238 14.589325,11.8490818 Z M15.0971566,13.1830065 L15.0133715,12.9359754 C15.0394227,12.9268478 15.0394227,12.9268478 15.0647714,12.9177448 C15.2013898,12.8683787 15.3209245,12.8177742 15.4469512,12.756699 C15.5771656,12.6935942 15.5724743,12.6961159 15.9941105,12.4659014 L16.1163966,12.6958542 C15.6888626,12.929289 15.6940596,12.9264955 15.5581781,12.9923466 C15.4242286,13.0572615 15.2964812,13.1113427 15.1513604,13.1637811 C15.1245889,13.173395 15.1245889,13.173395 15.0971566,13.1830065 Z M17.6066073,14.6887126 L17.3595066,14.6142741 C17.4236153,14.3957748 17.4541419,14.2595123 17.4692022,14.1255508 C17.4822516,14.0094765 17.4844115,13.920898 17.4843064,13.633429 C17.4842979,13.609857 17.4842979,13.609857 17.484295,13.5854552 L17.7420848,13.5854552 C17.7420876,13.6097788 17.7420876,13.6097788 17.7420961,13.6333322 C17.7422051,13.9314525 17.7399132,14.0254468 17.7253355,14.1551158 C17.7083086,14.3065693 17.6746569,14.4567815 17.6066073,14.6887126 Z M19.9669074,13.6247121 L19.7981489,13.822174 L18.959278,13.0860792 L19.1280365,12.8886172 L19.9669074,13.6247121 Z M16.1150251,14.1335217 L15.9138213,13.9702218 L16.5052713,13.2220102 L16.706475,13.3853101 L16.1150251,14.1335217 Z M15.2461027,10.5057378 L15.3718546,10.2777122 L16.300332,10.8034373 L16.17458,11.0314629 L15.2461027,10.5057378 Z M17.5707753,12.9988273 C16.6809419,12.9988273 16.1376223,12.607075 16.1376223,11.8857568 C16.1376223,11.1644386 16.9488173,10.746699 17.8386507,10.746699 C18.7284841,10.746699 19.0039283,11.1644386 19.0039283,11.8857568 C19.0039283,12.607075 18.4606087,12.9988273 17.5707753,12.9988273 Z" id="eye" fill="#000000" fill-rule="nonzero" opacity="0.5"></path>
                        <path d="M27.0149186,17.4446195 L27.3137843,17.8454677 C22.4522511,21.4701466 13.6859226,20.6489038 6.48779052,17.0715357 L6.71031691,16.6237835 C13.7578295,20.1262959 22.3398511,20.9302726 27.0149186,17.4446195 Z" id="eye-line" fill="#000000" fill-rule="nonzero" opacity="0.3"></path>
                        <path d="M0.889892536,4.57563797 L1.68766506,1.59831039 C3.29981815,0.101342489 5.15017932,0.165519424 11.8239746,1.07882346 C12.1601785,1.1248008 12.3002796,1.14389195 12.4955658,1.17027262 C15.4780396,1.57316677 17.1705988,1.71889894 18.5650125,1.63138056 C19.0731298,1.59948931 19.5905473,1.56468072 20.2103435,1.5211872 C26.0143013,1.11390091 24.1649873,0.809798684 26.260693,1.08393076 C29.1686985,1.464317 31.3532215,2.61244205 33.1015205,4.84257379 L30.498106,6.88350579 C28.3645322,4.16191724 29.5223534,4.18390866 20.4419125,4.82111851 C19.8146382,4.86513679 19.2895068,4.90046433 18.7722296,4.93293049 C17.0868041,5.03871381 15.2521825,4.88074983 12.0527134,4.44854238 C11.855135,4.42185206 11.7132086,4.40251219 11.3754513,4.35632215 C6.46811538,3.6847568 1.33155427,4.1655321 0.889892536,4.57563797 Z" id="eye-brow" fill="#201D1D" fill-rule="nonzero"></path>
                        <path d="M11.4501547,3.81006546 C11.8586157,3.86588994 11.9346854,3.8762494 12.1265221,3.90216408 C15.4608815,4.35259348 17.1709476,4.48100673 18.7376934,4.38267217 C19.2391248,4.35120055 19.7576999,4.31643547 20.4033177,4.27112996 C29.3289724,3.64478206 28.4653889,3.63719568 30.5832727,6.11617453 L32.3166405,4.75731079 C30.7473703,2.95174485 28.8069492,1.97303569 26.1891831,1.63061468 C24.2023225,1.37072026 26.2023459,1.65340199 20.2489383,2.07117576 C19.6089816,2.11608401 19.0953328,2.1505217 18.5995487,2.18163888 C17.2064218,2.26907649 15.5559648,2.14004239 12.421757,1.71665091 C12.2313396,1.69092794 12.1557841,1.68063842 11.7492207,1.62507324 C5.06719435,0.710642788 3.50902948,0.73694995 2.178005,1.89855508 L1.67487312,3.77626885 C3.74780185,3.3953072 8.02081449,3.34076275 11.4501547,3.81006546 Z M0.889892536,4.57563797 L1.68766506,1.59831039 C3.29981815,0.101342489 5.15017932,0.165519424 11.8239746,1.07882346 C12.1601785,1.1248008 12.3002796,1.14389195 12.4955658,1.17027262 C15.4780396,1.57316677 17.1705988,1.71889894 18.5650125,1.63138056 C19.0731298,1.59948931 19.5905473,1.56468072 20.2103435,1.5211872 C26.0143013,1.11390091 24.1649873,0.809798684 26.260693,1.08393076 C29.1686985,1.464317 31.3532215,2.61244205 33.1015205,4.84257379 L30.498106,6.88350579 C28.3645322,4.16191724 29.5223534,4.18390866 20.4419125,4.82111851 C19.8146382,4.86513679 19.2895068,4.90046433 18.7722296,4.93293049 C17.0868041,5.03871381 15.2521825,4.88074983 12.0527134,4.44854238 C11.855135,4.42185206 11.7132086,4.40251219 11.3754513,4.35632215 C6.46811538,3.6847568 1.33155427,4.1655321 0.889892536,4.57563797 Z" id="eye-brow" fill="#000000" fill-rule="nonzero" opacity="0.05"></path>
                        <path d="M11.2077264,10.6532269 L11.1756676,10.7003779 C10.4656465,10.4787922 9.98065833,10.2649196 9.72070322,10.0587601 C9.46074812,9.85260057 9.36780812,9.78994942 9.44188323,9.87080662 C9.68359989,9.80283316 9.94079601,9.87697022 10.2134716,10.0932178 C10.414397,10.2525633 10.6736252,10.35701 10.9911563,10.406558 L10.1166789,9.41054604 C10.2561831,9.29348559 10.4304158,9.36818981 10.6393771,9.63465869 C10.8483385,9.90112758 11.1389005,10.1987485 11.5110633,10.5275215 L11.281619,10.7373891 L11.2077264,10.6532269 Z M9.75983683,11.237568 L9.62235445,11.5263632 C8.90495951,11.3025373 8.38539515,11.1012995 8.06366139,10.9226498 C7.74192762,10.7440001 7.59041021,10.6685229 7.60910915,10.696218 C7.93318444,10.6318618 8.25183571,10.6866468 8.56506297,10.860573 C8.87829023,11.0344993 9.27654819,11.1601643 9.75983683,11.237568 Z M12.1273926,10.3411722 L11.8906,10.541293 L10.7818395,9.25750458 C10.9064317,9.15017459 11.0646618,9.22891228 11.2565298,9.49371766 C11.4483977,9.75852303 11.7386853,10.0410079 12.1273926,10.3411722 Z M14.0651723,10.1607087 L13.7546065,10.2168769 C13.2807311,9.86868948 12.952313,9.57494224 12.7693523,9.33563521 C12.5863915,9.09632817 12.490068,8.99926172 12.4803816,9.04443585 C12.5898486,8.88985167 12.6996691,8.89939897 12.8098433,9.07307774 C12.9522489,9.29756639 12.9198173,8.97955481 13.026929,9.11965359 C13.2583433,9.42233643 13.6044244,9.7693548 14.0651723,10.1607087 Z M15.3041017,9.90616597 L15.0753449,10.1169073 C14.7608569,9.91141129 14.5061795,9.68530145 14.3113126,9.43857777 C14.1164457,9.19185409 14.0068554,9.05232321 13.9825417,9.01998511 C14.1551079,8.97207235 14.3434974,9.07739419 14.54771,9.33595063 C14.7519226,9.59450708 15.0040532,9.78457886 15.3041017,9.90616597 Z M16.6467059,9.88702322 L16.4235491,10.1046553 C15.9673715,9.78411434 15.6510994,9.5183754 15.4747326,9.30743849 C15.2983658,9.09650157 15.2574889,9.00977096 15.3521018,9.04724664 C15.5013165,8.96931963 15.6151084,9.00011256 15.6934777,9.13962542 C15.7941401,9.31882436 15.6509193,9.110573 15.7426555,9.2202907 C15.9415217,9.45813718 16.2428718,9.68038136 16.6467059,9.88702322 Z M17.8363735,10.0377005 L17.5887793,10.2219434 C17.0124962,9.84617352 16.6426403,9.53020407 16.4792116,9.27403507 C16.315783,9.01786606 16.2028086,8.88674999 16.1402886,8.88068684 C16.3317442,8.73602899 16.4540696,8.74495472 16.5072649,8.90746403 C16.5831578,9.13931388 16.7200665,9.00052155 16.8076088,9.13774118 C16.987192,9.41923179 17.3301136,9.71921822 17.8363735,10.0377005 Z M18.492466,10.2076759 L18.1988115,10.2774395 C17.9397642,9.81218585 17.7870513,9.46570646 17.7406728,9.23800134 C17.6942943,9.01029623 17.6746021,8.89156853 17.6815962,8.88181825 C17.8423942,8.84411095 17.9180732,8.88495204 17.908633,9.00434152 C17.8922049,9.21210873 17.9942831,9.26162717 18.0197048,9.3864404 C18.0670387,9.61883598 18.2246257,9.89258114 18.492466,10.2076759 Z M19.0861688,10.3720138 L18.7854939,10.3725048 C18.6152803,10.0584353 18.5300563,9.81767897 18.5298218,9.65023588 C18.5295874,9.48279279 18.5953371,9.35289758 18.7270709,9.26055024 L19.0842602,9.00887853 C18.9161723,9.31431618 18.8322242,9.53546177 18.8324158,9.67231529 C18.8326074,9.80916881 18.9171917,10.0424016 19.0861688,10.3720138 Z M19.8089346,10.3663716 L19.5082594,10.3664136 C19.3572902,10.0698768 19.2817969,9.84944028 19.2817796,9.70510407 C19.2817624,9.56076786 19.3780353,9.4509702 19.5705983,9.3757111 L19.8087878,9.13832901 C19.7140315,9.40076695 19.6666614,9.5990536 19.6666775,9.73318895 C19.6666935,9.8673243 19.7141126,10.0783852 19.8089346,10.3663716 Z M8.65493644,13.705409 L8.85755295,14.0396439 C8.66682519,14.0746091 8.55267351,14.1015717 8.51509792,14.1205316 C8.24430697,14.2571672 8.03725255,14.3352225 7.89393464,14.3546977 C7.72078604,14.3782265 7.573585,14.3290177 7.45233152,14.2070714 C7.56994683,14.1157488 7.72437618,14.0570936 7.91561956,14.0311059 C8.10686294,14.0051183 8.3533019,13.8965527 8.65493644,13.705409 Z M9.00012619,14.050047 L9.15088223,14.3310098 C8.9536796,14.5458052 8.78391706,14.6977396 8.6415946,14.786813 C8.49927215,14.8758864 8.36162543,14.940688 8.22865444,14.9812177 C8.27808905,14.8298835 8.38018875,14.7057861 8.53495355,14.6089256 C8.68971834,14.5120651 8.84477589,14.3257722 9.00012619,14.050047 Z M9.59987313,14.2289705 L9.77615196,14.4920376 C9.59045136,14.7636368 9.42958475,14.9525976 9.29355213,15.0589202 C9.1575195,15.1652427 9.03435891,15.2072644 8.92407035,15.1849852 L8.42345192,15.1484566 C8.77572784,15.0381801 9.01957654,14.9301195 9.15499801,14.8242746 C9.29041948,14.7184297 9.43871119,14.519995 9.59987313,14.2289705 Z M9.9125313,14.8687713 L10.1617232,15.0504846 C10.0115417,15.4559694 9.89435722,15.7260426 9.81016965,15.8607042 C9.68388829,16.0626966 9.48356832,15.9805502 9.67451804,15.675118 C9.80181785,15.4714965 9.8811556,15.2027143 9.9125313,14.8687713 Z M10.4318997,15.0150098 L10.6879646,15.1852134 C10.5373028,15.6939456 10.4134285,16.0334963 10.3163417,16.2038652 C10.1707114,16.4594186 9.92933954,16.2868501 10.0987979,15.989483 C10.2117701,15.7912382 10.322804,15.4664139 10.4318997,15.0150098 Z M11.5634794,15.4227292 L11.7786484,15.545284 C11.6760675,15.9490089 11.5832828,16.2224479 11.5002946,16.365601 C11.4173063,16.508754 11.3485159,16.5986527 11.2939235,16.6352971 C11.1821573,16.5465647 11.1706275,16.4256899 11.2593343,16.2726726 C11.348041,16.1196553 11.4494227,15.8363409 11.5634794,15.4227292 Z M11.9037712,15.7081415 L12.1940249,15.7293205 C12.2020754,16.1352343 12.1842115,16.3988695 12.1404333,16.5202261 C12.0966551,16.6415827 12.0598891,16.6978461 12.0301353,16.6890163 L11.5406383,16.8283649 C11.7189828,16.6399594 11.8266307,16.4945408 11.863582,16.392109 C11.9005333,16.2896772 11.9139297,16.061688 11.9037712,15.7081415 Z M12.8609336,16.0050627 L13.0718052,16.0352102 C13.0532853,16.4508095 13.0353242,16.7275003 13.0179218,16.8652826 C13.0005195,17.003065 12.9930529,17.1058173 12.9955221,17.1735397 C12.8491767,17.1071687 12.7854466,16.9992213 12.8043319,16.8496976 C12.8232173,16.7001739 12.8420845,16.418629 12.8609336,16.0050627 Z M14.0998567,16.3135411 L14.3642535,16.4681735 C14.35835,16.7285388 14.327177,16.915005 14.2707344,17.0275721 C14.1860705,17.1964227 13.9608695,17.1344701 14.057798,16.9411594 C14.122417,16.8122856 14.1364365,16.6030795 14.0998567,16.3135411 Z M15.161959,16.7406981 L15.4623735,16.7542168 C15.4658333,17.0268044 15.4652303,17.2235674 15.4605645,17.3445058 C15.4535658,17.5259134 15.1933115,17.5288565 15.203406,17.2672068 C15.2101356,17.0927737 15.19632,16.9172708 15.161959,16.7406981 Z M10.6432226,11.0058921 L10.493397,11.2874348 C9.83161072,11.0496153 9.36156424,10.8443313 9.08325748,10.6715828 C8.80495073,10.4988344 8.67599345,10.407125 8.69638564,10.3964547 C8.86220242,10.3533361 9.07037819,10.4095318 9.32091295,10.5650418 C9.57144771,10.7205519 10.0122176,10.8675019 10.6432226,11.0058921 Z M9.51527405,11.7502894 L9.42911765,12.0614023 C8.63858525,12.0823284 8.08612911,12.0420173 7.77174922,11.940469 C7.45736934,11.8389206 7.29909384,11.6744616 7.29692272,11.4470921 C7.6814334,11.5343013 8.02132862,11.6255953 8.31660837,11.7209741 C8.61188812,11.8163529 9.01144334,11.8261247 9.51527405,11.7502894 Z M12.9337784,10.2932089 L12.6891857,10.4820702 C12.1951645,10.0837323 11.8692325,9.76534473 11.7113895,9.52690746 C11.5535466,9.28847019 11.4845921,9.16697961 11.504526,9.16243572 C11.7586448,9.1928729 11.9813766,9.35261411 12.1727215,9.64165935 C12.3640664,9.93070459 12.617752,10.1478878 12.9337784,10.2932089 Z" id="eye-lashes" fill="#000000" fill-rule="nonzero" opacity="0.300000012" transform="translate(13.552929, 13.125839) rotate(-1.000000) translate(-13.552929, -13.125839) "></path>
                    </g>
                    <path d="M3.94478596,36.0195855 C3.811217,36.2705932 3.64658916,36.5504267 3.43894943,36.8899914 C2.89055674,37.7868081 2.68564548,38.1979855 2.5470673,38.7955699 C2.45373585,39.1980389 2.46414165,39.6381333 2.55801924,40.6917119 C2.66241481,41.8633327 2.67403937,42.3549725 2.5470673,42.9025084 L1.57291742,42.6766057 C1.66624886,42.2741368 1.65584307,41.8340424 1.56196548,40.7804638 C1.4575699,39.6088429 1.44594534,39.1172032 1.57291742,38.5696672 C1.74314,37.8356241 1.98354252,37.3532296 2.5858107,36.3683073 C3.0840436,35.5535196 3.29875582,35.1395944 3.43778993,34.6225421 C3.31184214,34.3352737 3.21917747,34.0846803 3.05802066,33.6214166 C2.59216993,32.2826604 2.17061713,31.492131 0.839127834,29.7564831 L1.63255185,29.1478138 C3.03000517,30.9694483 3.50205555,31.8546748 3.99529692,33.2721422 C4.18306456,33.8118993 4.26920146,34.039501 4.41938766,34.3675437 C5.15973362,35.984637 5.26764687,37.2612258 5.23615855,41.4003145 C5.21688002,43.9344468 5.23257889,45.3494209 5.33474138,47.2673495 L4.33615706,47.3205412 C4.23265057,45.3773812 4.21676582,43.945654 4.23618749,41.3927072 C4.25783262,38.5474891 4.21211417,37.1232755 3.94478596,36.0195855 Z" id="ear" fill="#000000" fill-rule="nonzero" opacity="0.3"></path>
                    <path d="M28.0234459,6.34286159 L27.9765541,5.34396161 C41.7081527,4.69935389 59.0374968,3.53664775 59.4490279,3.52401887 C61.6224772,3.45732103 63.3960992,3.52398847 66.4960926,3.78151462 C68.0851669,3.913524 77.5209945,4.79629847 80.8590766,5.09540685 L80.7698294,6.09141635 C77.427179,5.79189863 67.9962097,4.90957869 66.4133046,4.77808181 C63.3481936,4.52345344 61.6108346,4.45814907 59.479701,4.52354834 C59.0902723,4.53549895 41.7722141,5.69744786 28.0234459,6.34286159 Z M26.0217984,9.3429362 L25.9782016,8.34388699 C40.7510385,7.69922471 59.3920303,6.53656985 59.8331185,6.52398692 C62.1680883,6.45737723 64.0733936,6.52395223 67.4056338,6.78128248 C69.1146131,6.91325739 79.2647292,7.79600129 82.8559575,8.09513719 L82.7729487,9.091686 C79.177467,8.79219581 69.0318744,7.90984531 67.3286386,7.77831395 C64.0288489,7.52348967 62.1572626,7.45809287 59.8616339,7.52358028 C59.4411001,7.53557685 40.8106046,8.69757704 26.0217984,9.3429362 Z M29.0243665,3.34281752 L28.9756335,2.34400568 C42.1865778,1.69943017 58.8601212,0.536693751 59.256919,0.524037736 C61.3496957,0.457287835 63.0575507,0.524009858 66.0414912,0.781651629 C67.5706251,0.913681328 76.6493181,1.79647381 79.8608182,2.09556597 L79.7680878,3.09125723 C76.5518442,2.79172329 67.4781961,1.90942137 65.9554685,1.7779448 C63.0077674,1.52343205 61.3375967,1.45818226 59.2887982,1.52352947 C58.9149673,1.53545294 42.2531508,2.69737158 29.0243665,3.34281752 Z" id="forehead-lines" fill="#000000" fill-rule="nonzero" opacity="0.02" transform="translate(54.417080, 4.921385) rotate(1.000000) translate(-54.417080, -4.921385) "></path>
                </g>
                <g id="hair" transform="translate(59.000000, 0.000000)">
                    <path d="M106.072363,39.8995156 C113.861621,69.8676251 117.561121,87.4001277 117.170862,92.4970235 C116.037533,107.298615 122.856155,116.978492 121.045098,131.725124 C120.526433,135.94838 125.692321,145.164521 121.045098,144.472414 C115.38851,143.629984 117.068669,134.541258 113.378176,130.583296 C112.706729,129.863186 111.920789,129.252207 111.066812,128.706587 C111.211048,130.261985 111.186025,130.831593 111.010101,128.670512 C109.589281,127.770641 107.984257,127.047773 106.406752,126.302406 C105.523002,129.979276 104.505003,135.794915 103.34375,144.605469 C101.826385,156.117882 93.6153659,169.852294 94.34375,181.441406 C95.1493469,194.259029 88.342977,207.117201 90.9375,219.695313 C92.3339809,226.465378 89.9496357,233.314052 91.2382813,240.105469 C92.1983094,245.165007 91.5509085,250.021281 89.2960783,254.674289 L71.8789062,255.484375 C69.4293287,240.977139 67.7704745,229.287035 66.9023437,220.414063 C64.9149259,200.101104 63.4962532,190.265995 55.8125,170.640625 C49.1138238,153.531278 51.698712,153.028028 37.4980469,142.259766 C36.6629723,141.626535 32.7598525,134.516005 29.2153986,129.117138 C29.0495377,129.464671 28.8331111,129.794649 28.5550069,130.101562 C25.5926465,133.370801 19.5264646,134.047318 16.2992655,137.148438 C12.8610893,140.452292 14.4263772,148.03898 9.15652655,148.742188 C4.82703135,149.319914 9.63973066,141.626868 9.15652655,138.101563 C7.46928988,125.792015 3.7123814,113.675738 2.65653748,101.320313 C1.83539639,91.7113665 2.222328,82.0687361 2.48433394,72.429589 C1.81167994,68.6284406 1.34391112,65.0213533 1.31196374,64.3999214 C0.226099129,43.2779714 4.85845519,26.2275455 18.9999402,13.0528188 C35.8456619,-2.64127396 72.4831473,-2.79784825 90.3496094,13.0528188 C92.6817878,15.1218677 102.129582,27.934282 104.376953,30.1477338 L106.072363,39.8995156 Z M105.760865,42.5511273 C102.955332,36.3217001 98.960823,27.7952065 91.6542969,25.3125 C64.0410156,15.9297003 37.0203896,16.9297003 27.1489035,32.1477338 C22.9778982,38.5778193 28.5206129,42.8621329 25.1489035,49.9997494 C23.8275823,52.7968719 25.6379575,58.2460199 23.2463253,59.4692099 C21.206819,60.5123067 20.7909781,54.623555 18.9046348,53.1933539 C7.78861508,44.7653315 8.65738106,69.445098 9.88592002,73.9584643 C9.89637261,73.9968647 11.1281643,77.7398428 12.6846539,82.5564159 L18.015625,90.4482422 C21.6041667,92.8544922 24.9290305,104.148922 28.78125,106.105469 C37.2471361,110.405302 45.8813489,114.46883 54.8476563,117.59375 C59.6263271,119.259203 64.1388943,123.695993 69.1679687,124.259766 C72.4896103,124.632131 75.4268035,126.635666 78.7480469,126.259766 C80.933159,126.012454 85.9496733,124.315198 87.8789063,123.259766 C91.1380999,121.476746 92.4909621,114.588209 95.1484375,111.992188 C96.733596,110.443686 97.7726642,108.372002 98.6289063,106.328125 C101.681505,99.0414739 103.829041,91.3993792 106.835938,84.09375 L106.959304,83.8908878 C107.261382,74.620231 106.861902,60.8403109 105.760865,42.5511273 Z" fill="#201D1D"></path>
                    <path d="M113.74387,130.242315 C115.022433,131.613543 115.670919,133.293198 116.457265,136.529024 C116.500859,136.708413 116.541612,136.87768 116.624896,137.22428 C117.770805,141.987676 118.668643,143.612976 121.11875,143.977869 C122.157058,144.132503 122.503593,143.760331 122.499977,142.624778 C122.496767,141.61701 122.280222,140.632126 121.520832,137.780982 C120.656559,134.499287 120.389531,132.961246 120.548826,131.664176 C121.298972,125.556078 120.778326,120.956452 118.895273,112.337338 C118.845742,112.110628 118.802537,111.913339 118.70954,111.488958 C116.780987,102.686887 116.214182,98.4422783 116.672321,92.4588512 C117.056181,87.4455362 113.356122,69.9103861 105.588442,40.0252955 L103.911508,30.3896305 C102.993878,29.4620653 101.78542,27.9498723 97.0613191,21.9307086 C92.9315137,16.6698656 90.9655288,14.267655 90.0177858,13.4268417 C72.40063,-2.20264724 36.0517875,-2.14994381 19.3407675,13.4186559 C5.98724129,25.8592912 0.669081951,42.1560446 1.81130432,64.3742507 C1.85355813,65.1961606 2.40725785,69.1246495 2.97668436,72.3424624 C2.96367983,73.1962438 2.94675768,73.7986336 2.90827418,75.1539209 C2.53671905,88.2391114 2.53671905,94.0459076 3.15472174,101.27774 C3.64196538,106.979437 4.4903488,111.738534 6.56897348,121.569994 C8.35432336,130.01174 9.03965551,133.566958 9.65189485,138.033664 C9.80361746,139.140584 9.55293243,140.434317 8.88141791,142.721867 C8.0393807,145.556864 7.83822861,146.376584 7.83530085,147.200347 C7.83213212,148.091906 8.12652894,148.375198 9.09039289,148.24658 C11.363519,147.943255 12.1827393,146.614509 13.2445192,142.659873 C14.1377413,139.361982 14.7480496,137.945619 15.9528247,136.787912 C17.3004473,135.492938 18.7135711,134.75078 22.0261231,133.356219 C25.5648959,131.866479 26.9748782,131.100747 28.1844916,129.765827 C28.4226948,129.502948 28.6143923,129.215582 28.7641544,128.901781 L29.1463633,128.100927 L29.6333712,128.842731 C29.9931581,129.390754 30.3673932,129.972709 30.7588851,130.592132 C31.1170644,131.158846 31.4884492,131.754942 31.8794671,132.389964 C32.7875215,133.864665 35.5506575,138.459459 35.7066303,138.715562 C36.8868105,140.653389 37.5801915,141.694559 37.8001572,141.861357 C43.4377675,146.136316 46.319548,148.717294 48.2758081,151.302839 C49.5754903,153.0206 50.4948739,154.770385 51.4764179,157.28444 C51.77592,158.051563 54.788194,166.652945 56.2780871,170.458338 C63.2854804,188.356191 65.1266263,197.130055 67.3999676,220.365375 C68.2580768,229.135919 69.8908487,240.669626 72.2982687,254.964329 L88.9738474,254.188735 C91.0783303,249.71403 91.6686553,245.055741 90.7470462,240.198679 C90.2678852,237.673405 90.2421752,235.2318 90.5094114,231.463549 C90.5382444,231.056979 90.5627233,230.731005 90.6184759,230.002135 C91.0115562,224.863285 91.0254987,222.59693 90.4478093,219.796322 C89.2350302,213.916833 89.7154657,209.22568 91.8874477,198.542176 C93.1294902,192.432841 93.594686,189.675648 93.8196334,186.273143 C93.930298,184.599255 93.941344,183.009894 93.8447346,181.47277 C93.5300446,176.465827 94.6730281,171.263357 97.4149394,163.167337 C97.7102579,162.295352 97.9904528,161.482942 98.4680433,160.108534 C101.34037,151.842569 102.315318,148.581931 102.848037,144.540133 C103.951535,136.167779 104.974633,130.121271 105.920598,126.185557 L106.620357,125.85033 C106.770065,125.921066 106.886596,125.975902 107.153827,126.101469 C108.765124,126.858553 109.67466,127.306086 110.47739,127.765425 L111.306944,128.26667 C112.370397,128.960677 113.115014,129.567883 113.74387,130.242315 Z M111.624037,129.869003 C111.624725,129.855396 111.623795,129.843518 111.619655,129.832764 C111.621174,129.845614 111.622636,129.857702 111.624037,129.869003 Z M117.669402,92.5351958 C117.220823,98.3937668 117.777561,102.562983 119.686369,111.274933 C119.779373,111.699351 119.822636,111.896904 119.872229,112.123898 C121.7776,120.845166 122.308753,125.537613 121.541369,131.786072 C121.403393,132.909549 121.657698,134.374304 122.338913,136.964271 C123.275273,140.482653 123.496362,141.488205 123.499972,142.621594 C123.505393,144.324082 122.671106,145.220089 120.971446,144.96696 C117.94343,144.516 116.893109,142.614668 115.652633,137.458173 C115.569317,137.111439 115.528847,136.943347 115.485546,136.765164 C114.739013,133.693168 114.134635,132.127758 113.012482,130.924277 C112.61507,130.498062 112.162567,130.09815 111.647537,129.713579 C111.668459,130.215118 111.668459,130.215118 111.383582,130.534508 C110.672124,130.399208 110.672124,130.399208 110.685717,130.263421 C110.593613,129.653127 110.565213,129.350107 110.532481,128.961551 C109.600195,128.3863 108.680884,127.923856 106.810171,127.044881 C105.854946,130.920205 104.883981,136.745936 103.839463,144.670805 C103.294428,148.806043 102.309196,152.101074 99.4126391,160.43677 C98.9358583,161.808847 98.656345,162.619282 98.3620942,163.488114 C95.6596282,171.467664 94.5385827,176.57028 94.8427654,181.410043 C94.9421885,182.991936 94.9308458,184.623989 94.8174551,186.339112 C94.588552,189.801451 94.1184052,192.587988 92.8674011,198.741403 C90.7225069,209.291668 90.2512359,213.893335 91.4271907,219.594303 C92.0300664,222.517012 92.0157332,224.846867 91.6155632,230.078404 C91.5599513,230.805434 91.535565,231.130175 91.5069061,231.53429 C91.245295,235.223223 91.2702355,237.591758 91.7295163,240.012259 C92.7095832,245.177405 92.0476346,250.142803 89.7460299,254.892334 L71.4596386,256.004416 C68.9345324,241.049874 67.274149,229.348993 66.4047199,220.46275 C64.1396471,197.311941 62.3166602,188.624612 55.3469129,170.822912 C53.8482495,166.995119 50.8357654,158.393137 50.5448967,157.648127 C49.5943447,155.213453 48.7163684,153.542475 47.478347,151.90621 C45.5918639,149.412887 42.7654445,146.881492 37.1959366,142.658174 C36.8186975,142.372116 36.1637252,141.388621 34.8525558,139.235713 C34.694029,138.975416 31.9326608,134.383561 31.0279496,132.91429 C30.6388861,132.282442 30.2695441,131.689625 29.9135675,131.126396 C29.6805724,130.757749 29.4538332,130.402624 29.2327643,130.060286 C27.5809503,131.921158 26.0936092,132.728901 22.4901438,134.245875 C19.2186792,135.623138 17.8724097,136.330184 16.6457062,137.508963 C15.6139009,138.500458 15.0570037,139.792869 14.3658995,142.340991 C13.0488649,147.245037 12.0531212,148.860099 9.22266021,149.237795 C7.63574893,149.449552 6.83005608,148.674249 6.83530716,147.196793 C6.83873171,146.233254 7.04529424,145.391485 7.7839222,142.906718 C8.55137814,140.295869 8.78638268,139.083059 8.66115825,138.169461 C8.05328208,133.734588 7.37097639,130.19507 5.69239628,122.258214 C3.5036396,111.905954 2.65020747,107.118536 2.15835322,101.362885 C1.53604665,94.0806895 1.53604665,88.2485967 1.90867708,75.1255373 C1.94628179,73.8011985 1.96329008,73.1960646 1.98314025,72.4666795 C1.41004032,69.2199292 0.857363491,65.2958691 0.812623164,64.4255922 C-0.343691678,41.933263 5.0684367,25.3485547 18.659113,12.6869817 C35.7507531,-3.23621771 72.6820831,-3.28976572 90.6814329,12.6787959 C91.6989753,13.5815334 93.646721,15.9614579 97.7362273,21.1709495 C102.699784,27.4951995 103.839893,28.916988 104.727808,29.7915024 L106.561453,39.7936254 C114.368753,69.8325997 118.065974,87.3558623 117.669402,92.5351958 Z M110.511749,128.71108 L110.742571,129.092919 C110.672198,129.048348 110.602303,129.004633 110.532481,128.961551 C110.52575,128.88165 110.518836,128.798133 110.511749,128.71108 Z M106.216763,42.3458056 C107.361849,60.8243921 107.761723,74.6179082 107.459039,83.9071713 L107.298306,84.2840543 C106.084159,87.2339752 105.209967,89.6450567 103.328493,95.0744664 C101.328073,100.847124 100.400422,103.393477 99.0900732,106.521322 C97.9931299,109.139761 96.9417546,110.93932 95.4978312,112.349852 C94.6401648,113.187685 93.9598125,114.377504 92.792585,116.864421 C92.7263162,117.005615 92.4998975,117.489471 92.4703432,117.55253 C90.7466162,121.230387 89.7393543,122.811895 88.1188795,123.698414 C86.0610659,124.82419 80.9840094,126.50989 78.8042781,126.756594 C77.2806799,126.929035 75.8874256,126.682247 73.808297,126.017385 C73.5664372,125.940044 73.4120827,125.889413 72.9249549,125.728523 C71.0719019,125.116489 70.1959329,124.878135 69.1122663,124.756653 C66.5675457,124.471383 64.616733,123.553051 60.487435,121.070488 C59.8809688,120.705876 59.6996725,120.59718 59.4055094,120.422629 C57.4083839,119.237567 56.0579221,118.545046 54.6831045,118.065897 C46.6650203,115.27145 38.6623459,111.684884 28.5548298,106.551265 C26.7628502,105.641116 25.433097,103.612186 22.7260211,98.4274703 C21.7952091,96.6447364 21.5455516,96.1723827 21.1084044,95.3848415 C19.7670052,92.9682472 18.7194533,91.5221859 17.7371632,90.863524 L12.2703266,82.8362961 C11.1010152,79.2818674 9.39438054,74.0563804 9.40347361,74.0897863 C8.59261207,71.1108696 8.37866045,63.6266759 9.27391946,58.6346279 C9.85166741,55.4130513 10.8405972,53.0706736 12.3161231,51.8609746 C14.0909627,50.4058855 16.4195905,50.6817608 19.2067184,52.7949251 C19.9382762,53.3495828 20.4038671,54.2418637 21.0966666,56.0611477 C21.1230539,56.1304403 21.3351314,56.6914082 21.3966516,56.8517712 C21.7767729,57.8426224 22.0367609,58.3976724 22.315882,58.758463 C22.5782425,59.0975889 22.7548133,59.158992 23.0186517,59.0240529 C23.9080552,58.5691713 24.1109474,57.5025934 24.0983323,54.5004251 C24.0973362,54.2631669 24.096979,54.1570959 24.0968607,54.0243248 C24.0950108,51.9478419 24.2199101,50.7957369 24.6968078,49.7861858 C25.9871278,47.0546902 26.0413829,45.1462902 25.4129027,41.2446554 C25.2806163,40.4234154 25.2348737,40.12799 25.1781462,39.7032787 C24.7644817,36.6062293 25.0957947,34.3940644 26.729427,31.8756319 C36.310103,17.1059157 62.46683,14.8667265 91.8151604,24.8390838 C97.9935393,26.9384537 101.57138,32.0311612 106.216763,42.3458056 Z M91.4934334,25.7859162 C62.5283517,15.9437842 36.8287965,18.1438364 27.56838,32.4198357 C26.0809444,34.7128893 25.7846852,36.6910014 26.1693437,39.5708871 C26.2244424,39.9834039 26.2693993,40.2737547 26.4001762,41.0856241 C27.0580704,45.1698617 26.9988115,47.2542658 25.6009993,50.2133131 C25.2092181,51.04268 25.0951423,52.0949465 25.0968603,54.0234339 C25.0969773,54.1547372 25.0973302,54.2595263 25.0983235,54.4962231 C25.1128274,57.9479186 24.8750666,59.1977968 23.473999,59.9143669 C22.7331231,60.2932847 22.0570723,60.0581857 21.5249454,59.3703611 C21.1656331,58.9059157 20.8782626,58.2924067 20.4629984,57.2099496 C20.4004255,57.0468425 20.1877299,56.4842396 20.1621343,56.417026 C19.5422786,54.7892915 19.1235304,53.9867824 18.6025513,53.5917827 C16.1485639,51.7312013 14.3164352,51.5141468 12.9501299,52.6343021 C11.7043765,53.6556238 10.7976255,55.8033528 10.2582164,58.8111488 C9.38827386,63.6620295 9.59795472,70.996829 10.3683664,73.8271423 C10.3517274,73.7660145 12.0100417,78.8434854 13.1386374,82.3352419 L18.3769188,90.0898527 C19.5054967,90.8834397 20.5994451,92.4074482 21.9827388,94.8995174 C22.4257441,95.6976126 22.6770663,96.1731157 23.6124652,97.9646346 C26.189337,102.899978 27.4942486,104.891004 29.0076702,105.659673 C39.0786013,110.77471 47.0436783,114.344427 55.012208,117.121603 C56.4655994,117.628136 57.865473,118.345996 59.9158152,119.562636 C60.2122833,119.738555 60.3944033,119.847745 61.0026912,120.213452 C65.0058582,122.620184 66.8736494,123.499434 69.2236712,123.762878 C70.3983437,123.894562 71.3208246,124.145572 73.2385756,124.778975 C73.7224229,124.938782 73.8752076,124.988897 74.1128816,125.0649 C76.0684655,125.690255 77.3415645,125.91576 78.6918156,125.762938 C80.7376548,125.531389 85.6910764,123.886738 87.638933,122.821117 C88.9938622,122.07987 89.9412814,120.592322 91.5648589,117.12815 C91.5941869,117.065574 91.8207693,116.581368 91.8873339,116.439544 C93.1082334,113.838272 93.823354,112.58765 94.7990438,111.634523 C96.1264032,110.337859 97.1181057,108.640437 98.1677393,106.134928 C99.4672428,103.032972 100.390089,100.499807 102.377692,94.7641368 C104.271293,89.2997332 105.149807,86.8767294 106.408731,83.8339528 C106.756768,74.50817 106.358112,60.816165 105.267284,42.6728402 C100.7558,32.6708474 97.2904615,27.7557058 91.4934334,25.7859162 Z" id="hair-outline" fill="#000000" fill-rule="nonzero" opacity="0.05"></path>
                    <path d="M73.7713749,109.044907 C76.1672025,109.035018 79.2632976,109.737031 81.7124491,109.008712 C84.0927217,108.300876 106.594283,150.886346 104.39116,178.562423 C104.345309,179.138416 102.976264,178.515539 102.758348,177.980391 L86.8403788,133.964766 C85.1411716,129.791937 82.7703449,125.872835 80.0708476,122.265548 C78.6276109,120.336978 75.9867395,118.876928 73.7713749,117.315321 C71.5560104,118.876928 68.915139,120.336978 67.4719023,122.265548 C64.7724049,125.872835 62.4015782,129.791937 60.702371,133.964766 L44.7844023,177.980391 C44.5664861,178.515539 43.1974411,179.138416 43.1515898,178.562423 C40.9484665,150.886346 63.4500282,108.300876 65.8303007,109.008712 C68.2794523,109.737031 71.3755474,109.035018 73.7713749,109.044907 Z" id="mustache" fill="#201D1D"></path>
                    <path d="M65.6949219,110.010107 C65.6448154,109.99629 65.5949356,109.982 65.5452611,109.967228 C65.6325849,109.993196 65.6984073,110.010989 65.7469847,110.024067 L65.6949219,110.010107 Z M64.8901789,111.247995 C64.0644242,112.380892 63.0139532,114.076896 61.8463267,116.172618 C59.2324741,120.864108 56.3163462,127.020736 53.6997198,133.515304 C47.208462,149.626856 43.4837072,165.135164 44.0572847,177.050594 L59.776214,133.587628 C61.4213661,129.547545 63.7460527,125.575304 66.6712669,121.666396 C67.6595064,120.34583 68.8497505,119.407386 71.416842,117.700113 C71.7105586,117.504943 71.8677113,117.400502 72.001382,117.311395 C72.4991999,116.979543 72.8555751,116.737396 73.1952284,116.497974 L73.7713749,116.091849 L74.3475214,116.497974 C74.6871747,116.737396 75.0435499,116.979543 75.5413678,117.311395 C75.6750386,117.400502 75.8321912,117.504943 76.1259078,117.700113 C78.6929993,119.407386 79.8832434,120.34583 80.8714829,121.666396 C83.7966971,125.575304 86.1213838,129.547545 87.7807726,133.624679 L103.485369,177.052585 C104.059458,165.136892 100.334649,149.627754 93.84303,133.515304 C91.2264037,127.020736 88.3102757,120.864108 85.6964232,116.172618 C84.5287967,114.076896 83.4783256,112.380892 82.652571,111.247995 C82.2650888,110.716387 81.938435,110.325124 81.6954872,110.094727 C80.7052518,110.324214 79.4515157,110.393062 77.8309846,110.304163 C77.3821359,110.279541 76.9887081,110.249781 76.2591794,110.188812 C74.8911712,110.074484 74.3940964,110.042346 73.7755026,110.044899 C73.1486534,110.042346 72.6515787,110.074484 71.2835704,110.188812 C70.5540417,110.249781 70.1606139,110.279541 69.7117653,110.304163 C68.0884481,110.393215 66.8331883,110.323977 65.6949219,110.010107 C65.6043149,110.325124 65.2776611,110.716387 64.8901789,111.247995 Z M43.8440085,177.640304 L43.8460683,177.634609 C43.8454973,177.636385 43.8448116,177.638282 43.8440085,177.640304 Z M81.7744783,110.0298 C81.8245259,110.01629 81.8966798,109.997206 81.9974888,109.967228 C81.9458776,109.982575 81.8940447,109.997404 81.8419663,110.011721 L81.7744783,110.0298 Z M81.7124491,109.008712 C84.0927217,108.300876 106.594283,150.886346 104.39116,178.562423 C104.345309,179.138416 102.976264,178.515539 102.758348,177.980391 L86.8403788,133.964766 C85.1411716,129.791937 82.7703449,125.872835 80.0708476,122.265548 C78.6276109,120.336978 75.9867395,118.876928 73.7713749,117.315321 C71.5560104,118.876928 68.915139,120.336978 67.4719023,122.265548 C64.7724049,125.872835 62.4015782,129.791937 60.702371,133.964766 L44.7844023,177.980391 C44.5664861,178.515539 43.1974411,179.138416 43.1515898,178.562423 C40.9484665,150.886346 63.4500282,108.300876 65.8303007,109.008712 C68.2794523,109.737031 71.3755474,109.035018 73.7713749,109.044907 C76.1672025,109.035018 79.2632976,109.737031 81.7124491,109.008712 Z" id="mustache-outline" fill="#000000" fill-rule="nonzero" opacity="0.05"></path>
                    <path d="M30.3994141,130.193246 L29.2754153,129.280241 C27.7422791,126.908702 24.5227852,122.002509 24.6008295,122.12269 C23.5444924,120.496026 23.0308522,119.634446 22.5275755,118.624981 C22.0690981,117.705375 18.6499692,109.588211 16.3397134,104.372414 L17.2540366,103.967429 C19.5761273,109.209945 22.9808541,117.292917 23.4225183,118.1788 C23.9055109,119.147579 24.4020288,119.980439 25.4395073,121.578062 C25.3594999,121.454858 28.8639614,127.818123 30.3994141,130.193246 Z M106.118314,127.565082 L105.464111,127.565082 L109.100436,95.2015198 L110.092923,95.3238709 L106.118314,127.565082 Z M8.45574929,135.556042 C9.3409266,135.664431 10.2674533,135.844214 12.5682252,136.326878 C14.7642794,136.787573 15.6663389,136.962608 16.4293821,137.056042 L14.7045898,140.113281 L9.01000977,138.738525 L8.45574929,135.556042 Z M114.150779,132.550668 C114.855319,132.376506 115.705269,132.103947 117.777937,131.406463 C119.950875,130.675236 120.821194,130.396146 121.64199,130.193246 L121.452222,133.080238 L115.386963,135.049072 L114.150779,132.550668 Z" id="hair-lines" fill="#000000" fill-rule="nonzero" opacity="0.12"></path>
                </g>
            </g>
        </g>
    </g>
</svg>