<?xml version="1.0" encoding="UTF-8"?>
<svg width="480px" height="300px" viewBox="0 0 480 300" version="1.1" xmlns="http://www.w3.org/2000/svg" xmlns:xlink="http://www.w3.org/1999/xlink">
    <!-- Generator: Sketch 51 (57462) - http://www.bohemiancoding.com/sketch -->
    <title>Avatars</title>
    <desc>Created with Sketch.</desc>
    <defs></defs>
    <g id="Avatars" stroke="none" stroke-width="1" fill="none" fill-rule="evenodd">
        <rect id="Frame" fill="#E6E6E6" x="0" y="0" width="480" height="300"></rect>
        <g id="Gnome" transform="translate(148.000000, 47.000000)">
            <g id="Female" transform="translate(8.000000, 0.000000)">
                <g id="body" transform="translate(0.000000, 5.000000)">
                    <path d="M3.96544903,249 C4.98184291,218.918451 6.05060761,199.985449 7.17174312,192.200997 C7.97622082,186.615215 9.64118576,171.841139 10.1930629,166.214849 C11.3067094,154.861422 25.4307145,128.096719 30.5581696,125.642323 C35.3999606,123.324667 58.0328346,119.975577 61.5692433,115.518082 C63.4593085,113.135735 69.1739663,107.165948 69.4609375,98 C69.5520753,95.0890298 68.2981691,89.6847329 65.6992188,81.7871094 C59.6332928,77.4819606 55.9816001,74.4487575 54.7441406,72.6875 C52.0073938,68.7923293 47.1215689,66.7570628 45.346204,64.6679687 C41.9037303,60.6171668 41.8256794,59.4429285 41.4160156,57.6835937 C40.2856464,52.8291298 37.3064799,40.687244 37.0745397,27.4861099 C36.8314373,13.6496739 40.7914472,18.4674984 44.346204,14.6125908 C47.6999033,10.9757172 51.1979417,7.07479332 56.9453125,4.14257812 C65.271765,-0.105442632 74.6601416,-0.350307916 84,0.4609375 C93.0735495,1.24905175 103.153875,2.89471735 107.637765,12.1887549 C112.290552,21.8328746 115.916349,25.130682 117.539569,46.1792608 C117.90646,50.9367968 118.539514,58.6637492 117.539569,62.6679688 C117.039884,64.6689266 115.305026,68.8677306 114.486901,69.6556164 C112.811025,71.2695488 110.785755,72.159234 109.716789,73.6875 C108.591017,75.2969797 108.22014,79.8242188 106.637765,79.8242188 C105.582849,79.8242188 103.684714,82.1744792 100.943359,86.875 L109.716789,111.20047 C117.816006,114.296894 128.984935,120.765841 137.481392,121.71357 C172.702935,125.642323 172.702935,188.653666 174.350903,201.019579 C175.272614,207.935858 177.822313,223.595998 182,248 L161.717552,248 L0,249 L3.96544903,249 Z" fill="#E5B296"></path>
                    <path d="M71.6957753,219.406618 L72.1714122,218.526976 C76.3119282,220.765822 76.1728725,220.70924 77.4911144,220.578054 C77.4560761,220.581541 80.094824,220.234222 81.4528593,220.110726 C83.8993305,219.888249 86.8709433,219.763672 90.7148438,219.763672 L90.7148438,220.763672 C86.9001225,220.763672 83.9585581,220.886989 81.5434235,221.106616 C80.2108077,221.227801 77.5777204,221.574375 77.5901414,221.573139 C75.9822165,221.733153 76.0478687,221.759867 71.6957753,219.406618 Z M94.4679399,220.357787 L94.5867476,219.364869 L111.121904,221.343385 L111.003096,222.336302 L94.4679399,220.357787 Z M75.2010909,237.060969 L75.5957841,236.142156 C80.1470683,238.097244 79.7055603,237.936686 80.7726435,237.911064 C81.1170609,237.902794 83.188637,237.739902 83.9600717,237.695234 C85.9867808,237.577881 88.3596881,237.524984 91.4543374,237.556667 L91.4441001,238.556614 C88.3716629,238.525159 86.021406,238.577551 84.0178779,238.693562 C83.2704178,238.736842 81.1734859,238.901728 80.7966479,238.910776 C79.5088676,238.941698 79.9677222,239.108564 75.2010909,237.060969 Z M95.7199973,238.174205 L95.8385964,237.181263 L109.983128,238.870716 L109.864529,239.863659 L95.7199973,238.174205 Z M93.8668466,237.032322 L92.8675284,237.069241 L92.3792471,223.852444 L93.3785654,223.815525 L93.8668466,237.032322 Z" id="ab-lines" fill="#000000" fill-rule="nonzero" opacity="0.1"></path>
                    <path d="M24.1484375,249 L32.2773438,178.744141 C36.3539847,198.637727 38.9854952,213.711295 40.171875,223.964844 C41.3582548,234.218392 42.4363798,242.563444 43.40625,249 L24.1484375,249 Z" id="armpit-l" fill="#E6E6E6"></path>
                    <path d="M141.600586,250 L154.334961,175.996094 C156.509697,186.951123 157.84303,197.395134 158.334961,207.328125 C158.826892,217.261116 159.381905,231.818408 160,251 L141.600586,250 Z" id="armpit-r" fill="#E6E6E6" transform="translate(150.800293, 213.498047) scale(-1, 1) translate(-150.800293, -213.498047) "></path>
                    <path d="M41,188.696002 L41.5684894,188.239408 C42.8343513,189.000572 43.5633177,189.745953 44.6242174,191.162236 C44.7007951,191.264601 44.7007951,191.264601 44.7769217,191.366594 C46.1357648,193.186778 46.9491308,193.949643 48.7212067,194.730123 C59.8299391,199.622771 71.2915605,196.460843 82.2528932,189.833535 L82.8231641,190.289055 C71.5963155,197.076895 59.7271771,200.292343 48.2561125,195.240112 C46.3203044,194.387519 45.4299792,193.552474 44.0057077,191.644647 C43.9296095,191.542693 43.9296095,191.542693 43.8535583,191.441032 C42.8394053,190.087154 42.1625168,189.395025 41,188.696002 Z M137.465853,188.696002 C136.419641,189.325091 135.810084,189.948373 134.895313,191.169577 C134.826571,191.261467 134.826571,191.261467 134.757764,191.353653 C133.466786,193.082932 132.658057,193.841448 130.899833,194.615827 C120.510198,199.191761 109.237392,196.185961 99.0732175,190.040622 L99.6434883,189.585102 C109.542147,195.569909 120.407436,198.522188 130.434739,194.105837 C132.02923,193.403571 132.761,192.717236 133.98655,191.0756 C134.055386,190.983375 134.055386,190.983375 134.124654,190.890782 C135.086171,189.607171 135.747806,188.930639 136.897364,188.239408 L137.465853,188.696002 Z" id="breast" fill="#000000" fill-rule="nonzero" opacity="0.15"></path>
                    <g id="nipples" opacity="0.5" transform="translate(53.000000, 180.000000)">
                        <g id="left">
                            <path d="M4.5,9 C2.01471863,9 0,6.98528137 0,4.5 C0,2.01471863 2.01471863,0 4.5,0 C6.98528137,0 9,2.01471863 9,4.5 C9,6.98528137 6.98528137,9 4.5,9 Z" id="la" fill="#000000" fill-rule="nonzero" opacity="0.3"></path>
                            <circle id="ln" fill="#E5B296" opacity="0.400000006" cx="4.5" cy="4.5" r="1.22727273"></circle>
                            <path d="M4.5,6.54545455 C3.37032665,6.54545455 2.45454545,5.62967335 2.45454545,4.5 C2.45454545,3.37032665 3.37032665,2.45454545 4.5,2.45454545 C5.62967335,2.45454545 6.54545455,3.37032665 6.54545455,4.5 C6.54545455,5.62967335 5.62967335,6.54545455 4.5,6.54545455 Z M4.5,5.72727273 C5.17780401,5.72727273 5.72727273,5.17780401 5.72727273,4.5 C5.72727273,3.82219599 5.17780401,3.27272727 4.5,3.27272727 C3.82219599,3.27272727 3.27272727,3.82219599 3.27272727,4.5 C3.27272727,5.17780401 3.82219599,5.72727273 4.5,5.72727273 Z" id="lno" fill="#000000" fill-rule="nonzero" opacity="0.3"></path>
                        </g>
                        <g id="right" transform="translate(65.000000, 0.000000)">
                            <path d="M4.5,9 C2.01471863,9 0,6.98528137 0,4.5 C0,2.01471863 2.01471863,0 4.5,0 C6.98528137,0 9,2.01471863 9,4.5 C9,6.98528137 6.98528137,9 4.5,9 Z" id="ra" fill="#000000" fill-rule="nonzero" opacity="0.3"></path>
                            <circle id="rn" fill="#E5B296" opacity="0.400000006" cx="4.5" cy="4.5" r="1.22727273"></circle>
                            <path d="M4.5,6.54545455 C3.37032665,6.54545455 2.45454545,5.62967335 2.45454545,4.5 C2.45454545,3.37032665 3.37032665,2.45454545 4.5,2.45454545 C5.62967335,2.45454545 6.54545455,3.37032665 6.54545455,4.5 C6.54545455,5.62967335 5.62967335,6.54545455 4.5,6.54545455 Z M4.5,5.72727273 C5.17780401,5.72727273 5.72727273,5.17780401 5.72727273,4.5 C5.72727273,3.82219599 5.17780401,3.27272727 4.5,3.27272727 C3.82219599,3.27272727 3.27272727,3.82219599 3.27272727,4.5 C3.27272727,5.17780401 3.82219599,5.72727273 4.5,5.72727273 Z" id="rno" fill="#000000" fill-rule="nonzero" opacity="0.3"></path>
                        </g>
                    </g>
                    <path d="M41.7356188,166.755754 C41.6765791,166.640701 41.6171944,166.524757 41.5574645,166.407922 L35.4256851,123.890897 L39.1270732,122.922807 C42.6814791,143.229762 45.6448442,158.696643 48.0171684,169.323452 C50.7499723,172.155977 55.0742055,175.581774 62.4033399,177.52989 C72.2129637,180.137331 81.3140251,181.330045 89.706524,181.108032 C97.0146328,181.330045 105.573499,180.137331 115.383123,177.52989 C125.453067,174.853255 129.858433,168.463328 132.250474,164.925246 L131.24704,120.227539 L134.786217,120.722281 L135.887776,163.723566 L135.515507,164.163463 C135.656883,165.001986 135.681497,165.95604 135.887776,166.407922 C137.306069,169.514881 137.601057,169.697497 138.268066,170.884303 C138.953633,172.104128 140.867142,173.200451 142.874512,177.52989 C146.712961,185.808553 145.44343,187.576166 144.456055,192.117676 C142.015146,203.344828 129.853881,203 115.383123,203 C102.148366,203 91.2054404,199.541333 89.4326423,189.250426 C87.5024407,199.541333 75.6380967,203 62.4033399,203 C48.9223302,203 39.6382147,202.578863 35.4256851,193.401855 C35.2474881,193.013653 32.3438037,185.811227 33.769043,179.126465 C34.0943422,177.600722 38.2526867,172.259291 39.1270732,170.884303 C40.7443372,168.341127 40.6174113,168.641813 41.7356188,166.755754 Z" id="bra" fill="#414141"></path>
                    <path d="M83.0956853,137.078468 C82.3074678,135.87879 80.4020755,132.797821 80.0863548,132.351398 C79.4666916,131.475204 79.06032,131.164021 78.3642506,131.009164 C78.1586801,130.96343 66.4657699,130.066101 60.5837796,129.045839 L60.7567961,128.078468 C66.5329892,129.752166 78.3131771,129.984425 78.6803076,130.066101 C79.7300838,130.299648 80.3627168,130.784094 81.1259745,131.863328 C81.4618158,132.338201 83.3794499,135.438965 84.1535127,136.617099 L83.0956853,137.078468 Z" id="collarbone-l" fill="#000000" fill-rule="nonzero" opacity="0.129999995"></path>
                    <path d="M95.4153016,137.078468 L94.4808652,136.617099 C95.1646368,135.438965 96.8585871,132.338201 97.155254,131.863328 C97.8294809,130.784094 98.38832,130.299648 99.3156443,130.066101 C99.6399506,129.984425 110.04603,129.752166 115.148455,128.078468 L115.30129,129.045839 C110.105408,130.066101 99.7764262,130.96343 99.5948347,131.009164 C98.9799588,131.164021 98.6209886,131.475204 98.0736065,132.351398 C97.7947133,132.797821 96.1115768,135.87879 95.4153016,137.078468 Z" id="collarbone-r" fill="#000000" fill-rule="nonzero" opacity="0.129999995"></path>
                    <path d="M91.9332817,109.155999 L91.0989448,108.604744 C92.9357899,105.824637 93.3618118,105.134893 93.7808162,104.192995 C93.9995997,103.701183 94.1744836,103.198442 94.3562829,102.54516 C94.5197006,101.957931 94.6458134,101.434825 95.0046164,99.8870828 C95.2761246,98.7158975 95.3671758,97.7306816 95.4759208,95.4730147 C95.5875751,93.1549475 95.6822269,92.1307719 95.9719015,90.8812234 L96.9460672,91.1070578 C96.674559,92.2782432 96.5835078,93.263459 96.4747628,95.5211259 C96.3631085,97.8391931 96.2684567,98.8633687 95.9787821,100.112917 C95.6162181,101.676883 95.488592,102.206266 95.3196744,102.813259 C95.1254879,103.511053 94.9347759,104.059295 94.6944897,104.599444 C94.2432564,105.613791 93.8072007,106.319779 91.9332817,109.155999 Z" id="neck-line" fill="#000000" fill-rule="nonzero" opacity="0.100000001"></path>
                </g>
                <g id="face" transform="translate(36.000000, 29.000000)">
                    <path d="M9.75727525,41.4371324 L10.2427247,40.5628676 C12.2386488,41.6711365 14.6103691,43.5011541 17.8146068,46.3184029 C19.609238,47.8962891 26.2904084,54.0225695 26.8900182,54.5635668 C30.8978123,58.1795948 34.050369,60.8249147 37.1043497,63.0474324 C42.5819122,67.0336983 47.2497158,69.235875 51.3108123,69.4813822 C57.4127102,69.8502627 62.3361088,65.5012585 69.8640476,55.0971174 C77.126686,45.0596402 77.122053,45.0657036 79.6709526,42.837865 L80.3290474,43.5908 C77.8685188,45.7413989 77.8532926,45.7613257 70.6742151,55.6833158 C62.9403009,66.3721293 57.8394468,70.877886 51.2504691,70.4795599 C46.9572257,70.2200186 42.1340366,67.9445342 36.5159285,63.855987 C33.4281165,61.6088488 30.251691,58.9435005 26.2201314,55.3060301 C25.6136841,54.7588636 18.9395958,48.6390772 17.1543066,47.0694046 C14.0001843,44.2962186 11.6744066,42.5016503 9.75727525,41.4371324 Z" id="jaw" fill="#000000" fill-rule="nonzero" opacity="0.3"></path>
                    <path d="M46.5392249,55.2118823 L46.2185876,54.2646802 C47.2675137,53.9096083 48.3349349,53.8345116 50.2856448,53.8630908 C50.7138069,53.8693636 51.1470908,53.89699 51.6040536,53.945222 C52.3281133,54.0216458 52.8519513,54.1066938 54.2660307,54.3603971 L54.089438,55.3446811 C52.7002768,55.0954485 52.1903656,55.0126616 51.4990876,54.9396978 C51.070996,54.8945132 50.6676315,54.8687944 50.2709958,54.8629835 C48.4339656,54.8360698 47.4435886,54.9057461 46.5392249,55.2118823 Z" id="jaw-line" fill="#000000" fill-rule="nonzero" opacity="0.3" transform="translate(50.242309, 54.601129) rotate(-3.000000) translate(-50.242309, -54.601129) "></path>
                    <path d="M48.9123929,48.7835852 C53.83764,48.7835852 59.4739249,45.9654153 59.4739249,45.4495706 C59.4739249,44.7690166 55.093248,44.3348729 48.9123929,44.3348729 C42.7315378,44.3348729 37.4178916,45.0744472 37.4178916,45.7550012 C37.4178916,46.3439465 44.5634161,48.7835852 48.9123929,48.7835852 Z" id="lips" fill="#990000" opacity="0.100000001"></path>
                    <path d="M38.9829662,45.3797648 C43.4649478,45.6496116 46.8561839,45.7844838 49.1541849,45.7844838 C51.4603824,45.7844838 54.6408878,45.6486233 58.6937276,45.3767696 C58.5431785,45.3489401 58.3839698,45.319314 58.2124248,45.2872362 C54.2086031,44.5385485 53.130355,44.3693037 51.3219964,44.2992514 C51.0010062,44.2868169 50.8121414,44.3444691 50.428672,44.5363878 C50.4104892,44.5454932 50.4104892,44.5454932 50.3920676,44.5547228 C49.9254333,44.7884416 49.6511255,44.8796311 49.207895,44.8884516 C48.8612179,44.8953506 48.5454945,44.8301951 47.7070065,44.6151766 C47.6810242,44.6085145 47.6810242,44.6085145 47.6550838,44.6018697 C46.9323043,44.4167974 46.5842136,44.3503064 46.3305708,44.3671494 C43.9901986,44.5225603 41.5861875,44.8542379 38.9829662,45.3797648 Z M58.5272317,46.0056907 C54.5621512,46.2689281 51.4384256,46.4006097 49.1541849,46.4006097 C46.8113588,46.4006097 43.354488,46.2620624 38.7809947,45.9850738 C40.4040467,47.0431325 42.8429517,48.2769509 46.3305708,48.508544 C46.5842136,48.525387 51.0010062,48.5888765 51.3219964,48.576442 C53.5293925,48.4909318 56.5802255,47.0511313 58.5272317,46.0056907 Z M38.5467898,44.8370626 C41.2920211,44.2711965 43.8194706,43.9161042 46.2804223,43.7526862 C46.6478793,43.7282854 47.0289703,43.80108 47.8416108,44.0091618 C47.8677268,44.0158516 47.8677268,44.0158516 47.8937894,44.0225343 C48.648476,44.2160631 48.9456673,44.2773941 49.1928293,44.2724755 C49.4988406,44.2663858 49.6828017,44.2052307 50.0604825,44.0160652 C50.0787734,44.006901 50.0787734,44.006901 50.0972796,43.9976337 C50.5811414,43.7554706 50.8765308,43.6653011 51.3513034,43.6836929 C53.2116873,43.7557604 54.3057175,43.9274824 58.3510761,44.6839373 C58.5302585,44.7174432 58.6958774,44.7482544 58.8521507,44.7771225 L58.7327072,44.6521626 L59.2500215,44.2498339 L60.476042,45.532477 L60.0438608,45.8685954 L60.0520772,45.8801649 C60.0230433,45.8969416 59.9933578,45.9140429 59.9630375,45.9314539 L59.9587276,45.9348057 C58.1583498,46.9674182 54.1344674,49.0841863 51.3513034,49.1920005 C50.8765308,49.2103923 46.6478793,49.1474079 46.2804223,49.1230072 C42.0778232,48.8439362 39.3649078,47.2045925 37.6368614,45.9766114 L37.4236232,46.1996978 L36.9063089,45.797369 L38.1323293,44.5147259 L38.5467898,44.8370626 Z" id="mouth-outline" fill="#000000" fill-rule="nonzero" opacity="0.3"></path>
                    <path d="M53.1208498,37.5990134 C52.7943581,38.4607064 51.8834782,38.8672372 50.214655,39.1062613 C46.9008387,39.5808963 45.3590494,39.1588538 44.5155899,37.6501089 C44.3942433,37.6600138 44.2166965,37.6794081 43.8491965,37.7205993 C43.4683203,37.7615385 43.1710664,37.786579 42.8752759,37.7985287 C42.3010988,37.8217249 41.8263555,37.7889948 41.4356395,37.6764157 C40.2764362,37.342408 39.7501719,36.0173354 39.9863407,35.2866772 C40.175616,34.7010983 40.2871581,34.3979502 40.412756,34.1561863 C40.7829574,33.4435848 41.0610876,33.3796532 42.1972495,33.4569146 C42.8777149,33.5031876 43.4321692,33.5012364 44.2066669,33.4171229 L44.3006872,34.3698484 L44.5847908,34.2589256 C44.6870249,34.5470922 44.7666605,34.8401317 44.8589713,35.2412407 C44.8783383,35.3253941 44.8946162,35.3978003 44.9288204,35.5509698 C45.037326,36.0362381 45.1548193,36.4468163 45.3045612,36.788636 C45.327637,36.8247642 45.3462454,36.8644332 45.359395,36.9076857 C45.9668546,38.1613671 47.0935899,38.4058174 50.0680462,37.9797886 C52.0635824,37.6939697 52.3405096,37.4313073 52.1151407,36.0541924 C51.9362623,34.9611566 49.2678231,26.7221951 48.7769696,25.0757299 C48.2036862,23.1527705 47.9042133,21.2098594 47.5370904,17.575019 C47.5696613,17.8975 47.2571424,14.7444754 47.1595035,13.822108 C46.9965658,12.2828799 46.8324703,10.9093349 46.6393087,9.51380654 L47.7118266,9.35043417 C47.9068932,10.7597255 48.0724578,12.1455671 48.2366478,13.6966251 C48.3347798,14.6236511 48.6477622,17.7813513 48.6148232,17.4552267 C48.9747581,21.0188995 49.2656065,22.9058567 49.8113289,24.7363684 C50.1344029,25.8200524 51.5767378,30.2988529 52.4706129,33.2728363 C52.9929854,33.3080763 53.4367424,33.3007294 53.9530437,33.2656198 C55.0892056,33.1883584 55.3673358,33.25229 55.7375371,33.9648915 C55.8631351,34.2066554 55.9746772,34.5098035 56.1639525,35.0953825 C56.4001213,35.8260407 55.873857,37.1511133 54.7146537,37.4851209 C54.3239377,37.5977 53.8491944,37.6304301 53.2750173,37.6072339 C53.2302087,37.6054237 53.1788195,37.6026835 53.1208498,37.5990134 Z M53.2545204,36.4809587 C53.2770429,36.4736559 53.297777,36.4703871 53.3167224,36.4711525 C53.7896054,36.4902565 54.1654162,36.4643471 54.4276133,36.3887988 C54.9367613,36.2420952 55.1867632,35.6126194 55.1375859,35.4604748 C54.968649,34.9378184 54.8713747,34.6734474 54.7859177,34.5089509 C54.6962541,34.3363573 54.756793,34.3502729 54.023149,34.4001622 C53.6007414,34.4288868 53.218979,34.4404301 52.8114719,34.4278186 C53.008705,35.1128517 53.1447639,35.6264711 53.1832794,35.8618198 C53.2194238,36.0826799 53.243394,36.2886895 53.2545204,36.4809587 Z M44.4616299,37.550302 C44.39323,37.4194933 44.3296006,37.2809755 44.2701037,37.1346359 C44.2574556,37.3294424 44.3446103,37.467109 44.4616299,37.550302 Z M44.0663661,36.5531115 C43.9962004,36.3212567 43.9325563,36.0738579 43.8736936,35.8106071 C43.8396174,35.6580229 43.8240506,35.5887799 43.8054736,35.508059 C43.7224252,35.147197 43.6533197,34.8929054 43.5690896,34.6554865 L43.7073619,34.6015007 C43.1527127,34.6370349 42.6739883,34.6286435 42.1271442,34.5914569 C41.3935002,34.5415676 41.454039,34.5276521 41.3643755,34.7002457 C41.2789185,34.8647422 41.1816442,35.1291132 41.0127073,35.6517696 C40.96353,35.8039141 41.2135319,36.43339 41.7226799,36.5800936 C41.984877,36.6556419 42.3606878,36.6815513 42.8335708,36.6624473 C43.1020068,36.6516027 43.3787634,36.6282889 43.738731,36.5895971 C43.8672981,36.5751251 43.9747919,36.5631077 44.0663661,36.5531115 Z" id="nose" fill="#000000" fill-rule="nonzero" opacity="0.3"></path>
                    <path d="M8.6998776,13.8205527 C8.42710896,13.571319 8.03448756,13.3069012 7.41140092,12.9373873 C7.6884839,13.101708 4.78271809,11.4315011 3.09164951,10.4187565 C3.23108148,11.6490971 3.19716969,14.5072736 3.32675332,15.0010605 C3.55661262,15.8769543 3.75605394,16.6630324 3.93823613,17.4171441 C4.15471638,18.3193336 4.43926426,18.9401706 4.68368573,20.5665842 C4.840149,21.607712 5.57346613,22.4181042 5.90238833,23.0516598 C6.29510255,23.8080888 6.29485526,24.3320005 6.5621242,24.9635841 C7.77624195,27.8326677 10.2168046,29.4359077 12.0648677,29.4771286 C12.7658402,29.4927637 12.7050838,28.7848901 13.4499122,28.566131 L14.1370409,30.5241792 C10.763965,31.5148651 7.41724045,29.535285 5.58408627,25.2033554 C5.06519774,23.9771691 4.27112543,22.9822855 3.92014816,20.6468352 C3.67839943,19.0382064 3.13835376,18.4366557 2.93429058,17.5861219 C2.74651524,16.8087635 2.54803964,16.0264917 2.31913876,15.1542499 C2.17395658,14.6010238 2.23492892,11.0302316 2.01981863,10.1822553 C1.61597914,8.59029839 1.48292691,5.67836517 1.48292691,5.07407179 C1.48292691,4.20185151 2.18293777,5.85339709 3.17234408,6.18712884 C3.73621372,6.37732492 4.20788113,6.62664779 5.55420781,7.3970473 C5.60683284,7.42715631 5.60683284,7.42715631 5.65939732,7.45720218 C5.95979321,7.62885144 6.16879194,7.74663108 6.37310286,7.85848703 C7.29615907,8.36384097 7.57348132,8.20691868 10.0464009,10.2727003 C10.6178309,10.7500508 11.0371505,11.0919092 11.4490335,11.4120206 C11.6977204,11.6047412 11.7496004,11.6387176 12.2130152,11.928964 C12.3119742,11.9909441 12.3868647,12.0391377 12.4613539,12.0894111 C12.8513391,12.3526156 13.1652719,12.6376964 13.5210244,13.0771069 L12.6462581,13.4873994 C12.3430445,13.1128828 12.094057,12.8867784 11.7796426,12.6745774 C11.7162046,12.6317625 11.6501588,12.5892606 11.5601225,12.532869 C11.0654402,12.2230391 11.0002811,12.1803661 10.7514143,11.987549 C10.7331676,11.9734044 10.7331676,11.9734044 10.7149253,11.9592339 C10.2926534,11.6310483 9.97526153,11.7453332 9.39622079,11.2616249 C7.00090517,9.26067066 6.60797335,8.95045691 5.77310761,8.4933854 C5.56187355,8.37773918 5.3480351,8.25723215 5.0425003,8.08264647 C4.98957983,8.05239711 4.98957983,8.05239711 4.93674976,8.02217078 C3.67382944,7.29949833 3.21496176,7.05694138 2.7560368,6.90214368 C2.38596996,6.77731826 2.4501991,6.75435133 2.4501991,6.99746872 C2.4501991,7.489434 2.6084246,8.33897813 2.93660131,9.66641744 L3.02870356,9.48786917 C4.58609177,10.434986 8.33391441,12.4930258 8.04292839,12.3204602 C9.16319058,12.9848178 9.66319138,13.3828132 10.0181555,13.9439858 C10.2308792,14.2802868 11.7618463,15.8090438 12.3223602,18.4120126 C12.6593422,19.9769224 12.7698641,26.1954853 13.1095223,27.2105158 L12.6028509,26.2882867 C12.2564694,25.2531645 11.5929981,20.6706913 11.205681,19.0227252 C10.7040186,16.8882402 9.84296797,15.416683 9.38355302,14.7147606 L8.29249026,20.4886607 L7.2754374,20.3773215 L8.51819305,13.8006633 L8.6998776,13.8205527 Z" id="ear" fill="#000000" fill-rule="nonzero" opacity="0.3" transform="translate(7.809984, 17.798844) rotate(6.000000) translate(-7.809984, -17.798844) "></path>
                    <g id="eye-l" transform="translate(32.151951, 9.986659) rotate(-5.000000) translate(-32.151951, -9.986659) translate(20.151951, 1.986659)">
                        <path d="M12.7035848,14.9798565 C15.4471703,14.9798565 17.9779693,14.6646921 20.2959818,14.0343635 C16.9419217,11.0419374 13.893099,9.54572444 11.1495135,9.54572444 C8.40592802,9.54572444 6.01341982,10.1441591 3.97198889,11.3410283 C7.04946736,13.7669137 9.95999933,14.9798565 12.7035848,14.9798565 Z" id="eye-white" fill="#FFFFFF" opacity="0.800000012"></path>
                        <path d="M12.4643287,14.5000481 C14.4311455,14.5000481 16.0255655,12.8819511 16.0255655,10.8859272 C16.0255655,10.6136371 14.5642358,10.1755641 11.6415763,9.57170804 C9.81592006,9.11717158 8.90309196,9.55524463 8.90309196,10.8859272 C8.90309196,12.8819511 10.497512,14.5000481 12.4643287,14.5000481 Z" id="iris" fill="#373737" opacity="0.700000048"></path>
                        <path d="M8.70445404,9.88859201 C7.29935727,10.1455488 5.82638407,10.6158303 4.12632866,11.297871 C7.99335571,14.8228284 13.4198272,15.8454699 20.039594,13.8009872 C18.9676802,12.789298 18.0689851,12.0931559 17.3486241,11.7139346 C17.0160455,11.5388545 16.5518729,11.3417007 15.9568533,11.1228804 C16.0595075,11.6484849 16.0023276,12.1931169 15.7821888,12.6224555 C15.13093,13.8926106 13.9609355,14.732074 12.691498,14.766177 C9.9395383,14.8401075 7.66644326,12.4352403 8.70445404,9.88859201 Z M9.05910923,9.82805231 L9.29947578,9.93690227 C8.26862349,12.1304052 10.2375246,14.2761365 12.6760095,14.2106274 C13.7215562,14.1825391 14.7132929,13.4709746 15.2764754,12.3725952 C15.4829889,11.9698303 15.4950811,11.3965264 15.3063236,10.8927795 C14.9162058,10.7595598 14.4835678,10.6193306 14.0085481,10.4721676 C13.9004498,10.5341639 13.827431,10.5647742 13.7087439,10.5926355 L13.637038,10.3826934 L13.6703432,10.3683957 C13.0696711,10.1858056 12.4065677,9.99301975 11.6812817,9.79017351 C11.6956071,9.85199345 11.7136477,9.92910763 11.7232601,9.96713171 L11.5034635,10.020673 C11.4854084,9.94925186 11.4403393,9.75214176 11.4398437,9.75008092 C11.4315928,9.71577267 11.4236569,9.68560804 11.4155617,9.65855662 C10.6281561,9.64580541 9.85243733,9.70239999 9.05910923,9.82805231 Z M3.89733007,11.3904576 C3.8582153,11.4063918 3.81897951,11.4224354 3.77962082,11.4385884 L3.56123678,10.9258399 C10.0855663,8.24822342 13.3866908,8.50944634 21.3674207,11.7509425 L21.1509613,12.2644768 C18.4699331,11.175536 16.3369422,10.4292938 14.4369188,10.0226525 C15.9237387,10.4906133 16.9820122,10.8903064 17.6161966,11.2241615 C18.5942635,11.7390476 19.8371604,12.7653584 21.3553863,14.3059133 L20.9484751,14.692329 C20.7947717,14.5363651 20.6440575,14.3858839 20.4963442,14.2408886 C13.5157878,16.4768234 7.74603866,15.4089182 3.66361979,11.6340055 L3.89733007,11.3904576 Z M14.2596423,11.641204 L14.7139586,11.7431122 L14.6813662,11.9623866 C14.5244048,11.9523391 14.4174587,11.9260747 14.198926,11.8556178 L13.7446097,11.7537097 L13.7772021,11.5344352 C13.9341635,11.5444827 14.0411095,11.5707471 14.2596423,11.641204 Z M13.3468402,13.3408485 L13.1369489,13.4243228 L12.7473008,12.4802404 L12.9571921,12.396766 L13.3468402,13.3408485 Z M13.8321296,11.1124682 L13.846866,10.8906363 L14.8971466,10.9578672 L14.8824102,11.1796991 L13.8321296,11.1124682 Z M9.54606962,11.0939475 L9.56080603,10.8721156 C9.70175933,10.8811383 9.8142973,10.8802251 10.0682871,10.8719413 C10.3296411,10.8634173 10.4472334,10.8624631 10.5980247,10.8721156 L10.5832883,11.0939475 C10.442335,11.0849247 10.329797,11.085838 10.0758072,11.0941217 C9.81445316,11.1026457 9.69686093,11.1036 9.54606962,11.0939475 Z M9.99218945,12.2291749 L9.91858593,12.0189408 C9.94147139,12.0111728 9.94147139,12.0111728 9.96373973,12.0034257 C10.0837562,11.9614131 10.188765,11.9183465 10.2994769,11.8663688 C10.4138677,11.812664 10.4097465,11.81481 10.7801453,11.6188875 L10.8875712,11.8145873 C10.5119912,12.0132504 10.5165567,12.010873 10.3971875,12.0669152 C10.2795156,12.1221605 10.1672921,12.1681859 10.0398064,12.2128133 C10.0162881,12.2209951 10.0162881,12.2209951 9.99218945,12.2291749 Z M12.1966912,13.5105957 L11.9796182,13.4472454 C12.0359364,13.261293 12.0627534,13.1453278 12.0759836,13.0313208 C12.0874473,12.9325366 12.0893446,12.8571524 12.0892523,12.6125039 C12.0892448,12.5924431 12.0892448,12.5924431 12.0892423,12.5716761 L12.3157054,12.5716761 C12.3157079,12.5923765 12.3157079,12.5923765 12.3157154,12.6124215 C12.3158111,12.8661347 12.3137977,12.946128 12.3009915,13.0564818 C12.2860338,13.1853753 12.2564714,13.3132124 12.1966912,13.5105957 Z M14.2701672,12.6050854 L14.1219162,12.7731341 L13.3849851,12.1466856 L13.5332361,11.9786369 L14.2701672,12.6050854 Z M10.8863663,13.0381044 L10.7096129,12.8991291 L11.2291898,12.2623687 L11.4059432,12.401344 L10.8863663,13.0381044 Z M10.1230356,9.95070377 L10.2335061,9.75664412 L11.0491547,10.2040589 L10.9386842,10.3981185 L10.1230356,9.95070377 Z M12.1652135,12.0724304 C11.3835128,12.0724304 10.9062175,11.7390324 10.9062175,11.1251595 C10.9062175,10.5112866 11.6188359,10.1557722 12.4005366,10.1557722 C13.1822373,10.1557722 13.4242095,10.5112866 13.4242095,11.1251595 C13.4242095,11.7390324 12.9469142,12.0724304 12.1652135,12.0724304 Z" id="eye" fill="#000000" fill-rule="nonzero" opacity="0.5"></path>
                        <path d="M6.27601205,9.9947968 L6.24970229,10.0322838 C5.66700738,9.85611395 5.26899092,9.68607638 5.05565289,9.52217106 C4.84231486,9.35826573 4.68892452,9.21726547 4.59548187,9.09917028 L4.45074116,8.32985803 C4.74560521,8.78869115 5.00492592,9.10407059 5.22870329,9.27599635 C5.39168579,9.40121406 5.64232018,9.53216334 5.98060646,9.66884418 L5.38061931,9.0068141 L5.10574435,8.14159538 C5.40348153,8.62533996 5.63809454,8.97313914 5.80958338,9.18499293 C5.98107221,9.39684671 6.21952854,9.63346766 6.52495235,9.89485577 L6.33665367,10.0617092 L6.27601205,9.9947968 Z M5.08776877,10.4593721 L4.97494074,10.6889763 C4.38619438,10.5110254 3.95980216,10.351033 3.69576408,10.2089991 C3.43172599,10.0669653 3.23764984,9.94192313 3.11353562,9.83387278 L2.82118069,9.24010733 C3.28204368,9.58478506 3.64100369,9.82626322 3.89806072,9.9645418 C4.15511774,10.1028204 4.5516871,10.2677638 5.08776877,10.4593721 Z M7.03075686,9.74670041 L6.83642774,9.90580472 L5.92649834,8.88513981 L5.6568517,7.90973533 C5.93886556,8.4746732 6.15860287,8.86240775 6.31606364,9.07293898 C6.47352441,9.2834702 6.71175548,9.50805734 7.03075686,9.74670041 Z M8.32757187,9.31721848 L8.13729713,9.48159962 C7.77503465,9.18715277 7.51882798,8.94479985 7.36867712,8.75454086 C7.21852626,8.56428187 7.07878362,8.40340944 6.94944922,8.27192356 L6.80751684,7.39112807 C7.00740781,7.85407597 7.15256173,8.15459082 7.2429786,8.29267263 C7.359847,8.47115038 7.49215968,8.47144222 7.58006329,8.58282654 C7.76997868,8.82347192 8.0191482,9.06826923 8.32757187,9.31721848 Z M9.63779495,9.40085245 L9.45006057,9.56840051 C9.07426716,9.34573813 8.80640951,9.13632918 8.64648761,8.94017365 C8.4865657,8.74401813 8.39662794,8.6330853 8.3766743,8.60737518 L8.26111861,7.7122615 C8.47977615,8.27091133 8.67290077,8.65301777 8.84049246,8.85858084 C9.00808415,9.0641439 9.27385165,9.2449011 9.63779495,9.40085245 Z M10.7396334,9.38563317 L10.5564948,9.55865966 C10.1821223,9.30381635 9.92256644,9.0925429 9.77782707,8.92483933 C9.63308769,8.75713576 9.51179729,8.61993674 9.41395585,8.51324226 L9.45645446,7.89886634 C9.55057842,8.24649509 9.62979818,8.47576872 9.69411371,8.58668721 C9.77672457,8.72915778 9.92241868,8.76832313 9.99770409,8.85555324 C10.1609081,9.04465103 10.4082179,9.22134434 10.7396334,9.38563317 Z M11.7159611,9.50542782 L11.5127673,9.65190858 C11.0398275,9.35315597 10.7362969,9.10194719 10.6021755,8.89828223 C10.4680541,8.69461728 10.3780547,8.53732232 10.3321775,8.42639735 L10.4898926,7.64362867 C10.5418715,8.05046549 10.589689,8.31848471 10.6333448,8.44768633 C10.6956281,8.63201654 10.7998385,8.68082767 10.8716821,8.78992296 C11.019061,9.01371963 11.3004874,9.25222125 11.7159611,9.50542782 Z M12.2543981,9.64056529 L12.0134039,9.69603026 C11.8008109,9.32613436 11.6754836,9.05066892 11.6374221,8.86963393 C11.5993605,8.68859895 11.5859472,8.54258031 11.5971819,8.43157801 L11.9284827,8.09038964 C11.8395781,8.28786968 11.7912521,8.43406949 11.7835049,8.52898907 C11.7700227,8.69417259 11.8455532,8.88841744 11.866416,8.98764912 C11.9052616,9.17241322 12.034589,9.39005194 12.2543981,9.64056529 Z M12.7416337,9.77122071 L12.4948781,9.77161111 C12.3551885,9.52191284 12.2852475,9.33050162 12.2850551,9.19737744 C12.2848627,9.06425326 12.3388216,8.96098119 12.446932,8.88756124 L12.7400674,8.68747182 C12.6021223,8.93030739 12.5332284,9.10612727 12.5333857,9.21493148 C12.5335429,9.32373569 12.6029589,9.50916543 12.7416337,9.77122071 Z M13.3347879,9.76673497 L13.088032,9.76676831 C12.9641356,9.5310093 12.9021804,9.35575317 12.9021662,9.24099992 C12.9021521,9.12624666 12.9811606,9.03895298 13.1391918,8.97911888 L13.3346674,8.7903903 C13.2569035,8.99903932 13.2180282,9.15668541 13.2180413,9.26332856 C13.2180545,9.36997171 13.25697,9.53777385 13.3347879,9.76673497 Z M4.1810073,12.4214078 L4.34728912,12.6871383 C4.19076407,12.7149372 4.09708292,12.7363735 4.06624566,12.7514474 C3.84401496,12.8600783 3.67409106,12.9221356 3.55647399,12.9376191 C3.41437568,12.9563255 3.29357182,12.9172025 3.19406241,12.8202502 L2.79141419,12.6417067 C3.15637,12.6881304 3.417322,12.7010116 3.5742702,12.6803503 C3.73121841,12.6596891 3.93346411,12.5733749 4.1810073,12.4214078 Z M4.46429507,12.6954093 L4.58801642,12.9187863 C4.42617763,13.0895575 4.28685816,13.2103517 4.17005802,13.2811687 C4.05325788,13.3519857 3.94029499,13.4035057 3.83116935,13.4357284 L3.38895493,13.3473982 C3.72433417,13.2859681 3.95552941,13.2167489 4.08254063,13.1397408 C4.20955186,13.0627327 4.33680334,12.9146222 4.46429507,12.6954093 Z M4.95649094,12.8376609 L5.10115815,13.0468101 C4.94875876,13.2627426 4.81673994,13.4129743 4.70510169,13.4975052 C4.59346345,13.582036 4.49238893,13.6154449 4.40187813,13.5977321 L3.99103431,13.5686903 C4.2801375,13.4810159 4.48025744,13.3951032 4.59139413,13.3109522 C4.70253082,13.2268011 4.82422976,13.0690374 4.95649094,12.8376609 Z M5.21308093,13.3463289 L5.41758586,13.4907985 C5.29433607,13.8131757 5.19816596,14.0278951 5.12907553,14.1349566 C5.0599851,14.2420181 4.92085686,14.3619048 4.71169081,14.4946167 L4.4008904,14.6470866 C4.70765865,14.3691883 4.91327851,14.1492954 5.01774997,13.9874079 C5.12222144,13.8255204 5.18733176,13.6118274 5.21308093,13.3463289 Z M5.63931237,13.4625946 L5.84945777,13.5979134 C5.72581379,14.0023767 5.62415355,14.2723334 5.54447704,14.4077838 C5.46480054,14.5432341 5.26741456,14.7184065 4.95231912,14.933301 L4.67935075,14.9621367 C5.04436691,14.6365524 5.2732316,14.3949538 5.3659448,14.2373411 C5.45865801,14.0797283 5.54978053,13.8214795 5.63931237,13.4625946 Z M6.5679688,13.7867484 L6.74455209,13.8841845 C6.66036672,14.2051625 6.58422093,14.4225578 6.51611473,14.5363704 C6.44800852,14.650183 6.39155416,14.7216562 6.34675166,14.75079 L5.99457165,15.0069759 C6.13763483,14.7656394 6.24556601,14.5841436 6.3183652,14.4624885 C6.3911644,14.3408335 6.4743656,14.1155867 6.5679688,13.7867484 Z M6.84723697,14.0136629 L7.08544024,14.0305011 C7.09204701,14.3532194 7.07738661,14.5628203 7.04145904,14.6593038 C7.00553147,14.7557873 6.97535862,14.800519 6.9509405,14.793499 L6.54922376,14.9042868 C6.69558619,14.7544967 6.78392986,14.6388829 6.81425476,14.5574454 C6.84457966,14.4760079 6.85557373,14.294747 6.84723697,14.0136629 Z M7.63275391,14.2497276 L7.80581046,14.2736961 C7.79061168,14.6041147 7.77587147,14.8240954 7.76158982,14.933638 C7.74730818,15.0431807 7.74118057,15.124873 7.74320701,15.1787151 L7.40437993,15.4297524 C7.51016294,15.2096265 7.57080378,15.0401248 7.58630246,14.9212473 C7.60180114,14.8023698 7.61728496,14.5785299 7.63275391,14.2497276 Z M8.64950409,14.4949807 L8.8664873,14.6179198 C8.86164251,14.824921 8.83605967,14.9731693 8.78973878,15.0626648 C8.74341788,15.1521603 8.61999934,15.2917939 8.41948317,15.4815657 L8.38253725,15.4789541 C8.48447316,15.2580868 8.56195663,15.0964231 8.61498766,14.9939632 C8.6680187,14.8915032 8.67952417,14.7251757 8.64950409,14.4949807 Z M9.52114233,14.8345881 L9.76768433,14.845336 C9.7705237,15.0620545 9.77002883,15.2184892 9.76619971,15.3146402 C9.7623706,15.4107912 9.75157992,15.5377423 9.73382768,15.6954934 L9.5992737,15.685982 C9.56433956,15.5361318 9.54963391,15.3918659 9.55515676,15.2531843 C9.56067961,15.1145028 9.54934147,14.9749707 9.52114233,14.8345881 Z M5.81273922,10.2751802 L5.68978145,10.4990183 C5.14667164,10.3099419 4.76091737,10.1467327 4.53251864,10.0093905 C4.30411992,9.87204832 4.19828821,9.79913559 4.21502352,9.7906523 L3.97399796,9.16949665 C4.27076295,9.54931929 4.52194896,9.80104907 4.72755597,9.92468599 C4.93316298,10.0483229 5.29489073,10.1651543 5.81273922,10.2751802 Z M4.88706279,10.8670069 L4.8163566,11.1143545 C4.16758833,11.1309916 3.71420272,11.0989426 3.45619976,11.0182075 C3.19819681,10.9374723 2.95618335,10.783385 2.73015939,10.5559456 L2.51830234,10.1257665 C2.97509775,10.4818875 3.32465945,10.697863 3.56698745,10.7736931 C3.80931544,10.8495232 4.24934056,10.8806278 4.88706279,10.8670069 Z M7.69253561,9.70856755 L7.4918051,9.85872015 C7.08637547,9.54202504 6.81889196,9.28889373 6.68935458,9.09932624 C6.55981719,8.90975875 6.47586447,8.74461286 6.43749641,8.60388856 L6.41333268,7.83655743 C6.62110191,8.35453883 6.80350228,8.72843099 6.96053379,8.95823392 C7.1175653,9.18803684 7.3615659,9.43814805 7.69253561,9.70856755 Z" id="eye-lashes" fill="#000000" fill-rule="nonzero" opacity="0.400000006" transform="translate(7.926545, 11.543311) rotate(1.000000) translate(-7.926545, -11.543311) "></path>
                        <path d="M2.48169467,5.36183981 L0.903229518,5.36183981 C2.93802972,4.79744087 8.43968687,2.59837348 8.45428319,2.59426985 C9.89530938,2.18913789 10.6684,2.0501494 11.5614516,2.0591183 C12.3389797,2.066927 19.0605065,3.16420055 23.4669845,3.68227911 C19.6254921,3.60954345 17.6601487,3.56776644 17.5709541,3.55694806 C13.1108072,3.01597851 12.2191003,3.06577348 11.5514091,3.05906787 C10.7724221,3.05124452 10.0824886,3.17528278 8.72493178,3.55694806 C8.71908232,3.55859259 4.52635635,4.79470556 2.48169467,5.36183981 Z" id="brow" fill="#000000" fill-rule="nonzero" opacity="0.3" transform="translate(12.185107, 3.710277) rotate(6.000000) translate(-12.185107, -3.710277) "></path>
                    </g>
                    <g id="eye-r" transform="translate(60.006792, 9.162149) scale(-1, 1) rotate(-2.000000) translate(-60.006792, -9.162149) translate(48.006792, 0.662149)">
                        <path d="M11.6524071,15.3433898 C14.3849397,15.3433898 16.9055431,15.042574 19.2142173,14.4409426 C15.8736694,11.584754 12.8371292,10.1566597 10.1045965,10.1566597 C7.37206385,10.1566597 4.98919413,10.7278491 2.95598732,11.870228 C6.02106784,14.1856692 8.91987442,15.3433898 11.6524071,15.3433898 Z" id="eye-white" fill="#FFFFFF" opacity="0.800000012"></path>
                        <path d="M11.4141149,14.8854258 C13.3730081,14.8854258 14.9610049,13.3409966 14.9610049,11.4358465 C14.9610049,11.1759531 13.5055622,10.7578244 10.5946769,10.1814603 C8.77637559,9.74761775 7.86722492,10.1657465 7.86722492,11.4358465 C7.86722492,13.3409966 9.45522165,14.8854258 11.4141149,14.8854258 Z" id="iris" fill="#373737" opacity="0.700000048"></path>
                        <path d="M7.66938723,10.4839174 C6.26995104,10.7291756 4.80291187,11.1780464 3.10970531,11.8290356 C6.96115363,15.1935107 12.365764,16.1695941 18.9588624,14.2181914 C17.8912669,13.2525618 16.9961923,12.5881132 16.2787334,12.2261569 C15.9474946,12.0590477 15.4851919,11.8708698 14.8925695,11.6620119 C14.9948101,12.163687 14.9378606,12.6835232 14.7186086,13.0933151 C14.0699735,14.3056434 12.9046924,15.1068882 11.6403689,15.1394386 C8.89949582,15.2100032 6.63555819,12.9146234 7.66938723,10.4839174 Z M8.02261366,10.4261339 L8.26201186,10.5300282 C7.23531247,12.6236666 9.19628166,14.6717083 11.6249429,14.6091817 C12.6662775,14.5823722 13.6540189,13.9032034 14.2149325,12.8548304 C14.4206141,12.4704023 14.4326575,11.9231994 14.2446604,11.4423869 C13.8561143,11.3152323 13.4252192,11.1813874 12.9521132,11.0409243 C12.8444504,11.1000981 12.7717258,11.1293148 12.6535168,11.1559077 L12.5820998,10.9555237 L12.6152707,10.9418769 C12.0170185,10.7675997 11.3565866,10.5835908 10.6342224,10.3899796 C10.6484902,10.4489851 10.6664581,10.5225885 10.6760317,10.5588814 L10.4571205,10.6099851 C10.4391382,10.5418156 10.3942507,10.3536794 10.3937571,10.3517124 C10.3855394,10.3189661 10.3776355,10.2901748 10.3695729,10.2643549 C9.58533943,10.2521843 8.81274575,10.3062022 8.02261366,10.4261339 Z M2.88162927,11.9174069 C2.84267207,11.9326157 2.80359434,11.9479289 2.76439422,11.9633465 L2.54688997,11.4739421 C9.04493553,8.91823055 12.3327611,9.16756068 20.2813398,12.2614799 L20.0657525,12.7516343 C17.395525,11.7122701 15.2711271,11.0000024 13.3787582,10.6118745 C14.8595882,11.0585302 15.9135984,11.4400263 16.5452279,11.7586819 C17.5193545,12.2501265 18.7572443,13.229712 20.2693538,14.7001295 L19.864082,15.0689527 C19.7109978,14.9200894 19.5608907,14.7764592 19.4137725,14.6380652 C12.461338,16.7722037 6.71483293,15.7529174 2.64886051,12.1498668 L2.88162927,11.9174069 Z M13.2021958,12.1567375 L13.6546819,12.2540061 L13.6222208,12.4632975 C13.4658917,12.4537075 13.3593765,12.4286388 13.1417241,12.3613896 L12.6892381,12.2641211 L12.7216992,12.0548297 C12.8780283,12.0644197 12.9845434,12.0894884 13.2021958,12.1567375 Z M12.293071,13.7790016 L12.0840254,13.8586755 L11.695947,12.9575747 L11.9049927,12.8779008 L12.293071,13.7790016 Z M12.7764054,11.6520737 L12.7910825,11.4403412 L13.8371319,11.5045113 L13.8224549,11.7162438 L12.7764054,11.6520737 Z M8.50761227,11.6343961 L8.52228931,11.4226637 C8.66267477,11.4312757 8.77475937,11.430404 9.02772595,11.4224973 C9.28802708,11.4143615 9.40514557,11.4134506 9.55532941,11.4226637 L9.54065236,11.6343961 C9.40026691,11.6257842 9.2881823,11.6266559 9.03521573,11.6345625 C8.7749146,11.6426984 8.65779611,11.6436092 8.50761227,11.6343961 Z M8.95193486,12.7179396 L8.87862786,12.5172769 C8.90142113,12.5098626 8.90142113,12.5098626 8.92359975,12.5024682 C9.0431327,12.4623683 9.14771854,12.4212624 9.25798441,12.3716512 C9.37191431,12.3203913 9.3678097,12.3224397 9.73671633,12.135437 L9.84370948,12.3222271 C9.46964257,12.5118456 9.4741896,12.5095764 9.35530134,12.5630671 C9.23810345,12.6157973 9.12633209,12.6597273 8.99935997,12.7023229 C8.97593646,12.7101323 8.97593646,12.7101323 8.95193486,12.7179396 Z M11.1475555,13.9410207 L10.9313571,13.8805545 C10.9874484,13.7030681 11.0141574,13.5923825 11.0273343,13.4835659 C11.0387517,13.389279 11.0406414,13.3173269 11.0405495,13.0838166 C11.040542,13.0646692 11.040542,13.0646692 11.0405395,13.0448476 L11.2660903,13.0448476 C11.2660928,13.0646056 11.2660928,13.0646056 11.2661003,13.083738 C11.2661956,13.3259003 11.2641903,13.4022517 11.2514356,13.5075814 C11.2365382,13.6306067 11.2070949,13.7526237 11.1475555,13.9410207 Z M13.2126783,13.0767359 L13.0650246,13.2371337 L12.3310623,12.6392058 L12.478716,12.478808 L13.2126783,13.0767359 Z M9.84250945,13.4900406 L9.6664681,13.3573925 L10.1839518,12.7496222 L10.3599932,12.8822703 L9.84250945,13.4900406 Z M9.08225385,10.5432014 L9.19227933,10.3579768 L10.004642,10.7850219 L9.89461653,10.9702465 L9.08225385,10.5432014 Z M11.1162047,12.5683313 C10.3376531,12.5683313 9.86228067,12.250112 9.86228067,11.6641872 C9.86228067,11.0782623 10.5720282,10.7389336 11.3505798,10.7389336 C12.1291313,10.7389336 12.3701287,11.0782623 12.3701287,11.6641872 C12.3701287,12.250112 11.8947562,12.5683313 11.1162047,12.5683313 Z" id="eye" fill="#000000" fill-rule="nonzero" opacity="0.5"></path>
                        <path d="M5.25072847,10.585287 L5.2245247,10.6210673 C4.64417725,10.452918 4.24776423,10.2906218 4.03528566,10.1341787 C3.82280709,9.97773551 3.6700347,9.84315463 3.57696849,9.73043601 L3.43281088,8.99614855 C3.72648704,9.43409219 3.98476305,9.73511322 4.20763891,9.89921164 C4.36996482,10.0187285 4.6195895,10.143716 4.95651296,10.2741741 L4.35894292,9.64228456 L4.08517532,8.81645702 C4.38171303,9.27817796 4.61538088,9.61014274 4.78617886,9.81235137 C4.95697684,10.01456 5.19447251,10.2404082 5.4986659,10.489896 L5.31112579,10.649153 L5.25072847,10.585287 Z M4.06727216,11.0287114 L3.95489867,11.2478622 C3.36852414,11.078013 2.94384968,10.9253047 2.6808753,10.7897372 C2.41790092,10.6541698 2.22460663,10.5348205 2.10099241,10.4316894 L1.80981527,9.86495656 C2.26882162,10.193942 2.62633552,10.4244263 2.88235697,10.5564094 C3.13837841,10.6883925 3.53335014,10.8458265 4.06727216,11.0287114 Z M6.00243271,10.3484858 L5.80888647,10.5003465 L4.90262282,9.52614979 L4.63406247,8.59515296 C4.91494021,9.13437067 5.13379229,9.50445266 5.29061872,9.70539895 C5.44744514,9.90634523 5.68471647,10.1207075 6.00243271,10.3484858 Z M7.29402337,9.93855704 L7.10451518,10.0954543 C6.74371211,9.81441288 6.48853759,9.58309366 6.33899163,9.40149667 C6.18944567,9.21989968 6.050266,9.06635135 5.92145263,8.94085169 L5.78009204,8.10015654 C5.97917773,8.54202762 6.12374689,8.8288608 6.2137995,8.9606561 C6.33019708,9.13100823 6.46197672,9.13128678 6.5495262,9.23760006 C6.7386765,9.46728948 6.98684222,9.7009418 7.29402337,9.93855704 Z M8.59896808,10.0183834 L8.41199001,10.1783034 C8.03771052,9.96577826 7.77093196,9.76590316 7.61165432,9.57867808 C7.45237668,9.39145301 7.36280124,9.28557067 7.34292799,9.26103106 L7.22783782,8.4066696 C7.44561448,8.93988554 7.63796107,9.30459567 7.8048776,9.50079998 C7.97179413,9.69700429 8.23649096,9.86953208 8.59896808,10.0183834 Z M9.6963677,10.003857 L9.51396684,10.169006 C9.1411026,9.92576507 8.88259234,9.72411036 8.73843606,9.5640419 C8.59427978,9.40397343 8.47347801,9.27302073 8.37603074,9.17118377 L8.41835814,8.5847788 C8.51210291,8.91658092 8.59100352,9.1354163 8.65505996,9.24128496 C8.73733801,9.37726922 8.88244518,9.41465147 8.95742728,9.49791022 C9.11997381,9.67839888 9.36628729,9.8470478 9.6963677,10.003857 Z M10.6687621,10.1181977 L10.4663869,10.2580096 C9.99535241,9.97285838 9.69304463,9.73308649 9.55946351,9.53869387 C9.4258824,9.34430126 9.33624563,9.19416753 9.2905532,9.08829269 L9.44763295,8.34116144 C9.49940251,8.72947603 9.54702729,8.98529303 9.5905073,9.10861244 C9.65253963,9.28455057 9.75633022,9.33113946 9.82788435,9.43526791 C9.9746696,9.6488757 10.2549622,9.87651896 10.6687621,10.1181977 Z M11.20503,10.2471827 L10.9650067,10.3001225 C10.7532701,9.947067 10.6284477,9.68414278 10.5905395,9.51134986 C10.5526313,9.33855693 10.5392719,9.19918614 10.5504615,9.09323748 L10.8804276,8.76758254 C10.7918811,8.95607183 10.7437498,9.09561554 10.7360338,9.18621367 C10.7226059,9.34387682 10.7978321,9.5292782 10.8186109,9.62399212 C10.8573,9.80034438 10.9861064,10.0080746 11.20503,10.2471827 Z M11.6903027,10.3718897 L11.4445412,10.3722623 C11.3054143,10.1339322 11.235755,9.95123543 11.2355634,9.82417205 C11.2353718,9.69710867 11.2891134,9.59853831 11.3967882,9.52846097 L11.6887427,9.33748111 C11.5513534,9.569261 11.482737,9.73707627 11.4828936,9.8409269 C11.4830502,9.94477753 11.5521866,10.1217651 11.6903027,10.3718897 Z M12.2810673,10.3676082 L12.0353055,10.36764 C11.9119083,10.1426145 11.8502026,9.97533734 11.8501885,9.86580851 C11.8501744,9.75627967 11.9288646,9.67296025 12.0862592,9.61585024 L12.2809473,9.43571398 C12.2034967,9.63486375 12.164778,9.78533262 12.1647911,9.88712058 C12.1648042,9.98890855 12.2035629,10.1490711 12.2810673,10.3676082 Z M3.16416367,12.9014206 L3.32977561,13.1550531 C3.17388114,13.1815864 3.08057739,13.2020468 3.04986436,13.2164344 C2.82852894,13.3201196 2.6592896,13.3793516 2.54214636,13.3941302 C2.40062051,13.4119849 2.28030332,13.3746431 2.1811948,13.2821048 L1.78016868,13.1116899 C2.14365423,13.156 2.40355496,13.1682948 2.55987088,13.1485742 C2.7161868,13.1288536 2.91761773,13.0464691 3.16416367,12.9014206 Z M3.44631019,13.1629475 L3.56953311,13.3761548 C3.40834631,13.5391512 3.2695881,13.6544459 3.15325851,13.7220389 C3.03692891,13.7896318 2.9244211,13.8388061 2.81573509,13.8695619 L2.37530217,13.7852531 C2.7093303,13.7266197 2.93959414,13.660552 3.06609369,13.5870498 C3.19259323,13.5135477 3.31933207,13.3721803 3.44631019,13.1629475 Z M3.9365232,13.2987228 L4.08060759,13.49835 C3.92882216,13.7044517 3.7973352,13.8478437 3.6861467,13.9285261 C3.5749582,14.0092084 3.47429086,14.0410964 3.3841447,14.0241899 L2.974956,13.9964703 C3.26289451,13.9127876 3.46220825,13.8307863 3.57289721,13.7504664 C3.68358618,13.6701465 3.80479484,13.5195653 3.9365232,13.2987228 Z M4.19207949,13.7842325 L4.39576054,13.9221248 C4.27300728,14.229825 4.1772246,14.4347687 4.10841251,14.536956 C4.03960042,14.6391433 3.90103267,14.7535719 3.69270926,14.8802417 L3.38316095,15.0257701 C3.68869335,14.7605237 3.89348485,14.5506419 3.99753544,14.3961248 C4.10158603,14.2416076 4.16643405,14.0376435 4.19207949,13.7842325 Z M4.61659381,13.8952049 L4.82589262,14.024363 C4.70274675,14.4104121 4.60149606,14.6680784 4.52214053,14.7973621 C4.44278501,14.9266457 4.24619423,15.0938429 3.93236818,15.2989538 L3.6604995,15.3264767 C4.02404515,15.0157154 4.25198783,14.7851162 4.34432753,14.6346792 C4.43666723,14.4842421 4.52742266,14.2377507 4.61659381,13.8952049 Z M5.54150905,14.2046008 L5.71738095,14.2976009 C5.63353473,14.6039656 5.55769571,14.8114635 5.48986387,14.9200945 C5.42203204,15.0287255 5.36580511,15.0969447 5.3211831,15.1247521 L4.97042188,15.3692745 C5.11290872,15.1389254 5.22040509,14.9656927 5.292911,14.8495763 C5.36541692,14.7334598 5.44828293,14.518468 5.54150905,14.2046008 Z M5.81965215,14.4211845 L6.05689579,14.4372561 C6.06347595,14.7452819 6.04887461,14.9453402 6.01309178,15.037431 C5.97730895,15.1295219 5.94725766,15.1722171 5.9229379,15.1655167 L5.52283952,15.2712606 C5.66861231,15.1282901 5.75660008,15.0179399 5.78680282,14.94021 C5.81700555,14.8624801 5.82795533,14.6894716 5.81965215,14.4211845 Z M6.60200456,14.6465018 L6.77436393,14.669379 C6.75922638,14.9847546 6.74454555,15.1947201 6.73032144,15.2992755 C6.71609733,15.403831 6.70999441,15.4818041 6.71201268,15.5331949 L6.37455061,15.7728031 C6.47990746,15.562699 6.540304,15.4009142 6.55574024,15.2874489 C6.57117648,15.1739836 6.58659792,14.9603345 6.60200456,14.6465018 Z M7.61465865,14.8805891 L7.83076772,14.9979312 C7.82594245,15.1955081 7.80046268,15.3370071 7.75432839,15.4224281 C7.7081941,15.507849 7.58527277,15.6411255 7.38556439,15.8222575 L7.34876731,15.8197647 C7.45029256,15.608953 7.52746389,15.4546495 7.58028128,15.3568542 C7.63309867,15.259059 7.6445578,15.1003039 7.61465865,14.8805891 Z M8.4827854,15.2047351 L8.72833418,15.2149937 C8.73116212,15.4218455 8.73066924,15.5711582 8.72685555,15.6629317 C8.72304186,15.7547052 8.71229465,15.8758765 8.69461393,16.0264456 L8.56060202,16.0173672 C8.52580861,15.8743393 8.5111622,15.7366415 8.5166628,15.6042737 C8.52216341,15.471906 8.51087094,15.3387264 8.4827854,15.2047351 Z M4.78932199,10.8529052 L4.66685957,11.0665525 C4.12593773,10.8860843 3.74173751,10.7303056 3.51425891,10.5992162 C3.28678032,10.4681269 3.18137497,10.3985337 3.19804286,10.3904366 L2.95798829,9.7975606 C3.25355773,10.1600909 3.50373181,10.4003601 3.70851051,10.5183681 C3.91328922,10.6363762 4.27355971,10.7478885 4.78932199,10.8529052 Z M3.86737475,11.4177876 L3.7969534,11.6538741 C3.15079876,11.6697538 2.69923966,11.6391639 2.4422761,11.5621044 C2.18531253,11.4850449 1.94427405,11.3379728 1.71916065,11.1208881 L1.50815709,10.710294 C1.96311225,11.0502017 2.31126571,11.2563444 2.55261746,11.3287221 C2.79396921,11.4010999 3.23222164,11.4307884 3.86737475,11.4177876 Z M6.66154542,10.312089 L6.46162357,10.4554055 C6.05782726,10.1531287 5.79142134,9.91152184 5.66240581,9.73058487 C5.53339028,9.54964789 5.44977577,9.39202067 5.41156227,9.25770318 L5.38749589,8.52530666 C5.5944281,9.0197057 5.77609365,9.37657552 5.93249254,9.59591611 C6.08889143,9.8152567 6.33190906,10.053981 6.66154542,10.312089 Z" id="eye-lashes" fill="#000000" fill-rule="nonzero" opacity="0.400000006" transform="translate(6.894612, 12.063301) rotate(1.000000) translate(-6.894612, -12.063301) "></path>
                        <path d="M2.34875626,5.46708828 L0.77029111,5.46708828 C2.80509131,4.90268935 8.30674846,2.70362196 8.32134478,2.69951833 C9.76237098,2.29438637 10.5354615,2.15539788 11.4285132,2.16436678 C12.2060413,2.17217548 18.9275681,3.26944903 23.3340461,3.78752759 C19.4925537,3.71479193 17.5272103,3.67301492 17.4380157,3.66219654 C12.9778688,3.12122699 12.0861619,3.17102196 11.4184707,3.16431635 C10.6394837,3.156493 9.94955024,3.28053126 8.59199337,3.66219654 C8.58614391,3.66384107 4.39341794,4.89995404 2.34875626,5.46708828 Z" id="brow" fill="#000000" fill-rule="nonzero" opacity="0.3" transform="translate(12.052169, 3.815525) rotate(6.000000) translate(-12.052169, -3.815525) "></path>
                    </g>
                </g>
                <g id="hair" transform="translate(4.000000, 0.000000)">
                    <path d="M107.408478,16.8496442 C110.889713,21.0212834 109.764027,24.1108363 113.538926,35.2146747 C117.053383,45.5524242 114.340145,44.8900113 118.888786,64.407087 C125.619897,93.2885899 129.333079,107.984096 132.307284,114.822233 C133.146668,116.752101 135.710907,121.328463 140,128.551318 L123.536314,126.626548 C120.958834,125.933939 119.038995,125.933939 117.776798,126.626548 C117.117344,126.988412 115.90489,126.083168 115.201159,133.232083 C114.772351,137.588172 114.287598,148.510811 113.746901,166 L108.277962,121.21695 C101.746353,119.136348 98.4440626,117.600995 98.3710898,116.610892 C98.0584346,112.36875 96.636081,99.1247205 96.0632386,95.427593 C95.3433472,90.7814108 100.98362,88.3435537 102.12504,84.616692 C104.548305,76.7044612 109.884413,61.8095634 108.505266,46.2833776 C107.167858,31.2270772 102.576218,37.3139468 102.13545,24.6344109 C102.036114,21.7768249 101.570763,19.7601738 101.044156,18.2466033 C90.3240428,17.034143 89.4225932,14.898268 80.066535,16.8478237 C75.0917212,17.8844437 48.9175758,16.697561 45.8757576,30.2460752 C44.9450685,34.3914426 45.8928069,41.779144 43.5071786,40.1417663 C42.2344049,39.2681971 40.7304335,37.2947925 39.3884469,36.4582337 C37.8156619,35.4778013 36.446967,35.5971546 35.6581472,33.9651802 C34.1962632,30.9407157 34.7934062,42.9648021 35.3194599,46.3506816 C35.7898304,49.3781631 36.5936956,50.2598974 36.9726224,53.4834568 C37.4298755,57.3733443 41.5352102,59.0328434 42.3885651,59.5933043 C44.7159346,61.1218589 44.5985526,54.2454559 45.8426585,60.3941639 C48.4193173,73.1287096 55.2896821,72.6173979 58.8584408,82.5600263 C59.5249852,84.4170316 64.4763636,88.1188703 66.1682685,91.929058 C69.2019821,98.7610133 69.3519289,107.359746 69.5207076,116.378194 C69.5702516,119.025505 59.7108565,120.118691 60.1247395,123.979361 C62.3454286,144.693787 56.3183047,135.009523 53.8146598,157.237238 C52.4182413,169.634841 54.1368888,182.543045 51.3390667,194.615331 C49.7078546,201.653827 45.6640003,212.247484 46.0942471,220.853091 C46.7746579,234.46237 43.5469287,243.661424 39.1965465,247.162162 C35.407642,250.211081 24.6843939,252.320966 33.9814129,245.560456 L35.9787484,237.09508 C37.578269,228.567274 36.6680016,221.916002 37.8080646,213.289682 C38.6603319,206.840977 41.3461267,200.777645 41.8177241,194.28038 C41.907408,193.044791 39.6268969,194.871672 39.0689262,195.918609 C35.4998101,202.615449 31.8762397,209.457352 29.7197743,216.980127 C27.7006324,224.023852 27.5719686,246.318417 26.719433,238.999503 C24.9435455,223.753725 24.23561,210.264412 24.922806,194.822558 C25.0659317,191.606408 26.9856104,186.890187 28.0730245,183.31855 C28.5411554,181.780964 30.5086597,179.233799 29.3839068,179.126609 C26.9043171,178.890303 24.1608998,184.138297 21.6387264,186.129164 C8.71865652,196.327565 -2.1624365,222.657534 13.7819799,180.299611 C15.3670978,176.088588 19.2328813,171.470389 19.9867945,168.423662 C20.2033311,167.54859 22.85279,165.582062 21.8055734,165.295789 C16.3102461,163.793557 9.77850327,181.390644 6.60206516,185.341126 C-2.38459855,196.517686 -0.42983305,202.852567 4.4636848,167.61013 L8.21411396,154.581402 C15.1572872,134.380599 28.1189317,118.112658 32.6148915,96.6545655 C35.299614,83.8410564 33.2446892,72.9515828 32.9283537,59.7173539 C31.8961792,16.5352492 31.7246889,2.59826739 71.0921251,1.11278209 C76.7123061,0.900710975 92.8808096,-1.32855939 101.735772,4.49216761 C102.450951,4.96228387 106.372172,13.0731567 107.408478,16.8496442 Z" fill="#092E74"></path>
                    <path d="M138.111101,127.323676 C134.414792,121.059881 132.182278,117.04203 131.390268,115.221084 C128.574435,108.747066 125.260262,96.151225 117.914886,64.6340638 C115.929464,56.1151177 115.401509,52.5513172 114.756112,45.6601322 C114.671967,44.761683 114.608443,44.1492388 114.533113,43.5406463 C114.22148,41.0229435 113.701506,38.7997303 112.592142,35.5365464 C111.710908,32.9444029 111.040757,30.6377348 110.463494,28.3116601 C110.142926,27.0199362 109.360625,23.5350059 109.332741,23.4175927 C108.825448,21.2815682 108.385437,20.0606769 107.622599,18.8366944 C107.344142,18.389906 107.021153,17.946265 106.640698,17.4903572 L106.444128,17.1142716 C105.557046,13.8815833 101.708577,5.67099341 101.186479,5.32779722 C98.0506875,3.26651395 93.7032791,2.11254467 88.3294556,1.69697734 C84.497953,1.40068043 80.7266148,1.47938876 75.6647083,1.82105242 C75.1249269,1.85748607 73.4186717,1.97771708 73.1490404,1.99610591 C72.2642483,2.05644864 71.6511852,2.09239827 71.1298321,2.11207093 C51.7062412,2.84499798 42.2734178,6.59871354 37.7462454,15.2427883 C35.2684738,19.9737862 34.132658,25.1071884 33.7938552,35.1864332 C33.8252365,34.6989412 33.8707939,34.2889512 33.9316092,33.9642399 C34.0718106,33.215663 34.2603291,32.7753292 34.851246,32.5537874 C35.6972122,32.2366245 36.1625288,32.710802 36.5584892,33.5299972 C36.8451297,34.1230223 37.1603278,34.3574238 38.0597415,34.7254161 C38.4548584,34.8843265 38.6806313,34.9767643 38.9123186,35.0804325 C39.2747793,35.2426149 39.5985597,35.410826 39.9174529,35.6096156 C40.4832702,35.9623311 41.0373457,36.4439547 41.8053582,37.2037501 C41.9259212,37.3230231 42.0444335,37.4416527 42.2180879,37.6164579 C43.1563808,38.5609686 43.5481564,38.9353143 43.9377461,39.2212817 C44.1643004,38.4029484 44.2487796,37.48629 44.3588093,35.365667 C44.4054061,34.4675989 44.4134803,34.3164502 44.4370521,33.9257681 C44.5383185,32.2473603 44.6689861,31.0561766 44.9000462,30.0270152 C46.4063306,23.3178975 52.895714,19.554578 63.0527955,17.6806605 C65.4462957,17.2390747 67.9611026,16.9167287 70.7796717,16.659803 C71.8418498,16.5629805 72.8927274,16.4796924 74.1822146,16.3867437 C74.2065636,16.3849885 76.4804992,16.2247036 77.0403989,16.1820111 C78.4702654,16.0729834 79.3281118,15.9802125 79.8625429,15.8688512 C83.9780172,15.0112949 86.6669105,14.8742244 89.5712847,15.2789504 C90.7870635,15.4483697 95.4082947,16.3910585 96.1780964,16.5289185 C97.7741044,16.8147397 99.3761313,17.0515716 101.156541,17.2529386 L101.78184,17.3236608 L101.988625,17.9180009 C102.646532,19.8089568 103.042657,21.9476686 103.134846,24.5996698 C103.303843,29.4611968 103.901012,31.2862547 105.559091,33.6474989 C105.588498,33.689377 105.851284,34.0619446 105.930412,34.1751153 C106.078061,34.3862842 106.200539,34.5652445 106.318979,34.7441648 C108.03497,37.336407 108.983328,40.3631581 109.501344,46.1948988 C110.338574,55.6202811 108.923717,65.11203 105.819086,75.9689824 C105.375568,77.5199752 104.918529,79.0325476 104.345921,80.8667478 C104.331184,80.9139527 103.323039,84.1199033 103.081201,84.9095338 C102.664813,86.2690862 101.898805,87.3312439 100.310194,89.0632406 C100.205517,89.1773659 100.103086,89.288471 99.8971534,89.5116272 C97.4960033,92.1155656 96.7622317,93.4078814 97.0514469,95.2744775 C97.6028045,98.832942 99.0153171,111.856049 99.359481,116.418017 C99.4134174,116.47917 99.5039492,116.560404 99.6304064,116.655022 C99.9879663,116.922557 100.555871,117.241007 101.324133,117.5982 C102.929666,118.344669 105.352511,119.235557 108.581479,120.264124 L109.192813,120.45886 L113.178351,153.094907 C113.549824,142.972627 113.891976,136.323849 114.205969,133.134117 C114.524087,129.902485 114.966066,127.99568 115.590059,126.961289 C115.840098,126.546799 116.132921,126.244985 116.478318,126.041558 C116.734563,125.890639 116.893157,125.839695 117.246534,125.754896 C118.817436,124.914855 120.956298,124.907738 123.7243,125.641715 L138.111101,127.323676 Z M33.9280681,59.6934579 C33.9990389,62.6625972 34.1299952,65.1551913 34.4314591,69.88478 C34.7799562,75.3522603 34.8859951,77.2995051 34.9494165,80.0875895 C35.090448,86.2875107 34.7132526,91.5159988 33.5936388,96.8596354 C31.4265186,107.202758 28.1606098,114.923433 20.2793847,130.372362 C20.0588017,130.8047 20.0588017,130.8047 19.8382243,131.236953 C14.0373795,142.605011 11.5492517,147.954497 9.17509175,154.858028 L5.44436658,167.818305 C4.35097795,175.682136 2.80792938,185.018758 1.95533481,190.104552 C3.21867902,188.140854 4.34154954,186.556637 5.82274348,184.714502 C6.36683772,184.037821 7.06940362,182.856098 8.10276151,180.919561 C8.35545623,180.446005 10.4499414,176.433222 11.123982,175.186436 C13.4210503,170.937506 15.2577635,168.104121 17.0956252,166.282666 C18.7706265,164.622618 20.42263,163.881049 22.0692636,164.331182 C23.170878,164.632325 23.2678135,165.617134 22.7714166,166.44937 C22.5658774,166.793968 22.3459511,167.055304 21.7522782,167.710567 C21.2179598,168.30036 20.9686141,168.61902 20.9575166,168.663867 C20.568343,170.236602 20.2185201,170.867536 17.4639461,175.406689 C16.7862526,176.523433 16.3123588,177.337649 15.8852483,178.136791 C15.3932487,179.057343 15.0069538,179.883923 14.7178711,180.6519 C11.2237304,189.934431 9.29043877,195.198981 8.1380587,198.604477 C7.87760052,199.374179 7.65811917,200.046647 7.47763569,200.627943 C7.65651255,200.398042 7.85269628,200.143543 8.0693904,199.860599 C8.3291409,199.521436 9.39844201,198.117592 9.29383516,198.254762 C9.82976634,197.551997 10.2547335,196.99844 10.6865016,196.442413 C11.8243619,194.977085 12.857945,193.692679 13.8960562,192.468275 C16.3875738,189.529647 18.7285019,187.15234 21.019144,185.344232 C21.7184613,184.792229 22.3088736,184.130332 23.7509175,182.36638 C24.056496,181.992588 24.2256081,181.786907 24.4141062,181.561007 C26.5067672,179.053122 27.8355487,177.974519 29.4787774,178.13112 C30.6732163,178.24495 30.9236593,179.219026 30.595556,180.239302 C30.4491168,180.694672 30.3067225,180.985791 29.7372853,182.073303 C29.3087265,182.897264 29.1247521,183.297506 29.029669,183.609809 C28.8688005,184.138185 28.6846848,184.709908 28.4486501,185.419821 C28.3101731,185.836312 27.8009418,187.34837 27.8109696,187.318479 C27.6325582,187.850285 27.4901396,188.280189 27.356182,188.693185 C26.453385,191.476543 25.9878389,193.383456 25.9218173,194.867016 C25.371473,207.2337 25.6935185,218.610765 26.9229236,231.462778 C27.0504458,229.747594 27.1622202,228.248793 27.2168924,227.603476 C27.6487336,222.50628 28.1265169,218.909191 28.7584904,216.704567 C30.5845939,210.334251 32.8511921,205.458957 38.1864347,195.44828 C38.5418384,194.781426 39.3509771,193.949119 40.1188378,193.420076 C40.5868371,193.097632 41.0127504,192.898186 41.4385729,192.870041 C42.3140892,192.812173 42.8775379,193.492561 42.8151002,194.352774 C42.5992724,197.326265 42.0743828,199.766533 40.7722731,204.619614 C39.5549671,209.153575 39.1136873,211.042973 38.7994441,213.420704 C38.3789309,216.602529 38.2464856,218.944366 38.098853,224.10629 C38.0787907,224.807765 38.0688416,225.148012 38.056284,225.552469 C37.9026778,230.499873 37.6428674,233.647317 36.9520249,237.324716 L34.8695145,246.151092 L34.56953,246.369232 C32.9595232,247.53998 31.9405263,248.462848 31.5057043,249.042206 C33.522226,248.980656 36.9214616,247.709352 38.5696228,246.383081 C43.0114646,242.808746 45.7164385,233.322872 45.0954945,220.903025 C44.9482371,217.957646 45.2911309,214.668613 46.0601214,210.883465 C46.5483726,208.480182 47.1647945,206.046559 48.069454,202.813908 C48.2809385,202.058203 49.1307219,199.069444 49.3336296,198.342611 C49.7883952,196.7136 50.110518,195.487131 50.3648866,194.389559 C51.7229238,188.529782 52.0326776,183.667843 52.1427497,172.572449 C52.1481804,172.025012 52.1506281,171.781387 52.1538004,171.477202 C52.2230279,164.839054 52.3666801,161.158325 52.8209436,157.12531 C53.4981124,151.113309 54.4588864,147.009895 55.7686113,143.805342 C56.119618,142.946521 56.4839168,142.17435 56.9286904,141.318611 C57.0997448,140.989505 57.7957027,139.695045 57.9632703,139.369114 C59.6906418,136.009259 60.0621882,132.777264 59.1304369,124.085955 C58.8826182,121.77432 60.5217401,120.497891 64.4067412,118.752851 C64.626391,118.654191 65.4331571,118.295658 65.352547,118.331579 C65.7218917,118.166993 65.9910931,118.045021 66.2448698,117.926382 C67.8348108,117.183091 68.52553,116.645229 68.5208827,116.396906 C68.273713,103.18823 67.7008701,97.8445449 65.2543224,92.3348936 C64.6704591,91.0200274 63.6359945,89.6338778 62.0203034,87.865856 C61.6167275,87.4242302 59.9312265,85.6440734 59.5473211,85.2181049 C58.6544288,84.2273815 58.1482649,83.5415137 57.9172344,82.8978583 C56.6773475,79.4435104 55.3622195,77.5981523 52.2276091,74.2577894 C47.8424433,69.5853458 46.1066096,66.7411058 44.8625206,60.5924813 C44.8105334,60.3355466 44.7609943,60.1021123 44.7138716,59.8914465 C43.9743191,60.8671901 43.0361689,61.2150243 41.8396029,60.4291515 C41.7515794,60.37134 40.9778984,59.947331 40.8387463,59.8680394 C40.2086792,59.5090147 39.6581947,59.1535704 39.1250754,58.7407265 C37.3687311,57.3806257 36.227222,55.7079283 35.9794605,53.6002022 C35.8216879,52.2580188 35.6325576,51.4633211 35.1842442,50.0064233 C34.7166476,48.4849649 34.51461,47.6839614 34.3313151,46.5042066 C34.0461108,44.6685241 33.7747406,40.7261817 33.7433829,37.7646396 C33.7409758,37.5372972 33.7399164,37.3170356 33.7402425,37.1041263 C33.6093175,42.8768877 33.7004108,50.169174 33.9280681,59.6934579 Z M31.2903729,249.407048 C31.2891344,249.410456 31.2879373,249.413837 31.2867816,249.417193 C31.2902485,249.407126 31.2920832,249.394329 31.2923003,249.379456 L31.2903729,249.407048 Z M99.3671928,116.521243 C99.3675917,116.526638 99.3679891,116.53202 99.3683848,116.53739 C99.3671976,116.521281 99.3656196,116.506574 99.363803,116.493236 L99.3671928,116.521243 Z M34.8735879,34.4010782 C34.5397357,37.2394776 34.94738,43.9558357 35.3194599,46.3506816 C35.7898304,49.3781631 36.5936956,50.2598974 36.9726224,53.4834568 C37.4298755,57.3733443 41.5352102,59.0328434 42.3885651,59.5933043 C44.7159346,61.1218589 44.5985526,54.2454559 45.8426585,60.3941639 C48.4193173,73.1287096 55.2896821,72.6173979 58.8584408,82.5600263 C59.5249852,84.4170316 64.4763636,88.1188703 66.1682685,91.929058 C69.2019821,98.7610133 69.3519289,107.359746 69.5207076,116.378194 C69.5702516,119.025505 59.7108565,120.118691 60.1247395,123.979361 C62.3454286,144.693787 56.3183047,135.009523 53.8146598,157.237238 C52.4182413,169.634841 54.1368888,182.543045 51.3390667,194.615331 C49.7078546,201.653827 45.6640003,212.247484 46.0942471,220.853091 C46.7746579,234.46237 43.5469287,243.661424 39.1965465,247.162162 C35.407642,250.211081 24.6843939,252.320966 33.9814129,245.560456 L35.9787484,237.09508 C37.578269,228.567274 36.6680016,221.916002 37.8080646,213.289682 C38.6603319,206.840977 41.3461267,200.777645 41.8177241,194.28038 C41.907408,193.044791 39.6268969,194.871672 39.0689262,195.918609 C35.4998101,202.615449 31.8762397,209.457352 29.7197743,216.980127 C27.7006324,224.023852 27.5719686,246.318417 26.719433,238.999503 C24.9435455,223.753725 24.23561,210.264412 24.922806,194.822558 C25.0659317,191.606408 26.9856104,186.890187 28.0730245,183.31855 C28.5411554,181.780964 30.5086597,179.233799 29.3839068,179.126609 C26.9043171,178.890303 24.1608998,184.138297 21.6387264,186.129164 C8.71865652,196.327565 -2.1624365,222.657534 13.7819799,180.299611 C15.3670978,176.088588 19.2328813,171.470389 19.9867945,168.423662 C20.2033311,167.54859 22.85279,165.582062 21.8055734,165.295789 C16.3102461,163.793557 9.77850327,181.390644 6.60206516,185.341126 C-2.38459855,196.517686 -0.42983305,202.852567 4.4636848,167.61013 L8.21411396,154.581402 C15.1572872,134.380599 28.1189317,118.112658 32.6148915,96.6545655 C35.299614,83.8410564 33.2446892,72.9515828 32.9283537,59.7173539 C31.8961792,16.5352492 31.7246889,2.59826739 71.0921251,1.11278209 C76.7123061,0.900710975 92.8808096,-1.32855939 101.735772,4.49216761 C102.450951,4.96228387 106.372172,13.0731567 107.408478,16.8496442 C110.889713,21.0212834 109.764027,24.1108363 113.538926,35.2146747 C117.053383,45.5524242 114.340145,44.8900113 118.888786,64.407087 C125.619897,93.2885899 129.333079,107.984096 132.307284,114.822233 C133.146668,116.752101 135.710907,121.328463 140,128.551318 L123.536314,126.626548 C120.958834,125.933939 119.038995,125.933939 117.776798,126.626548 C117.117344,126.988412 115.90489,126.083168 115.201159,133.232083 C114.772351,137.588172 114.287598,148.510811 113.746901,166 L108.277962,121.21695 C101.746353,119.136348 98.4440626,117.600995 98.3710898,116.610892 C98.0584346,112.36875 96.636081,99.1247205 96.0632386,95.427593 C95.3433472,90.7814108 100.98362,88.3435537 102.12504,84.616692 C104.548305,76.7044612 109.884413,61.8095634 108.505266,46.2833776 C107.167858,31.2270772 102.576218,37.3139468 102.13545,24.6344109 C102.036114,21.7768249 101.570763,19.7601738 101.044156,18.2466033 C90.3240428,17.034143 89.4225932,14.898268 80.066535,16.8478237 C75.0917212,17.8844437 48.9175758,16.697561 45.8757576,30.2460752 C44.9450685,34.3914426 45.8928069,41.779144 43.5071786,40.1417663 C42.2344049,39.2681971 40.7304335,37.2947925 39.3884469,36.4582337 C37.9602198,35.5679149 36.7002901,35.5845054 35.8900576,34.3730035 C35.2547873,33.1306764 35.0081824,33.4418289 34.8735879,34.4010782 Z" id="hair-outline" fill="#000000" fill-rule="nonzero" opacity="0.05"></path>
                </g>
            </g>
        </g>
    </g>
</svg>