<?xml version="1.0" encoding="UTF-8"?>
<svg width="480px" height="300px" viewBox="0 0 480 300" version="1.1" xmlns="http://www.w3.org/2000/svg" xmlns:xlink="http://www.w3.org/1999/xlink">
    <!-- Generator: Sketch 51 (57462) - http://www.bohemiancoding.com/sketch -->
    <title>Avatars</title>
    <desc>Created with Sketch.</desc>
    <defs></defs>
    <g id="Avatars" stroke="none" stroke-width="1" fill="none" fill-rule="evenodd">
        <rect id="Frame" fill="#E6E6E6" x="0" y="0" width="480" height="300"></rect>
        <g id="Gnome" transform="translate(148.000000, 47.000000)">
            <g id="Male">
                <g id="body" transform="translate(0.000000, 5.000000)">
                    <path d="M0,248 C2.33516429,218.734374 4.05983995,200.229084 5.17402698,192.484131 C5.97351877,186.926692 4.64675787,178.924821 5.19521464,173.32708 C5.71842837,167.986979 4.70144235,146.307653 13.6827706,138.874228 C23.6994819,130.583865 80.6194618,129.537463 80.6194618,109.486291 C80.6194618,105.805324 78.4441226,99.453093 75.9401945,97.8466471 C67.0153846,92.1207539 60.324462,84.8423239 55.8674269,76.0113568 C49.8303707,73.763985 46.4320947,71.0075966 45.6725989,67.7421915 C43.3718102,57.8500938 42.2978902,24.0644058 49.2011355,16.569812 C62.0534321,2.61655706 111.216646,-11.2417518 123.425752,14.0934311 C130.686933,29.1611482 140.523005,58.1098002 114.964242,91.9754776 C110.276116,98.1873027 109.208328,106.288966 111.760877,116.280466 C119.809897,119.361178 174.626929,119.741645 180.855069,142.259869 C184.802042,156.530393 187.656012,189.949726 189.293766,202.252892 C190.209765,209.134077 191.111843,224.383113 192,248 L168.758873,248 L14.6618619,248 L0,248 Z" fill="#F2D3C3"></path>
                    <polygon id="armpit-l" fill="#E6E6E6" points="30 249 37 207 45 249"></polygon>
                    <polygon id="armpit-r" fill="#E6E6E6" transform="translate(159.500000, 228.000000) scale(-1, 1) translate(-159.500000, -228.000000) " points="152 249 159 207 167 249"></polygon>
                    <path d="M2.56933346,217.427201 L3.22518803,217.37358 C3.23767334,217.727584 3.27972911,218.928662 3.28778696,219.157489 C3.31115798,219.82118 3.32919339,220.323196 3.34667401,220.792868 C3.60130886,227.634448 3.89427284,230.02209 4.93354038,232.685157 C5.76350621,234.811899 6.88585471,236.684994 10.1573227,241.582943 L9.6968124,242.295964 C6.38082923,237.331368 5.23921882,235.426127 4.36889299,233.195964 C3.25879945,230.35141 2.95130502,227.845345 2.69092654,220.849444 C2.67340155,220.378579 2.65533307,219.875643 2.63192944,219.211026 C2.62386396,218.981982 2.58181016,217.780961 2.56933346,217.427201 Z M0.601700705,242.436791 L-1.13686838e-13,242.035865 C0.537185675,240.167014 0.906987433,238.709232 1.19607768,237.396402 C1.23516528,237.218895 1.57429065,235.580567 1.65804479,235.278859 C1.89990551,234.407601 1.54862509,234.814446 3.83594309,232.486655 L4.20093283,233.318032 C2.13055989,235.425039 2.42527308,235.083708 2.26302719,235.668169 C2.19346541,235.918752 1.86866404,237.48788 1.81880999,237.71428 C1.52348217,239.055437 1.14665372,240.540918 0.601700705,242.436791 Z M36.5391686,189.413818 L37.1695499,189.133057 C37.2966194,189.794421 37.4346008,190.465209 37.5982787,191.225322 C39.1433113,198.400384 39.1549818,198.465612 39.0644316,200.923936 C38.9844435,203.095515 38.4495043,205.131522 37.3537262,207.254278 L36.8373294,206.636347 C37.8525018,204.669741 38.3364764,202.827708 38.4086626,200.867943 C38.49222,198.599463 38.4786489,198.523612 36.9741655,191.536859 C36.8084411,190.767242 36.6684173,190.086525 36.5391686,189.413818 Z M47.941893,137.57294 L47.6475065,136.679013 C48.6096997,135.944478 49.5666057,135.530013 51.8699481,134.71886 C54.1171243,133.927487 55.0489161,133.5239 55.9460138,132.839059 C56.7300222,132.240549 57.0793142,131.63051 57.6916003,130.080828 C58.3627816,128.382084 58.7826969,127.648702 59.7056135,126.94415 L60,127.838076 C59.2159916,128.436586 58.8666995,129.046625 58.2544135,130.596307 C57.5832322,132.295051 57.1633168,133.028433 56.2404003,133.732985 C55.2782071,134.467521 54.3213011,134.881985 52.0179586,135.693138 C49.7707825,136.484511 48.8389907,136.888098 47.941893,137.57294 Z" id="arm-lines-l" fill="#000000" fill-rule="nonzero" opacity="0.1"></path>
                    <path d="M134.951018,220.427201 L135.634695,220.37358 C135.64771,220.727584 135.69155,221.928662 135.69995,222.157489 C135.724312,222.82118 135.743113,223.323196 135.761335,223.792868 C136.026772,230.634448 136.332165,233.02209 137.415521,235.685157 C138.280696,237.811899 139.450658,239.684994 142.860911,244.582943 L142.380865,245.295964 C138.924208,240.331368 137.734167,238.426127 136.82692,236.195964 C135.669733,233.35141 135.349193,230.845345 135.077769,223.849444 C135.059501,223.378579 135.040666,222.875643 135.016269,222.211026 C135.007861,221.981982 134.964024,220.780961 134.951018,220.427201 Z M133.627227,246.436791 L133,246.035865 C133.559975,244.167014 133.21815,241.709232 133.519504,240.396402 C133.56025,240.218895 133.913762,238.580567 134.001069,238.278859 C134.253191,237.407601 133.887008,237.814446 136.27136,235.486655 L136.651834,236.318032 C134.49363,238.425039 134.800846,238.083708 134.631717,238.668169 C134.559204,238.918752 134.220624,240.48788 134.168655,240.71428 C133.860798,242.055437 134.195298,244.540918 133.627227,246.436791 Z M165.349998,187.413818 L166.007122,187.133057 C166.139582,187.794421 166.283417,188.465209 166.454039,189.225322 C168.064616,196.400384 168.076782,196.465612 167.98239,198.923936 C167.899009,201.095515 166.341376,205.131522 165.199112,207.254278 L165.660808,204.636347 C166.719047,202.669741 167.223553,200.827708 167.298802,198.867943 C167.385904,196.599463 167.371757,196.523612 165.803449,189.536859 C165.630694,188.767242 165.48473,188.086525 165.349998,187.413818 Z M180.430354,135.57294 L180.123478,134.679013 C181.126491,133.944478 182.123991,133.530013 184.525048,132.71886 C186.867556,131.927487 187.838877,131.5239 188.774032,130.839059 C189.5913,130.240549 189.95541,129.63051 190.593671,128.080828 C191.293326,126.382084 191.731055,125.648702 192.693125,124.94415 L193,125.838076 C192.182732,126.436586 191.818622,127.046625 191.180361,128.596307 C190.480706,130.295051 190.042977,131.028433 189.080907,131.732985 C188.077895,132.467521 187.080394,132.881985 184.679338,133.693138 C182.33683,134.484511 181.365509,134.888098 180.430354,135.57294 Z" id="arm-lines-r" fill="#000000" fill-rule="nonzero" opacity="0.1" transform="translate(163.000000, 185.690471) scale(-1, 1) translate(-163.000000, -185.690471) "></path>
                    <path d="M100.090268,209.665905 C100.697138,211.21617 102.062141,212.310036 104.256216,213.470481 C104.417454,213.55576 104.584605,213.643132 104.80954,213.759962 C105.092198,213.906589 105.249176,213.988029 105.380036,214.056189 C105.853691,214.302897 106.208125,214.491699 106.559491,214.68657 C107.897795,215.428805 113.465883,215.659405 124.42105,215.406026 C127.07678,215.344602 131.863812,214.991385 138.553893,214.396516 C139.385266,214.322592 140.244436,214.245077 141.138852,214.163387 C143.314348,213.964692 152.664552,213.081903 153.907261,212.978367 L154,214.091486 C152.764521,214.19442 143.421604,215.076521 141.240446,215.275734 C140.345173,215.357502 139.485121,215.435096 138.652822,215.509102 C131.937241,216.106238 127.135944,216.460509 124.446877,216.522703 C113.143178,216.784143 107.626634,216.555678 106.017746,215.663375 C105.676435,215.47408 105.329797,215.289431 104.864046,215.04684 C104.734133,214.979174 104.578159,214.898254 104.294696,214.751209 C104.067507,214.633209 103.898135,214.544676 103.733992,214.45786 C101.982812,213.531662 100.691787,212.603617 99.8442925,211.486546 L100.896177,228.316705 L99.7813765,228.38638 L98.7550674,211.965433 C97.9204776,212.875214 96.760905,213.66721 95.2660081,214.45786 C95.1018645,214.544676 94.9324928,214.633209 94.7053036,214.751209 C94.4218413,214.898254 94.265867,214.979174 94.1359542,215.04684 C93.6702025,215.289431 93.3235655,215.47408 92.9822541,215.663375 C91.373366,216.555678 85.8568223,216.784143 74.5531228,216.522703 C71.8640555,216.460509 67.0627592,216.106238 60.3471776,215.509102 C59.5148792,215.435096 58.6548266,215.357502 57.7595536,215.275734 C55.5783956,215.076521 46.2354792,214.19442 45,214.091486 L45.0927395,212.978367 C46.3354475,213.081903 55.6856518,213.964692 57.8611478,214.163387 C58.7555644,214.245077 59.614734,214.322592 60.4461066,214.396516 C67.1361876,214.991385 71.92322,215.344602 74.5789501,215.406026 C85.5341168,215.659405 91.1022051,215.428805 92.4405094,214.68657 C92.7918749,214.491699 93.146309,214.302897 93.6199638,214.056189 C93.7508245,213.988029 93.9078022,213.906589 94.1904595,213.759962 C94.4153952,213.643132 94.582546,213.55576 94.743784,213.470481 C96.9378593,212.310036 98.3028622,211.21617 98.9097325,209.665905 C98.506914,208.347319 98.5193202,206.76004 98.9314634,204.729692 C98.8025821,204.138383 98.6383099,203.502653 98.4394521,202.816567 L99.4854763,202.513383 C99.4862259,202.510795 99.486976,202.508206 99.4877266,202.505616 L99.5,202.509174 L99.5122734,202.505616 C99.513024,202.508206 99.5137741,202.510795 99.5145237,202.513383 L100.560548,202.816567 C100.36169,203.502653 100.197418,204.138383 100.068537,204.729692 C100.48068,206.76004 100.493086,208.347319 100.090268,209.665905 Z" id="breast" fill="#000000" fill-rule="nonzero" opacity="0.3"></path>
                    <g id="nipples" opacity="0.5" transform="translate(53.000000, 198.000000)">
                        <g id="left">
                            <path d="M4.5,9 C2.01471863,9 0,6.98528137 0,4.5 C0,2.01471863 2.01471863,0 4.5,0 C6.98528137,0 9,2.01471863 9,4.5 C9,6.98528137 6.98528137,9 4.5,9 Z" id="la" fill="#000000" fill-rule="nonzero" opacity="0.3"></path>
                            <circle id="ln" fill="#F2D3C3" opacity="0.400000006" cx="4.5" cy="4.5" r="1.22727273"></circle>
                            <path d="M4.5,6.54545455 C3.37032665,6.54545455 2.45454545,5.62967335 2.45454545,4.5 C2.45454545,3.37032665 3.37032665,2.45454545 4.5,2.45454545 C5.62967335,2.45454545 6.54545455,3.37032665 6.54545455,4.5 C6.54545455,5.62967335 5.62967335,6.54545455 4.5,6.54545455 Z M4.5,5.72727273 C5.17780401,5.72727273 5.72727273,5.17780401 5.72727273,4.5 C5.72727273,3.82219599 5.17780401,3.27272727 4.5,3.27272727 C3.82219599,3.27272727 3.27272727,3.82219599 3.27272727,4.5 C3.27272727,5.17780401 3.82219599,5.72727273 4.5,5.72727273 Z" id="lno" fill="#000000" fill-rule="nonzero" opacity="0.3"></path>
                        </g>
                        <g id="right" transform="translate(83.000000, 0.000000)">
                            <path d="M4.5,9 C2.01471863,9 0,6.98528137 0,4.5 C0,2.01471863 2.01471863,0 4.5,0 C6.98528137,0 9,2.01471863 9,4.5 C9,6.98528137 6.98528137,9 4.5,9 Z" id="ra" fill="#000000" fill-rule="nonzero" opacity="0.3"></path>
                            <circle id="rn" fill="#F2D3C3" opacity="0.400000006" cx="4.5" cy="4.5" r="1.22727273"></circle>
                            <path d="M4.5,6.54545455 C3.37032665,6.54545455 2.45454545,5.62967335 2.45454545,4.5 C2.45454545,3.37032665 3.37032665,2.45454545 4.5,2.45454545 C5.62967335,2.45454545 6.54545455,3.37032665 6.54545455,4.5 C6.54545455,5.62967335 5.62967335,6.54545455 4.5,6.54545455 Z M4.5,5.72727273 C5.17780401,5.72727273 5.72727273,5.17780401 5.72727273,4.5 C5.72727273,3.82219599 5.17780401,3.27272727 4.5,3.27272727 C3.82219599,3.27272727 3.27272727,3.82219599 3.27272727,4.5 C3.27272727,5.17780401 3.82219599,5.72727273 4.5,5.72727273 Z" id="rno" fill="#000000" fill-rule="nonzero" opacity="0.3"></path>
                        </g>
                    </g>
                    <path d="M91.0956853,143.078468 C90.3074678,141.87879 88.4020755,138.797821 88.0863548,138.351398 C87.4666916,137.475204 87.06032,137.164021 86.3642506,137.009164 C86.1586801,136.96343 74.4657699,136.066101 68.5837796,135.045839 L68.7567961,134.078468 C74.5329892,135.752166 86.3131771,135.984425 86.6803076,136.066101 C87.7300838,136.299648 88.3627168,136.784094 89.1259745,137.863328 C89.4618158,138.338201 91.3794499,141.438965 92.1535127,142.617099 L91.0956853,143.078468 Z" id="collarbone-l" fill="#000000" fill-rule="nonzero" opacity="0.129999995"></path>
                    <path d="M103.415302,143.078468 L102.480865,142.617099 C103.164637,141.438965 104.858587,138.338201 105.155254,137.863328 C105.829481,136.784094 106.38832,136.299648 107.315644,136.066101 C107.639951,135.984425 118.04603,135.752166 123.148455,134.078468 L123.30129,135.045839 C118.105408,136.066101 107.776426,136.96343 107.594835,137.009164 C106.979959,137.164021 106.620989,137.475204 106.073607,138.351398 C105.794713,138.797821 104.111577,141.87879 103.415302,143.078468 Z" id="collarbone-r" fill="#000000" fill-rule="nonzero" opacity="0.129999995"></path>
                    <path d="M78.6957753,228.406618 L79.1714122,227.526976 C83.3119282,229.765822 83.1728725,229.70924 84.4911144,229.578054 C84.4560761,229.581541 87.094824,229.234222 88.4528593,229.110726 C90.8993305,228.888249 93.8709433,228.763672 97.7148438,228.763672 L97.7148438,229.763672 C93.9001225,229.763672 90.9585581,229.886989 88.5434235,230.106616 C87.2108077,230.227801 84.5777204,230.574375 84.5901414,230.573139 C82.9822165,230.733153 83.0478687,230.759867 78.6957753,228.406618 Z M101.46794,229.357787 L101.586748,228.364869 L118.121904,230.343385 L118.003096,231.336302 L101.46794,229.357787 Z M82.2010909,246.060969 L82.5957841,245.142156 C87.1470683,247.097244 86.7055603,246.936686 87.7726435,246.911064 C88.1170609,246.902794 90.188637,246.739902 90.9600717,246.695234 C92.9867808,246.577881 95.3596881,246.524984 98.4543374,246.556667 L98.4441001,247.556614 C95.3716629,247.525159 93.021406,247.577551 91.0178779,247.693562 C90.2704178,247.736842 88.1734859,247.901728 87.7966479,247.910776 C86.5088676,247.941698 86.9677222,248.108564 82.2010909,246.060969 Z M102.719997,247.174205 L102.838596,246.181263 L116.983128,247.870716 L116.864529,248.863659 L102.719997,247.174205 Z M100.866847,246.032322 L99.8675284,246.069241 L99.3792471,232.852444 L100.378565,232.815525 L100.866847,246.032322 Z" id="ab-lines" fill="#000000" fill-rule="nonzero" opacity="0.2"></path>
                </g>
                <g id="face" transform="translate(47.000000, 33.000000)">
                    <path d="M46.0287495,51 C51.6114023,51 58,48.1168822 58,47.4471771 C58,46.5636352 53.0346048,46 46.0287495,46 C39.0228942,46 33,46.9601662 33,47.8437081 C33,48.6083174 41.0992856,51 46.0287495,51 Z" id="lips" fill="#3E3E3E" opacity="0.100000001"></path>
                    <path d="M34.3567045,47.010234 C39.5019747,47.3604179 43.3941595,47.5354432 46.0303945,47.5354432 C48.6722289,47.5354432 52.3156153,47.3596419 56.9582931,47.0078675 C56.7858335,46.9718566 56.603454,46.9335208 56.406943,46.8920127 C51.8204173,45.9232225 52.4410713,45.9214301 50.3695296,45.8307836 C50.0018236,45.8146935 47.9296448,45.6720868 47.4903665,45.9204266 C47.4695374,45.9322088 47.4695374,45.9322088 47.4484349,45.9441518 C46.913888,46.2465803 46.5996583,46.3645781 46.0919214,46.3759916 C45.69479,46.3849189 45.3331171,46.3006087 44.3725982,46.022378 C44.3428344,46.0137574 44.3428344,46.0137574 44.3131188,46.0051592 C43.4851481,45.7656785 41.2722145,45.8075716 40.9816573,45.8293662 C38.3065283,46.0300264 37.0601295,46.3519093 34.3567045,47.010234 Z M56.5693903,47.8364806 C52.1212181,48.167242 48.6089027,48.3327006 46.0303945,48.3327006 C43.3706671,48.3327006 39.4575455,48.1566234 34.2881556,47.8046025 C36.1712966,48.9172412 38.9931843,49.8186351 42.8952335,50.1113261 C43.1857907,50.1331207 48.2453898,50.2152751 48.6130959,50.199185 C51.0637725,50.0919483 54.3605548,48.925054 56.5693902,47.8364806 Z M33.876782,46.3073432 C36.8332268,45.5899505 38.1093819,45.2453995 40.9242104,45.0342604 C41.345146,45.0026863 43.5958826,44.9689499 44.5267923,45.2382045 C44.5567091,45.2468609 44.5567091,45.2468609 44.5865648,45.2555082 C45.4510862,45.5059315 45.7915298,45.5852929 46.074663,45.5789282 C46.4252103,45.5710482 46.6359445,45.4919144 47.0685918,45.2471373 C47.0895448,45.235279 47.0895448,45.235279 47.1107443,45.2232872 C47.6650258,44.9099319 49.8592324,45.0104618 50.403102,45.0342604 C52.5342404,45.1275148 51.9316653,45.1325126 56.5657731,46.1113533 C56.7710332,46.1547095 56.9607558,46.1945787 57.1397726,46.2319336 L57.0029457,46.0702374 L57.5955483,45.5496303 L59,47.2093504 L58.5049206,47.6442824 L58.5143327,47.6592532 C58.4819977,47.6803586 58.4489831,47.7016141 58.4153056,47.7230101 L58.4073973,47.7299575 L58.4063353,47.7287024 C56.3476638,49.0335824 51.8346109,50.8562102 48.6466682,50.9957082 C48.1027986,51.0195068 43.2587222,50.938006 42.8377866,50.9064318 C38.0245022,50.5453895 34.8236724,49.3162791 32.838322,47.7823432 L32.5926027,48.0727237 L32,47.5521165 L33.4044517,45.8923964 L33.876782,46.3073432 Z" id="mouth-outline" fill="#000000" fill-rule="nonzero" opacity="0.3"></path>
                    <path d="M49.5309774,36.9156383 C49.0914927,37.3848888 48.3270545,37.6480043 47.1706922,37.8207698 C44.4114862,38.2330069 42.9753409,37.9468872 42.1433953,36.8297003 C42.033523,36.8424595 41.873794,36.8642999 41.5942483,36.9032172 C41.2448636,36.9498617 40.9721872,36.9783919 40.7008532,36.9920069 C40.17415,37.0184358 39.7386592,36.9811444 39.3802483,36.852876 C38.3168899,36.4723204 37.834138,34.9625832 38.05078,34.130099 C38.2244057,33.4629126 38.3267253,33.1175172 38.4419386,32.8420607 C38.781531,32.0301496 39.036665,31.9573085 40.0788871,32.0453371 C40.7030905,32.0980589 41.2117016,32.0958357 41.9221625,32 L42.0245366,33.288481 C42.0153522,33.2897199 42.0061974,33.2909445 41.9970718,33.2921546 C42.0676648,33.5208523 42.1288945,33.765294 42.1977104,34.0772049 C42.2156935,34.1587139 42.2308083,34.2288447 42.2625683,34.377201 C42.3615477,34.8389499 42.4685813,35.2308792 42.604148,35.558436 C42.8326356,35.6420079 43.0266062,35.861259 42.9970029,36.2263743 C43.6306711,36.9672018 44.7410846,37.0723506 47.0345596,36.7296958 C48.8875006,36.4528585 49.1446393,36.1984501 48.9353747,34.8646101 C48.7692783,33.8059222 46.2915182,25.8258647 45.8357398,24.2311387 C45.3034215,22.368607 45.0253481,20.4867506 44.6844588,16.9661327 C44.7147023,17.2784798 44.424515,14.224537 44.3338532,13.3311544 C44.1825585,11.8402955 44.0301888,10.5099133 43.85083,9.1582385 L44.8467088,9 C45.0278365,10.3650053 45.1815703,11.7072977 45.3340278,13.2096147 C45.4251475,14.1075095 45.7157651,17.1659811 45.6851799,16.8501047 C46.0193948,20.3017915 46.28946,22.1294523 46.7961867,23.9024414 C47.0908353,24.9333892 48.3880992,29.1367467 49.2206517,32.0154889 C49.8659061,32.0959106 50.3487676,32.0950524 50.9337873,32.0453371 C51.9696553,31.9573085 52.2232338,32.0301496 52.5607558,32.8420607 C52.6752667,33.1175172 52.7769625,33.4629126 52.9495296,34.130099 C53.1648508,34.9625832 52.6850421,36.4723204 51.6281668,36.852876 C51.271941,36.9811444 50.8391053,37.0184358 50.3156133,36.9920069 C50.1512194,36.9837073 49.8896741,36.9582511 49.5309774,36.9156383 Z M49.952275,36.0563318 C50.1300932,35.8126452 50.2638806,35.6930676 50.3536369,35.697599 C50.7847764,35.7193654 51.1274128,35.6898452 51.3664646,35.6037684 C51.8306679,35.4366198 52.0586011,34.719419 52.0137649,34.5460713 C51.8597407,33.9505766 51.7710533,33.6493623 51.6931399,33.4619413 C51.6113914,33.2652946 51.6665862,33.2811495 50.9977042,33.3379915 C50.5131293,33.3791709 50.0872228,33.3893586 49.5994087,33.3527269 C49.7731053,33.9845128 49.8925719,34.4576475 49.9271872,34.6782827 C50.0130976,35.2258709 50.0249373,35.6792092 49.952275,36.0563318 Z M41.5421403,35.6077205 C41.4441191,35.3107638 41.3591509,34.9846874 41.2828379,34.6286793 C41.2511967,34.48089 41.2367423,34.4138229 41.2194927,34.3356386 C41.1423787,33.9861165 41.0782113,33.7398158 41,33.5098577 L41.3781568,33.3558482 C40.9053004,33.3887303 40.4877371,33.3779556 40.0145782,33.3379915 C39.3415932,33.2811495 39.3971266,33.2652946 39.3148765,33.4619413 C39.2364852,33.6493623 39.1472538,33.9505766 38.9922848,34.5460713 C38.9471736,34.719419 39.1765049,35.4366198 39.6435557,35.6037684 C39.8840739,35.6898452 40.2288121,35.7193654 40.6625963,35.697599 C40.9088376,35.6852431 41.1627115,35.6586802 41.4929163,35.6145963 C41.5097118,35.6122481 41.5261152,35.6099566 41.5421403,35.6077205 Z" id="nose" fill="#000000" fill-rule="nonzero" opacity="0.3"></path>
                    <g id="eye-l" transform="translate(23.500000, 11.500000) rotate(-5.000000) translate(-23.500000, -11.500000) translate(9.000000, 3.000000)">
                        <path d="M17.161185,14.534465 C19.8444451,14.534465 22.3195974,14.22596 24.586642,13.60895 C24.4572638,12.0117541 23.6426328,10.9434554 22.142749,10.4040539 C19.8705197,9.58689461 17.0104188,8.61868747 15.3215931,8.61868747 C13.9060647,8.61868747 12.7118573,9.01004907 11.4874412,9.33609849 C10.7563921,9.53076935 9.80110419,10.0762447 8.62157751,10.9725245 C11.631389,13.3471515 14.4779249,14.534465 17.161185,14.534465 Z" id="eye-white" fill="#FFFFFF" opacity="0.800000012"></path>
                        <path d="M17.0097597,13.1496892 C18.9333305,13.1496892 20.4926928,11.5657822 20.4926928,9.61193392 C20.4926928,9.34539727 19.0634944,8.91658061 16.2050977,8.32548394 C14.4195836,7.88055174 13.5268266,8.3093684 13.5268266,9.61193392 C13.5268266,11.5657822 15.0861888,13.1496892 17.0097597,13.1496892 Z" id="iris" fill="#D3D3D3" opacity="0.700000048"></path>
                        <path d="M13.5656086,8.81248598 C12.6624556,9.03740991 11.7021979,9.29873849 10.6217551,9.7768463 C10.0313419,10.0381106 9.44230259,10.5607371 8.75764987,10.9166893 C12.610029,14.4416487 18.0486975,15.4205215 24.6939876,13.2671316 L24.8674232,13.7837708 C18.002265,16.0084084 12.3291683,14.9697534 8.31998875,11.2593112 L8.55284877,11.0164364 C8.51338137,11.0343125 8.47358386,11.0515332 8.43343918,11.0680232 L8.21985692,10.566109 C9.04746551,10.2261564 9.55457203,9.49408022 10.2425502,9.19272472 C14.8588932,7.170625 16.6694057,7.06768833 23.4623047,9.82914913 L23.2506048,10.3318326 C20.9387308,9.39200564 19.3275138,8.76653053 17.9753494,8.47997059 C20.5067266,9.27718222 23.0763889,10.2904362 23.6188396,10.5814374 C24.0660105,10.8213251 24.2316115,10.93286 24.5292201,11.6003277 C24.6615086,11.8970204 24.4879334,12.4616075 24.9448513,12.9256522 L24.5468872,13.303903 C24.059788,12.8092062 24.1441676,12.232122 24.0135196,11.9364808 C23.7556851,11.3530311 23.6056652,11.2789897 23.1912547,10.9895972 C22.8848531,10.7756299 21.9333855,10.3833708 20.7046204,9.94479569 C20.7974935,10.4504218 20.7397143,10.9716518 20.5283928,11.3841554 C19.8914538,12.6274724 18.7471848,13.4491981 17.5056594,13.4825805 C14.8518235,13.5539375 12.6533241,11.2662201 13.5656086,8.81248598 Z M14.0505058,8.69292869 L14.1882203,8.75534739 C13.1800342,10.902502 15.1056435,13.0028945 17.4905115,12.9387696 C18.513069,12.9112748 19.4829996,12.2147455 20.033799,11.1395746 C20.2312244,10.7541965 20.246969,10.2093151 20.0751612,9.72443391 C19.6586137,9.58129068 19.2201763,9.4356681 18.7716649,9.29180641 C18.677635,9.34424153 18.6083524,9.37189404 18.5005384,9.39722515 L18.4304092,9.19171907 L18.4417006,9.18686745 C17.8036158,8.98567105 17.1512469,8.7900281 16.5176768,8.61181059 C16.5316839,8.67230884 16.5493147,8.74773623 16.558711,8.78493809 L16.3437472,8.83734804 C16.3260891,8.76743604 16.282011,8.57449084 16.2815263,8.57247354 C16.2498978,8.44084292 16.2230018,8.3715244 16.1729097,8.30378253 C15.6917405,8.32040714 15.2183523,8.39287979 14.7246704,8.52276206 C14.502254,8.58127739 14.2778896,8.63697829 14.0505058,8.69292869 Z M16.4536887,8.37015074 L16.4737649,8.30063162 C16.4577382,8.30042033 16.4417271,8.3002666 16.4257298,8.30017341 C16.4357742,8.32217439 16.4449879,8.34530431 16.453689,8.37014961 Z M19.0393238,10.4236376 L19.4836506,10.5233924 L19.4517749,10.7380337 C19.2982647,10.7281985 19.1936702,10.702489 18.9799424,10.6335209 L18.5356156,10.533766 L18.5674913,10.3191248 C18.7210015,10.32896 18.825596,10.3546694 19.0393238,10.4236376 Z M18.1465921,12.0873689 L17.9413159,12.1690794 L17.5602353,11.2449453 L17.7655115,11.1632347 L18.1465921,12.0873689 Z M18.6212111,9.90607385 L18.6356235,9.68892922 L19.6628108,9.75473958 L19.6483984,9.97188421 L18.6212111,9.90607385 Z M14.4293921,9.88794446 L14.4438045,9.67079983 C14.5816585,9.67963193 14.691722,9.67873797 14.9401272,9.67062923 C15.1957346,9.66228538 15.3107412,9.66135128 15.458217,9.67079983 L15.4438046,9.88794446 C15.3059505,9.87911236 15.195887,9.88000631 14.9474819,9.88811506 C14.6918745,9.8964589 14.5768678,9.89739301 14.4293921,9.88794446 Z M14.8657027,10.9991847 L14.7937176,10.7933929 C14.8160998,10.785789 14.8160998,10.785789 14.8378786,10.7782056 C14.9552561,10.7370807 15.0579561,10.6949241 15.1662336,10.6440447 C15.2781092,10.5914746 15.2740786,10.5935753 15.6363332,10.4017926 L15.741397,10.5933573 C15.3740752,10.7878227 15.3785403,10.7854955 15.2617958,10.8403535 C15.1467112,10.8944316 15.0369553,10.9394845 14.9122727,10.9831688 C14.8892715,10.9911778 14.8892715,10.9911778 14.8657027,10.9991847 Z M17.0217323,12.2535294 L16.8094324,12.1915177 C16.8645123,12.0094944 16.8907396,11.8959796 16.9036789,11.7843815 C16.9148905,11.6876846 16.9167461,11.6138932 16.9166559,11.3744141 C16.9166485,11.3547772 16.9166485,11.3547772 16.9166461,11.334449 L17.1381297,11.334449 C17.1381322,11.354712 17.1381322,11.354712 17.1381395,11.3743335 C17.1382331,11.6226858 17.136264,11.7009888 17.1237393,11.8090109 C17.1091105,11.9351809 17.0801981,12.0603168 17.0217323,12.2535294 Z M19.0496172,11.3671524 L18.904626,11.5316502 L18.1838983,10.9184384 L18.3288896,10.7539406 L19.0496172,11.3671524 Z M15.7402186,11.7910218 L15.5673516,11.654983 L16.0755042,11.0316772 L16.2483712,11.167716 L15.7402186,11.7910218 Z M14.9936718,8.76885727 L15.1017134,8.57889806 L15.8994277,9.01685902 L15.7913861,9.20681823 L14.9936718,8.76885727 Z M16.9909468,10.8457523 C16.226434,10.8457523 15.7596333,10.5193989 15.7596333,9.91849697 C15.7596333,9.31759505 16.4565829,8.96959262 17.2210957,8.96959262 C17.9856085,8.96959262 18.2222603,9.31759505 18.2222603,9.91849697 C18.2222603,10.5193989 17.7554596,10.8457523 16.9909468,10.8457523 Z" id="eye" fill="#000000" fill-rule="nonzero" opacity="0.5"></path>
                        <path d="M25.1081908,14.544326 L25.358613,14.8883397 C21.1834449,17.9066986 13.6544623,17.2228015 7.47161121,14.2433712 L7.65726639,13.8607559 C13.7137601,16.7792963 21.0898551,17.4493058 25.1081908,14.544326 Z" id="eye-line" fill="#000000" fill-rule="nonzero" opacity="0.3"></path>
                        <path d="M0.771231432,3.65172621 L1.45664885,1.1714314 C2.84175272,-0.075633833 4.43151639,-0.0221705459 10.1654009,0.738667215 C10.4542552,0.776969139 10.574625,0.792873222 10.7424079,0.814849926 C13.3048419,1.15048524 14.7590279,1.27188899 15.9570579,1.19898086 C16.393614,1.17241351 16.8381604,1.14341584 17.370667,1.1071831 C22.3572186,0.767888866 20.7869519,0.510124178 22.5875068,0.738492858 C25.0859604,1.05537771 26.9628238,2.01183565 28.4648994,3.86967091 L26.2281394,5.5698913 C24.3950496,3.30264265 25.3712105,3.32539189 17.5696228,3.85622642 C17.0306913,3.89289632 16.5795173,3.92232631 16.1350913,3.9493726 C14.6870345,4.03749652 13.1107937,3.90590293 10.361925,3.54584786 C10.1921728,3.5236132 10.0702347,3.50750191 9.78004585,3.46902281 C5.56383959,2.90956806 1.15069129,3.3100831 0.771231432,3.65172621 Z" id="eye-brow" fill="#10174F" fill-rule="nonzero"></path>
                        <path d="M9.84422833,3.01395779 C10.1951633,3.06046297 10.2605197,3.06909303 10.4253388,3.09068154 C13.2901003,3.4659166 14.7593275,3.57289263 16.1054191,3.49097397 C16.5362309,3.4647562 16.981772,3.43579478 17.5364635,3.39805253 C25.2050645,2.87626667 24.481702,2.8655177 26.3013116,4.93065773 L27.7905587,3.79864166 C26.4422983,2.2944955 24.7751584,1.4791713 22.5260681,1.19391379 C20.819029,0.977405935 22.5187797,1.21732605 17.4038263,1.56535699 C16.8539985,1.60276829 16.41269,1.63145698 15.9867301,1.65737949 C14.7898057,1.73022033 13.3717925,1.62272707 10.6789941,1.27001625 C10.5153942,1.24858745 10.4504797,1.24001566 10.1011751,1.19372648 C4.36021869,0.431950344 3.02149956,0.453865809 1.87793127,1.42155348 L1.44565847,2.98580316 C3.22664418,2.66843895 6.89786273,2.6230001 9.84422833,3.01395779 Z M0.771231432,3.65172621 L1.45664885,1.1714314 C2.84175272,-0.075633833 4.43151639,-0.0221705459 10.1654009,0.738667215 C10.4542552,0.776969139 10.574625,0.792873222 10.7424079,0.814849926 C13.3048419,1.15048524 14.7590279,1.27188899 15.9570579,1.19898086 C16.393614,1.17241351 16.8381604,1.14341584 17.370667,1.1071831 C22.3572186,0.767888866 20.7869519,0.510124178 22.5875068,0.738492858 C25.0859604,1.05537771 26.9628238,2.01183565 28.4648994,3.86967091 L26.2281394,5.5698913 C24.3950496,3.30264265 25.3712105,3.32539189 17.5696228,3.85622642 C17.0306913,3.89289632 16.5795173,3.92232631 16.1350913,3.9493726 C14.6870345,4.03749652 13.1107937,3.90590293 10.361925,3.54584786 C10.1921728,3.5236132 10.0702347,3.50750191 9.78004585,3.46902281 C5.56383959,2.90956806 1.15069129,3.3100831 0.771231432,3.65172621 Z" id="eye-brow" fill="#000000" fill-rule="nonzero" opacity="0.05"></path>
                        <path d="M11.5240444,8.89172467 L11.4965006,8.93100429 C10.886476,8.74640991 10.4697917,8.56824103 10.2464476,8.39649764 C10.0231036,8.22475425 9.94325287,8.17256204 10.0068955,8.239921 C10.2145698,8.18329498 10.4355434,8.24505565 10.6698165,8.42520302 C10.8424443,8.5579475 11.0651639,8.64495797 11.3379751,8.68623442 L10.5866557,7.85649597 C10.7065126,7.7589775 10.8562071,7.82121065 11.0357392,8.04319543 C11.2152712,8.2651802 11.4649117,8.51311652 11.7846605,8.78700438 L11.5875302,8.96183686 L11.5240444,8.89172467 Z M10.2800698,9.37851627 L10.1619499,9.61910027 C9.54559001,9.43263968 9.09919903,9.26499637 8.82277697,9.11617032 C8.5463549,8.96734426 8.4161766,8.90446711 8.43224206,8.92753887 C8.71067587,8.87392618 8.98444957,8.91956541 9.25356315,9.06445657 C9.52267673,9.20934772 9.86484562,9.31403429 10.2800698,9.37851627 Z M12.3141884,8.63176414 L12.1107448,8.79847693 L11.1581377,7.72900313 C11.2651829,7.63959073 11.4011284,7.70518401 11.5659745,7.92578298 C11.7308205,8.14638195 11.9802252,8.381709 12.3141884,8.63176414 Z M13.979059,8.48142705 L13.712232,8.52821861 C13.3050953,8.2381573 13.0229303,7.99344799 12.8657371,7.79409069 C12.7085438,7.59473339 12.6257861,7.51387114 12.6174639,7.55150393 C12.711514,7.42272592 12.8058679,7.4306794 12.9005255,7.57536437 C13.0228753,7.76237705 12.9950112,7.49745408 13.0870377,7.61416488 C13.2858606,7.86631808 13.583201,8.15540547 13.979059,8.48142705 Z M15.0435025,8.26937749 L14.8469629,8.44493782 C14.5767662,8.27374716 14.3579565,8.08538392 14.1905339,7.8798481 C14.0231113,7.67431229 13.9289552,7.55807458 13.9080657,7.53113498 C14.0563284,7.49122074 14.2181859,7.57896023 14.393638,7.79435346 C14.5690901,8.00974669 14.7857116,8.16808804 15.0435025,8.26937749 Z M16.1970197,8.25343042 L16.0052914,8.43473115 C15.61336,8.16770106 15.3416304,7.94632438 15.1901024,7.77060111 C15.0385744,7.59487784 15.0034545,7.52262597 15.0847425,7.55384549 C15.2129423,7.48892756 15.3107083,7.51457994 15.3780404,7.63080262 C15.4645259,7.78008624 15.3414757,7.6066002 15.4202922,7.69800171 C15.5911508,7.89614228 15.85006,8.08128519 16.1970197,8.25343042 Z M17.2191393,8.37895373 L17.0064152,8.5324393 C16.5112935,8.21940014 16.1935267,7.95617838 16.0531146,7.74277403 C15.9127026,7.52936969 15.8156391,7.42014203 15.7619242,7.41509105 C15.9264159,7.29458228 16.0315135,7.30201795 16.077217,7.43739809 C16.1424215,7.63054309 16.2600485,7.51492065 16.3352617,7.62923294 C16.4895531,7.86373172 16.7841789,8.11363865 17.2191393,8.37895373 Z M17.7828302,8.52055356 L17.5305329,8.57867091 C17.3079688,8.19108634 17.1767633,7.90244795 17.1369166,7.71275575 C17.0970699,7.52306355 17.0801511,7.42415617 17.0861601,7.41603359 C17.224312,7.38462111 17.2893326,7.41864422 17.281222,7.51810292 C17.2671075,7.69118563 17.3548095,7.7324375 17.3766509,7.83641451 C17.4173184,8.03001415 17.5527115,8.2580605 17.7828302,8.52055356 Z M18.2929183,8.65745701 L18.0345893,8.65786608 C17.8883479,8.39622708 17.8151265,8.19566244 17.814925,8.05617217 C17.8147236,7.9166819 17.8712134,7.8084713 17.9843943,7.73154035 L18.2912785,7.52188253 C18.1468635,7.77633065 18.0747383,7.96055836 18.0749029,8.07456566 C18.0750675,8.18857296 18.1477393,8.38287008 18.2929183,8.65745701 Z M18.9138927,8.65275677 L18.6555634,8.6527917 C18.525856,8.40575854 18.4609949,8.22212154 18.4609801,8.10188071 C18.4609653,7.98163987 18.5436795,7.89017175 18.7091227,7.82747635 L18.9137666,7.62972264 C18.8323554,7.84834939 18.7916567,8.01353422 18.7916705,8.12527712 C18.7916842,8.23702002 18.832425,8.41284657 18.9138927,8.65275677 Z M9.33077919,11.4343778 L9.50486,11.7128158 C9.34099358,11.741944 9.24291857,11.7644054 9.21063497,11.7802002 C8.97798115,11.8940259 8.80008744,11.9590508 8.67695386,11.9752747 C8.52819082,11.9948756 8.40172099,11.9538818 8.29754437,11.8522931 C8.3985952,11.7762158 8.53127533,11.7273525 8.69558476,11.7057032 C8.85989418,11.6840539 9.07162566,11.5936121 9.33077919,11.4343778 Z M9.62735379,11.7214822 L9.75687795,11.9555413 C9.58744856,12.1344789 9.4415947,12.2610495 9.31931637,12.3352531 C9.19703804,12.4094566 9.07877694,12.4634403 8.96453306,12.497204 C9.00700549,12.3711334 9.09472588,12.2677527 9.22769421,12.187062 C9.36066255,12.1063713 9.49388241,11.9511781 9.62735379,11.7214822 Z M10.1426348,11.8705364 L10.2940872,12.0896873 C10.1345399,12.3159459 9.99632912,12.4733618 9.87945479,12.5619349 C9.76258046,12.650508 9.65676532,12.6855146 9.56200936,12.6669547 L9.13189603,12.6365241 C9.43455882,12.5446572 9.64406483,12.4546361 9.76041409,12.3664608 C9.87676334,12.2782856 10.0041702,12.1129775 10.1426348,11.8705364 Z M10.4112594,12.4035293 L10.6253561,12.5549075 C10.4963256,12.892701 10.3956449,13.1176884 10.323314,13.2298697 C10.2148176,13.3981416 10.0427099,13.3297087 10.206767,13.0752651 C10.3161384,12.905636 10.3843025,12.6817241 10.4112594,12.4035293 Z M10.8574821,12.5253549 L11.0774837,12.6671448 C10.9480406,13.0909497 10.8416123,13.373816 10.7581987,13.5157436 C10.6330785,13.7286352 10.4257004,13.5848751 10.5712929,13.3371503 C10.6683546,13.1720003 10.763751,12.9014019 10.8574821,12.5253549 Z M11.8296946,12.8650099 L12.01456,12.9671055 C11.9264262,13.3034329 11.846709,13.5312242 11.7754084,13.6504794 C11.7041079,13.7697346 11.6450057,13.8446257 11.5981018,13.8751526 C11.5020763,13.8012332 11.4921704,13.7005371 11.568384,13.5730644 C11.6445976,13.4455917 11.7317012,13.2095736 11.8296946,12.8650099 Z M12.122061,13.1027757 L12.3714366,13.1204191 C12.3783532,13.45857 12.3630052,13.6781941 12.3253926,13.7792915 C12.2877799,13.8803889 12.2561919,13.9272598 12.2306285,13.919904 L11.8100703,14.0359898 C11.9632975,13.8790367 12.0557847,13.7578941 12.0875319,13.6725622 C12.1192791,13.5872303 12.1307888,13.3973014 12.122061,13.1027757 Z M12.9444205,13.3501291 L13.1255938,13.3752438 C13.1096821,13.7214633 13.0942506,13.9519635 13.0792991,14.0667446 C13.0643476,14.1815256 13.0579326,14.2671246 13.0600541,14.3235415 C12.9343193,14.2682503 12.8795648,14.1783236 12.8957904,14.0537613 C12.912016,13.929199 12.928226,13.6946549 12.9444205,13.3501291 Z M14.0088585,13.6071104 L14.2360188,13.7359285 C14.2309467,13.9528287 14.204164,14.1081663 14.1556705,14.2019415 C14.0829304,14.3426044 13.8894458,14.2909941 13.9727232,14.1299545 C14.0282415,14.0225949 14.0402866,13.8483135 14.0088585,13.6071104 Z M14.9213786,13.9629581 L15.179484,13.97422 C15.1824565,14.201302 15.1819384,14.3652175 15.1779297,14.4659666 C15.1719166,14.6170901 14.9483155,14.6195419 14.9569884,14.4015718 C14.9627702,14.2562584 14.9509003,14.1100538 14.9213786,13.9629581 Z M11.039043,9.18551619 L10.9103182,9.42005835 C10.3417354,9.22194024 9.93788834,9.0509262 9.69877721,8.90701623 C9.45966607,8.76310627 9.34887062,8.68670681 9.36639085,8.67781784 C9.50885465,8.64189737 9.68771178,8.68871179 9.90296222,8.81826111 C10.1182127,8.94781042 10.4969063,9.07022878 11.039043,9.18551619 Z M10.0699503,9.80564441 L9.99592781,10.0648204 C9.31673084,10.0822531 8.84208042,10.0486715 8.57197655,9.9640755 C8.30187267,9.87947955 8.16588806,9.74247525 8.16402272,9.55306259 C8.49438045,9.62571317 8.78640617,9.70176662 9.0400999,9.78122294 C9.29379363,9.86067927 9.63707708,9.86881975 10.0699503,9.80564441 Z M13.0070061,8.59180774 L12.7968609,8.74914074 C12.3724157,8.41730105 12.0923866,8.15206484 11.9567736,7.9534321 C11.8211606,7.75479936 11.7619174,7.65359033 11.7790439,7.649805 C11.9973736,7.67516101 12.1887368,7.80823515 12.3531334,8.0490274 C12.5175301,8.28981965 12.7354876,8.47074643 13.0070061,8.59180774 Z" id="eye-lashes" fill="#000000" fill-rule="nonzero" opacity="0.300000012" transform="translate(13.538958, 10.951561) rotate(-1.000000) translate(-13.538958, -10.951561) "></path>
                    </g>
                    <g id="eye-r" transform="translate(62.456422, 10.998097) scale(-1, 1) rotate(-5.000000) translate(-62.456422, -10.998097) translate(47.956422, 1.998097)">
                        <path d="M15.1558429,14.8127211 C17.8196685,14.8127211 20.2768937,14.4979431 22.5275184,13.868387 C22.3990772,12.2387142 21.5903465,11.1486929 20.1013261,10.5983234 C17.8455543,9.76454823 15.0061687,8.77665383 13.3295749,8.77665383 C11.924299,8.77665383 10.7387411,9.17597327 9.52319327,9.50865249 C8.79743905,9.70728173 7.84907017,10.2638486 6.67808663,11.1783531 C9.66609852,13.6012651 12.4920173,14.8127211 15.1558429,14.8127211 Z" id="eye-white" fill="#FFFFFF" opacity="0.800000012"></path>
                        <path d="M15.0055143,13.3997877 C16.915153,13.3997877 18.463221,11.783674 18.463221,9.79009668 C18.463221,9.51814034 17.0443742,9.08060424 14.2066804,8.47748838 C12.4340986,8.02350904 11.5478077,8.46104515 11.5478077,9.79009668 C11.5478077,11.783674 13.0958757,13.3997877 15.0055143,13.3997877 Z" id="iris" fill="#D3D3D3" opacity="0.700000048"></path>
                        <path d="M11.5863087,8.97439298 C10.6896972,9.20389046 9.73639451,9.47053282 8.66377723,9.95836234 C8.07764033,10.2249391 7.49286732,10.7581925 6.81317344,11.1213826 C10.6376503,14.7180175 16.0369273,15.7167944 22.6340865,13.5196181 L22.8062659,14.0467625 C15.9908311,16.3166353 10.3588238,15.2568606 6.37868224,11.4709713 L6.60985569,11.2231579 C6.57067414,11.2413975 6.53116488,11.2589683 6.49131096,11.2757937 L6.27927566,10.7636737 C7.10088998,10.4168086 7.6043236,9.66984657 8.2873188,9.36236339 C12.8702263,7.29914685 14.6676255,7.1941171 21.4113245,10.0117287 L21.2011579,10.5246335 C18.9060285,9.56569643 17.3064813,8.92750309 15.9641104,8.63511632 C18.4771532,9.44853823 21.0282038,10.4823954 21.5667256,10.7793137 C22.0106577,11.0240793 22.1750593,11.1378821 22.4705124,11.8189219 C22.6018428,12.1216474 22.4295247,12.6977147 22.8831332,13.1711952 L22.4880515,13.5571373 C22.0044803,13.0523815 22.0882487,12.463563 21.958547,12.1619103 C21.70258,11.5665969 21.5536467,11.4910499 21.1422376,11.195773 C20.8380553,10.9774549 19.893479,10.5772197 18.6736138,10.1297268 C18.7658142,10.6456342 18.7084535,11.1774627 18.4986625,11.598354 C17.8663368,12.8669523 16.7303556,13.7053868 15.4978224,13.739448 C12.8632078,13.8122559 10.6806318,11.4780207 11.5863087,8.97439298 Z M12.067694,8.85240465 L12.204411,8.91609255 C11.203527,11.1069069 13.1151894,13.2500081 15.4827842,13.1845793 C16.4979354,13.1565255 17.4608409,12.4458331 18.007651,11.3488 C18.2036464,10.9555857 18.2192771,10.3996249 18.0487136,9.90488421 C17.6351831,9.75883035 17.1999212,9.61024672 16.7546583,9.46345978 C16.6613095,9.51696111 16.5925287,9.54517589 16.4854956,9.57102208 L16.4158743,9.36133729 L16.4270839,9.35638703 C15.7936207,9.15109956 15.1459768,8.95147845 14.5169955,8.76963711 C14.5309012,8.83136553 14.5484043,8.90832663 14.5577325,8.94628494 L14.3443257,8.99976058 C14.3267955,8.92842701 14.2830367,8.73155851 14.2825555,8.72950019 C14.2511561,8.59519304 14.2244549,8.52446501 14.1747255,8.4553457 C13.6970414,8.47230835 13.2270819,8.54625463 12.7369757,8.6787779 C12.5161702,8.73848306 12.2934308,8.79531657 12.067694,8.85240465 Z M14.4534709,8.52306342 L14.4734017,8.45213072 C14.4574911,8.45191513 14.441596,8.45175828 14.4257145,8.45166319 C14.4356861,8.47411153 14.4448331,8.49771177 14.4534712,8.52306227 Z M17.0203786,10.6183053 L17.4614873,10.7200885 L17.4298424,10.9390942 C17.277444,10.9290591 17.1736071,10.9028268 16.9614274,10.8324563 L16.5203187,10.7306731 L16.5519636,10.5116674 C16.7043619,10.5217026 16.8081989,10.5479348 17.0203786,10.6183053 Z M16.1341129,12.3158665 L15.9303235,12.3992385 L15.552003,11.4563133 L15.7557924,11.3729412 L16.1341129,12.3158665 Z M16.6052943,10.0902176 L16.6196023,9.86865758 L17.6393498,9.93580611 L17.6250418,10.1573661 L16.6052943,10.0902176 Z M12.443836,10.0717195 L12.458144,9.85015955 C12.5949996,9.85917124 12.7042659,9.85825911 12.9508719,9.84998548 C13.204628,9.84147197 13.3188017,9.84051887 13.4652093,9.85015955 L13.4509013,10.0717195 C13.3140457,10.0627078 13.2047793,10.06362 12.9581734,10.0718936 C12.7044173,10.0804071 12.5902436,10.0813602 12.443836,10.0717195 Z M12.8769865,11.2055555 L12.8055228,10.9955791 C12.8277429,10.9878206 12.8277429,10.9878206 12.8493639,10.980083 C12.9658913,10.9381219 13.0678474,10.8951081 13.1753407,10.8431941 C13.286406,10.7895551 13.2824046,10.7916985 13.6420354,10.5960162 L13.7463383,10.7914761 C13.3816769,10.9898957 13.3861096,10.9875212 13.2702107,11.0434946 C13.1559597,11.0986723 13.0469987,11.1446413 12.9232192,11.1892139 C12.9003846,11.1973858 12.9003846,11.1973858 12.8769865,11.2055555 Z M15.0174003,12.4854057 L14.806638,12.422133 C14.8613189,12.2364085 14.8873563,12.1205855 14.9002019,12.0067182 C14.9113323,11.9080551 14.9131745,11.8327633 14.9130849,11.5884146 C14.9130776,11.5683784 14.9130776,11.5683784 14.9130752,11.5476369 L15.1329547,11.5476369 C15.1329571,11.5683119 15.1329571,11.5683119 15.1329644,11.5883324 C15.1330573,11.8417346 15.1311024,11.9216298 15.1186685,12.0318484 C15.1041456,12.1605839 15.0754426,12.2882643 15.0174003,12.4854057 Z M17.0305975,11.5810053 L16.8866564,11.7488479 L16.1711489,11.1231673 L16.31509,10.9553246 L17.0305975,11.5810053 Z M13.7451684,12.0134935 L13.5735535,11.8746885 L14.0780255,11.2387086 L14.2496405,11.3775136 L13.7451684,12.0134935 Z M13.0040288,8.92987714 L13.1112878,8.73605535 L13.9032243,9.18292169 L13.7959653,9.37674348 L13.0040288,8.92987714 Z M14.9868378,11.0490032 C14.2278622,11.0490032 13.7644425,10.7160138 13.7644425,10.1028933 C13.7644425,9.4897728 14.4563441,9.13469419 15.2153197,9.13469419 C15.9742953,9.13469419 16.209233,9.4897728 16.209233,10.1028933 C16.209233,10.7160138 15.7458133,11.0490032 14.9868378,11.0490032 Z" id="eye" fill="#000000" fill-rule="nonzero" opacity="0.5"></path>
                        <path d="M23.0421364,14.8279266 L23.2970513,15.1686475 C19.1504494,18.2496246 11.6732869,17.5515683 5.53370368,14.5108053 L5.7235056,14.130216 C11.7346193,17.1073516 19.0545789,17.7907317 23.0421364,14.8279266 Z" id="eye-line" fill="#000000" fill-rule="nonzero" opacity="0.3"></path>
                        <path d="M0.759025986,3.88929227 L1.43947902,1.35856383 C2.81455078,0.0861411155 4.39280001,0.14069151 10.0851548,0.916999938 C10.3719169,0.956080683 10.4914149,0.972308154 10.6579826,0.994731727 C13.2018573,1.33719175 14.6455108,1.4610641 15.8348636,1.38667348 C16.2682578,1.35956591 16.7095844,1.32997861 17.2382341,1.29300912 C22.1886688,0.946815773 20.6113127,0.688328881 22.3988264,0.921341148 C24.8791841,1.24466945 26.7424536,2.22057574 28.2336499,4.11618772 L26.0130904,5.85097992 C24.1932774,3.53762966 25.1808309,3.55632236 17.4357489,4.09795074 C16.9007208,4.13536627 16.4528146,4.16539468 16.0116076,4.19299092 C14.5740388,4.28290674 13.0092145,4.14863736 10.2802555,3.78126102 C10.1117328,3.75857425 9.9906779,3.74213536 9.70259081,3.70287383 C5.51692194,3.13204328 1.13573747,3.54070229 0.759025986,3.88929227 Z" id="eye-brow" fill="#10174F" fill-rule="nonzero"></path>
                        <path d="M9.76630842,3.23855564 C10.1147016,3.28600645 10.1795846,3.29481199 10.34321,3.31683947 C13.1872224,3.69970446 14.6458082,3.80885572 15.9821502,3.72527135 C16.4098417,3.69852047 16.8521558,3.66897015 17.4028298,3.63046047 C25.0158882,3.09806475 24.2793023,3.09161633 26.0857326,5.19874835 L27.5641933,4.04371417 C26.2256982,2.50898312 24.5706332,1.67708034 22.3378327,1.38602248 C20.6431574,1.16511222 22.3490598,1.40539169 17.2711533,1.76049939 C16.7253078,1.79867141 16.2871956,1.82794345 15.8643209,1.85439305 C14.6760657,1.92871502 13.2683229,1.81903603 10.5950281,1.45915328 C10.4326131,1.43728875 10.3681688,1.42854266 10.0213941,1.38131225 C4.32201871,0.60404637 2.99299573,0.626407457 1.85771015,1.61377182 L1.42856825,3.20982852 C3.19665452,2.88601112 6.84128294,2.83964833 9.76630842,3.23855564 Z M0.759025986,3.88929227 L1.43947902,1.35856383 C2.81455078,0.0861411155 4.39280001,0.14069151 10.0851548,0.916999938 C10.3719169,0.956080683 10.4914149,0.972308154 10.6579826,0.994731727 C13.2018573,1.33719175 14.6455108,1.4610641 15.8348636,1.38667348 C16.2682578,1.35956591 16.7095844,1.32997861 17.2382341,1.29300912 C22.1886688,0.946815773 20.6113127,0.688328881 22.3988264,0.921341148 C24.8791841,1.24466945 26.7424536,2.22057574 28.2336499,4.11618772 L26.0130904,5.85097992 C24.1932774,3.53762966 25.1808309,3.55632236 17.4357489,4.09795074 C16.9007208,4.13536627 16.4528146,4.16539468 16.0116076,4.19299092 C14.5740388,4.28290674 13.0092145,4.14863736 10.2802555,3.78126102 C10.1117328,3.75857425 9.9906779,3.74213536 9.70259081,3.70287383 C5.51692194,3.13204328 1.13573747,3.54070229 0.759025986,3.88929227 Z" id="eye-brow" fill="#000000" fill-rule="nonzero" opacity="0.05"></path>
                        <path d="M9.55953134,9.05524289 L9.53218708,9.09532121 C8.9265808,8.90697334 8.51291445,8.72518162 8.29118804,8.54994605 C8.06946163,8.37471048 7.99018928,8.32145701 8.05337099,8.39018563 C8.25954109,8.33240819 8.47891425,8.39542468 8.71149047,8.57923511 C8.88286801,8.71467879 9.10397444,8.80345851 9.37480976,8.84557426 L8.62893204,7.99896413 C8.74792085,7.89946275 8.89653111,7.96296134 9.07476284,8.18945989 C9.25299456,8.41595844 9.50082692,8.66893623 9.8182599,8.94839325 L9.62255737,9.12678072 L9.55953134,9.05524289 Z M8.32456671,9.55193278 L8.20730232,9.79740874 C7.59540664,9.60715672 7.15224881,9.43610459 6.87782883,9.28425235 C6.60340885,9.13240011 6.47417341,9.06824444 6.49012251,9.09178532 C6.76653967,9.03708249 7.03833046,9.08364974 7.30549489,9.23148707 C7.57265932,9.3793244 7.91234992,9.48613964 8.32456671,9.55193278 Z M10.3439525,8.7899964 L10.1419824,8.96009908 L9.19627486,7.86887889 C9.30254471,7.7776484 9.43750567,7.84457544 9.60115775,8.06966001 C9.76480982,8.29474457 10.0124081,8.5348567 10.3439525,8.7899964 Z M11.9967646,8.63660239 L11.7318702,8.6843454 C11.3276824,8.38838606 11.0475611,8.1387009 10.8915063,7.93528992 C10.7354516,7.73187894 10.6532933,7.64937246 10.6450314,7.68777047 C10.7384003,7.55637392 10.8320707,7.56448912 10.9260428,7.71211608 C11.0475064,7.90293143 11.0198442,7.63262159 11.1112041,7.75170555 C11.3085869,8.00898596 11.6037738,8.30395158 11.9967646,8.63660239 Z M13.0534985,8.42024108 L12.8583824,8.5993712 C12.5901427,8.42469959 12.3729178,8.23250623 12.2067078,8.0227911 C12.0404978,7.81307598 11.9470237,7.69447473 11.9262855,7.66698734 C12.0734744,7.6262615 12.2341595,7.71578506 12.4083409,7.93555804 C12.5825222,8.15533102 12.7975748,8.31689203 13.0534985,8.42024108 Z M14.1986609,8.40396974 L14.0083213,8.58895699 C13.6192287,8.31649718 13.3494671,8.09061909 13.1990366,7.91132271 C13.0486061,7.73202634 13.0137405,7.65830531 13.0944398,7.69015964 C13.2217111,7.62392169 13.318769,7.65009568 13.3856134,7.7686816 C13.4714725,7.92100071 13.3493135,7.74398705 13.4275591,7.83724709 C13.5971803,8.03941661 13.8542142,8.22832415 14.1986609,8.40396974 Z M15.2133774,8.53204541 L15.0021941,8.68865191 C14.5106585,8.3692475 14.1951932,8.10067346 14.0557982,7.88292981 C13.9164031,7.66518615 13.8200426,7.55373749 13.7667167,7.54858381 C13.9300171,7.42562464 14.0343535,7.43321152 14.0797259,7.57134443 C14.1444581,7.76841679 14.2612332,7.65044332 14.3359016,7.76708001 C14.4890755,8.00634702 14.7815674,8.26133549 15.2133774,8.53204541 Z M15.7729857,8.67652449 L15.5225157,8.73582358 C15.3015636,8.34035797 15.1713084,8.04585049 15.1317503,7.85230114 C15.0921922,7.6587518 15.0753959,7.55783325 15.0813614,7.54954552 C15.2185127,7.51749431 15.2830624,7.55220923 15.2750105,7.6536903 C15.2609983,7.83029242 15.348065,7.87238309 15.3697482,7.97847434 C15.4101212,8.17601058 15.5445337,8.40869397 15.7729857,8.67652449 Z M16.2793792,8.8162117 L16.0229212,8.81662909 C15.8777391,8.54966999 15.805048,8.34502712 15.804848,8.2027005 C15.804648,8.06037387 15.8607287,7.94996294 15.9730899,7.8714677 L16.2777513,7.65754675 C16.1343823,7.91716876 16.0627795,8.1051425 16.0629429,8.221468 C16.0631063,8.33779349 16.1352518,8.53604139 16.2793792,8.8162117 Z M16.895856,8.81141588 L16.6393977,8.81145152 C16.5106298,8.55939526 16.4462385,8.37202424 16.4462238,8.24933846 C16.4462091,8.12665268 16.5283242,8.03332467 16.6925692,7.96935443 L16.8957308,7.76757966 C16.8149093,7.99065191 16.7745053,8.15919556 16.774519,8.27321061 C16.7745327,8.38722566 16.8149784,8.56662742 16.895856,8.81141588 Z M7.38215167,11.6495977 L7.55497163,11.9336973 C7.39229207,11.9634178 7.29492741,11.9863359 7.26287764,12.0024518 C7.03190889,12.1185921 6.85530364,12.1849391 6.7330619,12.201493 C6.58537633,12.2214925 6.4598225,12.1796651 6.35640042,12.0760107 C6.45671936,11.9983864 6.5884385,11.9485295 6.75155786,11.9264401 C6.91467721,11.9043506 7.12487515,11.8120698 7.38215167,11.6495977 Z M7.67657822,11.94254 L7.80516426,12.1813583 C7.63696201,12.3639344 7.49216455,12.4930787 7.37077187,12.5687911 C7.24937918,12.6445035 7.13197463,12.6995848 7.0185582,12.734035 C7.06072301,12.6054009 7.14780805,12.4999182 7.27981332,12.4175867 C7.41181859,12.3352553 7.54407355,12.1769064 7.67657822,11.94254 Z M8.18812708,12.094625 L8.33848255,12.318232 C8.18009087,12.5490913 8.04288111,12.709708 7.92685329,12.8000822 C7.81082546,12.8904563 7.70577672,12.9261748 7.61170707,12.9072375 L7.18470899,12.8761881 C7.48517963,12.7824531 7.69316822,12.6906015 7.80867477,12.6006334 C7.92418132,12.5106653 8.05066543,12.3419958 8.18812708,12.094625 Z M8.45480611,12.6384556 L8.6673521,12.7929119 C8.53925617,13.137574 8.43930468,13.3671362 8.36749764,13.4815986 C8.25978707,13.6532921 8.08892592,13.5834676 8.2517948,13.3238503 C8.36037405,13.150772 8.42804449,12.9223072 8.45480611,12.6384556 Z M8.89779683,12.7627584 L9.11620508,12.9074314 C8.98769946,13.3398538 8.88204197,13.6284718 8.79923261,13.7732854 C8.67501856,13.9905058 8.46914255,13.8438226 8.61368054,13.5910605 C8.71003919,13.4225525 8.80474463,13.1464518 8.89779683,12.7627584 Z M9.86296774,13.1093198 L10.0464942,13.2134914 C9.95899872,13.5566576 9.8798589,13.7890807 9.80907478,13.9107608 C9.73829066,14.0324409 9.67961653,14.1088548 9.6330524,14.1400025 C9.53772237,14.06458 9.52788817,13.9618364 9.60354981,13.8317717 C9.67921144,13.701707 9.76568408,13.4608897 9.86296774,13.1093198 Z M10.1532166,13.3519203 L10.400786,13.3699224 C10.4076525,13.7149492 10.3924157,13.9390391 10.3550755,14.0421922 C10.3177352,14.1453453 10.286376,14.1931692 10.2609978,14.1856639 L9.84348564,14.3041101 C9.995603,14.1439655 10.0874203,14.0203597 10.1189376,13.9332926 C10.1504549,13.8462256 10.1618812,13.6524348 10.1532166,13.3519203 Z M10.9696199,13.6043033 L11.1494809,13.6299286 C11.1336845,13.9831881 11.1183648,14.2183753 11.1035216,14.3354902 C11.0886784,14.4526052 11.0823098,14.5399447 11.0844159,14.5975088 C10.9595919,14.5410934 10.9052339,14.4493381 10.921342,14.322243 C10.93745,14.1951478 10.9535427,13.9558346 10.9696199,13.6043033 Z M12.0263483,13.86651 L12.2518633,13.9979475 C12.246828,14.219258 12.2202392,14.3777542 12.172097,14.4734363 C12.0998837,14.6169593 11.9078004,14.5642995 11.9904747,14.3999855 C12.0455909,14.2904428 12.0575488,14.1126176 12.0263483,13.86651 Z M12.9322591,14.2295934 L13.1884951,14.2410842 C13.1914461,14.4727837 13.1909318,14.6400323 13.1869521,14.7428299 C13.1809826,14.8970264 12.959001,14.899528 12.967611,14.6771258 C12.973351,14.5288576 12.961567,14.3796801 12.9322591,14.2295934 Z M9.07804277,9.35500829 L8.95025034,9.59431956 C8.38578562,9.39217297 7.98486361,9.21768158 7.74748432,9.07084539 C7.51010503,8.9240092 7.40011206,8.84605625 7.4175054,8.83698654 C7.55893735,8.80033567 7.73649904,8.84810201 7.95019046,8.98028554 C8.16388187,9.11246907 8.53983264,9.23737665 9.07804277,9.35500829 Z M8.11596904,9.98774602 L8.0424827,10.252192 C7.36820507,10.2699792 6.89699247,10.2357147 6.62884492,10.1493986 C6.36069737,10.0630825 6.22569768,9.9232924 6.22384585,9.73002828 C6.55181084,9.80415611 6.84172147,9.88175601 7.09357773,9.96282798 C7.34543398,10.0438999 7.68623109,10.052206 8.11596904,9.98774602 Z M11.0317522,8.74922753 L10.823129,8.9097597 C10.401758,8.57117247 10.1237571,8.30054302 9.98912636,8.09787134 C9.85449561,7.89519966 9.79568148,7.79193267 9.81268396,7.78807036 C10.0294323,7.81394196 10.2194095,7.94972199 10.3826154,8.19541045 C10.5458213,8.4410989 10.7622003,8.6257046 11.0317522,8.74922753 Z" id="eye-lashes" fill="#000000" fill-rule="nonzero" opacity="0.300000012" transform="translate(11.559851, 11.156963) rotate(-1.000000) translate(-11.559851, -11.156963) "></path>
                    </g>
                    <path d="M2.76327856,17.0501842 C2.64443475,17.2711815 2.4979561,17.5175581 2.31320737,17.8165245 C1.82527158,18.606118 1.64295051,18.9681351 1.51964972,19.4942725 C1.43660749,19.8486223 1.44586611,20.2360991 1.52939427,21.1637121 C1.62228088,22.1952542 1.63262391,22.6281136 1.51964972,23.1101863 L0.652893829,22.9112925 C0.73593606,22.5569426 0.72667744,22.1694658 0.643149271,21.2418529 C0.55026266,20.2103108 0.539919639,19.7774513 0.652893829,19.2953787 C0.804350424,18.6490976 1.01825005,18.224378 1.5541219,17.3572128 C1.99742771,16.639841 2.18846923,16.2754046 2.3121757,15.820171 C2.20011287,15.5672483 2.11766391,15.3466158 1.97427364,14.9387398 C1.55978006,13.760045 1.18470085,13.0640311 0,11.5358969 L0.705953937,11 C1.94934668,12.6038403 2.36935643,13.3832293 2.808221,14.6312246 C2.97528841,15.1064484 3.05192925,15.3068381 3.18555836,15.5956601 C3.84428577,17.0194141 3.94030224,18.1433742 3.91228532,21.7875944 C3.89513213,24.0187464 3.9091003,25.2645465 4,26.9531679 L3.11150342,27 C3.01940788,25.2891638 3.00527433,24.0286137 3.02255487,21.7808966 C3.04181376,19.2758521 3.00113549,18.0219172 2.76327856,17.0501842 Z" id="ear" fill="#000000" fill-rule="nonzero" opacity="0.3"></path>
                </g>
                <g id="hair" transform="translate(37.000000, 0.000000)">
                    <path d="M94.6528187,40.6381616 C95.145006,46.8799362 94.9055866,53.7420653 94.8647691,59.9073504 C94.8463748,62.6857333 94.8683135,65.3225975 95.0157182,67.6973931 C95.098556,69.0319703 95.1408479,70.3358172 95.1442974,71.6090592 C95.1492805,73.448336 98.1463991,77.5064211 97.9944087,79.2183465 C97.8315317,81.0528916 94.5082805,80.5318566 94.1773552,82.2210534 C93.9240831,83.5138721 96.7730152,86.7729062 96.4278436,87.981068 C96.0741181,89.2191696 92.5240543,88.4042803 92.0798427,89.5539211 C91.8460784,90.1589141 94.4348893,93.3182998 94.1773552,93.8988898 C93.7191553,94.9318647 90.3893549,93.3596574 89.8598211,94.3156733 C89.5940486,94.7954968 91.7330937,97.7397814 91.4502989,98.2002884 C90.9233079,99.0584478 87.9538228,97.4089768 87.3708653,98.2002884 C86.4094566,99.505313 89.8386227,103.101919 88.7397482,104.226216 C87.9140196,105.071047 82.5881741,103.482763 81.6939088,104.226216 C79.5963746,105.970014 77.4646738,111.27699 75.0618085,112.468331 C73.2264602,113.378297 71.1730709,110.28693 69.2113356,110.878397 C66.9173743,111.57003 65.3557107,114.701117 62.9554032,114.962134 C60.6502797,115.212801 57.5092531,112.610033 55.1708323,112.468331 C53.1628003,112.34665 51.441719,115.369939 49.4526306,114.962134 C47.6177158,114.585938 45.5118854,110.799854 43.7259674,110.182592 C41.7780158,109.509326 39.5358011,111.835566 37.6853786,110.878397 C36.6298025,110.332378 35.9262183,106.598201 34.9128409,105.960566 C33.5536029,105.105311 30.3036621,106.979466 29.0363489,105.960566 C27.5759507,104.786429 28.114756,100.692515 26.802636,99.303001 C25.9450459,98.3948264 23.2778206,99.199738 22.4934841,98.2002884 C21.8522092,97.3831366 23.0810309,94.7767059 22.4934841,93.8988898 C21.5379035,92.4712178 20.6562144,90.9635215 19.8576284,89.3764795 L18.7105903,92 C12.1851136,91.1460192 8.40070011,89.9745015 7.35734977,88.4854469 C2.8230656,82.0141816 -2.5527752,79.4513748 1.34234069,82.0737414 C5.05593014,84.5738963 4.7976284,78.4012431 5.13453317,74.5112008 C5.48048679,70.5166768 3.84293929,64.900224 3.8736773,61.9834362 C4.04730924,45.5071705 5.1611528,59.4597835 4.15370039,43.0232231 C1.73534606,3.56783352 19.7680904,3.18061853 54.176874,0.975018133 C61.4898193,0.5062589 73.0618911,-1.93256 82.194423,3.30542173 C95.2738273,10.8071399 100.079698,26.6147595 97.1899456,40.2495601 C96.9643137,41.3141652 95.8325753,41.1498308 94.6528187,40.6381616 Z M90.0968144,37.8864436 C85.092071,34.9139108 80.3378206,33.3394709 75.820564,28.9398613 C71.2352738,24.4739901 70.329866,18.3177125 64.3910498,17.5028899 C58.3632671,16.675861 52.2959411,15.9599905 46.225742,16.0151182 C43.0590472,16.0438771 39.7847215,16.3939375 36.8459207,17.7530463 C30.3547794,20.7550078 22.2547965,18.9762851 18.2501012,25.5825001 C14.5943151,31.6131485 16.7161367,40.2232079 16.7223561,47.5787013 C16.7230564,48.4069328 14.9816522,45.0006586 13.6230529,44.5932831 C12.0588035,44.1242436 7.92562082,41.0099697 7.98449255,41.9611559 C8.04012886,42.8600675 6.57159001,46.133598 7.00917401,48.9885735 C8.04418611,55.7414123 9.90780164,65.5788465 10.5126209,67.2748208 C11.4051937,69.7776854 13.3026686,70.7651678 15.0586506,71.8765783 C15.0375067,71.6287638 15.0179514,71.3798581 15,71.1298621 L15.3012248,69.5411303 C14.9410794,68.4606842 14.5531315,67.2796761 14.137381,65.998106 L15.5704049,68.1214102 L15.767047,67.0842727 C21.4507918,79.6047711 23.4683975,89.3257655 35.5522332,94.0716206 C58.132777,102.939996 89.3639832,96.1910653 91.4502989,61.0284525 C91.732982,56.2641322 90.7039501,46.0589324 90.0968144,37.8864436 Z" fill="#10174F"></path>
                    <path d="M8.1763201,87.911611 C8.95542012,89.0235314 12.3285917,90.1030315 18.0966494,90.9079477 L19.7941041,87.0255073 L20.7509123,88.9269867 C21.5240394,90.4634338 22.3832776,91.9364208 23.3245123,93.3426595 C23.7829973,94.0276527 23.7521827,94.5938143 23.4658158,96.2028806 C23.2989264,97.1405919 23.2783059,97.5805596 23.2801638,97.582927 C23.3475407,97.6687828 23.7310537,97.7473043 24.7148168,97.7889741 C26.3130102,97.856641 26.9184678,97.9691459 27.5297012,98.6164325 C28.2573614,99.3870132 28.4852078,100.222655 28.8273648,102.402102 C29.1091472,104.19698 29.317666,104.903623 29.6629355,105.181215 C29.8579189,105.337978 30.4314245,105.311493 31.8197748,105.025757 C33.8094117,104.616231 34.5721032,104.56468 35.4454041,105.114176 C36.114564,105.535223 36.4387656,106.159849 37.1280094,107.873942 C37.7116699,109.327299 38.0261238,109.928791 38.144822,109.99019 C38.6024696,110.226917 39.1064107,110.144175 40.4657501,109.64655 C40.6177031,109.590936 40.6861695,109.566008 40.7735326,109.534674 C42.1701917,109.03373 43.0561967,108.893056 44.0526338,109.237452 C44.9999783,109.564881 45.6203463,110.138465 47.2018424,111.870745 C47.3583491,112.042173 47.4506744,112.142942 47.5490241,112.249372 C48.5824814,113.367737 49.2181738,113.893265 49.6534741,113.982511 C50.0897887,114.071964 50.5979431,113.839441 51.6155894,113.088393 C53.3582755,111.793872 54.0998647,111.401599 55.2313186,111.470162 C56.3110233,111.535589 57.1506725,111.854659 59.1979751,112.815465 C61.1994422,113.751788 62.1061521,114.048589 62.8472972,113.967995 C63.6227414,113.88367 64.2606416,113.446492 65.6413205,112.16509 C67.1379132,110.775977 67.8430153,110.246484 68.9226689,109.920967 C69.7234414,109.679533 70.5131749,109.8111 71.387205,110.213372 C71.7348232,110.373363 72.0127217,110.528533 72.5712279,110.859841 C73.8185366,111.599749 74.2605872,111.749415 74.6176075,111.572404 C75.4687047,111.15043 76.3322674,110.070006 77.8866307,107.648063 C79.6217055,104.944543 80.1391933,104.218295 81.0546221,103.457247 C81.7667654,102.865202 82.4331294,102.894814 85.2713369,103.259713 C86.4231171,103.407695 86.9420842,103.462843 87.4328504,103.478126 C87.6639226,103.485322 87.8516275,103.479937 87.9908114,103.463613 C87.9146544,103.281152 87.6991491,102.704384 87.1841936,101.671616 C86.0903364,99.4752683 85.8310694,98.604432 86.565754,97.6071647 C87.1901043,96.7596662 87.7350481,96.8011457 89.6238057,97.2433238 C89.8219164,97.289703 89.9798404,97.3256977 90.1128709,97.3542462 C90.0282428,97.1938618 89.9214256,96.9965353 89.7788687,96.7355095 C89.4173687,96.0735922 89.2686408,95.7907346 89.1227995,95.4678989 C88.8006288,94.7547391 88.6977756,94.3497797 88.9850483,93.8311398 C89.5313683,92.8448182 90.1373399,92.8362419 92.1518642,93.1408828 C92.4750038,93.1897472 92.7043042,93.2219047 92.8843826,93.2416347 C92.7537156,93.0136987 92.5790138,92.7291373 92.281949,92.2534411 C91.8306791,91.5308125 91.6433708,91.2202081 91.4572556,90.8664555 C91.0820798,90.1533522 90.9416398,89.7251189 91.1470533,89.1934991 C91.5422632,88.1706771 92.1816758,87.9976786 94.1272778,87.8114642 C94.8226837,87.7448894 95.116238,87.7045342 95.3663143,87.6320038 C95.4447877,87.4850417 95.1369404,86.810535 94.4386706,85.5756495 C93.3241927,83.6045645 93.0217318,82.9183961 93.1960096,82.0288011 C93.428012,80.8445528 94.0944236,80.4281092 95.7360558,79.858966 C96.7474868,79.5083025 96.9784861,79.3533838 96.9983268,79.129911 C97.0382675,78.680043 96.6810102,77.7979867 95.6782028,75.7977849 C94.5147842,73.4772095 94.1469485,72.5889466 94.1443011,71.6117685 C94.1408863,70.3513547 94.0988108,69.0670804 94.017639,67.7593443 C93.8833932,65.5965467 93.8431502,63.1694832 93.8647911,59.9007301 C93.8720233,58.8083271 93.8814568,57.990061 93.9091034,55.8629662 C93.9477685,52.8881183 93.9610423,51.4514597 93.9585731,49.7337726 C93.9535635,46.2488973 93.8645861,43.3630996 93.6559132,40.7167713 L93.5252,39.059104 L95.0507151,39.7207312 C95.9625371,40.1161952 96.1990626,40.1017371 96.2116754,40.042226 C99.2195918,25.8498885 93.6578158,11.0330794 81.6968962,4.17287031 C78.7447403,2.47965546 75.3607154,1.52577241 71.477572,1.1669777 C67.9254143,0.838765405 64.6423706,0.981404863 59.2318034,1.51861613 C58.9307037,1.5485121 57.8834822,1.65355924 57.9122643,1.65068142 C57.3932591,1.70257498 57.00804,1.74041848 56.6376585,1.77559447 C55.6953504,1.86508763 54.9366702,1.92836755 54.2408426,1.97297004 C53.81118,2.00051138 50.651212,2.20176657 49.7478857,2.26002658 C29.2905562,3.5794216 21.2725883,5.02061746 14.8250451,9.58258005 C7.13671368,15.022463 4.05313927,25.0369783 5.15182723,42.9620445 C5.6304841,50.7713192 5.66117214,51.8891025 5.4203884,52.7550957 C5.25427198,53.3525434 5.26442407,53.3099618 5.20249467,53.7817474 C5.03476999,55.059494 4.92019428,57.5746198 4.87362177,61.9939739 C4.86307875,62.9944215 4.96066631,63.7025322 5.51484688,67.0981359 C5.67131174,68.0568354 5.77636937,68.7376074 5.86974257,69.4214702 C6.15509188,71.511361 6.255154,73.1616852 6.13080376,74.5974847 C6.09446727,75.017041 6.06718192,75.4224151 6.02121598,76.1843823 C5.98008985,76.866121 5.976074,76.9317074 5.95799742,77.2065393 C5.79937889,79.6181364 5.58316333,81.0201342 5.06821284,82.0819234 C4.83398602,82.5648816 4.53972962,82.9396353 4.19666612,83.201351 C5.56465464,84.5496075 6.93627138,86.1418313 8.1763201,87.911611 Z M90.4783689,98.1476695 C90.4792708,98.1517236 90.4802144,98.1557279 90.4811936,98.1596855 C90.4783833,98.1483272 90.4743724,98.1346205 90.4691787,98.1187137 L90.4783689,98.1476695 Z M93.1946555,93.8598523 C93.1959397,93.864693 93.1973091,93.8693239 93.1987336,93.8737678 C93.194545,93.8607012 93.1893591,93.8460715 93.1831894,93.8299465 L93.1946555,93.8598523 Z M1.34234069,82.0737414 C-0.835518905,80.6075087 -0.115077139,80.7622732 1.73605136,82.3148719 C1.61003182,82.2458548 1.47887058,82.1656595 1.34234069,82.0737414 Z M5.13453317,74.5112008 C5.48048679,70.5166768 3.84293929,64.900224 3.8736773,61.9834362 C4.04730924,45.5071705 5.1611528,59.4597835 4.15370039,43.0232231 C1.73534606,3.56783352 19.7680904,3.18061853 54.176874,0.975018133 C61.4898193,0.5062589 73.0618911,-1.93256 82.194423,3.30542173 C95.2738273,10.8071399 100.079698,26.6147595 97.1899456,40.2495601 C97.0322429,40.993653 96.4318943,41.1373914 95.6818864,40.9817916 C95.6714917,40.840396 95.6607727,40.6996665 95.6497242,40.5595519 L95.2298575,40.8593823 C95.0414036,40.7977782 94.8477667,40.722712 94.6528187,40.6381616 C94.6685701,40.8379166 94.6835723,41.038307 94.6978556,41.2392895 L94.2549223,41.555592 C94.4164362,41.6256417 94.5757242,41.6891029 94.7322489,41.7454963 C95.117534,47.684599 94.9031862,54.1046228 94.8647691,59.9073504 C94.8463748,62.6857333 94.8683135,65.3225975 95.0157182,67.6973931 C95.098556,69.0319703 95.1408479,70.3358172 95.1442974,71.6090592 C95.1492805,73.448336 98.1463991,77.5064211 97.9944087,79.2183465 C97.8315317,81.0528916 94.5082805,80.5318566 94.1773552,82.2210534 C93.9240831,83.5138721 96.7730152,86.7729062 96.4278436,87.981068 C96.0741181,89.2191696 92.5240543,88.4042803 92.0798427,89.5539211 C91.8460784,90.1589141 94.4348893,93.3182998 94.1773552,93.8988898 C93.7191553,94.9318647 90.3893549,93.3596574 89.8598211,94.3156733 C89.5940486,94.7954968 91.7330937,97.7397814 91.4502989,98.2002884 C90.9233079,99.0584478 87.9538228,97.4089768 87.3708653,98.2002884 C86.4094566,99.505313 89.8386227,103.101919 88.7397482,104.226216 C87.9140196,105.071047 82.5881741,103.482763 81.6939088,104.226216 C79.5963746,105.970014 77.4646738,111.27699 75.0618085,112.468331 C73.2264602,113.378297 71.1730709,110.28693 69.2113356,110.878397 C66.9173743,111.57003 65.3557107,114.701117 62.9554032,114.962134 C60.6502797,115.212801 57.5092531,112.610033 55.1708323,112.468331 C53.1628003,112.34665 51.441719,115.369939 49.4526306,114.962134 C47.6177158,114.585938 45.5118854,110.799854 43.7259674,110.182592 C41.7780158,109.509326 39.5358011,111.835566 37.6853786,110.878397 C36.6298025,110.332378 35.9262183,106.598201 34.9128409,105.960566 C33.5536029,105.105311 30.3036621,106.979466 29.0363489,105.960566 C27.5759507,104.786429 28.114756,100.692515 26.802636,99.303001 C25.9450459,98.3948264 23.2778206,99.199738 22.4934841,98.2002884 C21.8522092,97.3831366 23.0810309,94.7767059 22.4934841,93.8988898 C21.7690494,92.8165582 21.0870824,91.6882342 20.4515966,90.5142136 L20.7738821,89.7770779 L20.0716398,89.7960528 C19.9996558,89.656817 19.9283165,89.5169591 19.8576284,89.3764795 L19.6694338,89.8069206 L18.9643444,89.8259724 C19.0878534,90.0714237 19.2134683,90.3153446 19.3411734,90.557722 L18.7105903,92 C12.1851136,91.1460192 8.40070011,89.9745015 7.35734977,88.4854469 C5.35830064,85.6324327 3.19567806,83.5391059 1.73605135,82.3148719 C5.03774176,84.1231072 4.81001468,78.2582259 5.13453317,74.5112008 Z M15.3726442,63.7962445 L16.6776158,66.6709153 C17.7095195,68.9440554 20.8335154,76.3501994 20.7143587,76.0748935 C24.9463352,85.8526736 28.4760393,90.2181279 35.9177944,93.1408333 C47.4738949,97.6794235 60.5545871,97.8179648 70.7711737,93.152031 C82.3501589,87.8638871 89.5020452,76.9806106 90.4520545,60.9692234 C90.6217327,58.1094779 90.3783304,53.8552576 89.6542407,44.9365141 C89.6238175,44.5620355 89.6238175,44.5620355 89.5933479,44.1876625 C89.3372795,41.0421416 89.2418624,39.8550493 89.1385608,38.482298 C88.0812429,37.8643307 87.2734729,37.4379605 84.7479844,36.1285122 C80.1048346,33.7210711 77.763968,32.2285707 75.1228473,29.6562351 C74.0802542,28.6407952 73.1775247,27.5153449 72.2042612,26.086864 C71.932346,25.687768 71.6669311,25.2840288 71.3170382,24.741247 C71.2213129,24.5927503 71.1051147,24.4118815 70.8971067,24.0880871 C70.7317196,23.8309204 70.6075495,23.6389178 70.4865933,23.4537837 C68.3327582,20.1571476 66.849928,18.8496235 64.2551204,18.4936085 C56.4979914,17.4293083 51.4245556,16.9679454 46.2348233,17.0150769 C42.5875728,17.0482001 39.7343517,17.5189938 37.2656762,18.6606835 C35.5743655,19.4428648 33.803243,19.9394534 31.288658,20.4291735 C30.8247374,20.5195229 30.5545278,20.5696895 29.5917403,20.7461509 C23.4220071,21.8769512 21.0446053,22.9016884 19.1052457,26.1008898 C17.1567328,29.3151906 16.8204512,33.0402341 17.3107654,40.0192909 C17.3378188,40.4043657 17.3620269,40.7361754 17.4106666,41.3939634 C17.6449562,44.5624174 17.7209411,45.9047689 17.7223558,47.5778557 C17.7226103,47.8789077 17.6616423,48.1386724 17.408714,48.3961326 C17.0122651,48.7996848 16.5168051,48.7799099 16.1336433,48.5681325 C15.915845,48.4477532 15.7687999,48.2961347 15.552167,48.02933 C15.4232674,47.8705775 14.7668634,46.9935176 14.5756826,46.7527588 C14.2499912,46.3426076 13.969868,46.0318483 13.7224599,45.8146707 C13.546364,45.6600918 13.4077205,45.5727033 13.3358372,45.5511491 C12.7173265,45.3656889 12.0041223,44.9830721 10.5871563,44.1406037 C9.56492344,43.5319964 9.13651095,43.2803056 8.80825602,43.1052427 C8.75250547,43.3291442 8.49491685,44.2947122 8.42630155,44.5660048 C8.11462056,45.7983355 7.94720193,46.7751501 7.92913309,47.7057415 C7.92133636,48.1072928 7.94358929,48.4844817 7.99763105,48.8370721 C9.04925413,55.6982876 10.8949523,65.3698406 11.4545185,66.9389208 C11.9420916,68.3061251 12.6460562,69.1006426 14.1721577,70.1278975 L14.2702921,69.6103136 C13.932644,68.5949603 13.5712791,67.4937637 13.1861813,66.3066819 L10.9963858,59.5565355 L15.0404073,65.5485417 L15.3726442,63.7962445 Z M16.3992909,67.5619927 L16.0180253,67.6405315 C15.9351452,67.4557347 15.8515008,67.2703128 15.767047,67.0842727 L15.6470924,67.7169417 L15.3401071,67.7801791 L14.7758141,66.9440691 L15.0404073,65.5485417 L16.3992909,67.5619927 Z M14.6544855,67.5839853 C14.689285,67.6901305 14.7238654,67.7954832 14.7582267,67.9000435 L14.5879086,67.9351281 L14.6544855,67.5839853 Z M15.6849896,67.517063 L15.5704049,68.1214102 L15.1274753,67.4651237 L15.64746,67.4027509 C15.6599988,67.4409595 15.6725086,67.4790635 15.6849896,67.517063 Z M15.0885807,65.68953 L14.2162116,66.1149088 L13.308495,66.5575235 L15.2808269,69.4799177 C15.2853663,69.4935443 15.1917574,70.0435258 15,71.1298621 C15.0179514,71.3798581 15.0375067,71.6287638 15.0586506,71.8765783 C13.3026686,70.7651678 11.4051937,69.7776854 10.5126209,67.2748208 C9.90780164,65.5788465 8.04418611,55.7414123 7.00917401,48.9885735 C6.57159001,46.133598 8.04012886,42.8600675 7.98449255,41.9611559 C7.92562082,41.0099697 12.0588035,44.1242436 13.6230529,44.5932831 C14.3131232,44.8002004 15.1019536,45.7808055 15.7110946,46.5872286 C15.7185742,46.9179631 15.7220713,47.2422635 15.7223565,47.5795469 C15.7222031,47.3981189 15.7651098,47.2153072 15.9819997,46.9945313 C16.4348395,47.5520606 16.7226409,47.9155042 16.7223561,47.5787013 C16.7221103,47.2879796 16.7185595,46.995298 16.7121912,46.7008933 C16.8523697,46.711059 16.9855359,46.7538227 17.1011207,46.8177076 C17.0585464,46.7116775 16.8888816,46.4875243 16.6999767,46.2382346 C16.4817242,39.1964604 14.8142733,31.2503017 18.2501012,25.5825001 C22.2547965,18.9762851 30.3547794,20.7550078 36.8459207,17.7530463 C39.7847215,16.3939375 43.0590472,16.0438771 46.225742,16.0151182 C52.2959411,15.9599905 58.3632671,16.675861 64.3910498,17.5028899 C70.329866,18.3177125 71.2352738,24.4739901 75.820564,28.9398613 C80.3378206,33.3394709 85.092071,34.9139108 90.0968144,37.8864436 C90.7039501,46.0589324 91.732982,56.2641322 91.4502989,61.0284525 C89.3639832,96.1910653 58.132777,102.939996 35.5522332,94.0716206 C23.988316,89.5299604 21.6430455,80.4320711 16.4814257,68.6846709 L16.7495433,67.2705548 L15.8975834,67.3727483 C15.8542841,67.2767561 15.810774,67.1805973 15.767047,67.0842727 L15.708041,67.3954842 C15.4671448,66.853288 15.2808511,66.2822124 15.0885807,65.68953 Z" id="hair-outline" fill="#000000" fill-rule="nonzero" opacity="0.05"></path>
                </g>
            </g>
        </g>
    </g>
</svg>