<?xml version="1.0" encoding="UTF-8"?>
<svg width="480px" height="300px" viewBox="0 0 480 300" version="1.1" xmlns="http://www.w3.org/2000/svg" xmlns:xlink="http://www.w3.org/1999/xlink">
    <!-- Generator: Sketch 51 (57462) - http://www.bohemiancoding.com/sketch -->
    <title>Avatars</title>
    <desc>Created with Sketch.</desc>
    <defs></defs>
    <g id="Avatars" stroke="none" stroke-width="1" fill="none" fill-rule="evenodd">
        <rect id="Frame" fill="#E6E6E6" x="0" y="0" width="480" height="300"></rect>
        <g id="Halfling" transform="translate(117.000000, 49.000000)">
            <g id="Female">
                <g id="body" transform="translate(0.000000, 3.000000)">
                    <path d="M5.10932856,249 C8.1368617,220.647085 10.3728983,202.718923 11.8174382,195.215513 C12.8539768,189.831394 11.1338355,184.265781 11.844908,178.842618 C13.2797986,167.899083 22.0569887,142.924001 28.7909087,139.206467 C34.8145653,135.881043 53.3818822,134.389494 59.9884108,132.023709 C66.2268723,129.789728 95.38846,126.56155 99.9449865,122.264985 C103.540375,118.874723 102.856617,110.659883 97.8937127,97.620465 C95.0883462,93.7625345 93.3015096,91.4320149 92.5332031,90.6289062 C79.3813201,76.8812792 74.1147812,71.8058518 73.2094304,68.8971649 C71.7529931,64.217962 68.6833491,50.1357701 68.384503,37.4112376 C68.071275,24.0743396 73.1735955,18.7285586 77.7537629,15.0128251 C81.9574492,11.6025177 87.1407947,6.20206292 94.2915646,3.41762698 C102.596888,0.183619676 112.360816,1.08773654 121.877033,0.839009829 C136.644976,0.453018048 150.816359,1.51554018 158.014044,12.6764972 C164.00898,21.9724344 168.680681,36.1047448 170.772137,56.3934051 C171.964982,67.9648739 168.262834,84.3037724 164.867605,87.9350815 C163.417092,89.486454 160.052872,93.1487847 158.014044,93.1487847 C156.654825,93.1487847 156.654825,95.0037951 158.014044,98.7138158 L161.981248,118.103251 C172.416777,121.087884 181.673707,127.099374 192.601024,128.236796 C228.982231,132.023709 216.288343,130.459661 238.317967,148.744304 C250.457388,158.820055 256.021089,192.760149 258.144432,204.679614 C259.332022,211.346194 262.617212,226.119656 268,249 L228.982231,249 L0,249 L5.10932856,249 Z" fill="#E5B296"></path>
                    <polygon id="armpit-l" fill="#000000" opacity="0.5" points="49 249 59 208 59 249"></polygon>
                    <polygon id="armpit-r" fill="#000000" opacity="0.5" transform="translate(220.000000, 229.000000) scale(-1, 1) translate(-220.000000, -229.000000) " points="215 250 225 208 225 250"></polygon>
                    <g id="chest" transform="translate(58.000000, 126.000000)">
                        <path d="M128.262781,119.497275 C135.900581,118.790546 144.404386,114.626738 149.94946,108.273901 C156.718298,100.51903 158.797186,90.2256056 154.860525,78.0042893 C153.826306,74.7935665 152.885192,72.7650129 151.777854,71.1551816 C151.39893,70.604307 151.026605,70.1300697 150.449687,69.4436828 C147.951787,66.471812 147.049857,65.1505373 145.339014,61.3668918 L146.418012,61 C148.087083,64.6912651 148.9418,65.9433753 151.386282,68.8516922 C151.982343,69.5608543 152.37268,70.0580328 152.773208,70.640315 C153.938328,72.3341497 154.916815,74.4432607 155.976777,77.7338998 C160.009204,90.2525219 157.864678,100.870948 150.873568,108.88047 C145.135265,115.454685 136.341427,119.760504 128.38575,120.496647 C105.567965,122.607987 90.6054795,113.893936 83.0429443,92.8916104 C82.9487646,93.7465852 82.8294246,94.4279798 82.6777564,94.9342791 C77.52333,112.140803 61.8235899,123.311645 44.1227077,123.969355 C26.0181447,124.642065 10.8592375,114.209564 6.21372052,95.6183348 C4.41957837,88.4382279 4.67553227,82.095804 6.57898746,74.1240093 C6.895087,72.8001638 7.25634746,71.4200137 7.71319623,69.7688589 C7.89226895,69.1216496 8.07889789,68.4577496 8.33008289,67.5718157 C8.30281911,67.6679755 8.81744301,65.855663 8.96065188,65.3486448 C9.44095688,63.6481678 9.79493444,62.3590043 10.1300146,61.0727155 L11.2605099,61.2941763 C10.9236275,62.5873834 10.5681781,63.881907 10.0863575,65.5877499 C9.94294811,66.0954782 9.42812649,67.908487 9.45554621,67.8117771 C9.20483361,68.6960449 9.01866859,69.3582946 8.84019206,70.0033491 C8.38594471,71.6451018 8.02723126,73.0155214 7.71389574,74.327791 C5.84082622,82.1723284 5.5903934,88.3779425 7.34641527,95.4054932 C11.8738327,113.524092 26.5389287,123.616747 44.0730932,122.965231 C61.2614831,122.326564 76.5288052,111.463401 81.5560061,94.6815815 C81.8173927,93.8090197 81.9840859,92.2526427 82.0845167,90.0954007 C80.7465842,85.7622492 79.6838307,81.014749 78.895254,75.7920996 L80.0203264,75.5698654 C82.0636085,82.3237731 83.0802912,85.8918289 83.0703745,86.2740328 C83.0727716,86.1816448 83.3261253,87.7302186 83.3139699,88.1610263 C83.2954187,88.818509 83.2754149,89.397182 83.2511387,89.9466998 C90.3274865,112.424305 105.112532,121.639379 128.262781,119.497275 Z M82.4038248,84.8060938 C82.4005982,84.7934574 82.3979584,84.7847124 82.3959894,84.780064 C82.3966811,84.7816969 82.3973781,84.7833233 82.3980815,84.7849438 L82.4038248,84.8060938 Z" id="breast" fill="#000000" fill-rule="nonzero" opacity="0.3" transform="translate(81.500000, 92.500000) rotate(2.000000) translate(-81.500000, -92.500000) "></path>
                        <g id="nipples" opacity="0.700000048" transform="translate(32.000000, 85.000000)">
                            <g id="right" transform="translate(90.000000, 0.000000)">
                                <path d="M7,14 C3.13400675,14 0,10.8659932 0,7 C0,3.13400675 3.13400675,0 7,0 C10.8659932,0 14,3.13400675 14,7 C14,10.8659932 10.8659932,14 7,14 Z" id="ra" fill="#000000" fill-rule="nonzero" opacity="0.3"></path>
                                <circle id="rn" fill="#E5B296" opacity="0.400000006" cx="7" cy="7" r="2"></circle>
                                <path d="M7,10 C5.34314575,10 4,8.65685425 4,7 C4,5.34314575 5.34314575,4 7,4 C8.65685425,4 10,5.34314575 10,7 C10,8.65685425 8.65685425,10 7,10 Z M7,8.8 C7.99411255,8.8 8.8,7.99411255 8.8,7 C8.8,6.00588745 7.99411255,5.2 7,5.2 C6.00588745,5.2 5.2,6.00588745 5.2,7 C5.2,7.99411255 6.00588745,8.8 7,8.8 Z" id="rno" fill="#000000" fill-rule="nonzero" opacity="0.3"></path>
                            </g>
                            <g id="left" transform="translate(0.000000, 1.000000)">
                                <path d="M7,14 C3.13400675,14 0,10.8659932 0,7 C0,3.13400675 3.13400675,0 7,0 C10.8659932,0 14,3.13400675 14,7 C14,10.8659932 10.8659932,14 7,14 Z" id="la" fill="#000000" fill-rule="nonzero" opacity="0.3"></path>
                                <circle id="ln" fill="#E5B296" opacity="0.400000006" cx="7" cy="7" r="2"></circle>
                                <path d="M7,10 C5.34314575,10 4,8.65685425 4,7 C4,5.34314575 5.34314575,4 7,4 C8.65685425,4 10,5.34314575 10,7 C10,8.65685425 8.65685425,10 7,10 Z M7,8.8 C7.99411255,8.8 8.8,7.99411255 8.8,7 C8.8,6.00588745 7.99411255,5.2 7,5.2 C6.00588745,5.2 5.2,6.00588745 5.2,7 C5.2,7.99411255 6.00588745,8.8 7,8.8 Z" id="lno" fill="#000000" fill-rule="nonzero" opacity="0.3"></path>
                            </g>
                        </g>
                        <path d="M15.0835402,63.8968109 L10.6654227,3.30566406 L15.1488497,3.30566406 L21.7687415,68.7903254 C23.6394575,74.3243229 27.1910879,82.3057737 41.9112035,85.8828125 C57.2837401,89.6183918 70.9704849,91.231022 82.9714378,90.7207031 L82.9714378,92.415945 C83.0888102,91.8318447 83.2187405,91.2667641 83.3612288,90.7207031 C94.5538124,91.231022 107.836372,89.6183918 123.208909,85.8828125 C137.767104,82.3451211 141.215968,74.0185846 142.673943,68.3595177 L127.916369,0.521964752 L134.548415,1.52196475 L147.413141,63.9894231 C157.234227,71.6946444 164.748883,91.6660373 161.032773,101.357422 C154.979285,117.144537 144.88585,122.37285 122.208909,122.37285 C101.518383,122.37285 85.2347161,120.411114 82.5407003,106.269766 C79.5924954,120.349286 61.8897417,122 41.2031728,122 C18.5262316,122 8.14082721,117.144537 2.08734005,101.357422 C-1.62578882,91.6738143 0.193184964,70.6736512 15.0835402,63.8968109 Z" id="bra" fill="#414141"></path>
                    </g>
                </g>
                <g id="face" transform="translate(74.000000, 31.000000)">
                    <path d="M19,62.8998482 L19.5273553,62 C41.2520934,71.2136062 71.7989546,73.3430315 86.2703135,63.6822047 L87,64.4731972 C72.087098,74.4287904 41.0889129,72.2679034 19,62.8998482 Z" id="jaw" fill="#000000" fill-rule="nonzero" opacity="0.3"></path>
                    <g id="mouth" transform="translate(38.000000, 43.000000)">
                        <path d="M17.0274153,8.60205078 C23.6616211,8.60205078 31.2535802,4.02803496 31.2535802,3.1907959 C31.2535802,2.0862264 25.3528991,1.3815918 17.0274153,1.3815918 C8.70193147,1.3815918 1.54456005,2.58195394 1.54456005,3.68652344 C1.54456005,4.64240806 11.1694336,8.60205078 17.0274153,8.60205078 Z" id="lips" fill="#990000" opacity="0.100000001"></path>
                        <path d="M3.65268312,3.07749793 C9.68981951,3.51547142 14.2577444,3.734375 17.3531041,3.734375 C20.4595044,3.734375 24.7435792,3.5138674 30.2026706,3.0726367 C29.9998841,3.02746821 29.7854332,2.97938359 29.5543657,2.92731996 C24.1613008,1.7121663 22.7089229,1.43747443 20.2731013,1.32377651 C19.8407342,1.30359472 19.5863371,1.39716679 19.0698118,1.70865949 C19.04532,1.72343789 19.04532,1.72343789 19.0205065,1.73841793 C18.3919598,2.11775404 18.0224729,2.26575871 17.4254505,2.28007472 C16.9584837,2.29127213 16.5332107,2.18552187 15.4037848,1.83653712 C15.3687871,1.82572427 15.3687871,1.82572427 15.333846,1.81493954 C14.3602769,1.51455888 13.8914059,1.40664099 13.5497543,1.43397792 C10.3973215,1.68621683 7.15916834,2.22454429 3.65268312,3.07749793 Z M29.9784041,4.09340377 C24.6375227,4.52064986 20.429929,4.734375 17.3531041,4.734375 C14.1973659,4.734375 9.54103244,4.50950645 3.38063165,4.05994156 C5.56684908,5.77721812 8.85200369,7.7797605 13.5497543,8.15564655 C13.8914059,8.18298348 19.8407342,8.28602975 20.2731013,8.26584796 C23.2464181,8.12706113 27.355827,5.79020054 29.9784041,4.09340377 Z M3.06516253,2.19666804 C6.76293218,1.27824204 10.1673544,0.701911347 13.4822054,0.436676698 C13.9771624,0.397073182 14.490484,0.515222068 15.585094,0.85294813 C15.6202716,0.863805868 15.6202716,0.863805868 15.6553775,0.874652152 C16.6719246,1.18875817 17.0722351,1.28830114 17.4051573,1.28031799 C17.8173482,1.27043406 18.06514,1.17117658 18.5738681,0.864152542 C18.5985057,0.849278681 18.5985057,0.849278681 18.6234331,0.834237461 C19.2751849,0.441195861 19.6730684,0.294846766 20.3125773,0.324697405 C22.8184758,0.441666338 24.2921118,0.720378811 29.7411261,1.94813886 C29.9824811,2.00252046 30.2055664,2.05252847 30.4160633,2.09938266 L30.2551753,1.89656716 L30.951987,1.24356956 L32.6034111,3.32535667 L32.0212721,3.87089201 L32.0323394,3.88966978 C31.9932313,3.91689913 31.9532456,3.94465525 31.9124047,3.972914 L31.9065994,3.97835427 C29.4815278,5.65433048 24.0614414,9.08993967 20.3125773,9.26492707 C19.6730684,9.29477771 13.9771624,9.19255129 13.4822054,9.15294777 C7.82139147,8.70000313 4.16715053,6.03927496 1.83950784,4.0462067 L1.55228042,4.40828591 L0.85546875,3.75528831 L2.50689285,1.6735012 L3.06516253,2.19666804 Z" id="mouth-outline" fill="#000000" fill-rule="nonzero" opacity="0.3"></path>
                    </g>
                    <g id="eye-l" transform="translate(32.759711, 11.015426) rotate(-8.000000) translate(-32.759711, -11.015426) translate(20.759711, 3.015426)">
                        <path d="M14.1142716,14.8970681 C16.9465528,14.8970681 19.5591686,14.561226 21.9521188,13.8895417 C18.4896273,10.7007841 15.3422409,9.10640528 12.5099596,9.10640528 C9.67767837,9.10640528 7.20782417,9.74410291 5.10039701,11.0194982 C8.27736548,13.6045448 11.2819903,14.8970681 14.1142716,14.8970681 Z" id="eye-white" fill="#FFFFFF" opacity="0.800000012"></path>
                        <path d="M13.8672808,14.3857797 C15.8976816,14.3857797 17.5436467,12.6615201 17.5436467,10.5345381 C17.5436467,10.2443832 16.0350745,9.77756838 13.01793,9.13409366 C11.1332532,8.64973528 10.1909148,9.11655009 10.1909148,10.5345381 C10.1909148,12.6615201 11.8368799,14.3857797 13.8672808,14.3857797 Z" id="iris" fill="#373737" opacity="0.700000048"></path>
                        <path d="M9.98585527,9.47176823 C8.53533395,9.74558386 7.01474185,10.2467203 5.25972634,10.9735094 C9.25176825,14.7297374 14.8536689,15.819474 21.6874423,13.6408538 C20.5808753,12.5627882 19.6531268,11.8209725 18.9094777,11.4168707 C18.5661474,11.2303036 18.0869687,11.0202146 17.4727132,10.7870377 C17.5786859,11.3471269 17.5196576,11.9274918 17.292402,12.3849991 C16.6200891,13.7384886 15.4122704,14.6330287 14.101794,14.6693692 C11.2608678,14.7481502 8.91428724,12.1855009 9.98585527,9.47176823 Z M10.3519759,9.40725656 L10.6001131,9.5232481 C9.535935,11.8606657 11.5684876,14.1471774 14.0858048,14.0773703 C15.1651524,14.0474391 16.1889504,13.2891892 16.7703397,12.1187457 C16.9835294,11.6895555 16.9960125,11.0786374 16.8011528,10.54184 C16.3984232,10.3998798 15.9517986,10.2504502 15.4614223,10.093632 C15.3498293,10.1596958 15.27445,10.1923144 15.1519259,10.2220037 L15.0779019,9.9982874 L15.1122837,9.9830516 C14.4921929,9.78848189 13.8076525,9.58304742 13.058919,9.36689254 C13.0737076,9.43276846 13.0923314,9.51494207 13.1022546,9.55546088 L12.8753522,9.61251497 C12.8567135,9.53640795 12.8101874,9.32636555 12.8096757,9.3241695 C12.8011581,9.28761029 12.7929657,9.25546658 12.7846088,9.22664033 C11.9717475,9.21305252 11.170951,9.27336024 10.3519759,9.40725656 Z M5.02332459,11.0721705 C4.9829453,11.0891501 4.94244107,11.1062464 4.90180998,11.1234592 L4.67636593,10.5770695 C11.4116167,7.72377585 14.8194613,8.00213749 23.0581956,11.4563066 L22.8347385,12.0035337 C20.0670368,10.8431479 17.8650897,10.0479452 15.9036416,9.61462439 C17.4385279,10.1132878 18.5310138,10.5392046 19.1857004,10.8949638 C20.1953866,11.4436313 21.4784644,12.5372779 23.0457721,14.1789078 L22.6257061,14.5906761 C22.4670338,14.4244794 22.3114472,14.2641252 22.1589586,14.1096169 C14.9527318,16.4922503 8.99645584,15.3542803 4.78205882,11.3316975 L5.02332459,11.0721705 Z M15.720634,11.3393683 L16.1896376,11.4479626 L16.1559915,11.6816235 C15.9939558,11.6709168 15.8835524,11.6429292 15.6579548,11.5678496 L15.1889512,11.4592554 L15.2225972,11.2255944 C15.384633,11.2363011 15.4950364,11.2642887 15.720634,11.3393683 Z M14.7783224,13.1505256 L14.5616457,13.2394766 L14.1594009,12.2334534 L14.3760776,12.1445024 L14.7783224,13.1505256 Z M15.2793005,10.7759423 L15.2945133,10.5395562 L16.3787478,10.6111981 L16.363535,10.8475843 L15.2793005,10.7759423 Z M10.8546789,10.7562065 L10.8698918,10.5198203 C11.0154019,10.529435 11.131578,10.5284619 11.3937789,10.5196346 C11.6635821,10.5105514 11.7849759,10.5095345 11.940642,10.5198203 L11.9254292,10.7562065 C11.7799191,10.7465917 11.663743,10.7475649 11.4015421,10.7563922 C11.1317389,10.7654754 11.0103451,10.7664923 10.8546789,10.7562065 Z M11.3152211,11.9659156 L11.2392381,11.7418882 C11.2628634,11.7336105 11.2628634,11.7336105 11.2858517,11.7253552 C11.4097481,11.6805861 11.5181517,11.634694 11.6324427,11.579306 C11.7505315,11.5220776 11.7462771,11.5243645 12.1286503,11.3155876 L12.2395492,11.5241272 C11.8518273,11.7358244 11.8565403,11.733291 11.7333121,11.7930101 C11.611836,11.8518801 11.4959846,11.9009252 11.3643774,11.9484805 C11.3400989,11.9571992 11.3400989,11.9571992 11.3152211,11.9659156 Z M13.5909909,13.3314099 L13.3669003,13.2639032 C13.4250392,13.0657505 13.4527232,12.9421769 13.4663811,12.8206899 C13.4782153,12.7154245 13.480174,12.6350944 13.4800787,12.3743946 C13.480071,12.3530177 13.480071,12.3530177 13.4800684,12.3308882 L13.7138527,12.3308882 C13.7138553,12.3529467 13.7138553,12.3529467 13.713863,12.3743069 C13.7139618,12.6446661 13.7118833,12.7299076 13.6986631,12.8475018 C13.6832218,12.9848519 13.6527037,13.1210763 13.5909909,13.3314099 Z M15.7314991,12.3664895 L15.5784554,12.5455637 L14.8177005,11.8780142 L14.9707442,11.69894 L15.7314991,12.3664895 Z M12.2383053,12.8279186 L12.0558377,12.6798252 L12.5922117,12.0012873 L12.7746793,12.1493807 L12.2383053,12.8279186 Z M11.4502973,9.53795512 L11.5643391,9.33116331 L12.4063564,9.80793272 L12.2923145,10.0147245 L11.4502973,9.53795512 Z M13.5584956,11.7988872 C12.7515238,11.7988872 12.2587983,11.4436151 12.2587983,10.7894663 C12.2587983,10.1353175 12.9944545,9.75647796 13.8014264,9.75647796 C14.6083982,9.75647796 14.858193,10.1353175 14.858193,10.7894663 C14.858193,11.4436151 14.3654675,11.7988872 13.5584956,11.7988872 Z" id="eye" fill="#000000" fill-rule="nonzero" opacity="0.5"></path>
                        <path d="M7.47890559,9.58494107 L7.45174527,9.62488754 C6.85021277,9.4371593 6.43932906,9.25596565 6.21909415,9.08130658 C5.99885924,8.9066475 5.84051004,8.75639629 5.74404653,8.63055292 L5.59462658,7.81076647 C5.89902312,8.29970341 6.16672726,8.63577475 6.39773899,8.81898047 C6.56599046,8.95241365 6.82472747,9.09195445 7.17395001,9.23760286 L6.55456622,8.5321373 L6.27080498,7.610152 C6.57816754,8.12563483 6.82036521,8.49625295 6.99739802,8.72200636 C7.17443082,8.94775976 7.42059606,9.1999053 7.73589374,9.47844295 L7.54150766,9.65624355 L7.47890559,9.58494107 Z M6.25224828,10.0799969 L6.13577271,10.3246653 C5.52799311,10.1350392 5.0878163,9.9645498 4.81524228,9.81319713 C4.54266826,9.66184446 4.34231794,9.52859838 4.2141913,9.4134589 L3.912385,8.78073678 C4.38814696,9.14802866 4.75871158,9.40535008 5.02407885,9.55270105 C5.28944613,9.70005202 5.69883594,9.87581731 6.25224828,10.0799969 Z M8.2580501,9.32056719 L8.05743863,9.49011026 L7.11809266,8.40248002 L6.83972876,7.36307972 C7.13085969,7.9650829 7.35770076,8.37825652 7.52025199,8.6026006 C7.68280321,8.82694467 7.92873592,9.06626687 8.2580501,9.32056719 Z M9.59678909,8.86290716 L9.40036308,9.03807326 C9.02638922,8.7243079 8.76189979,8.46605432 8.60689479,8.26331253 C8.45188979,8.06057074 8.3076295,7.88914355 8.17411392,7.74903095 L8.02759308,6.81044689 C8.23394622,7.30376857 8.38379274,7.62400006 8.47713264,7.77114135 C8.59777921,7.96132894 8.73436934,7.96163993 8.82511474,8.08033212 C9.02116979,8.33676612 9.27839458,8.59762447 9.59678909,8.86290716 Z M10.9493696,8.95202831 L10.7555661,9.13056913 C10.3676239,8.89329797 10.0911068,8.6701498 9.92601487,8.4611246 C9.76092295,8.25209941 9.66807763,8.13388833 9.64747893,8.10649138 L9.5281875,7.15264973 C9.7539139,7.7479523 9.95328193,8.15512856 10.1262916,8.37417852 C10.2993013,8.59322848 10.5736606,8.78584508 10.9493696,8.95202831 Z M12.0868288,8.9358105 L11.8977696,9.12018918 C11.5112943,8.84862572 11.2433473,8.62349073 11.0939287,8.44478421 C10.9445102,8.26607769 10.8192986,8.1198771 10.7182942,8.00618245 L10.7621667,7.35149763 C10.8593335,7.72193413 10.9411143,7.96625028 11.0075091,8.08444608 C11.0927906,8.23626408 11.2431948,8.27799905 11.320914,8.37095229 C11.4893942,8.57245669 11.7446991,8.76074276 12.0868288,8.9358105 Z M13.0947196,9.06346482 L12.8849568,9.21955612 C12.3967277,8.90120249 12.0833844,8.63351202 11.9449271,8.41648471 C11.8064697,8.1994574 11.7135608,8.03184239 11.6662004,7.91363969 L11.8290142,7.07951393 C11.8826736,7.51304312 11.9320369,7.79864695 11.9771041,7.93632543 C12.0414008,8.13274946 12.1489802,8.18476306 12.2231464,8.30101603 C12.3752899,8.5394959 12.6658143,8.79364549 13.0947196,9.06346482 Z M13.6505634,9.2074686 L13.4017783,9.2665726 C13.1823125,8.87240801 13.0529336,8.57886941 13.0136415,8.38595681 C12.9743495,8.19304421 12.9605025,8.03744535 12.9721005,7.91916024 L13.3141117,7.55558667 C13.2223329,7.76602329 13.1724447,7.9218152 13.1644469,8.0229624 C13.1505289,8.19898354 13.2285011,8.40597269 13.2500385,8.51171492 C13.2901399,8.7086013 13.4236482,8.94051919 13.6505634,9.2074686 Z M14.1535506,9.34669626 L13.8988177,9.34711227 C13.7546122,9.08103142 13.6824101,8.8770618 13.6822114,8.73520341 C13.6820128,8.59334501 13.7377162,8.48329732 13.8493216,8.40506031 L14.1519336,8.19184313 C14.009529,8.45061102 13.9384078,8.63796636 13.9385702,8.75390916 C13.9387325,8.86985196 14.0103927,9.06744766 14.1535506,9.34669626 Z M14.7658805,9.34191621 L14.5111473,9.34195174 C14.3832456,9.0907247 14.3192875,8.9039701 14.3192729,8.78168794 C14.3192582,8.65940577 14.400821,8.5663848 14.5639611,8.50262501 L14.7657561,8.30151404 C14.6854782,8.52385242 14.6453461,8.69184159 14.6453597,8.80548155 C14.6453733,8.91912151 14.6855469,9.09793306 14.7658805,9.34191621 Z M5.31617265,12.1707608 L5.4878301,12.4539258 C5.32624485,12.4835485 5.22953513,12.5063913 5.19770095,12.5224542 C4.96828588,12.6382123 4.79286862,12.7043411 4.67144917,12.7208405 C4.52475704,12.7407742 4.40004778,12.6990844 4.2973214,12.5957711 L3.88165619,12.4055134 C4.25841044,12.4549829 4.52779862,12.4687093 4.68982071,12.4466925 C4.85184279,12.4246756 5.06062678,12.3326984 5.31617265,12.1707608 Z M5.60861867,12.4627394 L5.73633973,12.7007721 C5.56926895,12.8827475 5.42544551,13.0114669 5.3048694,13.0869302 C5.1842933,13.1623936 5.0676785,13.2172937 4.955025,13.2516306 L4.49851449,13.1575051 C4.84473601,13.0920445 5.08340541,13.0182839 5.21452271,12.9362234 C5.34564001,12.8541628 5.47700533,12.6963348 5.60861867,12.4627394 Z M6.11672645,12.6143241 L6.26607052,12.8371955 C6.1087443,13.0672953 5.97245752,13.2273836 5.85721019,13.3174604 C5.74196285,13.4075373 5.63762075,13.4431382 5.54418388,13.4242632 L5.12005813,13.393316 C5.41850757,13.2998894 5.62509707,13.20834 5.73982664,13.1186678 C5.8545562,13.0289957 5.98018947,12.8608811 6.11672645,12.6143241 Z M6.38161159,13.1563656 L6.59272784,13.3103138 C6.46549358,13.653842 6.36621444,13.882649 6.29489043,13.9967348 C6.22356641,14.1108205 6.07994037,14.2385729 5.86401232,14.3799919 L5.54316423,14.5424654 C5.85984981,14.2463342 6.07211703,14.0120143 6.17996589,13.8395054 C6.28781476,13.6669966 6.35502999,13.4392833 6.38161159,13.1563656 Z M6.82162242,13.2802594 L7.03856149,13.4244564 C6.9109203,13.8554563 6.80597354,14.1431248 6.72372121,14.287462 C6.64146889,14.4317992 6.43770174,14.6184645 6.11241976,14.8474581 L5.83062676,14.8781857 C6.20744332,14.53124 6.44370683,14.2737903 6.53941731,14.1058366 C6.63512779,13.9378829 6.72919616,13.6626905 6.82162242,13.2802594 Z M7.78030084,13.6256808 L7.96259279,13.7295096 C7.87568584,14.0715468 7.79707838,14.3032053 7.72677041,14.4244851 C7.65646243,14.5457649 7.598183,14.6219274 7.5519321,14.6529727 L7.18836666,14.9259668 C7.33605485,14.6687963 7.44747528,14.4753927 7.52262795,14.3457559 C7.59778063,14.2161191 7.68367159,13.976094 7.78030084,13.6256808 Z M8.06859731,13.8674831 L8.31450131,13.885426 C8.32132167,14.2293177 8.30618732,14.4526704 8.26909827,14.5554841 C8.23200922,14.6582978 8.20086093,14.7059644 8.17565341,14.6984838 L7.7609498,14.8165404 C7.9120439,14.6569226 8.00324357,14.5337234 8.03454884,14.4469428 C8.0658541,14.3601622 8.07720359,14.167009 8.06859731,13.8674831 Z M8.87950877,14.1190358 L9.05815996,14.1445768 C9.04246983,14.4966741 9.02725309,14.7310876 9.01250974,14.8478173 C8.99776639,14.9645469 8.99144069,15.0515991 8.99353264,15.1089738 L8.64375182,15.3764815 C8.75295463,15.1419132 8.81555589,14.9612906 8.83155562,14.8346136 C8.84755534,14.7079366 8.86353973,14.4694106 8.87950877,14.1190358 Z M9.92912887,14.3803798 L10.1531268,14.511385 C10.1481254,14.7319674 10.1217155,14.8899422 10.0738971,14.9853095 C10.0260787,15.0806767 9.89867028,15.2294716 9.69167174,15.4316942 L9.65353141,15.4289112 C9.75876275,15.193553 9.83875114,15.0212827 9.89349658,14.9121003 C9.94824203,14.802918 9.96011946,14.6256778 9.92912887,14.3803798 Z M10.8289458,14.7422688 L11.0834581,14.7537218 C11.0863893,14.9846591 11.0858784,15.1513574 11.0819255,15.2538168 C11.0779726,15.3562763 11.0668331,15.4915565 11.0485069,15.6596576 L10.909603,15.6495222 C10.8735395,15.4898403 10.8583585,15.3361092 10.8640599,15.1883289 C10.8697613,15.0405485 10.8580566,14.8918618 10.8289458,14.7422688 Z M7.00065588,9.88372029 L6.87372309,10.1222443 C6.31305539,9.9207627 5.91483029,9.74684536 5.6790478,9.60049224 C5.44326531,9.45413912 5.33401223,9.37644262 5.35128857,9.36740274 L5.10247102,8.70549337 C5.40882996,9.110236 5.66813641,9.37848165 5.88039038,9.51023032 C6.09264434,9.64197899 6.46606617,9.76647564 7.00065588,9.88372029 Z M6.0450538,10.5143764 L5.97206179,10.7779524 C5.30231987,10.7956811 4.83427701,10.7615293 4.56793323,10.6754972 C4.30158945,10.5894651 4.05175208,10.4252682 3.81842112,10.1829066 L3.59971507,9.72450362 C4.07127795,10.1039895 4.43214043,10.3341351 4.68230251,10.4149404 C4.93246458,10.4957456 5.38671502,10.528891 6.0450538,10.5143764 Z M8.94122312,9.27993246 L8.73400331,9.4399365 C8.31546677,9.10246317 8.03933595,8.83272404 7.90561083,8.63071912 C7.77188571,8.42871419 7.68521892,8.25273316 7.64561048,8.10277601 L7.62066558,7.28510066 C7.83515166,7.83706657 8.02344874,8.23548961 8.18555683,8.48036979 C8.34766492,8.72524997 8.59955368,8.99177086 8.94122312,9.27993246 Z" id="eye-lashes" fill="#000000" fill-rule="nonzero" opacity="0.400000006" transform="translate(9.182798, 11.235052) rotate(1.000000) translate(-9.182798, -11.235052) "></path>
                        <path d="M1.20397407,3.32114711 L0.721447441,2.44526581 C7.70015177,-1.39933128 13.078327,1.38268152 22.8809345,3.74606983 L22.6465525,4.7182144 C13.0641213,2.40791014 7.92765411,-0.38295604 1.20397407,3.32114711 Z" id="eye-brow" fill="#000000" fill-rule="nonzero" opacity="0.3"></path>
                    </g>
                    <g id="eye-r" transform="translate(69.771127, 9.753959) scale(-1, 1) rotate(-5.000000) translate(-69.771127, -9.753959) translate(57.771127, 1.753959)">
                        <path d="M11.1142716,14.8970681 C13.9465528,14.8970681 16.5591686,14.561226 18.9521188,13.8895417 C15.4896273,10.7007841 12.3422409,9.10640528 9.50995962,9.10640528 C6.67767837,9.10640528 4.20782417,9.74410291 2.10039701,11.0194982 C5.27736548,13.6045448 8.28199035,14.8970681 11.1142716,14.8970681 Z" id="eye-white" fill="#FFFFFF" opacity="0.800000012"></path>
                        <path d="M10.8672808,14.3857797 C12.8976816,14.3857797 14.5436467,12.6615201 14.5436467,10.5345381 C14.5436467,10.2443832 13.0350745,9.77756838 10.01793,9.13409366 C8.13325322,8.64973528 7.19091484,9.11655009 7.19091484,10.5345381 C7.19091484,12.6615201 8.83687993,14.3857797 10.8672808,14.3857797 Z" id="iris" fill="#373737" opacity="0.700000048"></path>
                        <path d="M6.98585527,9.47176823 C5.53533395,9.74558386 4.01474185,10.2467203 2.25972634,10.9735094 C6.25176825,14.7297374 11.8536689,15.819474 18.6874423,13.6408538 C17.5808753,12.5627882 16.6531268,11.8209725 15.9094777,11.4168707 C15.5661474,11.2303036 15.0869687,11.0202146 14.4727132,10.7870377 C14.5786859,11.3471269 14.5196576,11.9274918 14.292402,12.3849991 C13.6200891,13.7384886 12.4122704,14.6330287 11.101794,14.6693692 C8.26086784,14.7481502 5.91428724,12.1855009 6.98585527,9.47176823 Z M7.3519759,9.40725656 L7.60011312,9.5232481 C6.535935,11.8606657 8.56848758,14.1471774 11.0858048,14.0773703 C12.1651524,14.0474391 13.1889504,13.2891892 13.7703397,12.1187457 C13.9835294,11.6895555 13.9960125,11.0786374 13.8011528,10.54184 C13.3984232,10.3998798 12.9517986,10.2504502 12.4614223,10.093632 C12.3498293,10.1596958 12.27445,10.1923144 12.1519259,10.2220037 L12.0779019,9.9982874 L12.1122837,9.9830516 C11.4921929,9.78848189 10.8076525,9.58304742 10.058919,9.36689254 C10.0737076,9.43276846 10.0923314,9.51494207 10.1022546,9.55546088 L9.87535222,9.61251497 C9.8567135,9.53640795 9.81018739,9.32636555 9.80967575,9.3241695 C9.80115813,9.28761029 9.79296567,9.25546658 9.78460878,9.22664033 C8.97174755,9.21305252 8.17095104,9.27336024 7.3519759,9.40725656 Z M2.02332459,11.0721705 C1.9829453,11.0891501 1.94244107,11.1062464 1.90180998,11.1234592 L1.67636593,10.5770695 C8.41161669,7.72377585 11.8194613,8.00213749 20.0581956,11.4563066 L19.8347385,12.0035337 C17.0670368,10.8431479 14.8650897,10.0479452 12.9036416,9.61462439 C14.4385279,10.1132878 15.5310138,10.5392046 16.1857004,10.8949638 C17.1953866,11.4436313 18.4784644,12.5372779 20.0457721,14.1789078 L19.6257061,14.5906761 C19.4670338,14.4244794 19.3114472,14.2641252 19.1589586,14.1096169 C11.9527318,16.4922503 5.99645584,15.3542803 1.78205882,11.3316975 L2.02332459,11.0721705 Z M12.720634,11.3393683 L13.1896376,11.4479626 L13.1559915,11.6816235 C12.9939558,11.6709168 12.8835524,11.6429292 12.6579548,11.5678496 L12.1889512,11.4592554 L12.2225972,11.2255944 C12.384633,11.2363011 12.4950364,11.2642887 12.720634,11.3393683 Z M11.7783224,13.1505256 L11.5616457,13.2394766 L11.1594009,12.2334534 L11.3760776,12.1445024 L11.7783224,13.1505256 Z M12.2793005,10.7759423 L12.2945133,10.5395562 L13.3787478,10.6111981 L13.363535,10.8475843 L12.2793005,10.7759423 Z M7.85467894,10.7562065 L7.86989176,10.5198203 C8.01540186,10.529435 8.13157801,10.5284619 8.3937789,10.5196346 C8.66358208,10.5105514 8.78497588,10.5095345 8.94064204,10.5198203 L8.92542922,10.7562065 C8.77991912,10.7465917 8.66374297,10.7475649 8.40154208,10.7563922 C8.1317389,10.7654754 8.0103451,10.7664923 7.85467894,10.7562065 Z M8.31522112,11.9659156 L8.23923812,11.7418882 C8.26286343,11.7336105 8.26286343,11.7336105 8.28585167,11.7253552 C8.40974806,11.6805861 8.5181517,11.634694 8.63244273,11.579306 C8.75053153,11.5220776 8.7462771,11.5243645 9.12865033,11.3155876 L9.23954916,11.5241272 C8.85182728,11.7358244 8.85654029,11.733291 8.73331212,11.7930101 C8.61183604,11.8518801 8.49598456,11.9009252 8.36437744,11.9484805 C8.34009888,11.9571992 8.34009888,11.9571992 8.31522112,11.9659156 Z M10.5909909,13.3314099 L10.3669003,13.2639032 C10.4250392,13.0657505 10.4527232,12.9421769 10.4663811,12.8206899 C10.4782153,12.7154245 10.480174,12.6350944 10.4800787,12.3743946 C10.480071,12.3530177 10.480071,12.3530177 10.4800684,12.3308882 L10.7138527,12.3308882 C10.7138553,12.3529467 10.7138553,12.3529467 10.713863,12.3743069 C10.7139618,12.6446661 10.7118833,12.7299076 10.6986631,12.8475018 C10.6832218,12.9848519 10.6527037,13.1210763 10.5909909,13.3314099 Z M12.7314991,12.3664895 L12.5784554,12.5455637 L11.8177005,11.8780142 L11.9707442,11.69894 L12.7314991,12.3664895 Z M9.23830532,12.8279186 L9.05583774,12.6798252 L9.59221171,12.0012873 L9.77467929,12.1493807 L9.23830532,12.8279186 Z M8.45029728,9.53795512 L8.56433915,9.33116331 L9.40635639,9.80793272 L9.29231453,10.0147245 L8.45029728,9.53795512 Z M10.5584956,11.7988872 C9.75152378,11.7988872 9.25879827,11.4436151 9.25879827,10.7894663 C9.25879827,10.1353175 9.99445453,9.75647796 10.8014264,9.75647796 C11.6083982,9.75647796 11.858193,10.1353175 11.858193,10.7894663 C11.858193,11.4436151 11.3654675,11.7988872 10.5584956,11.7988872 Z" id="eye" fill="#000000" fill-rule="nonzero" opacity="0.5"></path>
                        <path d="M4.47890559,9.58494107 L4.45174527,9.62488754 C3.85021277,9.4371593 3.43932906,9.25596565 3.21909415,9.08130658 C2.99885924,8.9066475 2.84051004,8.75639629 2.74404653,8.63055292 L2.59462658,7.81076647 C2.89902312,8.29970341 3.16672726,8.63577475 3.39773899,8.81898047 C3.56599046,8.95241365 3.82472747,9.09195445 4.17395001,9.23760286 L3.55456622,8.5321373 L3.27080498,7.610152 C3.57816754,8.12563483 3.82036521,8.49625295 3.99739802,8.72200636 C4.17443082,8.94775976 4.42059606,9.1999053 4.73589374,9.47844295 L4.54150766,9.65624355 L4.47890559,9.58494107 Z M3.25224828,10.0799969 L3.13577271,10.3246653 C2.52799311,10.1350392 2.0878163,9.9645498 1.81524228,9.81319713 C1.54266826,9.66184446 1.34231794,9.52859838 1.2141913,9.4134589 L0.912384997,8.78073678 C1.38814696,9.14802866 1.75871158,9.40535008 2.02407885,9.55270105 C2.28944613,9.70005202 2.69883594,9.87581731 3.25224828,10.0799969 Z M5.2580501,9.32056719 L5.05743863,9.49011026 L4.11809266,8.40248002 L3.83972876,7.36307972 C4.13085969,7.9650829 4.35770076,8.37825652 4.52025199,8.6026006 C4.68280321,8.82694467 4.92873592,9.06626687 5.2580501,9.32056719 Z M6.59678909,8.86290716 L6.40036308,9.03807326 C6.02638922,8.7243079 5.76189979,8.46605432 5.60689479,8.26331253 C5.45188979,8.06057074 5.3076295,7.88914355 5.17411392,7.74903095 L5.02759308,6.81044689 C5.23394622,7.30376857 5.38379274,7.62400006 5.47713264,7.77114135 C5.59777921,7.96132894 5.73436934,7.96163993 5.82511474,8.08033212 C6.02116979,8.33676612 6.27839458,8.59762447 6.59678909,8.86290716 Z M7.94936961,8.95202831 L7.75556608,9.13056913 C7.36762386,8.89329797 7.09110679,8.6701498 6.92601487,8.4611246 C6.76092295,8.25209941 6.66807763,8.13388833 6.64747893,8.10649138 L6.5281875,7.15264973 C6.7539139,7.7479523 6.95328193,8.15512856 7.12629159,8.37417852 C7.29930126,8.59322848 7.5736606,8.78584508 7.94936961,8.95202831 Z M9.0868288,8.9358105 L8.89776957,9.12018918 C8.51129426,8.84862572 8.24334731,8.62349073 8.09392875,8.44478421 C7.94451018,8.26607769 7.81929865,8.1198771 7.71829415,8.00618245 L7.76216667,7.35149763 C7.85933351,7.72193413 7.94111431,7.96625028 8.00750907,8.08444608 C8.09279061,8.23626408 8.24319478,8.27799905 8.32091404,8.37095229 C8.48939418,8.57245669 8.7446991,8.76074276 9.0868288,8.9358105 Z M10.0947196,9.06346482 L9.88495681,9.21955612 C9.39672768,8.90120249 9.08338443,8.63351202 8.94492705,8.41648471 C8.80646968,8.1994574 8.7135608,8.03184239 8.66620042,7.91363969 L8.82901421,7.07951393 C8.88267358,7.51304312 8.93203686,7.79864695 8.97710406,7.93632543 C9.04140083,8.13274946 9.1489802,8.18476306 9.22314635,8.30101603 C9.37528985,8.5394959 9.66581425,8.79364549 10.0947196,9.06346482 Z M10.6505634,9.2074686 L10.4017783,9.2665726 C10.1823125,8.87240801 10.0529336,8.57886941 10.0136415,8.38595681 C9.97434951,8.19304421 9.9605025,8.03744535 9.97210049,7.91916024 L10.3141117,7.55558667 C10.2223329,7.76602329 10.1724447,7.9218152 10.1644469,8.0229624 C10.1505289,8.19898354 10.2285011,8.40597269 10.2500385,8.51171492 C10.2901399,8.7086013 10.4236482,8.94051919 10.6505634,9.2074686 Z M11.1535506,9.34669626 L10.8988177,9.34711227 C10.7546122,9.08103142 10.6824101,8.8770618 10.6822114,8.73520341 C10.6820128,8.59334501 10.7377162,8.48329732 10.8493216,8.40506031 L11.1519336,8.19184313 C11.009529,8.45061102 10.9384078,8.63796636 10.9385702,8.75390916 C10.9387325,8.86985196 11.0103927,9.06744766 11.1535506,9.34669626 Z M11.7658805,9.34191621 L11.5111473,9.34195174 C11.3832456,9.0907247 11.3192875,8.9039701 11.3192729,8.78168794 C11.3192582,8.65940577 11.400821,8.5663848 11.5639611,8.50262501 L11.7657561,8.30151404 C11.6854782,8.52385242 11.6453461,8.69184159 11.6453597,8.80548155 C11.6453733,8.91912151 11.6855469,9.09793306 11.7658805,9.34191621 Z M2.31617265,12.1707608 L2.4878301,12.4539258 C2.32624485,12.4835485 2.22953513,12.5063913 2.19770095,12.5224542 C1.96828588,12.6382123 1.79286862,12.7043411 1.67144917,12.7208405 C1.52475704,12.7407742 1.40004778,12.6990844 1.2973214,12.5957711 L0.881656191,12.4055134 C1.25841044,12.4549829 1.52779862,12.4687093 1.68982071,12.4466925 C1.85184279,12.4246756 2.06062678,12.3326984 2.31617265,12.1707608 Z M2.60861867,12.4627394 L2.73633973,12.7007721 C2.56926895,12.8827475 2.42544551,13.0114669 2.3048694,13.0869302 C2.1842933,13.1623936 2.0676785,13.2172937 1.955025,13.2516306 L1.49851449,13.1575051 C1.84473601,13.0920445 2.08340541,13.0182839 2.21452271,12.9362234 C2.34564001,12.8541628 2.47700533,12.6963348 2.60861867,12.4627394 Z M3.11672645,12.6143241 L3.26607052,12.8371955 C3.1087443,13.0672953 2.97245752,13.2273836 2.85721019,13.3174604 C2.74196285,13.4075373 2.63762075,13.4431382 2.54418388,13.4242632 L2.12005813,13.393316 C2.41850757,13.2998894 2.62509707,13.20834 2.73982664,13.1186678 C2.8545562,13.0289957 2.98018947,12.8608811 3.11672645,12.6143241 Z M3.38161159,13.1563656 L3.59272784,13.3103138 C3.46549358,13.653842 3.36621444,13.882649 3.29489043,13.9967348 C3.22356641,14.1108205 3.07994037,14.2385729 2.86401232,14.3799919 L2.54316423,14.5424654 C2.85984981,14.2463342 3.07211703,14.0120143 3.17996589,13.8395054 C3.28781476,13.6669966 3.35502999,13.4392833 3.38161159,13.1563656 Z M3.82162242,13.2802594 L4.03856149,13.4244564 C3.9109203,13.8554563 3.80597354,14.1431248 3.72372121,14.287462 C3.64146889,14.4317992 3.43770174,14.6184645 3.11241976,14.8474581 L2.83062676,14.8781857 C3.20744332,14.53124 3.44370683,14.2737903 3.53941731,14.1058366 C3.63512779,13.9378829 3.72919616,13.6626905 3.82162242,13.2802594 Z M4.78030084,13.6256808 L4.96259279,13.7295096 C4.87568584,14.0715468 4.79707838,14.3032053 4.72677041,14.4244851 C4.65646243,14.5457649 4.598183,14.6219274 4.5519321,14.6529727 L4.18836666,14.9259668 C4.33605485,14.6687963 4.44747528,14.4753927 4.52262795,14.3457559 C4.59778063,14.2161191 4.68367159,13.976094 4.78030084,13.6256808 Z M5.06859731,13.8674831 L5.31450131,13.885426 C5.32132167,14.2293177 5.30618732,14.4526704 5.26909827,14.5554841 C5.23200922,14.6582978 5.20086093,14.7059644 5.17565341,14.6984838 L4.7609498,14.8165404 C4.9120439,14.6569226 5.00324357,14.5337234 5.03454884,14.4469428 C5.0658541,14.3601622 5.07720359,14.167009 5.06859731,13.8674831 Z M5.87950877,14.1190358 L6.05815996,14.1445768 C6.04246983,14.4966741 6.02725309,14.7310876 6.01250974,14.8478173 C5.99776639,14.9645469 5.99144069,15.0515991 5.99353264,15.1089738 L5.64375182,15.3764815 C5.75295463,15.1419132 5.81555589,14.9612906 5.83155562,14.8346136 C5.84755534,14.7079366 5.86353973,14.4694106 5.87950877,14.1190358 Z M6.92912887,14.3803798 L7.15312681,14.511385 C7.1481254,14.7319674 7.1217155,14.8899422 7.07389712,14.9853095 C7.02607875,15.0806767 6.89867028,15.2294716 6.69167174,15.4316942 L6.65353141,15.4289112 C6.75876275,15.193553 6.83875114,15.0212827 6.89349658,14.9121003 C6.94824203,14.802918 6.96011946,14.6256778 6.92912887,14.3803798 Z M7.82894579,14.7422688 L8.08345811,14.7537218 C8.08638927,14.9846591 8.0858784,15.1513574 8.0819255,15.2538168 C8.07797259,15.3562763 8.06683307,15.4915565 8.04850693,15.6596576 L7.90960304,15.6495222 C7.87353952,15.4898403 7.85835846,15.3361092 7.86405986,15.1883289 C7.86976126,15.0405485 7.85805657,14.8918618 7.82894579,14.7422688 Z M4.00065588,9.88372029 L3.87372309,10.1222443 C3.31305539,9.9207627 2.91483029,9.74684536 2.6790478,9.60049224 C2.44326531,9.45413912 2.33401223,9.37644262 2.35128857,9.36740274 L2.10247102,8.70549337 C2.40882996,9.110236 2.66813641,9.37848165 2.88039038,9.51023032 C3.09264434,9.64197899 3.46606617,9.76647564 4.00065588,9.88372029 Z M3.0450538,10.5143764 L2.97206179,10.7779524 C2.30231987,10.7956811 1.83427701,10.7615293 1.56793323,10.6754972 C1.30158945,10.5894651 1.05175208,10.4252682 0.81842112,10.1829066 L0.599715071,9.72450362 C1.07127795,10.1039895 1.43214043,10.3341351 1.68230251,10.4149404 C1.93246458,10.4957456 2.38671502,10.528891 3.0450538,10.5143764 Z M5.94122312,9.27993246 L5.73400331,9.4399365 C5.31546677,9.10246317 5.03933595,8.83272404 4.90561083,8.63071912 C4.77188571,8.42871419 4.68521892,8.25273316 4.64561048,8.10277601 L4.62066558,7.28510066 C4.83515166,7.83706657 5.02344874,8.23548961 5.18555683,8.48036979 C5.34766492,8.72524997 5.59955368,8.99177086 5.94122312,9.27993246 Z" id="eye-lashes" fill="#000000" fill-rule="nonzero" opacity="0.400000006" transform="translate(6.182798, 11.235052) rotate(1.000000) translate(-6.182798, -11.235052) "></path>
                        <path d="M2.18875286,3.66977008 L1.70622623,2.79388878 C8.68493057,-1.05070831 14.0631058,1.73130449 23.8657133,4.0946928 L23.6313313,5.06683737 C14.0489001,2.75653311 8.91243291,-0.0343330688 2.18875286,3.66977008 Z" id="eye-brow" fill="#000000" fill-rule="nonzero" opacity="0.3"></path>
                    </g>
                    <path d="M58.1704058,33.5148186 C57.869149,34.1711054 57.0286721,34.4807293 55.4888342,34.662776 C52.4311467,35.0242697 51.0085241,34.7028317 50.2302566,33.5537342 C50.118289,33.561278 49.954465,33.5760492 49.6153695,33.6074215 C49.2639316,33.6386017 48.9896529,33.6576732 48.7167244,33.6667744 C48.1869261,33.6844412 47.7488762,33.6595131 47.3883591,33.5737701 C46.3187521,33.3193816 45.8331633,32.3101734 46.0510784,31.753686 C46.2257244,31.3076946 46.3286453,31.0768094 46.4445356,30.8926761 C46.7861236,30.3499411 47.0427569,30.3012492 48.0911034,30.3600934 C48.7189748,30.3953361 49.2305747,30.39385 49.9452106,30.3297871 L50.0319639,31.0554064 L50.2941089,30.9709249 C50.3884412,31.1903997 50.4619216,31.4135859 50.5470976,31.7190804 C50.5649677,31.7831738 50.5799875,31.8383201 50.611548,31.9549778 C50.7116671,32.3245702 50.8200792,32.6372767 50.9582474,32.897615 C50.9795396,32.9251312 50.9967097,32.9553441 51.008843,32.9882863 C51.5693514,33.9431211 52.6089999,34.1293005 55.353557,33.8048264 C57.1948559,33.5871397 57.450379,33.3870894 57.2424292,32.3382446 C57.0773765,31.5057614 54.6151841,25.230764 54.1622693,23.9767753 C53.6332955,22.5122017 53.3569693,21.0324324 53.0182217,18.2640478 C53.0482752,18.5096573 52.7599112,16.1082356 52.669819,15.4057377 C52.5194749,14.2334234 52.3680626,13.1872974 52.1898306,12.1244285 L53.1794524,12 C53.3594421,13.0733513 53.51221,14.1288426 53.6637095,15.3101668 C53.7542568,16.0162128 54.0430484,18.4211956 54.0126553,18.172811 C54.3447704,20.8869926 54.6131388,22.324146 55.1166817,23.7183092 C55.4147849,24.5436697 56.74564,27.9548353 57.5704265,30.2198948 C58.0524242,30.2467345 58.4618827,30.2411388 58.9382785,30.2143985 C59.986625,30.1555544 60.2432583,30.2042462 60.5848463,30.7469812 C60.7007367,30.9311146 60.8036575,31.1619997 60.9783035,31.6079912 C61.1962186,32.1644786 60.7106298,33.1736867 59.6410228,33.4280752 C59.2805057,33.5138183 58.8424558,33.5387464 58.3126575,33.5210795 C58.2713122,33.5197008 58.223895,33.5176138 58.1704058,33.5148186 Z M58.2937448,32.6632804 C58.3145266,32.6577184 58.3336581,32.6552288 58.3511392,32.6558117 C58.7874725,32.6703619 59.1342364,32.6506286 59.376168,32.5930891 C59.8459634,32.481356 60.0766424,32.0019316 60.031266,31.8860545 C59.8753864,31.4879865 59.7856306,31.286635 59.7067787,31.1613504 C59.6240453,31.0298988 59.679905,31.0404972 59.0029653,31.0784941 C58.613206,31.1003715 58.2609505,31.1091632 57.8849401,31.0995579 C58.0669288,31.6212962 58.1924716,32.0124815 58.2280102,32.1917289 C58.2613609,32.3599414 58.2834785,32.5168434 58.2937448,32.6632804 Z M50.1804672,33.4777188 C50.0724922,33.4143569 49.9920738,33.3095066 50.0037443,33.1611372 C50.0586426,33.2725931 50.117354,33.3780916 50.1804672,33.4777188 Z M49.8157538,32.7182338 C49.7510114,32.5416474 49.6922863,32.3532223 49.6379732,32.152724 C49.6065308,32.036512 49.5921672,31.9837749 49.575026,31.9222958 C49.4983965,31.6474544 49.4346322,31.4537796 49.3569124,31.2729555 L49.4844975,31.2318386 C48.9727178,31.2589023 48.5309946,31.2525112 48.0264166,31.224189 C47.3494769,31.1861921 47.4053366,31.1755936 47.3226032,31.3070452 C47.2437513,31.4323298 47.1539955,31.6336813 46.9981159,32.0317494 C46.9527395,32.1476265 47.1834185,32.6270509 47.6532139,32.738784 C47.8951455,32.7963234 48.2419094,32.8160567 48.6782427,32.8015066 C48.925931,32.7932471 49.1812968,32.7754907 49.513442,32.7460221 C49.6320721,32.7349998 49.7312575,32.7258471 49.8157538,32.7182338 Z" id="nose" fill="#000000" fill-rule="nonzero" opacity="0.3"></path>
                    <path d="M3.54821326,18.1421042 C3.43170021,18.3610598 3.28809429,18.6051604 3.10696883,18.9013648 C2.62860238,19.6836638 2.44985698,20.0423364 2.32897434,20.5636131 C2.24756073,20.9146894 2.25663777,21.2985865 2.33852779,22.2176298 C2.42959272,23.2396422 2.43973289,23.6685027 2.32897434,24.1461218 L1.47921718,23.9490654 C1.56063079,23.5979892 1.55155375,23.2140921 1.46966373,22.2950487 C1.3785988,21.2730364 1.36845863,20.8441759 1.47921718,20.3665568 C1.62770342,19.7262462 1.83740807,19.3054504 2.36277046,18.4462964 C2.7973822,17.7355519 2.98467704,17.3744823 3.10595739,16.9234543 C2.99609232,16.6728682 2.91526034,16.454274 2.77468223,16.0501661 C2.36831765,14.8823605 2.00059445,14.1927766 0.839127834,12.6787599 L1.53123668,12.1478138 C2.75024414,13.7368372 3.1620167,14.509026 3.5922743,15.7454918 C3.75606521,16.2163254 3.83120297,16.4148638 3.96221136,16.7010175 C4.60801987,18.1116184 4.70215329,19.2251949 4.67468583,22.8357484 C4.65786904,25.0462883 4.67156327,26.2805792 4.76068026,27.9536006 L3.88960877,28 C3.7993194,26.3049692 3.78546304,25.0560644 3.80240468,22.8291125 C3.82128587,20.3472106 3.78140537,19.10486 3.54821326,18.1421042 Z" id="ear" fill="#000000" fill-rule="nonzero" opacity="0.3"></path>
                </g>
                <g id="hair" transform="translate(27.000000, 0.000000)">
                    <path d="M132.141491,9.83658764 C145.601296,17.9317497 137.564924,23.0184298 144.095702,37.4319614 C148.598739,47.370236 145.122296,51.711084 150.950422,70.4739742 C159.574924,98.239428 164.332585,112.367065 168.143404,118.940961 C169.218898,120.796254 172.50443,125.195774 178,132.139521 L156.905251,130.28913 C153.602752,129.623285 151.142883,129.623285 149.525643,130.28913 C148.680692,130.63701 147.127187,129.766747 146.225504,136.63941 C145.676077,140.82717 145.054968,151.327733 144.362178,168.141099 L137.354884,125.088571 C134.469003,121.429147 132.979314,119.123513 132.885815,118.17167 C131.981776,108.968357 129.010283,100.490783 129.471209,95.4850451 C129.620841,93.8600156 135.34227,89.4563146 135.635751,86.9198152 C137.539958,70.4621266 140.245555,75.0074526 137.646127,53.0506074 C135.93252,38.5761178 133.339099,35.7168649 132.774348,23.527296 C132.621661,20.231702 131.794064,17.9545672 130.965705,16.2341282 C112.700005,15.2074229 114.115336,14.7369943 100.81155,16.6264168 C94.3931677,17.5379646 60.6610298,24.6641822 56.961185,37.6560507 C55.829163,41.6311042 57.1838461,48.7606137 54.0688406,47.1426192 C52.4069317,46.2793913 50.4267691,44.3531987 48.6759563,43.5244013 C46.624034,42.5530651 44.8552928,42.6441741 43.8063319,41.0591565 C41.86234,38.1217147 42.8440669,49.7091291 43.583568,52.9782708 C44.2447924,55.9013712 45.3001696,56.7643046 45.8464947,59.8746022 C46.5057482,63.627816 51.8460941,65.2970215 52.959913,65.8514873 C55.9976504,67.3636914 55.7261755,60.7409131 57.4427482,66.6826502 C60.9979298,78.9885399 62.656207,80.1298485 67.4464053,89.7648813 C78.8595523,112.721352 72.1609719,98.0803639 77.0268834,128.152151 C80.260311,148.135036 72.2939743,138.706001 69.4413813,160.063737 C67.8503355,171.976105 70.2984428,184.434272 66.8886029,196.009043 C64.9005665,202.757474 59.8528916,212.886918 60.5592282,221.18005 C61.6762593,234.295167 57.6602296,243.096056 52.0925968,246.390967 C47.243545,249.260623 33.4065077,251.105545 45.3173985,244.758102 L47.7543065,236.642211 C49.6754359,228.459294 48.3820417,222.039484 49.7070114,213.753723 C50.6975078,207.559607 54.0669248,201.768427 54.5640659,195.520934 C54.6586075,194.332845 51.7398589,196.052135 51.0361666,197.050442 C46.5349279,203.436211 41.9657593,209.960703 39.3065737,217.166271 C36.8167248,223.912989 37.0380447,245.376398 35.8077313,238.314774 C33.2449078,223.604948 32.094352,210.604858 32.7148551,195.749089 C32.8440903,192.655005 35.2457376,188.147525 36.5905098,184.727597 C37.1694331,183.255321 39.670685,180.837082 38.2136156,180.714315 C35.0014127,180.443665 31.5432621,185.448819 28.3147033,187.321795 C11.7761076,196.916289 -1.8438725,222.078041 18.0482488,181.572328 C20.0258287,177.545443 24.947051,173.166191 25.8694699,170.245855 C26.1344042,169.407085 29.5280683,167.559756 28.1682004,167.265912 C21.0322177,165.72395 12.8875288,182.553161 8.84656735,186.301513 C-2.58597442,196.906215 0.0532877749,203.039563 5.77152366,169.192566 L10.3972103,156.713483 C19.0289195,137.384519 35.5157326,121.946874 40.9593688,101.364801 C44.2099878,89.0743987 41.3619183,78.5540557 40.7224512,65.8063766 C38.6359276,24.2118401 38.0190277,2.06581894 88.9267699,1.3203098 C96.1944701,1.21387929 117.074501,-0.65127611 128.632294,5.10705537 C129.155263,5.36760937 130.710321,7.49518506 132.141491,9.83658764 Z" fill="#F7F7F7"></path>
                    <path d="M168.397706,119.208572 C164.798746,113.004259 160.540368,100.869081 151.11141,70.5339008 C148.54123,62.2650238 147.833157,58.0122353 147.061635,49.5066746 C146.866251,47.3526852 146.72907,46.1363329 146.512453,44.8342972 C146.08914,42.2898617 145.412062,40.0175184 144.256811,37.4695509 C142.063315,32.6316769 141.485925,29.5938014 141.047548,23.570011 C140.739448,19.3363796 140.339689,17.5834533 138.865556,15.4651745 C137.865015,14.0274305 136.394169,12.6415604 134.294725,11.204092 C132.599616,8.26712725 130.446048,5.18595693 129.963077,4.94802457 C125.760704,2.87775407 120.01107,1.70330657 112.945855,1.24473989 C107.838407,0.913241739 102.876021,0.960318656 96.0929008,1.25872986 C95.5026492,1.28469692 93.4117438,1.38039213 92.9584844,1.40024162 C91.8712198,1.44785598 91.103566,1.47595917 90.4551354,1.48983674 C66.003167,2.01315264 52.8987446,7.32629133 46.7102709,18.4601356 C41.6048529,27.6454261 40.9584318,37.7729916 42.1522903,65.9033222 C42.273645,68.7627459 42.4691093,71.1818395 42.9029682,75.70222 C43.4223664,81.1138362 43.5784182,82.9875789 43.6856873,85.7176688 C43.9172196,91.6103562 43.477893,96.5896073 42.0964919,101.664881 C39.3971953,111.582109 35.2497414,118.972878 25.1849627,133.788622 C24.9082541,134.195898 24.9082541,134.195898 24.63152,134.603144 C17.2002092,145.539608 14.0166835,150.689138 10.9845709,157.370764 L6.26803584,169.824223 C4.65107915,178.970349 2.17737519,190.289867 1.40529737,193.887216 C1.56152716,193.70113 1.75235608,193.472049 1.99016009,193.185876 C4.18755875,190.541532 5.83970103,188.723665 8.21734172,186.521147 C8.94808916,185.844222 9.85950469,184.696539 11.196962,182.816176 C11.5285359,182.350009 14.1986322,178.510015 15.0554012,177.320951 C18.1758414,172.990257 20.6505583,170.18435 23.1045214,168.53761 C24.9186772,167.320214 26.6551095,166.823474 28.3152195,167.171012 C29.1805804,167.352173 29.2710028,167.98607 28.8036177,168.572789 C28.5692939,168.866941 28.296367,169.108323 27.5653361,169.708115 C26.7861631,170.347452 26.4563621,170.66155 26.410582,170.803097 C25.940555,172.256366 25.481354,172.877501 22.0114257,177.156839 C21.1100787,178.268438 20.4844714,179.074739 19.9209885,179.870293 C19.3033108,180.742363 18.81548,181.531226 18.4480802,182.269059 C14.0064741,191.188941 11.5487229,196.251143 10.0835467,199.532204 C9.30598618,201.273445 8.81406622,202.50427 8.57440696,203.305096 C9.90927941,202.485625 16.7454382,195.851873 18.7321193,194.106599 C21.9231084,191.303355 24.9192922,189.043014 27.843559,187.336876 C28.8002485,186.778703 29.5729633,186.134603 31.4617848,184.414152 C31.9207091,183.996137 32.1684373,183.772199 32.4473788,183.525046 C34.8710931,181.377534 36.4785054,180.431529 38.2044785,180.565131 C39.13802,180.637393 39.3642702,181.273108 39.045558,182.025729 C38.8736759,182.431619 38.6935801,182.708399 37.985778,183.722978 C37.4208766,184.538386 37.1762001,184.939098 37.0438368,185.269578 C36.8422209,185.772966 36.6107323,186.318605 36.3137522,186.996037 C36.1380287,187.396874 35.4839582,188.869193 35.5076777,188.815598 C35.2763656,189.338261 35.0926626,189.75882 34.9197539,190.163528 C33.7658598,192.864322 33.1738017,194.722373 33.1007814,196.193864 C32.4159724,209.994003 33.2326708,222.528327 35.6581476,237.466788 C35.8608506,235.337718 36.3437048,229.687491 36.5330283,227.862885 C37.0406463,222.970715 37.6227036,219.518413 38.4095682,217.428129 C40.7034935,211.334379 43.5857486,206.669962 50.3942704,197.084574 C50.7992376,196.514441 51.7696372,195.773307 52.6790373,195.311316 C53.1811174,195.056251 53.6276766,194.903277 54.0034195,194.88731 C54.6442492,194.86008 55.0757153,195.246548 55.0244117,195.83321 C54.7761877,198.671672 54.1242849,201.000762 52.4851707,205.66207 C50.9491406,210.02746 50.3918119,211.856833 50.0038644,214.169283 C49.4871827,217.249082 49.3374825,219.519843 49.1970126,224.499155 C49.1774556,225.192404 49.1678954,225.521149 49.1554022,225.916804 C49.005667,230.65886 48.7008423,233.67609 47.8517379,237.173554 L45.2831538,245.516519 C40.1214227,248.286826 39.7886448,249.018895 41.8273592,248.984129 C44.4278231,248.939785 48.986797,247.699507 51.2351559,246.361759 C57.1527616,242.840853 60.6131522,233.598606 59.6749407,221.497103 C59.4591134,218.713259 59.8594396,215.600736 60.7958897,212.02214 C61.4082065,209.682203 62.1917797,207.315381 63.3558351,204.147695 C63.6118011,203.451147 64.6811386,200.586449 64.9432843,199.870519 C65.514941,198.309301 65.9206479,197.129245 66.2404767,196.070973 C67.9559513,190.394689 68.3110402,185.690585 68.343952,174.960294 C68.345491,174.458508 68.34621,174.23536 68.347238,173.956511 C68.3709644,167.520796 68.5194063,163.986511 69.0683273,160.105409 C69.9024778,154.207613 71.132304,150.254111 72.8429561,147.175222 C73.2648159,146.415945 73.7019418,145.728792 74.2407153,144.954507 C74.4260916,144.688098 75.2884557,143.484621 75.5087553,143.163078 C77.7758367,139.854112 78.236792,136.673478 76.9299573,128.209599 C75.9116251,121.614242 75.3590718,116.737105 75.0952948,112.697719 C75.0030143,111.284569 74.8468433,107.103842 74.7557527,106.303538 C74.4675171,103.771156 74.56208,103.982698 67.6592919,89.9448141 C66.3633273,87.3092702 63.1209892,81.1722942 62.8597387,80.6513077 C62.2143799,79.3643311 61.6747166,78.198011 61.1551314,76.9496352 C60.0527312,74.3009656 59.0078155,71.1875913 57.7722712,66.8071232 C57.5061469,65.8636123 57.2868696,65.2368636 57.1045188,64.8784294 C57.0183816,64.9974561 56.7961108,65.3119018 56.7181727,65.415759 C55.8716227,66.5438384 54.905495,66.9878014 53.5600889,66.3255575 C53.4158376,66.2545533 52.36927,65.823236 52.2075421,65.7539341 C51.4104857,65.4123879 50.7169351,65.0760671 50.0489712,64.6883136 C47.8947037,63.4377599 46.5000894,61.9223671 46.179486,60.0173332 C45.956817,58.6942285 45.6963665,57.9045751 45.0912302,56.4747151 C44.4759185,55.0186727 44.2111225,54.2587193 43.9670358,53.1444576 C43.5830001,51.3913253 43.1934246,47.6035644 43.1237536,44.7632744 C43.084064,43.1452461 43.1448115,41.9055278 43.3225908,41.1713881 C43.4561368,40.6199098 43.6502123,40.2782414 44.085995,40.1593879 C44.6192648,40.0139462 45.0019274,40.3040036 45.3635878,40.8537313 C45.8258124,41.5563175 46.3741727,41.8617499 47.6896719,42.2694067 C49.1610692,42.7253743 49.3312279,42.7828467 50.0002399,43.0957095 C50.6841416,43.4155354 51.3799939,43.8675259 52.3621291,44.5914731 C52.5115179,44.70159 52.6594501,44.8118051 52.8743953,44.9727792 C54.2828201,46.0275589 54.7727124,46.3701058 55.4035579,46.6943476 C55.9771857,46.9891806 56.1661264,46.8989091 56.4083368,46.2179493 C56.6551584,45.5240256 56.7553701,44.6365477 56.8801478,42.5399572 C56.9281306,41.733721 56.9392606,41.5533683 56.9654191,41.1841589 C57.0789709,39.581453 57.234527,38.4487307 57.5174,37.481419 C59.270737,31.4857133 67.062107,26.298931 78.9494832,21.9227567 C86.9829185,18.9653579 96.7616997,16.5368704 102.147728,15.7373939 C108.571088,14.7839409 111.164741,14.4762957 113.967027,14.3778237 C115.797794,14.3134908 117.639223,14.3500469 120.561581,14.4937326 C121.614847,14.5455192 128.669382,14.9377959 131.440812,15.0779352 L131.940878,15.3797649 C133.185415,17.8338096 133.882162,20.1840894 134.027841,23.3263298 C134.248135,28.0780069 134.740655,31.4502546 135.727926,35.8657949 C135.728253,35.8672584 136.849169,40.7139406 137.183713,42.2952377 C137.893543,45.6504041 138.443865,48.9388702 138.911472,52.8860396 C140.23697,64.0748254 140.285646,68.6724744 139.364948,73.3220571 C139.402104,73.1344209 138.09237,78.9831149 137.671484,81.4453917 C137.386259,83.1140207 137.129306,84.9146425 136.89527,86.9360294 C136.776183,87.9645936 135.985324,89.1707659 134.50194,90.8627686 C134.258934,91.1399509 133.998914,91.4287262 133.684132,91.7725162 C131.132236,94.5595807 130.759766,95.00869 130.713513,95.5106709 C130.485978,97.9801038 130.649416,98.9644993 132.522627,108.172445 C133.354304,112.260626 133.842354,115.158111 134.137992,118.165776 C134.219122,118.991153 135.69822,121.278877 138.52005,124.854712 L144.726335,162.583301 C145.324994,149.016897 145.867684,140.381399 146.356029,136.661684 C146.757531,133.603447 147.31154,131.811307 148.057804,130.883735 C148.543041,130.280606 148.962098,130.095547 149.745927,129.954513 C151.761744,129.169228 154.35051,129.169228 157.705776,129.849473 L177.610354,131.594309 C172.509761,125.133006 169.445296,121.014531 168.397706,119.208572 Z M57.3027305,64.6390903 C57.3019948,64.6394741 57.3005709,64.6406094 57.2984936,64.6424917 C57.298283,64.6413665 57.3005236,64.6402418 57.3027305,64.6390903 Z M139.864079,14.9397699 C141.464863,17.2400424 141.892934,19.1171156 142.212326,23.505919 C142.643642,29.4326824 143.203877,32.380297 145.342583,37.0973277 C146.531874,39.7203737 147.231616,42.0687816 147.667537,44.6889968 C147.88874,46.0185989 148.027879,47.2523166 148.225129,49.4268765 C148.99147,57.8753149 149.690183,62.0718877 152.238092,70.2691112 C161.638331,100.511898 165.893624,112.638284 169.439759,118.75153 C170.501561,120.581989 173.790709,124.983433 179.285182,131.921194 L180,132.82378 L178.746034,132.713858 L157.515517,130.848669 C154.319387,130.204697 151.973821,130.204697 150.495337,130.81301 C149.462349,131.041887 149.295716,131.115474 149.014126,131.465478 C148.40862,132.218095 147.896681,133.874143 147.515606,136.776791 C146.966974,140.955714 146.344365,151.474662 145.650143,168.311615 L144.489175,168.364587 L137.480265,125.330667 C134.564397,121.628351 133.080616,119.325432 132.975123,118.252202 C132.683096,115.281269 132.199453,112.409952 131.373362,108.349223 C129.469846,98.992312 129.310369,98.0317733 129.550133,95.4296206 C129.626799,94.5975636 129.830441,94.3520206 132.771072,91.1403981 C133.08116,90.8017341 133.336403,90.5182636 133.573776,90.2475072 C134.925703,88.7054487 135.644287,87.6095066 135.734032,86.8343725 C135.969889,84.7972543 136.229104,82.9807855 136.517058,81.2961892 C136.942577,78.8068085 138.255956,72.9418342 138.214766,73.1498493 C139.11384,68.6094679 139.066041,64.0947074 137.750508,52.990031 C137.286154,49.0703277 136.740262,45.8083321 136.035867,42.478852 C135.703402,40.9073858 134.584221,36.0682038 134.58227,36.0594771 C133.584367,31.596389 133.084532,28.1740492 132.86168,23.3672085 C132.727959,20.4828867 132.114321,18.3146799 131.014451,16.0727709 C128.033968,15.9194058 121.500965,15.5563923 120.495693,15.5069654 C117.607743,15.3649715 115.80016,15.3290873 114.014154,15.3918474 C111.277813,15.4880021 108.719081,15.7915052 102.344118,16.7377743 C97.0445429,17.5244181 87.3524361,19.9313807 79.4045,22.8573042 C67.8305744,27.1180858 60.2828761,32.1426539 58.6485124,37.7315188 C58.3881141,38.6219762 58.2397043,39.7026603 58.1303187,41.2465627 C58.1044945,41.611054 58.0934467,41.7900763 58.0456964,42.5924061 C57.9148614,44.7907746 57.8112508,45.7083526 57.5233332,46.5178154 C57.0778913,47.770148 56.1062248,48.2343879 54.80968,47.5679903 C54.0939712,47.2001305 53.5834368,46.84315 52.112752,45.7417433 C51.8999293,45.5823588 51.7539963,45.4736331 51.6074405,45.3656046 C50.6837042,44.684704 50.0401461,44.2666812 49.4474335,43.9894998 C48.852784,43.7114126 48.7020787,43.6605107 47.2978752,43.2253656 C45.8162279,42.7662216 45.056886,42.3603986 44.440328,41.4893095 C44.3045472,42.1465167 44.2547803,43.281512 44.2905964,44.741633 C44.3589821,47.5295215 44.742968,51.2629366 45.1135305,52.9545634 C45.3435297,54.0045154 45.5915378,54.7162884 46.0874254,55.8900706 C46.8171306,57.6142631 47.0978302,58.4653093 47.3342947,59.8703871 C47.5988261,61.4422393 48.7913553,62.7380458 50.6969884,63.844267 C51.3170539,64.2042155 51.9684103,64.5200753 52.7234484,64.8436162 C52.8458337,64.8960595 53.9475329,65.3500979 54.1350322,65.4423899 C54.8068919,65.7730967 55.1877389,65.5980868 55.7407523,64.8611627 C55.8170541,64.759486 56.0909244,64.3710754 56.1539212,64.2872166 C56.3449482,64.0329293 56.4967922,63.8760689 56.7022193,63.7688828 C57.7280092,63.2336541 58.1975907,64.0545688 58.9057851,66.5653839 C60.1321472,70.9132979 61.1658353,73.9932188 62.2525786,76.6042707 C62.763219,77.8311554 63.2936958,78.9776215 63.929568,80.2456799 C64.1841086,80.7532857 67.4287911,86.8946991 68.7324197,89.5458288 C75.7285615,103.773562 75.6105542,103.509573 75.9171865,106.203585 C76.0128014,107.043639 76.1701771,111.256615 76.260526,112.640186 C76.5225367,116.652522 77.0721809,121.503983 78.0866869,128.074558 C79.42556,136.745939 78.9323809,140.14892 76.5114162,143.682489 C76.2837448,144.014792 75.4185034,145.222284 75.2392675,145.479869 C74.7181424,146.228791 74.2981945,146.88894 73.8938468,147.616699 C72.2430022,150.587944 71.0461606,154.435411 70.2267082,160.229285 C69.6850806,164.058821 69.537925,167.56248 69.5143403,173.959764 C69.5133131,174.23837 69.5125948,174.461305 69.5110561,174.963001 C69.4778793,185.779702 69.1184745,190.540982 67.369259,196.328909 C67.0433982,197.407141 66.6325741,198.602081 66.055384,200.178411 C65.7919694,200.897807 64.7223809,203.763177 64.4675661,204.456592 C63.312785,207.59904 62.5373586,209.941255 61.9339088,212.247307 C61.0205774,215.737556 60.6322472,218.75681 60.8394059,221.428842 C61.802612,233.852739 58.2131956,243.439597 51.8942315,247.199307 C49.4559166,248.650076 44.6754605,249.950608 41.8502431,249.998786 C40.1097661,250.028465 39.0302625,249.514821 39.5467181,248.378684 C39.9340852,247.526526 41.47088,246.384528 44.2754823,244.865231 L46.7170395,236.937623 C47.5413371,233.538894 47.840764,230.575092 47.9887337,225.88895 C48.0011856,225.4946 48.0107258,225.166543 48.0302554,224.474267 C48.1718306,219.455773 48.3235121,217.154958 48.8489798,214.022788 C49.248331,211.642364 49.8157889,209.779743 51.2632829,205.66603 C52.9463071,200.879984 53.5910078,198.603221 53.8433874,195.945719 C53.6902227,195.992338 53.4908078,196.074281 53.2677864,196.187579 C52.5100681,196.572513 51.6788261,197.207367 51.3872475,197.617866 C44.6267242,207.13568 41.7745427,211.751427 39.5187657,217.743837 C38.7687071,219.736347 38.195055,223.138796 37.6954148,227.95408 C37.4799976,230.030164 36.8778074,237.141793 36.7507198,238.249312 C36.5963268,239.594786 36.4769199,240.214008 36.2390614,240.482466 C35.9999869,240.752297 35.5574036,240.805841 35.255865,240.545177 C34.9001966,239.867981 34.8084076,239.458874 34.7105289,238.87229 C32.1145335,223.314579 31.2274759,210.403131 31.9347582,196.150114 C32.0146104,194.540948 32.6311458,192.60608 33.8257048,189.810106 C34.0004302,189.401145 34.1856354,188.977148 34.4184402,188.451111 C34.3955722,188.502783 35.0485589,187.032903 35.2231939,186.634549 C35.5164854,185.965531 35.74434,185.428458 35.941658,184.935801 C36.1089435,184.518128 36.3802029,184.073881 36.8603777,183.380066 C37.6414696,182.259808 37.8168618,181.990256 37.9503405,181.675053 C36.8284777,181.501087 35.427035,182.333842 33.2803676,184.235879 C33.006297,184.478717 32.7613462,184.700143 32.3059788,185.114919 C30.350918,186.895704 29.5496667,187.563592 28.4938416,188.179604 C25.6433329,189.842708 22.7024466,192.061333 19.5616012,194.820526 C18.2490222,195.97361 16.9400072,197.185924 15.495327,198.57295 C14.946285,199.100081 14.406101,199.624704 13.7198434,200.295641 C13.5213022,200.489749 13.304678,200.701812 12.9069436,201.091217 C12.5892134,201.402188 12.363523,201.622656 12.1477189,201.832669 C9.3343647,204.570524 8.59274177,205.187159 7.80375139,204.954013 C6.74877575,204.642269 7.15343745,203.290085 8.99557993,199.16486 C10.4680274,195.867516 12.9294,190.797855 17.3770571,181.86582 C17.7689679,181.078763 18.2823644,180.248558 18.9272347,179.338096 C19.5060602,178.520881 20.1434579,177.699384 21.057573,176.572038 C24.3958604,172.455048 24.872379,171.810489 25.2870595,170.528345 C25.4206076,170.115429 25.745587,169.805924 26.7497263,168.981993 C27.3066663,168.525038 27.5752081,168.293604 27.7465693,168.108257 C26.5612708,167.959071 25.2571725,168.374983 23.8175703,169.341033 C21.5068318,170.891663 19.0940891,173.627301 16.0444213,177.859774 C15.1937274,179.040407 12.52603,182.876951 12.189563,183.349997 C10.8114227,185.287557 9.86993222,186.473111 9.06828901,187.21571 C6.73173089,189.380172 5.10682362,191.168072 2.93615263,193.780252 C1.965156,194.948747 1.75714193,195.190996 1.47500728,195.453352 C1.19156592,195.716922 0.980672795,195.846792 0.652889728,195.821081 C0.155419457,195.782061 0.0131053267,195.476815 2.15359345e-05,195.067443 C-0.00958713694,194.766802 3.19836054,180.50832 5.13689028,169.588655 L9.88735673,157.026099 C12.9608803,150.250853 16.1644981,145.068823 23.6267011,134.086896 C23.9034448,133.679635 23.9034448,133.679635 24.1800793,133.272468 C34.1868651,118.542092 38.2969929,111.217838 40.9607592,101.431149 C42.3159095,96.4523205 42.747487,91.560896 42.5192597,85.7523216 C42.4128877,83.0450669 42.257608,81.1805942 41.7399034,75.7866234 C41.3046197,71.2513983 41.1081844,68.8202863 40.985976,65.9407484 C39.7838135,37.614754 40.434607,27.4186843 45.6594584,18.0185181 C52.0701447,6.48488553 65.5808205,1.00703293 90.4264184,0.475292653 C91.062581,0.461677636 91.8217163,0.433886307 92.8997798,0.386674889 C93.3513216,0.366900608 95.4420481,0.271213592 96.0339282,0.245174889 C102.861876,-0.055208427 107.86547,-0.102676274 113.032729,0.232703909 C120.254423,0.701426833 126.158867,1.90749638 130.53839,4.06503867 C131.322068,4.45111257 133.460414,7.50193464 135.122711,10.4796165 C137.270945,11.9632655 138.803448,13.4156787 139.864079,14.9397699 Z M28.0322756,168.152904 C28.0366778,168.155665 28.0400535,168.157256 28.0420386,168.157672 C28.0414412,168.157547 28.0381869,168.155958 28.0322756,168.152904 Z M54.0390909,195.897897 C54.0468727,195.900117 54.0540526,195.901221 54.0603856,195.900952 C54.0582746,195.901042 54.0561318,195.901152 54.0539573,195.901282 L54.0390909,195.897897 Z M44.5692107,41.0690386 C44.5720433,41.06663 44.5735156,41.0650106 44.5738659,41.0643938 C44.5736628,41.0647513 44.5721111,41.0662996 44.5692107,41.0690386 Z M44.1641124,41.1201397 C44.1570324,41.1136127 44.1504897,41.1080839 44.1445222,41.1035606 C44.1465859,41.1051249 44.1488169,41.1066882 44.1512105,41.1082421 L44.1641124,41.1201397 Z" id="hair-outline" fill="#000000" fill-rule="nonzero" opacity="0.05"></path>
                </g>
            </g>
        </g>
    </g>
</svg>