<?xml version="1.0" encoding="UTF-8"?>
<svg width="480px" height="300px" viewBox="0 0 480 300" version="1.1" xmlns="http://www.w3.org/2000/svg" xmlns:xlink="http://www.w3.org/1999/xlink">
    <!-- Generator: Sketch 50.2 (55047) - http://www.bohemiancoding.com/sketch -->
    <title>Avatars</title>
    <desc>Created with Sketch.</desc>
    <defs></defs>
    <g id="Avatars" stroke="none" stroke-width="1" fill="none" fill-rule="evenodd">
        <rect id="Frame" fill="#E6E6E6" x="0" y="0" width="480" height="300"></rect>
        <g id="Half-Elf" transform="translate(120.000000, 36.000000)">
            <g id="Male" transform="translate(0.000000, 4.000000)">
                <path d="M1,260.202571 C1.66589358,252.730317 2.1514594,247.347266 2.45669745,244.053417 C2.71412543,241.27549 2.96279413,238.637377 3.20270355,236.139076 C4.60249635,221.56231 5.70409352,211.745248 6.50749506,206.68789 C7.3585144,201.330781 12.7606596,174.739605 22.8599892,160.750605 C34.0825314,145.205796 78.2475931,143.817655 81.9885944,139.542643 C84.9404817,136.169388 86.8423955,131.370017 87.6943359,125.144531 C88.0748873,115.828054 88.0748873,109.547129 87.6943359,106.301758 C87.2163493,102.225451 82.3570357,96.0481239 81.9885944,94.6135918 C81.3354646,92.0706198 79.4137016,86.9408417 77.2078287,80.5049979 C76.8051641,79.3301855 74.8531102,79.353672 74.4375,78.0996094 C71.8274618,70.2240778 70.6201569,59.6975867 69.2189313,50.9332178 C68.9787328,49.430827 70.3989969,49.8580563 71.4892578,50.9332178 C72.289203,51.7220844 72.8016203,53.4478147 72.9042969,52.050293 C73.5747389,42.9249659 73.2355307,26.9355469 79.5859375,20.3017578 C86.4771821,13.1029965 85.0167576,12.4278815 94.125,9.41503906 C114.98727,2.51417621 147.304636,3.58546934 156.351054,20.5854034 C161.59358,30.4371018 164.420094,55.1593297 164.322631,55.9822882 C163.50645,62.8739578 162.426633,84.0827635 160.056641,91.9042969 C157.548446,100.181931 154.153792,107.565445 152.72332,109.351563 C150.509819,112.115386 150.675281,112.395378 149.546875,115.360352 C148.162587,118.997676 149.221402,123.865044 152.72332,129.962456 C161.291102,132.932117 222.570249,139.044098 229.199796,160.750605 C233.401152,174.506717 242.438279,204.244843 244.181587,216.104515 C245.156623,222.737653 246.11684,237.437005 247.062239,260.202571 L204.605913,260.202571 L16.6068247,260.202571 L1,260.202571 Z" id="body" fill="#CB9365"></path>
                <polygon id="armpit-l" fill="#000000" opacity="0.5" points="53.9202268 261.196849 60.7692511 209.780073 64.7692511 261.196849"></polygon>
                <polygon id="armpit-r" fill="#000000" opacity="0.5" transform="translate(201.272613, 230.722538) scale(-1, 1) translate(-201.272613, -230.722538) " points="196.848101 260.989997 204.697126 200.455078 205.697126 260.989997"></polygon>
                <path d="M133.613046,209.234719 C133.255006,207.067149 132.940812,205.234212 132.606017,203.375096 L133.590186,203.197864 C134.019485,205.581756 134.414788,207.921456 134.91114,210.972859 C135.044782,211.794441 135.493536,214.572127 135.495308,214.583067 C135.721792,215.981553 135.891545,217.016857 136.057346,218.005317 C138.230142,230.958955 140.167655,236.773244 144.395473,240.766879 C149.315575,245.414452 157.4584,246.761623 171.3508,244.962431 C172.66286,244.792507 173.88014,244.7278 176.641819,244.642087 C177.791302,244.606411 178.207525,244.592547 178.801843,244.568168 C186.31446,244.259999 192.736898,244.017672 193.141656,240.364719 L193.158992,240.208252 L193.76586,235.099123 C194.478951,228.596963 194.597987,223.286094 194.52542,211.420043 C194.488757,205.424974 194.491778,202.760834 194.56807,199.433492 L195.567808,199.456414 C195.491812,202.770847 195.488798,205.428546 195.525401,211.413928 C195.598786,223.413811 195.476659,228.74016 194.742541,235.365603 L194.725205,235.522069 L194.116379,240.633429 C193.556762,244.890651 186.745538,245.243157 178.842829,245.567327 C178.243967,245.591893 177.825823,245.605821 176.672841,245.641605 C173.945637,245.726249 172.746959,245.789967 171.479237,245.954149 C157.318486,247.788095 148.897199,246.394854 143.708787,241.493833 C140.516614,238.478477 138.593348,234.555918 136.944405,227.704309 C136.92657,230.538816 136.631625,233.479852 136.040845,236.734183 C135.222877,241.239989 131.025813,244.895348 124.52477,247.659427 C119.643728,249.734723 113.595777,251.171601 109.474495,251.481205 C107.500241,251.629517 105.51584,251.793723 103.328226,251.987088 C101.932888,252.110422 95.1331915,252.738463 93.4026291,252.885968 C90.0127251,253.174908 87.5255235,253.331932 85.330673,253.377646 C80.1173738,253.486226 76.5622236,252.933515 73.7853174,251.436467 C68.0084691,248.322131 66.4637275,230.076711 64.9659223,213.387332 L64.9619193,224.297945 C66.4309136,240.666298 68.8871707,247.659783 74.2598572,250.556233 C76.8536527,251.954565 80.2537424,252.483169 85.30985,252.377863 C87.4791175,252.332682 89.9473086,252.176858 93.3177018,251.889581 C95.0439714,251.742442 101.841498,251.114602 103.240179,250.990971 C105.431898,250.797244 107.420577,250.632684 109.399582,250.484015 C113.413625,250.182467 119.354677,248.770986 124.133493,246.739154 C130.355662,244.093645 134.314389,240.645863 135.056926,236.555566 C136.3262,229.563725 136.205034,224.073501 134.887038,217.910282 C134.213701,214.761617 130.626522,202.418928 130.543773,202.151318 L131.508388,201.88887 C131.462664,201.720813 132.517206,205.338891 133.613046,209.234719 Z" id="breast" fill="#000000" fill-rule="nonzero" opacity="0.3"></path>
                <path d="M83.4687588,92.1815468 L84.4223048,91.8802994 C86.0006213,96.8761837 87.9707003,99.7811693 92.6089614,104.962098 C92.9345857,105.325623 93.1107886,105.522353 93.2610799,105.690469 C95.7329266,108.455492 97.0839118,110.126794 98.4467672,112.270661 C100.005729,114.723016 104.51401,118.741271 109.572518,122.728478 C111.141237,123.96497 112.612333,124.698629 114.192617,125.086574 C115.662026,125.447299 116.810782,125.50531 119.780025,125.474143 C122.26246,125.448086 123.535689,125.474346 125.258735,125.641692 C131.66538,126.263917 136.75065,124.60949 143.646943,120.040967 C143.912211,119.865237 145.400327,117.91692 147.980258,114.398221 C148.023938,114.338645 148.023938,114.338645 148.067613,114.279059 C152.425031,108.334036 152.192394,108.648272 152.516457,108.34166 L153.203735,109.068055 C152.954357,109.304004 152.912173,109.360984 148.874165,114.870223 C148.830442,114.929873 148.830442,114.929873 148.786712,114.989518 C145.92315,118.895053 144.628236,120.590421 144.199213,120.874632 C137.127175,125.55958 131.826064,127.284228 125.162068,126.637009 C123.484338,126.474064 122.239262,126.448384 119.790521,126.474088 C116.736337,126.506146 115.533322,126.445396 113.954206,126.057738 C112.232315,125.635031 110.63217,124.837012 108.953482,123.51384 C103.784968,119.439925 99.2495125,115.39745 97.602852,112.807137 C96.2765431,110.72076 94.9536789,109.084247 92.5155544,106.356946 C92.3656312,106.189241 92.1898158,105.992945 91.8639126,105.629108 C87.1386727,100.351024 85.0999636,97.3448397 83.4687588,92.1815468 Z" id="jaw" fill="#000000" fill-rule="nonzero" opacity="0.3"></path>
                <path d="M90.0542835,156.284801 L88.5837796,155.812855 C89.6598174,154.607711 92.3255532,151.43586 92.7924119,150.950099 C93.8534293,149.846123 94.7328632,149.350571 96.192175,149.11167 C96.7025292,149.028121 113.078369,148.790537 121.107953,147.078468 L121.348466,148.068017 C113.171811,149.11167 96.9172982,150.029571 96.6315312,150.076353 C95.6639133,150.23476 95.0990092,150.553078 94.2376049,151.449359 C93.7987162,151.906017 91.1499979,155.05762 90.0542835,156.284801 Z" id="collarbone-l" fill="#000000" fill-rule="nonzero" opacity="0.129999995" transform="translate(104.966123, 151.681635) scale(-1, 1) translate(-104.966123, -151.681635) "></path>
                <path d="M137.00367,156.284801 L135.704694,155.812855 C136.655217,154.607711 139.010006,151.43586 139.422408,150.950099 C140.359662,149.846123 141.136513,149.350571 142.425603,149.11167 C142.876426,149.028121 157.342094,148.790537 164.435062,147.078468 L164.64752,148.068017 C157.424637,149.11167 143.066144,150.029571 142.81371,150.076353 C141.958961,150.23476 141.45995,150.553078 140.699025,151.449359 C140.311331,151.906017 137.971574,155.05762 137.00367,156.284801 Z" id="collarbone-r" fill="#000000" fill-rule="nonzero" opacity="0.129999995"></path>
                <g id="nipples" opacity="0.700000048" transform="translate(84.000000, 224.000000)">
                    <path d="M5.5,16 C2.46243388,16 0,13.5375661 0,10.5 C0,7.46243388 2.46243388,5 5.5,5 C8.53756612,5 11,7.46243388 11,10.5 C11,13.5375661 8.53756612,16 5.5,16 Z" id="la" fill="#000000" fill-rule="nonzero" opacity="0.3"></path>
                    <circle id="ln" fill="#CB9365" opacity="0.400000006" cx="5.5" cy="10.5" r="1.5"></circle>
                    <path d="M5.5,13 C4.11928813,13 3,11.8807119 3,10.5 C3,9.11928813 4.11928813,8 5.5,8 C6.88071187,8 8,9.11928813 8,10.5 C8,11.8807119 6.88071187,13 5.5,13 Z M5.5,12 C6.32842712,12 7,11.3284271 7,10.5 C7,9.67157288 6.32842712,9 5.5,9 C4.67157288,9 4,9.67157288 4,10.5 C4,11.3284271 4.67157288,12 5.5,12 Z" id="lno" fill="#000000" fill-rule="nonzero" opacity="0.3"></path>
                    <path d="M94.5,11 C91.4624339,11 89,8.53756612 89,5.5 C89,2.46243388 91.4624339,0 94.5,0 C97.5375661,0 100,2.46243388 100,5.5 C100,8.53756612 97.5375661,11 94.5,11 Z" id="ra" fill="#000000" fill-rule="nonzero" opacity="0.3"></path>
                    <circle id="rn" fill="#CB9365" opacity="0.400000006" cx="94.5" cy="5.5" r="1.5"></circle>
                    <path d="M94.5,8 C93.1192881,8 92,6.88071187 92,5.5 C92,4.11928813 93.1192881,3 94.5,3 C95.8807119,3 97,4.11928813 97,5.5 C97,6.88071187 95.8807119,8 94.5,8 Z M94.5,7 C95.3284271,7 96,6.32842712 96,5.5 C96,4.67157288 95.3284271,4 94.5,4 C93.6715729,4 93,4.67157288 93,5.5 C93,6.32842712 93.6715729,7 94.5,7 Z" id="rno" fill="#000000" fill-rule="nonzero" opacity="0.3"></path>
                </g>
                <path d="M120.539225,113.211882 L120.218588,112.26468 C121.267514,111.909608 122.334935,111.834512 124.285645,111.863091 C124.713807,111.869364 125.147091,111.89699 125.604054,111.945222 C126.328113,112.021646 126.851951,112.106694 128.266031,112.360397 L128.089438,113.344681 C126.700277,113.095448 126.190366,113.012662 125.499088,112.939698 C125.070996,112.894513 124.667632,112.868794 124.270996,112.862983 C122.433966,112.83607 121.443589,112.905746 120.539225,113.211882 Z" id="jaw-line" fill="#000000" fill-rule="nonzero" opacity="0.3"></path>
                <path d="M122.268198,125.721207 L121.700552,124.897934 C122.030547,124.670403 122.334591,124.472523 122.644549,124.280613 C122.824128,124.169427 123.320264,123.871277 123.285327,123.892529 C123.576893,123.715171 123.660863,123.645756 123.669678,123.624232 C123.680811,123.597049 123.671452,123.477918 123.596906,123.118368 C123.585437,123.063051 123.564735,122.964977 123.526568,122.783607 C123.49498,122.632348 123.468269,122.50029 123.441589,122.36181 C123.371678,121.998951 123.309867,121.63102 123.252869,121.223568 L124.243225,121.085026 C124.284648,121.381138 124.749907,123.625184 124.595074,124.003234 C124.431264,124.403205 122.295549,125.702348 122.268198,125.721207 Z" id="jaw-cleft" fill="#000000" fill-rule="nonzero" opacity="0.3"></path>
                <path d="M4.05345369,233.427201 L5.05201506,233.37358 C5.07102437,233.727584 5.13505574,234.928662 5.1473241,235.157489 C5.18290728,235.82118 5.21036683,236.323196 5.23698167,236.792868 C5.62467208,243.634448 6.07071991,246.02209 7.65304083,248.685157 C8.91669263,250.811899 10.6255072,252.684994 15.6064308,257.582943 L14.9052879,258.295964 C9.85658837,253.331368 8.11844688,251.426127 6.79334558,249.195964 C5.10318961,246.35141 4.63501866,243.845345 4.23858338,236.849444 C4.21190097,236.378579 4.18439108,235.875643 4.14875824,235.211026 C4.13647827,234.981982 4.07244989,233.780961 4.05345369,233.427201 Z M1.05766449,258.436791 L0.141554264,258.035865 C0.959438111,256.167014 1.52247413,254.709232 1.96262407,253.396402 C2.0221363,253.218895 2.53846646,251.580567 2.66598504,251.278859 C3.03422638,250.407601 2.49938974,250.814446 5.98191085,248.486655 L6.5376204,249.318032 C3.38540569,251.425039 3.83411676,251.083708 3.58709176,251.668169 C3.48118153,251.918752 2.98666017,253.48788 2.91075565,253.71428 C2.46110878,255.055437 1.88737438,256.540918 1.05766449,258.436791 Z M56.9517519,206.413818 L57.9115293,206.133057 C58.1049971,206.794421 58.3150786,207.465209 58.5642839,208.225322 C60.9166497,215.400384 60.9344183,215.465612 60.7965526,217.923936 C60.6747678,220.095515 59.8603044,222.131522 58.1919441,224.254278 L57.4057122,223.636347 C58.9513473,221.669741 59.6882155,219.827708 59.7981214,217.867943 C59.9253405,215.599463 59.904678,215.523612 57.6140499,208.536859 C57.3617286,207.767242 57.1485375,207.086525 56.9517519,206.413818 Z M73.1347514,153.57294 L72.6865377,152.679013 C74.1515103,151.944478 75.6084329,151.530013 79.1153518,150.71886 C82.5367556,149.927487 83.9554409,149.5239 85.3213033,148.839059 C86.5149833,148.240549 87.0467926,147.63051 87.9790194,146.080828 C89.0009162,144.382084 89.6402519,143.648702 91.0454244,142.94415 L91.4936381,143.838076 C90.2999581,144.436586 89.7681488,145.046625 88.835922,146.596307 C87.8140252,148.295051 87.1746895,149.028433 85.769517,149.732985 C84.3045444,150.467521 82.8476218,150.881985 79.3407029,151.693138 C75.9192991,152.484511 74.5006138,152.888098 73.1347514,153.57294 Z" id="arm-lines-l" fill="#000000" fill-rule="nonzero" opacity="0.1"></path>
                <path d="M162.82405,233.427201 L163.764053,233.37358 C163.781948,233.727584 163.842224,234.928662 163.853773,235.157489 C163.887269,235.82118 163.913119,236.323196 163.938173,236.792868 C164.303128,243.634448 164.723018,246.02209 166.212548,248.685157 C167.402096,250.811899 169.010701,252.684994 173.699531,257.582943 L173.039505,258.295964 C168.286874,253.331368 166.650661,251.426127 165.403268,249.195964 C163.812227,246.35141 163.37151,243.845345 162.998323,236.849444 C162.973205,236.378579 162.947309,235.875643 162.913766,235.211026 C162.902206,234.981982 162.841932,233.780961 162.82405,233.427201 Z M161.003941,259.436791 L160.141554,259.035865 C160.911475,257.167014 160.441493,254.709232 160.855832,253.396402 C160.911854,253.218895 161.397905,251.580567 161.517946,251.278859 C161.864593,250.407601 161.36112,250.814446 164.639417,248.486655 L165.162539,249.318032 C162.195178,251.425039 162.617575,251.083708 162.385037,251.668169 C162.285337,251.918752 161.819816,253.48788 161.748363,253.71428 C161.325084,255.055437 161.784995,257.540918 161.003941,259.436791 Z M204.620256,204.413818 L205.52375,204.133057 C205.705872,204.794421 205.903634,205.465209 206.138225,206.225322 C208.352642,213.400384 208.369369,213.465612 208.239588,215.923936 C208.124945,218.095515 207.358244,220.131522 205.787721,222.254278 L205.047595,221.636347 C206.50259,219.669741 207.196247,217.827708 207.299708,215.867943 C207.419466,213.599463 207.400015,213.523612 205.243716,206.536859 C205.006191,205.767242 204.805502,205.086525 204.620256,204.413818 Z M230.854243,153.57294 L230.432314,152.679013 C231.811377,151.944478 233.182862,151.530013 236.484126,150.71886 C239.70489,149.927487 241.04038,149.5239 242.326145,148.839059 C243.449824,148.240549 243.950447,147.63051 244.828006,146.080828 C245.789976,144.382084 246.391819,143.648702 247.714589,142.94415 L248.136518,143.838076 C247.012838,144.436586 246.512216,145.046625 245.634657,146.596307 C244.672687,148.295051 244.070844,149.028433 242.748074,149.732985 C241.369011,150.467521 239.997526,150.881985 236.696262,151.693138 C233.475498,152.484511 232.140008,152.888098 230.854243,153.57294 Z" id="arm-lines-l" fill="#000000" fill-rule="nonzero" opacity="0.1" transform="translate(204.139036, 201.190471) scale(-1, 1) translate(-204.139036, -201.190471) "></path>
                <path d="M124.482855,104.131104 C131.117061,104.131104 138.70902,100.526743 138.70902,99.6895035 C138.70902,98.584934 132.808339,97.8802994 124.482855,97.8802994 C116.157371,97.8802994 109,99.0806615 109,100.185231 C109,101.141116 118.624874,104.131104 124.482855,104.131104 Z" id="lips" fill="#3E3E3E" opacity="0.100000001"></path>
                <path d="M110.77113,99.6349579 C116.821195,100.074194 121.397819,100.293728 124.497635,100.293728 C127.604036,100.293728 131.88811,100.07322 137.347202,99.6319897 C137.144415,99.5868212 136.929964,99.5387366 136.698897,99.486673 C131.305832,98.2715193 132.035628,98.2692712 129.599806,98.1555732 C129.167439,98.1353915 126.730868,97.9565198 126.214343,98.2680125 C126.189851,98.2827909 126.189851,98.2827909 126.165038,98.297771 C125.536491,98.6771071 125.167004,98.8251117 124.569982,98.8394277 C124.103015,98.8506251 123.677742,98.7448749 122.548316,98.3958901 C122.513318,98.3850773 122.513318,98.3850773 122.478377,98.3742926 C121.504808,98.0739119 118.902731,98.1264584 118.561079,98.1537954 C115.415529,98.4054835 113.949952,98.8092212 110.77113,99.6349579 Z M136.889911,100.671319 C131.659529,101.086193 127.529574,101.293728 124.497635,101.293728 C121.370196,101.293728 116.768953,101.072874 110.690527,100.631335 C112.904818,102.026917 116.222934,103.157536 120.811157,103.524658 C121.152809,103.551995 127.102137,103.655041 127.534504,103.63486 C130.416131,103.500353 134.292652,102.036717 136.889911,100.671319 Z M110.206814,98.753322 C113.683148,97.8534963 115.183715,97.4213259 118.49353,97.1564941 C118.988487,97.1168906 121.635015,97.0745751 122.729625,97.4123012 C122.764803,97.4231589 122.764803,97.4231589 122.799909,97.4340052 C123.816456,97.7481112 124.216766,97.8476542 124.549689,97.839671 C124.961879,97.8297871 125.209671,97.7305296 125.718399,97.4235056 C125.743037,97.4086317 125.743037,97.4086317 125.767964,97.3935905 C126.419716,97.0005489 128.999773,97.1266435 129.639282,97.1564941 C132.145181,97.2734631 131.436643,97.2797318 136.885657,98.5074919 C137.127012,98.5618735 137.350098,98.6118815 137.560595,98.6587357 L137.399707,98.4559202 L138.096518,97.8029226 L139.747942,99.8847097 L139.165803,100.430245 L139.176871,100.449023 C139.13885,100.475495 139.100029,100.502156 139.06043,100.528993 L139.051131,100.537707 L139.049882,100.536133 C136.629194,102.172844 131.322522,104.458966 127.57398,104.633939 C126.934471,104.663789 121.238565,104.561563 120.743608,104.521959 C115.083909,104.069104 111.320214,102.527431 108.985741,100.603415 L108.696812,100.967639 L108,100.314641 L109.651424,98.2328542 L110.206814,98.753322 Z" id="mouth-outline" fill="#000000" fill-rule="nonzero" opacity="0.3"></path>
                <path d="M129.170406,89.8465079 C128.869149,90.6044243 128.028672,90.9619952 126.488834,91.1722328 C123.431147,91.5897059 122.008524,91.2184914 121.230257,89.8914498 C121.118289,89.9001617 120.954465,89.9172203 120.61537,89.9534508 C120.263932,89.9894595 119.989653,90.0114843 119.716724,90.0219948 C119.186926,90.0423975 118.748876,90.0136092 118.388359,89.9145883 C117.318752,89.6208063 116.833163,88.4553167 117.051078,87.8126541 C117.225724,87.2975984 117.328645,87.0309594 117.444536,86.818312 C117.786124,86.1915315 118.042757,86.1352994 119.091103,86.2032559 C119.718975,86.2439562 120.230575,86.2422399 120.945211,86.1682565 L121.031964,87.006242 L121.294109,86.908678 C121.388441,87.1621398 121.461922,87.4198876 121.547098,87.7726896 C121.564968,87.8467082 121.579988,87.9103943 121.611548,88.0451171 C121.711667,88.4719429 121.820079,88.8330738 121.958247,89.1337269 C121.97954,89.1655041 121.99671,89.2003956 122.008843,89.2384391 C122.569351,90.3411354 123.609,90.5561457 126.353557,90.181425 C128.194856,89.9300282 128.450379,89.6989991 128.242429,88.4877348 C128.077376,87.526337 125.615184,80.2796213 125.162269,78.8314455 C124.633296,77.1400746 124.356969,75.4311548 124.018222,72.2340704 C124.048275,72.5177139 123.759911,69.7444187 123.669819,68.9331351 C123.519475,67.5792814 123.368063,66.3711571 123.189831,65.1436969 L124.179452,65 C124.359442,66.2395657 124.51221,67.4585057 124.66371,68.8227645 C124.754257,69.6381456 125.043048,72.4155534 125.012655,72.1287051 C125.34477,75.2631928 125.613139,76.9228974 126.116682,78.5329545 C126.414785,79.4861267 127.74564,83.4255303 128.570426,86.0413468 C129.052424,86.0723428 129.461883,86.0658806 129.938278,86.0349994 C130.986625,85.9670429 131.243258,86.0232749 131.584846,86.6500555 C131.700737,86.8627029 131.803658,87.1293419 131.978303,87.6443976 C132.196219,88.2870602 131.71063,89.4525498 130.641023,89.7463318 C130.280506,89.8453527 129.842456,89.874141 129.312658,89.8537383 C129.271312,89.8521461 129.223895,89.849736 129.170406,89.8465079 Z M129.293745,88.8631043 C129.314527,88.8566809 129.333658,88.8538058 129.351139,88.854479 C129.787472,88.8712823 130.134236,88.8484932 130.376168,88.7820435 C130.845963,88.6530079 131.076642,88.0993419 131.031266,87.9655206 C130.875386,87.5058095 130.785631,87.2732776 130.706779,87.128592 C130.624045,86.9767844 130.679905,86.9890241 130.002965,87.032905 C129.613206,87.0581702 129.26095,87.0683234 128.88494,87.0572307 C129.066929,87.659763 129.192472,88.1115255 129.22801,88.3185303 C129.261361,88.5127915 129.283478,88.6939907 129.293745,88.8631043 Z M121.180467,89.8036629 C121.117354,89.6886079 121.058643,89.5667724 121.003744,89.4380569 C120.992074,89.6094022 121.072492,89.7304892 121.180467,89.8036629 Z M120.815754,88.9265675 C120.751011,88.7226357 120.692286,88.505032 120.637973,88.2734853 C120.606531,88.1392773 120.592167,88.0783735 120.575026,88.0073741 C120.498397,87.689972 120.434632,87.4663055 120.356912,87.2574798 L120.484498,87.2099957 C119.972718,87.2412504 119.530995,87.2338696 119.026417,87.2011615 C118.349477,87.1572806 118.405337,87.1450409 118.322603,87.2968485 C118.243751,87.4415341 118.153995,87.6740661 117.998116,88.1337772 C117.95274,88.2675984 118.183419,88.8212644 118.653214,88.9503 C118.895145,89.0167498 119.241909,89.0395388 119.678243,89.0227355 C119.925931,89.013197 120.181297,88.9926909 120.513442,88.958659 C120.632072,88.9459298 120.731257,88.9353598 120.815754,88.9265675 Z" id="nose" fill="#000000" fill-rule="nonzero" opacity="0.3"></path>
                <path d="M125,139.59797 C127.55244,137.607858 127.713958,135.785233 125.183277,133" id="neck-line" stroke="#000000" opacity="0.3"></path>
                <path d="M151.93103,91.5982643 L151,90.6242092 C151.839825,89.8214807 152.752889,89.147463 154.528045,87.9502525 C154.93694,87.6748608 155.148039,87.5325988 155.340407,87.4021789 C155.64243,87.1974172 155.892752,87.0255012 156.127011,86.8613509 C156.702162,86.4583305 157.166466,86.1112182 157.566608,85.7800878 C157.947752,85.4646783 158.26258,85.1355219 158.539844,84.7733783 C158.852005,84.365654 159.030396,84.0647308 159.470424,83.2506903 C160.061091,82.1579705 160.419679,81.6206108 161.06897,81 L162,81.9740551 C161.479162,82.4718872 161.184066,82.9141001 160.655774,83.8914283 C160.182086,84.7677401 159.979383,85.1096728 159.609724,85.5924976 C159.271549,86.034199 158.886298,86.4369837 158.425661,86.8181766 C157.993974,87.1754114 157.50248,87.5428505 156.900252,87.9648443 C156.659582,88.1334872 156.403841,88.3091252 156.096537,88.5174673 C155.902353,88.6491175 155.689379,88.7926436 155.281462,89.0673755 C153.569243,90.2221394 152.697483,90.865666 151.93103,91.5982643 Z" id="cheekbone-r" fill="#000000" fill-rule="nonzero" opacity="0.100000001"></path>
                <path d="M82.9310297,91.5982643 L82,90.6242092 C82.8398248,89.8214807 83.7528892,89.147463 85.5280454,87.9502525 C85.9369399,87.6748608 86.1480385,87.5325988 86.3404074,87.4021789 C86.6424303,87.1974172 86.892752,87.0255012 87.1270111,86.8613509 C87.7021618,86.4583305 88.1664662,86.1112182 88.5666079,85.7800878 C88.9477523,85.4646783 89.2625801,85.1355219 89.5398437,84.7733783 C89.8520048,84.365654 90.0303965,84.0647308 90.470424,83.2506903 C91.061091,82.1579705 91.4196793,81.6206108 92.0689703,81 L93,81.9740551 C92.4791618,82.4718872 92.1840663,82.9141001 91.655774,83.8914283 C91.1820859,84.7677401 90.9793831,85.1096728 90.6097237,85.5924976 C90.2715492,86.034199 89.8862983,86.4369837 89.4256605,86.8181766 C88.9939739,87.1754114 88.5024801,87.5428505 87.9002523,87.9648443 C87.6595818,88.1334872 87.4038407,88.3091252 87.0965367,88.5174673 C86.902353,88.6491175 86.6893788,88.7926436 86.2814616,89.0673755 C84.5692427,90.2221394 83.6974834,90.865666 82.9310297,91.5982643 Z" id="cheekbone-l" fill="#000000" fill-rule="nonzero" opacity="0.100000001" transform="translate(87.500000, 86.299132) scale(-1, 1) translate(-87.500000, -86.299132) "></path>
                <g id="eye-l" transform="translate(105.458361, 59.772364) rotate(-5.000000) translate(-105.458361, -59.772364) translate(93.958361, 51.772364)">
                    <path d="M13.1142716,14.8970681 C15.9465528,14.8970681 18.5591686,14.561226 20.9521188,13.8895417 C17.4896273,10.7007841 14.3422409,9.10640528 11.5099596,9.10640528 C8.67767837,9.10640528 6.20782417,9.74410291 4.10039701,11.0194982 C7.27736548,13.6045448 10.2819903,14.8970681 13.1142716,14.8970681 Z" id="eye-white" fill="#FFFFFF" opacity="0.800000012"></path>
                    <path d="M12.8672808,14.3857797 C14.8976816,14.3857797 16.5436467,12.6615201 16.5436467,10.5345381 C16.5436467,10.2443832 15.0350745,9.77756838 12.01793,9.13409366 C10.1332532,8.64973528 9.19091484,9.11655009 9.19091484,10.5345381 C9.19091484,12.6615201 10.8368799,14.3857797 12.8672808,14.3857797 Z" id="iris" fill="#F5C768" opacity="0.700000048"></path>
                    <path d="M8.98585527,9.47176823 C7.53533395,9.74558386 6.01474185,10.2467203 4.25972634,10.9735094 C8.25176825,14.7297374 13.8536689,15.819474 20.6874423,13.6408538 C19.5808753,12.5627882 18.6531268,11.8209725 17.9094777,11.4168707 C17.5661474,11.2303036 17.0869687,11.0202146 16.4727132,10.7870377 C16.5786859,11.3471269 16.5196576,11.9274918 16.292402,12.3849991 C15.6200891,13.7384886 14.4122704,14.6330287 13.101794,14.6693692 C10.2608678,14.7481502 7.91428724,12.1855009 8.98585527,9.47176823 Z M9.3519759,9.40725656 L9.60011312,9.5232481 C8.535935,11.8606657 10.5684876,14.1471774 13.0858048,14.0773703 C14.1651524,14.0474391 15.1889504,13.2891892 15.7703397,12.1187457 C15.9835294,11.6895555 15.9960125,11.0786374 15.8011528,10.54184 C15.3984232,10.3998798 14.9517986,10.2504502 14.4614223,10.093632 C14.3498293,10.1596958 14.27445,10.1923144 14.1519259,10.2220037 L14.0779019,9.9982874 L14.1122837,9.9830516 C13.4921929,9.78848189 12.8076525,9.58304742 12.058919,9.36689254 C12.0737076,9.43276846 12.0923314,9.51494207 12.1022546,9.55546088 L11.8753522,9.61251497 C11.8567135,9.53640795 11.8101874,9.32636555 11.8096757,9.3241695 C11.8011581,9.28761029 11.7929657,9.25546658 11.7846088,9.22664033 C10.9717475,9.21305252 10.170951,9.27336024 9.3519759,9.40725656 Z M4.02332459,11.0721705 C3.9829453,11.0891501 3.94244107,11.1062464 3.90180998,11.1234592 L3.67636593,10.5770695 C10.4116167,7.72377585 13.8194613,8.00213749 22.0581956,11.4563066 L21.8347385,12.0035337 C19.0670368,10.8431479 16.8650897,10.0479452 14.9036416,9.61462439 C16.4385279,10.1132878 17.5310138,10.5392046 18.1857004,10.8949638 C19.1953866,11.4436313 20.4784644,12.5372779 22.0457721,14.1789078 L21.6257061,14.5906761 C21.4670338,14.4244794 21.3114472,14.2641252 21.1589586,14.1096169 C13.9527318,16.4922503 7.99645584,15.3542803 3.78205882,11.3316975 L4.02332459,11.0721705 Z M14.720634,11.3393683 L15.1896376,11.4479626 L15.1559915,11.6816235 C14.9939558,11.6709168 14.8835524,11.6429292 14.6579548,11.5678496 L14.1889512,11.4592554 L14.2225972,11.2255944 C14.384633,11.2363011 14.4950364,11.2642887 14.720634,11.3393683 Z M13.7783224,13.1505256 L13.5616457,13.2394766 L13.1594009,12.2334534 L13.3760776,12.1445024 L13.7783224,13.1505256 Z M14.2793005,10.7759423 L14.2945133,10.5395562 L15.3787478,10.6111981 L15.363535,10.8475843 L14.2793005,10.7759423 Z M9.85467894,10.7562065 L9.86989176,10.5198203 C10.0154019,10.529435 10.131578,10.5284619 10.3937789,10.5196346 C10.6635821,10.5105514 10.7849759,10.5095345 10.940642,10.5198203 L10.9254292,10.7562065 C10.7799191,10.7465917 10.663743,10.7475649 10.4015421,10.7563922 C10.1317389,10.7654754 10.0103451,10.7664923 9.85467894,10.7562065 Z M10.3152211,11.9659156 L10.2392381,11.7418882 C10.2628634,11.7336105 10.2628634,11.7336105 10.2858517,11.7253552 C10.4097481,11.6805861 10.5181517,11.634694 10.6324427,11.579306 C10.7505315,11.5220776 10.7462771,11.5243645 11.1286503,11.3155876 L11.2395492,11.5241272 C10.8518273,11.7358244 10.8565403,11.733291 10.7333121,11.7930101 C10.611836,11.8518801 10.4959846,11.9009252 10.3643774,11.9484805 C10.3400989,11.9571992 10.3400989,11.9571992 10.3152211,11.9659156 Z M12.5909909,13.3314099 L12.3669003,13.2639032 C12.4250392,13.0657505 12.4527232,12.9421769 12.4663811,12.8206899 C12.4782153,12.7154245 12.480174,12.6350944 12.4800787,12.3743946 C12.480071,12.3530177 12.480071,12.3530177 12.4800684,12.3308882 L12.7138527,12.3308882 C12.7138553,12.3529467 12.7138553,12.3529467 12.713863,12.3743069 C12.7139618,12.6446661 12.7118833,12.7299076 12.6986631,12.8475018 C12.6832218,12.9848519 12.6527037,13.1210763 12.5909909,13.3314099 Z M14.7314991,12.3664895 L14.5784554,12.5455637 L13.8177005,11.8780142 L13.9707442,11.69894 L14.7314991,12.3664895 Z M11.2383053,12.8279186 L11.0558377,12.6798252 L11.5922117,12.0012873 L11.7746793,12.1493807 L11.2383053,12.8279186 Z M10.4502973,9.53795512 L10.5643391,9.33116331 L11.4063564,9.80793272 L11.2923145,10.0147245 L10.4502973,9.53795512 Z M12.5584956,11.7988872 C11.7515238,11.7988872 11.2587983,11.4436151 11.2587983,10.7894663 C11.2587983,10.1353175 11.9944545,9.75647796 12.8014264,9.75647796 C13.6083982,9.75647796 13.858193,10.1353175 13.858193,10.7894663 C13.858193,11.4436151 13.3654675,11.7988872 12.5584956,11.7988872 Z" id="eye" fill="#000000" fill-rule="nonzero" opacity="0.5"></path>
                    <path d="M0.225295417,1.62607616 L0,0.487044664 C5.30713031,-0.494304 8.64647826,0.0134959564 12.6510556,1.95469048 C13.3823134,2.30916321 16.3518611,3.87624515 17.1610053,4.27381374 C19.1003042,5.22667772 20.9060784,5.95382672 22.9772871,6.56292515 L22.6282751,7.67241586 C20.485002,7.04212481 18.6157239,6.28940406 16.6176382,5.30765555 C15.7864462,4.89925388 12.8207318,3.33419483 12.1135139,2.99137529 C8.33822496,1.16132692 5.26554138,0.69407744 0.225295417,1.62607616 Z" id="eye-brow" fill="#000000" fill-rule="nonzero" opacity="0.300000012"></path>
                    <path d="M6.4711015,9.58981188 L6.44394118,9.62975835 C5.84240868,9.44203011 5.43152497,9.26083646 5.21129006,9.08617738 C4.99105515,8.91151831 4.91231605,8.85844003 4.97507275,8.92694255 C5.17985598,8.86935519 5.39775347,8.93216437 5.62876521,9.11537009 C5.79898993,9.25036818 6.01860903,9.33885583 6.2876225,9.38083303 L5.54676213,8.53700811 C5.66495052,8.43783407 5.81256112,8.50112376 5.98959392,8.72687716 C6.16662673,8.95263057 6.41279197,9.2047761 6.72808965,9.48331376 L6.53370357,9.66111436 L6.4711015,9.58981188 Z M5.24444419,10.0848677 L5.12796862,10.3295361 C4.52018902,10.13991 4.08001221,9.96942061 3.80743819,9.81806794 C3.53486417,9.66671527 3.40649807,9.60277065 3.42233988,9.62623409 C3.69689764,9.57171123 3.96686016,9.61812528 4.23222744,9.76547624 C4.49759471,9.91282721 4.8350003,10.019291 5.24444419,10.0848677 Z M7.25024601,9.325438 L7.04963454,9.49498107 L6.11028857,8.40735083 C6.21584356,8.31642047 6.34989667,8.38312733 6.5124479,8.60747141 C6.67499912,8.83181548 6.92093183,9.07113768 7.25024601,9.325438 Z M8.588985,8.86777797 L8.39255899,9.04294407 C8.1486024,8.8660854 7.94912161,8.67628517 7.79411661,8.47354338 C7.6391116,8.27080159 7.55750595,8.18856654 7.54929964,8.22683823 C7.64204046,8.09587395 7.73508082,8.10396245 7.82842073,8.25110374 C7.94906729,8.44129134 7.92159116,8.17187077 8.01233655,8.29056297 C8.20839161,8.54699697 8.40060776,8.73940197 8.588985,8.86777797 Z M9.94156552,8.95689912 L9.74776199,9.13543993 C9.4813266,8.96134297 9.26556295,8.76978189 9.10047102,8.56075669 C8.9353791,8.3517315 8.84253378,8.23352042 8.82193508,8.20612347 C8.96813386,8.1655316 9.12773808,8.25476065 9.30074774,8.47381061 C9.47375741,8.69286057 9.68736334,8.85389007 9.94156552,8.95689912 Z M11.0790247,8.94068131 L10.8899655,9.12505999 C10.5034902,8.85349653 10.2355432,8.62836154 10.0861247,8.44965502 C9.93670609,8.27094849 9.90207501,8.19747 9.98223143,8.22921954 C10.1086466,8.16319949 10.2050516,8.18928737 10.2714463,8.30748317 C10.3567279,8.45930117 10.2353907,8.28286986 10.31311,8.37582309 C10.4815901,8.5773275 10.736895,8.76561357 11.0790247,8.94068131 Z M12.0869155,9.06833563 L11.8771527,9.22442692 C11.3889236,8.9060733 11.0755803,8.63838283 10.937123,8.42135552 C10.7986656,8.20432821 10.7029533,8.09324619 10.6499861,8.08810947 C10.812188,7.96555481 10.9158226,7.97311673 10.9608898,8.11079521 C11.0251866,8.30721923 11.1411761,8.18963387 11.2153423,8.30588684 C11.3674858,8.54436671 11.6580102,8.7985163 12.0869155,9.06833563 Z M12.6427594,9.21233941 L12.3939742,9.27144341 C12.1745084,8.87727881 12.0451295,8.58374022 12.0058374,8.39082762 C11.9665454,8.19791502 11.9498621,8.09732848 11.9557875,8.08906801 C12.0920162,8.05712224 12.1561317,8.09172296 12.148134,8.19287017 C12.134216,8.3688913 12.2206971,8.4108435 12.2422344,8.51658573 C12.2823358,8.7134721 12.4158441,8.94539 12.6427594,9.21233941 Z M13.1457465,9.35156706 L12.8910137,9.35198308 C12.7468081,9.08590223 12.674606,8.88193261 12.6744074,8.74007421 C12.6742087,8.59821582 12.7299121,8.48816812 12.8415175,8.40993112 L13.1441296,8.19671394 C13.0017249,8.45548183 12.9306038,8.64283717 12.9307661,8.75877997 C12.9309284,8.87472277 13.0025886,9.07231847 13.1457465,9.35156706 Z M13.7580764,9.34678702 L13.5033432,9.34682254 C13.3754415,9.0955955 13.3114834,8.90884091 13.3114688,8.78655874 C13.3114542,8.66427658 13.3930169,8.57125561 13.556157,8.50749582 L13.757952,8.30638485 C13.6776742,8.52872323 13.637542,8.6967124 13.6375556,8.81035236 C13.6375692,8.92399232 13.6777428,9.10280387 13.7580764,9.34678702 Z M4.30836856,12.1756316 L4.48002601,12.4587966 C4.31844076,12.4884193 4.22173104,12.5112621 4.18989686,12.527325 C3.96048179,12.6430831 3.78506453,12.7092119 3.66364508,12.7257114 C3.51695295,12.745645 3.39224369,12.7039552 3.28951731,12.6006419 C3.38916142,12.523273 3.51999453,12.4735801 3.68201661,12.4515633 C3.8440387,12.4295464 4.05282269,12.3375692 4.30836856,12.1756316 Z M4.60081458,12.4676102 L4.72853564,12.7056429 C4.56146486,12.8876184 4.41764142,13.0163377 4.29706531,13.0918011 C4.17648921,13.1672644 4.05987441,13.2221645 3.94722091,13.2565014 C3.98910209,13.1282905 4.07560132,13.0231547 4.20671862,12.9410942 C4.33783592,12.8590336 4.46920124,12.7012056 4.60081458,12.4676102 Z M5.10892236,12.6191949 L5.25826643,12.8420663 C5.10094021,13.0721661 4.96465343,13.2322544 4.8494061,13.3223312 C4.73415876,13.4124081 4.62981666,13.448009 4.53637979,13.429134 L4.11225404,13.3981868 C4.41070348,13.3047602 4.61729298,13.2132108 4.73202255,13.1235386 C4.84675211,13.0338665 4.97238538,12.8657519 5.10892236,12.6191949 Z M5.3738075,13.1612364 L5.58492375,13.3151846 C5.45768949,13.6587128 5.35841035,13.8875198 5.28708634,14.0016056 C5.18010031,14.1727342 5.01038851,14.1031395 5.1721618,13.8443762 C5.28001067,13.6718674 5.3472259,13.4441541 5.3738075,13.1612364 Z M5.81381833,13.2851302 L6.0307574,13.4293273 C5.90311621,13.8603271 5.79816945,14.1479956 5.71591712,14.2923328 C5.59253864,14.5088385 5.3880475,14.3626379 5.53161322,14.1107074 C5.62732369,13.9427537 5.72139207,13.6675613 5.81381833,13.2851302 Z M6.77249675,13.6305516 L6.9547887,13.7343804 C6.86788175,14.0764176 6.78927429,14.3080761 6.71896632,14.4293559 C6.64865834,14.5506357 6.59037891,14.6267982 6.544128,14.6578435 C6.44943924,14.5826691 6.43967119,14.4802635 6.51482386,14.3506267 C6.58997654,14.2209899 6.6758675,13.9809649 6.77249675,13.6305516 Z M7.06079321,13.8723539 L7.30669722,13.8902968 C7.31351758,14.2341885 7.29838323,14.4575412 7.26129418,14.5603549 C7.22420513,14.6631686 7.19305684,14.7108352 7.16784932,14.7033546 L6.75314571,14.8214112 C6.90423981,14.6617934 6.99543948,14.5385942 7.02674474,14.4518136 C7.05805001,14.365033 7.0693995,14.1718798 7.06079321,13.8723539 Z M7.87170468,14.1239066 L8.05035587,14.1494476 C8.03466574,14.5015449 8.019449,14.7359584 8.00470565,14.8526881 C7.9899623,14.9694178 7.9836366,15.0564699 7.98572855,15.1138446 C7.86174414,15.0576148 7.8077518,14.9661614 7.82375153,14.8394844 C7.83975125,14.7128074 7.85573564,14.4742815 7.87170468,14.1239066 Z M8.92132478,14.3852506 L9.14532272,14.5162558 C9.14032131,14.7368382 9.11391141,14.894813 9.06609303,14.9901803 C8.99436547,15.1332311 8.80357433,15.0807446 8.88569249,14.9169711 C8.94043794,14.8077888 8.95231537,14.6305486 8.92132478,14.3852506 Z M9.8211417,14.7471396 L10.075654,14.7585926 C10.0785852,14.9895299 10.0780743,15.1562282 10.0741214,15.2586876 C10.068192,15.4123768 9.84770367,15.4148702 9.85625577,15.1931997 C9.86195717,15.0454193 9.85025248,14.8967326 9.8211417,14.7471396 Z M5.99285179,9.88859109 L5.865919,10.1271151 C5.3052513,9.92563351 4.9070262,9.75171617 4.67124371,9.60536305 C4.43546122,9.45900993 4.32620814,9.38131343 4.34348448,9.37227355 C4.48396505,9.33574326 4.66033232,9.38335246 4.87258629,9.51510113 C5.08484025,9.6468498 5.45826208,9.77134645 5.99285179,9.88859109 Z M5.03724971,10.5192472 L4.9642577,10.7828232 C4.29451578,10.8005519 3.82647292,10.7664001 3.56012914,10.680368 C3.29378536,10.5943359 3.15969378,10.4550056 3.15785441,10.2623773 C3.48361325,10.3362613 3.77157371,10.4136059 4.02173579,10.4944112 C4.27189787,10.5752164 4.61040251,10.5834951 5.03724971,10.5192472 Z M7.93341903,9.28480326 L7.72619922,9.44480731 C7.30766268,9.10733397 7.03153186,8.83759485 6.89780674,8.63558993 C6.76408162,8.433585 6.70566311,8.33065774 6.72255122,8.32680815 C6.93784156,8.35259463 7.12654077,8.48792797 7.28864886,8.73280815 C7.45075694,8.97768833 7.66568034,9.1616867 7.93341903,9.28480326 Z" id="eye-lashes" fill="#000000" fill-rule="nonzero" opacity="0.300000012" transform="translate(8.457965, 11.684618) rotate(1.000000) translate(-8.457965, -11.684618) "></path>
                </g>
                <g id="eye-r" transform="translate(139.951470, 59.500076) scale(-1, 1) rotate(-1.000000) translate(-139.951470, -59.500076) translate(128.451470, 52.000076)">
                    <path d="M13.0614394,14.2188431 C15.8823105,14.2188431 18.484401,13.898291 20.8677109,13.2571868 C17.4191684,10.2136051 14.2844616,8.69181421 11.4635905,8.69181421 C8.64271943,8.69181421 6.1828153,9.30047911 4.08387813,10.5178089 C7.24804785,12.985165 10.2405683,14.2188431 13.0614394,14.2188431 Z" id="eye-white" fill="#FFFFFF" opacity="0.800000012"></path>
                    <path d="M12.8154436,13.7308324 C14.8376647,13.7308324 16.4769989,12.0850739 16.4769989,10.0549278 C16.4769989,9.77798293 14.9745041,9.33242099 11.9695145,8.718242 C10.0924303,8.2559352 9.15388827,8.70149715 9.15388827,10.0549278 C9.15388827,12.0850739 10.7932224,13.7308324 12.8154436,13.7308324 Z" id="iris" fill="#F5C768" opacity="0.700000048"></path>
                    <path d="M8.94965481,9.04054312 C7.50497706,9.30189264 5.99051083,9.78021359 4.24256558,10.4739139 C8.21852514,14.0591306 13.797858,15.0992543 20.6041008,13.019821 C19.5019917,11.9908369 18.5779807,11.2827942 17.8373275,10.8970901 C17.4953803,10.719017 17.0181321,10.5184928 16.4063511,10.2959318 C16.511897,10.8305215 16.4531064,11.384464 16.2267663,11.8211422 C15.5571619,13.1130107 14.3542091,13.9668248 13.049012,14.0015108 C10.2195309,14.0767051 7.8824037,11.6307266 8.94965481,9.04054312 Z M9.31430048,8.9789685 L9.56143805,9.08967925 C8.50154709,11.3206803 10.5259113,13.503093 13.0330873,13.436464 C14.1080866,13.4078956 15.1277601,12.6841668 15.7068072,11.5670105 C15.9191381,11.1573603 15.9315709,10.5742557 15.7374962,10.0618973 C15.336389,9.92640017 14.8915637,9.78377375 14.4031629,9.63409502 C14.2920195,9.6971511 14.2169439,9.72828469 14.0949134,9.75662233 L14.0211876,9.54309123 L14.0554309,9.52854909 C13.4378381,9.34283763 12.7560555,9.14675606 12.0103384,8.94044215 C12.0250674,9.00331891 12.0436162,9.08175137 12.0534994,9.12042547 L11.8275111,9.17488202 C11.8089475,9.10223996 11.7626088,8.90176025 11.7620992,8.89966418 C11.7536159,8.86476942 11.7454565,8.83408913 11.7371332,8.80657526 C10.9275467,8.79360607 10.1299763,8.85116814 9.31430048,8.9789685 Z M4.0071162,10.5680832 C3.96689958,10.5842898 3.92655853,10.6006077 3.88609113,10.6170368 L3.66155531,10.0955229 C10.3696724,7.37213231 13.7637882,7.63782086 21.9693318,10.9347306 L21.7467749,11.4570438 C18.9902232,10.3494875 16.7971469,9.59048825 14.8436007,9.17689541 C16.3723036,9.652856 17.4603883,10.0593819 18.1124374,10.3989443 C19.118056,10.9226323 20.3959647,11.966488 21.9569584,13.5333788 L21.5385847,13.9264004 C21.3805516,13.7677702 21.2255918,13.6147165 21.0737175,13.4672425 C13.8965218,15.7414008 7.96424127,14.6552396 3.7668224,10.8157946 L4.00711626,10.5680831 Z M14.6613303,10.8231162 L15.1284445,10.9267664 L15.094934,11.1497894 C14.9335511,11.1395702 14.8235924,11.1128567 14.5989037,11.0411954 L14.1317895,10.9375451 L14.1653,10.7145222 C14.3266829,10.7247414 14.4366416,10.7514548 14.6613303,10.8231162 Z M13.722815,12.5518161 L13.5070112,12.6367175 L13.1063869,11.6764959 L13.3221907,11.5915946 L13.722815,12.5518161 Z M14.2217748,10.2853416 L14.2369263,10.0597174 L15.3167929,10.1280977 L15.3016414,10.3537218 L14.2217748,10.2853416 Z M9.81497833,10.2665042 L9.83012986,10.0408801 C9.97505376,10.0500571 10.0907619,10.0491282 10.3519065,10.0407028 C10.6206227,10.0320332 10.7415275,10.0310626 10.8965665,10.0408801 L10.881415,10.2665042 C10.7364911,10.2573272 10.620783,10.2582561 10.3596384,10.2666815 C10.0909221,10.2753512 9.97001737,10.2763217 9.81497833,10.2665042 Z M10.2736652,11.4211384 L10.1979883,11.2073104 C10.2215184,11.1994096 10.2215184,11.1994096 10.244414,11.1915301 C10.3678113,11.1487992 10.4757782,11.1049964 10.5896088,11.0521302 C10.7072219,10.9975072 10.7029846,10.99969 11.0838174,10.8004182 L11.1942695,10.9994635 C10.8081095,11.2015227 10.8128036,11.1991046 10.6900718,11.2561049 C10.5690851,11.3122946 10.4537004,11.3591069 10.3226235,11.4044971 C10.2984427,11.4128188 10.2984427,11.4128188 10.2736652,11.4211384 Z M12.5402668,12.7244653 L12.317079,12.660032 C12.3749836,12.4709007 12.4025561,12.3529531 12.4161589,12.2369971 C12.4279455,12.1365241 12.4298963,12.0598513 12.4298014,11.8110205 C12.4297937,11.7906167 12.4297937,11.7906167 12.4297911,11.7694947 L12.6626336,11.7694947 C12.6626362,11.790549 12.6626362,11.790549 12.6626439,11.8109367 C12.6627423,12.0689872 12.6606722,12.1503479 12.6475052,12.2625882 C12.6321261,12.3936852 12.601731,12.5237076 12.5402668,12.7244653 Z M14.6721517,11.8034752 L14.5197246,11.9743966 L13.7620344,11.337239 L13.9144616,11.1663175 L14.6721517,11.8034752 Z M11.1930306,12.2438967 L11.0112981,12.1025456 L11.5455113,11.4548997 L11.7272438,11.5962508 L11.1930306,12.2438967 Z M10.4081972,9.10371669 L10.5217796,8.90633958 L11.3604047,9.36140291 L11.2468222,9.55878002 L10.4081972,9.10371669 Z M12.5079024,11.2617144 C11.7041815,11.2617144 11.213441,10.9226169 11.213441,10.2982498 C11.213441,9.67388267 11.9461336,9.31229076 12.7498545,9.31229076 C13.5535753,9.31229076 13.8023638,9.67388267 13.8023638,10.2982498 C13.8023638,10.9226169 13.3116233,11.2617144 12.5079024,11.2617144 Z" id="eye" fill="#000000" fill-rule="nonzero" opacity="0.5"></path>
                    <path d="M0.224387791,1.55204512 L2.27373675e-13,0.46487078 C5.28574998,-0.471799618 8.61164501,0.0128815204 12.6000895,1.86569848 C13.3284013,2.20403299 16.2859859,3.69976973 17.0918703,4.07923805 C19.0233566,4.9887206 20.8218561,5.68276439 22.8847207,6.26413215 L22.5371147,7.32311062 C20.402476,6.72151509 18.5407285,6.00306376 16.5506923,5.06601173 C15.7228488,4.67620352 12.7690821,3.18239756 12.0647134,2.85518571 C8.30463354,1.10845471 5.2443286,0.66247789 0.224387791,1.55204512 Z" id="eye-brow" fill="#000000" fill-rule="nonzero" opacity="0.300000012"></path>
                    <path d="M6.77386001,9.1236889 L6.74669969,9.16363537 C6.14516718,8.97590713 5.73428348,8.79471348 5.51404857,8.62005441 C5.29381366,8.44539534 5.21507456,8.39231706 5.27783126,8.46081957 C5.48261449,8.40323221 5.70051198,8.46604139 5.93152372,8.64924711 C6.10174844,8.7842452 6.32136754,8.87273285 6.59038101,8.91471005 L5.84952064,8.07088513 C5.96770903,7.97171109 6.11531963,8.03500078 6.29235243,8.26075419 C6.46938524,8.4865076 6.71555048,8.73865313 7.03084816,9.01719078 L6.83646208,9.19499138 L6.77386001,9.1236889 Z M5.5472027,9.61874476 L5.43072713,9.86341315 C4.82294753,9.67378703 4.38277072,9.50329763 4.1101967,9.35194496 C3.83762268,9.20059229 3.70925658,9.13664768 3.72509839,9.16011112 C3.99965615,9.10558825 4.26961867,9.1520023 4.53498595,9.29935327 C4.80035322,9.44670424 5.13775881,9.55316807 5.5472027,9.61874476 Z M7.55300452,8.85931503 L7.35239305,9.0288581 L6.41304708,7.94122785 C6.51860207,7.85029749 6.65265518,7.91700435 6.81520641,8.14134843 C6.97775763,8.3656925 7.22369034,8.6050147 7.55300452,8.85931503 Z M9.1946986,8.70642566 L8.93158609,8.7540116 C8.53011711,8.45902592 8.25188012,8.21016219 8.09687512,8.0074204 C7.94187011,7.80467861 7.86026446,7.72244356 7.85205815,7.76071525 C7.94479897,7.62975097 8.03783933,7.63783948 8.13117924,7.78498077 C8.2518258,7.97516836 8.22434967,7.7057478 8.31509506,7.82443999 C8.51115012,8.08087399 8.8043513,8.37486922 9.1946986,8.70642566 Z M10.244324,8.49077614 L10.0505205,8.66931696 C9.78408511,8.49521999 9.56832146,8.30365891 9.40322953,8.09463372 C9.23813761,7.88560852 9.14529229,7.76739745 9.12469359,7.74000049 C9.27089237,7.69940863 9.43049659,7.78863767 9.60350625,8.00768763 C9.77651592,8.22673759 9.99012185,8.38776709 10.244324,8.49077614 Z M11.3817832,8.47455833 L11.192724,8.65893701 C10.8062487,8.38737355 10.5383017,8.16223856 10.3888832,7.98353204 C10.2394646,7.80482552 10.2048335,7.73134702 10.2849899,7.76309656 C10.4114051,7.69707652 10.5078101,7.7231644 10.5742049,7.84136019 C10.6594864,7.99317819 10.5381492,7.81674688 10.6158685,7.90970012 C10.7843486,8.11120452 11.0396535,8.29949059 11.3817832,8.47455833 Z M12.389674,8.60221266 L12.1799112,8.75830395 C11.6916821,8.43995032 11.3783388,8.17225985 11.2398815,7.95523254 C11.1014241,7.73820523 11.0057118,7.62712321 10.9527446,7.62198649 C11.1149465,7.49943184 11.2185811,7.50699375 11.2636483,7.64467223 C11.3279451,7.84109626 11.4439346,7.72351089 11.5181008,7.83976387 C11.6702443,8.07824373 11.9607687,8.33239333 12.389674,8.60221266 Z M12.9455179,8.74621643 L12.6967327,8.80532043 C12.4772669,8.41115584 12.347888,8.11761724 12.308596,7.92470464 C12.2693039,7.73179204 12.2526206,7.6312055 12.258546,7.62294503 C12.3947747,7.59099926 12.4588902,7.62559998 12.4508925,7.72674719 C12.4369745,7.90276832 12.5234556,7.94472052 12.5449929,8.05046275 C12.5850943,8.24734913 12.7186026,8.47926702 12.9455179,8.74621643 Z M13.448505,8.88544409 L13.1937722,8.8858601 C13.0495666,8.61977925 12.9773645,8.41580963 12.9771659,8.27395124 C12.9769672,8.13209284 13.0326706,8.02204515 13.144276,7.94380814 L13.4468881,7.73059096 C13.3044834,7.98935885 13.2333623,8.17671419 13.2335246,8.29265699 C13.2336869,8.40859979 13.3053471,8.60619549 13.448505,8.88544409 Z M14.0608349,8.88066404 L13.8061018,8.88069957 C13.6782001,8.62947253 13.6142419,8.44271793 13.6142273,8.32043577 C13.6142127,8.19815361 13.6957754,8.10513263 13.8589155,8.04137284 L14.0607105,7.84026187 C13.9804327,8.06260025 13.9403005,8.23058942 13.9403141,8.34422938 C13.9403277,8.45786934 13.9805013,8.63668089 14.0608349,8.88066404 Z M4.61112707,11.7095087 L4.78278452,11.9926736 C4.62119927,12.0222963 4.52448955,12.0451391 4.49265537,12.061202 C4.2632403,12.1769602 4.08782303,12.243089 3.96640359,12.2595884 C3.81971146,12.279522 3.6950022,12.2378322 3.59227582,12.1345189 C3.69191993,12.05715 3.82275304,12.0074571 3.98477512,11.9854403 C4.14679721,11.9634235 4.3555812,11.8714463 4.61112707,11.7095087 Z M4.90357308,12.0014872 L5.03129415,12.2395199 C4.86422337,12.4214954 4.72039993,12.5502148 4.59982382,12.6256781 C4.47924772,12.7011414 4.36263292,12.7560415 4.24997942,12.7903784 C4.2918606,12.6621675 4.37835983,12.5570318 4.50947713,12.4749712 C4.64059443,12.3929106 4.77195975,12.2350826 4.90357308,12.0014872 Z M5.41168087,12.1530719 L5.56102494,12.3759433 C5.40369872,12.6060431 5.26741194,12.7661314 5.15216461,12.8562083 C5.03691727,12.9462851 4.93257517,12.981886 4.8391383,12.963011 L4.41501255,12.9320638 C4.71346199,12.8386372 4.92005149,12.7470878 5.03478106,12.6574156 C5.14951062,12.5677435 5.27514389,12.3996289 5.41168087,12.1530719 Z M5.67656601,12.6951134 L5.88768226,12.8490616 C5.760448,13.1925898 5.66116886,13.4213968 5.58984485,13.5354826 C5.48285882,13.7066113 5.31314702,13.6370165 5.47492031,13.3782533 C5.58276918,13.2057444 5.64998441,12.9780311 5.67656601,12.6951134 Z M6.11657684,12.8190072 L6.33351591,12.9632043 C6.20587472,13.3942041 6.10092796,13.6818726 6.01867563,13.8262098 C5.89529715,14.0427156 5.69080601,13.8965149 5.83437173,13.6445844 C5.9300822,13.4766308 6.02415058,13.2014384 6.11657684,12.8190072 Z M7.07525526,13.1644286 L7.25754721,13.2682574 C7.17064026,13.6102946 7.0920328,13.8419532 7.02172483,13.9632329 C6.95141685,14.0845127 6.89313742,14.1606753 6.84688651,14.1917205 C6.75219775,14.1165461 6.7424297,14.0141405 6.81758237,13.8845037 C6.89273505,13.7548669 6.97862601,13.5148419 7.07525526,13.1644286 Z M7.36355172,13.4062309 L7.60945573,13.4241738 C7.61627609,13.7680655 7.60114174,13.9914182 7.56405269,14.0942319 C7.52696364,14.1970457 7.49581535,14.2447122 7.47060783,14.2372316 L7.05590422,14.3552882 C7.20699832,14.1956704 7.29819799,14.0724713 7.32950325,13.9856907 C7.36080852,13.89891 7.372158,13.7057568 7.36355172,13.4062309 Z M8.17446319,13.6577836 L8.35311438,13.6833247 C8.33742425,14.0354219 8.32220751,14.2698354 8.30746416,14.3865651 C8.29272081,14.5032948 8.28639511,14.590347 8.28848706,14.6477216 C8.16450265,14.5914918 8.11051031,14.5000384 8.12651004,14.3733614 C8.14250976,14.2466844 8.15849415,14.0081585 8.17446319,13.6577836 Z M9.22408329,13.9191277 L9.44808123,14.0501328 C9.44307982,14.2707152 9.41666992,14.42869 9.36885154,14.5240573 C9.29712398,14.6671081 9.10633284,14.6146216 9.188451,14.4508482 C9.24319645,14.3416658 9.25507388,14.1644257 9.22408329,13.9191277 Z M10.1239002,14.2810166 L10.3784125,14.2924697 C10.3813437,14.5234069 10.3808328,14.6901052 10.3768799,14.7925647 C10.3709506,14.9462538 10.1504622,14.9487473 10.1590143,14.7270767 C10.1647157,14.5792963 10.153011,14.4306096 10.1239002,14.2810166 Z M6.2956103,9.42246812 L6.16867751,9.6609921 C5.60800981,9.45951053 5.20978471,9.28559319 4.97400222,9.13924007 C4.73821973,8.99288695 4.62896665,8.91519045 4.64624299,8.90615058 C4.78672356,8.86962029 4.96309083,8.91722948 5.17534479,9.04897815 C5.38759876,9.18072682 5.76102059,9.30522347 6.2956103,9.42246812 Z M5.34000822,10.0531242 L5.26701621,10.3167002 C4.59727429,10.3344289 4.12923143,10.3002772 3.86288765,10.214245 C3.59654387,10.1282129 3.46245229,9.98888267 3.46061292,9.79625435 C3.78637176,9.87013831 4.07433222,9.94748292 4.3244943,10.0282882 C4.57465638,10.1090934 4.91316102,10.1173721 5.34000822,10.0531242 Z M8.23617754,8.81868029 L8.02895773,8.97868433 C7.61042119,8.641211 7.33429037,8.37147187 7.20056525,8.16946695 C7.06684013,7.96746203 7.00842162,7.86453477 7.02530973,7.86068517 C7.24060007,7.88647166 7.42929928,8.02180499 7.59140736,8.26668517 C7.75351545,8.51156535 7.96843885,8.69556372 8.23617754,8.81868029 Z" id="eye-lashes" fill="#000000" fill-rule="nonzero" opacity="0.300000012" transform="translate(8.760724, 11.218495) rotate(-1.000000) translate(-8.760724, -11.218495) "></path>
                </g>
                <path d="M76.6286888,61.3868673 C76.3632254,61.068187 75.981119,60.7300917 75.3747196,60.2576165 C75.6420862,60.4659348 72.8643622,58.3683212 71.2129449,57.0704466 C71.5257203,58.6390082 72.2422609,62.1363968 72.3673524,62.7626576 C72.5910557,63.8826107 72.7851557,64.8877218 72.9624587,65.8519593 C73.1731413,67.0055351 73.2797502,67.8228813 73.5176257,69.9024791 C73.8517038,72.8231165 74.0702179,74.1508392 74.5481879,75.6347953 C76.1779726,80.6947973 78.924257,82.829005 81.5602326,81.8118448 L81.9202361,82.7447958 C78.6374967,84.0115267 75.3804027,81.4803559 73.5963434,75.9413766 C73.0913515,74.3735254 72.8656818,73.0023241 72.5241042,70.0161234 C72.2888299,67.9592659 72.1839985,67.1555478 71.9854005,66.0680211 C71.802654,65.0740594 71.6094939,64.0738152 71.3867234,62.9585318 C71.2454294,62.2511546 70.3368818,57.8190504 70.1275325,56.7347938 C69.7345085,54.6992537 69.5463867,53.4352715 69.5463867,52.6625977 C69.5463867,51.5473417 70.2862831,51.1997417 71.2491915,51.6264645 C71.7979598,51.8696569 72.2569952,52.1884511 73.5672651,53.1735149 C73.6184808,53.2120135 73.6184808,53.2120135 73.6696375,53.2504313 C73.9619883,53.469909 74.1653897,53.6205068 74.3642288,53.7635303 C75.2625641,54.4096962 75.6388758,54.8000241 78.0455666,57.4414155 C78.6016928,58.0517751 79.0097824,58.4888889 79.4106345,58.8981963 C79.6526612,59.1446165 79.7031518,59.1880601 80.1541555,59.5591809 C80.2504642,59.6384311 80.323349,59.7000534 80.3958433,59.764335 C80.7753841,60.1008788 81.0809093,60.4653947 81.4271342,61.0272426 L80.5757955,61.551859 C80.2807025,61.0729871 80.0383832,60.7838809 79.7323893,60.5125521 C79.6706503,60.4578073 79.6063733,60.4034627 79.5187484,60.3313582 C79.0373144,59.9351971 78.9739004,59.8806338 78.7316986,59.63409 C78.7139406,59.6160042 78.7139406,59.6160042 78.6961869,59.5978852 C78.2852241,59.1782539 77.8699159,58.7334081 77.3063828,58.1149192 C74.9752176,55.5564187 74.5928091,55.1597669 73.7803024,54.5753369 C73.5747255,54.427467 73.366614,54.2733818 73.0692619,54.0501496 C73.0177588,54.0114715 73.0177588,54.0114715 72.9663436,53.9728229 C71.7372463,53.0487849 71.2906678,52.7386418 70.8440336,52.5407112 C70.4838777,52.3811044 70.5463867,52.351738 70.5463867,52.6625977 C70.5463867,53.2916443 70.7003747,54.3779055 71.0197623,56.0752228 L71.1093979,55.8469238 C72.6250768,57.0579455 76.2725267,59.689438 75.9893338,59.4687886 C77.0795935,60.3182629 77.5662035,60.8271559 77.9116611,61.5446938 C78.1186878,61.9747017 79.608653,63.9294319 80.1541555,67.2576925 C80.4821126,69.258649 80.5896745,77.2099537 80.9202361,78.5078125 L80.4271342,77.3286133 C80.0900294,76.0050644 79.444327,70.1457298 79.0673828,68.0385742 C78.5791557,65.3093358 77.7411654,63.4277436 77.2940543,62.5302375 L76.232212,69.9129782 L75.2423974,69.7706155 L76.4518701,61.3614358 L76.6286888,61.3868673 Z" id="ear" fill="#000000" fill-rule="nonzero" opacity="0.3"></path>
                <path d="M163.807281,51.550346 C165.216999,57.0729834 165.149955,107.828155 161.275723,132.553184 C160.680116,136.354298 154.043396,132.655426 151.885251,129.782525 C149.578561,126.71188 147.82693,120.998758 148.889648,117.066406 C149.433489,115.054047 150.365923,112.495794 151.646057,110.989624 C153.469236,108.844524 154.818017,105.598496 156.170837,102.599731 C156.493652,101.884155 156.753264,101.260146 156.998901,100.540833 C157.350326,99.5117352 157.782467,98.4401364 158.146301,97.3989258 C162.835043,83.9808028 161.084607,65.9104261 161.268096,52.674492 C159.773149,48.4963587 157.74449,42.2678929 156.814123,41.6887422 C150.566461,37.7995885 153.170453,31.3483215 147.615539,26.4458682 C142.715845,22.1216753 143.794069,24.4790549 137.44804,23.6900824 C131.006945,22.8892906 125.49251,26.883304 119.00609,26.9366828 C115.622262,26.9645294 99.9712764,22.3740909 96.8309682,23.6900824 C89.8947429,26.5968076 88.292491,35.2921072 84.0132021,41.6887422 C80.1067464,47.5280701 82.3740569,55.8649781 82.3807028,62.9871208 C82.3814511,63.789077 81.6804786,60.5287984 80.1110809,59.008548 C78.5416831,57.4882976 76.9986773,56.6071881 74.778486,54.4603429 C72.3060181,52.0695553 69.9592895,50.8157974 69.9924347,51.3010591 C70.0550333,52.2175322 70.4303226,55.0280742 71.5669213,58.5761637 C72.4261188,61.2582975 72.0453921,65.1176416 72.8686523,68.3012695 C73.2608517,69.8179427 74.4821911,75.3209755 74.778486,76.7998047 C74.8866128,77.339473 76.2886034,79.1339765 77.0549316,80.2431641 C77.3552661,80.6778697 77.8596783,81.5356094 77.8969727,81.6303711 C78.6788146,83.6169664 80.1110809,83.0499268 81.3039046,83.3734555 C82.4967283,83.6969842 84.2915103,88.3302757 84.5872231,92.0280465 C84.7707163,94.3225565 86.281681,100.765894 89.1201172,111.358059 L89.1201172,122.963867 L89.1201172,132.553184 L84.0132021,140.359473 C77.0842398,142.572034 71.1201213,143.678315 66.1208465,143.678315 C60.8048378,143.678315 73.5549265,111.766189 73.6197587,106.191553 C73.8052962,90.2379919 70.0267719,74.4912795 68.9502406,58.5761637 C66.3660648,20.3724838 73.6197587,1.27834074 113.907074,1.27834074 C121.727616,1.27834074 143.938256,1.49868775 151.426061,11.6895594 C160.511545,24.0548643 165.016335,39.1051815 163.807281,51.550346 Z" id="hair" fill="#DDC25D"></path>
                <path d="M81.5522074,57.1106619 C81.5000858,56.4719447 81.4741098,56.1493199 81.4450136,55.7740394 C80.8977962,48.7160841 81.2805428,44.8742708 83.5976233,41.4107238 C84.6215606,39.8801533 85.4566181,38.3175277 86.7470423,35.6454765 C86.8222277,35.4897917 86.8742113,35.3818928 87.00113,35.1181791 C87.1279857,34.8544629 87.1279857,34.8544629 87.2548405,34.5908671 C90.5601934,27.725849 92.6052252,24.918812 96.6377187,23.2289374 C98.1495169,22.5953966 101.672553,23.0405702 108.068359,24.3697167 C108.563208,24.4725539 109.081224,24.5818018 109.663223,24.7058312 C117.365383,26.3472328 117.866952,26.4460402 119.001976,26.4366997 C121.380783,26.4171238 123.240452,25.9974579 127.219203,24.7824128 C127.827262,24.5967217 128.015571,24.5394186 128.31469,24.4495798 C132.286028,23.2568085 134.731002,22.8484361 137.509728,23.1939023 C139.163248,23.3994769 140.254109,23.4079526 141.663239,23.3042327 C142.824771,23.2187373 143.027447,23.2116926 143.508486,23.2803975 C144.661585,23.4450902 145.75161,24.1339956 147.94639,26.0709847 C149.850381,27.7513394 150.916913,29.5977073 151.803953,32.2690681 C151.958975,32.735925 152.046145,33.0188984 152.333325,33.9710016 C153.545481,37.9897232 154.482507,39.6483553 157.078359,41.2642663 C157.777531,41.6994995 158.616269,43.681912 160.158377,48.0193487 C160.254319,48.2892024 160.354299,48.5719436 160.462728,48.8798731 C160.34596,48.5482616 161.465577,51.7422493 161.739014,52.5064543 C161.731951,55.4189933 161.769055,57.5529971 161.919845,63.3898665 C162.068497,69.1440022 162.113313,72.0665285 162.06679,75.4943637 C161.90453,87.449844 160.410406,96.1519286 156.699851,102.851495 C156.372326,103.442856 156.046588,104.143575 155.625236,105.137214 C155.47532,105.490747 154.955587,106.741743 154.924469,106.816047 C153.902604,109.25606 153.203983,110.618442 152.30015,111.681867 C151.684105,112.406688 151.356486,113.406329 151.009414,115.276167 C150.981937,115.424202 150.9574,115.559055 150.906014,115.842829 C150.740745,116.753728 150.64679,117.214527 150.512153,117.712722 C149.446413,121.656255 150.15407,126.645516 152.28502,129.482216 C153.321834,130.862414 155.457338,132.441516 157.353596,133.206959 C159.37443,134.022688 160.57572,133.79065 160.78175,132.475782 C164.11217,111.221322 165.145746,58.8154311 163.322815,51.6740115 C164.521033,39.0325836 159.932477,24.1111936 151.023133,11.9856139 C147.762065,7.54731493 141.379623,4.6989013 132.703724,3.15463603 C126.708317,2.08748459 121.038915,1.77834074 113.907074,1.77834074 C94.2743001,1.77834074 82.3084258,6.30845522 75.7646469,15.883002 C69.7681043,24.6568587 68.0412742,37.7295359 69.4491007,58.5424198 C69.8117701,63.9040153 70.324922,68.1927393 71.6425385,77.8031482 C71.7855474,78.8462236 71.8470303,79.2953022 71.9250499,79.8676494 C73.5714291,91.9453924 74.2069315,98.6988544 74.1197249,106.197368 C74.0973216,108.123733 73.9364705,108.686635 69.7006577,122.592365 C69.4743868,123.335189 69.2686327,124.014874 69.0731843,124.665824 C67.3080637,130.544641 66.2232822,134.642774 65.679636,137.777419 C65.0575863,141.364136 65.2815109,143.178315 66.1208465,143.178315 C70.9901331,143.178315 76.8038246,142.113231 83.5577924,139.979508 L84.9182138,129.360159 L84.0875275,121.953309 L83.5391016,106.153201 C84.0869593,99.0317853 84.2695066,94.3273901 84.0888143,92.0679046 C83.8150728,88.6448764 81.9732941,83.7263063 81.4211684,83.8595102 C79.8197765,84.2458563 77.8089081,83.2785912 77.0342245,81.3101847 C76.9804543,81.1735592 74.439191,77.5827722 73.1197925,72.4783277 C70.9435766,64.0590566 69.5628732,52.3493684 69.493597,51.3351316 C69.4468797,50.6511669 69.982278,50.5902532 70.5400399,50.7805593 C70.8420193,50.8835934 71.2440117,51.089342 71.7089255,51.3769835 C72.740707,52.0153454 73.9661632,52.979331 75.1260523,54.1009022 C75.7832452,54.736384 76.4120671,55.2916266 77.1100631,55.8642848 C77.5180781,56.1990334 78.8483017,57.2495901 78.8261891,57.2318853 C79.4074744,57.6972998 79.8469286,58.0712992 80.2770846,58.4758317 C80.9319841,59.1076208 81.3510949,59.7179408 81.7366684,60.4582734 C81.7576998,59.7038 81.6759162,58.626637 81.5522074,57.1106619 Z M161.769695,132.630586 C161.43242,134.783044 159.507596,135.15484 156.979281,134.134261 C154.919661,133.302875 152.635708,131.614002 151.485483,130.082834 C149.157575,126.983944 148.404884,121.677179 149.546785,117.451831 C149.671698,116.989618 149.761773,116.547845 149.922078,115.664308 C149.973461,115.380545 149.998352,115.243744 150.026208,115.093668 C150.404484,113.05572 150.771266,111.936584 151.538184,111.03425 C152.353097,110.075446 153.019729,108.775443 154.00209,106.429759 C154.031963,106.358429 154.552975,105.104356 154.70459,104.746815 C155.138468,103.723638 155.476896,102.99562 155.825061,102.366993 C159.436827,95.8457937 160.906673,87.2851063 161.066882,75.4807929 C161.113172,72.0701359 161.068501,69.1570761 160.920178,63.4156919 C160.770675,57.6286117 160.732627,55.4710647 160.767116,52.7584388 C160.599935,52.2904241 160.421584,51.7847727 160.17466,51.0803619 C160.105685,50.8835921 160.013289,50.6197369 159.849693,50.1525805 C159.719045,49.7796492 159.618012,49.4917859 159.519495,49.2120062 C159.411384,48.9049782 159.311736,48.6231743 159.216156,48.3543407 C157.859335,44.5380565 156.934783,42.3528139 156.549888,42.1132181 C153.694062,40.3354738 152.652333,38.4915055 151.375929,34.2597784 C151.09168,33.3173929 151.005884,33.0388809 150.854906,32.5842041 C150.018885,30.0664862 149.037688,28.3678501 147.284688,26.8207517 C145.228761,25.0063061 144.267851,24.3990029 143.367095,24.2703513 C142.989014,24.2163515 142.808868,24.222613 141.736646,24.3015347 C140.266481,24.4097473 139.111768,24.4007754 137.386353,24.1862624 C134.780825,23.8623292 132.450408,24.2515677 128.602341,25.4073151 C128.30527,25.4965389 128.117718,25.5536116 127.511271,25.7388103 C123.442208,26.9814352 121.516331,27.4160422 119.010205,27.4366659 C117.756417,27.4469837 117.38169,27.3731637 109.454794,25.6838688 C108.874339,25.5601683 108.35793,25.4512593 107.864891,25.3487983 C101.78955,24.0862492 98.2473534,23.6386546 97.0242176,24.1512273 C93.2968767,25.7132233 91.3572107,28.3756338 88.1558435,35.02468 C88.0291697,35.2878996 88.0291697,35.2878996 87.9022474,35.5517543 C87.7751386,35.815863 87.722965,35.9241564 87.6475321,36.0803536 C86.3380825,38.7918002 85.4855842,40.3870624 84.428781,41.9667605 C82.2770632,45.1831251 81.9114273,48.8531898 82.4420214,55.6967393 C82.4709815,56.0702633 82.4968791,56.391915 82.5488943,57.0293288 C82.798399,60.086853 82.8792037,61.3803708 82.8807026,62.9866542 C82.8809083,63.2071216 82.8689055,63.2971829 82.7342699,63.4449599 C82.5158983,63.6846461 82.2046096,63.6497185 82.0133808,63.4808488 C81.8243209,63.2127506 81.7810004,63.1063793 81.6495845,62.7640409 C81.3271231,61.9240283 81.1389276,61.4754441 80.8497462,60.9201923 C80.5095724,60.2670307 80.147865,59.7403031 79.7631955,59.36768 C79.1840333,58.8206303 78.7634774,58.4627143 78.2011778,58.012501 C78.2297049,58.0353416 76.8923465,56.9791502 76.4757839,56.6373889 C75.7577923,56.0483257 75.1088391,55.4753074 74.4309197,54.8197837 C73.3213003,53.7468216 72.1521379,52.8271185 71.1827854,52.2273814 C70.9444567,52.0799278 70.7288061,51.9590146 70.5471083,51.8691736 C70.6182472,52.4952471 71.9681178,64.1565963 74.1197249,72.4783277 C75.3932852,77.4040536 77.9510144,80.9090565 77.9647536,80.9439668 C78.5516152,82.4351331 80.0579451,83.1597058 81.1866408,82.8874008 C82.7490672,82.5104553 84.756387,87.8711118 85.0856319,91.9881885 C85.2719261,94.3177229 85.088077,99.0556656 84.5373242,106.17411 L85.084097,121.880041 L85.9186665,129.308295 L84.4686805,140.738902 L84.1652965,140.835779 C77.1907467,143.062897 71.1773689,144.178315 66.1208465,144.178315 C64.2427613,144.178315 63.9566314,141.860165 64.6943443,137.606538 C65.24685,134.42081 66.339268,130.293827 68.1154242,124.378255 C68.3112839,123.725935 68.5174167,123.045 68.7440535,122.300975 C72.8779153,108.729939 73.0992103,107.955512 73.1197925,106.185739 C73.2062671,98.7501661 72.5743072,92.0343497 70.9342133,80.0027155 C70.8562404,79.4307104 70.7947802,78.9817985 70.6518067,77.9389806 C69.3310782,68.3058743 68.8161119,64.0019854 68.4513806,58.6099076 C67.0295719,37.5903152 68.7814117,24.3283058 74.9390494,15.3187426 C81.7004859,5.4257295 93.9761293,0.778340743 113.907074,0.778340743 C121.093332,0.778340743 126.811587,1.09014851 132.878964,2.17011037 C141.784496,3.75524904 148.379242,6.69841139 151.82899,11.3935049 C160.858087,23.6820676 165.520341,38.8048472 164.313161,51.5130924 C166.147222,59.131399 165.106371,111.336201 161.769695,132.630586 Z" id="hair-outline" fill="#000000" fill-rule="nonzero" opacity="0.05"></path>
                <path d="M121.011425,26.5897725 C121.012163,26.6238214 121.012878,26.6579028 121.013569,26.6920171 L120.013775,26.7122798 C119.798376,16.0841911 117.289974,8.77689747 111.035074,2.1217239 L111.763754,1.43686985 C117.292989,7.31993934 119.983972,13.7131269 120.773818,22.2763001 C123.005835,8.06177912 127.886183,5.19793209 144.764707,5.56261667 L144.743106,6.56238333 C126.817599,6.17507721 123.143771,9.25191056 121.210796,26.6119717 L121.011425,26.5897725 Z M118.936324,25.9699714 L118.49178,26.2586207 C108.841236,11.3959945 84.6260081,8.32695813 73.4405824,21.5706684 L72.6766051,20.9254254 C83.9600171,7.56569773 107.811314,10.1356565 118.370313,24.3336517 C112.763335,9.46404862 97.1078518,2.44704213 82.8586101,10.1392028 L82.3835774,9.25923469 C97.8161854,0.928258002 114.863234,9.21151273 119.980133,25.9593726 L119.023773,26.2515649 C118.99501,26.1574215 118.965859,26.0635565 118.936324,25.9699714 Z M73.8909074,143.517212 L72.9040145,143.355835 C75.0541869,130.206521 78.7012668,111.269912 78.9011432,109.332156 C79.1473446,106.945291 79.1275585,104.829739 78.845605,100.773875 C78.8112331,100.27944 77.8710504,88.2867458 77.4679807,82.4396594 L78.4656131,82.3708875 C78.8682578,88.2118087 79.8084103,100.204117 79.8431974,100.704525 C80.1287906,104.812746 80.1490611,106.980088 79.8958655,109.43476 C79.6906722,111.424062 76.0347767,130.406444 73.8909074,143.517212 Z M156.140565,132.921947 L155.140685,132.937428 C155.065933,128.109498 155.391474,124.343687 156.365195,116.542788 C156.382633,116.403097 156.382633,116.403097 156.400074,116.263418 C157.516761,107.319957 157.840232,103.224557 157.593278,97.7314402 L158.592269,97.6865286 C158.842531,103.253241 158.515817,107.389707 157.392369,116.387317 C157.374928,116.526991 157.374928,116.526991 157.357494,116.666649 C156.389328,124.423048 156.066751,128.154575 156.140565,132.921947 Z M122.168954,26.5679254 L121.26464,26.1410589 C128.060787,11.7434536 137.446692,8.3875409 153.021014,14.4421802 L152.658674,15.3742261 C137.559658,9.5043657 128.733969,12.6599742 122.168954,26.5679254 Z" id="hair-outline" fill="#000000" fill-rule="nonzero" opacity="0.05"></path>
            </g>
        </g>
    </g>
</svg>