<?xml version="1.0" encoding="UTF-8"?>
<svg width="480px" height="300px" viewBox="0 0 480 300" version="1.1" xmlns="http://www.w3.org/2000/svg" xmlns:xlink="http://www.w3.org/1999/xlink">
    <!-- Generator: Sketch 51 (57462) - http://www.bohemiancoding.com/sketch -->
    <title>Avatars</title>
    <desc>Created with Sketch.</desc>
    <defs></defs>
    <g id="Avatars" stroke="none" stroke-width="1" fill="none" fill-rule="evenodd">
        <rect id="Frame" fill="#E6E6E6" x="0" y="0" width="480" height="300"></rect>
        <g id="Half-Orc" transform="translate(120.000000, 29.000000)">
            <g id="Female" transform="translate(12.000000, 0.000000)">
                <g id="body" transform="translate(0.000000, 10.000000)">
                    <path d="M0,261.72231 C2.44388291,232.066475 4.24885458,213.402662 5.41491501,205.730872 C6.25162886,200.225931 4.86309773,194.535422 5.43708911,188.99056 C6.59536042,177.801448 43.3960515,154.501683 48.8318011,150.700727 C53.6942124,147.300678 58.4353574,143.539886 63.7682743,141.121011 C68.8040802,138.836898 75.9490742,141.125709 79.62719,136.732727 C82.5294565,133.266386 83.5835911,127.646429 82.7895937,119.872856 C83.8547141,104.83146 83.8005795,95.3907198 82.62719,91.5506366 C81.867058,89.0629973 79.661984,89.3896979 78.3168842,88.2231871 C74.9510259,85.3042141 71.7083875,83.5585292 71.3665103,82.167306 C70.1805744,77.3413002 67.1038866,62.1636115 67.3848887,48.216261 C67.4370031,45.6295961 64.3947827,34.7268142 64.6487719,32.2678243 C65.8059112,21.0650112 72.0528578,20.0351502 75.0593255,16.9458058 C88.5099886,3.12436009 139.962102,-10.6030363 152.73963,14.4928179 C160.338871,29.418198 166.84165,63.2406074 160.177734,77.9199219 C156.143489,86.8065828 153.203255,92.0056671 151.093848,94.5506366 C149.26739,96.7542323 149.651742,107.533411 152.246901,126.888172 C160.670661,129.939781 162.982921,126.562442 171.840399,127.188142 C187.027469,128.260971 184.24937,128.043021 199.966721,136.791291 C216.439347,145.959947 235.015488,147.090181 241.533592,169.395687 C245.664325,183.531404 240.453768,203.220408 242.167771,215.407352 C243.126417,222.223534 244.070493,237.32852 245,260.72231 L200.183332,260.72231 L15.3444766,261.72231 L0,261.72231 Z" fill="#616E9D"></path>
                    <polygon id="armpit-l" fill="#000000" opacity="0.5" points="45.4830194 261.174686 53.9083904 218.642594 53.9083904 261.174686"></polygon>
                    <polygon id="armpit-r" fill="#000000" opacity="0.5" transform="translate(197.751498, 239.786371) scale(-1, 1) translate(-197.751498, -239.786371) " points="193.538813 261.052417 201.964184 218.520325 201.964184 261.052417"></polygon>
                    <path d="M127.171944,230.916962 C135.817013,252.327488 144.949433,258.382646 163.769808,258.382646 C188.071714,258.382646 200.863656,239.481827 190.496172,215.765325 C185.800978,209.494592 182.215402,203.397565 179.740614,197.473214 L180.663341,197.087762 C183.110629,202.946279 186.666157,208.988021 191.331102,215.211952 C202.091501,239.720648 188.803114,259.382646 163.769808,259.382646 C144.23618,259.382646 134.755092,252.881275 125.834447,230.262772 C124.420212,235.981162 123.319861,239.696224 122.521347,241.435577 C117.967457,251.355039 103.395709,258.981378 88.4377641,259.564381 C71.6516178,260.21864 58.5069923,252.190668 54.3562989,236.062374 C53.0093768,230.828657 52.8863432,226.754097 53.7312896,222.179964 C53.9654505,220.91233 54.2683221,219.607576 54.707513,217.918523 C54.8827389,217.244634 55.706207,214.177579 55.9335311,213.302912 C56.1588256,212.436053 56.0515696,210.674669 55.5930473,206.088445 C55.1176699,201.332994 55.0110493,199.553991 55.2740613,198.461123 L56.2463023,198.695105 C56.0240989,199.618405 56.1331547,201.438038 56.5812799,205.920877 C57.0698901,210.808049 57.1733944,212.507822 56.9013777,213.554453 C56.6727119,214.434283 55.8492237,217.501413 55.6753303,218.170177 C55.2416456,219.838054 54.943769,221.12129 54.7146529,222.361614 C53.8958539,226.794197 54.0144485,230.721749 55.3247423,235.813141 C59.3475123,251.444364 72.050076,259.20235 88.3988175,258.56514 C103.012967,257.995537 117.235885,250.551763 121.612542,241.018357 C122.335484,239.443618 123.347685,236.071309 124.638973,230.924756 L124.524663,230.911003 C125.292433,224.529431 124.373162,214.401943 122.592481,209.756187 L123.52624,209.398285 C125.049042,213.371239 125.951216,221.083656 125.775823,227.329362 L125.989037,227.887899 C125.741294,221.550211 126.651364,213.49054 128.219892,209.398285 L129.153651,209.756187 C127.37297,214.401943 126.4537,224.529431 127.22147,230.911003 L127.171944,230.916962 Z" id="breast" fill="#000000" fill-rule="nonzero" opacity="0.3"></path>
                    <g id="nipples" opacity="0.700000048" transform="translate(75.000000, 224.000000)">
                        <g id="right" transform="translate(87.000000, 0.000000)">
                            <path d="M7,14 C3.13400675,14 0,10.8659932 0,7 C0,3.13400675 3.13400675,0 7,0 C10.8659932,0 14,3.13400675 14,7 C14,10.8659932 10.8659932,14 7,14 Z" id="ra" fill="#000000" fill-rule="nonzero" opacity="0.3"></path>
                            <circle id="rn" fill="#616E9D" opacity="0.400000006" cx="7" cy="7" r="2"></circle>
                            <path d="M7,10 C5.34314575,10 4,8.65685425 4,7 C4,5.34314575 5.34314575,4 7,4 C8.65685425,4 10,5.34314575 10,7 C10,8.65685425 8.65685425,10 7,10 Z M7,8.8 C7.99411255,8.8 8.8,7.99411255 8.8,7 C8.8,6.00588745 7.99411255,5.2 7,5.2 C6.00588745,5.2 5.2,6.00588745 5.2,7 C5.2,7.99411255 6.00588745,8.8 7,8.8 Z" id="rno" fill="#000000" fill-rule="nonzero" opacity="0.3"></path>
                        </g>
                        <g id="left" transform="translate(0.000000, 1.000000)">
                            <path d="M7,14 C3.13400675,14 0,10.8659932 0,7 C0,3.13400675 3.13400675,0 7,0 C10.8659932,0 14,3.13400675 14,7 C14,10.8659932 10.8659932,14 7,14 Z" id="la" fill="#000000" fill-rule="nonzero" opacity="0.3"></path>
                            <circle id="ln" fill="#616E9D" opacity="0.400000006" cx="7" cy="7" r="2"></circle>
                            <path d="M7,10 C5.34314575,10 4,8.65685425 4,7 C4,5.34314575 5.34314575,4 7,4 C8.65685425,4 10,5.34314575 10,7 C10,8.65685425 8.65685425,10 7,10 Z M7,8.8 C7.99411255,8.8 8.8,7.99411255 8.8,7 C8.8,6.00588745 7.99411255,5.2 7,5.2 C6.00588745,5.2 5.2,6.00588745 5.2,7 C5.2,7.99411255 6.00588745,8.8 7,8.8 Z" id="lno" fill="#000000" fill-rule="nonzero" opacity="0.3"></path>
                        </g>
                    </g>
                    <path d="M66.2983644,201.654088 L62.4199179,141.456433 L66.357514,140.430365 L72.2163185,207.19986 C73.7662167,212.201915 77.1210483,218.792378 88.9834532,222.160131 C102.484474,225.993089 114.838272,227.279667 126.044846,226.019864 C125.927335,226.107053 125.820181,226.255454 125.723383,226.465066 C125.923264,226.255454 126.14453,226.107053 126.387182,226.019864 C135.550468,227.279667 146.882622,225.993089 160.383643,222.160131 C173.561843,218.418822 176.682679,210.176142 178.150709,204.958646 L177.627122,205.327715 L171.396253,126.521965 L177.220886,127.574101 L182.532468,201.760143 C191.151495,209.674927 197.742979,230.151268 194.48093,240.090268 C189.164419,256.288921 180.2998,259.601389 160.383643,259.601389 C142.207113,259.601389 127.171514,253.31418 124.683548,238.046913 C122.195582,253.31418 107.159983,259.601389 88.9834532,259.601389 C69.0672959,259.601389 60.202677,256.288921 54.8861662,240.090268 C51.6252377,230.154682 53.2224674,208.608602 66.2983644,201.654088 Z" id="bra" fill="#414141"></path>
                    <path d="M3.62869442,234.427201 L4.51790715,234.37358 C4.53483483,234.727584 4.59185437,235.928662 4.60277926,236.157489 C4.63446587,236.82118 4.65891842,237.323196 4.68261878,237.792868 C5.02785469,244.634448 5.42505753,247.02209 6.83410452,249.685157 C7.95937864,251.811899 9.48106746,253.684994 13.9165491,258.582943 L13.2921857,259.295964 C8.79634998,254.331368 7.24854573,252.426127 6.06855121,250.195964 C4.56347777,247.35141 4.14657443,244.845345 3.79355127,237.849444 C3.76979075,237.378579 3.74529336,236.875643 3.71356254,236.211026 C3.7026273,235.981982 3.64561043,234.780961 3.62869442,234.427201 Z M0.960962657,259.436791 L0.145172168,259.035865 C0.873492678,257.167014 1.37487277,255.709232 1.76682357,254.396402 C1.81981884,254.218895 2.27960766,252.580567 2.39316217,252.278859 C2.72107881,251.407601 2.24481009,251.814446 5.3459736,249.486655 L5.84082953,250.318032 C3.03380181,252.425039 3.43337624,252.083708 3.21340201,252.668169 C3.11908961,252.918752 2.67872139,254.48788 2.61112888,254.71428 C2.21072112,256.055437 1.69981419,257.540918 0.960962657,259.436791 Z M50.734302,207.413818 L51.5889779,207.133057 C51.7612597,207.794421 51.948336,208.465209 52.1702517,209.225322 C54.2650189,216.400384 54.2808418,216.465612 54.1580732,218.923936 C54.0496246,221.095515 53.32435,223.131522 51.8386855,225.254278 L51.1385508,224.636347 C52.5149293,222.669741 53.1711059,220.827708 53.2689764,218.867943 C53.3822642,216.599463 53.3638644,216.523612 51.3240742,209.536859 C51.0993837,208.767242 50.9095383,208.086525 50.734302,207.413818 Z M65.145163,154.57294 L64.7460314,153.679013 C66.0505805,152.944478 67.347961,152.530013 70.4708506,151.71886 C73.5175896,150.927487 74.7809201,150.5239 75.9972121,149.839059 C77.0601768,149.240549 77.5337497,148.63051 78.3638919,147.080828 C79.2738846,145.382084 79.8432092,144.648702 81.0945066,143.94415 L81.4936381,144.838076 C80.4306734,145.436586 79.9571006,146.046625 79.1269583,147.596307 C78.2169656,149.295051 77.6476411,150.028433 76.3963437,150.732985 C75.0917946,151.467521 73.7944141,151.881985 70.6715244,152.693138 C67.6247855,153.484511 66.361455,153.888098 65.145163,154.57294 Z" id="arm-lines-l" fill="#000000" fill-rule="nonzero" opacity="0.1"></path>
                    <path d="M156.82405,234.427201 L157.764053,234.37358 C157.781948,234.727584 157.842224,235.928662 157.853773,236.157489 C157.887269,236.82118 157.913119,237.323196 157.938173,237.792868 C158.303128,244.634448 158.723018,247.02209 160.212548,249.685157 C161.402096,251.811899 163.010701,253.684994 167.699531,258.582943 L167.039505,259.295964 C162.286874,254.331368 160.650661,252.426127 159.403268,250.195964 C157.812227,247.35141 157.37151,244.845345 156.998323,237.849444 C156.973205,237.378579 156.947309,236.875643 156.913766,236.211026 C156.902206,235.981982 156.841932,234.780961 156.82405,234.427201 Z M155.003941,260.436791 L154.141554,260.035865 C154.911475,258.167014 154.441493,255.709232 154.855832,254.396402 C154.911854,254.218895 155.397905,252.580567 155.517946,252.278859 C155.864593,251.407601 155.36112,251.814446 158.639417,249.486655 L159.162539,250.318032 C156.195178,252.425039 156.617575,252.083708 156.385037,252.668169 C156.285337,252.918752 155.819816,254.48788 155.748363,254.71428 C155.325084,256.055437 155.784995,258.540918 155.003941,260.436791 Z M198.620256,205.413818 L199.52375,205.133057 C199.705872,205.794421 199.903634,206.465209 200.138225,207.225322 C202.352642,214.400384 202.369369,214.465612 202.239588,216.923936 C202.124945,219.095515 201.358244,221.131522 199.787721,223.254278 L199.047595,222.636347 C200.50259,220.669741 201.196247,218.827708 201.299708,216.867943 C201.419466,214.599463 201.400015,214.523612 199.243716,207.536859 C199.006191,206.767242 198.805502,206.086525 198.620256,205.413818 Z M224.854243,154.57294 L224.432314,153.679013 C225.811377,152.944478 227.182862,152.530013 230.484126,151.71886 C233.70489,150.927487 235.04038,150.5239 236.326145,149.839059 C237.449824,149.240549 237.950447,148.63051 238.828006,147.080828 C239.789976,145.382084 240.391819,144.648702 241.714589,143.94415 L242.136518,144.838076 C241.012838,145.436586 240.512216,146.046625 239.634657,147.596307 C238.672687,149.295051 238.070844,150.028433 236.748074,150.732985 C235.369011,151.467521 233.997526,151.881985 230.696262,152.693138 C227.475498,153.484511 226.140008,153.888098 224.854243,154.57294 Z" id="arm-lines-r" fill="#000000" fill-rule="nonzero" opacity="0.1" transform="translate(198.139036, 202.190471) scale(-1, 1) translate(-198.139036, -202.190471) "></path>
                    <path d="M96.5863215,158.284801 L95.7046942,157.812855 C96.3498229,156.607711 97.9480407,153.43586 98.2279416,152.950099 C98.864065,151.846123 99.3913217,151.350571 100.266239,151.11167 C100.572217,151.028121 110.390204,150.790537 115.204268,149.078468 L115.348466,150.068017 C110.446227,151.11167 100.70098,152.029571 100.529651,152.076353 C99.9495244,152.23476 99.6108412,152.553078 99.094394,153.449359 C98.8312623,153.906017 97.2432472,157.05762 96.5863215,158.284801 Z" id="collarbone-l" fill="#000000" fill-rule="nonzero" opacity="0.129999995" transform="translate(105.526580, 153.681635) scale(-1, 1) translate(-105.526580, -153.681635) "></path>
                    <path d="M130.586321,158.284801 L129.704694,157.812855 C130.349823,156.607711 131.948041,153.43586 132.227942,152.950099 C132.864065,151.846123 133.391322,151.350571 134.266239,151.11167 C134.572217,151.028121 144.390204,150.790537 149.204268,149.078468 L149.348466,150.068017 C144.446227,151.11167 134.70098,152.029571 134.529651,152.076353 C133.949524,152.23476 133.610841,152.553078 133.094394,153.449359 C132.831262,153.906017 131.243247,157.05762 130.586321,158.284801 Z" id="collarbone-r" fill="#000000" fill-rule="nonzero" opacity="0.129999995"></path>
                    <path d="M130.933282,133.155999 L130.098945,132.604744 C131.93579,129.824637 132.361812,129.134893 132.780816,128.192995 C132.9996,127.701183 133.174484,127.198442 133.356283,126.54516 C133.519701,125.957931 133.645813,125.434825 134.004616,123.887083 C134.276125,122.715897 134.367176,121.730682 134.475921,119.473015 C134.587575,117.154948 134.682227,116.130772 134.971902,114.881223 L135.946067,115.107058 C135.674559,116.278243 135.583508,117.263459 135.474763,119.521126 C135.363108,121.839193 135.268457,122.863369 134.978782,124.112917 C134.616218,125.676883 134.488592,126.206266 134.319674,126.813259 C134.125488,127.511053 133.934776,128.059295 133.69449,128.599444 C133.243256,129.613791 132.807201,130.319779 130.933282,133.155999 Z" id="neck-line" fill="#000000" fill-rule="nonzero" opacity="0.100000001"></path>
                </g>
                <g id="face" transform="translate(68.000000, 41.000000)">
                    <path d="M48.5392249,71.2118823 L48.2185876,70.2646802 C49.2675137,69.9096083 50.3349349,69.8345116 52.2856448,69.8630908 C52.7138069,69.8693636 53.1470908,69.89699 53.6040536,69.945222 C54.3281133,70.0216458 54.8519513,70.1066938 56.2660307,70.3603971 L56.089438,71.3446811 C54.7002768,71.0954485 54.1903656,71.0126616 53.4990876,70.9396978 C53.070996,70.8945132 52.6676315,70.8687944 52.2709958,70.8629835 C50.4339656,70.8360698 49.4435886,70.9057461 48.5392249,71.2118823 Z" id="jaw-line" fill="#000000" fill-rule="nonzero" opacity="0.3" transform="translate(52.242309, 70.601129) rotate(3.000000) translate(-52.242309, -70.601129) "></path>
                    <path d="M13.2417227,57.0793439 L14.0916106,56.5523803 C14.6712001,57.4871434 15.1984233,58.5255308 15.9548897,60.1594887 C16.0830244,60.4362581 16.5893898,61.5397762 16.7154222,61.8121086 C18.4366292,65.5313138 19.6216934,67.4483075 21.2677421,68.7126406 C23.7042468,70.5841245 26.0633779,72.5092389 28.8641817,74.8816636 C29.5019262,75.4218659 34.0227272,79.2913189 35.2055949,80.2796376 C39.6491253,83.9923302 42.2309841,85.7055554 44.2386554,86.0832052 C56.5375742,88.3966738 62.2970698,88.0454395 66.4927919,84.4758313 C71.8572775,79.9118703 85.9893172,57.739362 88.1557946,52.2393321 L89.0862146,52.6058272 C86.8643871,58.2463741 72.6467934,80.5531127 67.1407822,85.2374799 C62.6421918,89.0647604 56.6292288,89.431452 44.053794,87.0659698 C41.8112006,86.6441304 39.1491018,84.8776608 34.5644173,81.0470301 C33.3760847,80.0541453 28.8515478,76.1814948 28.2178404,75.644712 C25.4282082,73.2817502 23.0807179,71.3661351 20.6585939,69.5056971 C18.8404716,68.1091939 17.5964416,66.0968154 15.8078951,62.2321021 C15.6809459,61.9577887 15.1746211,60.8543589 15.0474237,60.5796143 C14.3068509,58.9799863 13.7944262,57.9707451 13.2417227,57.0793439 Z" id="jaw" fill="#000000" fill-rule="nonzero" opacity="0.3"></path>
                    <path d="M51.9349142,60.6020508 C60.1720904,60.6020508 69.5984342,56.028035 69.5984342,55.1907959 C69.5984342,54.0862264 62.2720185,53.3815918 51.9349142,53.3815918 C41.5978099,53.3815918 32.7110597,54.5819539 32.7110597,55.6865234 C32.7110597,56.6424081 44.6615149,60.6020508 51.9349142,60.6020508 Z" id="lips" fill="#990000" opacity="0.100000001"></path>
                    <path d="M35.3285518,55.0774979 C42.8243935,55.5154714 48.4960297,55.734375 52.3392966,55.734375 C56.1962718,55.734375 61.5154735,55.5138674 68.2936017,55.0726367 C68.0418175,55.0274682 67.7755506,54.9793836 67.4886521,54.92732 C60.7925037,53.7121663 58.9891993,53.4374744 55.9648295,53.3237765 C55.4279929,53.3035947 55.112128,53.3971668 54.4707988,53.7086595 C54.4403891,53.7234379 54.4403891,53.7234379 54.4095802,53.7384179 C53.6291627,54.117754 53.1703996,54.2657587 52.4291235,54.2800747 C51.8493272,54.2912721 51.3212988,54.1855219 49.9189787,53.8365371 C49.8755249,53.8257243 49.8755249,53.8257243 49.8321412,53.8149395 C48.6233364,53.5145589 48.0411758,53.406641 47.6169737,53.4339779 C43.7028436,53.6862168 39.6822812,54.2245443 35.3285518,55.0774979 Z M68.0151474,56.0934038 C61.3837914,56.5206499 56.1595502,56.734375 52.3392966,56.734375 C48.4210624,56.734375 42.6396562,56.5095065 34.9907667,56.0599416 C37.7052225,57.7772181 41.7841429,59.7797605 47.6169737,60.1556466 C48.0411758,60.1829835 55.4279929,60.2860297 55.9648295,60.265848 C59.6565652,60.1270611 64.7588979,57.7902005 68.0151474,56.0934038 Z M34.5990733,54.196668 C39.1903056,53.278242 43.4173113,52.7019113 47.5331034,52.4366767 C48.1476529,52.3970732 48.7850044,52.5152221 50.1440962,52.8529481 C50.1877736,52.8638059 50.1877736,52.8638059 50.2313618,52.8746522 C51.4935292,53.1887582 51.9905635,53.2883011 52.403927,53.280318 C52.9157123,53.2704341 53.2233761,53.1711766 53.8550242,52.8641525 C53.8856147,52.8492787 53.8856147,52.8492787 53.9165651,52.8342375 C54.7257945,52.4411959 55.2198154,52.2948468 56.0138437,52.3246974 C59.1252226,52.4416663 60.9549216,52.7203788 67.7205379,53.9481389 C68.0202096,54.0025205 68.2971971,54.0525285 68.5585547,54.0993827 L68.3587928,53.8965672 L69.2239695,53.2435696 L71.2744141,55.3253567 L70.5516174,55.870892 L70.5653588,55.8896698 C70.5168013,55.9168991 70.4671542,55.9446553 70.4164453,55.972914 L70.4092373,55.9783543 C67.3982149,57.6543305 60.6685162,61.0899397 56.0138437,61.2649271 C55.2198154,61.2947777 48.1476529,61.1925513 47.5331034,61.1529478 C40.504512,60.7000031 35.9673259,58.039275 33.0772734,56.0462067 L32.7206455,56.4082859 L31.8554687,55.7552883 L33.9059133,53.6735012 L34.5990733,54.196668 Z" id="mouth-outline" fill="#000000" fill-rule="nonzero" opacity="0.3"></path>
                    <path d="M56.3857099,45.7956745 C56.004864,46.9180876 54.9423412,47.4476213 52.9956929,47.7589662 C49.1301937,48.3772102 47.331728,47.8274715 46.3478497,45.8622298 C46.2063013,45.8751316 45.9991966,45.900394 45.5705154,45.9540484 C45.126231,46.0073744 44.7794905,46.0399913 44.4344568,46.0555566 C43.7646909,46.0857712 43.2109125,46.0431381 42.7551503,45.8964961 C41.4029633,45.4614288 40.7890867,43.7354326 41.0645728,42.7837011 C41.2853586,42.0209451 41.4154702,41.6260743 41.5619776,41.3111606 C41.9938099,40.3829492 42.3182432,40.2996741 43.6435529,40.4003122 C44.4373018,40.4605859 45.0840615,40.4580443 45.9874973,40.3484809 L46.09717,41.5894698 L46.4285712,41.4449854 C46.5478251,41.8203418 46.6407184,42.2020455 46.748397,42.7245169 C46.7709882,42.8341325 46.7899761,42.9284464 46.8298746,43.12796 C46.9564442,43.7600546 47.0934977,44.2948603 47.2681686,44.7401034 C47.295086,44.7871629 47.3167923,44.8388343 47.3321311,44.8951737 C48.0407204,46.528178 49.3550341,46.8465909 52.8246767,46.2916598 C55.1524291,45.9193614 55.4754589,45.577226 55.2125708,43.7834412 C55.0039127,42.3596885 51.8912328,31.627887 51.3186623,29.4832555 C50.6499388,26.9784715 50.3006098,24.4476991 49.8723684,19.7130749 C49.9103617,20.1331281 49.5458147,16.0261015 49.431921,14.8246559 C49.2418575,12.8197077 49.0504434,11.030573 48.8251243,9.2128035 L50.0761946,9 C50.3037359,10.8356968 50.4968636,12.6408486 50.6883878,14.661206 C50.8028568,15.8687197 51.1679444,19.9818366 51.1295218,19.5570373 C51.5493785,24.1989609 51.8886472,26.6568496 52.5252213,29.0412143 C52.9020805,30.4527855 54.5845348,36.2867245 55.6272218,40.1605378 C56.2365587,40.2064403 56.7541922,40.1968704 57.3564471,40.1511379 C58.6817568,40.0504998 59.0061901,40.1337749 59.4380224,41.0619863 C59.5845298,41.3769 59.7146414,41.7717708 59.9354272,42.5345268 C60.2109133,43.4862583 59.5970367,45.2122544 58.2448497,45.6473218 C57.7890875,45.7939637 57.2353091,45.8365969 56.5655432,45.8063822 C56.5132749,45.8040243 56.4533304,45.800455 56.3857099,45.7956745 Z M56.5416339,44.3393331 C56.567906,44.3298206 56.5920919,44.3255628 56.6141914,44.3265598 C57.1657997,44.3514441 57.6041753,44.3176953 57.9100229,44.2192886 C58.5039337,44.0281973 58.7955558,43.2082626 58.7381915,43.0100841 C58.54113,42.329289 58.4276616,41.984928 58.3279777,41.7706603 C58.223387,41.5458455 58.2940043,41.5639714 57.4382236,41.6289556 C56.9454937,41.6663713 56.5001756,41.6814073 56.024827,41.6649799 C56.2548953,42.5572817 56.4136053,43.2263055 56.4585328,43.532863 C56.5006945,43.8205481 56.5286553,44.0888895 56.5416339,44.3393331 Z M46.2849064,45.7322246 C46.2051193,45.5618375 46.1308969,45.3814088 46.0614951,45.1907916 C46.0467413,45.4445401 46.1484055,45.6238602 46.2849064,45.7322246 Z M45.8238393,44.4333169 C45.7419925,44.1313105 45.6677528,43.8090569 45.5990907,43.466155 C45.5593416,43.2674038 45.5411832,43.1772102 45.5195135,43.0720657 C45.4226392,42.6020187 45.342029,42.2707867 45.2437763,41.9615327 L45.4050682,41.8912126 C44.7580812,41.9374983 44.199659,41.9265679 43.5617764,41.8781299 C42.7059957,41.8131457 42.776613,41.7950198 42.6720223,42.0198346 C42.5723384,42.2341023 42.45887,42.5784634 42.2618085,43.2592584 C42.2044442,43.457437 42.4960663,44.2773716 43.0899771,44.4684629 C43.3958247,44.5668696 43.8342003,44.6006184 44.3858086,44.5757341 C44.6989338,44.5616083 45.0217648,44.5312405 45.4416596,44.4808419 C45.5916305,44.4619911 45.7170198,44.4463377 45.8238393,44.4333169 Z" id="nose" fill="#000000" fill-rule="nonzero" opacity="0.3"></path>
                    <path d="M80.6909609,38.8654702 L80,38.1425781 C80.6232735,37.5468355 81.3009015,37.0466153 82.6183283,36.1581091 C82.9217882,35.953728 83.0784544,35.8481487 83.2212204,35.751358 C83.4453658,35.5993947 83.6311413,35.4718077 83.804996,35.349984 C84.2318424,35.0508837 84.5764245,34.7932753 84.8733885,34.5475279 C85.1562536,34.3134477 85.3899021,34.0691652 85.5956725,33.8004014 C85.8273419,33.4978101 85.9597348,33.2744808 86.2862999,32.6703431 C86.7246616,31.8593843 86.9907869,31.4605845 87.4726562,31 L88.1636172,31.7228921 C87.7770786,32.0923567 87.5580744,32.4205437 87.1660038,33.1458649 C86.8144576,33.796217 86.6640224,34.0499814 86.3896808,34.4083084 C86.1387056,34.7361157 85.8527927,35.0350412 85.5109318,35.3179424 C85.1905569,35.5830632 84.8257962,35.8557569 84.3788547,36.1689384 C84.2002417,36.2940962 84.0104442,36.4244455 83.7823795,36.5790659 C83.6382667,36.6767698 83.4802085,36.7832872 83.1774739,36.9871786 C81.9067558,37.8441833 81.2597823,38.3217746 80.6909609,38.8654702 Z" id="cheekbone-r" fill="#000000" fill-rule="nonzero" opacity="0.100000001"></path>
                    <path d="M10.6909609,45.8654702 L10,45.1425781 C10.6232735,44.5468355 11.3009015,44.0466153 12.6183283,43.1581091 C12.9217882,42.953728 13.0784544,42.8481487 13.2212204,42.751358 C13.4453658,42.5993947 13.6311413,42.4718077 13.804996,42.349984 C14.2318424,42.0508837 14.5764245,41.7932753 14.8733885,41.5475279 C15.1562536,41.3134477 15.3899021,41.0691652 15.5956725,40.8004014 C15.8273419,40.4978101 15.9597348,40.2744808 16.2862999,39.6703431 C16.7246616,38.8593843 16.9907869,38.4605845 17.4726562,38 L18.1636172,38.7228921 C17.7770786,39.0923567 17.5580744,39.4205437 17.1660038,40.1458649 C16.8144576,40.796217 16.6640224,41.0499814 16.3896808,41.4083084 C16.1387056,41.7361157 15.8527927,42.0350412 15.5109318,42.3179424 C15.1905569,42.5830632 14.8257962,42.8557569 14.3788547,43.1689384 C14.2002417,43.2940962 14.0104442,43.4244455 13.7823795,43.5790659 C13.6382667,43.6767698 13.4802085,43.7832872 13.1774739,43.9871786 C11.9067558,44.8441833 11.2597823,45.3217746 10.6909609,45.8654702 Z" id="cheekbone-l" fill="#000000" fill-rule="nonzero" opacity="0.100000001" transform="translate(14.081809, 41.932735) scale(-1, 1) translate(-14.081809, -41.932735) "></path>
                    <g id="eye-l" transform="translate(29.536323, 10.948289) rotate(-5.000000) translate(-29.536323, -10.948289) translate(15.536323, 1.448289)">
                        <path d="M15.5578415,17.6728248 C18.9178591,17.6728248 22.017281,17.2744055 24.8561074,16.477567 C20.7484531,12.6946511 17.0146171,10.8031932 13.6545996,10.8031932 C10.294582,10.8031932 7.36452221,11.5597124 4.86442013,13.0727509 C8.63335016,16.1394668 12.1978239,17.6728248 15.5578415,17.6728248 Z" id="eye-white" fill="#FFFFFF" opacity="0.800000012"></path>
                        <path d="M15.2648291,17.0662686 C17.6735526,17.0662686 19.6262089,15.0207293 19.6262089,12.4974287 C19.6262089,12.1532095 17.8365458,11.5994135 14.2572196,10.8360407 C12.0213728,10.2614323 10.9034494,10.8152283 10.9034494,12.4974287 C10.9034494,15.0207293 12.8561056,17.0662686 15.2648291,17.0662686 Z" id="iris" fill="#AE5910" opacity="0.700000048"></path>
                        <path d="M10.6601812,11.2366339 C8.93938564,11.5614693 7.13546305,12.155982 5.05343714,13.0181931 C9.78931248,17.4743156 16.4350101,18.7671017 24.542114,16.1825413 C23.2293614,14.9036007 22.1287463,14.0235632 21.2465338,13.5441655 C20.8392311,13.3228356 20.2707675,13.0736009 19.5420583,12.7969763 C19.6677769,13.4614264 19.5977498,14.1499302 19.3281499,14.6926844 C18.5305656,16.2983682 17.0976952,17.3595872 15.543039,17.402699 C12.1727657,17.4961592 9.38894895,14.4560139 10.6601812,11.2366339 Z M11.0945208,11.1601018 L11.3888932,11.297706 C10.1264277,14.0706524 12.5377039,16.7832076 15.5240705,16.7003934 C16.8045319,16.6648853 18.0190932,15.7653513 18.7088123,14.3768202 C18.9617255,13.8676594 18.9765345,13.1429096 18.7453667,12.5060912 C18.2675969,12.3376796 17.7377532,12.160407 17.1560055,11.9743689 C17.0236195,12.0527423 16.9341949,12.0914388 16.788841,12.1266601 L16.7010241,11.8612589 L16.7418123,11.8431842 C16.0061805,11.6123605 15.1940903,11.3686476 14.3058461,11.1122168 C14.3233902,11.1903673 14.3454842,11.2878523 14.3572563,11.3359209 L14.0880754,11.4036058 C14.0659638,11.3133179 14.0107685,11.0641385 14.0101615,11.0615332 C14.0000568,11.018162 13.9903379,10.980029 13.9804239,10.9458316 C13.016103,10.9297119 12.0660948,11.0012567 11.0945208,11.1601018 Z M4.77298688,13.1352376 C4.72508375,13.1553811 4.67703241,13.1756628 4.62883057,13.1960829 L4.36137974,12.5478849 C12.3516034,9.16293974 16.3944286,9.49316824 26.1682785,13.5909495 L25.9031848,14.2401408 C22.6197799,12.8635415 20.007546,11.9201694 17.6806231,11.4061083 C19.5015034,11.9976873 20.7975511,12.5029647 21.5742248,12.9250122 C22.772045,13.5759123 24.2941974,14.8733371 26.1535401,16.8208504 L25.6552037,17.3093431 C25.466966,17.1121791 25.2823891,16.9219463 25.1014875,16.7386485 C16.5525312,19.5652358 9.48642794,18.2152289 4.48676629,13.443122 L4.77298694,13.1352375 Z M17.4635159,13.4522221 L18.0199085,13.5810507 L17.9799932,13.8582494 C17.7877655,13.8455478 17.6567907,13.8123453 17.3891577,13.7232762 L16.8327651,13.5944477 L16.8726804,13.3172489 C17.0649081,13.3299506 17.1958829,13.3631531 17.4635159,13.4522221 Z M16.3456243,15.6008506 L16.0885744,15.7063758 L15.6113797,14.5129013 L15.8684296,14.4073761 L16.3456243,15.6008506 Z M16.9399491,12.7838136 L16.9579965,12.5033818 L18.2442555,12.5883727 L18.226208,12.8688045 L16.9399491,12.7838136 Z M11.690892,12.7604003 L11.7089394,12.4799685 C11.8815623,12.4913748 12.0193854,12.4902203 12.330442,12.4797482 C12.6505173,12.4689725 12.7945303,12.4677662 12.9792016,12.4799685 L12.9611542,12.7604003 C12.7885313,12.7489941 12.6507082,12.7501486 12.3396516,12.7606206 C12.0195763,12.7713963 11.8755633,12.7726027 11.690892,12.7604003 Z M12.2372466,14.1955134 L12.1471057,13.9297431 C12.1751331,13.9199232 12.1751331,13.9199232 12.2024047,13.9101296 C12.3493866,13.8570187 12.477989,13.8025755 12.6135758,13.7368672 C12.753668,13.6689755 12.7486208,13.6716885 13.2022413,13.4240104 L13.3338038,13.6714069 C12.8738381,13.9225496 12.8794292,13.9195441 12.7332401,13.9903906 C12.5891295,14.0602297 12.4516915,14.1184134 12.2955622,14.1748297 C12.2667598,14.1851729 12.2667598,14.1851729 12.2372466,14.1955134 Z M14.9370584,15.8154389 L14.6712132,15.7353538 C14.7401851,15.5002795 14.7730274,15.3536806 14.7892301,15.209557 C14.8032694,15.0846776 14.8055931,14.9893797 14.8054801,14.680104 C14.8054709,14.6547439 14.8054709,14.6547439 14.8054678,14.628491 L15.0828129,14.628491 C15.082816,14.6546597 15.082816,14.6546597 15.0828252,14.6799999 C15.0829424,15.0007349 15.0804766,15.1018594 15.064793,15.2413647 C15.0464746,15.4043072 15.0102701,15.5659141 14.9370584,15.8154389 Z M17.4764055,14.6707258 L17.2948454,14.8831668 L16.3923397,14.0912335 L16.5738998,13.8787925 L17.4764055,14.6707258 Z M13.3323282,15.2181326 L13.1158616,15.0424451 L13.7521776,14.2374759 L13.9686442,14.4131634 L13.3323282,15.2181326 Z M12.3974914,11.3151533 L12.5327825,11.0698302 L13.5316921,11.6354356 L13.3964009,11.8807587 L12.3974914,11.3151533 Z M14.8985083,13.9973628 C13.9411742,13.9973628 13.3566396,13.5758932 13.3566396,12.7998574 C13.3566396,12.0238216 14.22937,11.5743933 15.1867041,11.5743933 C16.1440383,11.5743933 16.440377,12.0238216 16.440377,12.7998574 C16.440377,13.5758932 15.8558424,13.9973628 14.8985083,13.9973628 Z" id="eye" fill="#000000" fill-rule="nonzero" opacity="0.5"></path>
                        <path d="M0.267274501,1.9290614 L0,0.577795239 C6.29600292,-0.5864072 10.2575684,0.0160106453 15.0083149,2.31890612 C15.8758272,2.73942743 19.398688,4.59850226 20.3585992,5.07014944 C22.6592459,6.20055967 24.8014883,7.06319766 27.2586234,7.78578883 L26.8445804,9.1020099 C24.3019531,8.35427731 22.0843742,7.46130281 19.7139871,6.29662603 C18.7279199,5.81212725 15.2096067,3.95545222 14.3706136,3.54875544 C9.89187858,1.37771587 6.24666476,0.823404237 0.267274501,1.9290614 Z" id="eye-brow" fill="#000000" fill-rule="nonzero" opacity="0.5"></path>
                        <path d="M7.68611398,11.3708941 L7.65389291,11.4182838 C6.94027741,11.1955763 6.45283413,10.980621 6.19156306,10.7734179 C5.93029199,10.5662148 5.74243772,10.3879674 5.62800026,10.2386757 L5.45073903,9.26613924 C5.81185349,9.84617935 6.12943869,10.2448705 6.40349463,10.4622128 C6.60309624,10.6205085 6.91004346,10.7860498 7.32433631,10.9588367 L6.58954332,10.1219224 L6.25290912,9.02814447 C6.61754225,9.63967673 6.90486839,10.0793518 7.11488755,10.3471696 C7.32490671,10.6149874 7.61693969,10.914115 7.99098649,11.2445523 L7.76038063,11.4554823 L7.68611398,11.3708941 Z M6.23089477,11.9581933 L6.09271641,12.2484505 C5.37168981,12.0234915 4.84949527,11.821235 4.52613279,11.6416809 C4.20277031,11.4621269 3.9650889,11.3040532 3.81308854,11.1674598 L3.45504696,10.4168432 C4.0194572,10.8525722 4.45906877,11.1578401 4.77388168,11.3326469 C5.08869459,11.5074536 5.57436562,11.7159691 6.23089477,11.9581933 Z M8.61043576,11.0572597 L8.37244454,11.2583936 L7.25807111,9.96810622 L6.92783993,8.73503545 C7.27321701,9.44920931 7.54232517,9.93936919 7.73516441,10.2055151 C7.92800366,10.471661 8.21976077,10.7555759 8.61043576,11.0572597 Z M10.1986207,10.5143243 L9.96559483,10.722129 C9.52193878,10.3499 9.20816729,10.0435263 9.02428035,9.80300779 C8.84039341,9.56248931 8.66925324,9.35912025 8.51085982,9.1929006 L8.3370379,8.07943106 C8.58184062,8.66467291 8.7596079,9.04457283 8.87033974,9.21913081 C9.01346627,9.44475589 9.17550712,9.44512481 9.28316101,9.58593281 C9.51574682,9.89014792 9.82090006,10.1996118 10.1986207,10.5143243 Z M11.8032263,10.6200513 L11.5733115,10.8318595 C11.1130844,10.5503778 10.7850442,10.2856507 10.5891908,10.037678 C10.3933375,9.78970534 10.2831924,9.6494681 10.2587555,9.6169663 L10.1172367,8.48539623 C10.3850224,9.19162097 10.6215385,9.67466601 10.8267849,9.93453134 C11.0320313,10.1943967 11.3575118,10.4229033 11.8032263,10.6200513 Z M13.1526272,10.6008117 L12.9283407,10.8195455 C12.4698538,10.4973818 12.1519806,10.2302977 11.974721,10.0182929 C11.7974614,9.80628817 11.6489193,9.63284617 11.5290948,9.4979669 L11.581142,8.72129527 C11.6964139,9.16075486 11.7934328,9.45059421 11.8721988,9.59081333 C11.9733708,9.77091943 12.1517996,9.82043084 12.2440003,9.93070396 C12.4438731,10.1697545 12.7467488,10.3931237 13.1526272,10.6008117 Z M14.3483173,10.7522517 L14.0994696,10.9374273 C13.5202692,10.5597552 13.148541,10.2421862 12.984285,9.9847204 C12.820029,9.72725459 12.7098085,9.52840804 12.6536235,9.38818073 L12.8467743,8.39863311 C12.9104319,8.91294138 12.968993,9.25176151 13.0224575,9.41509349 C13.0987347,9.64811702 13.2263592,9.70982227 13.3143447,9.84773655 C13.4948369,10.1306521 13.8394945,10.4321572 14.3483173,10.7522517 Z M15.007731,10.9230876 L14.71259,10.9932044 C14.4522313,10.5255955 14.2987453,10.1773621 14.2521321,9.94850426 C14.2055188,9.71964644 14.1890917,9.53505499 14.2028507,9.39472993 L14.6085886,8.96341204 C14.4997087,9.21305911 14.4405248,9.39787958 14.4310369,9.51787345 C14.4145256,9.72669243 14.5070263,9.97224968 14.5325767,10.0976948 C14.5801501,10.3312668 14.7385349,10.6063977 15.007731,10.9230876 Z M15.6044393,11.0882574 L15.3022423,11.0887509 C15.1311671,10.7730915 15.0455116,10.5311164 15.045276,10.3628256 C15.0450404,10.1945349 15.1111229,10.0639821 15.2435236,9.9711673 L15.6025211,9.71822156 C15.4335823,10.0252054 15.3492092,10.2474705 15.3494018,10.3850168 C15.3495944,10.5225631 15.4346069,10.7569767 15.6044393,11.0882574 Z M16.3308641,11.0825867 L16.0286667,11.0826288 C15.8769332,10.7845909 15.8010578,10.5630385 15.8010405,10.4179716 C15.8010231,10.2729047 15.8977834,10.1625512 16.0913212,10.0869111 L16.3307165,9.84832735 C16.2354805,10.1120938 16.1878706,10.3113843 16.1878867,10.4461987 C16.1879029,10.581013 16.235562,10.7931424 16.3308641,11.0825867 Z M5.12040105,14.4385273 L5.32404326,14.7744541 C5.13234998,14.8095964 5.01762044,14.8366954 4.97985462,14.8557513 C4.70769286,14.9930786 4.49959026,15.0715291 4.35554684,15.0911028 C4.18152171,15.1147507 4.03357549,15.0652928 3.91170819,14.9427293 L3.41859248,14.7170211 C3.865547,14.7757082 4.18513002,14.7919922 4.37734153,14.765873 C4.56955304,14.7397538 4.81723955,14.6306385 5.12040105,14.4385273 Z M5.46733825,14.7849099 L5.61885746,15.067295 C5.42065654,15.2831778 5.25003461,15.4358813 5.10699167,15.5254057 C4.96394874,15.61493 4.82560521,15.6800596 4.69196109,15.7207944 L4.1503894,15.6091306 C4.56112205,15.5314729 4.84426251,15.4439686 4.99981077,15.3466177 C5.15535903,15.2492668 5.31120152,15.0620309 5.46733825,14.7849099 Z M6.07012129,14.9647392 L6.24729249,15.229138 C6.06065182,15.5021121 5.89897086,15.6920295 5.7622496,15.7988903 C5.62552834,15.9057511 5.50174427,15.9479855 5.3908974,15.9255935 L4.88774469,15.8888799 C5.24180393,15.7780452 5.48688706,15.6694376 5.62299408,15.5630569 C5.7591011,15.4566762 5.9081435,15.257237 6.07012129,14.9647392 Z M6.38436222,15.6077788 L6.63481556,15.790412 C6.48387386,16.1979495 6.36609614,16.4693899 6.28148239,16.6047332 C6.19686863,16.7400765 6.02648089,16.8916328 5.77031916,17.0594023 L5.38968775,17.2521493 C5.76538105,16.9008403 6.01719983,16.6228597 6.14514407,16.4182075 C6.27308831,16.2135552 6.3528277,15.9434123 6.38436222,15.6077788 Z M6.90635986,15.7547577 L7.16372097,15.9258228 C7.01229652,16.4371304 6.88779513,16.7784 6.79021681,16.9496313 C6.69263849,17.1208627 6.4509036,17.3423093 6.06501213,17.613971 L5.7307129,17.6504241 C6.17774134,17.2388323 6.45802761,16.9334122 6.57157173,16.7341639 C6.68511585,16.5349156 6.79671189,16.2084468 6.90635986,15.7547577 Z M8.04366792,16.164541 L8.25992616,16.2877162 C8.15682592,16.6934849 8.06357161,16.9683081 7.98016322,17.1121859 C7.89675482,17.2560636 7.82761623,17.3464174 7.77274745,17.3832473 L7.34143921,17.7071082 C7.51664599,17.4020194 7.64882729,17.172579 7.73798309,17.0187871 C7.82713889,16.8649952 7.92903384,16.5802465 8.04366792,16.164541 Z M8.3856824,16.4513982 L8.67740546,16.4726844 C8.68549665,16.8806531 8.66754234,17.1456229 8.62354252,17.2675938 C8.5795427,17.3895647 8.54259058,17.4461129 8.51268616,17.4372385 L8.02071122,17.5772924 C8.19995854,17.3879332 8.30815137,17.2417785 8.34528971,17.1388281 C8.38242805,17.0358777 8.39589228,16.8067344 8.3856824,16.4513982 Z M9.34769023,16.7498225 L9.55962933,16.7801226 C9.54101567,17.1978258 9.52296361,17.4759173 9.50547315,17.6143971 C9.48798269,17.7528769 9.48047833,17.8561494 9.48296006,17.9242147 L9.06800491,18.2415669 C9.19755538,17.9632917 9.27182108,17.7490138 9.29080202,17.5987332 C9.30978296,17.4484526 9.3287457,17.1654823 9.34769023,16.7498225 Z M10.5928851,17.0598625 L10.8586203,17.2152777 C10.852687,17.476961 10.8213562,17.6643712 10.7646278,17.7775081 C10.7078995,17.890645 10.5567512,18.0671648 10.3111828,18.3070673 L10.2659358,18.3037658 C10.3907748,18.0245534 10.4856673,17.8201841 10.5506134,17.690658 C10.6155596,17.5611318 10.6296501,17.3508666 10.5928851,17.0598625 Z M11.660364,17.4891819 L11.9622994,17.502769 C11.9657767,17.7767365 11.9651706,17.9744956 11.9604812,18.0960462 C11.9557918,18.2175968 11.9425766,18.3780837 11.9208358,18.5775069 L11.7560501,18.5654829 C11.7132669,18.3760477 11.6952571,18.1936721 11.7020209,18.0183559 C11.7087846,17.8430397 11.694899,17.6666484 11.660364,17.4891819 Z M7.11875246,11.7253446 L6.96816839,12.0083125 C6.30303201,11.7692891 5.830606,11.5629659 5.55089038,11.3893429 C5.27117476,11.21572 5.14156465,11.1235464 5.16206008,11.1128221 L4.86688059,10.3275798 C5.2303231,10.8077377 5.53794588,11.1259653 5.78974893,11.2822626 C6.04155197,11.4385599 6.48455315,11.5862539 7.11875246,11.7253446 Z M5.98509394,12.4735103 L5.89850139,12.7861981 C5.10396708,12.8072302 4.54871425,12.766715 4.23274288,12.6646526 C3.91677151,12.5625901 3.62038218,12.3677986 3.34357488,12.080278 L3.08411754,11.5364612 C3.64354628,11.9866564 4.07164793,12.2596848 4.36842247,12.3555465 C4.66519701,12.4514081 5.2040875,12.4907294 5.98509394,12.4735103 Z M9.42090376,11.0090535 L9.17507287,11.198871 C8.67855082,10.7985166 8.3509688,10.4785172 8.1923268,10.2388729 C8.03368481,9.99922859 7.93086948,9.79045717 7.88388083,9.61255865 L7.85428797,8.64252662 C8.10873904,9.29733982 8.33212135,9.77000065 8.52443488,10.0605091 C8.71674842,10.3510176 9.01557138,10.6671991 9.42090376,11.0090535 Z" id="eye-lashes" fill="#000000" fill-rule="nonzero" opacity="0.400000006" transform="translate(9.707491, 13.328469) rotate(1.000000) translate(-9.707491, -13.328469) "></path>
                    </g>
                    <g id="eye-r" transform="translate(69.679344, 10.993476) scale(-1, 1) rotate(-1.000000) translate(-69.679344, -10.993476) translate(56.179344, 1.993476)">
                        <path d="M15.2962663,16.6517031 C18.5997916,16.6517031 21.6471028,16.2763042 24.4381997,15.5255064 C20.3996077,11.9611644 16.7285491,10.1789934 13.4250238,10.1789934 C10.1214984,10.1789934 7.24070194,10.8918015 4.78263427,12.3174178 C8.48819698,15.2069414 11.992741,16.6517031 15.2962663,16.6517031 Z" id="eye-white" fill="#FFFFFF" opacity="0.800000012"></path>
                        <path d="M15.0081804,16.0801933 C17.3764058,16.0801933 19.2962319,14.1528436 19.2962319,11.7753373 C19.2962319,11.4510068 17.5366586,10.9292087 14.0175119,10.209943 C11.8192565,9.668535 10.7201288,10.1903331 10.7201288,11.7753373 C10.7201288,14.1528436 12.6399549,16.0801933 15.0081804,16.0801933 Z" id="iris" fill="#AE5910" opacity="0.700000048"></path>
                        <path d="M10.4809508,10.5873902 C8.78908707,10.8934569 7.01549397,11.4536191 4.96847332,12.2660123 C9.62472402,16.4646636 16.158687,17.6827536 24.1294856,15.2475271 C22.8388044,14.0424826 21.756694,13.213293 20.8893142,12.7615945 C20.4888595,12.5530528 19.9299536,12.3182187 19.2134962,12.0575773 C19.3371011,12.6836359 19.2682514,13.3323586 19.0031843,13.8437529 C18.2190098,15.3566616 16.8102304,16.3565642 15.2817127,16.397185 C11.9681041,16.4852452 9.23109184,13.620757 10.4809508,10.5873902 Z M10.9079878,10.5152801 L11.1974108,10.6449336 C9.95617135,13.2576614 12.3269066,15.8134873 15.2630632,15.7354581 C16.5219961,15.7020016 17.7161369,14.854442 18.3942596,13.546139 C18.6429205,13.0663972 18.6574806,12.3835228 18.4301994,11.7834992 C17.9604624,11.6248184 17.439527,11.4577884 16.8675603,11.2824995 C16.7374001,11.3563445 16.649479,11.3928051 16.5065689,11.4259914 L16.4202285,11.1759249 L16.4603309,11.1588945 C15.7370674,10.9414076 14.9386309,10.7117763 14.0653208,10.4701618 C14.08257,10.5437969 14.1042925,10.6356492 14.1158666,10.6809405 L13.8512116,10.7447146 C13.8294717,10.6596434 13.7752044,10.4248614 13.7746076,10.4224067 C13.7646728,10.3815414 13.7551173,10.3456117 13.7453699,10.3133902 C12.7972622,10.2982019 11.8632266,10.365613 10.9079878,10.5152801 Z M4.69273828,12.3762941 C4.64564056,12.3952737 4.59839711,12.4143836 4.55100569,12.4336238 L4.28805154,11.8228782 C12.143935,8.63351243 16.1187878,8.9446606 25.7283092,12.8056753 L25.4676725,13.4173569 C22.2394718,12.1202964 19.6711576,11.2314316 17.3833574,10.7470725 C19.1736231,11.3044705 20.4478803,11.7805534 21.2114958,12.1782154 C22.3891768,12.791507 23.8857372,14.0139676 25.7138187,15.8489551 L25.2238608,16.3092231 C25.038788,16.1234511 24.8573144,15.9442098 24.6794543,15.7715028 C16.2742323,18.4347722 9.3269319,17.1627676 4.41132994,12.6663892 L4.69273828,12.3762941 Z M17.1699004,12.6749635 L17.7169384,12.7963484 L17.6776942,13.0575309 C17.4886984,13.0455631 17.3599257,13.014279 17.0967925,12.9303563 L16.5497545,12.8089714 L16.5889987,12.547789 C16.7779945,12.5597567 16.9067672,12.5910408 17.1699004,12.6749635 Z M16.0708041,14.699446 L15.818076,14.798874 L15.3489044,13.6743575 L15.6016325,13.5749294 L16.0708041,14.699446 Z M16.6551365,12.0451751 L16.6728804,11.7809464 L17.9375134,11.8610266 L17.9197694,12.1252553 L16.6551365,12.0451751 Z M11.4943322,12.0231146 L11.5120761,11.758886 C11.6817967,11.7696332 11.8173026,11.7685454 12.1231293,11.7586784 C12.4378232,11.7485253 12.5794149,11.7473887 12.7609813,11.758886 L12.7432373,12.0231146 C12.5735168,12.0123674 12.4380109,12.0134552 12.1321841,12.0233222 C11.8174902,12.0334753 11.6758986,12.0346119 11.4943322,12.0231146 Z M12.0315008,13.375308 L11.9428755,13.1248938 C11.9704317,13.1156412 11.9704317,13.1156412 11.9972448,13.1064135 C12.1417555,13.0563713 12.2681956,13.0050738 12.4015028,12.9431621 C12.5392396,12.8791931 12.5342773,12.8817493 12.980271,12.6483819 L13.1096215,12.881484 C12.6573892,13.1181158 12.6628864,13.115284 12.5191551,13.1820371 C12.3774675,13.247841 12.2423403,13.3026628 12.0888359,13.3558194 C12.0605178,13.365565 12.0605178,13.365565 12.0315008,13.375308 Z M14.6859205,14.9016356 L14.424545,14.8261777 C14.4923573,14.6046858 14.5246473,14.4665572 14.5405777,14.330761 C14.5543809,14.2130971 14.5566656,14.1233054 14.5565544,13.8318993 C14.5565454,13.8080045 14.5565454,13.8080045 14.5565424,13.7832685 L14.8292244,13.7832685 C14.8292274,13.8079252 14.8292274,13.8079252 14.8292365,13.8318013 C14.8293517,14.1340044 14.8269274,14.229286 14.8115075,14.3607309 C14.7934971,14.5142586 14.7579013,14.6665281 14.6859205,14.9016356 Z M17.1825734,13.823063 L17.0040658,14.0232294 L16.116734,13.2770533 L16.2952416,13.076887 L17.1825734,13.823063 Z M13.1081707,14.3388411 L12.8953436,14.1733047 L13.5209612,13.4148459 L13.7337883,13.5803823 L13.1081707,14.3388411 Z M12.1890514,10.6613728 L12.3220679,10.4302243 L13.3041827,10.9631495 L13.1711662,11.194298 L12.1890514,10.6613728 Z M14.6480186,13.1886064 C13.7067801,13.1886064 13.1320734,12.791489 13.1320734,12.0602919 C13.1320734,11.3290949 13.9901305,10.9056342 14.9313689,10.9056342 C15.8726073,10.9056342 16.1639637,11.3290949 16.1639637,12.0602919 C16.1639637,12.791489 15.589257,13.1886064 14.6480186,13.1886064 Z" id="eye" fill="#000000" fill-rule="nonzero" opacity="0.5"></path>
                        <path d="M0.262780794,1.81760178 L0,0.544410693 C6.19014774,-0.552525063 10.0851072,0.015085563 14.755979,2.18492158 C15.6089057,2.58114551 19.0725364,4.33280449 20.0163086,4.77720027 C22.2782743,5.8422963 24.384499,6.65509177 26.8003221,7.3359322 L26.3932404,8.57610307 C23.8933626,7.87157387 21.7130679,7.03019472 19.3825344,5.93281203 C18.4130459,5.4763072 14.9538864,3.72690936 14.1289994,3.3437112 C9.72556567,1.29811255 6.14163911,0.775828601 0.262780794,1.81760178 Z" id="eye-brow" fill="#000000" fill-rule="nonzero" opacity="0.5"></path>
                        <path d="M7.55688676,10.713893 L7.52520742,10.7585445 C6.82359,10.5487049 6.34434214,10.3461696 6.08746384,10.1509385 C5.83058554,9.95570735 5.64588968,9.78775895 5.53337627,9.64709327 L5.35909534,8.73074915 C5.71413836,9.277275 6.02638397,9.65293014 6.29583218,9.85771455 C6.49207788,10.006864 6.79386438,10.1628405 7.20119169,10.3256439 L6.47875283,9.53708587 L6.14777849,8.50650553 C6.50628101,9.08270394 6.78877632,9.49697491 6.99526441,9.74931844 C7.20175249,10.001662 7.4888755,10.2835062 7.85663343,10.5948511 L7.62990476,10.7935938 L7.55688676,10.713893 Z M6.12613426,11.2672585 L5.99027911,11.5407449 C5.28137518,11.3287838 4.76796033,11.1382135 4.45003457,10.9690339 C4.13210881,10.7998544 3.89842356,10.650914 3.7489788,10.522213 L3.39695699,9.81496637 C3.95187776,10.2255193 4.38409811,10.5131491 4.69361805,10.6778556 C5.00313798,10.8425622 5.48064339,11.0390298 6.12613426,11.2672585 Z M8.46566785,10.4183801 L8.23167799,10.6078926 L7.13604061,9.39215704 L6.81136164,8.23033211 C7.15093186,8.90324157 7.41551548,9.36508041 7.60511251,9.61584861 C7.79470953,9.86661681 8.08156131,10.1341273 8.46566785,10.4183801 Z M10.0271505,9.9068151 L9.79804253,10.102613 C9.3618457,9.75189107 9.05334967,9.46321938 8.87255444,9.23659786 C8.69175921,9.00997635 8.52349642,8.81835779 8.36776609,8.66174218 L8.19686665,7.61260802 C8.43755348,8.16403506 8.61233195,8.52198466 8.72120204,8.68645683 C8.86192218,8.89904547 9.02123862,8.89939308 9.12708252,9.0320653 C9.35575785,9.31870311 9.65578052,9.61028637 10.0271505,9.9068151 Z M11.6047778,10.0064333 L11.3787286,10.2060033 C10.9262393,9.94078546 10.6037144,9.69135402 10.411154,9.45770902 C10.2185935,9.22406402 10.1103003,9.09192958 10.0862743,9.0613057 L9.94713479,7.99511685 C10.2104183,8.66053648 10.4429578,9.11567156 10.6447534,9.36052209 C10.8465489,9.60537261 11.1665571,9.82067634 11.6047778,10.0064333 Z M12.9314911,9.98830528 L12.7109756,10.1944008 C12.2601972,9.89085153 11.9476684,9.63919926 11.7733891,9.43944398 C11.5991098,9.23968871 11.4530652,9.07626804 11.3352552,8.94918199 L11.3864274,8.21738583 C11.4997612,8.63145379 11.5951489,8.90454646 11.6725907,9.03666382 C11.7720616,9.20636354 11.9474905,9.25301422 12.038141,9.35691585 C12.2346534,9.58215423 12.5324367,9.79261738 12.9314911,9.98830528 Z M14.1070779,10.1309952 L13.8624142,10.3054716 C13.2929519,9.949621 12.9274736,9.6504009 12.7659793,9.40781126 C12.6044849,9.16522162 12.4961175,8.97786426 12.4408772,8.84573918 L12.6307805,7.91336682 C12.6933678,8.39795878 12.7509443,8.71720215 12.80351,8.87109694 C12.8785046,9.09065656 13.0039834,9.14879653 13.0904896,9.27874223 C13.2679472,9.54531119 13.60681,9.82939552 14.1070779,10.1309952 Z M14.7554049,10.2919603 L14.4652261,10.3580258 C14.2092448,9.91743499 14.0583394,9.58932227 14.0125099,9.37368766 C13.9666803,9.15805306 13.9505294,8.98412716 13.9640571,8.85190997 L14.3629733,8.44551328 C14.255924,8.68073594 14.1977352,8.85487763 14.1884068,8.96793835 C14.172173,9.16469195 14.2631185,9.39606109 14.2882393,9.51425806 C14.3350129,9.73433448 14.4907348,9.99356857 14.7554049,10.2919603 Z M15.3420807,10.4475868 L15.0449646,10.4480518 C14.8767656,10.1506309 14.7925503,9.92263693 14.7923186,9.7640699 C14.792087,9.60550286 14.8570584,9.48249332 14.9872331,9.39504125 L15.3401947,9.15671051 C15.1740963,9.4459571 15.0911418,9.65537989 15.0913311,9.78497889 C15.0915205,9.91457789 15.1751037,10.1354472 15.3420807,10.4475868 Z M16.056292,10.4422437 L15.7591755,10.4422834 C15.6099931,10.1614659 15.5353934,9.95271459 15.5353764,9.81602955 C15.5353593,9.67934452 15.6304927,9.57536717 15.8207766,9.50409751 L16.0561469,9.2792989 C15.9625122,9.52782516 15.9157027,9.71560075 15.9157186,9.84262567 C15.9157344,9.96965059 15.9625922,10.1695233 16.056292,10.4422437 Z M5.03431135,13.6042807 L5.23452972,13.920798 C5.04605939,13.9539098 4.9332588,13.9794431 4.89612795,13.9973979 C4.62854206,14.1267905 4.42393831,14.2007082 4.2823167,14.219151 C4.11121747,14.2414325 3.96575868,14.1948323 3.84594035,14.0793503 L3.36111543,13.8666834 C3.80055527,13.9219796 4.11476511,13.9373227 4.30374495,13.9127127 C4.4927248,13.8881026 4.73624693,13.785292 5.03431135,13.6042807 Z M5.37541548,13.9306497 L5.52438719,14.1967188 C5.32951863,14.400128 5.16176538,14.5440085 5.02112743,14.6283602 C4.88048949,14.7127118 4.74447194,14.7740783 4.61307479,14.8124596 L4.08060859,14.7072476 C4.48443556,14.6340768 4.76281555,14.5516284 4.91574857,14.4599024 C5.06868158,14.3681764 5.22190389,14.1917589 5.37541548,13.9306497 Z M5.96806388,14.1000886 L6.14225629,14.3492106 C5.95875362,14.6064125 5.79979101,14.7853566 5.66536846,14.8860431 C5.5309459,14.9867295 5.40924302,15.0265237 5.30025983,15.0054255 L4.80556667,14.9708332 C5.15367309,14.8664024 5.39463561,14.76407 5.52845425,14.6638359 C5.66227289,14.5636018 5.80880943,14.375686 5.96806388,14.1000886 Z M6.27702146,14.7059739 L6.5232639,14.8780547 C6.37486,15.262045 6.25906248,15.5178018 6.17587134,15.645325 C6.09268021,15.7728483 5.92515721,15.9156479 5.67330234,16.0737237 L5.29907052,16.255334 C5.66844726,15.9243233 5.91603219,15.6624042 6.04182529,15.4695766 C6.1676184,15.276749 6.24601712,15.0222148 6.27702146,14.7059739 Z M6.7902427,14.8444604 L7.04327679,15.0056415 C6.89439824,15.4874062 6.77199011,15.8089575 6.67605238,15.9702952 C6.58011465,16.131633 6.34244406,16.3402846 5.96304062,16.5962499 L5.63436199,16.6305967 C6.0738745,16.2427864 6.3494483,15.9550132 6.46108339,15.7672773 C6.57271849,15.5795414 6.68243826,15.2719358 6.7902427,14.8444604 Z M7.90842912,15.2305668 L8.12105139,15.346625 C8.01968459,15.7289487 7.92799816,15.9878929 7.84599212,16.1234575 C7.76398608,16.2590221 7.69600993,16.3441553 7.64206365,16.3788572 L7.21800703,16.6840057 C7.39026805,16.3965447 7.52022697,16.1803612 7.60788379,16.0354552 C7.69554061,15.8905493 7.79572239,15.6222532 7.90842912,15.2305668 Z M8.24469328,15.5008496 L8.53151159,15.5209059 C8.53946674,15.9053025 8.52181429,16.1549625 8.47855424,16.2698861 C8.4352942,16.3848096 8.39896336,16.4380905 8.36956172,16.4297288 L7.88585839,16.5616906 C8.06209201,16.3832724 8.16846579,16.2455623 8.20497972,16.1485604 C8.24149365,16.0515584 8.2547315,15.8356548 8.24469328,15.5008496 Z M9.19052681,15.7820312 L9.39890255,15.8105805 C9.38060185,16.2041492 9.3628533,16.4661728 9.34565691,16.5966514 C9.32846052,16.7271299 9.32108232,16.8244355 9.32352233,16.8885679 L8.91554386,17.1875838 C9.04291618,16.9253871 9.11593324,16.72349 9.13459506,16.5818925 C9.15325687,16.440295 9.17190078,16.1736745 9.19052681,15.7820312 Z M10.4147861,16.0741573 L10.6760535,16.2205927 C10.67022,16.4671562 10.6394159,16.643738 10.5836413,16.7503379 C10.5278668,16.8569379 10.3792597,17.0232585 10.1378201,17.2492996 L10.0933338,17.2461889 C10.2160739,16.9831092 10.309371,16.7905482 10.3732252,16.6685059 C10.4370793,16.5464637 10.450933,16.3483475 10.4147861,16.0741573 Z M11.4643174,16.478671 L11.7611763,16.491473 C11.7645952,16.7496109 11.7639993,16.9359436 11.7593887,17.0504712 C11.7547781,17.1649987 11.7417852,17.3162128 11.7204099,17.5041134 L11.5583947,17.4927842 C11.5163308,17.3142944 11.4986239,17.1424563 11.5052739,16.9772697 C11.5119239,16.8120832 11.4982718,16.6458836 11.4643174,16.478671 Z M6.99906433,11.0478636 L6.85101204,11.3144819 C6.19705865,11.089269 5.73257558,10.894867 5.45756284,10.7312758 C5.18255009,10.5676847 5.05511914,10.4808368 5.07526997,10.4707321 L4.78505336,9.73086049 C5.14238528,10.1832753 5.44483598,10.483116 5.69240544,10.6303825 C5.9399749,10.7776491 6.37552786,10.9168094 6.99906433,11.0478636 Z M5.8844661,11.7528009 L5.79932944,12.0474219 C5.0181537,12.0672387 4.47223637,12.0290644 4.16157745,11.9328991 C3.85091853,11.8367338 3.55951242,11.6531971 3.2873591,11.3822892 L3.03226403,10.8698938 C3.58228706,11.294077 4.003191,11.5513301 4.29497585,11.6416529 C4.5867607,11.7319757 5.11659078,11.769025 5.8844661,11.7528009 Z M9.26250939,10.3729593 L9.02081168,10.5518092 C8.53263769,10.1745869 8.21056333,9.87307689 8.05458859,9.64727904 C7.89861385,9.42148118 7.79752717,9.22477241 7.75132855,9.05715272 L7.72223323,8.14316836 C7.9724062,8.76014698 8.19203276,9.20549785 8.38111291,9.47922098 C8.57019307,9.75294411 8.86399189,10.0508569 9.26250939,10.3729593 Z" id="eye-lashes" fill="#000000" fill-rule="nonzero" opacity="0.400000006" transform="translate(9.544278, 12.558361) rotate(1.000000) translate(-9.544278, -12.558361) "></path>
                    </g>
                    <path d="M4.94478596,14.0195855 C4.811217,14.2705932 4.64658916,14.5504267 4.43894943,14.8899914 C3.89055674,15.7868081 3.68564548,16.1979855 3.5470673,16.7955699 C3.45373585,17.1980389 3.46414165,17.6381333 3.55801924,18.6917119 C3.66241481,19.8633327 3.67403937,20.3549725 3.5470673,20.9025084 L2.57291742,20.6766057 C2.66624886,20.2741368 2.65584307,19.8340424 2.56196548,18.7804638 C2.4575699,17.6088429 2.44594534,17.1172032 2.57291742,16.5696672 C2.74314,15.8356241 2.98354252,15.3532296 3.5858107,14.3683073 C4.0840436,13.5535196 4.29875582,13.1395944 4.43778993,12.6225421 C4.31184214,12.3352737 4.21917747,12.0846803 4.05802066,11.6214166 C3.59216993,10.2826604 3.17061713,9.49213097 1.83912783,7.75648309 L2.63255185,7.14781378 C4.03000517,8.96944832 4.50205555,9.85467481 4.99529692,11.2721422 C5.18306456,11.8118993 5.26920146,12.039501 5.41938766,12.3675437 C6.15973362,13.984637 6.26764687,15.2612258 6.23615855,19.4003145 C6.21688002,21.9344468 6.23257889,23.3494209 6.33474138,25.2673495 L5.33615706,25.3205412 C5.23265057,23.3773812 5.21676582,21.945654 5.23618749,19.3927072 C5.25783262,16.5474891 5.21211417,15.1232755 4.94478596,14.0195855 Z" id="ear" fill="#000000" fill-rule="nonzero" opacity="0.3" transform="translate(4.086935, 16.234177) rotate(-10.000000) translate(-4.086935, -16.234177) "></path>
                </g>
                <g id="hair" transform="translate(28.000000, 0.000000)">
                    <path d="M114.870791,5.8149954 C115.487683,5.31820517 116.132129,4.85153599 116.800139,4.41253017 C134.858923,13.1219989 125.745997,19.5510553 133.799349,34.7373761 C139.206502,44.9337208 136.683095,56.0019053 143.681388,75.2520166 C154.037509,103.738464 148.91341,106.028202 150.681345,127.207524 C150.695908,127.381992 155.495244,127.29238 160.071195,134.036982 C161.362626,135.940452 166.585639,140.817611 175.740234,148.668457 L153.180789,138.019452 C149.215217,137.336317 146.261457,137.336317 144.31951,138.019452 C143.30491,138.376366 137.439493,145.483504 136.356772,152.534632 C135.697031,156.831137 134.951216,167.604371 134.119329,184.854334 L123.38623,147.917893 C121.46685,139.340747 120.451023,134.563895 120.338751,133.587335 C118.900795,121.079751 118.900795,121.079751 120.338751,110.461065 C122.625284,93.5760145 129.176174,78.6264872 126.054834,56.0994823 C123.997171,41.2491296 108.044699,36.7501918 107.366558,24.244093 C107.1858,20.9106159 107.526139,18.0144349 108.282416,15.4908086 C99.7807913,14.9468335 98.7755439,14.9417145 89.3093463,16.5878759 C83.6553221,17.5711045 53.9224973,25.1322941 50.5681945,38.4764017 C49.5418961,42.5592279 50.3181681,55.0136588 47.9512155,51.5752926 C44.6592707,46.7932314 36.0441395,44.0150953 37.1585839,47.0429353 C37.836072,48.8836065 40.0160385,52.0719829 40.6195371,56.1291892 C41.0087727,58.7459458 41.7384479,61.0366867 41.7385469,63.5696766 C41.7387936,69.887786 43.6660961,71.2714034 44.7758321,72.1709516 C46.3552085,73.4511887 47.4258053,72.6045959 48.7626682,73.7798717 C50.4940207,75.3019552 49.8804703,76.6442607 50.7454343,80.2321969 C53.7795384,92.8178904 55.2298336,93.9750178 59.3709079,103.813824 C69.2374492,127.255804 63.4555021,112.300746 67.5073409,143.085432 C70.1998123,163.542043 63.2627115,153.938594 60.5900468,175.850757 C59.0993567,188.072359 61.1582645,200.82257 58.069923,212.712026 C56.2693295,219.643926 51.7509968,230.064498 52.3092083,238.559078 C53.1919881,251.992775 49.5914573,261.043789 44.667771,264.463335 C40.3795553,267.441541 28.1912727,269.437997 38.7192138,262.841413 L40.9251653,254.504525 C42.6778314,246.10287 41.5888243,239.53281 42.8177567,231.030294 C43.7364593,224.674139 46.7451302,218.712829 47.2301721,212.30573 C47.3224128,211.087288 44.7413047,212.871716 44.1145634,213.900287 C40.1055497,220.479648 36.0357115,227.201709 33.641136,234.607266 C31.3990469,241.541238 31.4300911,263.538268 30.4014786,256.309906 C28.2588113,241.252753 27.3456583,227.937208 28.004884,212.706196 C28.1421841,209.533959 30.2895947,204.895745 31.4988432,201.380267 C32.0194237,199.866856 34.2385367,197.369231 32.9575024,197.254513 C30.1333802,197.00161 27.0526332,202.157966 24.1977734,204.102276 C9.57348595,214.062185 -2.60163715,239.95535 15.2089042,198.287707 C16.9795433,194.145308 21.3427687,189.619305 22.1766091,186.6191 C22.4161022,185.75739 25.4160306,183.838109 24.2218215,183.547306 C17.9551429,182.021305 10.6608782,199.332357 7.07694224,203.205011 C-3.06259965,214.161384 -0.78727551,220.427575 4.50190489,185.692808 L8.66687877,172.867215 C16.4087006,152.99035 31.031988,137.041955 35.97841,115.905041 C38.9321219,103.28332 36.5065383,92.5223136 36.0411307,79.461577 C34.5225473,36.8455622 34.1737635,2.14298275 78.9695075,0.990659337 C85.3646455,0.826151136 103.749706,-1.24475272 113.874663,4.56905526 C114.070073,4.68126099 114.428098,5.14017531 114.870791,5.8149954 Z" fill="#296BBD"></path>
                    <path d="M115.184398,6.2044187 L114.452722,6.08925543 C114.044854,5.46752118 113.717485,5.05536812 113.625686,5.00265717 C109.940094,2.88636932 104.896715,1.68855682 98.6984899,1.22442007 C94.2269958,0.889584772 89.8779277,0.94068193 83.9451832,1.24934558 C83.416763,1.27683776 81.5756603,1.3765262 81.185402,1.39677105 C80.2274719,1.44646418 79.552495,1.475828 78.9823652,1.49049399 C58.1337658,2.02680229 46.2772985,9.77785869 40.605421,24.8533014 C36.1279835,36.7540083 35.4864291,49.8545733 36.5408136,79.4437713 C36.6450958,82.3702431 36.8146347,84.8441962 37.1920019,89.4726126 C37.6422082,94.9944025 37.7776291,96.9106566 37.8698121,99.6980973 C38.069291,105.729964 37.6807704,110.824872 36.4652567,116.018972 C34.0915854,126.162079 30.4497932,133.724057 21.6149352,148.883231 C21.3715562,149.300778 21.3715562,149.300778 21.1281531,149.718298 C14.6031955,160.911278 11.807321,166.181905 9.14243224,173.021646 L4.996207,185.768077 C3.56474794,195.168663 1.37197516,206.820491 0.703653087,210.443377 C0.846035965,210.245909 1.02236758,209.999143 1.24600536,209.685342 C3.17440884,206.979468 4.62405543,205.11936 6.70997428,202.865402 C7.35241678,202.171205 8.15308139,200.995678 9.32813367,199.069865 C9.61878264,198.593516 11.9636454,194.662602 12.7160033,193.44542 C15.4379727,189.041757 17.5979316,186.181486 19.7377382,184.491034 C21.3413108,183.224209 22.8747051,182.704659 24.3401198,183.061502 C25.0883333,183.2437 25.1647981,183.872847 24.7615779,184.463005 C24.5569715,184.762469 24.3176634,185.009369 23.6773413,185.622308 C22.9891418,186.281126 22.7003218,186.60197 22.6583494,186.752989 C22.2461937,188.235949 21.8431643,188.871466 18.7988595,193.249029 C18.0098245,194.383623 17.4616337,195.207224 16.9676062,196.019825 C16.4228605,196.915849 15.9926835,197.726187 15.6686643,198.484228 C11.7667156,207.612811 9.60760133,212.793155 8.32024223,216.150812 C7.63681659,217.933305 7.20433994,219.193344 6.99337684,220.01371 C8.1252918,219.259614 14.1819302,212.40328 15.926558,210.615511 C18.7250956,207.747772 21.3525172,205.4351 23.916321,203.689015 C24.7567919,203.11661 25.435275,202.456801 27.0936939,200.694696 C27.490646,200.272927 27.70535,200.046482 27.9468098,199.796731 C30.0797593,197.590542 31.4883973,196.620952 33.0020995,196.756506 C33.8123426,196.829064 34.005544,197.463831 33.7294934,198.222925 C33.5792266,198.636134 33.4211948,198.919204 32.8007669,199.955879 C32.304062,200.791612 32.0886903,201.202658 31.9716533,201.542903 C31.7945315,202.057824 31.5911623,202.616046 31.3302283,203.309228 C31.1758943,203.719222 30.6019256,205.223958 30.6218713,205.171469 C30.4189766,205.705408 30.2577532,206.135257 30.1059936,206.548894 C29.0909418,209.315523 28.5697312,211.218755 28.5044163,212.727817 C27.8919847,226.877681 28.6030766,239.725897 30.7295117,255.051315 C30.9100811,252.881471 31.3459937,246.986459 31.5131695,245.12248 C31.9618251,240.12005 32.4746434,236.589659 33.1653885,234.453434 C35.1807212,228.220738 37.7110649,223.448433 43.6875848,213.640116 C44.041295,213.059627 44.8909692,212.302446 45.6869086,211.830337 C46.126304,211.569712 46.5169092,211.413364 46.8452759,211.396838 C47.4022833,211.368806 47.7731892,211.756399 47.7287454,212.343474 C47.5091319,215.244431 46.9359961,217.626416 45.4960997,222.392685 C44.1451222,226.861769 43.6548055,228.734329 43.3126144,231.101819 C42.8569833,234.254158 42.7239684,236.577578 42.5969451,241.673178 C42.5793075,242.380719 42.5706771,242.716887 42.5594397,243.121013 C42.4245589,247.971671 42.1551277,251.056943 41.4085304,254.632424 L39.1520579,263.160245 C34.619775,266.000077 34.3152078,266.780444 36.1271106,266.743027 C38.408523,266.695915 42.4084167,265.42372 44.3825551,264.052663 C49.5801888,260.442857 52.6242178,250.97789 51.8102844,238.591865 C51.6231942,235.74482 51.9770549,232.56021 52.8018671,228.89733 C53.3399714,226.507681 54.027851,224.089811 55.0487534,220.855557 C55.2745272,220.140298 56.2146537,217.208296 56.4446916,216.476979 C56.9475876,214.878216 57.304492,213.67 57.5859828,212.58632 C59.0952823,206.775839 59.4103419,201.962026 59.4474007,190.983434 C59.4491417,190.46764 59.4499467,190.238258 59.4510679,189.951639 C59.4767988,183.373577 59.6097231,179.758368 60.0937251,175.79022 C60.8279553,169.770545 61.9062706,165.731089 63.4029446,162.585944 C63.7744426,161.80527 64.1594698,161.099065 64.6338055,160.304144 C64.7987326,160.027749 65.5578133,158.792871 65.7512238,158.463797 C67.7444078,155.072541 68.1516857,151.812593 67.0116163,143.150679 C66.1237974,136.405291 65.6430708,131.417263 65.414897,127.286056 C65.3351005,125.841298 65.2013263,121.563922 65.1219653,120.744301 C64.8707713,118.150031 64.9540832,118.367815 58.9100637,104.007789 C57.7755552,101.312303 54.9371042,95.0365341 54.7088023,94.5046652 C54.1418673,93.1838916 53.6681606,91.987282 53.2120727,90.705548 C52.2497268,88.0010876 51.337357,84.820993 50.2593595,80.3493777 C50.1040942,79.7053253 49.986422,79.0973901 49.8878103,78.4620217 C49.7606959,77.5601989 49.702306,77.1068589 49.6885033,77.0026476 C49.5051498,75.6183152 49.3216078,75.0767754 48.7446301,74.4570728 C48.0876789,73.8522142 47.764351,73.698466 47.3396128,73.604436 C45.7569061,73.3542973 45.2165011,73.1717919 44.4609813,72.5593702 C43.7964662,72.0207165 43.6094177,71.8553663 43.2590044,71.4455113 C41.9523388,69.9171917 41.2387013,67.5253229 41.2385469,63.5696962 C41.23851,62.6252392 41.1366997,61.6728671 40.9311308,60.5049902 C40.843712,60.0083472 40.7983142,59.7777096 40.5698525,58.6450098 C40.348555,57.5478296 40.2315916,56.9194936 40.1249784,56.2027535 C39.8625976,54.4388171 39.2961349,52.7608317 38.4123634,50.8550808 C38.3111564,50.6368396 36.9131554,47.8236769 36.6893583,47.2156412 C36.3086379,46.1812601 36.7988189,45.4407244 37.8478682,45.3053789 C38.6422594,45.2028886 39.7867057,45.4258079 41.078754,45.9124952 C43.9173706,46.981742 46.7969072,49.0166914 48.3630644,51.291778 C48.7196046,51.4876846 48.8297494,51.1755136 48.9244676,50.7162844 C49.1481901,49.6315941 49.2550591,48.29091 49.4256349,45.0754537 C49.6327517,41.1845439 49.7739117,39.5852394 50.0832799,38.3545089 C51.6230657,32.228924 58.4562008,26.9201174 68.8788276,22.437489 C75.9247319,19.4071425 84.5007273,16.9165856 89.2236825,16.0952688 C98.476762,14.4861684 99.5202033,14.4291374 108.314343,14.9918289 L108.941886,15.0319821 C108.000332,18.1738609 107.692787,21.0259098 107.865824,24.2170203 C108.112237,28.7612916 110.137131,32.1243329 114.915351,37.2194005 C115.406929,37.7435754 117.17115,39.5954286 117.171404,39.5956967 C123.076868,45.8263537 125.704495,49.9280256 126.550103,56.030858 C128.369961,69.1649495 127.428056,78.2304214 123.724859,95.3383504 C122.979477,98.7818441 122.917876,99.0680605 122.636051,100.417212 C121.811928,104.362446 121.249078,107.464681 120.834229,110.528161 C119.998316,116.701012 119.813749,118.353238 119.767374,120.6209 C119.712111,123.323131 119.882277,125.239118 120.835479,133.530228 C120.944576,134.47917 121.963199,139.269171 123.86637,147.778373 L133.766133,181.847008 C134.540363,166.313174 135.23817,156.525059 135.862564,152.458745 C136.762066,146.60082 142.086794,138.274838 144.153588,137.547785 C146.192939,136.830385 149.223535,136.830385 153.265672,137.52671 L172.632324,146.648486 C165.152821,140.158701 160.845515,136.068839 159.657436,134.317702 C159.459798,134.026398 159.259678,133.745073 159.05718,133.473552 C157.259224,131.06275 155.350633,129.503527 153.413628,128.592321 C152.739353,128.275128 152.111923,128.060144 151.500981,127.911292 C151.282765,127.858125 150.596937,127.727294 150.496356,127.681755 C149.728361,121.801744 149.689376,118.153244 149.855747,111.680914 C149.918648,109.233842 149.935978,108.42292 149.943264,107.215759 C149.9998,97.8491454 148.499569,89.9687361 143.211477,75.4228505 C140.109438,66.8901111 139.194957,62.3708969 137.400537,49.9348974 C136.329708,42.5136518 135.437134,38.8929997 133.357618,34.9716275 C130.778721,30.1085637 130.027229,27.1185791 129.096589,20.4651809 C128.3364,15.0303882 127.483403,12.738972 124.561383,9.97957307 C122.779032,8.29641729 120.276772,6.6650679 116.839023,4.98713413 C116.260799,5.37627006 115.709202,5.78178787 115.184398,6.2044187 Z M116.525538,3.99468549 C120.673007,5.72524155 123.338799,7.44960766 125.247969,9.25252428 C128.373999,12.2045789 129.298107,14.6870231 130.086947,20.326655 C131.002661,26.8733366 131.730344,29.7685941 134.24108,34.5031248 C136.389689,38.5547865 137.303966,42.2634744 138.390287,49.792084 C140.175327,62.1630742 141.079626,66.6319738 144.151298,75.0811828 C149.478154,89.7336945 151.000535,97.7304552 150.943246,107.221795 C150.935905,108.438001 150.918499,109.252493 150.855416,111.70661 C150.693815,117.993387 150.726832,121.589665 151.148301,126.785516 C151.708174,126.913284 152.975792,127.281232 153.839301,127.687444 C155.924978,128.668588 157.962672,130.333282 159.858797,132.875714 C160.070231,133.159217 160.278984,133.452679 160.484954,133.756263 C161.739444,135.605284 166.957714,140.478014 176.065727,148.288912 L178.882786,150.70478 L153.029032,138.500723 C149.173903,137.84227 146.319387,137.845973 144.485432,138.491119 C144.042152,138.647055 142.275131,140.705926 140.784912,143.036099 C138.769033,146.188217 137.322563,149.539375 136.850979,152.610519 C136.194959,156.882795 135.449678,167.648326 134.618748,184.878418 L134.474545,187.868612 L133.639189,184.993854 L122.898298,148.027082 C120.970501,139.412324 119.95747,134.648619 119.842023,133.644442 C118.882729,125.300343 118.711008,123.366847 118.767583,120.600453 C118.815052,118.279299 119.001587,116.609456 119.843274,110.393968 C120.261811,107.303252 120.828604,104.179284 121.657179,100.212735 C121.939732,98.8601026 122.001418,98.5734938 122.747494,95.1267892 C126.427817,78.1245316 127.359443,69.157993 125.559566,56.1681067 C124.75007,50.3258985 122.21894,46.3748553 116.445611,40.2836093 C116.447764,40.2858814 114.680686,38.4310294 114.185928,37.9034631 C109.25967,32.6505411 107.129852,29.1132376 106.867291,24.2711656 C106.701644,21.2163432 106.962913,18.4486754 107.632341,15.9504639 C99.4837473,15.4355837 98.3490121,15.5233918 89.3950101,17.0804829 C84.7469528,17.888775 76.2459705,20.3575473 69.2739222,23.3561294 C59.1176257,27.7242128 52.492715,32.8712455 51.0531091,38.5982945 C50.7664463,39.738698 50.6270779,41.3177037 50.4458112,44.721952 C50.2502864,48.4073843 50.1422846,49.7622795 49.9038525,50.9182872 C49.7323481,51.749805 49.5146404,52.2722282 49.1393381,52.5234323 C48.5876984,52.8926657 48.0388878,52.5844392 47.5393666,51.8588071 C46.099939,49.7678149 43.3868631,47.8505021 40.7262535,46.8483068 C39.5736475,46.4141445 38.575711,46.2197629 37.975825,46.2971586 C37.8295245,47.4182701 39.1964426,50.1688856 39.3195616,50.4343773 C40.2402292,52.4196903 40.8355886,54.1832743 41.1140958,56.0556249 C41.2175109,56.750865 41.3319977,57.3658965 41.5501121,58.4472948 C41.7805392,59.5897391 41.8265215,59.8233461 41.9159903,60.3316359 C42.1308283,61.552172 42.2385074,62.5594437 42.2385469,63.5696571 C42.2386927,67.3049145 42.8841308,69.4682023 44.0190769,70.795673 C44.3158043,71.1427352 44.4749861,71.2834514 45.0906828,71.782533 C45.6776354,72.2583147 46.0664844,72.3896366 46.9825589,72.5275603 C47.2551491,72.5686014 47.3906893,72.5915313 47.5557628,72.6280758 C48.1375098,72.756865 48.6140425,72.9834648 49.0927979,73.4043529 C50.229411,74.5842921 50.4715553,75.2987377 50.6798457,76.8713453 C50.8053798,77.8325565 50.8388494,78.0694204 50.8759794,78.3086538 C50.9705542,78.9180111 51.0830433,79.499169 51.231509,80.1150161 C52.3018705,84.5549566 53.2048993,87.7024927 54.1542038,90.3703033 C54.6027831,91.6309363 55.0687684,92.8080411 55.6277232,94.1102233 C55.850401,94.6289899 58.6908198,100.90911 59.831752,103.619858 C65.9535974,118.164791 65.8508776,117.896273 66.1173104,120.647925 C66.200412,121.506178 66.3351663,125.814894 66.4133752,127.230909 C66.640097,131.335826 67.118418,136.298892 68.0030655,143.020186 C69.169705,151.883971 68.7354432,155.359905 66.6133438,158.970501 C66.4137107,159.310163 65.6522635,160.54889 65.4925431,160.816559 C65.0331442,161.586449 64.6626443,162.266008 64.3059182,163.015641 C62.8591332,166.055948 61.8082998,169.992454 61.0863685,175.911294 C60.6084753,179.829359 60.4766452,183.41481 60.4510602,189.95555 C60.44994,190.241932 60.4491358,190.471105 60.447395,190.98681 C60.4100527,202.049373 60.0913601,206.918697 58.5538632,212.837732 C58.2673244,213.940845 57.9061382,215.163556 57.3986124,216.777038 C57.1675134,217.511728 56.2271821,220.444369 56.0023734,221.156571 C54.9892113,224.366303 54.3081365,226.760253 53.777439,229.11701 C52.9719736,232.693974 52.6281847,235.787942 52.8081322,238.526292 C53.6427545,251.227152 50.4906977,261.028015 44.9529869,264.874008 C42.8154292,266.358562 38.6239897,267.691678 36.1477566,267.742814 C34.6298897,267.774158 33.6934416,267.254843 34.1383884,266.114794 C34.4767118,265.247936 35.8255345,264.078873 38.286241,262.523131 L40.4357021,254.402418 C41.1615562,250.922933 41.4264558,247.889553 41.5598261,243.093217 C41.5710283,242.690356 41.5796416,242.354856 41.5972557,241.648257 C41.7252278,236.514595 41.8599135,234.161989 42.3228991,230.958768 C42.674641,228.525199 43.1734326,226.620273 44.4454372,222.412494 C45.9296852,217.499553 46.49629,215.168372 46.7183574,212.436702 C46.5815275,212.483709 46.4004069,212.569807 46.1970633,212.69042 C45.530523,213.085776 44.7993551,213.737351 44.541542,214.160459 C38.6052934,223.902685 36.1002408,228.62729 34.1168835,234.761098 C33.4569078,236.802165 32.951122,240.284143 32.5091717,245.211809 C32.3201962,247.318851 31.7817954,254.661958 31.6658637,255.814882 C31.5298921,257.167099 31.4265262,257.774964 31.2114458,258.036778 C30.9918506,258.304087 30.6058535,258.326007 30.3630461,258.063875 C30.0698918,257.387236 29.9907314,256.972509 29.9064655,256.380347 C27.6422301,240.4689 26.8743544,227.263387 27.5053516,212.684575 C27.576457,211.041729 28.1181453,209.063721 29.1671854,206.204453 C29.3204637,205.786677 29.4829435,205.353478 29.6870864,204.816254 C29.6678527,204.86687 30.240917,203.364505 30.3943397,202.956932 C30.6521845,202.271957 30.8525105,201.722088 31.0260331,201.21763 C31.1723472,200.792272 31.4100645,200.338579 31.8309475,199.629703 C32.5176311,198.481687 32.6716449,198.205814 32.7897065,197.881164 C31.8011536,197.670296 30.5658744,198.526433 28.6657494,200.491804 C28.4283158,200.73739 28.2159123,200.961408 27.8219006,201.380054 C26.1070006,203.202171 25.4043632,203.88547 24.4792258,204.515537 C21.9784278,206.218712 19.3980997,208.489931 16.6422473,211.31393 C15.4899858,212.494684 14.3408056,213.736076 13.0726401,215.1562 C12.5906034,215.695997 12.1162652,216.233311 11.5140334,216.920054 C11.3393935,217.119201 11.1495896,217.335921 10.8004558,217.734616 C10.5213668,218.053215 10.3233998,218.27878 10.1340277,218.493738 C7.6697777,221.290931 7.01809724,221.923189 6.33054538,221.687625 C5.42049466,221.375829 5.77604292,219.993218 7.38652003,215.792813 C8.679973,212.419263 10.8421235,207.231634 14.749144,198.091185 C15.0937763,197.28492 15.5454766,196.434039 16.113128,195.500338 C16.6200249,194.666569 17.1781192,193.828088 17.9778702,192.678085 C20.9118348,188.459186 21.3291231,187.801185 21.6948688,186.485211 C21.8105677,186.06892 22.0963687,185.751429 22.973033,184.912193 C23.4868541,184.420344 23.7219338,184.182777 23.8720618,183.986914 C22.8141809,183.821522 21.6476305,184.256619 20.3576379,185.275715 C18.3376141,186.871539 16.2294461,189.663227 13.5666233,193.971201 C12.8193823,195.180105 10.4765447,199.107623 10.1817769,199.590723 C8.9723525,201.572869 8.14636014,202.785582 7.44391019,203.544621 C5.39279201,205.760975 3.96616465,207.591546 2.06035949,210.26571 C1.208825,211.460556 1.02613687,211.708642 0.779336461,211.976345 C0.532664571,212.243908 0.350018095,212.375188 0.0652085875,212.349341 C-0.364372129,212.310355 -0.485213696,212.00751 -0.496169824,211.596408 C-0.504275089,211.292277 2.31867062,196.708986 4.02635143,185.538377 L8.20097096,172.685749 C10.9005751,165.754607 13.713343,160.452133 20.2642305,149.214674 C20.5076416,148.79714 20.5076416,148.79714 20.750958,148.3797 C29.5372125,133.303922 33.1476526,125.807044 35.4915633,115.79111 C36.6851213,110.690831 37.0671338,105.681267 36.8703585,99.7311501 C36.7789071,96.9658304 36.6441222,95.0585765 36.1953092,89.5538756 C35.8167656,84.9110297 35.6464267,82.4254041 35.5414478,79.4793828 C34.4819362,49.7462996 35.126963,36.5748282 39.6694717,24.5011665 C45.490481,9.02934217 57.7156873,1.03722611 78.9566498,0.490824686 C79.5160967,0.476433503 80.1836737,0.447391595 81.1335961,0.398113878 C81.5223713,0.377945963 83.3633734,0.278262979 83.8932263,0.250696254 C89.8648795,-0.0599917062 94.2497684,-0.111509721 98.773163,0.227212008 C105.107148,0.701514751 110.284941,1.93125077 114.12364,4.13545335 C114.349914,4.26538155 114.627581,4.5821341 114.983929,5.08985388 C115.476902,4.71096398 115.990824,4.34609135 116.525538,3.99468549 Z M24.0966911,184.028876 C24.099953,184.031404 24.1023306,184.03282 24.1035232,184.03311 C24.1031369,184.033016 24.1008596,184.031605 24.0966911,184.028876 Z M46.87721,212.392196 C46.8839716,212.394614 46.8901636,212.395845 46.8955396,212.395574 C46.8937476,212.395665 46.8919298,212.395774 46.8900865,212.395902 L46.87721,212.392196 Z" id="hair-outline" fill="#000000" fill-rule="nonzero" opacity="0.05"></path>
                </g>
            </g>
        </g>
    </g>
</svg>