<?xml version="1.0" encoding="UTF-8"?>
<svg width="480px" height="300px" viewBox="0 0 480 300" version="1.1" xmlns="http://www.w3.org/2000/svg" xmlns:xlink="http://www.w3.org/1999/xlink">
    <!-- Generator: Sketch 50.2 (55047) - http://www.bohemiancoding.com/sketch -->
    <title>Avatars</title>
    <desc>Created with Sketch.</desc>
    <defs></defs>
    <g id="Avatars" stroke="none" stroke-width="1" fill="none" fill-rule="evenodd">
        <rect id="Frame" fill="#E6E6E6" x="0" y="0" width="480" height="300"></rect>
        <g id="Human" transform="translate(109.000000, 40.000000)">
            <g id="Male">
                <path d="M0,260 C2.61345846,231.589054 4.54367306,213.624197 5.7906438,206.10543 C6.68541535,200.710292 5.20053717,195.133286 5.81435651,189.699024 C6.44740122,184.094555 10.3354935,171.458456 21.3144531,163.789062 C31.817375,156.452207 49.3780752,153.994222 52.2201302,152.172926 C57.4199333,148.840695 62.4900557,145.154916 68.1930117,142.784289 C73.5782408,140.545735 84.6008458,135.936975 88.5341777,131.631616 C93.1896502,126.535814 91.9648976,108.699746 88.5341777,105.597656 C80.2675236,98.1228687 76.9474575,87.3522349 76.3184722,85.0064843 C73.7434861,75.4032778 72.5415812,28.3616231 80.2675236,21.0859032 C85.0456938,16.5861768 88.2197224,9.60756467 98.9609375,6.51953125 C120.554562,0.311496812 154.212806,2.25679144 163.33789,18.6818431 C171.464425,33.3095189 174.960294,83.0744191 167.833984,97.4609375 C162.462827,108.304172 161.499453,109.471127 158.920898,113.228516 C157.465876,115.348728 157.465876,119.217218 158.920898,124.833984 C167.929164,127.824726 176.998625,134.058655 186.470703,134.671875 C202.711571,135.723305 203.736003,134.210513 220.543945,142.784289 C238.15957,151.770065 251.322685,148.634397 258.293066,170.494993 C262.710421,184.348757 257.138315,203.64504 258.971249,215.588902 C259.996413,222.269126 261.005997,237.072826 262,260 L214.073604,260 L16.4091954,260 L0,260 Z" id="body" fill="#834D15"></path>
                <g id="nipples" opacity="0.700000048" transform="translate(87.000000, 223.000000)">
                    <path d="M5.5,17 C2.46243388,17 0,14.5375661 0,11.5 C0,8.46243388 2.46243388,6 5.5,6 C8.53756612,6 11,8.46243388 11,11.5 C11,14.5375661 8.53756612,17 5.5,17 Z" id="la" fill="#000000" fill-rule="nonzero" opacity="0.3"></path>
                    <circle id="ln" fill="#834D15" opacity="0.400000006" cx="5.5" cy="11.5" r="1.5"></circle>
                    <path d="M5.5,14 C4.11928813,14 3,12.8807119 3,11.5 C3,10.1192881 4.11928813,9 5.5,9 C6.88071187,9 8,10.1192881 8,11.5 C8,12.8807119 6.88071187,14 5.5,14 Z M5.5,13 C6.32842712,13 7,12.3284271 7,11.5 C7,10.6715729 6.32842712,10 5.5,10 C4.67157288,10 4,10.6715729 4,11.5 C4,12.3284271 4.67157288,13 5.5,13 Z" id="lno" fill="#000000" fill-rule="nonzero" opacity="0.3"></path>
                    <path d="M98.5,11 C95.4624339,11 93,8.53756612 93,5.5 C93,2.46243388 95.4624339,0 98.5,0 C101.537566,0 104,2.46243388 104,5.5 C104,8.53756612 101.537566,11 98.5,11 Z" id="ra" fill="#000000" fill-rule="nonzero" opacity="0.3"></path>
                    <circle id="rn" fill="#834D15" opacity="0.400000006" cx="98.5" cy="5.5" r="1.5"></circle>
                    <path d="M98.5,8 C97.1192881,8 96,6.88071187 96,5.5 C96,4.11928813 97.1192881,3 98.5,3 C99.8807119,3 101,4.11928813 101,5.5 C101,6.88071187 99.8807119,8 98.5,8 Z M98.5,7 C99.3284271,7 100,6.32842712 100,5.5 C100,4.67157288 99.3284271,4 98.5,4 C97.6715729,4 97,4.67157288 97,5.5 C97,6.32842712 97.6715729,7 98.5,7 Z" id="rno" fill="#000000" fill-rule="nonzero" opacity="0.3"></path>
                </g>
                <polygon id="armpit-l" fill="#000000" opacity="0.5" points="59 260 67 219 67 260"></polygon>
                <polygon id="armpit-r" fill="#000000" opacity="0.5" transform="translate(208.000000, 239.500000) scale(-1, 1) translate(-208.000000, -239.500000) " points="204 260 212 219 212 260"></polygon>
                <path d="M143.419799,242.452473 L144.408326,242.301433 C145.86787,247.782977 146.778678,251.979538 147.140748,254.891113 C147.502819,257.802689 147.502819,260.930348 147.140748,264.274089 L146.152221,264.42513 C145.918904,260.139505 145.673514,256.961499 145.41605,254.891113 C145.158586,252.820727 144.493169,248.674514 143.419799,242.452473 Z" id="abs-line" fill="#000000" fill-rule="nonzero" opacity="0.100000001"></path>
                <path d="M5.33207058,228.427201 L6.4017524,228.37358 C6.42211561,228.727584 6.49070749,229.928662 6.50384963,230.157489 C6.54196715,230.82118 6.57138245,231.323196 6.59989288,231.792868 C7.01519572,238.634448 7.49301239,241.02209 9.18803082,243.685157 C10.5416836,245.811899 12.3722049,247.684994 17.7078845,252.582943 L16.9568041,253.295964 C11.5485214,248.331368 9.68658444,246.426127 8.26710556,244.195964 C6.45657175,241.35141 5.9550563,238.845345 5.53038574,231.849444 C5.50180294,231.378579 5.47233371,230.875643 5.434163,230.211026 C5.42100841,229.981982 5.35241975,228.780961 5.33207058,228.427201 Z M2.12291253,253.436791 L1.14155426,253.035865 C2.01769018,251.167014 2.62082727,249.709232 3.09232597,248.396402 C3.15607683,248.218895 3.70918154,246.580567 3.84578236,246.278859 C4.24025093,245.407601 3.66732166,245.814446 7.39787808,243.486655 L7.99316689,244.318032 C4.61644225,246.425039 5.09711183,246.083708 4.83249299,246.668169 C4.71903953,246.918752 4.18929691,248.48788 4.10798625,248.71428 C3.62631421,250.055437 3.01171678,251.540918 2.12291253,253.436791 Z M63.9979399,205.413818 L65.0260755,205.133057 C65.2333226,205.794421 65.4583667,206.465209 65.7253211,207.225322 C68.2452293,214.400384 68.2642635,214.465612 68.1165785,216.923936 C67.9861199,219.095515 67.113648,221.131522 65.3264622,223.254278 L64.4842325,222.636347 C66.1399523,220.669741 66.9293024,218.827708 67.0470361,216.867943 C67.1833162,214.599463 67.161182,214.523612 64.7074087,207.536859 C64.4371164,206.767242 64.2087411,206.086525 63.9979399,205.413818 Z M79.3335398,148.57294 L78.853403,147.679013 C80.4227153,146.944478 81.9834041,146.530013 85.740096,145.71886 C89.4051821,144.927487 90.9249104,144.5239 92.3880535,143.839059 C93.6667509,143.240549 94.2364372,142.63051 95.2350599,141.080828 C96.3297391,139.382084 97.0146102,138.648702 98.5198632,137.94415 L99,138.838076 C97.7213026,139.436586 97.1516163,140.046625 96.1529936,141.596307 C95.0583144,143.295051 94.3734433,144.028433 92.8681903,144.732985 C91.298878,145.467521 89.7381892,145.881985 85.9814973,146.693138 C82.3164112,147.484511 80.7966829,147.888098 79.3335398,148.57294 Z" id="arm-lines-l" fill="#000000" fill-rule="nonzero" opacity="0.1"></path>
                <path d="M159.311958,226.427201 L160.422934,226.37358 C160.444084,226.727584 160.515323,227.928662 160.528973,228.157489 C160.568562,228.82118 160.599113,229.323196 160.628724,229.792868 C161.060059,236.634448 161.556322,239.02209 163.316776,241.685157 C164.722686,243.811899 166.623873,245.684994 172.165535,250.582943 L171.385459,251.295964 C165.768392,246.331368 163.834576,244.426127 162.360299,242.195964 C160.47987,239.35141 159.958994,236.845345 159.517929,229.849444 C159.488243,229.378579 159.457636,228.875643 159.417991,228.211026 C159.404329,227.981982 159.333093,226.780961 159.311958,226.427201 Z M157.160797,252.436791 L156.141554,252.035865 C157.051513,250.167014 156.496048,247.709232 156.985749,246.396402 C157.051961,246.218895 157.626418,244.580567 157.768292,244.278859 C158.177989,243.407601 157.582942,243.814446 161.457515,241.486655 L162.075785,242.318032 C158.568703,244.425039 159.067929,244.083708 158.793094,244.668169 C158.675261,244.918752 158.125068,246.48788 158.040618,246.71428 C157.540351,248.055437 158.083914,250.540918 157.160797,252.436791 Z M208.710302,197.413818 L209.778128,197.133057 C209.993376,197.794421 210.227108,198.465209 210.504368,199.225322 C213.121556,206.400384 213.141325,206.465612 212.987939,208.923936 C212.852444,211.095515 211.94629,213.131522 210.090111,215.254278 L209.215367,214.636347 C210.935006,212.669741 211.754828,210.827708 211.877107,208.867943 C212.018648,206.599463 211.995659,206.523612 209.447159,199.536859 C209.166432,198.767242 208.929241,198.086525 208.710302,197.413818 Z M239.715879,146.57294 L239.217207,145.679013 C240.847102,144.944478 242.46804,144.530013 246.369757,143.71886 C250.176333,142.927487 251.754729,142.5239 253.274356,141.839059 C254.602417,141.240549 255.194096,140.63051 256.23127,139.080828 C257.368209,137.382084 258.079519,136.648702 259.642882,135.94415 L260.141554,136.838076 C258.813493,137.436586 258.221815,138.046625 257.18464,139.596307 C256.047702,141.295051 255.336391,142.028433 253.773029,142.732985 C252.143134,143.467521 250.522195,143.881985 246.620478,144.693138 C242.813903,145.484511 241.235506,145.888098 239.715879,146.57294 Z" id="arm-lines-r" fill="#000000" fill-rule="nonzero" opacity="0.1" transform="translate(208.141554, 194.190471) scale(-1, 1) translate(-208.141554, -194.190471) "></path>
                <path d="M136.845198,202.439469 C136.755156,202.123783 140.681628,214.992194 141.41295,218.254317 C142.824581,224.551018 142.954847,230.181418 141.597771,237.312228 C140.736067,241.840087 136.32939,245.501037 129.505648,248.268542 C124.388315,250.343979 118.048063,251.780845 113.727661,252.090442 C111.658082,252.238747 109.577865,252.402943 107.284624,252.596298 C105.821914,252.719627 98.6939055,253.347634 96.8797871,253.495131 C93.3262175,253.784055 90.7189359,253.94107 88.4181291,253.986781 C82.9527083,254.095363 79.2258873,253.542679 76.3133986,252.044937 C70.2450135,248.924281 67.571498,241.663207 66,224.960111 L67.0877523,224.85865 C68.6263009,241.211535 71.1952492,248.188612 76.8147364,251.078424 C79.532265,252.475908 83.0965064,253.004481 88.3963343,252.899189 C90.6703599,252.85401 93.2577341,252.698194 96.7908718,252.410931 C98.6004929,252.2638 105.726228,251.635993 107.19244,251.512369 C109.489982,251.318652 111.574679,251.154101 113.649236,251.00544 C125.204817,250.177374 139.110753,244.537544 140.524358,237.109702 C141.853261,230.126928 141.72645,224.645904 140.346677,218.491305 C139.641291,215.344868 135.8806,203.001967 135.79456,202.736563 L136.845198,202.439469 Z M186.445353,246.176877 C185.817579,246.201441 185.379248,246.215368 184.170598,246.25115 C181.311704,246.33579 180.055132,246.399506 178.726195,246.563679 C163.879984,248.397742 155.052053,247.004569 149.60834,242.099495 C144.940487,237.893512 142.85662,231.928376 140.539082,218.748907 C140.364864,217.758157 140.18661,216.721133 139.948883,215.320914 C139.946941,215.309474 139.476614,212.532494 139.336635,211.711629 C138.817242,208.665814 138.403815,206.331675 137.955093,203.954818 L139.028802,203.753857 C139.47891,206.138048 139.893359,208.477958 140.413734,211.529534 C140.553835,212.351114 141.024262,215.128687 141.026114,215.139596 C141.263515,216.537896 141.441446,217.573036 141.615227,218.5613 C143.891017,231.503358 145.918783,237.307903 150.341407,241.292922 C155.494283,245.935937 164.030234,247.283031 178.591676,245.484148 C179.967081,245.314234 181.243118,245.249531 184.138128,245.163823 C185.343114,245.128148 185.779436,245.114285 186.402453,245.089907 C194.261905,244.782377 197.847869,243.540711 198.268071,239.923236 L198.288403,239.748204 L202.069395,235.639322 C202.814621,229.14939 202.939052,223.839369 202.863071,211.987884 C202.824633,205.992476 202.827801,203.328041 202.907798,200 L204,200.026028 C203.920356,203.339411 203.917196,205.996531 203.955563,211.98094 C204.032509,223.982809 203.904443,229.310634 203.134477,235.93919 L203.114145,236.114222 L199.330609,240.225869 C198.731375,244.502831 194.733847,245.852558 186.445353,246.176877 Z" id="breast" fill="#000000" fill-rule="nonzero" opacity="0.3"></path>
                <path d="M131.482855,97.1311035 C138.117061,97.1311035 145.70902,93.5267426 145.70902,92.6895035 C145.70902,91.584934 139.808339,90.8802994 131.482855,90.8802994 C123.157371,90.8802994 116,92.0806615 116,93.185231 C116,94.1411157 125.624874,97.1311035 131.482855,97.1311035 Z" id="lips" fill="#3E3E3E" opacity="0.100000001"></path>
                <path d="M117.77113,92.6349579 C123.821195,93.0741937 128.397819,93.293728 131.497635,93.293728 C134.604036,93.293728 138.88811,93.0732204 144.347202,92.6319897 C144.144415,92.5868212 143.929964,92.5387366 143.698897,92.486673 C138.305832,91.2715193 139.035628,91.2692712 136.599806,91.1555732 C136.167439,91.1353915 133.730868,90.9565198 133.214343,91.2680125 C133.189851,91.2827909 133.189851,91.2827909 133.165038,91.297771 C132.536491,91.6771071 132.167004,91.8251117 131.569982,91.8394277 C131.103015,91.8506251 130.677742,91.7448749 129.548316,91.3958901 C129.513318,91.3850773 129.513318,91.3850773 129.478377,91.3742926 C128.504808,91.0739119 125.902731,91.1264584 125.561079,91.1537954 C122.415529,91.4054835 120.949952,91.8092212 117.77113,92.6349579 Z M143.889911,93.6713193 C138.659529,94.0861933 134.529574,94.293728 131.497635,94.293728 C128.370196,94.293728 123.768953,94.0728743 117.690527,93.6313346 C119.904818,95.0269174 123.222934,96.1575359 127.811157,96.5246582 C128.152809,96.5519951 134.102137,96.6550414 134.534504,96.6348596 C137.416131,96.5003526 141.292652,95.0367169 143.889911,93.6713193 Z M117.206814,91.753322 C120.683148,90.8534963 122.183715,90.4213259 125.49353,90.1564941 C125.988487,90.1168906 128.635015,90.0745751 129.729625,90.4123012 C129.764803,90.4231589 129.764803,90.4231589 129.799909,90.4340052 C130.816456,90.7481112 131.216766,90.8476542 131.549689,90.839671 C131.961879,90.8297871 132.209671,90.7305296 132.718399,90.4235056 C132.743037,90.4086317 132.743037,90.4086317 132.767964,90.3935905 C133.419716,90.0005489 135.999773,90.1266435 136.639282,90.1564941 C139.145181,90.2734631 138.436643,90.2797318 143.885657,91.5074919 C144.127012,91.5618735 144.350098,91.6118815 144.560595,91.6587357 L144.399707,91.4559202 L145.096518,90.8029226 L146.747942,92.8847097 L146.165803,93.430245 L146.176871,93.4490228 C146.13885,93.4754953 146.100029,93.5021562 146.06043,93.5289931 L146.051131,93.5377073 L146.049882,93.536133 C143.629194,95.1728441 138.322522,97.4589664 134.57398,97.6339387 C133.934471,97.6637894 128.238565,97.5615629 127.743608,97.5219594 C122.083909,97.069104 118.320214,95.5274307 115.985741,93.6034147 L115.696812,93.9676389 L115,93.3146413 L116.651424,91.2328542 L117.206814,91.753322 Z" id="mouth-outline" fill="#000000" fill-rule="nonzero" opacity="0.3"></path>
                <path d="M94.0542835,159.284801 L92.5837796,158.812855 C93.6598174,157.607711 96.3255532,154.43586 96.7924119,153.950099 C97.8534293,152.846123 98.7328632,152.350571 100.192175,152.11167 C100.702529,152.028121 117.078369,151.790537 125.107953,150.078468 L125.348466,151.068017 C117.171811,152.11167 100.917298,153.029571 100.631531,153.076353 C99.6639133,153.23476 99.0990092,153.553078 98.2376049,154.449359 C97.7987162,154.906017 95.1499979,158.05762 94.0542835,159.284801 Z" id="collarbone-l" fill="#000000" fill-rule="nonzero" opacity="0.129999995" transform="translate(108.966123, 154.681635) scale(-1, 1) translate(-108.966123, -154.681635) "></path>
                <path d="M141.00367,159.284801 L139.704694,158.812855 C140.655217,157.607711 143.010006,154.43586 143.422408,153.950099 C144.359662,152.846123 145.136513,152.350571 146.425603,152.11167 C146.876426,152.028121 161.342094,151.790537 168.435062,150.078468 L168.64752,151.068017 C161.424637,152.11167 147.066144,153.029571 146.81371,153.076353 C145.958961,153.23476 145.45995,153.553078 144.699025,154.449359 C144.311331,154.906017 141.971574,158.05762 141.00367,159.284801 Z" id="collarbone-r" fill="#000000" fill-rule="nonzero" opacity="0.129999995"></path>
                <path d="M127.539225,104.211882 L127.218588,103.26468 C128.267514,102.909608 129.334935,102.834512 131.285645,102.863091 C131.713807,102.869364 132.147091,102.89699 132.604054,102.945222 C133.328113,103.021646 133.851951,103.106694 135.266031,103.360397 L135.089438,104.344681 C133.700277,104.095448 133.190366,104.012662 132.499088,103.939698 C132.070996,103.894513 131.667632,103.868794 131.270996,103.862983 C129.433966,103.83607 128.443589,103.905746 127.539225,104.211882 Z" id="jaw-line" fill="#000000" fill-rule="nonzero" opacity="0.3" transform="translate(131.242309, 103.601129) rotate(-4.000000) translate(-131.242309, -103.601129) "></path>
                <path d="M131.268198,118.721207 L130.700552,117.897934 C131.030547,117.670403 131.334591,117.472523 131.644549,117.280613 C131.824128,117.169427 132.320264,116.871277 132.285327,116.892529 C132.576893,116.715171 132.660863,116.645756 132.669678,116.624232 C132.680811,116.597049 132.671452,116.477918 132.596906,116.118368 C132.585437,116.063051 132.564735,115.964977 132.526568,115.783607 C132.49498,115.632348 132.468269,115.50029 132.441589,115.36181 C132.371678,114.998951 132.309867,114.63102 132.252869,114.223568 L133.243225,114.085026 C133.284648,114.381138 133.749907,116.625184 133.595074,117.003234 C133.431264,117.403205 131.295549,118.702348 131.268198,118.721207 Z" id="jaw-cleft" fill="#000000" fill-rule="nonzero" opacity="0.3" transform="translate(132.163532, 116.403117) rotate(-4.000000) translate(-132.163532, -116.403117) "></path>
                <path d="M135.326284,82.2478438 C134.971662,83.1400184 133.982302,83.5609297 132.169696,83.8084091 C128.570367,84.2998338 126.895739,83.862862 125.979609,82.3007468 C125.847807,82.311002 125.654963,82.3310824 125.2558,82.3737307 C124.842108,82.4161181 124.519243,82.4420444 124.197968,82.4544167 C123.57432,82.4784336 123.058674,82.4445456 122.634295,82.3279841 C121.375216,81.9821613 120.80361,80.6102156 121.060126,79.8537111 C121.265709,79.2474179 121.386862,78.9335462 121.523281,78.6832302 C121.925378,77.9454211 122.227472,77.8792281 123.461524,77.9592225 C124.200617,78.0071324 124.802842,78.0051122 125.644069,77.9180232 L125.74619,78.9044504 L126.054772,78.7896038 C126.165814,79.087964 126.252311,79.3913695 126.352575,79.8066673 C126.373611,79.8937976 126.391291,79.9687651 126.428442,80.1273528 C126.546297,80.629787 126.673913,81.054889 126.836556,81.4088001 C126.86162,81.4462064 126.881832,81.4872786 126.896115,81.5320612 C127.555912,82.8300902 128.779725,83.0831877 132.010456,82.6420886 C134.177924,82.3461591 134.478711,82.0742053 134.233925,80.6483763 C134.039634,79.5166755 131.141287,70.9862692 130.608142,69.281562 C129.985465,67.2905799 129.66019,65.2789403 129.261437,61.5155211 C129.296814,61.8494095 128.957369,58.5848499 128.851318,57.6298547 C128.674341,56.0361779 128.496108,54.6140452 128.286304,53.1691515 L129.451228,53 C129.663101,54.4591436 129.842931,55.8940079 130.021267,57.499933 C130.127854,58.4597515 130.467802,61.7291522 130.432025,61.3914912 C130.822972,65.0812254 131.138879,67.0349317 131.73162,68.930196 C132.08253,70.0522141 133.649134,74.6894476 134.620024,77.7686326 C135.187403,77.8051192 135.669393,77.7975124 136.230178,77.7611609 C137.46423,77.6811665 137.766324,77.7473595 138.168421,78.4851686 C138.30484,78.7354846 138.425993,79.0493563 138.631576,79.6556495 C138.888092,80.412154 138.316486,81.7840997 137.057408,82.1299225 C136.633028,82.246484 136.117382,82.2803719 135.493734,82.2563551 C135.445065,82.2544808 135.389248,82.2516438 135.326284,82.2478438 Z M135.471471,81.0902391 C135.495935,81.0826779 135.518455,81.0792935 135.539033,81.080086 C136.052659,81.0998658 136.460849,81.0730399 136.745636,80.9948191 C137.298652,80.842926 137.570193,80.1911831 137.516779,80.0336566 C137.333287,79.4925118 137.227631,79.2187889 137.134812,79.0484736 C137.037423,78.8697746 137.103177,78.8841824 136.306324,78.9358365 C135.847522,78.9655772 135.432868,78.9775289 134.990251,78.9644712 C135.204477,79.6737367 135.352259,80.2055249 135.394092,80.4491988 C135.433351,80.6778716 135.459386,80.8911686 135.471471,81.0902391 Z M125.920999,82.1974093 C125.846706,82.0619734 125.777595,81.9185557 125.712972,81.7670395 C125.699234,81.968737 125.793898,82.1112735 125.920999,82.1974093 Z M125.49168,81.1649442 C125.415469,80.9248878 125.346342,80.6687375 125.282407,80.3961745 C125.245395,80.2381927 125.228487,80.1665004 125.20831,80.082924 C125.118106,79.7092969 125.043047,79.44601 124.951559,79.2001927 L125.101745,79.1442972 C124.499308,79.1810884 123.979338,79.1724001 123.385378,79.1338981 C122.588525,79.0822441 122.654279,79.0678362 122.556891,79.2465352 C122.464071,79.4168506 122.358415,79.6905734 122.174923,80.2317182 C122.121509,80.3892448 122.39305,81.0409877 122.946066,81.1928808 C123.230854,81.2711015 123.639044,81.2979275 124.152669,81.2781476 C124.444233,81.2669194 124.744835,81.2427809 125.135817,81.2027205 C125.275461,81.1877365 125.392216,81.175294 125.49168,81.1649442 Z" id="nose" fill="#000000" fill-rule="nonzero" opacity="0.3"></path>
                <g id="eye-l" transform="translate(108.741880, 57.224317) rotate(-5.000000) translate(-108.741880, -57.224317) translate(91.741880, 47.224317)">
                    <path d="M20.12001,17.0993705 C23.2659011,17.0993705 26.1678039,16.7364235 28.8257182,16.0105294 C28.6740334,14.1314754 27.7189488,12.8746534 25.9604643,12.2400634 C23.2964714,11.2786995 19.9432497,10.1396323 17.9632471,10.1396323 C16.3036621,10.1396323 14.9035568,10.6000577 13.4680345,10.9836453 C12.6109424,11.2126698 11.4909497,11.8544055 10.1080564,12.9088523 C13.636801,15.7025311 16.9741188,17.0993705 20.12001,17.0993705 Z" id="eye-white" fill="#FFFFFF" opacity="0.800000012"></path>
                    <path d="M19.9424768,15.4702226 C22.1976978,15.4702226 24.0259156,13.6068026 24.0259156,11.3081576 C24.0259156,10.994585 22.3503038,10.4900948 18.99908,9.79468699 C16.9057187,9.27123734 15.8590381,9.77572753 15.8590381,11.3081576 C15.8590381,13.6068026 17.6872559,15.4702226 19.9424768,15.4702226 Z" id="iris" fill="#373737" opacity="0.700000048"></path>
                    <path d="M15.9045066,10.3676306 C14.8456376,10.632247 13.7198182,10.9396923 12.4530922,11.5021721 C11.7608836,11.8095419 11.0702858,12.4243965 10.2675895,12.8431639 C14.7841719,16.9901749 21.1605419,18.14179 28.9515716,15.6083901 L29.15491,16.2162009 C21.1061038,18.8334216 14.454887,17.6114746 9.75446957,13.2462484 L10.0274779,12.9605134 C9.98120574,12.9815441 9.93454659,13.0018037 9.88748042,13.0212038 L9.63707364,12.4307164 C10.6073734,12.0307723 11.201912,11.1695061 12.0085071,10.8149703 C17.4207713,8.43602941 19.5434412,8.31492745 27.5075296,11.5637049 L27.2593298,12.1550971 C24.5488568,11.0494184 22.6598438,10.3135653 21.0745475,9.97643599 C24.0423691,10.914332 27.0550766,12.1063955 27.6910533,12.4487498 C28.2153226,12.7309707 28.4094756,12.8621883 28.758396,13.6474444 C28.9134929,13.9964945 28.7099909,14.6607147 29.2456878,15.2066496 L28.7791092,15.6516506 C28.2080273,15.0696544 28.3069551,14.3907318 28.1537816,14.0429186 C27.8514929,13.3565072 27.6756075,13.2693997 27.1897468,12.9289379 C26.8305175,12.6772117 25.7150037,12.2157304 24.2743826,11.6997596 C24.3832683,12.2946139 24.3155271,12.9078256 24.0677709,13.393124 C23.3210148,14.8558499 21.9794581,15.822586 20.5238766,15.8618595 C17.4124827,15.9458088 14.8349317,13.2543766 15.9045066,10.3676306 Z M16.4730068,10.2269749 L16.6344652,10.3004087 C15.4524538,12.826473 17.7100648,15.2975229 20.506117,15.2220819 C21.7049774,15.1897351 22.8421375,14.3702888 23.4879022,13.1053819 C23.7193665,12.6519959 23.7378258,12.010959 23.5363959,11.4405105 C23.0480298,11.2721067 22.5339998,11.100786 22.0081588,10.931537 C21.8979169,10.9932253 21.816689,11.0257577 21.6902864,11.055559 L21.6080659,10.8137871 L21.6213042,10.8080794 C20.8732048,10.5713777 20.1083584,10.3412095 19.3655521,10.1315419 C19.3819742,10.2027163 19.4026448,10.2914544 19.4136612,10.3352213 L19.1616346,10.39688 C19.1409321,10.3146306 19.0892543,10.0876363 19.088686,10.085263 C19.0516044,9.93040344 19.0200711,9.84885224 18.9613424,9.76915592 C18.397213,9.78871429 17.8422061,9.87397622 17.2634067,10.0267789 C17.0026426,10.0956205 16.7395947,10.1611509 16.4730068,10.2269749 Z M19.2905319,9.84723483 L19.3140692,9.76544897 C19.2952792,9.76520039 19.2765076,9.76501953 19.2577522,9.76490989 C19.2695283,9.7907934 19.2803306,9.81800507 19.2905319,9.84723483 Z M22.3219658,12.2631031 L22.8429008,12.3804617 L22.8055292,12.6329808 C22.6255517,12.62141 22.5029236,12.5911636 22.2523463,12.5100245 L21.7314113,12.3926659 L21.7687829,12.1401469 C21.9487604,12.1517176 22.0713885,12.1819641 22.3219658,12.2631031 Z M21.2753149,14.220434 L21.0346463,14.316564 L20.5878621,13.2293474 L20.8285308,13.1332174 L21.2753149,14.220434 Z M21.8317648,11.6542045 L21.848662,11.3987403 L23.0529506,11.4761642 L23.0360533,11.7316285 L21.8317648,11.6542045 Z M16.9172183,11.6328758 L16.9341156,11.3774116 C17.0957376,11.3878023 17.2247776,11.3867506 17.5160112,11.3772109 C17.8156888,11.3673946 17.9505242,11.3662956 18.1234268,11.3774116 L18.1065295,11.6328758 C17.9449075,11.6224851 17.8158675,11.6235368 17.5246339,11.6330765 C17.2249563,11.6428928 17.0901209,11.6439918 16.9172183,11.6328758 Z M17.4287549,12.9402173 L17.3443586,12.6981092 C17.3705998,12.6891636 17.3705998,12.6891636 17.3961335,12.6802419 C17.5337485,12.6318596 17.6541554,12.5822637 17.7811015,12.5224055 C17.9122659,12.4605584 17.9075404,12.4630298 18.3322527,12.2374031 L18.455431,12.4627733 C18.0247779,12.6915561 18.0300127,12.6888183 17.8931399,12.7533571 C17.7582131,12.8169783 17.6295337,12.8699817 17.4833542,12.9213751 C17.4563873,12.9307975 17.4563873,12.9307975 17.4287549,12.9402173 Z M19.9565138,14.415917 L19.7076103,14.342962 C19.7721868,14.128817 19.8029361,13.9952701 19.8181063,13.8639782 C19.8312509,13.7502171 19.8334265,13.6634038 19.8333207,13.3816636 C19.8333121,13.3585614 19.8333121,13.3585614 19.8333092,13.3346459 L20.0929797,13.3346459 C20.0929826,13.3584847 20.0929826,13.3584847 20.0929912,13.3815688 C20.0931009,13.673748 20.0907923,13.7658691 20.0761082,13.892954 C20.0589571,14.0413893 20.0250599,14.188608 19.9565138,14.415917 Z M22.334034,13.3731204 L22.1640443,13.5666473 L21.3190532,12.8452217 L21.489043,12.6516949 L22.334034,13.3731204 Z M18.4540494,13.8717903 L18.2513778,13.7117447 L18.8471428,12.9784438 L19.0498145,13.1384894 L18.4540494,13.8717903 Z M17.5787877,10.3163027 L17.705457,10.0928213 L18.6407083,10.6080694 L18.5140389,10.8315509 L17.5787877,10.3163027 Z M19.9204204,12.7597086 C19.024095,12.7597086 18.4768115,12.3757634 18.4768115,11.66882 C18.4768115,10.9618765 19.2939248,10.5524619 20.1902501,10.5524619 C21.0865755,10.5524619 21.3640293,10.9618765 21.3640293,11.66882 C21.3640293,12.3757634 20.8167458,12.7597086 19.9204204,12.7597086 Z" id="eye" fill="#000000" fill-rule="nonzero" opacity="0.5"></path>
                    <path d="M29.4371892,17.1109718 L29.7307877,17.5156938 C24.835763,21.0667042 16.0086799,20.2621194 8.75982004,16.7569072 L8.97748474,16.3067716 C16.0782015,19.7403486 24.726037,20.5285951 29.4371892,17.1109718 Z" id="eye-line" fill="#000000" fill-rule="nonzero" opacity="0.3"></path>
                    <path d="M0.904202368,4.29614848 L1.7077952,1.37815459 C3.33171009,-0.08898098 5.19557094,-0.0260829952 11.9180563,0.869020253 C12.256713,0.91408134 12.3978362,0.932792026 12.5945472,0.958646972 C15.5987802,1.35351204 17.3036879,1.49633999 18.7082748,1.41056572 C19.2200991,1.37931002 19.7412915,1.3451951 20.3656096,1.30256835 C26.2119114,0.903398666 24.3709091,0.600146091 26.4819045,0.868815128 C29.411126,1.24162083 31.6115866,2.36686547 33.3726407,4.55255402 L30.7502324,6.5528133 C28.6010926,3.88546194 29.7455572,3.91222575 20.5988681,4.53673697 C19.9670174,4.57987802 19.4380548,4.61450154 18.9170036,4.6463207 C17.2192818,4.74999591 15.3712754,4.59517992 12.1484638,4.17158571 C11.949444,4.1454273 11.8064821,4.12647284 11.4662607,4.0812033 C6.52312227,3.42302124 1.34908634,3.89421541 0.904202368,4.29614848 Z" id="eye-brow" fill="#201D1D" fill-rule="nonzero"></path>
                    <path d="M11.5415091,3.54583269 C11.9529501,3.60054467 12.0295748,3.61069768 12.2228111,3.63609592 C15.5814969,4.07754894 17.3040392,4.2034031 18.8822155,4.1070282 C19.3873052,4.07618376 19.9096637,4.0421115 20.5599917,3.99770886 C29.5507653,3.38384314 28.7026852,3.37119729 30.8360205,5.8007738 L32.5820343,4.46899018 C31.0013153,2.69940648 29.0467375,1.74020153 26.4098729,1.40460446 C24.4085167,1.14988934 26.4013279,1.4321483 20.404486,1.84159645 C19.7598604,1.88560975 19.2424642,1.91936116 18.7430629,1.94985822 C17.3397722,2.03555333 15.6772739,1.90909068 12.5201999,1.49413676 C12.3283932,1.46892641 12.2522866,1.45884195 11.842757,1.40438409 C5.11198053,0.508176875 3.54244775,0.533959775 2.20171252,1.67241586 L1.69490993,3.51270959 C3.78296214,3.13933994 8.08714941,3.08588248 11.5415091,3.54583269 Z M0.904202368,4.29614848 L1.7077952,1.37815459 C3.33171009,-0.08898098 5.19557094,-0.0260829952 11.9180563,0.869020253 C12.256713,0.91408134 12.3978362,0.932792026 12.5945472,0.958646972 C15.5987802,1.35351204 17.3036879,1.49633999 18.7082748,1.41056572 C19.2200991,1.37931002 19.7412915,1.3451951 20.3656096,1.30256835 C26.2119114,0.903398666 24.3709091,0.600146091 26.4819045,0.868815128 C29.411126,1.24162083 31.6115866,2.36686547 33.3726407,4.55255402 L30.7502324,6.5528133 C28.6010926,3.88546194 29.7455572,3.91222575 20.5988681,4.53673697 C19.9670174,4.57987802 19.4380548,4.61450154 18.9170036,4.6463207 C17.2192818,4.74999591 15.3712754,4.59517992 12.1484638,4.17158571 C11.949444,4.1454273 11.8064821,4.12647284 11.4662607,4.0812033 C6.52312227,3.42302124 1.34908634,3.89421541 0.904202368,4.29614848 Z" id="eye-brow" fill="#000000" fill-rule="nonzero" opacity="0.05"></path>
                    <path d="M13.5109486,10.4608525 L13.4786559,10.5070639 C12.7634546,10.289894 12.2749282,10.0802836 12.0130765,9.87823252 C11.7512249,9.67618147 11.6576068,9.61477887 11.7322223,9.69402471 C11.9757025,9.62740586 12.2347751,9.70006547 12.50944,9.91200355 C12.7118313,10.0681735 12.9729507,10.1705388 13.2927984,10.2190993 L12.4119412,9.24293643 C12.5524631,9.12820882 12.7279669,9.2014243 12.9384528,9.46258286 C13.1489387,9.72374142 13.4416206,10.0154312 13.8164986,10.3376522 L13.5853803,10.5433375 L13.5109486,10.4608525 Z M12.0524956,11.0335486 L11.9140102,11.3165886 C11.1913814,11.0972232 10.6680264,10.8999957 10.3439454,10.7249063 C10.0198644,10.5498168 9.86724153,10.4758437 9.88607689,10.5029869 C10.2125165,10.4399132 10.5334926,10.4936064 10.8490051,10.6640665 C11.1645175,10.8345267 11.5656811,10.9576874 12.0524956,11.0335486 Z M14.4373244,10.1550166 L14.1988043,10.3511493 L13.0819545,9.09294486 C13.2074558,8.9877538 13.3668403,9.06492237 13.560108,9.32445056 C13.7533758,9.58397876 14.0457812,9.86083412 14.4373244,10.1550166 Z M16.3892416,9.97814947 L16.07641,10.0331984 C15.5990773,9.69194976 15.2682632,9.40405646 15.0839676,9.16951846 C14.899672,8.93498046 14.8026457,8.83984839 14.7928887,8.88412227 C14.9031543,8.73261873 15.0137761,8.74197576 15.124754,8.91219338 C15.2681986,9.1322083 15.2355304,8.82053422 15.3434235,8.95784103 C15.5765262,9.25449186 15.9251322,9.59459467 16.3892416,9.97814947 Z M17.6372098,9.7286794 L17.4067841,9.93522097 C17.0900017,9.73382019 16.8334662,9.51221637 16.6371776,9.27040953 C16.4408891,9.02860269 16.3304992,8.89185245 16.3060081,8.8601588 C16.4798333,8.81320087 16.6695972,8.9164238 16.8752997,9.1698276 C17.0810022,9.4232314 17.3349722,9.60951534 17.6372098,9.7286794 Z M18.9896093,9.70991814 L18.7648244,9.92321312 C18.3053187,9.60906007 17.9867391,9.34861692 17.8090856,9.14188366 C17.6314321,8.9351504 17.5902569,8.8501482 17.6855601,8.88687705 C17.8358634,8.81050301 17.9504856,8.84068228 18.0294266,8.97741485 C18.1308234,9.15304263 17.9865577,8.94894141 18.0789632,9.0564726 C18.2792803,9.28957916 18.5828289,9.50739434 18.9896093,9.70991814 Z M20.1879564,9.85759262 L19.9385558,10.0381639 C19.3580683,9.66988251 18.985514,9.36020986 18.820893,9.10914592 C18.656272,8.85808198 18.5424734,8.72957885 18.4794973,8.72363653 C18.6723497,8.5818615 18.7955676,8.59060936 18.8491509,8.7498801 C18.9255976,8.97710952 19.0635051,8.84108312 19.1516861,8.97556817 C19.3325794,9.25144909 19.6780029,9.54545724 20.1879564,9.85759262 Z M20.8488355,10.0241807 L20.5530385,10.092554 C20.2921013,9.63657216 20.1382743,9.29699759 20.0915574,9.0738303 C20.0448406,8.850663 20.0250047,8.73430137 20.0320498,8.7247454 C20.194021,8.68778955 20.2702521,8.72781673 20.260743,8.84482697 C20.244195,9.04845368 20.347018,9.09698529 20.3726252,9.21931119 C20.4203044,9.44707547 20.5790411,9.71536529 20.8488355,10.0241807 Z M21.4468697,10.1852435 L21.1440012,10.1857248 C20.9725458,9.87791421 20.8867,9.64195581 20.8864638,9.47784961 C20.8862277,9.31374342 20.9524571,9.18643682 21.085152,9.09592982 L21.4449472,8.84927356 C21.275633,9.1486243 21.1910725,9.36536278 21.1912655,9.49948901 C21.1914585,9.63361525 21.2766599,9.86220009 21.4468697,10.1852435 Z M22.1749087,10.1797138 L21.8720398,10.1797549 C21.7199691,9.88912769 21.6439251,9.67308417 21.6439077,9.53162436 C21.6438903,9.39016456 21.7408656,9.282555 21.9348336,9.2087957 L22.1747608,8.97614428 C22.0793132,9.23335223 22.0315975,9.42768732 22.0316136,9.55914955 C22.0316298,9.69061179 22.0793948,9.89746655 22.1749087,10.1797138 Z M10.9395342,13.4522092 L11.143629,13.7797833 C10.9515097,13.8140517 10.8365252,13.840477 10.7986755,13.859059 C10.5259089,13.9929716 10.3173439,14.0694715 10.1729804,14.0885585 C9.99856855,14.1116184 9.85029357,14.0633903 9.72815546,13.9438743 C9.84662886,13.8543715 10.0021849,13.7968852 10.1948235,13.7714155 C10.3874621,13.7459458 10.6356991,13.6395437 10.9395342,13.4522092 Z M11.2872424,13.7899791 L11.4390983,14.0653427 C11.2404569,14.2758576 11.0694559,14.4247642 10.9260951,14.5120625 C10.7827343,14.5993608 10.6440833,14.6628709 10.5101422,14.7025929 C10.5599375,14.5542746 10.6627821,14.4326503 10.818676,14.33772 C10.9745699,14.2427898 11.1307587,14.0602095 11.2872424,13.7899791 Z M11.8913649,13.9653369 L12.0689298,14.2231615 C11.8818744,14.4893481 11.7198341,14.6745432 11.5828091,14.7787469 C11.445784,14.8829506 11.3217249,14.9241349 11.2106317,14.9022997 L10.7063609,14.866499 C11.0612069,14.7584202 11.3068346,14.652513 11.4432441,14.5487775 C11.5796536,14.4450419 11.7290272,14.2505618 11.8913649,13.9653369 Z M12.2063041,14.5923874 L12.457314,14.7704795 C12.3060369,15.1678836 12.1879975,15.4325746 12.1031957,15.5645526 C11.975993,15.7625196 11.7742116,15.6820102 11.9665544,15.3826648 C12.0947829,15.1831012 12.1746995,14.9196754 12.2063041,14.5923874 Z M12.7294617,14.7357116 L12.9873947,14.9025233 C12.8356338,15.4011173 12.7108557,15.7339012 12.6130606,15.9008749 C12.4663679,16.1513355 12.223235,15.982206 12.3939296,15.690765 C12.5077261,15.496471 12.6195701,15.1781199 12.7294617,14.7357116 Z M13.8692971,15.1353058 L14.0860359,15.2554182 C13.9827065,15.6510975 13.889245,15.9190873 13.8056512,16.0593875 C13.7220575,16.1996877 13.6527653,16.2877949 13.5977746,16.323709 C13.4851929,16.2367449 13.473579,16.118279 13.562933,15.9683111 C13.6522869,15.8183432 13.7544082,15.5406748 13.8692971,15.1353058 Z M14.2120716,15.4150302 L14.5044429,15.4357871 C14.512552,15.8336117 14.4945578,16.0919931 14.4504602,16.2109312 C14.4063626,16.3298693 14.3693284,16.3850115 14.3393575,16.3763577 L13.8462894,16.5129292 C14.025935,16.3282784 14.1343682,16.1857578 14.1715891,16.0853673 C14.20881,15.9849768 14.2223041,15.7615311 14.2120716,15.4150302 Z M15.1762171,15.7060343 L15.3886272,15.7355809 C15.3699722,16.142898 15.35188,16.4140748 15.3343507,16.5491113 C15.3168213,16.6841478 15.3093003,16.7848525 15.3117875,16.8512253 C15.1643744,16.7861769 15.1001794,16.6803807 15.1192025,16.5338368 C15.1382256,16.3872929 15.1572305,16.1113588 15.1762171,15.7060343 Z M16.424179,16.0083651 L16.6905047,16.1599159 C16.6845582,16.4150925 16.6531578,16.5978427 16.5963034,16.7081665 C16.5110218,16.8736522 16.2841778,16.8129342 16.3818134,16.6234759 C16.4469039,16.4971704 16.4610257,16.2921335 16.424179,16.0083651 Z M17.4940301,16.4270095 L17.7966364,16.4402588 C17.8001214,16.7074141 17.799514,16.9002559 17.7948141,17.0187842 C17.7877643,17.1965766 17.5256113,17.1994611 17.5357795,16.9430257 C17.5425582,16.7720687 17.5286418,16.6000633 17.4940301,16.4270095 Z M12.9423263,10.8064896 L12.7914076,11.0824216 C12.1247932,10.8493415 11.6513174,10.6481485 11.3709802,10.4788426 C11.090643,10.3095368 10.9607449,10.2196551 10.9812858,10.2091975 C11.1483124,10.1669381 11.3580069,10.2220139 11.6103695,10.3744248 C11.8627321,10.5268358 12.3067177,10.6708574 12.9423263,10.8064896 Z M11.8061486,11.5360522 L11.7193636,11.8409651 C10.9230637,11.8614742 10.366577,11.8219664 10.0499035,11.7224418 C9.73323003,11.6229171 9.5737998,11.4617356 9.57161285,11.2388972 C9.9589288,11.3243684 10.3013038,11.4138431 10.5987378,11.5073211 C10.8961718,11.6007991 11.2986421,11.6103762 11.8061486,11.5360522 Z M15.2495933,10.1080091 L15.0032162,10.2931068 C14.5055908,9.90270712 14.1772808,9.59066451 14.0182863,9.35697894 C13.8592918,9.12329337 13.7898342,9.00422392 13.8099136,8.99977058 C14.0658863,9.02960119 14.2902431,9.186159 14.482984,9.469444 C14.6757249,9.752729 14.9312613,9.96558404 15.2495933,10.1080091 Z" id="eye-lashes" fill="#000000" fill-rule="nonzero" opacity="0.300000012" transform="translate(15.873261, 12.884189) rotate(-1.000000) translate(-15.873261, -12.884189) "></path>
                </g>
                <g id="eye-r" transform="translate(149.110119, 56.569045) scale(-1, 1) rotate(-5.000000) translate(-149.110119, -56.569045) translate(132.110119, 46.569045)">
                    <path d="M17.7689193,17.4267307 C20.8920252,17.4267307 23.7729099,17.0564036 26.4115733,16.3157494 C26.2609871,14.3984872 25.31282,13.1161093 23.567072,12.4686157 C20.922374,11.4877038 17.5934392,10.3254751 15.6277775,10.3254751 C13.9802127,10.3254751 12.5902482,10.7952627 11.1651231,11.18665 C10.3142389,11.4203314 9.20235813,12.075116 7.82948088,13.1510037 C11.3326672,16.0014884 14.6458134,17.4267307 17.7689193,17.4267307 Z" id="eye-white" fill="#FFFFFF" opacity="0.800000012"></path>
                    <path d="M17.592672,15.7644561 C19.8315587,15.7644561 21.646535,13.8631459 21.646535,11.5177608 C21.646535,11.1978122 19.9830594,10.6830638 16.6561081,9.97351574 C14.5779087,9.43942241 13.538809,9.95417076 13.538809,11.5177608 C13.538809,13.8631459 15.3537853,15.7644561 17.592672,15.7644561 Z" id="iris" fill="#373737" opacity="0.700000048"></path>
                    <path d="M13.5839482,10.5581094 C12.5327484,10.8281064 11.4150832,11.1418033 10.1575319,11.7157204 C9.47033694,12.0293402 8.78474099,12.6566971 7.98785851,13.0839795 C12.4717279,17.3153147 18.8019148,18.4903464 26.5365152,15.9054331 L26.7383808,16.525603 C18.7478709,19.1960415 12.144828,17.9492478 7.47845504,13.4952603 L7.74948598,13.2037152 C7.70354899,13.2251735 7.65722779,13.2458451 7.61050251,13.2656396 L7.36190939,12.6631455 C8.32518136,12.255069 8.91541388,11.3762901 9.71616687,11.0145452 C15.0892308,8.58723159 17.1965265,8.46366718 25.1029321,11.7785043 L24.85653,12.3819218 C22.1656886,11.2537605 20.2903574,10.5029448 18.7165432,10.1589604 C21.6628693,11.1159273 24.6537562,12.3322299 25.2851266,12.6815456 C25.8055987,12.9695051 25.9983454,13.1033908 26.3447387,13.904614 C26.4987122,14.2607617 26.2966841,14.9384879 26.828501,15.4955237 L26.3653018,15.9495733 C25.7983562,15.3557429 25.8965675,14.6630153 25.7445034,14.3081298 C25.4444041,13.607761 25.2697926,13.5188823 24.787451,13.1714976 C24.4308235,12.9146529 23.3233892,12.4437879 21.8932023,11.9173256 C22.0012994,12.5242755 21.9340489,13.1499561 21.6880871,13.6451224 C20.9467397,15.137591 19.6148997,16.1239844 18.1698607,16.1640564 C15.0810023,16.2497128 12.5221201,13.5035537 13.5839482,10.5581094 Z M14.1483308,10.4145937 L14.3086198,10.4895206 C13.1351696,13.0669492 15.376429,15.5882448 18.1522297,15.5112698 C19.342407,15.4782653 20.4713308,14.6421566 21.1124184,13.3515294 C21.3422062,12.8889243 21.3605317,12.2348528 21.1605607,11.652805 C20.6757319,11.4809769 20.1654249,11.3061726 19.6433925,11.1334821 C19.533949,11.1964248 19.4533095,11.2296187 19.3278224,11.260026 L19.2461974,11.013338 L19.2593398,11.0075141 C18.5166588,10.7659995 17.7573521,10.5311511 17.0199258,10.3172201 C17.036229,10.3898418 17.0567499,10.4803843 17.0676864,10.5250411 L16.8174853,10.5879536 C16.7969327,10.5040318 16.7456292,10.2724218 16.745065,10.2700002 C16.708252,10.1119918 16.6769471,10.0287824 16.6186437,9.94746553 C16.0586003,9.96742159 15.5076132,10.0544172 14.933006,10.2103269 C14.6741305,10.2805683 14.4129879,10.3474313 14.1483308,10.4145937 Z M16.9454487,10.0271334 L16.9688158,9.9436832 C16.9501619,9.94342956 16.9315263,9.94324503 16.9129067,9.94313316 C16.9245975,9.96954298 16.9353216,9.99730797 16.945449,10.0271321 Z M19.9549266,12.4921239 L20.4720885,12.6118689 L20.4349876,12.8695226 C20.2563137,12.8577165 20.1345738,12.8268551 19.8858114,12.7440662 L19.3686495,12.6243213 L19.4057504,12.3666675 C19.5844243,12.3784736 19.7061642,12.409335 19.9549266,12.4921239 Z M18.9158565,14.4892547 L18.676931,14.5873394 L18.2333828,13.4780156 L18.4723083,13.3799309 L18.9158565,14.4892547 Z M19.4682761,11.8708442 L19.485051,11.6101854 L20.680617,11.6891837 L20.6638421,11.9498425 L19.4682761,11.8708442 Z M14.589325,11.8490818 L14.6060999,11.588423 C14.7665513,11.599025 14.8946566,11.5979519 15.1837809,11.5882182 C15.481288,11.5782023 15.6151468,11.577081 15.7867971,11.588423 L15.7700222,11.8490818 C15.6095708,11.8384798 15.4814654,11.8395529 15.1923412,11.8492866 C14.894834,11.8593025 14.7609753,11.8604238 14.589325,11.8490818 Z M15.0971566,13.1830065 L15.0133715,12.9359754 C15.0394227,12.9268478 15.0394227,12.9268478 15.0647714,12.9177448 C15.2013898,12.8683787 15.3209245,12.8177742 15.4469512,12.756699 C15.5771656,12.6935942 15.5724743,12.6961159 15.9941105,12.4659014 L16.1163966,12.6958542 C15.6888626,12.929289 15.6940596,12.9264955 15.5581781,12.9923466 C15.4242286,13.0572615 15.2964812,13.1113427 15.1513604,13.1637811 C15.1245889,13.173395 15.1245889,13.173395 15.0971566,13.1830065 Z M17.6066073,14.6887126 L17.3595066,14.6142741 C17.4236153,14.3957748 17.4541419,14.2595123 17.4692022,14.1255508 C17.4822516,14.0094765 17.4844115,13.920898 17.4843064,13.633429 C17.4842979,13.609857 17.4842979,13.609857 17.484295,13.5854552 L17.7420848,13.5854552 C17.7420876,13.6097788 17.7420876,13.6097788 17.7420961,13.6333322 C17.7422051,13.9314525 17.7399132,14.0254468 17.7253355,14.1551158 C17.7083086,14.3065693 17.6746569,14.4567815 17.6066073,14.6887126 Z M19.9669074,13.6247121 L19.7981489,13.822174 L18.959278,13.0860792 L19.1280365,12.8886172 L19.9669074,13.6247121 Z M16.1150251,14.1335217 L15.9138213,13.9702218 L16.5052713,13.2220102 L16.706475,13.3853101 L16.1150251,14.1335217 Z M15.2461027,10.5057378 L15.3718546,10.2777122 L16.300332,10.8034373 L16.17458,11.0314629 L15.2461027,10.5057378 Z M17.5707753,12.9988273 C16.6809419,12.9988273 16.1376223,12.607075 16.1376223,11.8857568 C16.1376223,11.1644386 16.9488173,10.746699 17.8386507,10.746699 C18.7284841,10.746699 19.0039283,11.1644386 19.0039283,11.8857568 C19.0039283,12.607075 18.4606087,12.9988273 17.5707753,12.9988273 Z" id="eye" fill="#000000" fill-rule="nonzero" opacity="0.5"></path>
                    <path d="M27.0149186,17.4446195 L27.3137843,17.8454677 C22.4522511,21.4701466 13.6859226,20.6489038 6.48779052,17.0715357 L6.71031691,16.6237835 C13.7578295,20.1262959 22.3398511,20.9302726 27.0149186,17.4446195 Z" id="eye-line" fill="#000000" fill-rule="nonzero" opacity="0.3"></path>
                    <path d="M0.889892536,4.57563797 L1.68766506,1.59831039 C3.29981815,0.101342489 5.15017932,0.165519424 11.8239746,1.07882346 C12.1601785,1.1248008 12.3002796,1.14389195 12.4955658,1.17027262 C15.4780396,1.57316677 17.1705988,1.71889894 18.5650125,1.63138056 C19.0731298,1.59948931 19.5905473,1.56468072 20.2103435,1.5211872 C26.0143013,1.11390091 24.1649873,0.809798684 26.260693,1.08393076 C29.1686985,1.464317 31.3532215,2.61244205 33.1015205,4.84257379 L30.498106,6.88350579 C28.3645322,4.16191724 29.5223534,4.18390866 20.4419125,4.82111851 C19.8146382,4.86513679 19.2895068,4.90046433 18.7722296,4.93293049 C17.0868041,5.03871381 15.2521825,4.88074983 12.0527134,4.44854238 C11.855135,4.42185206 11.7132086,4.40251219 11.3754513,4.35632215 C6.46811538,3.6847568 1.33155427,4.1655321 0.889892536,4.57563797 Z" id="eye-brow" fill="#201D1D" fill-rule="nonzero"></path>
                    <path d="M11.4501547,3.81006546 C11.8586157,3.86588994 11.9346854,3.8762494 12.1265221,3.90216408 C15.4608815,4.35259348 17.1709476,4.48100673 18.7376934,4.38267217 C19.2391248,4.35120055 19.7576999,4.31643547 20.4033177,4.27112996 C29.3289724,3.64478206 28.4653889,3.63719568 30.5832727,6.11617453 L32.3166405,4.75731079 C30.7473703,2.95174485 28.8069492,1.97303569 26.1891831,1.63061468 C24.2023225,1.37072026 26.2023459,1.65340199 20.2489383,2.07117576 C19.6089816,2.11608401 19.0953328,2.1505217 18.5995487,2.18163888 C17.2064218,2.26907649 15.5559648,2.14004239 12.421757,1.71665091 C12.2313396,1.69092794 12.1557841,1.68063842 11.7492207,1.62507324 C5.06719435,0.710642788 3.50902948,0.73694995 2.178005,1.89855508 L1.67487312,3.77626885 C3.74780185,3.3953072 8.02081449,3.34076275 11.4501547,3.81006546 Z M0.889892536,4.57563797 L1.68766506,1.59831039 C3.29981815,0.101342489 5.15017932,0.165519424 11.8239746,1.07882346 C12.1601785,1.1248008 12.3002796,1.14389195 12.4955658,1.17027262 C15.4780396,1.57316677 17.1705988,1.71889894 18.5650125,1.63138056 C19.0731298,1.59948931 19.5905473,1.56468072 20.2103435,1.5211872 C26.0143013,1.11390091 24.1649873,0.809798684 26.260693,1.08393076 C29.1686985,1.464317 31.3532215,2.61244205 33.1015205,4.84257379 L30.498106,6.88350579 C28.3645322,4.16191724 29.5223534,4.18390866 20.4419125,4.82111851 C19.8146382,4.86513679 19.2895068,4.90046433 18.7722296,4.93293049 C17.0868041,5.03871381 15.2521825,4.88074983 12.0527134,4.44854238 C11.855135,4.42185206 11.7132086,4.40251219 11.3754513,4.35632215 C6.46811538,3.6847568 1.33155427,4.1655321 0.889892536,4.57563797 Z" id="eye-brow" fill="#000000" fill-rule="nonzero" opacity="0.05"></path>
                    <path d="M11.2077264,10.6532269 L11.1756676,10.7003779 C10.4656465,10.4787922 9.98065833,10.2649196 9.72070322,10.0587601 C9.46074812,9.85260057 9.36780812,9.78994942 9.44188323,9.87080662 C9.68359989,9.80283316 9.94079601,9.87697022 10.2134716,10.0932178 C10.414397,10.2525633 10.6736252,10.35701 10.9911563,10.406558 L10.1166789,9.41054604 C10.2561831,9.29348559 10.4304158,9.36818981 10.6393771,9.63465869 C10.8483385,9.90112758 11.1389005,10.1987485 11.5110633,10.5275215 L11.281619,10.7373891 L11.2077264,10.6532269 Z M9.75983683,11.237568 L9.62235445,11.5263632 C8.90495951,11.3025373 8.38539515,11.1012995 8.06366139,10.9226498 C7.74192762,10.7440001 7.59041021,10.6685229 7.60910915,10.696218 C7.93318444,10.6318618 8.25183571,10.6866468 8.56506297,10.860573 C8.87829023,11.0344993 9.27654819,11.1601643 9.75983683,11.237568 Z M12.1273926,10.3411722 L11.8906,10.541293 L10.7818395,9.25750458 C10.9064317,9.15017459 11.0646618,9.22891228 11.2565298,9.49371766 C11.4483977,9.75852303 11.7386853,10.0410079 12.1273926,10.3411722 Z M14.0651723,10.1607087 L13.7546065,10.2168769 C13.2807311,9.86868948 12.952313,9.57494224 12.7693523,9.33563521 C12.5863915,9.09632817 12.490068,8.99926172 12.4803816,9.04443585 C12.5898486,8.88985167 12.6996691,8.89939897 12.8098433,9.07307774 C12.9522489,9.29756639 12.9198173,8.97955481 13.026929,9.11965359 C13.2583433,9.42233643 13.6044244,9.7693548 14.0651723,10.1607087 Z M15.3041017,9.90616597 L15.0753449,10.1169073 C14.7608569,9.91141129 14.5061795,9.68530145 14.3113126,9.43857777 C14.1164457,9.19185409 14.0068554,9.05232321 13.9825417,9.01998511 C14.1551079,8.97207235 14.3434974,9.07739419 14.54771,9.33595063 C14.7519226,9.59450708 15.0040532,9.78457886 15.3041017,9.90616597 Z M16.6467059,9.88702322 L16.4235491,10.1046553 C15.9673715,9.78411434 15.6510994,9.5183754 15.4747326,9.30743849 C15.2983658,9.09650157 15.2574889,9.00977096 15.3521018,9.04724664 C15.5013165,8.96931963 15.6151084,9.00011256 15.6934777,9.13962542 C15.7941401,9.31882436 15.6509193,9.110573 15.7426555,9.2202907 C15.9415217,9.45813718 16.2428718,9.68038136 16.6467059,9.88702322 Z M17.8363735,10.0377005 L17.5887793,10.2219434 C17.0124962,9.84617352 16.6426403,9.53020407 16.4792116,9.27403507 C16.315783,9.01786606 16.2028086,8.88674999 16.1402886,8.88068684 C16.3317442,8.73602899 16.4540696,8.74495472 16.5072649,8.90746403 C16.5831578,9.13931388 16.7200665,9.00052155 16.8076088,9.13774118 C16.987192,9.41923179 17.3301136,9.71921822 17.8363735,10.0377005 Z M18.492466,10.2076759 L18.1988115,10.2774395 C17.9397642,9.81218585 17.7870513,9.46570646 17.7406728,9.23800134 C17.6942943,9.01029623 17.6746021,8.89156853 17.6815962,8.88181825 C17.8423942,8.84411095 17.9180732,8.88495204 17.908633,9.00434152 C17.8922049,9.21210873 17.9942831,9.26162717 18.0197048,9.3864404 C18.0670387,9.61883598 18.2246257,9.89258114 18.492466,10.2076759 Z M19.0861688,10.3720138 L18.7854939,10.3725048 C18.6152803,10.0584353 18.5300563,9.81767897 18.5298218,9.65023588 C18.5295874,9.48279279 18.5953371,9.35289758 18.7270709,9.26055024 L19.0842602,9.00887853 C18.9161723,9.31431618 18.8322242,9.53546177 18.8324158,9.67231529 C18.8326074,9.80916881 18.9171917,10.0424016 19.0861688,10.3720138 Z M19.8089346,10.3663716 L19.5082594,10.3664136 C19.3572902,10.0698768 19.2817969,9.84944028 19.2817796,9.70510407 C19.2817624,9.56076786 19.3780353,9.4509702 19.5705983,9.3757111 L19.8087878,9.13832901 C19.7140315,9.40076695 19.6666614,9.5990536 19.6666775,9.73318895 C19.6666935,9.8673243 19.7141126,10.0783852 19.8089346,10.3663716 Z M8.65493644,13.705409 L8.85755295,14.0396439 C8.66682519,14.0746091 8.55267351,14.1015717 8.51509792,14.1205316 C8.24430697,14.2571672 8.03725255,14.3352225 7.89393464,14.3546977 C7.72078604,14.3782265 7.573585,14.3290177 7.45233152,14.2070714 C7.56994683,14.1157488 7.72437618,14.0570936 7.91561956,14.0311059 C8.10686294,14.0051183 8.3533019,13.8965527 8.65493644,13.705409 Z M9.00012619,14.050047 L9.15088223,14.3310098 C8.9536796,14.5458052 8.78391706,14.6977396 8.6415946,14.786813 C8.49927215,14.8758864 8.36162543,14.940688 8.22865444,14.9812177 C8.27808905,14.8298835 8.38018875,14.7057861 8.53495355,14.6089256 C8.68971834,14.5120651 8.84477589,14.3257722 9.00012619,14.050047 Z M9.59987313,14.2289705 L9.77615196,14.4920376 C9.59045136,14.7636368 9.42958475,14.9525976 9.29355213,15.0589202 C9.1575195,15.1652427 9.03435891,15.2072644 8.92407035,15.1849852 L8.42345192,15.1484566 C8.77572784,15.0381801 9.01957654,14.9301195 9.15499801,14.8242746 C9.29041948,14.7184297 9.43871119,14.519995 9.59987313,14.2289705 Z M9.9125313,14.8687713 L10.1617232,15.0504846 C10.0115417,15.4559694 9.89435722,15.7260426 9.81016965,15.8607042 C9.68388829,16.0626966 9.48356832,15.9805502 9.67451804,15.675118 C9.80181785,15.4714965 9.8811556,15.2027143 9.9125313,14.8687713 Z M10.4318997,15.0150098 L10.6879646,15.1852134 C10.5373028,15.6939456 10.4134285,16.0334963 10.3163417,16.2038652 C10.1707114,16.4594186 9.92933954,16.2868501 10.0987979,15.989483 C10.2117701,15.7912382 10.322804,15.4664139 10.4318997,15.0150098 Z M11.5634794,15.4227292 L11.7786484,15.545284 C11.6760675,15.9490089 11.5832828,16.2224479 11.5002946,16.365601 C11.4173063,16.508754 11.3485159,16.5986527 11.2939235,16.6352971 C11.1821573,16.5465647 11.1706275,16.4256899 11.2593343,16.2726726 C11.348041,16.1196553 11.4494227,15.8363409 11.5634794,15.4227292 Z M11.9037712,15.7081415 L12.1940249,15.7293205 C12.2020754,16.1352343 12.1842115,16.3988695 12.1404333,16.5202261 C12.0966551,16.6415827 12.0598891,16.6978461 12.0301353,16.6890163 L11.5406383,16.8283649 C11.7189828,16.6399594 11.8266307,16.4945408 11.863582,16.392109 C11.9005333,16.2896772 11.9139297,16.061688 11.9037712,15.7081415 Z M12.8609336,16.0050627 L13.0718052,16.0352102 C13.0532853,16.4508095 13.0353242,16.7275003 13.0179218,16.8652826 C13.0005195,17.003065 12.9930529,17.1058173 12.9955221,17.1735397 C12.8491767,17.1071687 12.7854466,16.9992213 12.8043319,16.8496976 C12.8232173,16.7001739 12.8420845,16.418629 12.8609336,16.0050627 Z M14.0998567,16.3135411 L14.3642535,16.4681735 C14.35835,16.7285388 14.327177,16.915005 14.2707344,17.0275721 C14.1860705,17.1964227 13.9608695,17.1344701 14.057798,16.9411594 C14.122417,16.8122856 14.1364365,16.6030795 14.0998567,16.3135411 Z M15.161959,16.7406981 L15.4623735,16.7542168 C15.4658333,17.0268044 15.4652303,17.2235674 15.4605645,17.3445058 C15.4535658,17.5259134 15.1933115,17.5288565 15.203406,17.2672068 C15.2101356,17.0927737 15.19632,16.9172708 15.161959,16.7406981 Z M10.6432226,11.0058921 L10.493397,11.2874348 C9.83161072,11.0496153 9.36156424,10.8443313 9.08325748,10.6715828 C8.80495073,10.4988344 8.67599345,10.407125 8.69638564,10.3964547 C8.86220242,10.3533361 9.07037819,10.4095318 9.32091295,10.5650418 C9.57144771,10.7205519 10.0122176,10.8675019 10.6432226,11.0058921 Z M9.51527405,11.7502894 L9.42911765,12.0614023 C8.63858525,12.0823284 8.08612911,12.0420173 7.77174922,11.940469 C7.45736934,11.8389206 7.29909384,11.6744616 7.29692272,11.4470921 C7.6814334,11.5343013 8.02132862,11.6255953 8.31660837,11.7209741 C8.61188812,11.8163529 9.01144334,11.8261247 9.51527405,11.7502894 Z M12.9337784,10.2932089 L12.6891857,10.4820702 C12.1951645,10.0837323 11.8692325,9.76534473 11.7113895,9.52690746 C11.5535466,9.28847019 11.4845921,9.16697961 11.504526,9.16243572 C11.7586448,9.1928729 11.9813766,9.35261411 12.1727215,9.64165935 C12.3640664,9.93070459 12.617752,10.1478878 12.9337784,10.2932089 Z" id="eye-lashes" fill="#000000" fill-rule="nonzero" opacity="0.300000012" transform="translate(13.552929, 13.125839) rotate(-1.000000) translate(-13.552929, -13.125839) "></path>
                </g>
                <path d="M83.944786,68.0195855 C83.811217,68.2705932 83.6465892,68.5504267 83.4389494,68.8899914 C82.8905567,69.7868081 82.6856455,70.1979855 82.5470673,70.7955699 C82.4537359,71.1980389 82.4641416,71.6381333 82.5580192,72.6917119 C82.6624148,73.8633327 82.6740394,74.3549725 82.5470673,74.9025084 L81.5729174,74.6766057 C81.6662489,74.2741368 81.6558431,73.8340424 81.5619655,72.7804638 C81.4575699,71.6088429 81.4459453,71.1172032 81.5729174,70.5696672 C81.74314,69.8356241 81.9835425,69.3532296 82.5858107,68.3683073 C83.0840436,67.5535196 83.2987558,67.1395944 83.4377899,66.6225421 C83.3118421,66.3352737 83.2191775,66.0846803 83.0580207,65.6214166 C82.5921699,64.2826604 82.1706171,63.492131 80.8391278,61.7564831 L81.6325519,61.1478138 C83.0300052,62.9694483 83.5020556,63.8546748 83.9952969,65.2721422 C84.1830646,65.8118993 84.2692015,66.039501 84.4193877,66.3675437 C85.1597336,67.984637 85.2676469,69.2612258 85.2361586,73.4003145 C85.21688,75.9344468 85.2325789,77.3494209 85.3347414,79.2673495 L84.3361571,79.3205412 C84.2326506,77.3773812 84.2167658,75.945654 84.2361875,73.3927072 C84.2578326,70.5474891 84.2121142,69.1232755 83.944786,68.0195855 Z" id="ear" fill="#000000" fill-rule="nonzero" opacity="0.3"></path>
                <path d="M173.949689,55.3563776 C178.438767,63.9424028 175.310718,77.4251792 176.087859,87.0537109 C176.575937,93.1008482 171.820547,97.4618593 170.669623,103.555664 C169.78711,108.22831 172.768058,114.102278 170.669623,116.766602 C167.924769,120.251665 167.753,120.804422 163.75293,123.238281 C163.346013,123.485871 160.828568,127.274141 160.467773,127.552734 C156.629627,130.516416 152.695254,131.323897 147.286133,132.302734 C144.587734,132.791038 138.435313,134.941261 135.681641,135 C133.972154,135.036465 126.866575,135.132722 125.162109,135 C118.91226,134.513343 115.327484,130.401477 109.777751,127.552734 C107.594048,126.431814 103.741805,119.286927 101.798196,117.866541 C97.026915,114.379694 93.0757744,109.995985 90.4195265,104.742307 C90.5391439,105.265672 90.6628108,105.802741 90.7905273,106.353516 C91.6790447,115.678964 92.1375408,120.733473 92.1660156,121.517044 C92.1944904,122.300614 91.7359944,124.806993 90.7905273,129.036183 L89.6640625,131.248047 L88.6839553,135 C83.1327329,127.018802 77.0881614,122.524483 70.5502408,121.517044 C64.9873739,120.659852 76.1790063,111.22294 76.2473245,105.580099 C76.4428384,89.4313444 72.4611423,73.49197 71.3267258,57.3821318 C69.4727059,31.0532126 75.9331716,12.626083 93.9804688,5.2397173 C102.440485,1.77721693 112.796292,2.04150445 125.162109,1.3515625 C133.396668,0.892121157 148.919067,0.105854993 159.202526,5.2397173 C173.930262,12.592318 179.341792,41.2998319 176.087859,54.663603 C175.901448,55.4291851 175.019685,55.5463468 173.949689,55.3563776 Z M170.728718,54.2292336 C170.401049,54.0691513 170.110347,53.9124671 169.877441,53.7731988 C166.630908,51.8318975 158.789615,48.3071913 154.354004,46.1914062 C147.464844,42.9052791 145.842739,31.784668 145.92627,29.0053711 C146.141553,21.8423069 145.842739,27.9535971 139.155484,27.1549715 C132.36805,26.344382 125.53609,25.6427414 118.700894,25.6967733 C115.135117,25.7249605 111.448144,26.0680625 108.138981,27.4001552 C100.829794,30.3424444 91.7090115,33.8131934 87.1996247,40.2880916 C83.0831184,46.1988641 85.4723424,54.6377747 85.4793457,61.8470572 C85.4801342,62.6588254 83.5192696,59.3202603 81.9894529,58.9209825 C80.2280691,58.4612665 78.8687013,60.9147785 78.9349923,61.8470572 C79.1458205,64.8120213 79.3666951,77.8439197 80.3356684,80.2089556 C81.772632,83.7162456 84.6127729,84.6514458 86.3600597,87.0592949 C99.6279204,87.2314725 97.3692434,91.3689917 99.7275391,97.1943359 C100.543637,99.21022 109.485553,110.853606 112.304688,111.705078 C114.268846,112.29832 120.553114,116.159784 123,116.766602 C129.909676,118.480174 129.694232,118.170501 135.681641,117.866541 C141.596153,117.566282 145.212797,117.947624 150.115234,115.361328 C154.256808,113.176428 155.775948,109.261552 159.202526,105.580099 C162.296512,102.255976 165.160123,96.482237 167.682617,92.3960943 C169.694817,89.1365694 170.361589,86.6609534 170.669623,82.668457 C171.14907,76.4542349 169.549187,59.4320267 170.728718,54.2292336 Z" id="hair" fill="#201D1D"></path>
                <path d="M91.6663454,121.535201 C91.6384448,120.767431 91.1786167,115.698238 90.3034511,106.466461 C90.175617,105.91518 90.0518319,105.377597 89.9320955,104.853712 L89.0212935,100.86866 L90.8657365,104.516704 C93.4080343,109.545005 97.2271005,113.906703 102.093213,117.462851 C102.936961,118.079461 103.526673,118.857763 105.994179,122.373783 C106.147519,122.592282 106.278738,122.778617 106.404114,122.95574 C108.152218,125.425347 109.233278,126.711225 110.006082,127.107914 C111.276629,127.760101 112.451894,128.470302 114.040244,129.511557 C114.103445,129.552989 115.895118,130.738498 116.406689,131.068323 C119.80248,133.25769 122.172997,134.265733 125.200925,134.501509 C126.536342,134.605494 132.174225,134.574704 135.670977,134.500114 C136.801231,134.476004 138.553022,134.09877 141.319411,133.344705 C141.571265,133.276055 141.835011,133.20343 142.131506,133.121194 C146.18474,131.99699 146.220282,131.987491 147.197099,131.810725 C154.166734,130.549496 156.931093,129.651923 160.162189,127.156984 C160.244009,127.093806 160.595017,126.617122 161.676962,125.106148 C162.829598,123.497038 163.227623,122.972625 163.493032,122.811136 C165.077078,121.847317 166.013066,121.20621 166.745629,120.57946 C167.127061,120.253123 167.466155,119.91954 167.81908,119.526413 C168.12422,119.186514 168.438741,118.804791 168.881647,118.242299 C169.036251,118.045951 169.958654,116.861205 170.276825,116.457232 C171.140352,115.360836 171.119061,114.0141 170.474336,110.008077 C170.299679,108.92284 170.207573,108.295177 170.130708,107.607161 C169.950795,105.996767 169.949755,104.672998 170.178309,103.462871 C170.583433,101.317859 171.267471,99.6383733 172.825194,96.5165203 C173.020692,96.1251393 173.12343,95.9193916 173.214508,95.7362121 C173.360366,95.4428585 173.481413,95.197115 173.595521,94.9620499 C175.170247,91.7180777 175.789051,89.5665707 175.589479,87.0939363 C175.367869,84.3482498 175.414771,82.0233562 175.695448,76.2518902 C175.775076,74.6145177 175.813143,73.7818127 175.849565,72.8173014 C176.157353,64.6664568 175.623937,59.6377711 173.506596,55.5880423 L173.035068,54.6861748 L174.037093,54.8640763 C175.012568,55.0372641 175.515084,54.9024911 175.602052,54.5453144 C177.242344,47.8087008 176.616231,37.3264175 173.907513,27.8346816 C170.852625,17.1299161 165.635987,9.01037196 158.979193,5.68706771 C150.815761,1.61159698 140.758393,0.982156619 125.189963,1.85078606 C123.147108,1.9647657 122.124889,2.01127633 117.870798,2.1937327 C105.099027,2.74150918 99.8008495,3.3978188 94.1698594,5.7024604 C77.0462222,12.7107922 69.9017619,30.0281548 71.8254907,57.34701 C72.2076311,62.7737808 72.74835,67.1147752 74.1367707,76.8424584 C74.2874697,77.8982992 74.3522589,78.3528745 74.4344742,78.932229 C76.1694701,91.1583829 76.8391944,97.9949932 76.7472878,105.586152 C76.7272218,107.243531 75.892149,109.170348 74.2743824,111.749821 C73.9192074,112.316135 73.5365088,112.899579 73.0387123,113.63973 C70.4035059,117.557901 70.2396732,117.814718 69.7808749,118.944012 C69.234278,120.289415 69.4360054,120.839448 70.6263879,121.022876 C77.0702332,122.015819 83.0175696,126.298014 88.4712637,133.835924 L89.180296,131.121675 L90.3163274,128.865535 C91.2391028,124.733385 91.6923703,122.251354 91.6663454,121.535201 Z M176.848852,72.855036 C176.812253,73.8242643 176.774066,74.6595936 176.694268,76.3004646 C176.41584,82.0256884 176.369411,84.3270726 176.586238,87.0134856 C176.803478,89.705023 176.141115,92.0079794 174.495129,95.3987481 C174.379465,95.6370175 174.257089,95.8854606 174.109933,96.1814248 C174.01841,96.3654996 173.915207,96.572178 173.719988,96.9629991 C172.201626,100.00597 171.543875,101.620913 171.160937,103.648457 C170.953748,104.745463 170.954715,105.976166 171.124525,107.496132 C171.199108,108.163714 171.289393,108.778971 171.461632,109.849183 C172.161162,114.195743 172.18418,115.651706 171.062421,117.075971 C170.746548,117.477026 169.824198,118.661705 169.667322,118.860939 C169.212238,119.438896 168.885516,119.835426 168.563211,120.194447 C168.181772,120.619336 167.81148,120.98361 167.395725,121.339312 C166.613898,122.00821 165.638909,122.676031 164.012828,123.665426 C163.936641,123.711783 163.389108,124.433178 162.523051,125.64221 C161.122113,127.598662 160.984666,127.785319 160.773358,127.948485 C157.378489,130.569883 154.493627,131.506583 147.375167,132.794743 C146.445617,132.962955 146.389056,132.978073 142.398776,134.084816 C142.100947,134.167422 141.835813,134.240429 141.582397,134.309505 C138.731565,135.086587 136.935438,135.473369 135.692304,135.499886 C132.149995,135.575448 126.50736,135.606264 125.123293,135.498491 C121.897484,135.247307 119.387474,134.179946 115.864818,131.908785 C115.347316,131.575136 113.550807,130.386427 113.491993,130.347871 C111.930675,129.324337 110.782533,128.630526 109.54942,127.997554 C108.566262,127.492888 107.454463,126.170447 105.587902,123.533493 C105.461656,123.35514 105.329693,123.167748 105.175636,122.948229 C102.830942,119.607207 102.208448,118.78564 101.50318,118.270231 C97.3530788,115.237342 93.9401147,111.626653 91.4038256,107.520289 C92.2190231,116.096633 92.6379199,120.734824 92.6656858,121.498886 C92.6964816,122.346324 92.2373907,124.855955 91.2784825,129.145269 L90.1341575,131.426755 L88.8933474,136.176706 L88.2734806,135.285501 C82.7940006,127.407449 76.8598023,122.995196 70.4740936,122.011211 C68.5542793,121.715384 68.0899402,120.44931 68.8544148,118.567619 C69.3533741,117.339472 69.5024471,117.105792 72.2089261,113.081649 C72.7012928,112.34957 73.0786408,111.774284 73.4272111,111.218501 C74.9523348,108.786744 75.7301946,106.991938 75.7473611,105.574046 C75.8384746,98.0483985 75.1725849,91.250933 73.4443937,79.0727299 C73.3622288,78.4937308 73.2974642,78.0393286 73.1468035,76.9837552 C71.7550151,67.2324775 71.2123337,62.8757279 70.8279609,57.4172536 C68.8771709,29.7141042 76.1939326,11.9791026 93.7910781,4.7769742 C99.5680038,2.41260433 104.936789,1.74754815 117.827948,1.1946512 C122.077151,1.01240447 123.097436,0.965981827 125.134256,0.852338938 C140.88328,-0.0263666707 151.047876,0.609784496 159.425859,4.7923669 C166.382116,8.26517352 171.744722,16.6119127 174.869123,27.5602609 C177.622268,37.2076752 178.258643,47.8617561 176.573665,54.7818916 C176.378229,55.5845386 175.729902,55.9331397 174.792006,55.9371934 C176.68056,60.0365498 177.14315,65.0614564 176.848852,72.855036 Z M84.6332359,55.8998589 C84.5783102,55.2533087 84.5509363,54.926723 84.5202736,54.5468263 C83.9434871,47.4007187 84.3471102,43.5090453 86.789324,40.0023412 C89.6891179,35.8386109 94.3798233,32.7279399 101.464917,29.6136944 C103.220576,28.8419962 103.385515,28.774657 107.952268,26.9363253 C110.969619,25.7217007 114.387173,25.2308574 118.696942,25.1967889 C124.634381,25.1498537 130.410698,25.6070722 139.214775,26.6584993 C141.072304,26.8803348 142.497058,26.5828602 143.781635,25.9122849 C143.987365,25.8048897 144.181015,25.6929508 144.405516,25.5546209 C144.430308,25.5393446 144.812126,25.3001624 144.909515,25.2423692 C145.415481,24.9421167 145.726945,24.8540445 146.078213,25.1393084 C146.510227,25.4901461 146.521806,25.8341115 146.426044,29.0203916 C146.25705,34.6432936 149.305356,43.2292332 154.569268,45.7401178 C155.726626,46.292177 160.737527,48.632974 161.465946,48.9761905 C161.740189,49.1054085 162.00533,49.2306306 162.263392,49.3528305 C166.048071,51.1449875 168.595439,52.4240396 170.134046,53.3440668 C170.359989,53.4791723 170.640021,53.629421 170.9482,53.779981 L171.303864,53.9537401 L171.216344,54.3397838 C170.705742,56.5919999 170.680659,60.7630107 170.96263,68.8146005 C170.979816,69.3053495 170.99715,69.7887662 171.023198,70.5072679 C171.291845,77.9175565 171.340769,80.4694574 171.168141,82.7069193 C170.841336,86.942723 170.092237,89.4446376 168.108077,92.6587428 C167.653738,93.3947185 167.178135,94.2000766 166.530595,95.3217254 C166.603398,95.1956199 165.251333,97.5468349 164.865033,98.2097263 C162.730042,101.873374 161.189053,104.179686 159.568522,105.920756 C159.188285,106.329275 158.816675,106.757098 158.440529,107.216489 C158.033143,107.714036 157.632838,108.232342 157.156253,108.872792 C156.938244,109.16576 156.136401,110.257892 155.951653,110.50648 C153.925813,113.232347 152.497113,114.670073 150.348536,115.803562 C148.62941,116.710492 147.000823,117.296302 145.271513,117.657083 C143.519015,118.022702 142.061573,118.136543 138.795301,118.245574 C137.0649,118.303336 136.597813,118.320674 135.706991,118.365898 C134.842079,118.410058 132.662689,118.538297 132.35099,118.554271 C131.348348,118.605653 130.665166,118.618104 129.988079,118.589674 C128.353742,118.52105 126.783519,118.220045 122.879648,117.251901 C121.833577,116.992479 120.29064,116.271101 117.616682,114.871601 C117.434197,114.776015 117.434197,114.776015 117.252,114.68033 C113.456192,112.685809 112.907331,112.409405 112.160121,112.183723 C109.58953,111.407318 100.440298,100.287403 99.2640772,97.3819609 C98.8218687,96.2896394 98.7333537,95.9836617 98.1075625,93.6096367 C96.8760829,88.9378495 94.9954809,87.6713992 86.3535718,87.5592528 L85.9553821,87.3529545 C85.4456441,86.65051 84.8998352,86.1197188 83.814457,85.2014162 C83.8721087,85.2501934 83.4365525,84.8822941 83.3219799,84.7848169 C81.5356078,83.2649894 80.5951948,82.1612362 79.872995,80.3985164 C79.4036521,79.2529609 79.0915606,76.0573543 78.834297,70.9373055 C78.7421569,69.1035379 78.4887359,62.6206289 78.4362516,61.8825209 C78.3224154,60.2815943 80.2378413,57.9470677 82.1157216,58.437189 C82.4503036,58.5245139 82.7902902,58.7110441 83.1477922,58.9842007 C83.5143966,59.2643122 83.8899822,59.6269861 84.3133402,60.0910499 C84.4432847,60.2334886 84.7211883,60.5527628 84.965714,60.8335985 C84.9329929,59.6141556 84.8371975,58.300765 84.6332359,55.8998589 Z M169.620837,54.2023308 C168.119607,53.3046533 165.590267,52.0346532 161.83542,50.2566224 C161.577955,50.134705 161.313391,50.0097554 161.039711,49.8808028 C160.314519,49.5391068 155.300444,47.1968273 154.138739,46.6426947 C150.917492,45.1061606 148.580479,41.8745929 147.054193,37.5756142 C145.962518,34.5007743 145.367888,30.9403619 145.426495,28.9903506 C145.477576,27.2907408 145.474488,26.4128778 145.461724,26.0786619 C145.472475,26.0765321 144.570761,26.6283989 144.244397,26.7987674 C142.788163,27.5589512 141.162991,27.898271 139.096193,27.6514436 C130.330877,26.6046455 124.590041,26.1502355 118.704846,26.1967576 C114.509369,26.2299227 111.206623,26.7042767 108.325695,27.8639851 C103.772656,29.6967956 103.60874,29.7637179 101.86731,30.5291615 C94.9367663,33.5754746 90.3787692,36.5981393 87.6099255,40.573842 C85.343053,43.8287786 84.958053,47.5408915 85.5170321,54.4663745 C85.5475474,54.8444439 85.5748364,55.1700176 85.6296469,55.8152119 C85.8926007,58.9105369 85.9777654,60.2201134 85.9793454,61.8465715 C85.9797789,62.2928223 85.6003969,62.6289633 85.1443763,62.4095747 C84.9966638,62.3385112 84.8624535,62.2180576 84.6702203,62.0119805 C84.5339989,61.8659489 83.7973824,61.0092432 83.5745754,60.7650132 C83.187941,60.3412039 82.8513816,60.0162146 82.5406609,59.7788023 C82.2797919,59.57948 82.0504431,59.4536501 81.8631842,59.4047761 C80.7566877,59.1159837 79.3628541,60.8147922 79.4337331,61.8115936 C79.4875609,62.5685969 79.7416055,69.0674558 79.833037,70.8871225 C80.0814344,75.8307158 80.3941686,79.032903 80.7983418,80.0193948 C81.4472882,81.60332 82.2945342,82.5977241 83.9699776,84.0231746 C84.082955,84.1192946 84.5166599,84.4856302 84.4603606,84.4379972 C85.5030891,85.3202154 86.0864887,85.8759738 86.6135394,86.562923 C95.4737455,86.7054657 97.7329139,88.2651318 99.0745319,93.3547443 C99.6873262,95.679464 99.7715465,95.9705957 100.191001,97.006711 C101.264976,99.6595901 110.230574,110.556318 112.449254,111.226434 C113.293562,111.481443 113.784684,111.72877 117.717149,113.795097 C117.898725,113.890457 117.898725,113.890457 118.080392,113.985614 C120.669213,115.340555 122.185451,116.049451 123.120352,116.281302 C126.961116,117.233797 128.483411,117.525613 130.030031,117.590554 C130.670523,117.617448 131.325523,117.60551 132.29981,117.555581 C132.606437,117.539868 134.785948,117.411622 135.605712,117.369759 C136.555132,117.321553 137.025224,117.304103 138.761939,117.24613 C141.97177,117.138984 143.389093,117.028277 145.067283,116.67816 C146.705241,116.336438 148.245504,115.782398 149.881933,114.919095 C151.867871,113.871407 153.204855,112.525976 155.149038,109.909983 C155.331408,109.664594 156.133493,108.572133 156.354002,108.275805 C156.839071,107.623954 157.248306,107.094085 157.666803,106.582969 C158.055846,106.107826 158.441237,105.664138 158.83653,105.239442 C160.39179,103.568499 161.901664,101.308755 164.001035,97.7062312 C164.38562,97.0462829 165.736046,94.6979176 165.664555,94.8217511 C166.316599,93.6923 166.796588,92.8795146 167.257158,92.1334459 C169.152827,89.0626865 169.855998,86.7141647 170.171105,82.6299948 C170.339394,80.448761 170.290506,77.8987424 170.023854,70.5434974 C169.997792,69.8246183 169.980447,69.3408505 169.963243,68.8495995 C169.691925,61.1022133 169.700487,56.939616 170.161452,54.5029459 C169.963952,54.3998581 169.781535,54.2984218 169.620837,54.2023308 Z M145.461724,26.0786619 C145.457596,25.9705761 145.452456,25.9193494 145.447808,25.9155753 C145.520114,25.9742947 145.597118,25.9886596 145.642577,25.9833194 C145.616602,25.9936334 145.548354,26.0272173 145.446107,26.0868892 C145.467901,26.0741281 145.474868,26.0702905 145.474672,26.0708019 L145.461724,26.0786619 Z M145.446107,26.0868892 C145.43759,26.09186 145.428837,26.0970118 145.419846,26.1023471 C145.433433,26.0942845 145.444333,26.0878638 145.452724,26.0829737 L145.446107,26.0868892 Z M145.642577,25.9833194 C145.648755,25.9825937 145.65435,25.981504 145.659271,25.9801124 C145.657495,25.9806147 145.655633,25.9811765 145.653685,25.9817982 L145.642577,25.9833194 Z" id="hair-outline" fill="#000000" fill-rule="nonzero" opacity="0.05"></path>
                <path d="M150.905956,17.8483503 C150.904211,17.8449495 150.903265,17.843155 150.90318,17.843055 C150.903241,17.8431264 150.904166,17.8448915 150.905956,17.8483503 Z M150.388085,9.70805127 C148.885804,13.7170506 146.15308,15.9667629 140.871462,18.6485057 C141.052335,18.5566676 138.729478,19.7259362 138.083651,20.0613321 C137.007733,20.6200863 136.104198,21.121436 135.241134,21.6480327 C133.591192,22.6547407 132.147312,23.7237205 130.813349,24.965572 L130.131964,24.2336467 C131.518298,22.9430403 133.015727,21.8344161 134.720283,20.7943852 C135.605213,20.2544473 136.528002,19.7424141 137.622768,19.1738714 C138.275212,18.8350386 140.604824,17.6623699 140.418729,17.7568598 C146.538707,14.6494392 148.996951,12.2472309 150.189288,6.7974319 L151.166181,7.01116185 C151.05903,7.50091309 150.941956,7.96787356 150.813575,8.41434265 L150.932774,8.36650371 C151.271965,9.21165406 153.710158,15.4441822 154.172926,16.4836911 C154.889458,18.0932279 155.444232,18.9178029 156.421808,19.8284417 C155.846111,19.2921646 165.579854,26.9299162 172.766911,33.4259389 L172.09637,34.1678111 C164.945816,27.7047814 155.204143,20.0608078 155.740197,20.5601561 C154.65655,19.5507101 154.027357,18.6155234 153.259363,16.8903898 C152.874644,16.0261995 151.185777,11.7315055 150.388085,9.70805127 Z M80.7208862,84.5980383 L81.3413278,84.2931641 C87.886131,97.6123242 89.5448096,101.427202 90.759097,106.859792 C92.2265313,113.424933 91.8784278,120.0033 89.5555966,130.992078 L88.5772159,130.785266 C90.8730247,119.924324 91.2140598,113.479535 89.7831787,107.077928 C88.7112588,102.282275 87.2697025,98.7358939 82.2382767,88.4008219 C86.4207896,99.9510723 84.8567186,107.677055 77.5034672,124.591918 L76.5863766,124.193239 C85.1841356,104.415606 85.754648,97.5528828 78.4517262,82.0035709 L79.3568676,81.5784603 C79.8463011,82.6205575 80.3009807,83.6250392 80.7208862,84.5980383 Z M152.527781,20.185617 C153.393296,22.9027416 154.95994,27.5793572 157.227041,34.21331 C158.33938,37.4682188 160.093811,39.5286101 164.208907,43.1149955 C164.309679,43.2028208 164.862116,43.6834663 165.020445,43.8215686 C169.100579,47.3804697 171.037878,49.5961552 172.471067,53.0239213 L171.548464,53.4096724 C170.190314,50.1613789 168.335713,48.0402741 164.363114,44.575171 C164.205372,44.4375802 163.653148,43.9571204 163.551889,43.8688711 C159.312019,40.1737421 157.466516,38.0063968 156.280772,34.53669 C154.011545,27.8965166 152.443163,23.2147149 151.574954,20.4891312 C151.136321,19.1121239 150.875743,18.2331193 150.788006,17.8300908 C150.758624,17.6951269 150.744446,17.6015798 150.747343,17.5128715 C150.763829,17.0081866 151.352413,16.8295117 151.663373,17.1933583 C151.754593,17.3000917 151.850868,17.4889803 152.009126,17.8426527 L151.840007,17.9183289 C151.961252,18.3701411 152.191353,19.129464 152.527781,20.185617 Z M78.6079603,51.9706141 L77.6264147,51.7793859 C78.0889082,49.405476 78.5469654,47.2910586 79.0088532,45.3946794 C80.866929,37.7659509 82.6944689,33.7014757 85.9345587,29.2496381 C86.6704198,28.2385754 89.721049,24.305463 90.4570565,23.3192915 C92.5172665,20.5588298 94.3785952,17.8089446 96.3975471,14.4476276 L97.2547967,14.9625287 C95.2178926,18.353734 93.3379368,21.1311384 91.2584668,23.9174065 C90.5134775,24.9156126 87.4679076,28.8422022 86.7430883,29.8380936 C83.5822082,34.1810982 81.8085105,38.1258275 79.9804494,45.6313242 C79.5224296,47.5118226 79.0676215,49.6112422 78.6079603,51.9706141 Z M93.05231,26.9503945 L92.0922212,26.6706992 C93.3937625,22.2029972 99.6775328,18.3115429 109.72665,14.8495994 C116.845613,12.3971004 125.051956,10.4168069 133.524211,8.81340809 L133.710164,9.79596691 C125.281271,11.3911592 117.116849,13.3613367 110.052365,15.7950672 C100.309742,19.1514232 94.2269084,22.9184397 93.05231,26.9503945 Z M106.976859,114.87341 L107.800485,114.306277 C109.734686,117.115242 112.797936,120.613615 112.626292,120.355972 C113.214095,121.238285 113.413898,120.136269 112.152485,125.086358 L111.183453,124.839423 C112.270348,120.574181 112.120539,121.400457 111.794065,120.910407 C112.013048,121.239109 108.956573,117.748473 106.976859,114.87341 Z M125.88652,120.998665 L126.523636,120.227897 C126.378429,120.107869 130.669531,123.43621 131.045367,124.082812 C131.367642,124.637264 132.24788,128.757633 132.639388,130.226713 L131.673112,130.484224 C131.231545,128.827299 130.409317,124.978478 130.180805,124.585338 C129.919219,124.135297 126.057573,121.140058 125.88652,120.998665 Z M144.534613,120.65025 L144.883356,119.713031 C144.731001,119.65634 149.034519,121.063532 149.474148,121.537783 C149.85408,121.947637 151.005463,125.337764 151.439228,126.396357 L150.513897,126.775518 C149.977091,125.465456 148.951083,122.44448 148.740778,122.217613 C148.506919,121.965336 144.893598,120.783829 144.534613,120.65025 Z M161.891417,108.225252 L162.870302,108.020842 C163.322878,110.188147 163.599451,111.873732 163.772002,113.347084 C163.830848,113.849552 163.972944,115.387387 164.015893,115.639031 C164.132454,116.321984 163.889108,116.020569 166.349761,118.654782 L165.618989,119.337405 C162.928614,116.457265 163.198039,116.790983 163.030147,115.807271 C162.979538,115.510745 162.833633,113.93169 162.77879,113.463403 C162.609758,112.020095 162.338002,110.363867 161.891417,108.225252 Z" id="hair-outline-2" fill="#000000" fill-rule="nonzero" opacity="0.05"></path>
            </g>
        </g>
    </g>
</svg>