<?xml version="1.0" encoding="UTF-8"?>
<svg width="480px" height="300px" viewBox="0 0 480 300" version="1.1" xmlns="http://www.w3.org/2000/svg" xmlns:xlink="http://www.w3.org/1999/xlink">
    <!-- Generator: Sketch 50.2 (55047) - http://www.bohemiancoding.com/sketch -->
    <title>Avatars</title>
    <desc>Created with Sketch.</desc>
    <defs></defs>
    <g id="Avatars" stroke="none" stroke-width="1" fill="none" fill-rule="evenodd">
        <rect id="Frame" fill="#E6E6E6" x="0" y="0" width="480" height="300"></rect>
        <g id="Human" transform="translate(109.000000, 40.000000)">
            <g id="Female" transform="translate(22.000000, 9.000000)">
                <path d="M4.19422494,251 C6.67951334,224.010386 8.51506574,206.944269 9.70088214,199.801647 C10.551772,194.676415 9.1397157,189.378414 9.72343192,184.216015 C10.9013272,173.798682 18.1064833,150.024483 23.6343281,146.485701 C28.5791208,143.320173 43.820948,141.900343 49.2442179,139.648313 C54.3653429,137.521749 79.9382787,130.487169 83.6787109,126.397197 C86.6301491,123.16995 86.6301491,112.918425 83.6787109,95.6426229 C72.0994221,81.9303931 65.9056163,73.5685523 65.0972936,70.5571006 C63.9017108,66.1028892 58.1821836,59.9751796 57.9368621,47.8624844 C57.6797347,35.1668683 61.0087644,17.4937204 64.7686033,13.9566515 C78.4471542,1.08855309 118.392675,-4.73276214 131.386686,18.6320819 C136.307903,27.48104 138.469216,48.3414478 140.186083,67.6545626 C141.165284,78.6696372 138.126207,85.2229078 135.339079,88.6796117 C134.148359,90.1563891 131.386686,93.6426229 129.713021,93.6426229 C128.597244,93.6426229 129.155133,102.991566 131.386686,121.689453 C139.953165,124.530575 149.135133,134.960756 158.105319,136.043487 C187.970488,139.648313 177.550132,138.159469 195.634152,155.564927 C205.599348,165.156203 210.166566,197.464346 211.909609,208.810684 C212.884496,215.156713 215.581293,229.219818 220,251 L187.970488,251 L0,251 L4.19422494,251 Z" id="body" fill="#CB9365"></path>
                <polygon id="armpit-l" fill="#000000" opacity="0.5" points="40 251 48 212 48 251"></polygon>
                <polygon id="armpit-r" fill="#000000" opacity="0.5" transform="translate(181.000000, 231.500000) scale(-1, 1) translate(-181.000000, -231.500000) " points="177 251 185 212 185 251"></polygon>
                <path d="M85.5863215,149.284801 L84.7046942,148.812855 C85.3498229,147.607711 86.9480407,144.43586 87.2279416,143.950099 C87.864065,142.846123 88.3913217,142.350571 89.2662389,142.11167 C89.5722172,142.028121 99.3902038,141.790537 104.204268,140.078468 L104.348466,141.068017 C99.4462265,142.11167 89.70098,143.029571 89.5296509,143.076353 C88.9495244,143.23476 88.6108412,143.553078 88.094394,144.449359 C87.8312623,144.906017 86.2432472,148.05762 85.5863215,149.284801 Z" id="collarbone-l" fill="#000000" fill-rule="nonzero" opacity="0.129999995" transform="translate(94.526580, 144.681635) scale(-1, 1) translate(-94.526580, -144.681635) "></path>
                <path d="M111.586321,149.284801 L110.704694,148.812855 C111.349823,147.607711 112.948041,144.43586 113.227942,143.950099 C113.864065,142.846123 114.391322,142.350571 115.266239,142.11167 C115.572217,142.028121 125.390204,141.790537 130.204268,140.078468 L130.348466,141.068017 C125.446227,142.11167 115.70098,143.029571 115.529651,143.076353 C114.949524,143.23476 114.610841,143.553078 114.094394,144.449359 C113.831262,144.906017 112.243247,148.05762 111.586321,149.284801 Z" id="collarbone-r" fill="#000000" fill-rule="nonzero" opacity="0.129999995"></path>
                <path d="M149.676528,245.968817 C155.907893,245.365015 162.842552,241.809279 167.359199,236.390475 C172.862207,229.788293 174.550799,221.032803 171.349238,210.62453 C170.50792,207.889405 169.743853,206.164748 168.845737,204.797461 C168.538351,204.329499 168.235928,203.926119 167.766578,203.341357 C165.722418,200.794546 164.981658,199.658163 163.580488,196.413136 L164.534673,196 C165.892806,199.145356 166.586144,200.208989 168.57686,202.689215 C169.06511,203.297523 169.385311,203.724617 169.714257,204.225403 C170.671337,205.682456 171.4744,207.495135 172.342736,210.318095 C175.647003,221.060268 173.887672,230.182549 168.157292,237.057519 C163.462381,242.690194 156.275538,246.375236 149.776653,247.00496 C131.202326,248.804763 118.98706,241.394691 112.782569,223.538028 C112.708705,224.178675 112.617175,224.697935 112.503349,225.095841 C108.283947,239.845797 95.4464523,249.411142 80.9857975,249.973813 C66.1956925,250.549303 53.7976922,241.614209 49.9944219,225.675315 C48.5246234,219.515626 48.7343369,214.073771 50.2923327,207.240846 C50.5507487,206.107507 50.8460031,204.926291 51.2193006,203.513437 C51.3655686,202.959843 51.5179884,202.392047 51.7231117,201.634431 C51.7008739,201.716565 52.1209789,200.167292 52.2378667,199.733931 C52.6297859,198.280893 52.9185792,197.17949 53.1919016,196.080757 L54.2006354,196.332379 C53.925379,197.438886 53.6350081,198.546305 53.2414643,200.005367 C53.1243618,200.439524 52.704045,201.989578 52.7264498,201.906827 C52.5218325,202.662575 52.3699096,203.228519 52.2242805,203.779695 C51.8537746,205.181984 51.5612545,206.35226 51.3058104,207.472565 C49.7807155,214.161197 49.5770235,219.446797 51.0055187,225.433391 C54.6908763,240.878132 66.6406862,249.49022 80.9454334,248.933615 C94.9677883,248.387999 107.411278,239.116231 111.503983,224.809178 C111.713741,224.075918 111.849137,222.752091 111.93068,220.917898 C110.838688,217.235491 109.971751,213.177425 109.328222,208.71427 L108.604328,203.693749 L112.99174,215.808674 C113.126313,215.952461 113.127808,215.956487 113.157364,216.03605 C113.205941,216.156148 113.242066,216.340476 113.28788,216.658216 L114.011774,221.678738 L113.035078,218.981795 C113.03213,219.099835 113.029518,219.202159 113.027595,219.273528 C113.012674,219.827293 112.996601,220.315828 112.977175,220.779663 C118.746301,239.945001 130.793511,247.798531 149.676528,245.968817 Z M113.123792,216.402402 C113.124852,216.397274 113.12569,216.391961 113.126569,216.386077 C113.126104,216.38919 113.125641,216.392392 113.125181,216.395685 L113.123792,216.402402 Z M112.19951,216.450357 C112.196722,216.437146 112.194775,216.42916 112.19384,216.42685 C112.194095,216.42748 112.195985,216.435316 112.19951,216.450357 Z M112.083534,216.354304 L111.371204,214.387355 C111.579319,215.392799 111.800972,216.373252 112.036218,217.328879 C112.050267,216.84512 112.064018,216.548844 112.083534,216.354304 Z" id="breast" fill="#000000" fill-rule="nonzero" opacity="0.300000012"></path>
                <g id="nipples" opacity="0.700000048" transform="translate(66.000000, 213.000000)">
                    <path d="M86,14 C82.1340068,14 79,10.8659932 79,7 C79,3.13400675 82.1340068,0 86,0 C89.8659932,0 93,3.13400675 93,7 C93,10.8659932 89.8659932,14 86,14 Z" id="ra" fill="#000000" fill-rule="nonzero" opacity="0.3"></path>
                    <circle id="rn" fill="#CB9365" opacity="0.400000006" cx="86" cy="7" r="2"></circle>
                    <path d="M86,10 C84.3431458,10 83,8.65685425 83,7 C83,5.34314575 84.3431458,4 86,4 C87.6568542,4 89,5.34314575 89,7 C89,8.65685425 87.6568542,10 86,10 Z M86,8.8 C86.9941125,8.8 87.8,7.99411255 87.8,7 C87.8,6.00588745 86.9941125,5.2 86,5.2 C85.0058875,5.2 84.2,6.00588745 84.2,7 C84.2,7.99411255 85.0058875,8.8 86,8.8 Z" id="rno" fill="#000000" fill-rule="nonzero" opacity="0.3"></path>
                    <path d="M7,14 C3.13400675,14 0,10.8659932 0,7 C0,3.13400675 3.13400675,0 7,0 C10.8659932,0 14,3.13400675 14,7 C14,10.8659932 10.8659932,14 7,14 Z" id="la" fill="#000000" fill-rule="nonzero" opacity="0.3"></path>
                    <circle id="ln" fill="#CB9365" opacity="0.400000006" cx="7" cy="7" r="2"></circle>
                    <path d="M7,10 C5.34314575,10 4,8.65685425 4,7 C4,5.34314575 5.34314575,4 7,4 C8.65685425,4 10,5.34314575 10,7 C10,8.65685425 8.65685425,10 7,10 Z M7,8.8 C7.99411255,8.8 8.8,7.99411255 8.8,7 C8.8,6.00588745 7.99411255,5.2 7,5.2 C6.00588745,5.2 5.2,6.00588745 5.2,7 C5.2,7.99411255 6.00588745,8.8 7,8.8 Z" id="lno" fill="#000000" fill-rule="nonzero" opacity="0.3"></path>
                </g>
                <path d="M57.5111151,193.899351 L53.8720703,138.305664 L57.5695774,137.305664 L63.068131,199.292498 C64.5221892,204.1687 67.6691128,210.598348 78.8159338,213.882812 C91.4937502,217.618392 102.781285,217.897689 112.678537,214.720703 L112.678537,216.094482 C112.775335,215.60718 112.882489,215.149253 113,214.720703 C122.230586,217.897689 133.184787,217.618392 145.862603,213.882812 C158.237282,210.236554 161.16783,202.203285 162.546349,197.118343 L162.054688,197.478035 L150.569577,133.521965 L156.039063,135.521965 L166.647082,193.987908 C174.747366,201.692027 180.945758,221.665402 177.880859,231.357422 C172.888515,247.144537 164.564403,250.37285 145.862603,250.37285 C128.79436,250.37285 114.675535,244.245372 112.339269,229.36598 C110.003003,244.245372 95.8841769,250.37285 78.8159338,250.37285 C60.1141344,250.37285 51.7900224,247.144537 46.7976778,231.357422 C43.7358223,221.675024 45.2351829,200.678897 57.5111151,193.899351 Z" id="bra" fill="#414141"></path>
                <path d="M110.933282,126.155999 L110.098945,125.604744 C111.93579,122.824637 112.361812,122.134893 112.780816,121.192995 C112.9996,120.701183 113.174484,120.198442 113.356283,119.54516 C113.519701,118.957931 113.645813,118.434825 114.004616,116.887083 C114.276125,115.715897 114.367176,114.730682 114.475921,112.473015 C114.587575,110.154948 114.682227,109.130772 114.971902,107.881223 L115.946067,108.107058 C115.674559,109.278243 115.583508,110.263459 115.474763,112.521126 C115.363108,114.839193 115.268457,115.863369 114.978782,117.112917 C114.616218,118.676883 114.488592,119.206266 114.319674,119.813259 C114.125488,120.511053 113.934776,121.059295 113.69449,121.599444 C113.243256,122.613791 112.807201,123.319779 110.933282,126.155999 Z" id="neck-line" fill="#000000" fill-rule="nonzero" opacity="0.100000001"></path>
                <g id="face" transform="translate(61.000000, 33.000000)">
                    <path d="M8,43.8999864 L8.65261388,43.1088027 C17.2470703,54.0649414 16.3691406,55.7353516 25.6660121,60.7991184 C28.3778745,62.2762001 35.5151827,68.7690026 38.5779256,69.1275763 C43.7045068,69.7277761 49.7632437,69.9107003 56.4781,68.6052218 C60.5560829,67.8123949 64.2875977,59.1580952 69.8516454,58.3399517 L70.4652414,59.1580952 C65.3686523,60.7991184 61.0626049,68.6640449 56.9107747,69.4743275 C50.2715685,70.7700532 44.3178836,70.6729717 39.3181179,70.210915 C35.9173446,69.8966303 28.5083209,63.337197 25.3075143,61.7409961 C15.3276367,56.7641602 17.6750488,56.4206543 8,43.8999864 Z" id="jaw" fill="#000000" fill-rule="nonzero" opacity="0.3"></path>
                    <path d="M43.5392249,57.2118823 L43.2185876,56.2646802 C44.2675137,55.9096083 45.3349349,55.8345116 47.2856448,55.8630908 C47.7138069,55.8693636 48.1470908,55.89699 48.6040536,55.945222 C49.3281133,56.0216458 49.8519513,56.1066938 51.2660307,56.3603971 L51.089438,57.3446811 C49.7002768,57.0954485 49.1903656,57.0126616 48.4990876,56.9396978 C48.070996,56.8945132 47.6676315,56.8687944 47.2709958,56.8629835 C45.4339656,56.8360698 44.4435886,56.9057461 43.5392249,57.2118823 Z" id="jaw-line" fill="#000000" fill-rule="nonzero" opacity="0.3"></path>
                    <g id="mouth" transform="translate(29.000000, 40.000000)">
                        <path d="M17.0274153,8.60205078 C23.6616211,8.60205078 31.2535802,4.02803496 31.2535802,3.1907959 C31.2535802,2.0862264 25.3528991,1.3815918 17.0274153,1.3815918 C8.70193147,1.3815918 1.54456005,2.58195394 1.54456005,3.68652344 C1.54456005,4.64240806 11.1694336,8.60205078 17.0274153,8.60205078 Z" id="lips" fill="#990000" opacity="0.100000001"></path>
                        <path d="M3.65268312,3.07749793 C9.68981951,3.51547142 14.2577444,3.734375 17.3531041,3.734375 C20.4595044,3.734375 24.7435792,3.5138674 30.2026706,3.0726367 C29.9998841,3.02746821 29.7854332,2.97938359 29.5543657,2.92731996 C24.1613008,1.7121663 22.7089229,1.43747443 20.2731013,1.32377651 C19.8407342,1.30359472 19.5863371,1.39716679 19.0698118,1.70865949 C19.04532,1.72343789 19.04532,1.72343789 19.0205065,1.73841793 C18.3919598,2.11775404 18.0224729,2.26575871 17.4254505,2.28007472 C16.9584837,2.29127213 16.5332107,2.18552187 15.4037848,1.83653712 C15.3687871,1.82572427 15.3687871,1.82572427 15.333846,1.81493954 C14.3602769,1.51455888 13.8914059,1.40664099 13.5497543,1.43397792 C10.3973215,1.68621683 7.15916834,2.22454429 3.65268312,3.07749793 Z M29.9784041,4.09340377 C24.6375227,4.52064986 20.429929,4.734375 17.3531041,4.734375 C14.1973659,4.734375 9.54103244,4.50950645 3.38063165,4.05994156 C5.56684908,5.77721812 8.85200369,7.7797605 13.5497543,8.15564655 C13.8914059,8.18298348 19.8407342,8.28602975 20.2731013,8.26584796 C23.2464181,8.12706113 27.355827,5.79020054 29.9784041,4.09340377 Z M3.06516253,2.19666804 C6.76293218,1.27824204 10.1673544,0.701911347 13.4822054,0.436676698 C13.9771624,0.397073182 14.490484,0.515222068 15.585094,0.85294813 C15.6202716,0.863805868 15.6202716,0.863805868 15.6553775,0.874652152 C16.6719246,1.18875817 17.0722351,1.28830114 17.4051573,1.28031799 C17.8173482,1.27043406 18.06514,1.17117658 18.5738681,0.864152542 C18.5985057,0.849278681 18.5985057,0.849278681 18.6234331,0.834237461 C19.2751849,0.441195861 19.6730684,0.294846766 20.3125773,0.324697405 C22.8184758,0.441666338 24.2921118,0.720378811 29.7411261,1.94813886 C29.9824811,2.00252046 30.2055664,2.05252847 30.4160633,2.09938266 L30.2551753,1.89656716 L30.951987,1.24356956 L32.6034111,3.32535667 L32.0212721,3.87089201 L32.0323394,3.88966978 C31.9932313,3.91689913 31.9532456,3.94465525 31.9124047,3.972914 L31.9065994,3.97835427 L31.90587,3.97743476 C29.4815278,5.65433048 24.0614414,9.08993967 20.3125773,9.26492707 C19.6730684,9.29477771 13.9771624,9.19255129 13.4822054,9.15294777 C7.82139147,8.70000313 4.16715053,6.03927496 1.83950784,4.0462067 L1.55228042,4.40828591 L0.85546875,3.75528831 L2.50689285,1.6735012 L3.06516253,2.19666804 Z" id="mouth-outline" fill="#000000" fill-rule="nonzero" opacity="0.3"></path>
                    </g>
                    <g id="eye-l" transform="translate(26.759711, 11.015426) rotate(-8.000000) translate(-26.759711, -11.015426) translate(14.759711, 3.015426)">
                        <path d="M14.1142716,14.8970681 C16.9465528,14.8970681 19.5591686,14.561226 21.9521188,13.8895417 C18.4896273,10.7007841 15.3422409,9.10640528 12.5099596,9.10640528 C9.67767837,9.10640528 7.20782417,9.74410291 5.10039701,11.0194982 C8.27736548,13.6045448 11.2819903,14.8970681 14.1142716,14.8970681 Z" id="eye-white" fill="#FFFFFF" opacity="0.800000012"></path>
                        <path d="M13.8672808,14.3857797 C15.8976816,14.3857797 17.5436467,12.6615201 17.5436467,10.5345381 C17.5436467,10.2443832 16.0350745,9.77756838 13.01793,9.13409366 C11.1332532,8.64973528 10.1909148,9.11655009 10.1909148,10.5345381 C10.1909148,12.6615201 11.8368799,14.3857797 13.8672808,14.3857797 Z" id="iris" fill="#AE893B" opacity="0.700000048"></path>
                        <path d="M9.98585527,9.47176823 C8.53533395,9.74558386 7.01474185,10.2467203 5.25972634,10.9735094 C9.25176825,14.7297374 14.8536689,15.819474 21.6874423,13.6408538 C20.5808753,12.5627882 19.6531268,11.8209725 18.9094777,11.4168707 C18.5661474,11.2303036 18.0869687,11.0202146 17.4727132,10.7870377 C17.5786859,11.3471269 17.5196576,11.9274918 17.292402,12.3849991 C16.6200891,13.7384886 15.4122704,14.6330287 14.101794,14.6693692 C11.2608678,14.7481502 8.91428724,12.1855009 9.98585527,9.47176823 Z M10.3519759,9.40725656 L10.6001131,9.5232481 C9.535935,11.8606657 11.5684876,14.1471774 14.0858048,14.0773703 C15.1651524,14.0474391 16.1889504,13.2891892 16.7703397,12.1187457 C16.9835294,11.6895555 16.9960125,11.0786374 16.8011528,10.54184 C16.3984232,10.3998798 15.9517986,10.2504502 15.4614223,10.093632 C15.3498293,10.1596958 15.27445,10.1923144 15.1519259,10.2220037 L15.0779019,9.9982874 L15.1122837,9.9830516 C14.4921929,9.78848189 13.8076525,9.58304742 13.058919,9.36689254 C13.0737076,9.43276846 13.0923314,9.51494207 13.1022546,9.55546088 L12.8753522,9.61251497 C12.8567135,9.53640795 12.8101874,9.32636555 12.8096757,9.3241695 C12.8011581,9.28761029 12.7929657,9.25546658 12.7846088,9.22664033 C11.9717475,9.21305252 11.170951,9.27336024 10.3519759,9.40725656 Z M5.02332459,11.0721705 C4.9829453,11.0891501 4.94244107,11.1062464 4.90180998,11.1234592 L4.67636593,10.5770695 C11.4116167,7.72377585 14.8194613,8.00213749 23.0581956,11.4563066 L22.8347385,12.0035337 C20.0670368,10.8431479 17.8650897,10.0479452 15.9036416,9.61462439 C17.4385279,10.1132878 18.5310138,10.5392046 19.1857004,10.8949638 C20.1953866,11.4436313 21.4784644,12.5372779 23.0457721,14.1789078 L22.6257061,14.5906761 C22.4670338,14.4244794 22.3114472,14.2641252 22.1589586,14.1096169 C14.9527318,16.4922503 8.99645584,15.3542803 4.78205882,11.3316975 L5.02332459,11.0721705 Z M15.720634,11.3393683 L16.1896376,11.4479626 L16.1559915,11.6816235 C15.9939558,11.6709168 15.8835524,11.6429292 15.6579548,11.5678496 L15.1889512,11.4592554 L15.2225972,11.2255944 C15.384633,11.2363011 15.4950364,11.2642887 15.720634,11.3393683 Z M14.7783224,13.1505256 L14.5616457,13.2394766 L14.1594009,12.2334534 L14.3760776,12.1445024 L14.7783224,13.1505256 Z M15.2793005,10.7759423 L15.2945133,10.5395562 L16.3787478,10.6111981 L16.363535,10.8475843 L15.2793005,10.7759423 Z M10.8546789,10.7562065 L10.8698918,10.5198203 C11.0154019,10.529435 11.131578,10.5284619 11.3937789,10.5196346 C11.6635821,10.5105514 11.7849759,10.5095345 11.940642,10.5198203 L11.9254292,10.7562065 C11.7799191,10.7465917 11.663743,10.7475649 11.4015421,10.7563922 C11.1317389,10.7654754 11.0103451,10.7664923 10.8546789,10.7562065 Z M11.3152211,11.9659156 L11.2392381,11.7418882 C11.2628634,11.7336105 11.2628634,11.7336105 11.2858517,11.7253552 C11.4097481,11.6805861 11.5181517,11.634694 11.6324427,11.579306 C11.7505315,11.5220776 11.7462771,11.5243645 12.1286503,11.3155876 L12.2395492,11.5241272 C11.8518273,11.7358244 11.8565403,11.733291 11.7333121,11.7930101 C11.611836,11.8518801 11.4959846,11.9009252 11.3643774,11.9484805 C11.3400989,11.9571992 11.3400989,11.9571992 11.3152211,11.9659156 Z M13.5909909,13.3314099 L13.3669003,13.2639032 C13.4250392,13.0657505 13.4527232,12.9421769 13.4663811,12.8206899 C13.4782153,12.7154245 13.480174,12.6350944 13.4800787,12.3743946 C13.480071,12.3530177 13.480071,12.3530177 13.4800684,12.3308882 L13.7138527,12.3308882 C13.7138553,12.3529467 13.7138553,12.3529467 13.713863,12.3743069 C13.7139618,12.6446661 13.7118833,12.7299076 13.6986631,12.8475018 C13.6832218,12.9848519 13.6527037,13.1210763 13.5909909,13.3314099 Z M15.7314991,12.3664895 L15.5784554,12.5455637 L14.8177005,11.8780142 L14.9707442,11.69894 L15.7314991,12.3664895 Z M12.2383053,12.8279186 L12.0558377,12.6798252 L12.5922117,12.0012873 L12.7746793,12.1493807 L12.2383053,12.8279186 Z M11.4502973,9.53795512 L11.5643391,9.33116331 L12.4063564,9.80793272 L12.2923145,10.0147245 L11.4502973,9.53795512 Z M13.5584956,11.7988872 C12.7515238,11.7988872 12.2587983,11.4436151 12.2587983,10.7894663 C12.2587983,10.1353175 12.9944545,9.75647796 13.8014264,9.75647796 C14.6083982,9.75647796 14.858193,10.1353175 14.858193,10.7894663 C14.858193,11.4436151 14.3654675,11.7988872 13.5584956,11.7988872 Z" id="eye" fill="#000000" fill-rule="nonzero" opacity="0.5"></path>
                        <path d="M7.47890559,9.58494107 L7.45174527,9.62488754 C6.85021277,9.4371593 6.43932906,9.25596565 6.21909415,9.08130658 C5.99885924,8.9066475 5.84051004,8.75639629 5.74404653,8.63055292 L5.59462658,7.81076647 C5.89902312,8.29970341 6.16672726,8.63577475 6.39773899,8.81898047 C6.56599046,8.95241365 6.82472747,9.09195445 7.17395001,9.23760286 L6.55456622,8.5321373 L6.27080498,7.610152 C6.57816754,8.12563483 6.82036521,8.49625295 6.99739802,8.72200636 C7.17443082,8.94775976 7.42059606,9.1999053 7.73589374,9.47844295 L7.54150766,9.65624355 L7.47890559,9.58494107 Z M6.25224828,10.0799969 L6.13577271,10.3246653 C5.52799311,10.1350392 5.0878163,9.9645498 4.81524228,9.81319713 C4.54266826,9.66184446 4.34231794,9.52859838 4.2141913,9.4134589 L3.912385,8.78073678 C4.38814696,9.14802866 4.75871158,9.40535008 5.02407885,9.55270105 C5.28944613,9.70005202 5.69883594,9.87581731 6.25224828,10.0799969 Z M8.2580501,9.32056719 L8.05743863,9.49011026 L7.11809266,8.40248002 L6.83972876,7.36307972 C7.13085969,7.9650829 7.35770076,8.37825652 7.52025199,8.6026006 C7.68280321,8.82694467 7.92873592,9.06626687 8.2580501,9.32056719 Z M9.59678909,8.86290716 L9.40036308,9.03807326 C9.02638922,8.7243079 8.76189979,8.46605432 8.60689479,8.26331253 C8.45188979,8.06057074 8.3076295,7.88914355 8.17411392,7.74903095 L8.02759308,6.81044689 C8.23394622,7.30376857 8.38379274,7.62400006 8.47713264,7.77114135 C8.59777921,7.96132894 8.73436934,7.96163993 8.82511474,8.08033212 C9.02116979,8.33676612 9.27839458,8.59762447 9.59678909,8.86290716 Z M10.9493696,8.95202831 L10.7555661,9.13056913 C10.3676239,8.89329797 10.0911068,8.6701498 9.92601487,8.4611246 C9.76092295,8.25209941 9.66807763,8.13388833 9.64747893,8.10649138 L9.5281875,7.15264973 C9.7539139,7.7479523 9.95328193,8.15512856 10.1262916,8.37417852 C10.2993013,8.59322848 10.5736606,8.78584508 10.9493696,8.95202831 Z M12.0868288,8.9358105 L11.8977696,9.12018918 C11.5112943,8.84862572 11.2433473,8.62349073 11.0939287,8.44478421 C10.9445102,8.26607769 10.8192986,8.1198771 10.7182942,8.00618245 L10.7621667,7.35149763 C10.8593335,7.72193413 10.9411143,7.96625028 11.0075091,8.08444608 C11.0927906,8.23626408 11.2431948,8.27799905 11.320914,8.37095229 C11.4893942,8.57245669 11.7446991,8.76074276 12.0868288,8.9358105 Z M13.0947196,9.06346482 L12.8849568,9.21955612 C12.3967277,8.90120249 12.0833844,8.63351202 11.9449271,8.41648471 C11.8064697,8.1994574 11.7135608,8.03184239 11.6662004,7.91363969 L11.8290142,7.07951393 C11.8826736,7.51304312 11.9320369,7.79864695 11.9771041,7.93632543 C12.0414008,8.13274946 12.1489802,8.18476306 12.2231464,8.30101603 C12.3752899,8.5394959 12.6658143,8.79364549 13.0947196,9.06346482 Z M13.6505634,9.2074686 L13.4017783,9.2665726 C13.1823125,8.87240801 13.0529336,8.57886941 13.0136415,8.38595681 C12.9743495,8.19304421 12.9605025,8.03744535 12.9721005,7.91916024 L13.3141117,7.55558667 C13.2223329,7.76602329 13.1724447,7.9218152 13.1644469,8.0229624 C13.1505289,8.19898354 13.2285011,8.40597269 13.2500385,8.51171492 C13.2901399,8.7086013 13.4236482,8.94051919 13.6505634,9.2074686 Z M14.1535506,9.34669626 L13.8988177,9.34711227 C13.7546122,9.08103142 13.6824101,8.8770618 13.6822114,8.73520341 C13.6820128,8.59334501 13.7377162,8.48329732 13.8493216,8.40506031 L14.1519336,8.19184313 C14.009529,8.45061102 13.9384078,8.63796636 13.9385702,8.75390916 C13.9387325,8.86985196 14.0103927,9.06744766 14.1535506,9.34669626 Z M14.7658805,9.34191621 L14.5111473,9.34195174 C14.3832456,9.0907247 14.3192875,8.9039701 14.3192729,8.78168794 C14.3192582,8.65940577 14.400821,8.5663848 14.5639611,8.50262501 L14.7657561,8.30151404 C14.6854782,8.52385242 14.6453461,8.69184159 14.6453597,8.80548155 C14.6453733,8.91912151 14.6855469,9.09793306 14.7658805,9.34191621 Z M5.31617265,12.1707608 L5.4878301,12.4539258 C5.32624485,12.4835485 5.22953513,12.5063913 5.19770095,12.5224542 C4.96828588,12.6382123 4.79286862,12.7043411 4.67144917,12.7208405 C4.52475704,12.7407742 4.40004778,12.6990844 4.2973214,12.5957711 L3.88165619,12.4055134 C4.25841044,12.4549829 4.52779862,12.4687093 4.68982071,12.4466925 C4.85184279,12.4246756 5.06062678,12.3326984 5.31617265,12.1707608 Z M5.60861867,12.4627394 L5.73633973,12.7007721 C5.56926895,12.8827475 5.42544551,13.0114669 5.3048694,13.0869302 C5.1842933,13.1623936 5.0676785,13.2172937 4.955025,13.2516306 L4.49851449,13.1575051 C4.84473601,13.0920445 5.08340541,13.0182839 5.21452271,12.9362234 C5.34564001,12.8541628 5.47700533,12.6963348 5.60861867,12.4627394 Z M6.11672645,12.6143241 L6.26607052,12.8371955 C6.1087443,13.0672953 5.97245752,13.2273836 5.85721019,13.3174604 C5.74196285,13.4075373 5.63762075,13.4431382 5.54418388,13.4242632 L5.12005813,13.393316 C5.41850757,13.2998894 5.62509707,13.20834 5.73982664,13.1186678 C5.8545562,13.0289957 5.98018947,12.8608811 6.11672645,12.6143241 Z M6.38161159,13.1563656 L6.59272784,13.3103138 C6.46549358,13.653842 6.36621444,13.882649 6.29489043,13.9967348 C6.22356641,14.1108205 6.07994037,14.2385729 5.86401232,14.3799919 L5.54316423,14.5424654 C5.85984981,14.2463342 6.07211703,14.0120143 6.17996589,13.8395054 C6.28781476,13.6669966 6.35502999,13.4392833 6.38161159,13.1563656 Z M6.82162242,13.2802594 L7.03856149,13.4244564 C6.9109203,13.8554563 6.80597354,14.1431248 6.72372121,14.287462 C6.64146889,14.4317992 6.43770174,14.6184645 6.11241976,14.8474581 L5.83062676,14.8781857 C6.20744332,14.53124 6.44370683,14.2737903 6.53941731,14.1058366 C6.63512779,13.9378829 6.72919616,13.6626905 6.82162242,13.2802594 Z M7.78030084,13.6256808 L7.96259279,13.7295096 C7.87568584,14.0715468 7.79707838,14.3032053 7.72677041,14.4244851 C7.65646243,14.5457649 7.598183,14.6219274 7.5519321,14.6529727 L7.18836666,14.9259668 C7.33605485,14.6687963 7.44747528,14.4753927 7.52262795,14.3457559 C7.59778063,14.2161191 7.68367159,13.976094 7.78030084,13.6256808 Z M8.06859731,13.8674831 L8.31450131,13.885426 C8.32132167,14.2293177 8.30618732,14.4526704 8.26909827,14.5554841 C8.23200922,14.6582978 8.20086093,14.7059644 8.17565341,14.6984838 L7.7609498,14.8165404 C7.9120439,14.6569226 8.00324357,14.5337234 8.03454884,14.4469428 C8.0658541,14.3601622 8.07720359,14.167009 8.06859731,13.8674831 Z M8.87950877,14.1190358 L9.05815996,14.1445768 C9.04246983,14.4966741 9.02725309,14.7310876 9.01250974,14.8478173 C8.99776639,14.9645469 8.99144069,15.0515991 8.99353264,15.1089738 L8.64375182,15.3764815 C8.75295463,15.1419132 8.81555589,14.9612906 8.83155562,14.8346136 C8.84755534,14.7079366 8.86353973,14.4694106 8.87950877,14.1190358 Z M9.92912887,14.3803798 L10.1531268,14.511385 C10.1481254,14.7319674 10.1217155,14.8899422 10.0738971,14.9853095 C10.0260787,15.0806767 9.89867028,15.2294716 9.69167174,15.4316942 L9.65353141,15.4289112 C9.75876275,15.193553 9.83875114,15.0212827 9.89349658,14.9121003 C9.94824203,14.802918 9.96011946,14.6256778 9.92912887,14.3803798 Z M10.8289458,14.7422688 L11.0834581,14.7537218 C11.0863893,14.9846591 11.0858784,15.1513574 11.0819255,15.2538168 C11.0779726,15.3562763 11.0668331,15.4915565 11.0485069,15.6596576 L10.909603,15.6495222 C10.8735395,15.4898403 10.8583585,15.3361092 10.8640599,15.1883289 C10.8697613,15.0405485 10.8580566,14.8918618 10.8289458,14.7422688 Z M7.00065588,9.88372029 L6.87372309,10.1222443 C6.31305539,9.9207627 5.91483029,9.74684536 5.6790478,9.60049224 C5.44326531,9.45413912 5.33401223,9.37644262 5.35128857,9.36740274 L5.10247102,8.70549337 C5.40882996,9.110236 5.66813641,9.37848165 5.88039038,9.51023032 C6.09264434,9.64197899 6.46606617,9.76647564 7.00065588,9.88372029 Z M6.0450538,10.5143764 L5.97206179,10.7779524 C5.30231987,10.7956811 4.83427701,10.7615293 4.56793323,10.6754972 C4.30158945,10.5894651 4.05175208,10.4252682 3.81842112,10.1829066 L3.59971507,9.72450362 C4.07127795,10.1039895 4.43214043,10.3341351 4.68230251,10.4149404 C4.93246458,10.4957456 5.38671502,10.528891 6.0450538,10.5143764 Z M8.94122312,9.27993246 L8.73400331,9.4399365 C8.31546677,9.10246317 8.03933595,8.83272404 7.90561083,8.63071912 C7.77188571,8.42871419 7.68521892,8.25273316 7.64561048,8.10277601 L7.62066558,7.28510066 C7.83515166,7.83706657 8.02344874,8.23548961 8.18555683,8.48036979 C8.34766492,8.72524997 8.59955368,8.99177086 8.94122312,9.27993246 Z" id="eye-lashes" fill="#000000" fill-rule="nonzero" opacity="0.400000006" transform="translate(9.182798, 11.235052) rotate(1.000000) translate(-9.182798, -11.235052) "></path>
                        <path d="M1.20397407,3.32114711 L0.721447441,2.44526581 C7.70015177,-1.39933128 13.078327,1.38268152 22.8809345,3.74606983 L22.6465525,4.7182144 C13.0641213,2.40791014 7.92765411,-0.38295604 1.20397407,3.32114711 Z" id="eye-brow" fill="#000000" fill-rule="nonzero" opacity="0.3"></path>
                    </g>
                    <g id="eye-r" transform="translate(58.771127, 9.753959) scale(-1, 1) rotate(-5.000000) translate(-58.771127, -9.753959) translate(46.771127, 1.753959)">
                        <path d="M11.1142716,14.8970681 C13.9465528,14.8970681 16.5591686,14.561226 18.9521188,13.8895417 C15.4896273,10.7007841 12.3422409,9.10640528 9.50995962,9.10640528 C6.67767837,9.10640528 4.20782417,9.74410291 2.10039701,11.0194982 C5.27736548,13.6045448 8.28199035,14.8970681 11.1142716,14.8970681 Z" id="eye-white" fill="#FFFFFF" opacity="0.800000012"></path>
                        <path d="M10.8672808,14.3857797 C12.8976816,14.3857797 14.5436467,12.6615201 14.5436467,10.5345381 C14.5436467,10.2443832 13.0350745,9.77756838 10.01793,9.13409366 C8.13325322,8.64973528 7.19091484,9.11655009 7.19091484,10.5345381 C7.19091484,12.6615201 8.83687993,14.3857797 10.8672808,14.3857797 Z" id="iris" fill="#AE893B" opacity="0.700000048"></path>
                        <path d="M6.98585527,9.47176823 C5.53533395,9.74558386 4.01474185,10.2467203 2.25972634,10.9735094 C6.25176825,14.7297374 11.8536689,15.819474 18.6874423,13.6408538 C17.5808753,12.5627882 16.6531268,11.8209725 15.9094777,11.4168707 C15.5661474,11.2303036 15.0869687,11.0202146 14.4727132,10.7870377 C14.5786859,11.3471269 14.5196576,11.9274918 14.292402,12.3849991 C13.6200891,13.7384886 12.4122704,14.6330287 11.101794,14.6693692 C8.26086784,14.7481502 5.91428724,12.1855009 6.98585527,9.47176823 Z M7.3519759,9.40725656 L7.60011312,9.5232481 C6.535935,11.8606657 8.56848758,14.1471774 11.0858048,14.0773703 C12.1651524,14.0474391 13.1889504,13.2891892 13.7703397,12.1187457 C13.9835294,11.6895555 13.9960125,11.0786374 13.8011528,10.54184 C13.3984232,10.3998798 12.9517986,10.2504502 12.4614223,10.093632 C12.3498293,10.1596958 12.27445,10.1923144 12.1519259,10.2220037 L12.0779019,9.9982874 L12.1122837,9.9830516 C11.4921929,9.78848189 10.8076525,9.58304742 10.058919,9.36689254 C10.0737076,9.43276846 10.0923314,9.51494207 10.1022546,9.55546088 L9.87535222,9.61251497 C9.8567135,9.53640795 9.81018739,9.32636555 9.80967575,9.3241695 C9.80115813,9.28761029 9.79296567,9.25546658 9.78460878,9.22664033 C8.97174755,9.21305252 8.17095104,9.27336024 7.3519759,9.40725656 Z M2.02332459,11.0721705 C1.9829453,11.0891501 1.94244107,11.1062464 1.90180998,11.1234592 L1.67636593,10.5770695 C8.41161669,7.72377585 11.8194613,8.00213749 20.0581956,11.4563066 L19.8347385,12.0035337 C17.0670368,10.8431479 14.8650897,10.0479452 12.9036416,9.61462439 C14.4385279,10.1132878 15.5310138,10.5392046 16.1857004,10.8949638 C17.1953866,11.4436313 18.4784644,12.5372779 20.0457721,14.1789078 L19.6257061,14.5906761 C19.4670338,14.4244794 19.3114472,14.2641252 19.1589586,14.1096169 C11.9527318,16.4922503 5.99645584,15.3542803 1.78205882,11.3316975 L2.02332459,11.0721705 Z M12.720634,11.3393683 L13.1896376,11.4479626 L13.1559915,11.6816235 C12.9939558,11.6709168 12.8835524,11.6429292 12.6579548,11.5678496 L12.1889512,11.4592554 L12.2225972,11.2255944 C12.384633,11.2363011 12.4950364,11.2642887 12.720634,11.3393683 Z M11.7783224,13.1505256 L11.5616457,13.2394766 L11.1594009,12.2334534 L11.3760776,12.1445024 L11.7783224,13.1505256 Z M12.2793005,10.7759423 L12.2945133,10.5395562 L13.3787478,10.6111981 L13.363535,10.8475843 L12.2793005,10.7759423 Z M7.85467894,10.7562065 L7.86989176,10.5198203 C8.01540186,10.529435 8.13157801,10.5284619 8.3937789,10.5196346 C8.66358208,10.5105514 8.78497588,10.5095345 8.94064204,10.5198203 L8.92542922,10.7562065 C8.77991912,10.7465917 8.66374297,10.7475649 8.40154208,10.7563922 C8.1317389,10.7654754 8.0103451,10.7664923 7.85467894,10.7562065 Z M8.31522112,11.9659156 L8.23923812,11.7418882 C8.26286343,11.7336105 8.26286343,11.7336105 8.28585167,11.7253552 C8.40974806,11.6805861 8.5181517,11.634694 8.63244273,11.579306 C8.75053153,11.5220776 8.7462771,11.5243645 9.12865033,11.3155876 L9.23954916,11.5241272 C8.85182728,11.7358244 8.85654029,11.733291 8.73331212,11.7930101 C8.61183604,11.8518801 8.49598456,11.9009252 8.36437744,11.9484805 C8.34009888,11.9571992 8.34009888,11.9571992 8.31522112,11.9659156 Z M10.5909909,13.3314099 L10.3669003,13.2639032 C10.4250392,13.0657505 10.4527232,12.9421769 10.4663811,12.8206899 C10.4782153,12.7154245 10.480174,12.6350944 10.4800787,12.3743946 C10.480071,12.3530177 10.480071,12.3530177 10.4800684,12.3308882 L10.7138527,12.3308882 C10.7138553,12.3529467 10.7138553,12.3529467 10.713863,12.3743069 C10.7139618,12.6446661 10.7118833,12.7299076 10.6986631,12.8475018 C10.6832218,12.9848519 10.6527037,13.1210763 10.5909909,13.3314099 Z M12.7314991,12.3664895 L12.5784554,12.5455637 L11.8177005,11.8780142 L11.9707442,11.69894 L12.7314991,12.3664895 Z M9.23830532,12.8279186 L9.05583774,12.6798252 L9.59221171,12.0012873 L9.77467929,12.1493807 L9.23830532,12.8279186 Z M8.45029728,9.53795512 L8.56433915,9.33116331 L9.40635639,9.80793272 L9.29231453,10.0147245 L8.45029728,9.53795512 Z M10.5584956,11.7988872 C9.75152378,11.7988872 9.25879827,11.4436151 9.25879827,10.7894663 C9.25879827,10.1353175 9.99445453,9.75647796 10.8014264,9.75647796 C11.6083982,9.75647796 11.858193,10.1353175 11.858193,10.7894663 C11.858193,11.4436151 11.3654675,11.7988872 10.5584956,11.7988872 Z" id="eye" fill="#000000" fill-rule="nonzero" opacity="0.5"></path>
                        <path d="M4.47890559,9.58494107 L4.45174527,9.62488754 C3.85021277,9.4371593 3.43932906,9.25596565 3.21909415,9.08130658 C2.99885924,8.9066475 2.84051004,8.75639629 2.74404653,8.63055292 L2.59462658,7.81076647 C2.89902312,8.29970341 3.16672726,8.63577475 3.39773899,8.81898047 C3.56599046,8.95241365 3.82472747,9.09195445 4.17395001,9.23760286 L3.55456622,8.5321373 L3.27080498,7.610152 C3.57816754,8.12563483 3.82036521,8.49625295 3.99739802,8.72200636 C4.17443082,8.94775976 4.42059606,9.1999053 4.73589374,9.47844295 L4.54150766,9.65624355 L4.47890559,9.58494107 Z M3.25224828,10.0799969 L3.13577271,10.3246653 C2.52799311,10.1350392 2.0878163,9.9645498 1.81524228,9.81319713 C1.54266826,9.66184446 1.34231794,9.52859838 1.2141913,9.4134589 L0.912384997,8.78073678 C1.38814696,9.14802866 1.75871158,9.40535008 2.02407885,9.55270105 C2.28944613,9.70005202 2.69883594,9.87581731 3.25224828,10.0799969 Z M5.2580501,9.32056719 L5.05743863,9.49011026 L4.11809266,8.40248002 L3.83972876,7.36307972 C4.13085969,7.9650829 4.35770076,8.37825652 4.52025199,8.6026006 C4.68280321,8.82694467 4.92873592,9.06626687 5.2580501,9.32056719 Z M6.59678909,8.86290716 L6.40036308,9.03807326 C6.02638922,8.7243079 5.76189979,8.46605432 5.60689479,8.26331253 C5.45188979,8.06057074 5.3076295,7.88914355 5.17411392,7.74903095 L5.02759308,6.81044689 C5.23394622,7.30376857 5.38379274,7.62400006 5.47713264,7.77114135 C5.59777921,7.96132894 5.73436934,7.96163993 5.82511474,8.08033212 C6.02116979,8.33676612 6.27839458,8.59762447 6.59678909,8.86290716 Z M7.94936961,8.95202831 L7.75556608,9.13056913 C7.36762386,8.89329797 7.09110679,8.6701498 6.92601487,8.4611246 C6.76092295,8.25209941 6.66807763,8.13388833 6.64747893,8.10649138 L6.5281875,7.15264973 C6.7539139,7.7479523 6.95328193,8.15512856 7.12629159,8.37417852 C7.29930126,8.59322848 7.5736606,8.78584508 7.94936961,8.95202831 Z M9.0868288,8.9358105 L8.89776957,9.12018918 C8.51129426,8.84862572 8.24334731,8.62349073 8.09392875,8.44478421 C7.94451018,8.26607769 7.81929865,8.1198771 7.71829415,8.00618245 L7.76216667,7.35149763 C7.85933351,7.72193413 7.94111431,7.96625028 8.00750907,8.08444608 C8.09279061,8.23626408 8.24319478,8.27799905 8.32091404,8.37095229 C8.48939418,8.57245669 8.7446991,8.76074276 9.0868288,8.9358105 Z M10.0947196,9.06346482 L9.88495681,9.21955612 C9.39672768,8.90120249 9.08338443,8.63351202 8.94492705,8.41648471 C8.80646968,8.1994574 8.7135608,8.03184239 8.66620042,7.91363969 L8.82901421,7.07951393 C8.88267358,7.51304312 8.93203686,7.79864695 8.97710406,7.93632543 C9.04140083,8.13274946 9.1489802,8.18476306 9.22314635,8.30101603 C9.37528985,8.5394959 9.66581425,8.79364549 10.0947196,9.06346482 Z M10.6505634,9.2074686 L10.4017783,9.2665726 C10.1823125,8.87240801 10.0529336,8.57886941 10.0136415,8.38595681 C9.97434951,8.19304421 9.9605025,8.03744535 9.97210049,7.91916024 L10.3141117,7.55558667 C10.2223329,7.76602329 10.1724447,7.9218152 10.1644469,8.0229624 C10.1505289,8.19898354 10.2285011,8.40597269 10.2500385,8.51171492 C10.2901399,8.7086013 10.4236482,8.94051919 10.6505634,9.2074686 Z M11.1535506,9.34669626 L10.8988177,9.34711227 C10.7546122,9.08103142 10.6824101,8.8770618 10.6822114,8.73520341 C10.6820128,8.59334501 10.7377162,8.48329732 10.8493216,8.40506031 L11.1519336,8.19184313 C11.009529,8.45061102 10.9384078,8.63796636 10.9385702,8.75390916 C10.9387325,8.86985196 11.0103927,9.06744766 11.1535506,9.34669626 Z M11.7658805,9.34191621 L11.5111473,9.34195174 C11.3832456,9.0907247 11.3192875,8.9039701 11.3192729,8.78168794 C11.3192582,8.65940577 11.400821,8.5663848 11.5639611,8.50262501 L11.7657561,8.30151404 C11.6854782,8.52385242 11.6453461,8.69184159 11.6453597,8.80548155 C11.6453733,8.91912151 11.6855469,9.09793306 11.7658805,9.34191621 Z M2.31617265,12.1707608 L2.4878301,12.4539258 C2.32624485,12.4835485 2.22953513,12.5063913 2.19770095,12.5224542 C1.96828588,12.6382123 1.79286862,12.7043411 1.67144917,12.7208405 C1.52475704,12.7407742 1.40004778,12.6990844 1.2973214,12.5957711 L0.881656191,12.4055134 C1.25841044,12.4549829 1.52779862,12.4687093 1.68982071,12.4466925 C1.85184279,12.4246756 2.06062678,12.3326984 2.31617265,12.1707608 Z M2.60861867,12.4627394 L2.73633973,12.7007721 C2.56926895,12.8827475 2.42544551,13.0114669 2.3048694,13.0869302 C2.1842933,13.1623936 2.0676785,13.2172937 1.955025,13.2516306 L1.49851449,13.1575051 C1.84473601,13.0920445 2.08340541,13.0182839 2.21452271,12.9362234 C2.34564001,12.8541628 2.47700533,12.6963348 2.60861867,12.4627394 Z M3.11672645,12.6143241 L3.26607052,12.8371955 C3.1087443,13.0672953 2.97245752,13.2273836 2.85721019,13.3174604 C2.74196285,13.4075373 2.63762075,13.4431382 2.54418388,13.4242632 L2.12005813,13.393316 C2.41850757,13.2998894 2.62509707,13.20834 2.73982664,13.1186678 C2.8545562,13.0289957 2.98018947,12.8608811 3.11672645,12.6143241 Z M3.38161159,13.1563656 L3.59272784,13.3103138 C3.46549358,13.653842 3.36621444,13.882649 3.29489043,13.9967348 C3.22356641,14.1108205 3.07994037,14.2385729 2.86401232,14.3799919 L2.54316423,14.5424654 C2.85984981,14.2463342 3.07211703,14.0120143 3.17996589,13.8395054 C3.28781476,13.6669966 3.35502999,13.4392833 3.38161159,13.1563656 Z M3.82162242,13.2802594 L4.03856149,13.4244564 C3.9109203,13.8554563 3.80597354,14.1431248 3.72372121,14.287462 C3.64146889,14.4317992 3.43770174,14.6184645 3.11241976,14.8474581 L2.83062676,14.8781857 C3.20744332,14.53124 3.44370683,14.2737903 3.53941731,14.1058366 C3.63512779,13.9378829 3.72919616,13.6626905 3.82162242,13.2802594 Z M4.78030084,13.6256808 L4.96259279,13.7295096 C4.87568584,14.0715468 4.79707838,14.3032053 4.72677041,14.4244851 C4.65646243,14.5457649 4.598183,14.6219274 4.5519321,14.6529727 L4.18836666,14.9259668 C4.33605485,14.6687963 4.44747528,14.4753927 4.52262795,14.3457559 C4.59778063,14.2161191 4.68367159,13.976094 4.78030084,13.6256808 Z M5.06859731,13.8674831 L5.31450131,13.885426 C5.32132167,14.2293177 5.30618732,14.4526704 5.26909827,14.5554841 C5.23200922,14.6582978 5.20086093,14.7059644 5.17565341,14.6984838 L4.7609498,14.8165404 C4.9120439,14.6569226 5.00324357,14.5337234 5.03454884,14.4469428 C5.0658541,14.3601622 5.07720359,14.167009 5.06859731,13.8674831 Z M5.87950877,14.1190358 L6.05815996,14.1445768 C6.04246983,14.4966741 6.02725309,14.7310876 6.01250974,14.8478173 C5.99776639,14.9645469 5.99144069,15.0515991 5.99353264,15.1089738 L5.64375182,15.3764815 C5.75295463,15.1419132 5.81555589,14.9612906 5.83155562,14.8346136 C5.84755534,14.7079366 5.86353973,14.4694106 5.87950877,14.1190358 Z M6.92912887,14.3803798 L7.15312681,14.511385 C7.1481254,14.7319674 7.1217155,14.8899422 7.07389712,14.9853095 C7.02607875,15.0806767 6.89867028,15.2294716 6.69167174,15.4316942 L6.65353141,15.4289112 C6.75876275,15.193553 6.83875114,15.0212827 6.89349658,14.9121003 C6.94824203,14.802918 6.96011946,14.6256778 6.92912887,14.3803798 Z M7.82894579,14.7422688 L8.08345811,14.7537218 C8.08638927,14.9846591 8.0858784,15.1513574 8.0819255,15.2538168 C8.07797259,15.3562763 8.06683307,15.4915565 8.04850693,15.6596576 L7.90960304,15.6495222 C7.87353952,15.4898403 7.85835846,15.3361092 7.86405986,15.1883289 C7.86976126,15.0405485 7.85805657,14.8918618 7.82894579,14.7422688 Z M4.00065588,9.88372029 L3.87372309,10.1222443 C3.31305539,9.9207627 2.91483029,9.74684536 2.6790478,9.60049224 C2.44326531,9.45413912 2.33401223,9.37644262 2.35128857,9.36740274 L2.10247102,8.70549337 C2.40882996,9.110236 2.66813641,9.37848165 2.88039038,9.51023032 C3.09264434,9.64197899 3.46606617,9.76647564 4.00065588,9.88372029 Z M3.0450538,10.5143764 L2.97206179,10.7779524 C2.30231987,10.7956811 1.83427701,10.7615293 1.56793323,10.6754972 C1.30158945,10.5894651 1.05175208,10.4252682 0.81842112,10.1829066 L0.599715071,9.72450362 C1.07127795,10.1039895 1.43214043,10.3341351 1.68230251,10.4149404 C1.93246458,10.4957456 2.38671502,10.528891 3.0450538,10.5143764 Z M5.94122312,9.27993246 L5.73400331,9.4399365 C5.31546677,9.10246317 5.03933595,8.83272404 4.90561083,8.63071912 C4.77188571,8.42871419 4.68521892,8.25273316 4.64561048,8.10277601 L4.62066558,7.28510066 C4.83515166,7.83706657 5.02344874,8.23548961 5.18555683,8.48036979 C5.34766492,8.72524997 5.59955368,8.99177086 5.94122312,9.27993246 Z" id="eye-lashes" fill="#000000" fill-rule="nonzero" opacity="0.400000006" transform="translate(6.182798, 11.235052) rotate(1.000000) translate(-6.182798, -11.235052) "></path>
                        <path d="M2.18875286,3.66977008 L1.70622623,2.79388878 C8.68493057,-1.05070831 14.0631058,1.73130449 23.8657133,4.0946928 L23.6313313,5.06683737 C14.0489001,2.75653311 8.91243291,-0.0343330688 2.18875286,3.66977008 Z" id="eye-brow" fill="#000000" fill-rule="nonzero" opacity="0.3"></path>
                    </g>
                    <path d="M50.1704058,32.8465079 C49.869149,33.6044243 49.0286721,33.9619952 47.4888342,34.1722328 C44.4311467,34.5897059 43.0085241,34.2184914 42.2302566,32.8914498 C42.118289,32.9001617 41.954465,32.9172203 41.6153695,32.9534508 C41.2639316,32.9894595 40.9896529,33.0114843 40.7167244,33.0219948 C40.1869261,33.0423975 39.7488762,33.0136092 39.3883591,32.9145883 C38.3187521,32.6208063 37.8331633,31.4553167 38.0510784,30.8126541 C38.2257244,30.2975984 38.3286453,30.0309594 38.4445356,29.818312 C38.7861236,29.1915315 39.0427569,29.1352994 40.0911034,29.2032559 C40.7189748,29.2439562 41.2305747,29.2422399 41.9452106,29.1682565 L42.0319639,30.006242 L42.2941089,29.908678 C42.3884412,30.1621398 42.4619216,30.4198876 42.5470976,30.7726896 C42.5649677,30.8467082 42.5799875,30.9103943 42.611548,31.0451171 C42.7116671,31.4719429 42.8200792,31.8330738 42.9582474,32.1337269 C42.9795396,32.1655041 42.9967097,32.2003956 43.008843,32.2384391 C43.5693514,33.3411354 44.6089999,33.5561457 47.353557,33.181425 C49.1948559,32.9300282 49.450379,32.6989991 49.2424292,31.4877348 C49.0773765,30.526337 46.6151841,23.2796213 46.1622693,21.8314455 C45.6332955,20.1400746 45.3569693,18.4311548 45.0182217,15.2340704 C45.0482752,15.5177139 44.7599112,12.7444187 44.669819,11.9331351 C44.5194749,10.5792814 44.3680626,9.37115706 44.1898306,8.14369689 L45.1794524,8 C45.3594421,9.23956567 45.51221,10.4585057 45.6637095,11.8227645 C45.7542568,12.6381456 46.0430484,15.4155534 46.0126553,15.1287051 C46.3447704,18.2631928 46.6131388,19.9228974 47.1166817,21.5329545 C47.4147849,22.4861267 48.74564,26.4255303 49.5704265,29.0413468 C50.0524242,29.0723428 50.4618827,29.0658806 50.9382785,29.0349994 C51.986625,28.9670429 52.2432583,29.0232749 52.5848463,29.6500555 C52.7007367,29.8627029 52.8036575,30.1293419 52.9783035,30.6443976 C53.1962186,31.2870602 52.7106298,32.4525498 51.6410228,32.7463318 C51.2805057,32.8453527 50.8424558,32.874141 50.3126575,32.8537383 C50.2713122,32.8521461 50.223895,32.849736 50.1704058,32.8465079 Z M50.2937448,31.8631043 C50.3145266,31.8566809 50.3336581,31.8538058 50.3511392,31.854479 C50.7874725,31.8712823 51.1342364,31.8484932 51.376168,31.7820435 C51.8459634,31.6530079 52.0766424,31.0993419 52.031266,30.9655206 C51.8753864,30.5058095 51.7856306,30.2732776 51.7067787,30.128592 C51.6240453,29.9767844 51.679905,29.9890241 51.0029653,30.032905 C50.613206,30.0581702 50.2609505,30.0683234 49.8849401,30.0572307 C50.0669288,30.659763 50.1924716,31.1115255 50.2280102,31.3185303 C50.2613609,31.5127915 50.2834785,31.6939907 50.2937448,31.8631043 Z M42.1804672,32.8036629 C42.117354,32.6886079 42.0586426,32.5667724 42.0037443,32.4380569 C41.9920738,32.6094022 42.0724922,32.7304892 42.1804672,32.8036629 Z M41.8157538,31.9265675 C41.7510114,31.7226357 41.6922863,31.505032 41.6379732,31.2734853 C41.6065308,31.1392773 41.5921672,31.0783735 41.575026,31.0073741 C41.4983965,30.689972 41.4346322,30.4663055 41.3569124,30.2574798 L41.4844975,30.2099957 C40.9727178,30.2412504 40.5309946,30.2338696 40.0264166,30.2011615 C39.3494769,30.1572806 39.4053366,30.1450409 39.3226032,30.2968485 C39.2437513,30.4415341 39.1539955,30.6740661 38.9981159,31.1337772 C38.9527395,31.2675984 39.1834185,31.8212644 39.6532139,31.9503 C39.8951455,32.0167498 40.2419094,32.0395388 40.6782427,32.0227355 C40.925931,32.013197 41.1812968,31.9926909 41.513442,31.958659 C41.6320721,31.9459298 41.7312575,31.9353598 41.8157538,31.9265675 Z" id="nose" fill="#000000" fill-rule="nonzero" opacity="0.3"></path>
                    <path d="M3.94478596,19.0195855 C3.811217,19.2705932 3.64658916,19.5504267 3.43894943,19.8899914 C2.89055674,20.7868081 2.68564548,21.1979855 2.5470673,21.7955699 C2.45373585,22.1980389 2.46414165,22.6381333 2.55801924,23.6917119 C2.66241481,24.8633327 2.67403937,25.3549725 2.5470673,25.9025084 L1.57291742,25.6766057 C1.66624886,25.2741368 1.65584307,24.8340424 1.56196548,23.7804638 C1.4575699,22.6088429 1.44594534,22.1172032 1.57291742,21.5696672 C1.74314,20.8356241 1.98354252,20.3532296 2.5858107,19.3683073 C3.0840436,18.5535196 3.29875582,18.1395944 3.43778993,17.6225421 C3.31184214,17.3352737 3.21917747,17.0846803 3.05802066,16.6214166 C2.59216993,15.2826604 2.17061713,14.492131 0.839127834,12.7564831 L1.63255185,12.1478138 C3.03000517,13.9694483 3.50205555,14.8546748 3.99529692,16.2721422 C4.18306456,16.8118993 4.26920146,17.039501 4.41938766,17.3675437 C5.15973362,18.984637 5.26764687,20.2612258 5.23615855,24.4003145 C5.21688002,26.9344468 5.23257889,28.3494209 5.33474138,30.2673495 L4.33615706,30.3205412 C4.23265057,28.3773812 4.21676582,26.945654 4.23618749,24.3927072 C4.25783262,21.5474891 4.21211417,20.1232755 3.94478596,19.0195855 Z" id="ear" fill="#000000" fill-rule="nonzero" opacity="0.3"></path>
                </g>
                <g id="hair" transform="translate(22.000000, 0.000000)">
                    <path d="M107.41788,5.75556648 C118.93224,12.8635415 112.498514,18.9688586 119.32783,31.8327383 C124.360549,41.3125001 122.011883,51.6028303 128.525559,69.5000745 C138.164542,95.9845397 133.395275,98.1133589 135.040784,117.804231 C135.05434,117.966438 135.798323,125.320897 140.0574,131.591499 C141.259402,133.361197 144.418165,135.421883 149.533691,137.77356 C142.243314,136.911047 138.153023,136.410335 137.262817,136.271423 C136.372612,136.132512 135.150058,135.948043 133.595154,135.718018 C129.936846,134.800272 127.203956,134.658962 125.396484,135.294087 C124.452143,135.625918 122.715902,134.795805 121.708157,141.351391 C121.094101,145.345944 120.399933,155.362052 119.625652,171.399715 L109.132568,131.591499 C107.681586,127.262215 106.903847,124.643608 106.799349,123.73568 C105.460968,112.107109 105.460968,112.107109 106.799349,102.234687 C107.157718,99.5912222 106.693323,96.7557629 107.214844,94.1721191 C109.790411,81.4126166 114.535592,69.1106434 112.119606,51.6935498 C110.204432,37.8868561 96.3566333,38.7040965 95.7254519,27.0769064 C95.5181565,23.2582532 95.8752629,19.1971988 96.7562602,15.4940263 C92.7144885,16.743902 90.9830769,18.7680438 84.1185404,19.9600794 C78.856114,20.8739065 72.4746094,19.8739065 58.0614173,34.3082896 C56.3964866,35.9756682 47.1655486,45.8883909 44.6260688,44.3685227 C36.7291722,39.6422626 36.3664218,46.5639513 37.8031312,56.5588872 C39.7168456,69.8722635 45.3647065,66.4082367 47.2286322,74.1296816 C48.1059615,77.764081 51.8045201,82.0510389 54.9172363,87.2053223 C56.3214758,89.5305737 60.5049201,92.7074435 61.7646484,95.2924805 C63.4226617,98.6948216 63.8331514,102.825195 63.8331514,106.889648 C63.8331514,111.314946 64.6041803,115.173485 64.204834,118.592529 C63.7008679,122.907287 62.0651322,126.74053 62.8331514,132.566772 C65.3402693,151.585927 58.8830499,142.656993 56.3966492,163.029122 C55.0098487,174.391763 56.9268625,186.246057 54.053031,197.299808 C52.3775032,203.744468 48.1726292,213.432485 48.6926417,221.330133 C49.5150121,233.819817 46.1643078,242.234571 41.5817742,245.413542 C37.5906806,248.182222 26.246552,250.037719 36.045071,243.905281 L38.0978099,236.154391 C39.7286503,228.343262 38.7147037,222.234858 39.8580738,214.329927 C40.7128133,208.420505 43.5128107,202.878292 43.963918,196.921481 C44.0497053,195.78867 41.6474367,197.447558 41.0641531,198.403812 C37.3331206,204.520588 33.5454834,210.770033 31.3171326,217.655031 C29.2306832,224.101594 29.2607623,244.552772 28.3029925,237.832331 C26.3078954,223.833213 25.4572616,211.453377 26.070015,197.292768 C26.1976362,194.343469 28.1960874,190.031324 29.3214053,186.762964 C29.8058537,185.355937 31.8711572,183.033953 30.6788292,182.927228 C28.0502656,182.691946 25.1831401,187.48577 22.5260859,189.293289 C8.91507626,198.552472 -2.41551704,222.625324 14.1593885,183.886857 C15.8071866,180.035664 19.868012,175.827963 20.6439468,173.038644 C20.8668085,172.237505 23.6588866,170.453263 22.5473615,170.182833 C16.7145723,168.763735 9.92637251,184.85785 6.59083501,188.458158 C-2.84594692,198.644019 -0.727852937,204.469972 4.19317741,172.176496 L8.06903334,160.252453 C15.2736584,141.772864 28.8834147,126.946039 33.4861553,107.2948 C36.2346409,95.5602375 33.9764509,85.5553362 33.5425696,73.4124254 C33.1546827,62.5567464 30.0473943,48.5771483 30.6648948,39.3163696 C32.3011577,14.7770098 43.2238198,1.23446739 73.493902,0.458409399 C79.4461637,0.305806566 96.5579351,-1.61857305 105.982046,3.78721155 C106.234188,3.93184309 106.77723,4.69595919 107.41788,5.75556648 Z" fill="#201D1D"></path>
                    <path d="M139.643785,131.872432 C137.743109,129.074083 136.384071,125.876443 135.474609,122.538663 C134.92156,120.508942 134.614743,118.710101 134.542521,117.84587 C134.119162,112.779769 134.082864,109.386542 134.237745,103.367889 C134.296284,101.093046 134.312411,100.339241 134.319191,99.217241 C134.371785,90.513347 132.976232,83.1909065 128.05571,69.6710756 C125.167399,61.7350341 124.315881,57.5316295 122.645386,45.9672979 C121.649261,39.0714216 120.81927,35.7083599 118.886207,32.0671923 C116.483474,27.5413424 115.783173,24.7581153 114.916446,18.5685132 C114.209914,13.522921 113.418514,11.3993264 110.706002,8.84061188 C109.75417,7.94274894 108.583711,7.06284653 107.155236,6.18102884 C106.381651,5.00807069 105.867257,4.29778524 105.733263,4.22092457 C102.30812,2.25622126 97.6186621,1.1434077 91.8544679,0.711878868 C87.693878,0.400401761 83.6470305,0.447684774 78.1253706,0.734347203 C77.6343541,0.759838809 75.9213127,0.852392404 75.5575071,0.871222347 C74.665968,0.917366863 74.0376153,0.944634088 73.5067166,0.958245155 C45.0211831,1.68855127 32.8861836,13.5185108 31.163787,39.3496353 C30.8697737,43.7590109 31.2435084,48.0064618 32.5790022,58.5268666 C32.6335304,58.9564667 32.6335304,58.9564667 32.6879836,59.386253 C33.5398854,66.115408 33.9106484,69.7114562 34.0422507,73.3945712 C34.1394414,76.1146195 34.2973466,78.4143666 34.6487626,82.7167194 C35.0682154,87.8520405 35.1943818,89.6339647 35.2803414,92.226641 C35.4663547,97.8370961 35.1047574,102.576741 33.97298,107.408825 C31.7631688,116.843536 28.3728773,123.876176 20.1488773,137.972601 C19.9224038,138.360743 19.9224038,138.360743 19.6959104,138.748854 C13.6243166,149.153341 11.0229442,154.052286 8.54454402,160.407016 L4.68747132,172.251819 C3.37384354,180.872292 1.37278503,191.520221 0.720946744,195.042382 C0.836109386,194.882171 0.972452278,194.691442 1.13600739,194.46219 C2.93151694,191.945463 4.28148443,190.215115 6.22405214,188.118349 C6.81985561,187.475251 7.56411071,186.383699 8.65646304,184.595291 C8.92685158,184.152609 11.1091434,180.498027 11.8094946,179.366164 C14.3459877,175.266843 16.3588397,172.604539 18.3553755,171.030105 C19.8543687,169.848024 21.2906212,169.362487 22.6655618,169.697005 C23.3906879,169.873426 23.4654982,170.487992 23.0782242,171.054213 C22.8858114,171.335533 22.6625596,171.565614 22.0644229,172.137539 C21.4310454,172.743204 21.162097,173.041648 21.1256557,173.172647 C20.7404735,174.557294 20.3658633,175.147381 17.5287676,179.222666 C16.794643,180.277184 16.2847233,181.042489 15.8253384,181.797354 C15.3193148,182.628856 14.9198285,183.380637 14.6190782,184.083543 C10.9880381,192.569922 8.97883555,197.385827 7.78102076,200.506892 C7.14546678,202.162912 6.74336989,203.333315 6.5474741,204.094396 C7.21044092,203.712189 7.78411913,203.087631 8.71273479,202.034698 C8.88825816,201.835676 9.07198699,201.626562 9.33116635,201.331012 C9.65594773,200.96053 9.83286751,200.75874 9.99561508,200.573355 C10.5578586,199.932909 11.0010736,199.431394 11.4519313,198.927061 C12.640985,197.596974 13.7198127,196.432847 14.8032476,195.323834 C17.4093916,192.656161 19.8564401,190.504648 22.2448541,188.879878 C23.0241464,188.349747 23.6547612,187.737166 25.1962673,186.101076 C25.5662189,185.708425 25.766312,185.497625 25.9914102,185.265065 C27.983386,183.207061 29.3002253,182.30183 30.7234059,182.429219 C31.505805,182.499252 31.6935712,183.11537 31.4298908,183.839752 C31.2889088,184.227057 31.1416931,184.490482 30.5626764,185.456957 C30.1016819,186.231799 29.9020398,186.612436 29.7941677,186.925739 C29.629214,187.404828 29.4398531,187.924099 29.1969223,188.568829 C29.0532632,188.950095 28.5190435,190.349263 28.5376934,190.300232 C28.3488965,190.796588 28.1988907,191.196142 28.0577022,191.580596 C27.1143266,194.149393 26.6300509,195.916165 26.5695476,197.314384 C26.0045318,210.371784 26.6532266,222.236769 28.5994906,236.346402 C28.7795784,234.130144 29.1543284,229.080622 29.3026084,227.428086 C29.7201652,222.774536 30.1975325,219.490529 30.8414276,217.501068 C32.7179984,211.702974 35.0737524,207.264495 40.6372951,198.143443 C40.9698525,197.598237 41.7647802,196.890632 42.5100796,196.449076 C42.9234345,196.204181 43.2914969,196.057037 43.6039701,196.041347 C44.1432141,196.014269 44.5054204,196.392353 44.4624904,196.959237 C44.2579825,199.659737 43.7242341,201.876074 42.3835478,206.309826 C41.1269089,210.462979 40.6709501,212.202763 40.3529243,214.401502 C39.9292802,217.330455 39.8056593,219.48957 39.6877425,224.225641 C39.6713607,224.883607 39.6633452,225.196181 39.6529052,225.571994 C39.5275727,230.08362 39.2768011,232.953911 38.5811466,236.282397 L36.4778221,244.224293 C32.2706505,246.857366 32.0075407,247.530852 33.6320351,247.497436 C35.7487968,247.453895 39.465061,246.273406 41.2967786,245.002717 C46.1223494,241.655147 48.9512216,232.867448 48.1937221,221.362984 C48.0191902,218.712296 48.3486827,215.748469 49.1167663,212.340251 C49.6177713,210.11714 50.2581872,207.868147 51.2086386,204.859917 C51.4187143,204.195016 52.2935514,201.469197 52.5076108,200.789312 C52.9754065,199.303524 53.307367,198.180783 53.5691183,197.173997 C54.9725789,191.775801 55.2654308,187.302284 55.2993221,177.098206 C55.3009142,176.618836 55.3016508,176.405646 55.3026784,176.139259 C55.3262771,170.021833 55.4498341,166.659667 55.9003321,162.968547 C56.5839314,157.36753 57.588508,153.608126 58.9834647,150.680149 C59.3296207,149.953576 59.6883505,149.296338 60.130205,148.556643 C60.283715,148.299656 60.9899377,147.151965 61.1697273,146.846385 C63.0201429,143.701316 63.3980817,140.678214 62.3374398,132.632117 C61.8920164,129.253107 62.1184359,126.899728 62.9989311,122.569679 C63.2146966,121.5086 63.2361525,121.402097 63.3170915,120.980597 C63.4964731,120.046446 63.6209774,119.281374 63.7082101,118.534523 C63.9028,116.868522 63.8581419,115.597292 63.5778396,111.940172 C63.4022336,109.64903 63.3331514,108.384093 63.3331514,106.889648 C63.3331514,102.13129 62.7556539,98.4674572 61.3151776,95.5115145 C60.888497,94.6359409 60.0897456,93.6398342 58.7719851,92.2589982 C58.5290145,92.0043977 58.2765141,91.7445082 57.9333364,91.3946309 C55.6513972,89.0681435 55.0787936,88.440046 54.4892297,87.4637992 C53.999198,86.6523656 53.4706236,85.8223124 52.8597738,84.8980187 C52.78929,84.7913677 49.8274573,80.4194965 49.1032339,79.2595016 C47.8486916,77.2500903 47.0902872,75.6873577 46.7425929,74.2470095 C46.1380528,71.7426591 45.3049774,70.5605998 43.3262617,68.8185185 C43.3174919,68.8107975 42.8774211,68.4248027 42.7483828,68.3104517 C42.5231358,68.1108425 42.3352826,67.9403819 42.154499,67.7702919 C39.5889946,65.356541 38.1400319,62.4168114 37.3082181,56.6300279 C36.4750509,50.8338295 36.3896813,47.0461645 37.2464836,44.767294 C38.3330034,41.8774353 40.9004778,41.5560632 44.882842,43.9394919 C45.6529037,44.4003706 47.8549203,43.1577704 50.8237776,40.6086345 C51.4222531,40.0947683 52.0455218,39.5350456 52.6915568,38.9336203 C53.701392,37.9935158 54.7163344,37.0000171 55.7941905,35.9095687 C56.3101378,35.3875936 57.5774109,34.0853809 57.7076043,33.9549961 C63.6176494,28.0362616 68.5366696,24.3293949 72.9206599,22.2298476 C76.1241578,20.6956527 78.073818,20.2462931 82.2644496,19.7198317 C83.0692689,19.6187237 83.5432444,19.5524976 84.032995,19.4674518 C87.0758788,18.9390511 89.1704775,18.2644396 91.4804279,17.2064992 C91.7478723,17.0840117 92.015914,16.9580658 92.3621801,16.7929752 C92.368489,16.7899673 93.0334166,16.4719886 93.2237364,16.3817844 C94.5688967,15.744231 95.4940134,15.3610014 96.6085422,15.016345 L97.4454258,14.7575475 L97.2426843,15.6097482 C96.3753945,19.2553031 96.0194104,23.2677913 96.2247168,27.0498038 C96.4614887,31.4114524 98.210785,33.7974935 102.842807,37.4606558 C102.976289,37.5662182 104.022289,38.3885441 104.332006,38.6347494 C109.461933,42.7127095 111.82507,45.9311401 112.614864,51.6248508 C114.175961,62.8789603 113.232977,70.7896345 109.732304,85.392231 C108.809491,89.2416267 108.720313,89.6173187 108.375689,91.1455133 C108.125214,92.2562162 107.904488,93.2825701 107.704958,94.2710512 C107.477133,95.3997132 107.435097,96.3535937 107.447892,98.546843 C107.458247,100.421094 107.42976,101.306465 107.294817,102.301856 C106.516996,108.039368 106.34528,109.574849 106.302155,111.681235 C106.250766,114.191267 106.409093,115.971977 107.29607,123.67851 C107.394713,124.535572 108.170431,127.14737 109.616054,131.464057 L119.28514,168.146225 C119.996725,153.966872 120.638692,145.017668 121.213962,141.275422 C121.664019,138.347711 122.288615,136.622148 123.127293,135.731865 C123.649862,135.177142 124.068161,135.01938 124.895348,134.89227 C127.150662,134.147718 129.972021,134.293603 133.668325,135.223401 C135.224424,135.453603 136.448181,135.638253 137.339907,135.777402 C138.093145,135.89494 141.196846,136.278545 146.633005,136.925842 C143.001531,135.067532 140.676987,133.393606 139.643785,131.872432 Z M111.392185,8.11318351 C114.308909,10.8645308 115.171553,13.1792973 115.906784,18.4298367 C116.758555,24.5126338 117.434999,27.2010435 119.769454,31.5982844 C121.771727,35.3698186 122.623467,38.8210025 123.635114,45.8243295 C125.296209,57.3235919 126.137524,61.4766309 128.995409,69.3290735 C133.954772,82.955623 135.372521,90.3945304 135.319173,99.2232835 C135.312338,100.354339 135.296135,101.111717 135.237414,103.393614 C135.083391,109.378947 135.119347,112.740276 135.539048,117.762593 C135.606345,118.567904 135.902938,120.306801 136.439434,122.275771 C137.321914,125.514523 138.638832,128.613061 140.471014,131.310567 C141.605928,132.981491 144.706065,135.003931 149.742537,137.319265 L152.62032,138.642221 L149.474947,138.270097 C142.172274,137.406129 138.085461,136.905843 137.185728,136.765445 C136.297043,136.626771 135.075691,136.442483 133.473491,136.20299 C129.90167,135.306941 127.257249,135.170205 125.562243,135.765812 C125.414457,135.817742 125.285876,135.843996 125.047231,135.880668 C124.421453,135.976829 124.187106,136.065213 123.855181,136.417561 C123.187553,137.126269 122.624338,138.682256 122.202352,141.42736 C121.592025,145.397659 120.898391,155.406055 120.12507,171.423827 L119.968696,174.66281 L119.142166,171.527158 L108.658486,131.75039 C107.192742,127.37706 106.41298,124.751644 106.302629,123.792849 C105.409546,116.033269 105.249661,114.235032 105.302365,111.660766 C105.346586,109.500829 105.520274,107.947712 106.303882,102.167517 C106.430624,101.232619 106.458013,100.381357 106.448952,98.7348435 C106.43471,96.2901782 106.478696,95.2920507 106.724729,94.0731871 C106.925849,93.0768293 107.148137,92.0432083 107.400186,90.925527 C107.746263,89.3908918 107.835638,89.0143652 108.759857,85.1591068 C112.233729,70.6683071 113.164162,62.862925 111.624348,51.7622487 C110.876793,46.3730439 108.657827,43.3509646 103.709732,39.4175485 C103.40258,39.1733825 102.357967,38.3521469 102.222505,38.2450192 C97.3866396,34.4206502 95.4823693,31.8232246 95.226187,27.104009 C95.031918,23.5253204 95.3274341,19.7497668 96.0734997,16.2493273 C95.335902,16.515562 94.6061877,16.8331906 93.652027,17.2854255 C93.4635654,17.3747489 92.8002408,17.691961 92.7925429,17.6956312 C92.4420331,17.8627451 92.1697027,17.9907061 91.8968266,18.1156813 C89.5117348,19.208036 87.3355484,19.9089245 84.2040858,20.452707 C83.6948277,20.5411404 83.2084784,20.6090954 82.389098,20.7120326 C78.296649,21.2261596 76.436272,21.6549411 73.3525936,23.1317529 C69.0811975,25.1773775 64.2506936,28.8175403 58.4152303,34.6615832 C58.2906163,34.7863804 57.0257777,36.0860916 56.5053918,36.6125571 C55.4185425,37.7121038 54.3941418,38.7148609 53.3729416,39.6655457 C52.71757,40.275663 52.0844541,40.8442288 51.4752171,41.3673351 C48.0910438,44.2730718 45.7243942,45.6085746 44.3692956,44.7975536 C40.8560408,42.6948851 39.0069863,42.9263322 38.1825119,45.1192189 C37.4062677,47.1838256 37.4891307,50.8602757 38.2980443,56.4877465 C39.0986325,62.0572988 40.4450093,64.7888968 42.839737,67.0419726 C43.0123923,67.2044152 43.1932277,67.3685078 43.4116129,67.5620362 C43.5383837,67.6743777 43.9766051,68.0587504 43.9870631,68.0679577 C46.1068816,69.9342674 47.0549797,71.2795334 47.7146714,74.0123537 C48.0317928,75.3260517 48.7489598,76.8038124 49.9514863,78.7299094 C50.6640213,79.8711829 53.6142889,84.2259832 53.6940445,84.3466636 C54.3118749,85.2815198 54.8475282,86.1226897 55.345243,86.9468454 C55.8752397,87.8244562 56.4413801,88.445464 58.6472452,90.6943922 C58.9933478,91.0472514 59.2487018,91.3100781 59.4954218,91.5686075 C60.8808449,93.0203448 61.7291353,94.0782306 62.2141193,95.0734464 C63.7341249,98.1925877 64.3331514,101.993008 64.3331514,106.889648 C64.3331514,108.351524 64.4011512,109.596641 64.5749152,111.863751 C64.860584,115.590886 64.9064222,116.895712 64.7014579,118.650535 C64.6110031,119.424973 64.4827777,120.212911 64.2991492,121.169178 C64.2172055,121.59591 64.1956081,121.703114 63.9788763,122.768946 C63.1187133,126.999007 62.9013483,129.258273 63.3288631,132.501427 C64.416142,140.749595 64.0111718,143.98892 62.0316166,147.353481 C61.8455971,147.66965 61.1370003,148.8212 60.9887013,149.069463 C60.5617976,149.784129 60.21761,150.414724 59.8862436,151.110254 C58.5412794,153.933298 57.5642442,157.589634 56.8929663,163.089697 C56.4485877,166.730678 56.3261255,170.063054 56.302671,176.143116 C56.3016443,176.409265 56.3009084,176.622246 56.2993166,177.101528 C56.2651461,187.389667 55.9686561,191.918758 54.5369438,197.425619 C54.2701354,198.451857 53.9338854,199.589105 53.4614514,201.089626 C53.2463288,201.772887 52.3712862,204.499346 52.1621772,205.161187 C51.2194817,208.14487 50.5858841,210.369919 50.0923003,212.560099 C49.3435988,215.882314 49.0241938,218.755401 49.1915614,221.297283 C49.9698052,233.116798 47.0327124,242.240677 41.8667698,245.824367 C39.8716828,247.208388 35.9640092,248.44968 33.6526006,248.497225 C32.2189239,248.526716 31.3219424,248.029799 31.7494613,246.935472 C32.0675004,246.121382 33.3228883,245.033528 35.6121816,243.58686 L37.6083638,236.052202 C38.2832362,232.81981 38.529469,230.001469 38.6532908,225.544224 C38.6636957,225.169679 38.671694,224.857773 38.6880523,224.200751 C38.8069178,219.426575 38.9322116,217.238243 39.3632233,214.258352 C39.6908168,211.993465 40.155266,210.221284 41.3394741,206.307568 C42.7107111,201.772912 43.239195,199.607869 43.4485751,197.094692 C42.4039388,197.674286 41.7275745,198.276352 41.4910111,198.664181 C35.9678052,207.719105 33.6373789,212.109864 31.7928377,217.808995 C31.1797705,219.703206 30.7094484,222.938746 30.2986069,227.517455 C30.1227574,229.477247 29.6223851,236.299501 29.5147507,237.370577 C29.3870277,238.641556 29.2910857,239.2064 29.0848005,239.45883 C28.8685171,239.723495 28.4850232,239.747775 28.2431867,239.488324 C27.9608159,238.842905 27.8867707,238.455633 27.8079942,237.902877 C25.6994053,223.107415 24.9838674,210.827709 25.5704825,197.271153 C25.6367811,195.739006 26.1415722,193.897387 27.1190013,191.235863 C27.2617113,190.847266 27.4129758,190.44436 27.6030233,189.944715 C27.5850867,189.991872 28.1184002,188.595077 28.2611464,188.216234 C28.5009826,187.579716 28.6872948,187.068806 28.848643,186.600188 C28.9858414,186.201711 29.2078621,185.778407 29.6007648,185.117344 C30.2382894,184.052618 30.3814861,183.796385 30.4902094,183.497701 C29.5934725,183.3644 28.4545266,184.158146 26.7099497,185.960551 C26.488889,186.18894 26.2911025,186.39731 25.9240994,186.786832 C24.3260906,188.482891 23.6712985,189.118958 22.8073177,189.7067 C20.4819249,191.288598 18.0819923,193.398686 15.5185553,196.022643 C14.4465698,197.119937 13.3773947,198.273648 12.1974578,199.593537 C11.7489243,200.095271 11.3075446,200.594708 10.7471135,201.23309 C10.584615,201.418191 10.4079537,201.619686 10.0830196,201.990343 C9.82327319,202.286539 9.63900218,202.496271 9.46272914,202.696142 C7.14192344,205.327643 6.54907341,205.902182 5.8859508,205.67513 C5.00332248,205.372921 5.33103233,204.099725 6.84741534,200.148589 C8.05133441,197.011618 10.0635783,192.188424 13.6996988,183.690171 C14.021092,182.939019 14.4421309,182.146679 14.9710904,181.277488 C15.4433659,180.501441 15.9632043,179.72125 16.7080621,178.651315 C19.4346301,174.734794 19.8235431,174.122178 20.162238,172.904642 C20.2725185,172.508207 20.5383643,172.213206 21.3613993,171.426181 C21.7980156,171.008698 22.0167562,170.789817 22.1568166,170.61765 C21.1992988,170.490843 20.1430113,170.893929 18.9745889,171.815328 C17.0980622,173.295125 15.1371013,175.888794 12.6598694,179.892341 C11.9646418,181.015924 9.78437758,184.66711 9.50986452,185.116545 C8.38310262,186.961289 7.61348585,188.090037 6.95761787,188.797967 C5.04988181,190.857137 3.72295796,192.557948 1.95007009,195.042967 C1.15606244,196.155911 0.986298374,196.3862 0.755069592,196.636739 C0.518004169,196.893601 0.342100752,197.019891 0.0620256561,196.994485 C-0.362749021,196.955953 -0.481334842,196.659125 -0.491994763,196.260443 C-0.499677412,195.973111 2.12816245,182.408779 3.71766673,172.021934 L7.60318545,160.070834 C10.1163596,153.624638 12.7346501,148.693832 18.832215,138.24484 C19.0587165,137.856715 19.0587165,137.856715 19.2851274,137.46868 C27.4604408,123.455707 30.819332,116.488203 32.9993305,107.180776 C34.1091114,102.442605 34.4641905,97.7883956 34.2808905,92.2597775 C34.1956654,89.6892513 34.0701369,87.9163376 33.6520818,82.7981283 C33.299486,78.4813307 33.1407785,76.1698982 33.0428885,73.4302797 C32.9127067,69.7869202 32.5440779,66.2115727 31.6959021,59.5118491 C31.6414807,59.0823132 31.6414807,59.0823132 31.5869634,58.6527992 C30.2421591,48.0590506 29.8659339,43.783295 30.1660027,39.2831039 C31.9225486,12.9398352 44.4757287,0.702206919 73.4810873,-0.0414263583 C74.0013163,-0.0547638811 74.6222771,-0.0817103336 75.505818,-0.127440879 C75.8681414,-0.146194107 77.581078,-0.238742041 78.0735244,-0.26430788 C83.6340543,-0.552988281 87.7166828,-0.600689357 91.9291227,-0.28533057 C97.8289463,0.156351982 102.652681,1.30102954 106.230829,3.35349852 C106.573217,3.54989644 107.089574,4.25488213 107.783173,5.39373564 C109.220714,6.28859519 110.411631,7.18822616 111.392185,8.11318351 Z M22.4178181,170.663119 C22.4224848,170.666129 22.4263661,170.667981 22.4291613,170.668661 C22.428031,170.668386 22.4269006,170.668112 22.4257701,170.667838 L22.4178181,170.663119 Z M43.636366,197.03825 C43.6426228,197.039708 43.6485775,197.040367 43.654121,197.040088 C43.6522731,197.040181 43.6503916,197.040298 43.6484766,197.040439 L43.636366,197.03825 Z" id="hair-outlines" fill="#000000" fill-rule="nonzero" opacity="0.05"></path>
                    <path d="M118.379753,95.0780834 C118.043218,96.4676626 117.678556,97.9296654 117.284964,99.4757296 C117.221838,99.7236631 117.221838,99.7236631 117.158704,99.9715713 C113.702253,113.544297 112.588071,119.777978 112.801595,128.142514 L111.801921,128.168033 C111.585318,119.682894 112.711151,113.384025 116.189634,99.7247864 C116.252766,99.4768854 116.252766,99.4768854 116.315874,99.2290215 C117.972098,92.7232357 119.111381,87.723003 119.795887,83.3499788 C120.085154,80.9956815 120.302355,79.238241 120.371499,78.6425463 L120.377841,78.6432825 C120.677975,75.2085036 120.66406,71.9902354 120.374702,68.4429951 C119.530896,58.0987736 116.970066,51.3070614 110.137024,38.1218182 C109.846758,37.5618323 109.693996,37.2670966 109.556631,37.0018419 C104.015276,26.3013141 101.686783,20.6011335 100.358526,12.7257332 L101.344599,12.559423 C102.650843,20.3043046 104.948117,25.9280604 110.444625,36.541987 C110.581895,36.8070587 110.734559,37.1016045 111.024881,37.6617001 C117.914828,50.9567468 120.51392,57.849934 121.371392,68.3616924 C121.795672,73.5629474 121.638034,78.059729 120.784267,83.5080088 C119.901396,90.6945102 118.358266,103.344652 118.293558,105.552667 C118.213991,108.267721 119.315045,127.247321 119.598124,133.516508 L118.599142,133.561617 C118.31863,127.349284 117.212924,108.289488 117.293987,105.523374 C117.329991,104.294835 117.808751,99.9445565 118.379753,95.0780834 Z M39.9733663,20.2477715 C40.6505751,17.0477701 42.837312,14.3378095 47.4091299,11.4259316 L47.9463388,12.2693809 C42.6499798,15.6427328 40.8061334,18.5892101 40.7365761,22.4288357 C40.7204893,23.3168429 40.7691733,24.0057492 40.9358757,25.6913967 C41.3849753,30.232567 41.1700908,32.4986573 39.3778619,35.5896679 L38.5127631,35.0880665 C40.1732002,32.2243537 40.370896,30.1395285 39.9407302,25.7898117 C39.7701195,24.0646435 39.7197025,23.3512158 39.7367402,22.410723 C39.7373679,22.3760743 39.7381289,22.3414905 39.7390243,22.3069706 C34.8699564,29.5705316 33.1197042,38.2095701 33.7533548,47.5105955 C33.9958959,51.0707302 34.5796552,54.5018736 35.3854991,57.6687229 C35.9074081,59.7197498 36.5056868,61.5442566 36.7885471,62.1945037 C36.9755708,62.6244389 37.1657948,63.0583134 37.3598709,63.4977332 C38.6002949,66.3062548 43.5311473,76.9501587 44.6888454,79.5894191 C49.0581415,89.5503143 51.4792951,97.3808656 52.6513944,106.735691 C53.3522222,112.329176 52.7348034,116.908531 50.8543588,123.18745 C50.6656786,123.817465 50.4634215,124.471801 50.209276,125.278561 C50.0804576,125.687482 49.6248425,127.123689 49.5423432,127.384927 C47.5181324,133.794684 46.6189133,137.702619 46.3037479,142.836302 C46.0046734,147.707882 46.5021272,152.037714 47.8240846,158.792102 C49.2030449,165.83774 49.3053689,166.425245 49.4164351,168.77621 C49.889434,178.788286 48.6829387,183.832078 43.6605974,196.801649 L42.7280744,196.440538 C47.7042991,183.590058 48.8824776,178.664645 48.4175492,168.8234 C48.3099484,166.545789 48.2072983,165.956412 46.8427042,158.984176 C45.5056492,152.152649 45.0000743,147.75213 45.3056271,142.775026 C45.626896,137.541924 46.5419969,133.564967 48.5887638,127.083785 C48.6715702,126.821575 49.1270385,125.385831 49.2554828,124.978097 C49.5083235,124.17548 49.7092689,123.525387 49.896397,122.900555 C51.7403425,116.743508 52.3401206,112.294993 51.6591524,106.860012 C50.500558,97.6129731 48.1066931,89.8706795 43.7730735,79.9911178 C42.6206937,77.3639817 37.6905518,66.7216114 36.445118,63.901747 C36.2503006,63.4606487 36.0593295,63.0250702 35.8715514,62.5934008 C35.5652988,61.8893788 34.9506841,60.0150538 34.4163826,57.9153265 C33.5963563,54.6927422 33.0025636,51.2026257 32.7556674,47.5785649 C32.0640082,37.4260613 34.1577231,28.0155515 39.9733663,20.2477715 Z M59.1590998,10.8308606 C63.2309239,10.4072733 64.2039891,10.8384798 71.1484375,8.49580112 C71.6465092,8.32772351 63.3111075,11.2003072 57.36212,12.0619633 C56.6992664,12.5053222 55.5109617,13.2995003 55.1286928,13.5560607 C48.31695,18.1277739 49.3553825,23.8320683 46.7669379,27.3970503 C43.4915886,31.9080843 42.5384962,36.9399693 44.1817884,43.1862639 L43.214696,43.4406892 C41.4949055,36.9036178 42.5065184,31.5627714 45.957741,26.8095127 C48.6374399,23.1188491 47.6643748,17.3614069 54.5714171,12.7257332 C55.0544009,12.4015778 56.8174243,11.2236533 57.1928349,10.9719545 C62.4868546,7.42251091 63.466879,7.7652541 59.1590998,10.8308606 Z M45.3792087,112.0778 L45.8294706,112.179673 C44.7714477,116.855972 44.4953503,120.531719 44.3031833,128.751561 C44.2469321,131.157673 44.2168069,132.236121 44.1610578,133.578676 C43.9840544,137.841284 43.632889,141.199539 42.9383859,144.481445 C42.0615931,148.62477 41.769389,150.721113 40.9645222,157.632108 C40.5381858,161.29285 40.2390229,163.33856 39.7516345,165.558247 C38.4070979,171.681598 35.8065394,177.094078 30.6244391,183.8578 L29.830639,183.249622 C34.9261893,176.598865 37.4627772,171.319526 38.7749031,165.343781 C39.2531973,163.165511 39.5485313,161.145983 39.9712357,157.516429 C40.7797207,150.574365 41.0746707,148.458322 41.9600516,144.274414 C42.6412903,141.055189 42.9870335,137.748787 43.1619188,133.537187 C43.2173341,132.202671 43.2473462,131.128274 43.3034564,128.728189 C43.3892241,125.05952 43.4918354,122.285504 43.6730994,119.919722 C43.2798502,121.547266 42.8359734,123.31867 42.3368955,125.26667 C41.1776781,129.791325 40.3286102,133.989443 39.6549408,138.279992 C39.3915898,139.957254 39.1615915,141.600057 38.9180209,143.496932 C38.8025711,144.39603 38.4290774,147.413506 38.352544,148.01179 C37.1780777,157.192928 35.7661903,160.838805 30.8947967,165.011527 C28.8244548,166.784934 26.1196594,168.550774 22.5379112,170.470014 L22.0656044,169.58858 C25.5885274,167.70086 28.2352007,165.972966 30.2442532,164.252058 C34.8848822,160.277003 36.2146785,156.843108 37.3606269,147.884902 C37.4368045,147.2894 37.8103373,144.271608 37.9261645,143.369571 C38.1708394,141.464096 38.4020863,139.812375 38.667044,138.12488 C39.3454535,133.804142 40.2007693,129.575131 41.3681827,125.018486 C44.3357002,113.435678 45.3343421,108.159647 45.3464138,102.242216 C45.3607254,95.2268249 43.6359178,88.4444292 39.5499414,79.9042711 L40.4520117,79.4726821 C44.5993125,88.1410152 46.3610502,95.0686296 46.3464117,102.244256 C46.3400139,105.380387 46.0636887,108.328449 45.3792087,112.0778 Z M123.831939,137.054544 L122.880021,136.74819 C126.260495,126.244201 126.871165,117.138595 125.768921,104.692123 C125.575825,102.511695 125.433483,101.147971 124.945671,96.6586582 C123.657131,84.8002735 123.303373,78.7115478 123.826252,70.6823515 L124.824138,70.747336 C124.306042,78.7030984 124.657157,84.74634 125.93982,96.5506334 C126.42842,101.047206 126.571111,102.41428 126.765022,104.60391 C127.878098,117.172694 127.258846,126.406276 123.831939,137.054544 Z" id="hair-outlines-2" fill="#000000" fill-rule="nonzero" opacity="0.05"></path>
                </g>
            </g>
        </g>
    </g>
</svg>