<?xml version="1.0" encoding="UTF-8"?>
<svg width="480px" height="300px" viewBox="0 0 480 300" version="1.1" xmlns="http://www.w3.org/2000/svg" xmlns:xlink="http://www.w3.org/1999/xlink">
    <!-- Generator: Sketch 51 (57462) - http://www.bohemiancoding.com/sketch -->
    <title>Avatars</title>
    <desc>Created with Sketch.</desc>
    <defs></defs>
    <g id="Avatars" stroke="none" stroke-width="1" fill="none" fill-rule="evenodd">
        <rect id="Frame" fill="#E6E6E6" x="0" y="0" width="480" height="300"></rect>
        <g id="Tiefling" transform="translate(120.000000, 28.000000)">
            <g id="Female" transform="translate(14.000000, 0.000000)">
                <path d="M4.42253521,271.730412 C7.00911951,243.587016 8.91948573,225.791337 10.1536339,218.343375 C11.0392045,212.999043 9.56959531,207.474558 10.1771028,202.09147 C11.403007,191.228805 18.9018322,166.43828 24.654982,162.748218 C29.8013157,159.447367 45.6643724,157.96684 51.308685,155.618538 C56.6385379,153.401065 81.5528498,150.196742 85.4457353,145.931927 C88.5174688,142.566718 88.6838318,132.350233 85.9448242,115.282471 C83.8372157,113.951273 82.3665939,112.80902 81.532959,111.855711 C80.2893806,110.433608 79.1762874,107.685835 78.2167969,106.789551 C76.9947282,105.647986 68.7658596,94.6508434 68.515625,93.7167969 C67.2713123,89.0721718 62.5310368,70.6747517 59.7387489,57.425751 C56.946461,44.1767502 67.0350627,29.5542518 70.9481459,25.8659763 C85.18421,12.4477778 123.275509,5.06529752 136.799133,29.4289683 C141.920929,38.6562116 144.170334,60.4083836 145.957177,80.5471172 C146.976288,92.0330767 142.835541,95.912859 139.934814,99.517334 C139.108647,100.54394 136.812423,103.661534 133.046143,108.870117 L135.057252,122.554794 L138.446648,141.800948 C147.362281,144.763526 155.270974,150.730592 164.606769,151.859609 C195.689189,155.618538 184.844118,154.066047 203.66521,172.215573 C214.03657,182.216867 218.789939,215.906155 220.604025,227.737539 C221.618647,234.354856 224.425361,249.019147 229.024166,271.730412 L195.689189,271.730412 L0.0573611917,271.730412 L4.42253521,271.730412 Z" id="body" fill="#404863"></path>
                <path d="M39.0074824,272.198765 C41.0060281,260.556794 42.6266072,252.119282 43.8692197,246.88623 C45.1118322,241.653179 46.7324113,236.441102 48.730957,231.25 C47.6937697,236.968853 47.1751761,240.343853 47.1751761,241.375 C47.1751761,242.406147 48.6937697,252.680736 51.730957,272.198765 L39.0074824,272.198765 Z" id="armpit-l" fill="#000000" opacity="0.5"></path>
                <path d="M181.535211,271.994792 L191.120929,234.641113 C190.238366,238.919818 189.765691,241.886126 189.702905,243.540039 C189.640119,245.193952 190.640119,254.678869 192.702905,271.994792 L181.535211,271.994792 Z" id="armpit-r" fill="#000000" opacity="0.5" transform="translate(187.119058, 253.317952) scale(-1, 1) translate(-187.119058, -253.317952) "></path>
                <path d="M119.04478,243.878294 C127.422687,264.655674 136.270408,270.529692 154.507633,270.529692 C178.054751,270.529692 190.448217,252.191822 180.403158,229.177461 C175.851368,223.089237 172.375189,217.169523 169.975786,211.417294 L170.898712,211.032318 C173.270674,216.718761 176.716862,222.583212 181.23845,228.624641 C191.67558,252.43063 178.78637,271.529692 154.507633,271.529692 C135.577753,271.529692 126.380759,265.222711 117.73583,243.294799 C116.370178,248.82079 115.307111,252.412561 114.534706,254.097486 C110.117479,263.733239 95.9859797,271.13991 81.4801303,271.706113 C65.2005272,272.34155 52.451127,264.543649 48.4255191,248.878679 C47.119281,243.795675 46.9999488,239.837954 47.8194166,235.395306 C48.0464864,234.164275 48.3401648,232.897287 48.7660005,231.257217 C48.9358861,230.602917 49.7341693,227.625346 49.9545223,226.77627 C50.172277,225.937204 50.0682487,224.226345 49.6240731,219.777167 C49.1629505,215.157614 49.0596249,213.431085 49.31516,212.367743 L50.2874782,212.601404 C50.0726375,213.495407 50.1783922,215.262523 50.6125282,219.611728 C51.0865185,224.359556 51.1868047,226.008871 50.9224577,227.027469 C50.7007665,227.881702 49.9024632,230.859348 49.7339067,231.508529 C49.3135625,233.127449 49.0248657,234.372945 48.802827,235.576701 C48.0094327,239.877994 48.1243387,243.68892 49.3940497,248.629785 C53.2919319,263.797732 65.5992234,271.325227 81.4411272,270.706874 C95.6029546,270.154099 109.385479,262.930334 113.625672,253.680766 C114.325964,252.153147 115.306877,248.880383 116.558262,243.885779 L116.447549,243.872478 C117.191584,237.679207 116.300631,227.849436 114.575287,223.341516 L115.50922,222.984066 C116.985937,226.842383 117.860741,234.329864 117.691001,240.394615 L117.864554,240.849915 C117.63633,234.709197 118.517623,226.939526 120.031521,222.984066 L120.965453,223.341516 C119.240109,227.849436 118.349156,237.679207 119.093191,243.872478 L119.04478,243.878294 Z" id="breast" fill="#000000" fill-rule="nonzero" opacity="0.3"></path>
                <path d="M119.933282,137.155999 L119.098945,136.604744 C120.93579,133.824637 121.361812,133.134893 121.780816,132.192995 C121.9996,131.701183 122.174484,131.198442 122.356283,130.54516 C122.519701,129.957931 122.645813,129.434825 123.004616,127.887083 C123.276125,126.715897 123.367176,125.730682 123.475921,123.473015 C123.587575,121.154948 123.682227,120.130772 123.971902,118.881223 L124.946067,119.107058 C124.674559,120.278243 124.583508,121.263459 124.474763,123.521126 C124.363108,125.839193 124.268457,126.863369 123.978782,128.112917 C123.616218,129.676883 123.488592,130.206266 123.319674,130.813259 C123.125488,131.511053 122.934776,132.059295 122.69449,132.599444 C122.243256,133.613791 121.807201,134.319779 119.933282,137.155999 Z" id="neck-line" fill="#000000" fill-rule="nonzero" opacity="0.100000001"></path>
                <g id="nipples" opacity="0.700000048" transform="translate(69.000000, 233.000000)">
                    <g id="right" transform="translate(84.000000, 1.000000)">
                        <path d="M7,14 C3.13400675,14 0,10.8659932 0,7 C0,3.13400675 3.13400675,0 7,0 C10.8659932,0 14,3.13400675 14,7 C14,10.8659932 10.8659932,14 7,14 Z" id="ra" fill="#000000" fill-rule="nonzero" opacity="0.3"></path>
                        <circle id="rn" fill="#404863" opacity="0.400000006" cx="7" cy="7" r="2"></circle>
                        <path d="M7,10 C5.34314575,10 4,8.65685425 4,7 C4,5.34314575 5.34314575,4 7,4 C8.65685425,4 10,5.34314575 10,7 C10,8.65685425 8.65685425,10 7,10 Z M7,8.8 C7.99411255,8.8 8.8,7.99411255 8.8,7 C8.8,6.00588745 7.99411255,5.2 7,5.2 C6.00588745,5.2 5.2,6.00588745 5.2,7 C5.2,7.99411255 6.00588745,8.8 7,8.8 Z" id="rno" fill="#000000" fill-rule="nonzero" opacity="0.3"></path>
                    </g>
                    <g id="left">
                        <path d="M7,14 C3.13400675,14 0,10.8659932 0,7 C0,3.13400675 3.13400675,0 7,0 C10.8659932,0 14,3.13400675 14,7 C14,10.8659932 10.8659932,14 7,14 Z" id="la" fill="#000000" fill-rule="nonzero" opacity="0.3"></path>
                        <circle id="ln" fill="#404863" opacity="0.400000006" cx="7" cy="7" r="2"></circle>
                        <path d="M7,10 C5.34314575,10 4,8.65685425 4,7 C4,5.34314575 5.34314575,4 7,4 C8.65685425,4 10,5.34314575 10,7 C10,8.65685425 8.65685425,10 7,10 Z M7,8.8 C7.99411255,8.8 8.8,7.99411255 8.8,7 C8.8,6.00588745 7.99411255,5.2 7,5.2 C6.00588745,5.2 5.2,6.00588745 5.2,7 C5.2,7.99411255 6.00588745,8.8 7,8.8 Z" id="lno" fill="#000000" fill-rule="nonzero" opacity="0.3"></path>
                    </g>
                </g>
                <path d="M59.8899846,213.5329 L55.0791016,154.553223 L59.3325195,153.60498 L65.2184481,219.690997 C66.4702937,225.007644 69.4743705,231.898358 80.90372,235.286874 C93.767956,239.100798 105.567786,241.378391 116.30321,242.119654 C116.461876,240.77547 116.761386,240.788057 117.201741,242.157413 C126.733124,242.124858 138.044289,240.168012 151.135237,236.286874 C163.7918,232.53452 166.88085,223.623356 168.321654,217.764778 L155.653809,149.619629 L161.721191,151.257812 L172.597866,213.617566 C180.961698,221.622471 187.361537,242.373057 184.19687,252.44239 C179.04184,268.844659 170.446471,272.198765 151.135237,272.198765 C133.510791,272.198765 118.931876,265.832526 116.519478,250.373351 C114.107081,265.832526 99.5281652,272.198765 81.90372,272.198765 C62.5924858,272.198765 53.9971162,268.844659 48.8420864,252.44239 C45.6816733,242.386591 47.2274813,220.585281 59.8899846,213.5329 Z" id="bra" fill="#414141"></path>
                <path d="M86.5863215,170.284801 L85.7046942,169.812855 C86.3498229,168.607711 87.9480407,165.43586 88.2279416,164.950099 C88.864065,163.846123 89.3913217,163.350571 90.2662389,163.11167 C90.5722172,163.028121 100.390204,162.790537 105.204268,161.078468 L105.348466,162.068017 C100.446227,163.11167 90.70098,164.029571 90.5296509,164.076353 C89.9495244,164.23476 89.6108412,164.553078 89.094394,165.449359 C88.8312623,165.906017 87.2432472,169.05762 86.5863215,170.284801 Z" id="collarbone-l" fill="#000000" fill-rule="nonzero" opacity="0.129999995" transform="translate(95.526580, 165.681635) scale(-1, 1) translate(-95.526580, -165.681635) "></path>
                <path d="M120.586321,170.284801 L119.704694,169.812855 C120.349823,168.607711 121.948041,165.43586 122.227942,164.950099 C122.864065,163.846123 123.391322,163.350571 124.266239,163.11167 C124.572217,163.028121 134.390204,162.790537 139.204268,161.078468 L139.348466,162.068017 C134.446227,163.11167 124.70098,164.029571 124.529651,164.076353 C123.949524,164.23476 123.610841,164.553078 123.094394,165.449359 C122.831262,165.906017 121.243247,169.05762 120.586321,170.284801 Z" id="collarbone-r" fill="#000000" fill-rule="nonzero" opacity="0.129999995"></path>
                <g id="face" transform="translate(59.000000, 51.000000)">
                    <path d="M44.5392249,58.2118823 L44.2185876,57.2646802 C45.2675137,56.9096083 46.3349349,56.8345116 48.2856448,56.8630908 C48.7138069,56.8693636 49.1470908,56.89699 49.6040536,56.945222 C50.3281133,57.0216458 50.8519513,57.1066938 52.2660307,57.3603971 L52.089438,58.3446811 C50.7002768,58.0954485 50.1903656,58.0126616 49.4990876,57.9396978 C49.070996,57.8945132 48.6676315,57.8687944 48.2709958,57.8629835 C46.4339656,57.8360698 45.4435886,57.9057461 44.5392249,58.2118823 Z" id="jaw-line" fill="#000000" fill-rule="nonzero" opacity="0.3" transform="translate(48.242309, 57.601129) rotate(-2.000000) translate(-48.242309, -57.601129) "></path>
                    <path d="M19.263856,55.8209935 L20.0400613,55.1905132 C20.4904386,55.7449878 20.8978329,56.3574848 21.4804906,57.318187 C21.5786635,57.4800573 21.9653924,58.1234057 22.0613359,58.2816604 C23.3605527,60.4246635 24.247836,61.5202967 25.4772545,62.2411431 C27.3396647,63.3331321 29.1427505,64.4563008 31.2831031,65.8402469 C31.7706655,66.1555034 35.2227648,68.4109969 36.1254425,68.9867253 C39.5110279,71.1460538 41.4738159,72.1402669 43.0005059,72.3594826 C52.3840365,73.7068531 56.7859346,73.5019368 59.9708011,71.4335622 C64.0423451,68.7893453 74.8124132,55.8904495 76.4508542,52.7152881 L77.339515,53.1738532 C75.6265726,56.493392 64.7457994,69.5248752 60.5154583,72.272221 C57.060409,74.5160626 52.4715865,74.7296806 42.8583747,73.3493304 C41.1391036,73.1024622 39.0970393,72.0680932 35.587705,69.8298376 C34.6794781,69.2505699 31.2235807,66.9925948 30.7401251,66.6799938 C28.6110171,65.3033184 26.8196187,64.18743 24.9714553,63.1037943 C23.5552588,62.2734342 22.5874234,61.0783338 21.2062136,58.8000867 C21.108953,58.6396594 20.7222822,57.9964078 20.6254561,57.8367582 C20.0648129,56.9123541 19.6782198,56.3311306 19.263856,55.8209935 Z" id="jaw" fill="#000000" fill-rule="nonzero" opacity="0.3"></path>
                    <path d="M48.0274153,51.6020508 C54.6616211,51.6020508 62.2535802,47.028035 62.2535802,46.1907959 C62.2535802,45.0862264 56.3528991,44.3815918 48.0274153,44.3815918 C39.7019315,44.3815918 32.5445601,45.5819539 32.5445601,46.6865234 C32.5445601,47.6424081 42.1694336,51.6020508 48.0274153,51.6020508 Z" id="lips" fill="#990000" opacity="0.100000001"></path>
                    <path d="M34.6526831,46.0774979 C40.6898195,46.5154714 45.2577444,46.734375 48.3531041,46.734375 C51.4595044,46.734375 55.7435792,46.5138674 61.2026706,46.0726367 C60.9998841,46.0274682 60.7854332,45.9793836 60.5543657,45.92732 C55.1613008,44.7121663 53.7089229,44.4374744 51.2731013,44.3237765 C50.8407342,44.3035947 50.5863371,44.3971668 50.0698118,44.7086595 C50.04532,44.7234379 50.04532,44.7234379 50.0205065,44.7384179 C49.3919598,45.117754 49.0224729,45.2657587 48.4254505,45.2800747 C47.9584837,45.2912721 47.5332107,45.1855219 46.4037848,44.8365371 C46.3687871,44.8257243 46.3687871,44.8257243 46.333846,44.8149395 C45.3602769,44.5145589 44.8914059,44.406641 44.5497543,44.4339779 C41.3973215,44.6862168 38.1591683,45.2245443 34.6526831,46.0774979 Z M60.9784041,47.0934038 C55.6375227,47.5206499 51.429929,47.734375 48.3531041,47.734375 C45.1973659,47.734375 40.5410324,47.5095065 34.3806317,47.0599416 C36.5668491,48.7772181 39.8520037,50.7797605 44.5497543,51.1556466 C44.8914059,51.1829835 50.8407342,51.2860297 51.2731013,51.265848 C54.2464181,51.1270611 58.355827,48.7902005 60.9784041,47.0934038 Z M34.0651625,45.196668 C37.7629322,44.278242 41.1673544,43.7019113 44.4822054,43.4366767 C44.9771624,43.3970732 45.490484,43.5152221 46.585094,43.8529481 C46.6202716,43.8638059 46.6202716,43.8638059 46.6553775,43.8746522 C47.6719246,44.1887582 48.0722351,44.2883011 48.4051573,44.280318 C48.8173482,44.2704341 49.06514,44.1711766 49.5738681,43.8641525 C49.5985057,43.8492787 49.5985057,43.8492787 49.6234331,43.8342375 C50.2751849,43.4411959 50.6730684,43.2948468 51.3125773,43.3246974 C53.8184758,43.4416663 55.2921118,43.7203788 60.7411261,44.9481389 C60.9824811,45.0025205 61.2055664,45.0525285 61.4160633,45.0993827 L61.2551753,44.8965672 L61.951987,44.2435696 L63.6034111,46.3253567 L63.0212721,46.870892 L63.0323394,46.8896698 C62.9932313,46.9168991 62.9532456,46.9446553 62.9124047,46.972914 L62.9065994,46.9783543 C60.4815278,48.6543305 55.0614414,52.0899397 51.3125773,52.2649271 C50.6730684,52.2947777 44.9771624,52.1925513 44.4822054,52.1529478 C38.8213915,51.7000031 35.1671505,49.039275 32.8395078,47.0462067 L32.5522804,47.4082859 L31.8554687,46.7552883 L33.5068928,44.6735012 L34.0651625,45.196668 Z" id="mouth-outline" fill="#000000" fill-rule="nonzero" opacity="0.3"></path>
                    <path d="M51.1704058,34.8465079 C50.869149,35.6044243 50.0286721,35.9619952 48.4888342,36.1722328 C45.4311467,36.5897059 44.0085241,36.2184914 43.2302566,34.8914498 C43.118289,34.9001617 42.954465,34.9172203 42.6153695,34.9534508 C42.2639316,34.9894595 41.9896529,35.0114843 41.7167244,35.0219948 C41.1869261,35.0423975 40.7488762,35.0136092 40.3883591,34.9145883 C39.3187521,34.6208063 38.8331633,33.4553167 39.0510784,32.8126541 C39.2257244,32.2975984 39.3286453,32.0309594 39.4445356,31.818312 C39.7861236,31.1915315 40.0427569,31.1352994 41.0911034,31.2032559 C41.7189748,31.2439562 42.2305747,31.2422399 42.9452106,31.1682565 L43.0319639,32.006242 L43.2941089,31.908678 C43.3884412,32.1621398 43.4619216,32.4198876 43.5470976,32.7726896 C43.5649677,32.8467082 43.5799875,32.9103943 43.611548,33.0451171 C43.7116671,33.4719429 43.8200792,33.8330738 43.9582474,34.1337269 C43.9795396,34.1655041 43.9967097,34.2003956 44.008843,34.2384391 C44.5693514,35.3411354 45.6089999,35.5561457 48.353557,35.181425 C50.1948559,34.9300282 50.450379,34.6989991 50.2424292,33.4877348 C50.0773765,32.526337 47.6151841,25.2796213 47.1622693,23.8314455 C46.6332955,22.1400746 46.3569693,20.4311548 46.0182217,17.2340704 C46.0482752,17.5177139 45.7599112,14.7444187 45.669819,13.9331351 C45.5194749,12.5792814 45.3680626,11.3711571 45.1898306,10.1436969 L46.1794524,10 C46.3594421,11.2395657 46.51221,12.4585057 46.6637095,13.8227645 C46.7542568,14.6381456 47.0430484,17.4155534 47.0126553,17.1287051 C47.3447704,20.2631928 47.6131388,21.9228974 48.1166817,23.5329545 C48.4147849,24.4861267 49.74564,28.4255303 50.5704265,31.0413468 C51.0524242,31.0723428 51.4618827,31.0658806 51.9382785,31.0349994 C52.986625,30.9670429 53.2432583,31.0232749 53.5848463,31.6500555 C53.7007367,31.8627029 53.8036575,32.1293419 53.9783035,32.6443976 C54.1962186,33.2870602 53.7106298,34.4525498 52.6410228,34.7463318 C52.2805057,34.8453527 51.8424558,34.874141 51.3126575,34.8537383 C51.2713122,34.8521461 51.223895,34.849736 51.1704058,34.8465079 Z M51.2937448,33.8631043 C51.3145266,33.8566809 51.3336581,33.8538058 51.3511392,33.854479 C51.7874725,33.8712823 52.1342364,33.8484932 52.376168,33.7820435 C52.8459634,33.6530079 53.0766424,33.0993419 53.031266,32.9655206 C52.8753864,32.5058095 52.7856306,32.2732776 52.7067787,32.128592 C52.6240453,31.9767844 52.679905,31.9890241 52.0029653,32.032905 C51.613206,32.0581702 51.2609505,32.0683234 50.8849401,32.0572307 C51.0669288,32.659763 51.1924716,33.1115255 51.2280102,33.3185303 C51.2613609,33.5127915 51.2834785,33.6939907 51.2937448,33.8631043 Z M43.1804672,34.8036629 C43.117354,34.6886079 43.0586426,34.5667724 43.0037443,34.4380569 C42.9920738,34.6094022 43.0724922,34.7304892 43.1804672,34.8036629 Z M42.8157538,33.9265675 C42.7510114,33.7226357 42.6922863,33.505032 42.6379732,33.2734853 C42.6065308,33.1392773 42.5921672,33.0783735 42.575026,33.0073741 C42.4983965,32.689972 42.4346322,32.4663055 42.3569124,32.2574798 L42.4844975,32.2099957 C41.9727178,32.2412504 41.5309946,32.2338696 41.0264166,32.2011615 C40.3494769,32.1572806 40.4053366,32.1450409 40.3226032,32.2968485 C40.2437513,32.4415341 40.1539955,32.6740661 39.9981159,33.1337772 C39.9527395,33.2675984 40.1834185,33.8212644 40.6532139,33.9503 C40.8951455,34.0167498 41.2419094,34.0395388 41.6782427,34.0227355 C41.925931,34.013197 42.1812968,33.9926909 42.513442,33.958659 C42.6320721,33.9459298 42.7312575,33.9353598 42.8157538,33.9265675 Z" id="nose" fill="#000000" fill-rule="nonzero" opacity="0.3"></path>
                    <path d="M7.62868882,10.3868673 C7.36322535,10.068187 6.98111899,9.7300917 6.37471961,9.25761647 C6.64208618,9.46593476 3.86436218,7.36832115 2.21294486,6.0704466 C2.52572032,7.63900821 3.24226093,11.1363968 3.36735242,11.7626576 C3.59105572,12.8826107 3.78515568,13.8877218 3.96245874,14.8519593 C4.1731413,16.0055351 4.27975024,16.8228813 4.51762572,18.9024791 C4.85170378,21.8231165 5.0702179,23.1508392 5.54818787,24.6347953 C7.1779726,29.6947973 9.92425704,31.829005 12.5602326,30.8118448 L12.9202361,31.7447958 C9.63749667,33.0115267 6.38040275,30.4803559 4.59634338,24.9413766 C4.09135151,23.3735254 3.86568176,22.0023241 3.52410422,19.0161234 C3.2888299,16.9592659 3.18399851,16.1555478 2.98540046,15.0680211 C2.80265405,14.0740594 2.60949394,13.0738152 2.38672339,11.9585318 C2.24542943,11.2511546 1.33688182,6.81905043 1.12753253,5.73479384 C0.734508514,3.69925373 0.546386719,2.43527148 0.546386719,1.66259766 C0.546386719,0.547341741 1.28628308,0.199741674 2.2491915,0.6264645 C2.79795981,0.869656856 3.25699521,1.18845111 4.5672651,2.17351491 C4.61848075,2.2120135 4.61848075,2.2120135 4.66963747,2.25043135 C4.96198828,2.469909 5.16538968,2.62050678 5.36422884,2.7635303 C6.26256411,3.40969616 6.6388758,3.80002408 9.04556665,6.44141549 C9.60169279,7.05177507 10.0097824,7.48888892 10.4106345,7.89819631 C10.6526612,8.14461652 10.7031518,8.18806014 11.1541555,8.55918085 C11.2504642,8.63843111 11.323349,8.70005339 11.3958433,8.76433501 C11.7753841,9.10087884 12.0809093,9.46539466 12.4271342,10.0272426 L11.5757955,10.551859 C11.2807025,10.0729871 11.0383832,9.78388089 10.7323893,9.51255213 C10.6706503,9.45780732 10.6063733,9.40346273 10.5187484,9.33135816 C10.0373144,8.93519711 9.97390041,8.88063377 9.73169864,8.63409002 C9.71394059,8.61600415 9.71394059,8.61600415 9.69618686,8.59788521 C9.28522413,8.17825392 8.86991592,7.73340809 8.30638282,7.11491922 C5.97521759,4.55641868 5.59280911,4.15976689 4.78030241,3.57533689 C4.57472554,3.42746698 4.36661403,3.27338184 4.06926194,3.05014957 C4.01775877,3.01147152 4.01775877,3.01147152 3.96634357,2.97282293 C2.73724628,2.04878487 2.29066782,1.7386418 1.8440336,1.54071123 C1.48387774,1.38110443 1.54638672,1.35173799 1.54638672,1.66259766 C1.54638672,2.29164425 1.70037469,3.37790554 2.0197623,5.07522282 L2.1093979,4.84692383 C3.62507676,6.0579455 7.27252671,8.68943797 6.98933376,8.46878858 C8.07959353,9.31826295 8.56620351,9.82715594 8.91166109,10.5446938 C9.11868779,10.9747017 10.608653,12.9294319 11.1541555,16.2576925 C11.4821126,18.258649 11.5896745,26.2099537 11.9202361,27.5078125 L11.4271342,26.3286133 C11.0900294,25.0050644 10.444327,19.1457298 10.0673828,17.0385742 C9.57915573,14.3093358 8.74116539,12.4277436 8.29405431,11.5302375 L7.23221197,18.9129782 L6.24239741,18.7706155 L7.45187007,10.3614358 L7.62868882,10.3868673 Z" id="ear" fill="#000000" fill-rule="nonzero" opacity="0.3"></path>
                    <path d="M72.6909609,38.8654702 L72,38.1425781 C72.6232735,37.5468355 73.3009015,37.0466153 74.6183283,36.1581091 C74.9217882,35.953728 75.0784544,35.8481487 75.2212204,35.751358 C75.4453658,35.5993947 75.6311413,35.4718077 75.804996,35.349984 C76.2318424,35.0508837 76.5764245,34.7932753 76.8733885,34.5475279 C77.1562536,34.3134477 77.3899021,34.0691652 77.5956725,33.8004014 C77.8273419,33.4978101 77.9597348,33.2744808 78.2862999,32.6703431 C78.7246616,31.8593843 78.9907869,31.4605845 79.4726562,31 L80.1636172,31.7228921 C79.7770786,32.0923567 79.5580744,32.4205437 79.1660038,33.1458649 C78.8144576,33.796217 78.6640224,34.0499814 78.3896808,34.4083084 C78.1387056,34.7361157 77.8527927,35.0350412 77.5109318,35.3179424 C77.1905569,35.5830632 76.8257962,35.8557569 76.3788547,36.1689384 C76.2002417,36.2940962 76.0104442,36.4244455 75.7823795,36.5790659 C75.6382667,36.6767698 75.4802085,36.7832872 75.1774739,36.9871786 C73.9067558,37.8441833 73.2597823,38.3217746 72.6909609,38.8654702 Z" id="cheekbone-r" fill="#000000" fill-rule="nonzero" opacity="0.2"></path>
                    <path d="M12.6909609,39.8654702 L12,39.1425781 C12.6232735,38.5468355 13.3009015,38.0466153 14.6183283,37.1581091 C14.9217882,36.953728 15.0784544,36.8481487 15.2212204,36.751358 C15.4453658,36.5993947 15.6311413,36.4718077 15.804996,36.349984 C16.2318424,36.0508837 16.5764245,35.7932753 16.8733885,35.5475279 C17.1562536,35.3134477 17.3899021,35.0691652 17.5956725,34.8004014 C17.8273419,34.4978101 17.9597348,34.2744808 18.2862999,33.6703431 C18.7246616,32.8593843 18.9907869,32.4605845 19.4726562,32 L20.1636172,32.7228921 C19.7770786,33.0923567 19.5580744,33.4205437 19.1660038,34.1458649 C18.8144576,34.796217 18.6640224,35.0499814 18.3896808,35.4083084 C18.1387056,35.7361157 17.8527927,36.0350412 17.5109318,36.3179424 C17.1905569,36.5830632 16.8257962,36.8557569 16.3788547,37.1689384 C16.2002417,37.2940962 16.0104442,37.4244455 15.7823795,37.5790659 C15.6382667,37.6767698 15.4802085,37.7832872 15.1774739,37.9871786 C13.9067558,38.8441833 13.2597823,39.3217746 12.6909609,39.8654702 Z" id="cheekbone-l" fill="#000000" fill-rule="nonzero" opacity="0.2" transform="translate(16.081809, 35.932735) scale(-1, 1) translate(-16.081809, -35.932735) "></path>
                    <g id="eye-l" transform="translate(28.184363, 10.298374) rotate(-5.000000) translate(-28.184363, -10.298374) translate(16.684363, 2.298374)">
                        <path d="M13.1142716,14.8970681 C15.9465528,14.8970681 18.5591686,14.561226 20.9521188,13.8895417 C17.4896273,10.7007841 14.3422409,9.10640528 11.5099596,9.10640528 C8.67767837,9.10640528 6.20782417,9.74410291 4.10039701,11.0194982 C7.27736548,13.6045448 10.2819903,14.8970681 13.1142716,14.8970681 Z" id="eye-white" fill="#FFFFFF" opacity="0.800000012"></path>
                        <path d="M12.8672808,14.3857797 C14.8976816,14.3857797 16.5436467,12.6615201 16.5436467,10.5345381 C16.5436467,10.2443832 15.0350745,9.77756838 12.01793,9.13409366 C10.1332532,8.64973528 9.19091484,9.11655009 9.19091484,10.5345381 C9.19091484,12.6615201 10.8368799,14.3857797 12.8672808,14.3857797 Z" id="iris" fill="#373737" opacity="0.700000048"></path>
                        <path d="M8.98585527,9.47176823 C7.53533395,9.74558386 6.01474185,10.2467203 4.25972634,10.9735094 C8.25176825,14.7297374 13.8536689,15.819474 20.6874423,13.6408538 C19.5808753,12.5627882 18.6531268,11.8209725 17.9094777,11.4168707 C17.5661474,11.2303036 17.0869687,11.0202146 16.4727132,10.7870377 C16.5786859,11.3471269 16.5196576,11.9274918 16.292402,12.3849991 C15.6200891,13.7384886 14.4122704,14.6330287 13.101794,14.6693692 C10.2608678,14.7481502 7.91428724,12.1855009 8.98585527,9.47176823 Z M9.3519759,9.40725656 L9.60011312,9.5232481 C8.535935,11.8606657 10.5684876,14.1471774 13.0858048,14.0773703 C14.1651524,14.0474391 15.1889504,13.2891892 15.7703397,12.1187457 C15.9835294,11.6895555 15.9960125,11.0786374 15.8011528,10.54184 C15.3984232,10.3998798 14.9517986,10.2504502 14.4614223,10.093632 C14.3498293,10.1596958 14.27445,10.1923144 14.1519259,10.2220037 L14.0779019,9.9982874 L14.1122837,9.9830516 C13.4921929,9.78848189 12.8076525,9.58304742 12.058919,9.36689254 C12.0737076,9.43276846 12.0923314,9.51494207 12.1022546,9.55546088 L11.8753522,9.61251497 C11.8567135,9.53640795 11.8101874,9.32636555 11.8096757,9.3241695 C11.8011581,9.28761029 11.7929657,9.25546658 11.7846088,9.22664033 C10.9717475,9.21305252 10.170951,9.27336024 9.3519759,9.40725656 Z M4.02332459,11.0721705 C3.9829453,11.0891501 3.94244107,11.1062464 3.90180998,11.1234592 L3.67636593,10.5770695 C10.4116167,7.72377585 13.8194613,8.00213749 22.0581956,11.4563066 L21.8347385,12.0035337 C19.0670368,10.8431479 16.8650897,10.0479452 14.9036416,9.61462439 C16.4385279,10.1132878 17.5310138,10.5392046 18.1857004,10.8949638 C19.1953866,11.4436313 20.4784644,12.5372779 22.0457721,14.1789078 L21.6257061,14.5906761 C21.4670338,14.4244794 21.3114472,14.2641252 21.1589586,14.1096169 C13.9527318,16.4922503 7.99645584,15.3542803 3.78205882,11.3316975 L4.02332459,11.0721705 Z M14.720634,11.3393683 L15.1896376,11.4479626 L15.1559915,11.6816235 C14.9939558,11.6709168 14.8835524,11.6429292 14.6579548,11.5678496 L14.1889512,11.4592554 L14.2225972,11.2255944 C14.384633,11.2363011 14.4950364,11.2642887 14.720634,11.3393683 Z M13.7783224,13.1505256 L13.5616457,13.2394766 L13.1594009,12.2334534 L13.3760776,12.1445024 L13.7783224,13.1505256 Z M14.2793005,10.7759423 L14.2945133,10.5395562 L15.3787478,10.6111981 L15.363535,10.8475843 L14.2793005,10.7759423 Z M9.85467894,10.7562065 L9.86989176,10.5198203 C10.0154019,10.529435 10.131578,10.5284619 10.3937789,10.5196346 C10.6635821,10.5105514 10.7849759,10.5095345 10.940642,10.5198203 L10.9254292,10.7562065 C10.7799191,10.7465917 10.663743,10.7475649 10.4015421,10.7563922 C10.1317389,10.7654754 10.0103451,10.7664923 9.85467894,10.7562065 Z M10.3152211,11.9659156 L10.2392381,11.7418882 C10.2628634,11.7336105 10.2628634,11.7336105 10.2858517,11.7253552 C10.4097481,11.6805861 10.5181517,11.634694 10.6324427,11.579306 C10.7505315,11.5220776 10.7462771,11.5243645 11.1286503,11.3155876 L11.2395492,11.5241272 C10.8518273,11.7358244 10.8565403,11.733291 10.7333121,11.7930101 C10.611836,11.8518801 10.4959846,11.9009252 10.3643774,11.9484805 C10.3400989,11.9571992 10.3400989,11.9571992 10.3152211,11.9659156 Z M12.5909909,13.3314099 L12.3669003,13.2639032 C12.4250392,13.0657505 12.4527232,12.9421769 12.4663811,12.8206899 C12.4782153,12.7154245 12.480174,12.6350944 12.4800787,12.3743946 C12.480071,12.3530177 12.480071,12.3530177 12.4800684,12.3308882 L12.7138527,12.3308882 C12.7138553,12.3529467 12.7138553,12.3529467 12.713863,12.3743069 C12.7139618,12.6446661 12.7118833,12.7299076 12.6986631,12.8475018 C12.6832218,12.9848519 12.6527037,13.1210763 12.5909909,13.3314099 Z M14.7314991,12.3664895 L14.5784554,12.5455637 L13.8177005,11.8780142 L13.9707442,11.69894 L14.7314991,12.3664895 Z M11.2383053,12.8279186 L11.0558377,12.6798252 L11.5922117,12.0012873 L11.7746793,12.1493807 L11.2383053,12.8279186 Z M10.4502973,9.53795512 L10.5643391,9.33116331 L11.4063564,9.80793272 L11.2923145,10.0147245 L10.4502973,9.53795512 Z M12.5584956,11.7988872 C11.7515238,11.7988872 11.2587983,11.4436151 11.2587983,10.7894663 C11.2587983,10.1353175 11.9944545,9.75647796 12.8014264,9.75647796 C13.6083982,9.75647796 13.858193,10.1353175 13.858193,10.7894663 C13.858193,11.4436151 13.3654675,11.7988872 12.5584956,11.7988872 Z" id="eye" fill="#000000" fill-rule="nonzero" opacity="0.5"></path>
                        <path d="M0.225295417,1.62607616 L0,0.487044664 C5.30713031,-0.494304 8.64647826,0.0134959564 12.6510556,1.95469048 C13.3823134,2.30916321 16.3518611,3.87624515 17.1610053,4.27381374 C19.1003042,5.22667772 20.9060784,5.95382672 22.9772871,6.56292515 L22.6282751,7.67241586 C20.485002,7.04212481 18.6157239,6.28940406 16.6176382,5.30765555 C15.7864462,4.89925388 12.8207318,3.33419483 12.1135139,2.99137529 C8.33822496,1.16132692 5.26554138,0.69407744 0.225295417,1.62607616 Z" id="eye-brow" fill="#000000" fill-rule="nonzero" opacity="0.5"></path>
                        <path d="M6.47890559,9.58494107 L6.45174527,9.62488754 C5.85021277,9.4371593 5.43932906,9.25596565 5.21909415,9.08130658 C4.99885924,8.9066475 4.84051004,8.75639629 4.74404653,8.63055292 L4.59462658,7.81076647 C4.89902312,8.29970341 5.16672726,8.63577475 5.39773899,8.81898047 C5.56599046,8.95241365 5.82472747,9.09195445 6.17395001,9.23760286 L5.55456622,8.5321373 L5.27080498,7.610152 C5.57816754,8.12563483 5.82036521,8.49625295 5.99739802,8.72200636 C6.17443082,8.94775976 6.42059606,9.1999053 6.73589374,9.47844295 L6.54150766,9.65624355 L6.47890559,9.58494107 Z M5.25224828,10.0799969 L5.13577271,10.3246653 C4.52799311,10.1350392 4.0878163,9.9645498 3.81524228,9.81319713 C3.54266826,9.66184446 3.34231794,9.52859838 3.2141913,9.4134589 L2.912385,8.78073678 C3.38814696,9.14802866 3.75871158,9.40535008 4.02407885,9.55270105 C4.28944613,9.70005202 4.69883594,9.87581731 5.25224828,10.0799969 Z M7.2580501,9.32056719 L7.05743863,9.49011026 L6.11809266,8.40248002 L5.83972876,7.36307972 C6.13085969,7.9650829 6.35770076,8.37825652 6.52025199,8.6026006 C6.68280321,8.82694467 6.92873592,9.06626687 7.2580501,9.32056719 Z M8.59678909,8.86290716 L8.40036308,9.03807326 C8.02638922,8.7243079 7.76189979,8.46605432 7.60689479,8.26331253 C7.45188979,8.06057074 7.3076295,7.88914355 7.17411392,7.74903095 L7.02759308,6.81044689 C7.23394622,7.30376857 7.38379274,7.62400006 7.47713264,7.77114135 C7.59777921,7.96132894 7.73436934,7.96163993 7.82511474,8.08033212 C8.02116979,8.33676612 8.27839458,8.59762447 8.59678909,8.86290716 Z M9.94936961,8.95202831 L9.75556608,9.13056913 C9.36762386,8.89329797 9.09110679,8.6701498 8.92601487,8.4611246 C8.76092295,8.25209941 8.66807763,8.13388833 8.64747893,8.10649138 L8.5281875,7.15264973 C8.7539139,7.7479523 8.95328193,8.15512856 9.12629159,8.37417852 C9.29930126,8.59322848 9.5736606,8.78584508 9.94936961,8.95202831 Z M11.0868288,8.9358105 L10.8977696,9.12018918 C10.5112943,8.84862572 10.2433473,8.62349073 10.0939287,8.44478421 C9.94451018,8.26607769 9.81929865,8.1198771 9.71829415,8.00618245 L9.76216667,7.35149763 C9.85933351,7.72193413 9.94111431,7.96625028 10.0075091,8.08444608 C10.0927906,8.23626408 10.2431948,8.27799905 10.320914,8.37095229 C10.4893942,8.57245669 10.7446991,8.76074276 11.0868288,8.9358105 Z M12.0947196,9.06346482 L11.8849568,9.21955612 C11.3967277,8.90120249 11.0833844,8.63351202 10.9449271,8.41648471 C10.8064697,8.1994574 10.7135608,8.03184239 10.6662004,7.91363969 L10.8290142,7.07951393 C10.8826736,7.51304312 10.9320369,7.79864695 10.9771041,7.93632543 C11.0414008,8.13274946 11.1489802,8.18476306 11.2231464,8.30101603 C11.3752899,8.5394959 11.6658143,8.79364549 12.0947196,9.06346482 Z M12.6505634,9.2074686 L12.4017783,9.2665726 C12.1823125,8.87240801 12.0529336,8.57886941 12.0136415,8.38595681 C11.9743495,8.19304421 11.9605025,8.03744535 11.9721005,7.91916024 L12.3141117,7.55558667 C12.2223329,7.76602329 12.1724447,7.9218152 12.1644469,8.0229624 C12.1505289,8.19898354 12.2285011,8.40597269 12.2500385,8.51171492 C12.2901399,8.7086013 12.4236482,8.94051919 12.6505634,9.2074686 Z M13.1535506,9.34669626 L12.8988177,9.34711227 C12.7546122,9.08103142 12.6824101,8.8770618 12.6822114,8.73520341 C12.6820128,8.59334501 12.7377162,8.48329732 12.8493216,8.40506031 L13.1519336,8.19184313 C13.009529,8.45061102 12.9384078,8.63796636 12.9385702,8.75390916 C12.9387325,8.86985196 13.0103927,9.06744766 13.1535506,9.34669626 Z M13.7658805,9.34191621 L13.5111473,9.34195174 C13.3832456,9.0907247 13.3192875,8.9039701 13.3192729,8.78168794 C13.3192582,8.65940577 13.400821,8.5663848 13.5639611,8.50262501 L13.7657561,8.30151404 C13.6854782,8.52385242 13.6453461,8.69184159 13.6453597,8.80548155 C13.6453733,8.91912151 13.6855469,9.09793306 13.7658805,9.34191621 Z M4.31617265,12.1707608 L4.4878301,12.4539258 C4.32624485,12.4835485 4.22953513,12.5063913 4.19770095,12.5224542 C3.96828588,12.6382123 3.79286862,12.7043411 3.67144917,12.7208405 C3.52475704,12.7407742 3.40004778,12.6990844 3.2973214,12.5957711 L2.88165619,12.4055134 C3.25841044,12.4549829 3.52779862,12.4687093 3.68982071,12.4466925 C3.85184279,12.4246756 4.06062678,12.3326984 4.31617265,12.1707608 Z M4.60861867,12.4627394 L4.73633973,12.7007721 C4.56926895,12.8827475 4.42544551,13.0114669 4.3048694,13.0869302 C4.1842933,13.1623936 4.0676785,13.2172937 3.955025,13.2516306 L3.49851449,13.1575051 C3.84473601,13.0920445 4.08340541,13.0182839 4.21452271,12.9362234 C4.34564001,12.8541628 4.47700533,12.6963348 4.60861867,12.4627394 Z M5.11672645,12.6143241 L5.26607052,12.8371955 C5.1087443,13.0672953 4.97245752,13.2273836 4.85721019,13.3174604 C4.74196285,13.4075373 4.63762075,13.4431382 4.54418388,13.4242632 L4.12005813,13.393316 C4.41850757,13.2998894 4.62509707,13.20834 4.73982664,13.1186678 C4.8545562,13.0289957 4.98018947,12.8608811 5.11672645,12.6143241 Z M5.38161159,13.1563656 L5.59272784,13.3103138 C5.46549358,13.653842 5.36621444,13.882649 5.29489043,13.9967348 C5.22356641,14.1108205 5.07994037,14.2385729 4.86401232,14.3799919 L4.54316423,14.5424654 C4.85984981,14.2463342 5.07211703,14.0120143 5.17996589,13.8395054 C5.28781476,13.6669966 5.35502999,13.4392833 5.38161159,13.1563656 Z M5.82162242,13.2802594 L6.03856149,13.4244564 C5.9109203,13.8554563 5.80597354,14.1431248 5.72372121,14.287462 C5.64146889,14.4317992 5.43770174,14.6184645 5.11241976,14.8474581 L4.83062676,14.8781857 C5.20744332,14.53124 5.44370683,14.2737903 5.53941731,14.1058366 C5.63512779,13.9378829 5.72919616,13.6626905 5.82162242,13.2802594 Z M6.78030084,13.6256808 L6.96259279,13.7295096 C6.87568584,14.0715468 6.79707838,14.3032053 6.72677041,14.4244851 C6.65646243,14.5457649 6.598183,14.6219274 6.5519321,14.6529727 L6.18836666,14.9259668 C6.33605485,14.6687963 6.44747528,14.4753927 6.52262795,14.3457559 C6.59778063,14.2161191 6.68367159,13.976094 6.78030084,13.6256808 Z M7.06859731,13.8674831 L7.31450131,13.885426 C7.32132167,14.2293177 7.30618732,14.4526704 7.26909827,14.5554841 C7.23200922,14.6582978 7.20086093,14.7059644 7.17565341,14.6984838 L6.7609498,14.8165404 C6.9120439,14.6569226 7.00324357,14.5337234 7.03454884,14.4469428 C7.0658541,14.3601622 7.07720359,14.167009 7.06859731,13.8674831 Z M7.87950877,14.1190358 L8.05815996,14.1445768 C8.04246983,14.4966741 8.02725309,14.7310876 8.01250974,14.8478173 C7.99776639,14.9645469 7.99144069,15.0515991 7.99353264,15.1089738 L7.64375182,15.3764815 C7.75295463,15.1419132 7.81555589,14.9612906 7.83155562,14.8346136 C7.84755534,14.7079366 7.86353973,14.4694106 7.87950877,14.1190358 Z M8.92912887,14.3803798 L9.15312681,14.511385 C9.1481254,14.7319674 9.1217155,14.8899422 9.07389712,14.9853095 C9.02607875,15.0806767 8.89867028,15.2294716 8.69167174,15.4316942 L8.65353141,15.4289112 C8.75876275,15.193553 8.83875114,15.0212827 8.89349658,14.9121003 C8.94824203,14.802918 8.96011946,14.6256778 8.92912887,14.3803798 Z M9.82894579,14.7422688 L10.0834581,14.7537218 C10.0863893,14.9846591 10.0858784,15.1513574 10.0819255,15.2538168 C10.0779726,15.3562763 10.0668331,15.4915565 10.0485069,15.6596576 L9.90960304,15.6495222 C9.87353952,15.4898403 9.85835846,15.3361092 9.86405986,15.1883289 C9.86976126,15.0405485 9.85805657,14.8918618 9.82894579,14.7422688 Z M6.00065588,9.88372029 L5.87372309,10.1222443 C5.31305539,9.9207627 4.91483029,9.74684536 4.6790478,9.60049224 C4.44326531,9.45413912 4.33401223,9.37644262 4.35128857,9.36740274 L4.10247102,8.70549337 C4.40882996,9.110236 4.66813641,9.37848165 4.88039038,9.51023032 C5.09264434,9.64197899 5.46606617,9.76647564 6.00065588,9.88372029 Z M5.0450538,10.5143764 L4.97206179,10.7779524 C4.30231987,10.7956811 3.83427701,10.7615293 3.56793323,10.6754972 C3.30158945,10.5894651 3.05175208,10.4252682 2.81842112,10.1829066 L2.59971507,9.72450362 C3.07127795,10.1039895 3.43214043,10.3341351 3.68230251,10.4149404 C3.93246458,10.4957456 4.38671502,10.528891 5.0450538,10.5143764 Z M7.94122312,9.27993246 L7.73400331,9.4399365 C7.31546677,9.10246317 7.03933595,8.83272404 6.90561083,8.63071912 C6.77188571,8.42871419 6.68521892,8.25273316 6.64561048,8.10277601 L6.62066558,7.28510066 C6.83515166,7.83706657 7.02344874,8.23548961 7.18555683,8.48036979 C7.34766492,8.72524997 7.59955368,8.99177086 7.94122312,9.27993246 Z" id="eye-lashes" fill="#000000" fill-rule="nonzero" opacity="0.400000006" transform="translate(8.182798, 11.235052) rotate(1.000000) translate(-8.182798, -11.235052) "></path>
                    </g>
                    <g id="eye-r" transform="translate(62.761765, 9.959852) scale(-1, 1) rotate(-1.000000) translate(-62.761765, -9.959852) translate(51.261765, 1.959852)">
                        <path d="M13.0614394,14.2188431 C15.8823105,14.2188431 18.484401,13.898291 20.8677109,13.2571868 C17.4191684,10.2136051 14.2844616,8.69181421 11.4635905,8.69181421 C8.64271943,8.69181421 6.1828153,9.30047911 4.08387813,10.5178089 C7.24804785,12.985165 10.2405683,14.2188431 13.0614394,14.2188431 Z" id="eye-white" fill="#FFFFFF" opacity="0.800000012"></path>
                        <path d="M12.8154436,13.7308324 C14.8376647,13.7308324 16.4769989,12.0850739 16.4769989,10.0549278 C16.4769989,9.77798293 14.9745041,9.33242099 11.9695145,8.718242 C10.0924303,8.2559352 9.15388827,8.70149715 9.15388827,10.0549278 C9.15388827,12.0850739 10.7932224,13.7308324 12.8154436,13.7308324 Z" id="iris" fill="#373737" opacity="0.700000048"></path>
                        <path d="M8.94965481,9.04054312 C7.50497706,9.30189264 5.99051083,9.78021359 4.24256558,10.4739139 C8.21852514,14.0591306 13.797858,15.0992543 20.6041008,13.019821 C19.5019917,11.9908369 18.5779807,11.2827942 17.8373275,10.8970901 C17.4953803,10.719017 17.0181321,10.5184928 16.4063511,10.2959318 C16.511897,10.8305215 16.4531064,11.384464 16.2267663,11.8211422 C15.5571619,13.1130107 14.3542091,13.9668248 13.049012,14.0015108 C10.2195309,14.0767051 7.8824037,11.6307266 8.94965481,9.04054312 Z M9.31430048,8.9789685 L9.56143805,9.08967925 C8.50154709,11.3206803 10.5259113,13.503093 13.0330873,13.436464 C14.1080866,13.4078956 15.1277601,12.6841668 15.7068072,11.5670105 C15.9191381,11.1573603 15.9315709,10.5742557 15.7374962,10.0618973 C15.336389,9.92640017 14.8915637,9.78377375 14.4031629,9.63409502 C14.2920195,9.6971511 14.2169439,9.72828469 14.0949134,9.75662233 L14.0211876,9.54309123 L14.0554309,9.52854909 C13.4378381,9.34283763 12.7560555,9.14675606 12.0103384,8.94044215 C12.0250674,9.00331891 12.0436162,9.08175137 12.0534994,9.12042547 L11.8275111,9.17488202 C11.8089475,9.10223996 11.7626088,8.90176025 11.7620992,8.89966418 C11.7536159,8.86476942 11.7454565,8.83408913 11.7371332,8.80657526 C10.9275467,8.79360607 10.1299763,8.85116814 9.31430048,8.9789685 Z M4.0071162,10.5680832 C3.96689958,10.5842898 3.92655853,10.6006077 3.88609113,10.6170368 L3.66155531,10.0955229 C10.3696724,7.37213231 13.7637882,7.63782086 21.9693318,10.9347306 L21.7467749,11.4570438 C18.9902232,10.3494875 16.7971469,9.59048825 14.8436007,9.17689541 C16.3723036,9.652856 17.4603883,10.0593819 18.1124374,10.3989443 C19.118056,10.9226323 20.3959647,11.966488 21.9569584,13.5333788 L21.5385847,13.9264004 C21.3805516,13.7677702 21.2255918,13.6147165 21.0737175,13.4672425 C13.8965218,15.7414008 7.96424127,14.6552396 3.7668224,10.8157946 L4.00711626,10.5680831 Z M14.6613303,10.8231162 L15.1284445,10.9267664 L15.094934,11.1497894 C14.9335511,11.1395702 14.8235924,11.1128567 14.5989037,11.0411954 L14.1317895,10.9375451 L14.1653,10.7145222 C14.3266829,10.7247414 14.4366416,10.7514548 14.6613303,10.8231162 Z M13.722815,12.5518161 L13.5070112,12.6367175 L13.1063869,11.6764959 L13.3221907,11.5915946 L13.722815,12.5518161 Z M14.2217748,10.2853416 L14.2369263,10.0597174 L15.3167929,10.1280977 L15.3016414,10.3537218 L14.2217748,10.2853416 Z M9.81497833,10.2665042 L9.83012986,10.0408801 C9.97505376,10.0500571 10.0907619,10.0491282 10.3519065,10.0407028 C10.6206227,10.0320332 10.7415275,10.0310626 10.8965665,10.0408801 L10.881415,10.2665042 C10.7364911,10.2573272 10.620783,10.2582561 10.3596384,10.2666815 C10.0909221,10.2753512 9.97001737,10.2763217 9.81497833,10.2665042 Z M10.2736652,11.4211384 L10.1979883,11.2073104 C10.2215184,11.1994096 10.2215184,11.1994096 10.244414,11.1915301 C10.3678113,11.1487992 10.4757782,11.1049964 10.5896088,11.0521302 C10.7072219,10.9975072 10.7029846,10.99969 11.0838174,10.8004182 L11.1942695,10.9994635 C10.8081095,11.2015227 10.8128036,11.1991046 10.6900718,11.2561049 C10.5690851,11.3122946 10.4537004,11.3591069 10.3226235,11.4044971 C10.2984427,11.4128188 10.2984427,11.4128188 10.2736652,11.4211384 Z M12.5402668,12.7244653 L12.317079,12.660032 C12.3749836,12.4709007 12.4025561,12.3529531 12.4161589,12.2369971 C12.4279455,12.1365241 12.4298963,12.0598513 12.4298014,11.8110205 C12.4297937,11.7906167 12.4297937,11.7906167 12.4297911,11.7694947 L12.6626336,11.7694947 C12.6626362,11.790549 12.6626362,11.790549 12.6626439,11.8109367 C12.6627423,12.0689872 12.6606722,12.1503479 12.6475052,12.2625882 C12.6321261,12.3936852 12.601731,12.5237076 12.5402668,12.7244653 Z M14.6721517,11.8034752 L14.5197246,11.9743966 L13.7620344,11.337239 L13.9144616,11.1663175 L14.6721517,11.8034752 Z M11.1930306,12.2438967 L11.0112981,12.1025456 L11.5455113,11.4548997 L11.7272438,11.5962508 L11.1930306,12.2438967 Z M10.4081972,9.10371669 L10.5217796,8.90633958 L11.3604047,9.36140291 L11.2468222,9.55878002 L10.4081972,9.10371669 Z M12.5079024,11.2617144 C11.7041815,11.2617144 11.213441,10.9226169 11.213441,10.2982498 C11.213441,9.67388267 11.9461336,9.31229076 12.7498545,9.31229076 C13.5535753,9.31229076 13.8023638,9.67388267 13.8023638,10.2982498 C13.8023638,10.9226169 13.3116233,11.2617144 12.5079024,11.2617144 Z" id="eye" fill="#000000" fill-rule="nonzero" opacity="0.5"></path>
                        <path d="M0.224387791,1.55204512 L0,0.46487078 C5.28574998,-0.471799618 8.61164501,0.0128815204 12.6000895,1.86569848 C13.3284013,2.20403299 16.2859859,3.69976973 17.0918703,4.07923805 C19.0233566,4.9887206 20.8218561,5.68276439 22.8847207,6.26413215 L22.5371147,7.32311062 C20.402476,6.72151509 18.5407285,6.00306376 16.5506923,5.06601173 C15.7228488,4.67620352 12.7690821,3.18239756 12.0647134,2.85518571 C8.30463354,1.10845471 5.2443286,0.66247789 0.224387791,1.55204512 Z" id="eye-brow" fill="#000000" fill-rule="nonzero" opacity="0.5"></path>
                        <path d="M6.45280464,9.14856349 L6.42575374,9.18669131 C5.82664457,9.00750985 5.41741615,8.83456547 5.19806848,8.66785818 C4.97872081,8.50115088 4.82100953,8.35774021 4.72493464,8.23762617 L4.57611664,7.45516247 C4.87928689,7.92183938 5.14591255,8.24261026 5.37599363,8.4174751 C5.54356728,8.54483342 5.80126194,8.67802128 6.1490776,8.81703869 L5.53218906,8.14369116 L5.24957099,7.26368146 C5.5556953,7.75569569 5.79691726,8.10944053 5.97323687,8.32491597 C6.14955647,8.54039141 6.39473001,8.7810574 6.70875748,9.04691396 L6.5151545,9.21661976 L6.45280464,9.14856349 Z M5.23108905,9.62108074 L5.11508271,9.85461001 C4.50975161,9.67361708 4.0713481,9.51088962 3.79987218,9.36642765 C3.52839625,9.22196567 3.32885306,9.09478594 3.20124259,8.98488846 L2.90065215,8.38097255 C3.37449745,8.73154258 3.74356921,8.97714882 4.00786743,9.11779128 C4.27216564,9.25843374 4.67990618,9.42619689 5.23108905,9.62108074 Z M7.22881028,8.89622588 L7.029007,9.05805009 L6.09344528,8.01993684 L5.8162028,7.02785775 C6.10616087,7.60245328 6.33208809,7.99681617 6.49398447,8.21094644 C6.65588084,8.42507671 6.90082278,8.65350319 7.22881028,8.89622588 Z M8.56215602,8.45940192 L8.36652133,8.62659317 C7.99405407,8.32711273 7.73063016,8.08061677 7.57624962,7.88710529 C7.42186907,7.69359381 7.27818994,7.52997125 7.14521224,7.39623761 L6.99928169,6.50038486 C7.20480351,6.97124688 7.35404635,7.27689906 7.44701022,7.41734138 C7.56717076,7.59887023 7.70321062,7.59916706 7.79359044,7.7124555 C7.98885567,7.95721473 8.24504419,8.20619687 8.56215602,8.45940192 Z M9.90928753,8.54446562 L9.71626475,8.71487793 C9.3298854,8.48840912 9.05448231,8.27542031 8.89005548,8.07591149 C8.72562865,7.87640267 8.63315737,7.76357344 8.61264165,7.7374238 L8.4938308,6.82700809 C8.71864783,7.39520807 8.91721269,7.78384665 9.08952537,7.99292384 C9.26183804,8.20200102 9.5350921,8.38584828 9.90928753,8.54446562 Z M11.0421643,8.52898616 L10.8538668,8.70497055 C10.4689484,8.44577068 10.2020809,8.2308855 10.0532643,8.06031503 C9.90444767,7.88974455 9.77974057,7.7502001 9.67914298,7.64168167 L9.72283876,7.01680295 C9.81961415,7.37037444 9.90106549,7.60356751 9.96719277,7.71638216 C10.0521307,7.86128828 10.201929,7.90112317 10.2793352,7.98984448 C10.4471366,8.18217491 10.701413,8.36188881 11.0421643,8.52898616 Z M12.0459947,8.65082871 L11.837077,8.79981357 C11.3508148,8.49595376 11.0387338,8.24045055 10.9008343,8.03330393 C10.7629347,7.82615731 10.6704001,7.66617338 10.6232305,7.55335214 L10.7853884,6.75720197 C10.8388316,7.1709937 10.887996,7.44359472 10.9328816,7.57500506 C10.9969194,7.76248641 11.1040654,7.81213197 11.1779327,7.92309225 C11.3294633,8.15071474 11.6188173,8.39329356 12.0459947,8.65082871 Z M12.5995993,8.78827637 L12.3518164,8.84468952 C12.1332347,8.46847022 12.004377,8.18829567 11.9652433,8.00416589 C11.9261096,7.8200361 11.9123184,7.67152126 11.9238696,7.55862136 L12.264503,7.21160035 C12.173094,7.41245633 12.1234067,7.56115544 12.1154412,7.65769768 C12.1015792,7.82570502 12.1792373,8.0232705 12.2006879,8.12419855 C12.2406278,8.3121212 12.3735982,8.53348048 12.5995993,8.78827637 Z M13.1005601,8.92116535 L12.8468535,8.92156242 C12.7032289,8.66759555 12.6313176,8.47291214 12.6311198,8.33751219 C12.630922,8.20211224 12.686401,8.09707473 12.7975567,8.02239966 L13.0989497,7.8188897 C12.9571187,8.06587656 12.8862841,8.2447021 12.8864458,8.35536632 C12.8866075,8.46603055 12.9579789,8.65463022 13.1005601,8.92116535 Z M13.7104232,8.91660293 L13.4567163,8.91663684 C13.3293298,8.67684752 13.2656293,8.49859537 13.2656148,8.3818804 C13.2656002,8.26516543 13.3468344,8.17637946 13.5093173,8.11552249 L13.7102993,7.92356758 C13.6303449,8.13578347 13.5903744,8.29612452 13.5903879,8.40459075 C13.5904015,8.51305698 13.6304132,8.6837277 13.7104232,8.91660293 Z M4.2987845,11.6166576 L4.4697504,11.8869308 C4.30881611,11.9152048 4.212496,11.9370077 4.18079007,11.9523392 C3.95229922,12.0628272 3.77758864,12.1259453 3.65665835,12.1416936 C3.51055719,12.1607197 3.38635033,12.1209279 3.28403779,12.0223182 L2.87004714,11.8407225 C3.2452836,11.8879398 3.51358651,11.9010412 3.67495587,11.8800267 C3.83632524,11.8590123 4.04426811,11.7712226 4.2987845,11.6166576 Z M4.59005236,11.8953431 L4.71725889,12.1225388 C4.55086117,12.2962294 4.40761713,12.4190885 4.28752678,12.4911162 C4.16743643,12.5631438 4.05129143,12.6155445 3.93909176,12.6483181 L3.48442035,12.5584779 C3.82924708,12.4959976 4.06695499,12.4255951 4.19754406,12.3472706 C4.32813314,12.268946 4.45896924,12.1183035 4.59005236,11.8953431 Z M5.09611318,12.0400265 L5.2448556,12.2527511 C5.08816318,12.4723751 4.95242545,12.625175 4.83764241,12.7111509 C4.72285936,12.7971268 4.61893761,12.8311069 4.52587716,12.8130912 L4.10346004,12.7835529 C4.40070715,12.6943798 4.60646438,12.6069984 4.72073175,12.5214088 C4.83499911,12.4358192 4.96012626,12.2753584 5.09611318,12.0400265 Z M5.3599312,12.5573903 L5.57019694,12.7043296 C5.44347526,13.0322179 5.34459608,13.2506079 5.2735594,13.3594996 C5.20252272,13.4683914 5.0594753,13.5903275 4.84441713,13.7253081 L4.52486161,13.8803846 C4.84027139,13.5977355 5.05168347,13.3740835 5.15909785,13.2094285 C5.26651224,13.0447736 5.33345669,12.8274275 5.3599312,12.5573903 Z M5.7981694,12.6756435 L6.01423451,12.8132757 C5.88710753,13.2246532 5.78258356,13.4992249 5.7006626,13.6369908 C5.61874164,13.7747567 5.41579539,13.9529236 5.09182384,14.1714917 L4.81116607,14.2008204 C5.18646458,13.8696702 5.42177629,13.6239415 5.51710118,13.4636343 C5.61242608,13.3033272 5.70611549,13.0406636 5.7981694,12.6756435 Z M6.75298568,13.0053388 L6.93454325,13.1044405 C6.84798642,13.4309057 6.76969563,13.6520174 6.6996709,13.7677756 C6.62964617,13.8835339 6.57160152,13.9562289 6.52553695,13.9858607 L6.16343618,14.2464262 C6.31052938,14.000964 6.42150095,13.8163655 6.49635086,13.6926307 C6.57120078,13.568896 6.65674572,13.3397986 6.75298568,13.0053388 Z M7.04012072,13.2361324 L7.28503407,13.2532585 C7.29182695,13.5814936 7.27675358,13.7946777 7.23981394,13.8928106 C7.20287431,13.9909434 7.17185151,14.0364399 7.14674553,14.0292999 L6.7337126,14.1419816 C6.884198,13.9896308 6.97503027,13.8720406 7.00620941,13.7892109 C7.03738856,13.7063812 7.04869233,13.5220217 7.04012072,13.2361324 Z M7.84776534,13.4762326 L8.02569681,13.5006108 C8.01006989,13.836678 7.99491445,14.0604193 7.9802305,14.1718345 C7.96554655,14.2832498 7.95924633,14.3663387 7.96132985,14.4211013 L7.61295816,14.6764301 C7.72172103,14.4525411 7.7840701,14.2801417 7.80000537,14.159232 C7.81594064,14.0383223 7.83186063,13.8106558 7.84776534,13.4762326 Z M8.89315694,13.7256783 L9.11625247,13.8507191 C9.11127121,14.061259 9.08496771,14.2120417 9.03734197,14.3030671 C8.98971624,14.3940925 8.86282105,14.5361132 8.65665642,14.7291291 L8.61866975,14.7264728 C8.72347715,14.5018298 8.8031433,14.3374025 8.8576682,14.233191 C8.91219309,14.1289794 8.92402267,13.9598086 8.89315694,13.7256783 Z M9.78934885,14.0710914 L10.0428358,14.082023 C10.0457552,14.3024463 10.0452464,14.4615553 10.0413094,14.55935 C10.0373724,14.6571447 10.0262778,14.786266 10.0080255,14.9467139 L9.86968116,14.9370399 C9.83376293,14.784628 9.81864303,14.6378959 9.82432146,14.4968435 C9.82999988,14.3557912 9.81834235,14.2138738 9.78934885,14.0710914 Z M5.97648161,9.43374007 L5.85006017,9.66140467 C5.29165119,9.46909604 4.89503038,9.3030967 4.66019776,9.16340666 C4.42536514,9.02371662 4.3165522,8.94955744 4.33375894,8.94092913 L4.08594379,8.30915478 C4.39106853,8.69547052 4.64933033,8.95150364 4.86072921,9.07725413 C5.07212808,9.20300462 5.44404555,9.32183327 5.97648161,9.43374007 Z M5.02472927,10.0356841 L4.95203132,10.2872601 C4.28498752,10.3041816 3.81883022,10.2715847 3.55355944,10.1894694 C3.28828865,10.1073541 3.03945777,9.95063269 2.80706681,9.71930517 L2.58924185,9.28177213 C3.05890498,9.64398104 3.41831369,9.8636487 3.66746796,9.9407751 C3.91662224,10.0179015 4.36904267,10.0495378 5.02472927,10.0356841 Z M7.90923107,8.85744113 L7.70284606,9.01016061 C7.28599565,8.68805156 7.01097724,8.43059296 6.87779085,8.2377848 C6.74460445,8.04497664 6.65828681,7.87700757 6.61883794,7.73387758 L6.59399353,6.95342887 C6.80761553,7.4802652 6.99515404,7.86054907 7.15660906,8.09428049 C7.31806408,8.32801191 7.56893808,8.58239879 7.90923107,8.85744113 Z" id="eye-lashes" fill="#000000" fill-rule="nonzero" opacity="0.400000006" transform="translate(8.149833, 10.723549) rotate(1.000000) translate(-8.149833, -10.723549) "></path>
                    </g>
                </g>
                <g id="hair" transform="translate(22.000000, 10.000000)">
                    <path d="M82.2614068,1.81087098 C111.141277,-1.44482613 116.357496,19.1125029 124.090395,33.7157219 C129.332178,43.6145833 126.885946,54.3598483 133.670206,73.0483285 C143.709601,100.70367 138.742215,102.926604 140.45608,123.488009 C140.470199,123.657387 141.245088,131.336986 145.68109,137.884811 C146.933025,139.732746 149.690539,141.635857 153.953634,143.594144 L139.001417,141.75109 C135.157126,141.087886 132.293702,141.087886 130.411147,141.75109 C129.427577,142.097591 127.619211,141.230779 126.569603,148.076187 C125.930039,152.247339 125.207034,162.706259 124.400589,179.452946 L116.243712,132.852713 C112.884389,131.686763 111.150308,130.629754 111.04147,129.681686 C109.647491,117.539017 109.647491,117.539017 111.04147,107.230136 C111.4445,104.249605 110.446316,100.573912 111.04147,97.6621094 C113.719563,84.5594816 119.058436,72.3479051 116.582735,54.4545785 C114.588002,40.0374919 99.1234123,35.6698127 98.4660109,23.5285853 C98.4018633,22.343874 97.0687958,18.3308411 92.8071358,17.3296088 C89.8010898,16.6233698 85.3795857,19.3017015 83.0286018,20.6691824 C82.9543436,20.7900007 82.8594836,20.8490896 82.7402596,20.836118 C81.8822065,21.3297253 81.3714939,21.5868693 81.4240482,21.3167091 C81.5059373,20.8957506 81.5542982,20.4506378 81.5750511,19.9859253 C78.4369592,17.3422653 77.4165065,15.7196605 66.3366862,17.6500279 C60.8554878,18.6049827 53.1714796,24.3910265 49.9187682,37.3460088 C48.9235533,41.3097764 49.6751706,53.4007382 47.3808516,50.0628754 C44.1899252,45.4205938 36.258784,39.7279918 37.3389263,42.6673994 C38.4190685,45.6068071 40.3607253,54.5434744 41.1808987,60.269043 C43.1722674,74.1706385 48.1472239,69.8208918 50.0875153,77.8833847 C53.0279114,90.1016128 54.051712,89.8582567 58.0654297,99.409668 C59.1250565,101.931253 63.0335982,103.51111 63.7543945,105.228516 C68.0095423,115.367042 66.5615012,115.593153 66.3322235,124.968262 C66.2498253,128.337503 65.4093847,131.875802 66.3322235,138.901371 C68.9408547,158.760873 62.2165946,149.438157 59.6240466,170.711135 C58.1780419,182.576228 60.1730507,194.954245 57.1782747,206.497002 C55.4322326,213.226767 51.051302,223.343606 51.5918185,231.590278 C52.4466147,244.631924 48.9555207,253.4191 44.1821474,256.739229 C40.0248446,259.630848 28.2091284,261.569946 38.4156142,255.165071 L40.554722,247.071285 C42.2544106,238.914656 41.1991884,232.536386 42.3911662,224.281877 C43.2822429,218.111124 46.1993484,212.323539 46.6700293,206.103359 C46.759539,204.920463 44.257229,206.653013 43.6495775,207.651618 C39.7626739,214.039291 35.8167952,220.565507 33.4949,227.755151 C31.320863,234.486959 31.349339,255.842129 30.3527131,248.824761 C28.2766759,234.207124 27.3924267,221.280184 28.0326143,206.493554 C28.1659493,203.413871 30.2480341,198.910839 31.4205629,195.497851 C31.9253356,194.028563 34.0767727,191.603653 32.8349205,191.492377 C30.0971775,191.247061 27.1102592,196.253185 24.3425569,198.140971 C10.164742,207.811333 -1.63997558,232.949849 15.628992,192.496728 C17.3457905,188.475072 21.575923,184.080814 22.3844857,181.168092 C22.6167186,180.331508 25.5250515,178.468009 24.3673823,178.18578 C18.2924488,176.704768 11.2199662,193.511232 7.74534072,197.271148 C-2.08494385,207.908568 0.120340562,213.991748 5.25033582,180.270129 L9.2888901,167.818471 C16.7954325,148.521031 30.9727186,133.036923 35.7694362,112.516406 C38.6337535,100.262761 36.2831353,89.8159318 35.8329208,77.1363331 C34.3639113,35.7639369 34.0283469,2.0739812 77.4543377,0.951985317 C79.9326089,0.887954307 81.4201873,1.11200686 82.2614068,1.81087098 Z" fill="#D06A60"></path>
                    <path d="M145.267142,138.165252 C143.289043,135.24545 141.874508,131.908703 140.927881,128.425625 C140.352241,126.30758 140.032915,124.430607 139.957808,123.529541 C139.516947,118.240493 139.47915,114.697997 139.640445,108.414039 C139.70142,106.03846 139.718219,105.251246 139.725281,104.07943 C139.780078,94.9878241 138.326038,87.3389511 133.200217,73.2189434 C130.192622,64.9339772 129.305968,60.5459126 127.566297,48.4718301 C126.528435,41.2686124 125.663461,37.7548223 123.648524,33.9497079 C122.983225,32.6933225 122.319589,31.3657074 121.456814,29.583615 C121.616275,29.9129883 119.645842,25.8182191 119.094072,24.6971431 C115.03555,16.4511179 111.718466,11.562352 106.926168,7.82300794 C100.833832,3.06926747 92.9405393,1.11015386 82.3174182,2.3077238 C81.2473787,1.61847773 79.9115753,1.38866461 77.4672519,1.45181851 C57.2622822,1.97385364 45.7734258,9.49593575 40.2760524,24.1261307 C35.9355649,35.6774977 35.3127128,48.3948678 36.3326059,77.1185908 C36.4334777,79.9594899 36.5976361,82.3609983 36.9631414,86.8545494 C37.3990896,92.21413 37.5302406,94.0745745 37.6194314,96.7805285 C37.8125034,102.63812 37.4354311,107.585902 36.2563116,112.630214 C33.9540699,122.479281 30.4226291,129.821834 21.8562066,144.540382 C21.6201961,144.945838 21.6201961,144.945838 21.3841632,145.351266 C15.0583028,156.217452 12.3477729,161.334048 9.76449951,167.97273 L5.74464863,180.345328 C4.36438649,189.418372 2.25524552,200.648095 1.59350506,204.235269 C1.72427268,204.053299 1.88308234,203.830678 2.07957162,203.554586 C3.94953338,200.927064 5.35532205,199.120696 7.37813052,196.931801 C8.00010622,196.258756 8.77601602,195.117995 9.91479574,193.249078 C10.1964803,192.786789 12.4700212,188.970247 13.1995634,187.788365 C15.8378742,183.514217 17.9316511,180.737266 20.0068173,179.094017 C21.5662064,177.859193 23.0585477,177.352054 24.4858092,177.700008 C25.2237064,177.8799 25.2992274,178.502563 24.9033926,179.082714 C24.7041976,179.374662 24.471958,179.614614 23.8502599,180.210589 C23.1859262,180.847483 22.9059236,181.158976 22.8662671,181.301833 C22.4659507,182.743911 22.0754441,183.360525 19.122254,187.612968 C18.3576504,188.713958 17.8264216,189.513167 17.3477185,190.301591 C16.8197025,191.171234 16.4027981,191.957587 16.0888443,192.693034 C12.3055825,201.555448 10.2121482,206.584707 8.96399971,209.844256 C8.30152207,211.574321 7.88232859,212.797193 7.67793042,213.59298 C8.81376188,212.771634 14.6102973,206.201672 16.312833,204.454538 C19.0265428,201.669742 21.574412,199.423826 24.0608155,197.727907 C24.87435,197.173014 25.5317789,196.532753 27.1387709,194.82284 C27.5231022,194.413894 27.7310336,194.194274 27.9648714,193.952042 C30.0368924,191.805639 31.4051331,190.862257 32.8795443,190.994372 C33.6776544,191.065887 33.8681194,191.692716 33.5976825,192.437309 C33.4515253,192.839723 33.298249,193.114645 32.6960664,194.122205 C32.215007,194.932715 32.0065077,195.331176 31.8934354,195.660306 C31.721638,196.160373 31.5243995,196.70245 31.2713424,197.37556 C31.1216883,197.773627 30.565213,199.23436 30.5844765,199.183601 C30.3878001,199.701836 30.2315134,200.119052 30.0844054,200.520516 C29.1006333,203.205269 28.5954955,205.051984 28.5321463,206.515182 C27.9392741,220.208951 28.6215598,232.646791 30.6669383,247.463416 C30.8490103,245.248977 31.257485,239.730831 31.4160039,237.962313 C31.8513997,233.104815 32.3488919,229.676751 33.0190971,227.60149 C34.97371,221.549119 37.4273888,216.915199 43.2224413,207.391705 C43.5667747,206.825833 44.3922925,206.089103 45.1658735,205.629555 C45.5938535,205.375313 45.9745788,205.222676 46.2960909,205.206447 C46.8455437,205.178713 47.2123774,205.562608 47.168604,206.141086 C46.9553947,208.958706 46.3994364,211.271966 45.0029755,215.900079 C43.6931446,220.238318 43.2178017,222.055823 42.8860332,224.353337 C42.4442026,227.413038 42.3151103,229.668236 42.1916073,234.614723 C42.1744605,235.301477 42.1660693,235.627835 42.1551471,236.020131 C42.0240128,240.730123 41.7625348,243.726107 41.0381243,247.199043 L38.84858,255.483667 C34.4595441,258.237918 34.1724945,258.974342 35.9020843,258.938443 C38.1106429,258.892602 41.9852991,257.658195 43.8966429,256.328757 C48.9306026,252.827377 51.8807294,243.643079 51.092889,231.62298 C50.9116157,228.857289 51.2550994,225.764047 52.0553678,222.206423 C52.577256,219.88635 53.2442915,217.538956 54.2341225,214.39927 C54.4531389,213.704563 55.3647568,210.85797 55.5877595,210.148151 C56.0753618,208.596111 56.4213958,207.423283 56.6942987,206.371434 C58.1574796,200.7319 58.4632094,196.059291 58.4999388,185.402225 C58.5016654,184.901237 58.5024631,184.678436 58.5035717,184.400041 C58.5290035,178.013829 58.6581532,174.503635 59.1277188,170.650647 C59.8399731,164.806293 60.8857579,160.883483 62.3371552,157.828819 C62.6976928,157.070019 63.071356,156.383656 63.5316209,155.611234 C63.6918249,155.342377 64.4279432,154.143219 64.6153595,153.823909 C66.5459912,150.534594 66.9406747,147.372706 65.8364819,138.966489 C65.2933622,134.83172 65.2944717,132.088953 65.622546,128.102192 C65.7935142,126.024586 65.812721,125.7596 65.8323729,124.956037 C65.8676542,123.513394 65.9300024,122.249246 66.0299779,120.730187 C66.2989246,116.643727 66.2861206,116.888223 66.2396788,115.70382 C66.1363248,113.067986 65.4013812,110.444704 63.2933542,105.422015 C63.2262005,105.262011 63.113768,105.088218 62.953943,104.898928 C62.7162772,104.617447 62.3859667,104.31351 61.9170475,103.935415 C61.6351564,103.708122 60.5433812,102.870829 60.5273966,102.858376 C58.9504657,101.629765 58.0764201,100.726455 57.6044753,99.6033714 C56.3907777,96.7151451 53.3405368,90.1495961 53.6284835,90.7966207 C53.194366,89.8211461 52.8303048,88.9382793 52.4798819,87.9983714 C51.5636455,85.5408326 50.6981032,82.5575281 49.6013942,78.000373 C48.9645317,75.3540183 48.1824748,74.2047484 46.306184,72.5335261 C45.9218954,72.19172 45.8690064,72.1444528 45.7914661,72.074578 C45.5930478,71.8957753 45.4244193,71.7396962 45.2623851,71.5836859 C42.9051834,69.3141174 41.5495169,66.3684312 40.685951,60.339943 C39.8646025,54.6061705 37.9280239,45.7201368 36.86961,42.8398588 C36.4650585,41.7389465 37.0877231,41.1326121 38.1475231,41.4512304 C38.844589,41.6607963 39.8646078,42.2527348 41.0525704,43.1178152 C43.5781453,44.9569516 46.2803018,47.5790653 47.7928992,49.7796496 C48.1189527,49.9502303 48.221088,49.6546152 48.3093927,49.2260252 C48.5261509,48.1739817 48.6298411,46.8725623 48.7953839,43.7519267 C48.9965207,39.9732746 49.1335066,38.4203458 49.4338202,37.224249 C52.3323291,25.6799937 59.2375946,18.3793263 66.2508671,17.1574479 C74.5740545,15.7073513 77.5432836,16.0581955 80.3779625,18.3219426 C80.7165227,18.5923136 82.0349532,19.719587 81.8971942,19.6035332 C82.0644876,20.2336284 82.0483057,20.452342 82.0257938,20.6645682 C82.1565213,20.5932945 82.3101299,20.5067268 82.490938,20.4027143 C82.8736121,20.1809027 83.0276912,20.0910217 83.2983018,19.9332269 C83.5173201,19.8056757 83.6967195,19.701779 83.8757878,19.5990139 C84.3381465,19.3336721 84.7553903,19.100826 85.1697618,18.8788149 C86.3732637,18.2340051 87.4681648,17.727315 88.5117224,17.3577241 C90.2109655,16.7559127 91.6851449,16.552395 92.9214919,16.8428617 C96.5779506,17.7019083 98.8292931,20.9900833 98.9652796,23.5015518 C99.2039299,27.9090698 101.165383,31.1714758 105.795338,36.1156173 C106.271834,36.6244487 107.982057,38.4222285 107.982339,38.4225266 C113.709101,44.4734165 116.257763,48.4576058 117.078017,54.3860518 C118.632967,65.6245773 117.620529,73.4021674 113.909861,87.8667559 C113.069955,91.1407998 113.038381,91.2645838 112.736659,92.4859451 C112.249779,94.45682 111.862907,96.1400476 111.531342,97.7622361 C111.283178,98.9763792 111.295187,100.116317 111.48573,102.616328 C111.672345,105.062646 111.700529,106.087499 111.53696,107.297136 C110.726693,113.2893 110.547798,114.893076 110.502856,117.093837 C110.449301,119.716339 110.614241,121.576183 111.538207,129.624661 C111.614261,130.287152 113.250695,131.28464 116.407658,132.380355 L124.121903,174.960887 C124.841032,160.789424 125.491292,151.809748 126.075379,148.000407 C126.543494,144.94742 127.192628,143.149471 128.062373,142.223845 C128.602661,141.648842 129.034676,141.485489 129.892157,141.353386 C132.225088,140.581938 135.165462,140.581938 139.062585,141.254846 L151.100352,142.738656 C148.236192,141.198005 146.292991,139.679471 145.267142,138.165252 Z M48.1050039,50.1347016 C48.109304,50.1374846 48.1134613,50.1400036 48.1174722,50.1422594 C48.1161191,50.1414984 48.1143054,50.1408074 48.1120917,50.1402022 L48.1050039,50.1347016 Z M82.4059232,1.2917469 C93.1783832,0.113355755 101.271939,2.14271434 107.541338,7.03461347 C112.482432,10.8900604 115.871267,15.884575 119.991288,24.2555519 C120.545367,25.3813181 122.518148,29.4809659 122.356879,29.1478607 C123.214858,30.9200459 123.873637,32.2379441 124.532267,33.4817359 C126.616143,37.4170384 127.502761,41.0187512 128.556076,48.3292197 C130.286392,60.338371 131.162893,64.6761879 134.140196,72.8777135 C139.304681,87.104226 140.78081,94.8692991 140.725263,104.085457 C140.718146,105.266305 140.701271,106.057083 140.640115,108.439698 C140.479674,114.69042 140.517132,118.2011 140.954352,123.446476 C141.02456,124.288763 141.333711,126.105932 141.892877,128.16336 C142.812631,131.547562 144.185213,134.785345 146.095039,137.604371 C147.283597,139.35876 149.975235,141.216405 154.162346,143.139788 L157.089692,144.484487 L153.892465,144.090388 L138.916414,142.243812 C135.14879,141.593834 132.362316,141.593834 130.577283,142.222682 C130.424876,142.276373 130.291806,142.303614 130.04442,142.341726 C129.38858,142.442764 129.140837,142.53644 128.791136,142.908611 C128.092,143.652666 127.50398,145.281343 127.063827,148.151967 C126.427973,152.298923 125.7055,162.750151 124.90001,179.476996 L124.683648,183.96999 L115.801724,133.227562 C112.422692,132.029943 110.682621,130.939838 110.544732,129.738712 C109.614692,121.63732 109.448201,119.759992 109.503064,117.07342 C109.549097,114.819244 109.729954,113.197875 110.545979,107.163135 C110.696701,106.048503 110.669674,105.065718 110.495085,102.777071 C110.290837,100.097288 110.278218,98.8994952 110.551597,97.5619826 C110.886183,95.9250163 111.275961,94.2291432 111.765843,92.2461172 C112.068628,91.0204546 112.100258,90.896451 112.941226,87.6182675 C116.622151,73.2696199 117.620295,65.60184 116.087453,54.5231052 C115.303222,48.8550129 112.8509,45.0214288 107.256047,39.1099131 C107.258171,39.1121568 105.545093,37.3113762 105.065419,36.7991515 C100.287693,31.6972109 98.2214988,28.2605929 97.9667423,23.5556188 C97.8529591,21.4542114 95.8739077,18.5637284 92.6927797,17.8163558 C91.677046,17.5777199 90.3805888,17.7567021 88.8455676,18.300352 C87.8560952,18.6507879 86.8045933,19.137394 85.6420268,19.7602715 C85.2370893,19.977228 84.8280533,20.2054937 84.3735336,20.4663369 C84.1965662,20.5678963 84.0188916,20.6707941 83.801556,20.7973654 C83.2422248,21.2019708 83.0757787,21.3027049 82.8834974,21.3303422 C82.4320854,21.5882014 82.1471377,21.7379194 81.9278943,21.8264527 C81.7377501,21.9032353 81.5896985,21.9400457 81.4299897,21.921758 C81.0615125,21.8795651 80.868409,21.5545467 80.9332484,21.2212337 C80.994822,20.9047085 81.0375159,20.5660877 81.0620392,20.2045584 C80.7077217,19.9021315 79.9837459,19.2868698 79.7539393,19.1033485 C77.1898714,17.0557086 74.4912565,16.7368402 66.4225053,18.142608 C59.8257487,19.2919194 53.2114827,26.2849245 50.4037162,37.4677686 C50.1260512,38.57366 49.990853,40.1063225 49.8149383,43.4101329 C49.6250732,46.9889466 49.5202523,48.3045579 49.2888201,49.4278219 C49.1217444,50.23873 48.9096266,50.748383 48.5413792,50.9952242 C47.9969689,51.3601499 47.4571407,51.0565518 46.968804,50.3461011 C45.5266802,48.2480442 42.9041191,45.7031682 40.4639059,43.9261927 C39.360277,43.1225245 38.4217904,42.5779008 37.859613,42.4088878 C38.8954752,45.453643 40.8454237,54.4010247 41.6758463,60.198143 C42.509634,66.0187519 43.7710296,68.7595998 45.9559746,70.8633154 C46.1091928,71.0108375 46.270056,71.1597291 46.4608988,71.3317053 C46.8433235,71.6729621 46.8433235,71.6729621 46.9713052,71.7867907 C48.9881847,73.5832362 49.8836013,74.8990934 50.5736364,77.7663965 C51.6616964,82.2876121 52.5166639,85.2344677 53.4168788,87.6490338 C53.7596734,88.5684809 54.1159645,89.4325049 54.5420957,90.390034 C54.2474285,89.7279083 57.3040736,96.3072421 58.5263841,99.2159646 C58.9117435,100.133001 59.6937312,100.941171 61.1419944,102.069535 C61.149365,102.075277 62.251633,102.920617 62.5447345,103.156949 C63.0590111,103.571616 63.431133,103.914026 63.7180128,104.253795 C63.9389302,104.51544 64.1053025,104.77261 64.2154348,105.035017 C66.3657233,110.158401 67.129968,112.886268 67.238911,115.664639 C67.2874521,116.902584 67.3006975,116.64966 67.0278192,120.795859 C66.9286787,122.302231 66.866979,123.553229 66.832074,124.980486 C66.8117347,125.812156 66.7922202,126.081388 66.6191772,128.184206 C66.2964491,132.106 66.2953668,134.781585 66.827965,138.836254 C67.9586404,147.444082 67.5370353,150.821644 65.4777814,154.330099 C65.2841518,154.659995 64.545677,155.862992 64.3906742,156.12312 C63.9453274,156.870506 63.5861724,157.53022 63.2403832,158.25798 C61.8387396,161.20793 60.820359,165.027945 60.1203743,170.771622 C59.6569036,174.5746 59.5288472,178.055077 59.5035638,184.404023 C59.5024561,184.68218 59.5016592,184.904772 59.4999329,185.405671 C59.4629144,196.146592 59.1535581,200.874628 57.6622506,206.62257 C57.3843117,207.693829 57.0340063,208.881135 56.5417852,210.447876 C56.3177239,211.161064 55.4059023,214.008293 55.1878489,214.699946 C54.2057376,217.815145 53.5454895,220.138653 53.0309891,222.425884 C52.2500215,225.897705 51.9165891,228.900431 52.090748,231.557577 C52.8992049,243.892224 49.8413023,253.412048 44.4676519,257.1497 C42.3928236,258.592851 38.326443,259.888338 35.922836,259.938227 C34.4423044,259.968958 33.5234954,259.458737 33.9602925,258.338137 C34.2896219,257.493244 35.597352,256.357721 37.9825159,254.847041 L40.0652365,246.969285 C40.7689548,243.592214 41.0259104,240.648048 41.1555345,235.9923 C41.1664215,235.601267 41.1747956,235.275575 41.1919188,234.589763 C41.3163708,229.605268 41.4471312,227.320928 41.8962991,224.210417 C42.2375965,221.846914 42.7213939,219.997082 43.9550107,215.911328 C45.3900853,211.155376 45.9400795,208.893024 46.1567506,206.252144 C46.0283771,206.298769 45.8621746,206.379058 45.6766043,206.489296 C45.0323638,206.872008 44.3252773,207.503045 44.0767138,207.91153 C38.3218472,217.368984 35.8934116,221.955231 33.970703,227.908812 C33.3311909,229.889032 32.8407142,233.268754 32.4120109,238.051588 C32.2288362,240.095179 31.7058457,247.231108 31.5929878,248.352538 C31.4605062,249.668961 31.3606344,250.255402 31.1481455,250.512266 C30.9279709,250.77842 30.542582,250.796993 30.302439,250.535602 C30.0160695,249.872906 29.9393294,249.469965 29.8576807,248.895067 C27.6637406,233.44726 26.9202689,220.626285 27.5330822,206.471927 C27.6022155,204.875133 28.1277817,202.953734 29.145457,200.176458 C29.29408,199.77086 29.45162,199.350298 29.6495416,198.828782 C29.6309882,198.877669 30.1865617,197.419304 30.3353065,197.023656 C30.5852817,196.358743 30.7794838,195.825011 30.9476904,195.335396 C31.0899753,194.921234 31.320777,194.480152 31.7293348,193.791099 C32.394476,192.677581 32.5437358,192.409863 32.6577577,192.095927 C31.7103024,191.917313 30.517153,192.747959 28.6843345,194.646573 C28.4545083,194.884649 28.2488695,195.101848 27.8674679,195.507677 C26.2040234,197.277658 25.5224703,197.941413 24.6242983,198.554035 C22.2008803,200.206993 19.700075,202.411422 17.0290216,205.152445 C15.9120551,206.298671 14.7980418,207.503791 13.5686701,208.882433 C13.1013529,209.406492 12.6414842,209.928157 12.0576508,210.594867 C11.8883023,210.788255 11.7043205,210.998627 11.3658237,211.385725 C11.0952124,211.695086 10.9032835,211.914083 10.7196761,212.122795 C8.31788926,214.852976 7.69263244,215.460487 7.01538737,215.228262 C6.11785055,214.9205 6.46105669,213.584288 8.03012484,209.486656 C9.28435357,206.211228 11.3808174,201.174691 15.1691397,192.300423 C15.5036677,191.51678 15.9420569,190.689903 16.4929391,189.782599 C16.984484,188.973025 17.5255963,188.158947 18.3008935,187.042559 C21.1439885,182.948647 21.5486967,182.309608 21.9027042,181.034351 C22.0159396,180.626438 22.2930324,180.318181 23.145822,179.500615 C23.6270274,179.03932 23.8553595,178.809071 24.0009975,178.623212 C22.9861003,178.474052 21.8663584,178.897071 20.6276153,179.877987 C18.6719358,181.42662 16.6298185,184.135055 14.0505042,188.313627 C13.3260699,189.487234 11.0545512,193.300381 10.7687551,193.769417 C9.59565243,195.694664 8.79445927,196.872598 8.11255093,197.610495 C6.12450252,199.761777 4.74170107,201.538607 2.89430702,204.134419 C2.06809662,205.295345 1.8910891,205.536052 1.65117603,205.796657 C1.40865743,206.060092 1.22902941,206.189396 0.945977629,206.163692 C0.51827756,206.124853 0.398686242,205.82466 0.387909289,205.418541 C0.380027095,205.121508 3.11817541,190.961192 4.77472642,180.11587 L8.82290394,167.637207 C11.4408161,160.90721 14.1682072,155.758786 20.5199434,144.848151 C20.7559843,144.44271 20.7559843,144.44271 20.9919324,144.037361 C29.5098597,129.402135 33.0100117,122.124638 35.2825608,112.402597 C36.439778,107.451984 36.8103553,102.589426 36.6199742,96.8134716 C36.5315112,94.1296006 36.4009937,92.2781429 35.9664332,86.9356216 C35.5997558,82.4276608 35.4348007,80.014497 35.3332357,77.1540754 C34.3082404,48.2866573 34.9345596,35.4984968 39.3399558,23.7743875 C44.9862688,8.74781856 56.8438355,0.984331316 77.4414235,0.452152121 C79.9548289,0.38721335 81.4546657,0.61550175 82.4059232,1.2917469 Z M24.2401341,178.666742 C24.2440119,178.669481 24.2470522,178.671089 24.2489554,178.671553 C24.2484072,178.671419 24.2454668,178.669816 24.2401341,178.666742 Z M46.3285159,206.202649 C46.3349854,206.204539 46.3410357,206.205452 46.3465024,206.205176 C46.3446801,206.205268 46.3428287,206.205381 46.3409484,206.205516 L46.3285159,206.202649 Z M37.7325674,42.2981908 C37.7185304,42.2795705 37.7039388,42.2840341 37.6782432,42.3090558 C37.6552393,42.3314564 37.6550032,42.3435247 37.6771084,42.3546404 L37.7325674,42.2981908 Z" id="hair-outline" fill="#000000" fill-rule="nonzero" opacity="0.05"></path>
                </g>
                <g id="horns" transform="translate(47.000000, 0.000000)">
                    <path d="M6.47558947,28.3351354 C3.73390228,23.3593045 1.97368898,15.4801135 1.19494959,4.69756243 C2.89429955,9.89508297 4.87324792,14.2801156 7.13179471,17.8526604 C15.354639,30.8594662 12.6373123,27.5722074 21.0912353,35.1629503 C25.805706,39.3960544 31.2742855,38.973712 37.0184507,39.2229697 C43.9078052,39.5219208 49.5867034,42.0821168 51.8938122,43.9820516 C53.3638511,45.1926482 53.3414249,44.8137537 55.6477579,47.6069453 C57.4680398,49.8114821 56.7460196,51.6067263 57.2476287,55.2098412 C56.6655058,54.9190933 56.8065497,56.630033 55.6838279,57.3872869 C54.561106,58.1445409 53.9697154,56.6646887 53.3153986,56.1499843 C50.7790736,54.1548382 48.5121257,51.3861446 43.2880271,50.4687789 C28.1365586,47.8081404 16.1844111,45.9554734 6.47558947,28.3351354 Z M102.860156,29.1901494 C92.0515886,50.0024286 90.4671453,43.1175204 74.1511396,50.0156797 C71.7146477,49.6601458 59.474814,59.406502 57.9444665,56.9871615 C56.8923861,55.3239178 58.2179264,46.9900953 59.596073,45.6552344 C61.7589641,43.5602766 67.2208894,38.5889299 74.1601646,37.6958007 C79.9459524,36.9511327 81.9354298,37.4544616 87.9109608,35.6227011 C93.8244727,33.8099523 93.2572211,36.5004766 100.408521,22.8122861 C102.37275,19.0525872 102.476719,13.7819054 100.720429,7.00024078 C104.751353,16.7785739 105.464595,24.1752101 102.860156,29.1901494 Z" fill="#404863"></path>
                    <path d="M6.70352435,28.1408471 C11.0114258,35.9591675 15.9058317,40.9567786 21.9778525,44.1647387 C26.8179394,46.7218455 31.496344,47.9646452 40.9720413,49.6381716 C41.293769,49.6949927 41.6252135,49.7532826 42.0623067,49.8299716 C42.6114158,49.9262687 42.6114158,49.9262687 43.1645173,50.0233217 C46.4166582,50.5944063 48.6000576,51.764343 51.1714589,53.9152087 C51.4705246,54.1653642 52.5486804,55.0929974 52.7950004,55.2993568 C53.0185188,55.4866137 53.2203163,55.6512226 53.4145436,55.8040073 C53.5011727,55.8721522 53.5859234,55.9515004 53.674724,56.0451746 C53.7400835,56.1141212 53.8061747,56.1891397 53.8846272,56.2822018 C53.9294072,56.3353208 53.9842247,56.4015525 54.0804948,56.5179086 C54.6166123,57.1621736 54.8264698,57.2678319 55.1942515,57.0197703 C55.4365297,56.8563584 55.6223773,56.6168319 55.7824036,56.2852604 C55.8801819,56.0826656 56.142018,55.3759213 56.1312562,55.4020679 C56.2263627,55.1709998 56.3411559,54.9830699 56.4817936,54.8611435 C56.3917449,54.1136845 56.3548044,53.4729731 56.3074381,52.2607242 C56.2404436,50.5461288 56.1417088,49.8703085 55.7578911,49.0612498 C55.5843978,48.6955389 55.3541805,48.3380131 55.0522155,47.9723045 C53.7990518,46.4546023 53.2295104,45.8574424 52.6425052,45.397341 C52.5972634,45.3618799 52.5709676,45.34168 52.4976672,45.2860073 C52.4253178,45.2313089 52.1045638,44.9935842 52.0120114,44.923832 C51.7931153,44.7588609 51.5910404,44.6003722 51.3659744,44.4150273 C48.5706592,42.1130481 42.7114077,40.0265954 36.7867867,39.7695071 C36.1891702,39.7435746 35.7295732,39.7286168 34.6354843,39.6968416 C27.2419679,39.4821144 24.1106133,38.7815702 20.5471978,35.5819939 C19.3600872,34.5160922 16.3993068,31.9056778 15.9542502,31.5025341 C14.7962252,30.4535654 14.1067673,29.7492985 13.4247599,28.8985856 C12.75397,28.061865 12.0969237,27.0938131 10.9601953,25.2908636 C10.8197211,25.0680594 7.83098385,20.2734834 6.49918008,18.1668507 C4.77696132,15.4426637 3.21788783,12.2559556 1.82099442,8.60664588 C2.71095978,17.3413574 4.34248565,23.8558472 6.70352435,28.1408471 Z M56.6830006,56.7199154 C56.4521222,57.198291 56.1603155,57.5743813 55.7534284,57.8488187 C54.8059026,58.4879063 54.1397828,58.1525307 53.3118219,57.1575507 C52.9606703,56.7355636 53.0361063,56.8250474 52.9489905,56.7331505 C52.8912257,56.6722154 52.8407641,56.6249706 52.7962778,56.5899764 C52.5932938,56.4303034 52.3837183,56.2593499 52.1528114,56.0659031 C51.8996728,55.8538314 50.8219073,54.9265339 50.5298617,54.6822505 C48.0819118,52.6346464 46.0484439,51.545048 42.9915611,51.0082512 C42.4387367,50.9112468 42.4387367,50.9112468 41.8894939,50.8149263 C41.4520631,50.738178 41.1202823,50.679829 40.7981205,50.6229312 C31.2242329,48.9320632 26.4704389,47.6692366 21.5107201,45.0489261 C15.259941,41.7465247 10.226726,36.6071776 5.82767887,28.6234387 C3.04420843,23.5717763 1.26974075,15.6287788 0.486260653,4.78058725 L0.192382982,0.711509708 L1.46020505,4.58918728 C3.14741619,9.74958083 5.10957442,14.0974092 7.34443361,17.6324852 C8.67839716,19.7425342 11.6675688,24.5378071 11.8061026,24.7575337 C12.9240162,26.5306413 13.5639534,27.4734857 14.2049854,28.2730872 C14.8489418,29.0763366 15.5036066,29.7450631 16.6255969,30.7613907 C17.0644688,31.1589321 20.0230194,33.7673805 21.2152971,34.8379218 C24.5470937,37.8295284 27.4950501,38.489043 34.6645147,38.6972631 C35.7634369,38.7291787 36.2261157,38.7442368 36.8301391,38.7704473 C42.963848,39.0366085 49.0318395,41.1973926 52.0016742,43.643091 C52.2150128,43.8187781 52.4059138,43.9685031 52.6138756,44.1252335 C52.7019348,44.1915994 53.0235041,44.4299284 53.1007417,44.4883225 C53.1798883,44.5484326 53.209282,44.5710123 53.2594004,44.6102957 C53.9150906,45.1242332 54.5281584,45.7670303 55.8233245,47.3356012 C56.1767108,47.7635861 56.4516887,48.1906248 56.6613785,48.6326351 C57.1215982,49.6027434 57.234556,50.3759174 57.3066756,52.221681 C57.3622315,53.6435255 57.4024238,54.2509328 57.5328649,55.1879059 L57.663809,56.1284921 L57.0436557,55.8187495 C56.9881761,55.9704494 56.783393,56.5119042 56.6830006,56.7199154 Z M73.8894451,49.9709653 C76.3163348,48.9502929 78.5542138,48.1721198 80.8480833,47.5146 C81.7478779,47.2566809 82.6228242,47.0258878 83.6672287,46.7658611 C83.9678826,46.6910069 85.6530778,46.2789863 86.1048952,46.1647715 C89.2178693,45.3778441 90.8728536,44.7045599 92.6157862,43.3517078 C95.4151176,41.1788863 98.2014001,37.1815084 102.228943,29.4263329 C104.223032,25.5866427 104.202816,20.2455198 102.13921,13.4045277 C102.543675,17.4780763 102.055623,20.8471423 100.664201,23.5104422 C96.6354575,31.2217963 95.0746425,33.6880316 93.4055941,34.8468314 C92.7118974,35.3284564 92.0610881,35.5640073 90.8962003,35.8234561 C90.8677366,35.8297957 89.8691821,36.0449039 89.5409739,36.1209358 C88.9640935,36.2545744 88.4325608,36.3949286 87.8700173,36.5673727 C85.0892857,37.419788 83.0766723,37.814106 80.6810795,38.0453419 C80.1989482,38.0918798 79.7285869,38.130655 79.003313,38.185687 C76.4333595,38.3806886 75.6549772,38.4500305 74.0365066,38.6583381 C68.6290157,39.3543168 64.0851156,42.2883089 59.7564565,46.4810109 C58.5064485,47.6917579 57.2835108,55.7699575 58.1795414,57.1865005 C58.592927,57.8400256 61.0728383,56.7937766 65.7375546,54.0334613 C65.8989138,53.937978 66.067578,53.8378971 66.254536,53.7267337 C71.5463839,50.5802528 72.8291334,49.8866015 73.8894451,49.9709653 Z M103.1164,29.8872217 C99.0270561,37.7613989 96.1722355,41.8571059 93.2289465,44.1416663 C91.354423,45.5966583 89.585032,46.3164858 86.3499754,47.1342744 C85.8935556,47.2496525 84.2059204,47.6622697 83.9088247,47.736238 C82.8749141,47.9936521 82.0107781,48.2215935 81.123629,48.4758879 C78.829382,49.1335159 76.5933655,49.9133565 74.1583608,50.9428396 L73.8914592,50.977068 C73.1723813,50.8721399 71.7261636,51.6367739 66.7656086,54.5862712 C66.5780838,54.6977716 66.4088292,54.7982029 66.246816,54.8940732 C60.6238792,58.2214092 58.2771622,59.2114649 57.3344222,57.7210784 C56.1778557,55.8926517 57.4795497,47.2942218 59.06072,45.7627138 C63.5317388,41.4321234 68.2320048,38.397166 73.9088531,37.6665192 C75.5503421,37.4552491 76.3403599,37.3848706 78.927653,37.1885533 C79.6466452,37.133998 80.1112367,37.0956984 80.5850005,37.0499681 C82.9148569,36.8250776 84.8614988,36.4436848 87.5769349,35.6112855 C88.1632813,35.4315448 88.7169611,35.2853425 89.3152929,35.1467345 C89.6525448,35.0686076 90.6570988,34.852207 90.6788029,34.847373 C91.7279743,34.613697 92.2710618,34.4171344 92.8352851,34.0254011 C94.309027,33.0022003 95.8450494,30.5751395 99.777872,23.0473858 C101.675399,19.4153593 101.776995,14.2649684 100.048912,7.59222145 L100.995207,7.27630986 C105.07673,17.1773869 105.803403,24.7133033 103.1164,29.8872217 Z" id="horns-outline" fill="#000000" fill-rule="nonzero" opacity="0.3"></path>
                </g>
            </g>
        </g>
    </g>
</svg>