<?xml version="1.0" encoding="UTF-8"?>
<svg width="480px" height="300px" viewBox="0 0 480 300" version="1.1" xmlns="http://www.w3.org/2000/svg" xmlns:xlink="http://www.w3.org/1999/xlink">
    <!-- Generator: Sketch 51 (57462) - http://www.bohemiancoding.com/sketch -->
    <title>Avatars</title>
    <desc>Created with Sketch.</desc>
    <defs></defs>
    <g id="Avatars" stroke="none" stroke-width="1" fill="none" fill-rule="evenodd">
        <rect id="Frame" fill="#E6E6E6" x="0" y="0" width="480" height="300"></rect>
        <g id="Tiefling" transform="translate(120.000000, 28.000000)">
            <g id="Male" transform="translate(0.000000, 3.000000)">
                <g id="body" transform="translate(0.000000, 16.000000)">
                    <path d="M0,252.730644 C2.58630082,224.611468 4.49645767,206.831103 5.73047057,199.389551 C6.61594414,194.049819 12.2367997,167.544898 22.745009,153.601274 C34.4219051,138.106889 80.375026,136.723251 84.2674849,132.462106 C87.3388818,129.099793 88.121113,123.648497 86.6141785,116.108216 C85.8908924,100.292754 85.1086612,90.8162796 84.2674849,87.6787933 C82.6848226,81.7756532 73.9427497,61.88766 70.9808314,44.1401073 C69.3501709,34.3693343 76.53636,18.9986835 79.433427,16.2701047 C93.6679309,2.86345378 148.11843,-10.4519704 161.640571,13.8907334 C167.095344,23.7104755 170.036292,48.3525107 169.934883,49.1727998 C169.085659,56.0421146 168.926002,83.63543 166.460059,91.4315923 C159.812026,112.449569 157.630032,104.12543 155.697188,108.990681 C154.256856,112.616208 154.979781,117.256979 157.865964,122.912995 C166.78062,125.873023 230.540705,131.965178 237.438654,153.601274 C241.810106,167.312765 251.213108,196.954429 253.026996,208.775631 C254.041507,215.387252 255.040599,230.038924 256.024273,252.730644 L211.849067,252.730644 L16.2386799,252.730644 L0,252.730644 Z" fill="#B05C5C"></path>
                    <polygon id="armpit-l" fill="#000000" opacity="0.5" points="58.1842036 253.199454 66.3510021 212.91378 66.3510021 253.199454"></polygon>
                    <polygon id="armpit-r" fill="#000000" opacity="0.5" transform="translate(205.779602, 232.853680) scale(-1, 1) translate(-205.779602, -232.853680) " points="201.696203 252.996517 209.863001 212.710843 209.863001 252.996517"></polygon>
                    <path d="M135.771112,195.071605 C135.68216,194.758408 139.578821,207.583766 140.304296,210.833656 C141.704197,217.104759 141.833361,222.711406 140.487466,229.813726 C139.635551,234.309306 135.271838,237.950076 128.510822,240.703876 C123.435742,242.770984 117.147004,244.202274 112.863092,244.51057 C110.808715,244.658415 108.743799,244.822102 106.46745,245.014854 C105.015485,245.1378 97.9405849,245.763796 96.1401345,245.910808 C92.6137873,246.198745 90.026669,246.355213 87.7440114,246.400757 C82.3256431,246.508866 78.632826,245.958881 75.7495338,244.469808 C69.7436212,241.368062 67.0940268,234.141161 65.5354901,217.504939 L66.5311305,217.411665 C68.0595066,233.725944 70.6133804,240.691761 76.208401,243.581303 C78.9132476,244.978218 82.4572591,245.506041 87.7240632,245.400956 C89.9822085,245.355901 92.5511061,245.200535 96.0587523,244.914125 C97.8550866,244.767449 104.927905,244.141638 106.383076,244.01842 C108.663362,243.825335 110.732379,243.661323 112.791312,243.51315 C116.97209,243.212276 123.157741,241.804448 128.133606,239.77775 C134.610912,237.139508 138.733184,233.700178 139.504952,229.627539 C140.825057,222.661312 140.699057,217.191989 139.328317,211.051524 C138.627858,207.913695 134.895314,195.610649 134.809473,195.344721 L135.771112,195.071605 Z M185.041254,238.615798 C184.418333,238.640277 183.98334,238.654157 182.783822,238.689821 C179.944798,238.774232 178.69682,238.837783 177.375973,239.001655 C162.651196,240.828501 153.900214,239.441561 148.508228,234.562305 C143.884562,230.378309 141.81836,224.43843 139.519673,211.310217 C139.346767,210.322725 139.169851,209.289083 138.933905,207.893407 C138.931981,207.882023 138.465149,205.113881 138.326206,204.295609 C137.810639,201.259289 137.400248,198.932375 136.95481,196.562818 L137.937596,196.37807 C138.384301,198.754369 138.795628,201.086589 139.312094,204.128205 C139.451149,204.947135 139.918073,207.715823 139.919915,207.726717 C140.155563,209.12063 140.332182,210.15254 140.504687,211.137746 C142.765161,224.047709 144.780007,229.839954 149.179201,233.820823 C154.304981,238.459188 162.788721,239.803772 177.252851,238.009264 C178.61623,237.840115 179.882023,237.775657 182.754103,237.690263 C183.950268,237.654698 184.383421,237.640877 185.001988,237.61657 C192.823933,237.309197 196.39894,236.066028 196.819602,232.429091 L196.838213,232.268183 L200.591101,228.17239 C201.332422,221.694754 201.45618,216.401406 201.3807,204.577768 C201.342552,198.601918 201.345696,195.946267 201.425084,192.629414 L202.424798,192.653342 C202.345732,195.95672 202.342596,198.605645 202.38068,204.571384 C202.457042,216.533248 202.329956,221.842933 201.565979,228.448074 L201.547368,228.608982 L197.792319,232.707133 C197.207534,236.950557 193.25562,238.293005 185.041254,238.615798 Z" id="breast" fill="#000000" fill-rule="nonzero" opacity="0.3"></path>
                    <path d="M90.0542835,149.284801 L88.5837796,148.812855 C89.6598174,147.607711 92.3255532,144.43586 92.7924119,143.950099 C93.8534293,142.846123 94.7328632,142.350571 96.192175,142.11167 C96.7025292,142.028121 113.078369,141.790537 121.107953,140.078468 L121.348466,141.068017 C113.171811,142.11167 96.9172982,143.029571 96.6315312,143.076353 C95.6639133,143.23476 95.0990092,143.553078 94.2376049,144.449359 C93.7987162,144.906017 91.1499979,148.05762 90.0542835,149.284801 Z" id="collarbone-l" fill="#000000" fill-rule="nonzero" opacity="0.129999995" transform="translate(104.966123, 144.681635) scale(-1, 1) translate(-104.966123, -144.681635) "></path>
                    <path d="M137.00367,149.284801 L135.704694,148.812855 C136.655217,147.607711 139.010006,144.43586 139.422408,143.950099 C140.359662,142.846123 141.136513,142.350571 142.425603,142.11167 C142.876426,142.028121 157.342094,141.790537 164.435062,140.078468 L164.64752,141.068017 C157.424637,142.11167 143.066144,143.029571 142.81371,143.076353 C141.958961,143.23476 141.45995,143.553078 140.699025,144.449359 C140.311331,144.906017 137.971574,148.05762 137.00367,149.284801 Z" id="collarbone-r" fill="#000000" fill-rule="nonzero" opacity="0.129999995"></path>
                    <g id="nipples" opacity="0.700000048" transform="translate(85.000000, 216.000000)">
                        <g id="left" transform="translate(0.000000, 6.000000)">
                            <path d="M5.5,11 C2.46243388,11 0,8.53756612 0,5.5 C0,2.46243388 2.46243388,0 5.5,0 C8.53756612,0 11,2.46243388 11,5.5 C11,8.53756612 8.53756612,11 5.5,11 Z" id="la" fill="#000000" fill-rule="nonzero" opacity="0.3"></path>
                            <circle id="ln" fill="#B05C5C" opacity="0.400000006" cx="5.5" cy="5.5" r="1.5"></circle>
                            <path d="M5.5,8 C4.11928813,8 3,6.88071187 3,5.5 C3,4.11928813 4.11928813,3 5.5,3 C6.88071187,3 8,4.11928813 8,5.5 C8,6.88071187 6.88071187,8 5.5,8 Z M5.5,7 C6.32842712,7 7,6.32842712 7,5.5 C7,4.67157288 6.32842712,4 5.5,4 C4.67157288,4 4,4.67157288 4,5.5 C4,6.32842712 4.67157288,7 5.5,7 Z" id="lno" fill="#000000" fill-rule="nonzero" opacity="0.3"></path>
                        </g>
                        <g id="right" transform="translate(92.000000, 0.000000)">
                            <path d="M5.5,11 C2.46243388,11 0,8.53756612 0,5.5 C0,2.46243388 2.46243388,0 5.5,0 C8.53756612,0 11,2.46243388 11,5.5 C11,8.53756612 8.53756612,11 5.5,11 Z" id="ra" fill="#000000" fill-rule="nonzero" opacity="0.3"></path>
                            <circle id="rn" fill="#B05C5C" opacity="0.400000006" cx="5.5" cy="5.5" r="1.5"></circle>
                            <path d="M5.5,8 C4.11928813,8 3,6.88071187 3,5.5 C3,4.11928813 4.11928813,3 5.5,3 C6.88071187,3 8,4.11928813 8,5.5 C8,6.88071187 6.88071187,8 5.5,8 Z M5.5,7 C6.32842712,7 7,6.32842712 7,5.5 C7,4.67157288 6.32842712,4 5.5,4 C4.67157288,4 4,4.67157288 4,5.5 C4,6.32842712 4.67157288,7 5.5,7 Z" id="rno" fill="#000000" fill-rule="nonzero" opacity="0.3"></path>
                        </g>
                    </g>
                    <path d="M4.05345369,226.427201 L5.05201506,226.37358 C5.07102437,226.727584 5.13505574,227.928662 5.1473241,228.157489 C5.18290728,228.82118 5.21036683,229.323196 5.23698167,229.792868 C5.62467208,236.634448 6.07071991,239.02209 7.65304083,241.685157 C8.91669263,243.811899 10.6255072,245.684994 15.6064308,250.582943 L14.9052879,251.295964 C9.85658837,246.331368 8.11844688,244.426127 6.79334558,242.195964 C5.10318961,239.35141 4.63501866,236.845345 4.23858338,229.849444 C4.21190097,229.378579 4.18439108,228.875643 4.14875824,228.211026 C4.13647827,227.981982 4.07244989,226.780961 4.05345369,226.427201 Z M1.05766449,251.436791 L0.141554264,251.035865 C0.959438111,249.167014 1.52247413,247.709232 1.96262407,246.396402 C2.0221363,246.218895 2.53846646,244.580567 2.66598504,244.278859 C3.03422638,243.407601 2.49938974,243.814446 5.98191085,241.486655 L6.5376204,242.318032 C3.38540569,244.425039 3.83411676,244.083708 3.58709176,244.668169 C3.48118153,244.918752 2.98666017,246.48788 2.91075565,246.71428 C2.46110878,248.055437 1.88737438,249.540918 1.05766449,251.436791 Z M61.9517519,199.413818 L62.9115293,199.133057 C63.1049971,199.794421 63.3150786,200.465209 63.5642839,201.225322 C65.9166497,208.400384 65.9344183,208.465612 65.7965526,210.923936 C65.6747678,213.095515 64.8603044,215.131522 63.1919441,217.254278 L62.4057122,216.636347 C63.9513473,214.669741 64.6882155,212.827708 64.7981214,210.867943 C64.9253405,208.599463 64.904678,208.523612 62.6140499,201.536859 C62.3617286,200.767242 62.1485375,200.086525 61.9517519,199.413818 Z M73.1347514,146.57294 L72.6865377,145.679013 C74.1515103,144.944478 75.6084329,144.530013 79.1153518,143.71886 C82.5367556,142.927487 83.9554409,142.5239 85.3213033,141.839059 C86.5149833,141.240549 87.0467926,140.63051 87.9790194,139.080828 C89.0009162,137.382084 89.6402519,136.648702 91.0454244,135.94415 L91.4936381,136.838076 C90.2999581,137.436586 89.7681488,138.046625 88.835922,139.596307 C87.8140252,141.295051 87.1746895,142.028433 85.769517,142.732985 C84.3045444,143.467521 82.8476218,143.881985 79.3407029,144.693138 C75.9192991,145.484511 74.5006138,145.888098 73.1347514,146.57294 Z" id="arm-lines-l" fill="#000000" fill-rule="nonzero" opacity="0.1"></path>
                    <path d="M163.926391,226.427201 L164.902256,226.37358 C164.920833,226.727584 164.983409,227.928662 164.995399,228.157489 C165.030173,228.82118 165.057009,229.323196 165.083019,229.792868 C165.461897,236.634448 165.897807,239.02209 167.444164,241.685157 C168.679095,243.811899 170.349071,245.684994 175.216785,250.582943 L174.531578,251.295964 C169.597628,246.331368 167.898992,244.426127 166.604009,242.195964 C164.952267,239.35141 164.494737,236.845345 164.107312,229.849444 C164.081237,229.378579 164.054352,228.875643 164.019529,228.211026 C164.007528,227.981982 163.944955,226.780961 163.926391,226.427201 Z M162.036843,252.436791 L161.141554,252.035865 C161.940849,250.167014 161.452937,247.709232 161.883082,246.396402 C161.941242,246.218895 162.445837,244.580567 162.570457,244.278859 C162.930329,243.407601 162.407648,243.814446 165.811017,241.486655 L166.354096,242.318032 C163.273526,244.425039 163.712039,244.083708 163.470628,244.668169 C163.367125,244.918752 162.883844,246.48788 162.809664,246.71428 C162.370237,248.055437 162.847694,250.540918 162.036843,252.436791 Z M207.317176,197.413818 L208.255139,197.133057 C208.444209,197.794421 208.649516,198.465209 208.893057,199.225322 C211.191957,206.400384 211.209322,206.465612 211.074589,208.923936 C210.955573,211.095515 210.159621,213.131522 208.52918,215.254278 L207.760818,214.636347 C209.271323,212.669741 209.991443,210.827708 210.098851,208.867943 C210.223179,206.599463 210.202986,206.523612 207.964421,199.536859 C207.717834,198.767242 207.509489,198.086525 207.317176,197.413818 Z M234.552023,146.57294 L234.113996,145.679013 C235.545672,144.944478 236.969481,144.530013 240.396693,143.71886 C243.740333,142.927487 245.126773,142.5239 246.461592,141.839059 C247.628141,141.240549 248.147863,140.63051 249.058902,139.080828 C250.057572,137.382084 250.682377,136.648702 252.055612,135.94415 L252.493638,136.838076 C251.327089,137.436586 250.807367,138.046625 249.896328,139.596307 C248.897658,141.295051 248.272853,142.028433 246.899618,142.732985 C245.467942,143.467521 244.044133,143.881985 240.616922,144.693138 C237.273282,145.484511 235.886841,145.888098 234.552023,146.57294 Z" id="arm-lines-r" fill="#000000" fill-rule="nonzero" opacity="0.1" transform="translate(206.817596, 194.190471) scale(-1, 1) translate(-206.817596, -194.190471) "></path>
                </g>
                <g id="face" transform="translate(72.000000, 58.000000)">
                    <path d="M13.8288056,43.7323679 L14.7784954,43.4191758 C16.4200338,48.3968002 18.4697615,51.2922052 23.2955288,56.4560315 C23.6343381,56.818379 23.8176721,57.0144676 23.9740458,57.1820365 C26.5458899,59.9380075 27.9514664,61.6037638 29.3695556,63.7407634 C30.9917984,66.1854136 35.6835073,70.1914081 40.9474161,74.1661362 C42.5822524,75.4005858 44.1166807,76.1336683 45.7657459,76.5214836 C47.2989593,76.8820537 48.4965033,76.9399865 51.5893655,76.9088863 C54.1709195,76.8829275 55.4945334,76.9090801 57.285483,77.07571 C63.9617578,77.6968704 69.2606343,76.0454024 76.4415244,71.4882746 C76.720109,71.3114795 78.2646337,69.3742968 80.953377,65.8613134 C80.9988246,65.8019301 80.9988246,65.8019301 81.0442688,65.7425376 C85.5755401,59.8201438 85.3359098,60.1302235 85.6724913,59.8251516 L86.3440649,60.5660895 C86.0839891,60.8018178 86.0425221,60.8554758 81.8384725,66.3501893 C81.7929791,66.4096461 81.7929791,66.4096461 81.7474791,66.4690978 C78.7723449,70.3562657 77.421166,72.0509493 76.9773509,72.3326027 C69.6243902,76.9989297 64.1163845,78.7155758 57.1928431,78.0714097 C55.4453331,77.9088214 54.1486859,77.8832016 51.5994205,77.9088357 C48.4249924,77.9407561 47.1755526,77.8803128 45.5368184,77.4949271 C43.750018,77.0747202 42.0888635,76.2810935 40.3448192,74.9641819 C34.9676559,70.9039363 30.2494848,66.8753473 28.5363236,64.2936869 C27.1563754,62.2141643 25.7798495,60.5828359 23.2429382,57.8642987 C23.0869428,57.6971351 22.9040069,57.5014724 22.564911,57.1388181 C17.6480881,51.8775576 15.5267286,48.8809668 13.8288056,43.7323679 Z" id="jaw" fill="#000000" fill-rule="nonzero" opacity="0.3"></path>
                    <path d="M53.5392249,63.2118823 L53.2185876,62.2646802 C54.2675137,61.9096083 55.3349349,61.8345116 57.2856448,61.8630908 C57.7138069,61.8693636 58.1470908,61.89699 58.6040536,61.945222 C59.3281133,62.0216458 59.8519513,62.1066938 61.2660307,62.3603971 L61.089438,63.3446811 C59.7002768,63.0954485 59.1903656,63.0126616 58.4990876,62.9396978 C58.070996,62.8945132 57.6676315,62.8687944 57.2709958,62.8629835 C55.4339656,62.8360698 54.4435886,62.9057461 53.5392249,63.2118823 Z" id="jaw-line" fill="#000000" fill-rule="nonzero" opacity="0.3"></path>
                    <path d="M57.2681976,76.721207 L56.7005524,75.8979336 C57.0305472,75.670403 57.3345912,75.4725227 57.6445492,75.2806126 C57.824128,75.1694267 58.3202639,74.8712773 58.2853271,74.8925292 C58.5768932,74.7151711 58.660863,74.6457564 58.6696783,74.6242324 C58.6808115,74.597049 58.6714519,74.4779184 58.5969064,74.1183683 C58.5854374,74.0630509 58.5647351,73.9649771 58.5265679,73.7836069 C58.49498,73.6323484 58.4682692,73.5002896 58.4415886,73.3618098 C58.3716775,72.9989509 58.3098674,72.6310204 58.2528686,72.2235677 L59.2432252,72.085026 C59.2846485,72.3811379 59.7499069,74.6251844 59.5950744,75.003234 C59.4312639,75.4032047 57.295549,76.7023483 57.2681976,76.721207 Z" id="jaw-cleft" fill="#000000" fill-rule="nonzero" opacity="0.3"></path>
                    <path d="M57.4828552,55.1311035 C64.117061,55.1311035 71.7090201,51.5267426 71.7090201,50.6895035 C71.7090201,49.584934 65.8083391,48.8802994 57.4828552,48.8802994 C49.1573714,48.8802994 42,50.0806615 42,51.185231 C42,52.1411157 51.6248735,55.1311035 57.4828552,55.1311035 Z" id="lips" fill="#3E3E3E" opacity="0.100000001"></path>
                    <path d="M43.7711304,50.6349579 C49.8211949,51.0741937 54.3978192,51.293728 57.4976354,51.293728 C60.6040357,51.293728 64.8881105,51.0732204 70.3472018,50.6319897 C70.1444154,50.5868212 69.9299645,50.5387366 69.698897,50.486673 C64.305832,49.2715193 65.0356279,49.2692712 62.5998062,49.1555732 C62.1674391,49.1353915 59.7308684,48.9565198 59.2143431,49.2680125 C59.1898512,49.2827909 59.1898512,49.2827909 59.1650378,49.297771 C58.536491,49.6771071 58.1670041,49.8251117 57.5699818,49.8394277 C57.1030149,49.8506251 56.6777419,49.7448749 55.548316,49.3958901 C55.5133184,49.3850773 55.5133184,49.3850773 55.4783773,49.3742926 C54.5048082,49.0739119 51.9027308,49.1264584 51.5610792,49.1537954 C48.4155295,49.4054835 46.9499519,49.8092212 43.7711304,50.6349579 Z M69.8899106,51.6713193 C64.6595287,52.0861933 60.5295736,52.293728 57.4976354,52.293728 C54.3701957,52.293728 49.7689528,52.0728743 43.6905271,51.6313346 C45.9048179,53.0269174 49.2229338,54.1575359 53.8111572,54.5246582 C54.1528088,54.5519951 60.1021371,54.6550414 60.5345041,54.6348596 C63.4161315,54.5003526 67.292652,53.0367169 69.8899106,51.6713193 Z M43.2068136,49.753322 C46.6831484,48.8534963 48.1837149,48.4213259 51.4935303,48.1564941 C51.9884873,48.1168906 54.6350153,48.0745751 55.7296252,48.4123012 C55.7648029,48.4231589 55.7648029,48.4231589 55.7999087,48.4340052 C56.8164559,48.7481112 57.2167664,48.8476542 57.5496885,48.839671 C57.9618795,48.8297871 58.2096712,48.7305296 58.7183994,48.4235056 C58.7430369,48.4086317 58.7430369,48.4086317 58.7679644,48.3935905 C59.4197162,48.0005489 61.9997733,48.1266435 62.6392822,48.1564941 C65.1451807,48.2734631 64.4366431,48.2797318 69.8856573,49.5074919 C70.1270124,49.5618735 70.3500976,49.6118815 70.5605945,49.6587357 L70.3997066,49.4559202 L71.0965183,48.8029226 L72.7479424,50.8847097 L72.1658033,51.430245 L72.1768706,51.4490228 C72.1388495,51.4754953 72.1000293,51.5021562 72.0604296,51.5289931 L72.0511307,51.5377073 L72.0498819,51.536133 C69.6291936,53.1728441 64.3225216,55.4589664 60.5739801,55.6339387 C59.9344712,55.6637894 54.2385653,55.5615629 53.7436083,55.5219594 C48.0839092,55.069104 44.3202144,53.5274307 41.9857407,51.6034147 L41.6968117,51.9676389 L41,51.3146413 L42.6514241,49.2328542 L43.2068136,49.753322 Z" id="mouth-outline" fill="#000000" fill-rule="nonzero" opacity="0.3"></path>
                    <path d="M61.7661615,39.8166467 C61.4254046,40.8176838 60.4747263,41.2899545 58.7329884,41.567631 C55.2743839,42.1190191 53.6652303,41.6287282 52.7849182,39.8760048 C52.6582696,39.8875114 52.4729654,39.9100419 52.0894085,39.9578942 C51.6918909,40.0054536 51.3816494,40.0345434 51.0729351,40.0484255 C50.4736708,40.0753728 49.9781849,40.0373499 49.5703976,39.9065656 C48.3605461,39.5185457 47.8112881,37.9791961 48.0577757,37.1303835 C48.2553208,36.4501107 48.3717365,36.0979406 48.5028221,35.8170812 C48.8891983,34.9892452 49.1794807,34.9149753 50.3652841,35.0047306 C51.0754806,35.0584864 51.6541603,35.0562196 52.4624976,34.9585042 L52.5606258,36.0652945 L52.8571426,35.9364344 C52.9638435,36.2712003 53.0469585,36.6116272 53.1433026,37.0775994 C53.1635158,37.1753612 53.180505,37.2594762 53.2162036,37.4374147 C53.3294501,38.0011556 53.4520769,38.4781282 53.6083614,38.8752234 C53.6324454,38.917194 53.6518668,38.9632777 53.665591,39.0135247 C54.2995919,40.4699383 55.4755568,40.7539186 58.5799739,40.2589969 C60.6626997,39.9269583 60.9517264,39.6218208 60.7165107,38.0220132 C60.5298167,36.7522229 57.7447873,27.180942 57.2324873,25.2682276 C56.6341558,23.0343071 56.3215982,20.7772086 55.9384349,16.5545794 C55.9724289,16.9292087 55.6462553,13.2663096 55.5443504,12.1947865 C55.3742935,10.4066504 55.2030283,8.81098998 55.001427,7.18979126 L56.1208057,7 C56.3243953,8.63718737 56.4971937,10.2471328 56.6685575,12.0490119 C56.7709771,13.1259469 57.0976344,16.7942777 57.0632563,16.4154155 C57.4389176,20.5553686 57.7424738,22.7474649 58.3120401,24.8739881 C58.6492299,26.1329141 60.1545837,31.3359799 61.0875143,34.790885 C61.6327104,34.8318237 62.0958562,34.8232887 62.6347159,34.7825016 C63.8205193,34.6927463 64.1108017,34.7670162 64.4971779,35.5948522 C64.6282635,35.8757117 64.7446792,36.2278818 64.9422243,36.9081545 C65.1887119,37.7569672 64.6394539,39.2963168 63.4296024,39.6843366 C63.0218151,39.8151209 62.5263292,39.8531438 61.9270649,39.8261965 C61.8802986,39.8240935 61.8266641,39.8209103 61.7661615,39.8166467 Z M61.9056724,38.5177918 C61.9291791,38.509308 61.950819,38.5055106 61.9705923,38.5063998 C62.4641365,38.5285931 62.8563674,38.4984939 63.1300205,38.4107287 C63.6614144,38.2403017 63.9223394,37.5090336 63.8710134,37.3322858 C63.6946953,36.7251108 63.5931709,36.4179885 63.5039801,36.2268913 C63.4103989,36.0263876 63.4735828,36.0425535 62.7078842,36.1005104 C62.2670207,36.13388 61.8685782,36.14729 61.4432662,36.1326391 C61.6491168,36.9284487 61.7911205,37.5251253 61.8313188,37.7985321 C61.8690424,38.0551074 61.89406,38.2944308 61.9056724,38.5177918 Z M52.7286004,39.7600582 C52.606468,39.6634121 52.5155054,39.5034834 52.5287061,39.2771749 C52.5908025,39.447179 52.657212,39.6080964 52.7286004,39.7600582 Z M52.3160667,38.6016124 C52.2428354,38.3322644 52.1764104,38.0448588 52.1149759,37.7390378 C52.0794109,37.5617792 52.0631639,37.481339 52.0437752,37.3875648 C51.9570982,36.9683479 51.8849733,36.6729349 51.797063,36.3971231 L51.9413768,36.3344073 C51.3624937,36.3756878 50.8628528,36.3659393 50.2921158,36.3227394 C49.5264172,36.2647825 49.5896011,36.2486166 49.4960199,36.4491203 C49.4068291,36.6402174 49.3053047,36.9473398 49.1289866,37.5545147 C49.0776606,37.7312625 49.3385856,38.4625307 49.8699795,38.6329577 C50.1436326,38.7207229 50.5358635,38.7508221 51.0294077,38.7286288 C51.3095724,38.7160305 51.5984211,38.6889466 51.9741165,38.643998 C52.108301,38.6271857 52.2204914,38.6132251 52.3160667,38.6016124 Z" id="nose" fill="#000000" fill-rule="nonzero" opacity="0.3"></path>
                    <path d="M53,90.5979697 C55.5524399,88.6078581 55.7139582,86.7852327 53.1832765,84" id="neck-line" stroke="#000000" opacity="0.3"></path>
                    <path d="M85.9310297,42.5982643 L85,41.6242092 C85.8398248,40.8214807 86.7528892,40.147463 88.5280454,38.9502525 C88.9369399,38.6748608 89.1480385,38.5325988 89.3404074,38.4021789 C89.6424303,38.1974172 89.892752,38.0255012 90.1270111,37.8613509 C90.7021618,37.4583305 91.1664662,37.1112182 91.5666079,36.7800878 C91.9477523,36.4646783 92.2625801,36.1355219 92.5398437,35.7733783 C92.8520048,35.365654 93.0303965,35.0647308 93.470424,34.2506903 C94.061091,33.1579705 94.4196793,32.6206108 95.0689703,32 L96,32.9740551 C95.4791618,33.4718872 95.1840663,33.9141001 94.655774,34.8914283 C94.1820859,35.7677401 93.9793831,36.1096728 93.6097237,36.5924976 C93.2715492,37.034199 92.8862983,37.4369837 92.4256605,37.8181766 C91.9939739,38.1754114 91.5024801,38.5428505 90.9002523,38.9648443 C90.6595818,39.1334872 90.4038407,39.3091252 90.0965367,39.5174673 C89.902353,39.6491175 89.6893788,39.7926436 89.2814616,40.0673755 C87.5692427,41.2221394 86.6974834,41.865666 85.9310297,42.5982643 Z" id="cheekbone-r" fill="#000000" fill-rule="nonzero" opacity="0.100000001"></path>
                    <path d="M12.9310297,43.5982643 L12,42.6242092 C12.8398248,41.8214807 13.7528892,41.147463 15.5280454,39.9502525 C15.9369399,39.6748608 16.1480385,39.5325988 16.3404074,39.4021789 C16.6424303,39.1974172 16.892752,39.0255012 17.1270111,38.8613509 C17.7021618,38.4583305 18.1664662,38.1112182 18.5666079,37.7800878 C18.9477523,37.4646783 19.2625801,37.1355219 19.5398437,36.7733783 C19.8520048,36.365654 20.0303965,36.0647308 20.470424,35.2506903 C21.061091,34.1579705 21.4196793,33.6206108 22.0689703,33 L23,33.9740551 C22.4791618,34.4718872 22.1840663,34.9141001 21.655774,35.8914283 C21.1820859,36.7677401 20.9793831,37.1096728 20.6097237,37.5924976 C20.2715492,38.034199 19.8862983,38.4369837 19.4256605,38.8181766 C18.9939739,39.1754114 18.5024801,39.5428505 17.9002523,39.9648443 C17.6595818,40.1334872 17.4038407,40.3091252 17.0965367,40.5174673 C16.902353,40.6491175 16.6893788,40.7926436 16.2814616,41.0673755 C14.5692427,42.2221394 13.6974834,42.865666 12.9310297,43.5982643 Z" id="cheekbone-l" fill="#000000" fill-rule="nonzero" opacity="0.100000001" transform="translate(17.500000, 38.299132) scale(-1, 1) translate(-17.500000, -38.299132) "></path>
                    <g id="eye-l" transform="translate(37.458361, 9.772364) rotate(-5.000000) translate(-37.458361, -9.772364) translate(25.958361, 1.772364)">
                        <path d="M13.1142716,14.8970681 C15.9465528,14.8970681 18.5591686,14.561226 20.9521188,13.8895417 C17.4896273,10.7007841 14.3422409,9.10640528 11.5099596,9.10640528 C8.67767837,9.10640528 6.20782417,9.74410291 4.10039701,11.0194982 C7.27736548,13.6045448 10.2819903,14.8970681 13.1142716,14.8970681 Z" id="eye-white" fill="#FFFFFF" opacity="0.800000012"></path>
                        <path d="M12.8672808,14.3857797 C14.8976816,14.3857797 16.5436467,12.6615201 16.5436467,10.5345381 C16.5436467,10.2443832 15.0350745,9.77756838 12.01793,9.13409366 C10.1332532,8.64973528 9.19091484,9.11655009 9.19091484,10.5345381 C9.19091484,12.6615201 10.8368799,14.3857797 12.8672808,14.3857797 Z" id="iris" fill="#AAAAAA" opacity="0.700000048"></path>
                        <path d="M8.98585527,9.47176823 C7.53533395,9.74558386 6.01474185,10.2467203 4.25972634,10.9735094 C8.25176825,14.7297374 13.8536689,15.819474 20.6874423,13.6408538 C19.5808753,12.5627882 18.6531268,11.8209725 17.9094777,11.4168707 C17.5661474,11.2303036 17.0869687,11.0202146 16.4727132,10.7870377 C16.5786859,11.3471269 16.5196576,11.9274918 16.292402,12.3849991 C15.6200891,13.7384886 14.4122704,14.6330287 13.101794,14.6693692 C10.2608678,14.7481502 7.91428724,12.1855009 8.98585527,9.47176823 Z M9.3519759,9.40725656 L9.60011312,9.5232481 C8.535935,11.8606657 10.5684876,14.1471774 13.0858048,14.0773703 C14.1651524,14.0474391 15.1889504,13.2891892 15.7703397,12.1187457 C15.9835294,11.6895555 15.9960125,11.0786374 15.8011528,10.54184 C15.3984232,10.3998798 14.9517986,10.2504502 14.4614223,10.093632 C14.3498293,10.1596958 14.27445,10.1923144 14.1519259,10.2220037 L14.0779019,9.9982874 L14.1122837,9.9830516 C13.4921929,9.78848189 12.8076525,9.58304742 12.058919,9.36689254 C12.0737076,9.43276846 12.0923314,9.51494207 12.1022546,9.55546088 L11.8753522,9.61251497 C11.8567135,9.53640795 11.8101874,9.32636555 11.8096757,9.3241695 C11.8011581,9.28761029 11.7929657,9.25546658 11.7846088,9.22664033 C10.9717475,9.21305252 10.170951,9.27336024 9.3519759,9.40725656 Z M4.02332459,11.0721705 C3.9829453,11.0891501 3.94244107,11.1062464 3.90180998,11.1234592 L3.67636593,10.5770695 C10.4116167,7.72377585 13.8194613,8.00213749 22.0581956,11.4563066 L21.8347385,12.0035337 C19.0670368,10.8431479 16.8650897,10.0479452 14.9036416,9.61462439 C16.4385279,10.1132878 17.5310138,10.5392046 18.1857004,10.8949638 C19.1953866,11.4436313 20.4784644,12.5372779 22.0457721,14.1789078 L21.6257061,14.5906761 C21.4670338,14.4244794 21.3114472,14.2641252 21.1589586,14.1096169 C13.9527318,16.4922503 7.99645584,15.3542803 3.78205882,11.3316975 L4.02332459,11.0721705 Z M14.720634,11.3393683 L15.1896376,11.4479626 L15.1559915,11.6816235 C14.9939558,11.6709168 14.8835524,11.6429292 14.6579548,11.5678496 L14.1889512,11.4592554 L14.2225972,11.2255944 C14.384633,11.2363011 14.4950364,11.2642887 14.720634,11.3393683 Z M13.7783224,13.1505256 L13.5616457,13.2394766 L13.1594009,12.2334534 L13.3760776,12.1445024 L13.7783224,13.1505256 Z M14.2793005,10.7759423 L14.2945133,10.5395562 L15.3787478,10.6111981 L15.363535,10.8475843 L14.2793005,10.7759423 Z M9.85467894,10.7562065 L9.86989176,10.5198203 C10.0154019,10.529435 10.131578,10.5284619 10.3937789,10.5196346 C10.6635821,10.5105514 10.7849759,10.5095345 10.940642,10.5198203 L10.9254292,10.7562065 C10.7799191,10.7465917 10.663743,10.7475649 10.4015421,10.7563922 C10.1317389,10.7654754 10.0103451,10.7664923 9.85467894,10.7562065 Z M10.3152211,11.9659156 L10.2392381,11.7418882 C10.2628634,11.7336105 10.2628634,11.7336105 10.2858517,11.7253552 C10.4097481,11.6805861 10.5181517,11.634694 10.6324427,11.579306 C10.7505315,11.5220776 10.7462771,11.5243645 11.1286503,11.3155876 L11.2395492,11.5241272 C10.8518273,11.7358244 10.8565403,11.733291 10.7333121,11.7930101 C10.611836,11.8518801 10.4959846,11.9009252 10.3643774,11.9484805 C10.3400989,11.9571992 10.3400989,11.9571992 10.3152211,11.9659156 Z M12.5909909,13.3314099 L12.3669003,13.2639032 C12.4250392,13.0657505 12.4527232,12.9421769 12.4663811,12.8206899 C12.4782153,12.7154245 12.480174,12.6350944 12.4800787,12.3743946 C12.480071,12.3530177 12.480071,12.3530177 12.4800684,12.3308882 L12.7138527,12.3308882 C12.7138553,12.3529467 12.7138553,12.3529467 12.713863,12.3743069 C12.7139618,12.6446661 12.7118833,12.7299076 12.6986631,12.8475018 C12.6832218,12.9848519 12.6527037,13.1210763 12.5909909,13.3314099 Z M14.7314991,12.3664895 L14.5784554,12.5455637 L13.8177005,11.8780142 L13.9707442,11.69894 L14.7314991,12.3664895 Z M11.2383053,12.8279186 L11.0558377,12.6798252 L11.5922117,12.0012873 L11.7746793,12.1493807 L11.2383053,12.8279186 Z M10.4502973,9.53795512 L10.5643391,9.33116331 L11.4063564,9.80793272 L11.2923145,10.0147245 L10.4502973,9.53795512 Z M12.5584956,11.7988872 C11.7515238,11.7988872 11.2587983,11.4436151 11.2587983,10.7894663 C11.2587983,10.1353175 11.9944545,9.75647796 12.8014264,9.75647796 C13.6083982,9.75647796 13.858193,10.1353175 13.858193,10.7894663 C13.858193,11.4436151 13.3654675,11.7988872 12.5584956,11.7988872 Z" id="eye" fill="#000000" fill-rule="nonzero" opacity="0.5"></path>
                        <path d="M0.225295417,1.62607616 L0,0.487044664 C5.30713031,-0.494304 8.64647826,0.0134959564 12.6510556,1.95469048 C13.3823134,2.30916321 16.3518611,3.87624515 17.1610053,4.27381374 C19.1003042,5.22667772 20.9060784,5.95382672 22.9772871,6.56292515 L22.6282751,7.67241586 C20.485002,7.04212481 18.6157239,6.28940406 16.6176382,5.30765555 C15.7864462,4.89925388 12.8207318,3.33419483 12.1135139,2.99137529 C8.33822496,1.16132692 5.26554138,0.69407744 0.225295417,1.62607616 Z" id="eye-brow" fill="#000000" fill-rule="nonzero" opacity="0.300000012"></path>
                        <path d="M6.4711015,9.58981188 L6.44394118,9.62975835 C5.84240868,9.44203011 5.43152497,9.26083646 5.21129006,9.08617738 C4.99105515,8.91151831 4.91231605,8.85844003 4.97507275,8.92694255 C5.17985598,8.86935519 5.39775347,8.93216437 5.62876521,9.11537009 C5.79898993,9.25036818 6.01860903,9.33885583 6.2876225,9.38083303 L5.54676213,8.53700811 C5.66495052,8.43783407 5.81256112,8.50112376 5.98959392,8.72687716 C6.16662673,8.95263057 6.41279197,9.2047761 6.72808965,9.48331376 L6.53370357,9.66111436 L6.4711015,9.58981188 Z M5.24444419,10.0848677 L5.12796862,10.3295361 C4.52018902,10.13991 4.08001221,9.96942061 3.80743819,9.81806794 C3.53486417,9.66671527 3.40649807,9.60277065 3.42233988,9.62623409 C3.69689764,9.57171123 3.96686016,9.61812528 4.23222744,9.76547624 C4.49759471,9.91282721 4.8350003,10.019291 5.24444419,10.0848677 Z M7.25024601,9.325438 L7.04963454,9.49498107 L6.11028857,8.40735083 C6.21584356,8.31642047 6.34989667,8.38312733 6.5124479,8.60747141 C6.67499912,8.83181548 6.92093183,9.07113768 7.25024601,9.325438 Z M8.588985,8.86777797 L8.39255899,9.04294407 C8.1486024,8.8660854 7.94912161,8.67628517 7.79411661,8.47354338 C7.6391116,8.27080159 7.55750595,8.18856654 7.54929964,8.22683823 C7.64204046,8.09587395 7.73508082,8.10396245 7.82842073,8.25110374 C7.94906729,8.44129134 7.92159116,8.17187077 8.01233655,8.29056297 C8.20839161,8.54699697 8.40060776,8.73940197 8.588985,8.86777797 Z M9.94156552,8.95689912 L9.74776199,9.13543993 C9.4813266,8.96134297 9.26556295,8.76978189 9.10047102,8.56075669 C8.9353791,8.3517315 8.84253378,8.23352042 8.82193508,8.20612347 C8.96813386,8.1655316 9.12773808,8.25476065 9.30074774,8.47381061 C9.47375741,8.69286057 9.68736334,8.85389007 9.94156552,8.95689912 Z M11.0790247,8.94068131 L10.8899655,9.12505999 C10.5034902,8.85349653 10.2355432,8.62836154 10.0861247,8.44965502 C9.93670609,8.27094849 9.90207501,8.19747 9.98223143,8.22921954 C10.1086466,8.16319949 10.2050516,8.18928737 10.2714463,8.30748317 C10.3567279,8.45930117 10.2353907,8.28286986 10.31311,8.37582309 C10.4815901,8.5773275 10.736895,8.76561357 11.0790247,8.94068131 Z M12.0869155,9.06833563 L11.8771527,9.22442692 C11.3889236,8.9060733 11.0755803,8.63838283 10.937123,8.42135552 C10.7986656,8.20432821 10.7029533,8.09324619 10.6499861,8.08810947 C10.812188,7.96555481 10.9158226,7.97311673 10.9608898,8.11079521 C11.0251866,8.30721923 11.1411761,8.18963387 11.2153423,8.30588684 C11.3674858,8.54436671 11.6580102,8.7985163 12.0869155,9.06833563 Z M12.6427594,9.21233941 L12.3939742,9.27144341 C12.1745084,8.87727881 12.0451295,8.58374022 12.0058374,8.39082762 C11.9665454,8.19791502 11.9498621,8.09732848 11.9557875,8.08906801 C12.0920162,8.05712224 12.1561317,8.09172296 12.148134,8.19287017 C12.134216,8.3688913 12.2206971,8.4108435 12.2422344,8.51658573 C12.2823358,8.7134721 12.4158441,8.94539 12.6427594,9.21233941 Z M13.1457465,9.35156706 L12.8910137,9.35198308 C12.7468081,9.08590223 12.674606,8.88193261 12.6744074,8.74007421 C12.6742087,8.59821582 12.7299121,8.48816812 12.8415175,8.40993112 L13.1441296,8.19671394 C13.0017249,8.45548183 12.9306038,8.64283717 12.9307661,8.75877997 C12.9309284,8.87472277 13.0025886,9.07231847 13.1457465,9.35156706 Z M13.7580764,9.34678702 L13.5033432,9.34682254 C13.3754415,9.0955955 13.3114834,8.90884091 13.3114688,8.78655874 C13.3114542,8.66427658 13.3930169,8.57125561 13.556157,8.50749582 L13.757952,8.30638485 C13.6776742,8.52872323 13.637542,8.6967124 13.6375556,8.81035236 C13.6375692,8.92399232 13.6777428,9.10280387 13.7580764,9.34678702 Z M4.30836856,12.1756316 L4.48002601,12.4587966 C4.31844076,12.4884193 4.22173104,12.5112621 4.18989686,12.527325 C3.96048179,12.6430831 3.78506453,12.7092119 3.66364508,12.7257114 C3.51695295,12.745645 3.39224369,12.7039552 3.28951731,12.6006419 C3.38916142,12.523273 3.51999453,12.4735801 3.68201661,12.4515633 C3.8440387,12.4295464 4.05282269,12.3375692 4.30836856,12.1756316 Z M4.60081458,12.4676102 L4.72853564,12.7056429 C4.56146486,12.8876184 4.41764142,13.0163377 4.29706531,13.0918011 C4.17648921,13.1672644 4.05987441,13.2221645 3.94722091,13.2565014 C3.98910209,13.1282905 4.07560132,13.0231547 4.20671862,12.9410942 C4.33783592,12.8590336 4.46920124,12.7012056 4.60081458,12.4676102 Z M5.10892236,12.6191949 L5.25826643,12.8420663 C5.10094021,13.0721661 4.96465343,13.2322544 4.8494061,13.3223312 C4.73415876,13.4124081 4.62981666,13.448009 4.53637979,13.429134 L4.11225404,13.3981868 C4.41070348,13.3047602 4.61729298,13.2132108 4.73202255,13.1235386 C4.84675211,13.0338665 4.97238538,12.8657519 5.10892236,12.6191949 Z M5.3738075,13.1612364 L5.58492375,13.3151846 C5.45768949,13.6587128 5.35841035,13.8875198 5.28708634,14.0016056 C5.18010031,14.1727342 5.01038851,14.1031395 5.1721618,13.8443762 C5.28001067,13.6718674 5.3472259,13.4441541 5.3738075,13.1612364 Z M5.81381833,13.2851302 L6.0307574,13.4293273 C5.90311621,13.8603271 5.79816945,14.1479956 5.71591712,14.2923328 C5.59253864,14.5088385 5.3880475,14.3626379 5.53161322,14.1107074 C5.62732369,13.9427537 5.72139207,13.6675613 5.81381833,13.2851302 Z M6.77249675,13.6305516 L6.9547887,13.7343804 C6.86788175,14.0764176 6.78927429,14.3080761 6.71896632,14.4293559 C6.64865834,14.5506357 6.59037891,14.6267982 6.544128,14.6578435 C6.44943924,14.5826691 6.43967119,14.4802635 6.51482386,14.3506267 C6.58997654,14.2209899 6.6758675,13.9809649 6.77249675,13.6305516 Z M7.06079321,13.8723539 L7.30669722,13.8902968 C7.31351758,14.2341885 7.29838323,14.4575412 7.26129418,14.5603549 C7.22420513,14.6631686 7.19305684,14.7108352 7.16784932,14.7033546 L6.75314571,14.8214112 C6.90423981,14.6617934 6.99543948,14.5385942 7.02674474,14.4518136 C7.05805001,14.365033 7.0693995,14.1718798 7.06079321,13.8723539 Z M7.87170468,14.1239066 L8.05035587,14.1494476 C8.03466574,14.5015449 8.019449,14.7359584 8.00470565,14.8526881 C7.9899623,14.9694178 7.9836366,15.0564699 7.98572855,15.1138446 C7.86174414,15.0576148 7.8077518,14.9661614 7.82375153,14.8394844 C7.83975125,14.7128074 7.85573564,14.4742815 7.87170468,14.1239066 Z M8.92132478,14.3852506 L9.14532272,14.5162558 C9.14032131,14.7368382 9.11391141,14.894813 9.06609303,14.9901803 C8.99436547,15.1332311 8.80357433,15.0807446 8.88569249,14.9169711 C8.94043794,14.8077888 8.95231537,14.6305486 8.92132478,14.3852506 Z M9.8211417,14.7471396 L10.075654,14.7585926 C10.0785852,14.9895299 10.0780743,15.1562282 10.0741214,15.2586876 C10.068192,15.4123768 9.84770367,15.4148702 9.85625577,15.1931997 C9.86195717,15.0454193 9.85025248,14.8967326 9.8211417,14.7471396 Z M5.99285179,9.88859109 L5.865919,10.1271151 C5.3052513,9.92563351 4.9070262,9.75171617 4.67124371,9.60536305 C4.43546122,9.45900993 4.32620814,9.38131343 4.34348448,9.37227355 C4.48396505,9.33574326 4.66033232,9.38335246 4.87258629,9.51510113 C5.08484025,9.6468498 5.45826208,9.77134645 5.99285179,9.88859109 Z M5.03724971,10.5192472 L4.9642577,10.7828232 C4.29451578,10.8005519 3.82647292,10.7664001 3.56012914,10.680368 C3.29378536,10.5943359 3.15969378,10.4550056 3.15785441,10.2623773 C3.48361325,10.3362613 3.77157371,10.4136059 4.02173579,10.4944112 C4.27189787,10.5752164 4.61040251,10.5834951 5.03724971,10.5192472 Z M7.93341903,9.28480326 L7.72619922,9.44480731 C7.30766268,9.10733397 7.03153186,8.83759485 6.89780674,8.63558993 C6.76408162,8.433585 6.70566311,8.33065774 6.72255122,8.32680815 C6.93784156,8.35259463 7.12654077,8.48792797 7.28864886,8.73280815 C7.45075694,8.97768833 7.66568034,9.1616867 7.93341903,9.28480326 Z" id="eye-lashes" fill="#000000" fill-rule="nonzero" opacity="0.300000012" transform="translate(8.457965, 11.684618) rotate(1.000000) translate(-8.457965, -11.684618) "></path>
                    </g>
                    <g id="eye-r" transform="translate(72.951470, 9.500076) scale(-1, 1) rotate(-1.000000) translate(-72.951470, -9.500076) translate(61.451470, 2.000076)">
                        <path d="M13.0614394,14.2188431 C15.8823105,14.2188431 18.484401,13.898291 20.8677109,13.2571868 C17.4191684,10.2136051 14.2844616,8.69181421 11.4635905,8.69181421 C8.64271943,8.69181421 6.1828153,9.30047911 4.08387813,10.5178089 C7.24804785,12.985165 10.2405683,14.2188431 13.0614394,14.2188431 Z" id="eye-white" fill="#FFFFFF" opacity="0.800000012"></path>
                        <path d="M12.8154436,13.7308324 C14.8376647,13.7308324 16.4769989,12.0850739 16.4769989,10.0549278 C16.4769989,9.77798293 14.9745041,9.33242099 11.9695145,8.718242 C10.0924303,8.2559352 9.15388827,8.70149715 9.15388827,10.0549278 C9.15388827,12.0850739 10.7932224,13.7308324 12.8154436,13.7308324 Z" id="iris" fill="#AAAAAA" opacity="0.700000048"></path>
                        <path d="M8.94965481,9.04054312 C7.50497706,9.30189264 5.99051083,9.78021359 4.24256558,10.4739139 C8.21852514,14.0591306 13.797858,15.0992543 20.6041008,13.019821 C19.5019917,11.9908369 18.5779807,11.2827942 17.8373275,10.8970901 C17.4953803,10.719017 17.0181321,10.5184928 16.4063511,10.2959318 C16.511897,10.8305215 16.4531064,11.384464 16.2267663,11.8211422 C15.5571619,13.1130107 14.3542091,13.9668248 13.049012,14.0015108 C10.2195309,14.0767051 7.8824037,11.6307266 8.94965481,9.04054312 Z M9.31430048,8.9789685 L9.56143805,9.08967925 C8.50154709,11.3206803 10.5259113,13.503093 13.0330873,13.436464 C14.1080866,13.4078956 15.1277601,12.6841668 15.7068072,11.5670105 C15.9191381,11.1573603 15.9315709,10.5742557 15.7374962,10.0618973 C15.336389,9.92640017 14.8915637,9.78377375 14.4031629,9.63409502 C14.2920195,9.6971511 14.2169439,9.72828469 14.0949134,9.75662233 L14.0211876,9.54309123 L14.0554309,9.52854909 C13.4378381,9.34283763 12.7560555,9.14675606 12.0103384,8.94044215 C12.0250674,9.00331891 12.0436162,9.08175137 12.0534994,9.12042547 L11.8275111,9.17488202 C11.8089475,9.10223996 11.7626088,8.90176025 11.7620992,8.89966418 C11.7536159,8.86476942 11.7454565,8.83408913 11.7371332,8.80657526 C10.9275467,8.79360607 10.1299763,8.85116814 9.31430048,8.9789685 Z M4.0071162,10.5680832 C3.96689958,10.5842898 3.92655853,10.6006077 3.88609113,10.6170368 L3.66155531,10.0955229 C10.3696724,7.37213231 13.7637882,7.63782086 21.9693318,10.9347306 L21.7467749,11.4570438 C18.9902232,10.3494875 16.7971469,9.59048825 14.8436007,9.17689541 C16.3723036,9.652856 17.4603883,10.0593819 18.1124374,10.3989443 C19.118056,10.9226323 20.3959647,11.966488 21.9569584,13.5333788 L21.5385847,13.9264004 C21.3805516,13.7677702 21.2255918,13.6147165 21.0737175,13.4672425 C13.8965218,15.7414008 7.96424127,14.6552396 3.7668224,10.8157946 L4.00711626,10.5680831 Z M14.6613303,10.8231162 L15.1284445,10.9267664 L15.094934,11.1497894 C14.9335511,11.1395702 14.8235924,11.1128567 14.5989037,11.0411954 L14.1317895,10.9375451 L14.1653,10.7145222 C14.3266829,10.7247414 14.4366416,10.7514548 14.6613303,10.8231162 Z M13.722815,12.5518161 L13.5070112,12.6367175 L13.1063869,11.6764959 L13.3221907,11.5915946 L13.722815,12.5518161 Z M14.2217748,10.2853416 L14.2369263,10.0597174 L15.3167929,10.1280977 L15.3016414,10.3537218 L14.2217748,10.2853416 Z M9.81497833,10.2665042 L9.83012986,10.0408801 C9.97505376,10.0500571 10.0907619,10.0491282 10.3519065,10.0407028 C10.6206227,10.0320332 10.7415275,10.0310626 10.8965665,10.0408801 L10.881415,10.2665042 C10.7364911,10.2573272 10.620783,10.2582561 10.3596384,10.2666815 C10.0909221,10.2753512 9.97001737,10.2763217 9.81497833,10.2665042 Z M10.2736652,11.4211384 L10.1979883,11.2073104 C10.2215184,11.1994096 10.2215184,11.1994096 10.244414,11.1915301 C10.3678113,11.1487992 10.4757782,11.1049964 10.5896088,11.0521302 C10.7072219,10.9975072 10.7029846,10.99969 11.0838174,10.8004182 L11.1942695,10.9994635 C10.8081095,11.2015227 10.8128036,11.1991046 10.6900718,11.2561049 C10.5690851,11.3122946 10.4537004,11.3591069 10.3226235,11.4044971 C10.2984427,11.4128188 10.2984427,11.4128188 10.2736652,11.4211384 Z M12.5402668,12.7244653 L12.317079,12.660032 C12.3749836,12.4709007 12.4025561,12.3529531 12.4161589,12.2369971 C12.4279455,12.1365241 12.4298963,12.0598513 12.4298014,11.8110205 C12.4297937,11.7906167 12.4297937,11.7906167 12.4297911,11.7694947 L12.6626336,11.7694947 C12.6626362,11.790549 12.6626362,11.790549 12.6626439,11.8109367 C12.6627423,12.0689872 12.6606722,12.1503479 12.6475052,12.2625882 C12.6321261,12.3936852 12.601731,12.5237076 12.5402668,12.7244653 Z M14.6721517,11.8034752 L14.5197246,11.9743966 L13.7620344,11.337239 L13.9144616,11.1663175 L14.6721517,11.8034752 Z M11.1930306,12.2438967 L11.0112981,12.1025456 L11.5455113,11.4548997 L11.7272438,11.5962508 L11.1930306,12.2438967 Z M10.4081972,9.10371669 L10.5217796,8.90633958 L11.3604047,9.36140291 L11.2468222,9.55878002 L10.4081972,9.10371669 Z M12.5079024,11.2617144 C11.7041815,11.2617144 11.213441,10.9226169 11.213441,10.2982498 C11.213441,9.67388267 11.9461336,9.31229076 12.7498545,9.31229076 C13.5535753,9.31229076 13.8023638,9.67388267 13.8023638,10.2982498 C13.8023638,10.9226169 13.3116233,11.2617144 12.5079024,11.2617144 Z" id="eye" fill="#000000" fill-rule="nonzero" opacity="0.5"></path>
                        <path d="M0.224387791,1.55204512 L2.27373675e-13,0.46487078 C5.28574998,-0.471799618 8.61164501,0.0128815204 12.6000895,1.86569848 C13.3284013,2.20403299 16.2859859,3.69976973 17.0918703,4.07923805 C19.0233566,4.9887206 20.8218561,5.68276439 22.8847207,6.26413215 L22.5371147,7.32311062 C20.402476,6.72151509 18.5407285,6.00306376 16.5506923,5.06601173 C15.7228488,4.67620352 12.7690821,3.18239756 12.0647134,2.85518571 C8.30463354,1.10845471 5.2443286,0.66247789 0.224387791,1.55204512 Z" id="eye-brow" fill="#000000" fill-rule="nonzero" opacity="0.300000012"></path>
                        <path d="M6.77386001,9.1236889 L6.74669969,9.16363537 C6.14516718,8.97590713 5.73428348,8.79471348 5.51404857,8.62005441 C5.29381366,8.44539534 5.21507456,8.39231706 5.27783126,8.46081957 C5.48261449,8.40323221 5.70051198,8.46604139 5.93152372,8.64924711 C6.10174844,8.7842452 6.32136754,8.87273285 6.59038101,8.91471005 L5.84952064,8.07088513 C5.96770903,7.97171109 6.11531963,8.03500078 6.29235243,8.26075419 C6.46938524,8.4865076 6.71555048,8.73865313 7.03084816,9.01719078 L6.83646208,9.19499138 L6.77386001,9.1236889 Z M5.5472027,9.61874476 L5.43072713,9.86341315 C4.82294753,9.67378703 4.38277072,9.50329763 4.1101967,9.35194496 C3.83762268,9.20059229 3.70925658,9.13664768 3.72509839,9.16011112 C3.99965615,9.10558825 4.26961867,9.1520023 4.53498595,9.29935327 C4.80035322,9.44670424 5.13775881,9.55316807 5.5472027,9.61874476 Z M7.55300452,8.85931503 L7.35239305,9.0288581 L6.41304708,7.94122785 C6.51860207,7.85029749 6.65265518,7.91700435 6.81520641,8.14134843 C6.97775763,8.3656925 7.22369034,8.6050147 7.55300452,8.85931503 Z M9.1946986,8.70642566 L8.93158609,8.7540116 C8.53011711,8.45902592 8.25188012,8.21016219 8.09687512,8.0074204 C7.94187011,7.80467861 7.86026446,7.72244356 7.85205815,7.76071525 C7.94479897,7.62975097 8.03783933,7.63783948 8.13117924,7.78498077 C8.2518258,7.97516836 8.22434967,7.7057478 8.31509506,7.82443999 C8.51115012,8.08087399 8.8043513,8.37486922 9.1946986,8.70642566 Z M10.244324,8.49077614 L10.0505205,8.66931696 C9.78408511,8.49521999 9.56832146,8.30365891 9.40322953,8.09463372 C9.23813761,7.88560852 9.14529229,7.76739745 9.12469359,7.74000049 C9.27089237,7.69940863 9.43049659,7.78863767 9.60350625,8.00768763 C9.77651592,8.22673759 9.99012185,8.38776709 10.244324,8.49077614 Z M11.3817832,8.47455833 L11.192724,8.65893701 C10.8062487,8.38737355 10.5383017,8.16223856 10.3888832,7.98353204 C10.2394646,7.80482552 10.2048335,7.73134702 10.2849899,7.76309656 C10.4114051,7.69707652 10.5078101,7.7231644 10.5742049,7.84136019 C10.6594864,7.99317819 10.5381492,7.81674688 10.6158685,7.90970012 C10.7843486,8.11120452 11.0396535,8.29949059 11.3817832,8.47455833 Z M12.389674,8.60221266 L12.1799112,8.75830395 C11.6916821,8.43995032 11.3783388,8.17225985 11.2398815,7.95523254 C11.1014241,7.73820523 11.0057118,7.62712321 10.9527446,7.62198649 C11.1149465,7.49943184 11.2185811,7.50699375 11.2636483,7.64467223 C11.3279451,7.84109626 11.4439346,7.72351089 11.5181008,7.83976387 C11.6702443,8.07824373 11.9607687,8.33239333 12.389674,8.60221266 Z M12.9455179,8.74621643 L12.6967327,8.80532043 C12.4772669,8.41115584 12.347888,8.11761724 12.308596,7.92470464 C12.2693039,7.73179204 12.2526206,7.6312055 12.258546,7.62294503 C12.3947747,7.59099926 12.4588902,7.62559998 12.4508925,7.72674719 C12.4369745,7.90276832 12.5234556,7.94472052 12.5449929,8.05046275 C12.5850943,8.24734913 12.7186026,8.47926702 12.9455179,8.74621643 Z M13.448505,8.88544409 L13.1937722,8.8858601 C13.0495666,8.61977925 12.9773645,8.41580963 12.9771659,8.27395124 C12.9769672,8.13209284 13.0326706,8.02204515 13.144276,7.94380814 L13.4468881,7.73059096 C13.3044834,7.98935885 13.2333623,8.17671419 13.2335246,8.29265699 C13.2336869,8.40859979 13.3053471,8.60619549 13.448505,8.88544409 Z M14.0608349,8.88066404 L13.8061018,8.88069957 C13.6782001,8.62947253 13.6142419,8.44271793 13.6142273,8.32043577 C13.6142127,8.19815361 13.6957754,8.10513263 13.8589155,8.04137284 L14.0607105,7.84026187 C13.9804327,8.06260025 13.9403005,8.23058942 13.9403141,8.34422938 C13.9403277,8.45786934 13.9805013,8.63668089 14.0608349,8.88066404 Z M4.61112707,11.7095087 L4.78278452,11.9926736 C4.62119927,12.0222963 4.52448955,12.0451391 4.49265537,12.061202 C4.2632403,12.1769602 4.08782303,12.243089 3.96640359,12.2595884 C3.81971146,12.279522 3.6950022,12.2378322 3.59227582,12.1345189 C3.69191993,12.05715 3.82275304,12.0074571 3.98477512,11.9854403 C4.14679721,11.9634235 4.3555812,11.8714463 4.61112707,11.7095087 Z M4.90357308,12.0014872 L5.03129415,12.2395199 C4.86422337,12.4214954 4.72039993,12.5502148 4.59982382,12.6256781 C4.47924772,12.7011414 4.36263292,12.7560415 4.24997942,12.7903784 C4.2918606,12.6621675 4.37835983,12.5570318 4.50947713,12.4749712 C4.64059443,12.3929106 4.77195975,12.2350826 4.90357308,12.0014872 Z M5.41168087,12.1530719 L5.56102494,12.3759433 C5.40369872,12.6060431 5.26741194,12.7661314 5.15216461,12.8562083 C5.03691727,12.9462851 4.93257517,12.981886 4.8391383,12.963011 L4.41501255,12.9320638 C4.71346199,12.8386372 4.92005149,12.7470878 5.03478106,12.6574156 C5.14951062,12.5677435 5.27514389,12.3996289 5.41168087,12.1530719 Z M5.67656601,12.6951134 L5.88768226,12.8490616 C5.760448,13.1925898 5.66116886,13.4213968 5.58984485,13.5354826 C5.48285882,13.7066113 5.31314702,13.6370165 5.47492031,13.3782533 C5.58276918,13.2057444 5.64998441,12.9780311 5.67656601,12.6951134 Z M6.11657684,12.8190072 L6.33351591,12.9632043 C6.20587472,13.3942041 6.10092796,13.6818726 6.01867563,13.8262098 C5.89529715,14.0427156 5.69080601,13.8965149 5.83437173,13.6445844 C5.9300822,13.4766308 6.02415058,13.2014384 6.11657684,12.8190072 Z M7.07525526,13.1644286 L7.25754721,13.2682574 C7.17064026,13.6102946 7.0920328,13.8419532 7.02172483,13.9632329 C6.95141685,14.0845127 6.89313742,14.1606753 6.84688651,14.1917205 C6.75219775,14.1165461 6.7424297,14.0141405 6.81758237,13.8845037 C6.89273505,13.7548669 6.97862601,13.5148419 7.07525526,13.1644286 Z M7.36355172,13.4062309 L7.60945573,13.4241738 C7.61627609,13.7680655 7.60114174,13.9914182 7.56405269,14.0942319 C7.52696364,14.1970457 7.49581535,14.2447122 7.47060783,14.2372316 L7.05590422,14.3552882 C7.20699832,14.1956704 7.29819799,14.0724713 7.32950325,13.9856907 C7.36080852,13.89891 7.372158,13.7057568 7.36355172,13.4062309 Z M8.17446319,13.6577836 L8.35311438,13.6833247 C8.33742425,14.0354219 8.32220751,14.2698354 8.30746416,14.3865651 C8.29272081,14.5032948 8.28639511,14.590347 8.28848706,14.6477216 C8.16450265,14.5914918 8.11051031,14.5000384 8.12651004,14.3733614 C8.14250976,14.2466844 8.15849415,14.0081585 8.17446319,13.6577836 Z M9.22408329,13.9191277 L9.44808123,14.0501328 C9.44307982,14.2707152 9.41666992,14.42869 9.36885154,14.5240573 C9.29712398,14.6671081 9.10633284,14.6146216 9.188451,14.4508482 C9.24319645,14.3416658 9.25507388,14.1644257 9.22408329,13.9191277 Z M10.1239002,14.2810166 L10.3784125,14.2924697 C10.3813437,14.5234069 10.3808328,14.6901052 10.3768799,14.7925647 C10.3709506,14.9462538 10.1504622,14.9487473 10.1590143,14.7270767 C10.1647157,14.5792963 10.153011,14.4306096 10.1239002,14.2810166 Z M6.2956103,9.42246812 L6.16867751,9.6609921 C5.60800981,9.45951053 5.20978471,9.28559319 4.97400222,9.13924007 C4.73821973,8.99288695 4.62896665,8.91519045 4.64624299,8.90615058 C4.78672356,8.86962029 4.96309083,8.91722948 5.17534479,9.04897815 C5.38759876,9.18072682 5.76102059,9.30522347 6.2956103,9.42246812 Z M5.34000822,10.0531242 L5.26701621,10.3167002 C4.59727429,10.3344289 4.12923143,10.3002772 3.86288765,10.214245 C3.59654387,10.1282129 3.46245229,9.98888267 3.46061292,9.79625435 C3.78637176,9.87013831 4.07433222,9.94748292 4.3244943,10.0282882 C4.57465638,10.1090934 4.91316102,10.1173721 5.34000822,10.0531242 Z M8.23617754,8.81868029 L8.02895773,8.97868433 C7.61042119,8.641211 7.33429037,8.37147187 7.20056525,8.16946695 C7.06684013,7.96746203 7.00842162,7.86453477 7.02530973,7.86068517 C7.24060007,7.88647166 7.42929928,8.02180499 7.59140736,8.26668517 C7.75351545,8.51156535 7.96843885,8.69556372 8.23617754,8.81868029 Z" id="eye-lashes" fill="#000000" fill-rule="nonzero" opacity="0.300000012" transform="translate(8.760724, 11.218495) rotate(-1.000000) translate(-8.760724, -11.218495) "></path>
                    </g>
                    <path d="M7.62868882,12.3868673 C7.36322535,12.068187 6.98111899,11.7300917 6.37471961,11.2576165 C6.64208618,11.4659348 3.86436218,9.36832115 2.21294486,8.0704466 C2.52572032,9.63900821 3.24226093,13.1363968 3.36735242,13.7626576 C3.59105572,14.8826107 3.78515568,15.8877218 3.96245874,16.8519593 C4.1731413,18.0055351 4.27975024,18.8228813 4.51762572,20.9024791 C4.85170378,23.8231165 5.0702179,25.1508392 5.54818787,26.6347953 C7.1779726,31.6947973 9.92425704,33.829005 12.5602326,32.8118448 L12.9202361,33.7447958 C9.63749667,35.0115267 6.38040275,32.4803559 4.59634338,26.9413766 C4.09135151,25.3735254 3.86568176,24.0023241 3.52410422,21.0161234 C3.2888299,18.9592659 3.18399851,18.1555478 2.98540046,17.0680211 C2.80265405,16.0740594 2.60949394,15.0738152 2.38672339,13.9585318 C2.24542943,13.2511546 1.33688182,8.81905043 1.12753253,7.73479384 C0.734508514,5.69925373 0.546386719,4.43527148 0.546386719,3.66259766 C0.546386719,2.54734174 1.28628308,2.19974167 2.2491915,2.6264645 C2.79795981,2.86965686 3.25699521,3.18845111 4.5672651,4.17351491 C4.61848075,4.2120135 4.61848075,4.2120135 4.66963747,4.25043135 C4.96198828,4.469909 5.16538968,4.62050678 5.36422884,4.7635303 C6.26256411,5.40969616 6.6388758,5.80002408 9.04556665,8.44141549 C9.60169279,9.05177507 10.0097824,9.48888892 10.4106345,9.89819631 C10.6526612,10.1446165 10.7031518,10.1880601 11.1541555,10.5591809 C11.2504642,10.6384311 11.323349,10.7000534 11.3958433,10.764335 C11.7753841,11.1008788 12.0809093,11.4653947 12.4271342,12.0272426 L11.5757955,12.551859 C11.2807025,12.0729871 11.0383832,11.7838809 10.7323893,11.5125521 C10.6706503,11.4578073 10.6063733,11.4034627 10.5187484,11.3313582 C10.0373144,10.9351971 9.97390041,10.8806338 9.73169864,10.63409 C9.71394059,10.6160042 9.71394059,10.6160042 9.69618686,10.5978852 C9.28522413,10.1782539 8.86991592,9.73340809 8.30638282,9.11491922 C5.97521759,6.55641868 5.59280911,6.15976689 4.78030241,5.57533689 C4.57472554,5.42746698 4.36661403,5.27338184 4.06926194,5.05014957 C4.01775877,5.01147152 4.01775877,5.01147152 3.96634357,4.97282293 C2.73724628,4.04878487 2.29066782,3.7386418 1.8440336,3.54071123 C1.48387774,3.38110443 1.54638672,3.35173799 1.54638672,3.66259766 C1.54638672,4.29164425 1.70037469,5.37790554 2.0197623,7.07522282 L2.1093979,6.84692383 C3.62507676,8.0579455 7.27252671,10.689438 6.98933376,10.4687886 C8.07959353,11.3182629 8.56620351,11.8271559 8.91166109,12.5446938 C9.11868779,12.9747017 10.608653,14.9294319 11.1541555,18.2576925 C11.4821126,20.258649 11.5896745,28.2099537 11.9202361,29.5078125 L11.4271342,28.3286133 C11.0900294,27.0050644 10.444327,21.1457298 10.0673828,19.0385742 C9.57915573,16.3093358 8.74116539,14.4277436 8.29405431,13.5302375 L7.23221197,20.9129782 L6.24239741,20.7706155 L7.45187007,12.3614358 L7.62868882,12.3868673 Z" id="ear" fill="#000000" fill-rule="nonzero" opacity="0.3"></path>
                </g>
                <g id="hair" transform="translate(65.000000, 9.000000)">
                    <path d="M104.445698,50.7335704 C106.572271,55.1841257 105.774101,107.45707 101.764618,131.969832 C101.144898,135.758616 94.2394845,132.071743 91.993966,129.208161 C89.5938874,126.147477 88.9573074,120.967083 90.0630508,117.047487 C90.628909,115.041655 90.6972929,112.344743 92.0292546,110.843459 C93.926246,108.705317 95.102312,104.624239 96.5483859,102.123023 C104.355684,88.6190517 102.011606,68.4936217 102.225673,53.5839383 C100.656396,49.5494072 98.1919165,42.0379293 97.1223876,41.4001318 C90.6217831,37.5235936 98.6025669,38.0102539 92.973332,28.3753765 C87.3440972,18.7404991 94.8945735,23.385201 77.4601742,23.8466267 C65.8372413,24.1542439 60.6679536,29.0994152 61.9523112,38.6821407 C61.785876,27.1806464 52.5368955,22.3892837 34.2053697,24.3080525 C26.7088955,25.0927118 25.8265999,35.0242459 21.3740605,41.4001318 C17.3094487,47.2205185 19.6685531,55.5303836 19.6754681,62.6294239 C19.6762467,63.4287787 18.9468948,60.1790757 17.3139587,58.6637566 C15.6810225,57.1484375 14.0755468,56.2701861 11.7654693,54.1303047 C9.19290143,51.7472722 6.7511636,50.4975812 6.78565071,50.9812688 C6.85078362,51.8947692 7.24126685,54.6961944 8.42388169,58.2327748 C9.31786455,60.9062085 10.9088786,63.9660767 11.7654693,67.1393778 C13.3973726,73.1848801 14.1655217,79.6611546 14.5966344,80.7105375 C15.4101299,82.6906887 17.4346816,83.2085724 18.5550748,82.9496306 C19.6754681,82.6906887 21.6636362,87.8903721 21.9713212,91.5761483 C22.1622433,93.8632155 21.9716282,98.5690702 21.3994759,105.693712 L21.9713212,121.386954 L22.8396789,128.791113 L21.3740605,139.7508 C14.1645734,141.956184 7.95899262,143.058876 2.75731804,143.058876 C-2.77391365,143.058876 10.4923729,111.250265 10.5598299,105.693712 C10.7528791,89.7919002 6.8213781,74.0962661 5.70126253,58.2327748 C3.0124642,20.1530179 10.5598299,1.12081137 52.4782107,1.12081137 C60.6153733,1.12081137 83.7252299,1.34044362 91.5161854,11.4982587 C100.843809,23.6595748 105.531186,38.4264973 104.445698,50.7335704 Z" fill="#201D1D"></path>
                    <path d="M62.4522589,38.6749061 L61.4567425,38.748561 C61.176785,36.6597687 61.1969342,34.7809392 61.5146994,33.1134717 C62.1093109,34.7581549 62.4224057,36.6119067 62.4522589,38.6749061 Z M77.4469456,23.3468018 C81.2104451,23.2471955 84.0493349,22.9535952 86.3538507,22.5135488 C87.1553187,22.3605087 89.3061258,21.8297505 89.6364096,21.8249409 C90.3914044,21.8139467 90.6029266,22.1035394 91.0920403,23.3563131 C91.7586334,25.0636671 92.287824,26.2109274 93.405048,28.1231439 C95.7285893,32.1000672 96.0174669,34.4578802 95.2449332,37.042351 C94.8863583,38.2419444 94.8753575,38.2886813 94.9181471,38.6258373 C94.9985617,39.2594568 95.6545396,39.9426481 97.3784773,40.9706925 C98.1023934,41.4023891 98.977867,43.3846643 100.58061,47.7031849 C100.680443,47.9721794 100.784476,48.2540183 100.8973,48.5609633 C101.059359,49.0018555 101.689137,50.7247736 101.839332,51.133291 C102.190285,52.0878561 102.455224,52.7948115 102.691664,53.4026857 C102.689941,56.0762554 102.711336,58.0453115 102.803605,63.1151978 C102.910819,69.0062939 102.930876,71.8827135 102.845278,75.3302653 C102.555658,86.9950103 100.909042,95.5795365 96.9812489,102.373282 C96.640656,102.962392 96.3018831,103.660523 95.8636167,104.650612 C95.7076551,105.002945 95.1668973,106.249843 95.1345024,106.323945 C94.0710434,108.756552 93.3437331,110.115274 92.40327,111.175291 C91.7628468,111.897126 91.4228037,112.891069 91.0620345,114.753015 C91.0334528,114.900527 91.0079309,115.034901 90.9544643,115.317754 C90.782399,116.226253 90.6845549,116.68596 90.5442687,117.183241 C89.4369267,121.108504 90.172215,126.0747 92.3874213,128.899627 C93.4672669,130.276693 95.6921208,131.852722 97.6693002,132.617287 C99.783795,133.434951 101.05686,133.199383 101.271175,131.889121 C104.927927,109.53285 106.327388,55.8313615 103.994554,50.949137 C105.03541,38.3565923 100.261003,23.7212812 91.1194444,11.8025555 C87.7240518,7.37565693 81.0763777,4.53356148 72.0429817,2.99324037 C65.801956,1.92905769 59.9010091,1.62081137 52.4782107,1.62081137 C32.0411115,1.62081137 19.5805145,6.13995758 12.7690739,15.6872754 C6.53157078,24.4301286 4.73545606,37.4558509 6.20002074,58.1975577 C6.57732352,63.5410594 7.1112083,67.8155317 8.48209576,77.3942506 C8.63089524,78.4339482 8.69486794,78.8815739 8.7760473,79.4520722 C10.4892322,91.4916975 11.1505482,98.2241154 11.0597931,105.699782 C11.0364398,107.623434 10.8705778,108.179477 6.46088594,122.047613 C6.22546104,122.788006 6.01138381,123.465464 5.80803017,124.114278 C3.97167159,129.97331 2.8431206,134.057611 2.27765591,137.18103 C1.62915397,140.763117 1.86052926,142.558876 2.75731804,142.558876 C7.83049804,142.558876 13.8863953,141.495671 20.9210659,139.366016 L22.3357808,128.786979 L21.4716528,121.405161 L20.9010804,105.653688 C21.4710196,98.5566051 21.6609254,93.8682613 21.4730543,91.6177432 C21.1871996,88.1934723 19.2731941,83.2968411 18.6676654,83.436789 C17.0175142,83.8181668 14.9393631,82.8605499 14.1341424,80.9005407 C13.9851123,80.5377824 12.4628732,71.9697641 11.626407,68.5981917 C11.5139232,68.1447996 11.3994472,67.7020062 11.2827471,67.2696823 C10.9121747,65.8968705 10.4281402,64.5809211 9.59826641,62.5724733 C9.53220965,62.4126037 9.48596153,62.301143 9.37380387,62.031327 C9.26187944,61.7622964 9.26187944,61.7622964 9.15074122,61.4948905 C8.97189957,61.064189 8.8411754,60.7462872 8.71649681,60.4374059 C8.39674935,59.6452569 8.15234122,58.9973614 7.94969129,58.3913418 C6.97436808,55.4746618 6.40282733,52.6424936 6.28691682,51.0168287 C6.23792299,50.3296818 6.7700576,50.2716839 7.34277142,50.4588789 C7.65424463,50.5606858 8.07075486,50.7649055 8.5528485,51.0506404 C9.62507196,51.686143 10.8991433,52.6462492 12.105252,53.7634973 C12.7893104,54.3971573 13.4438754,54.9508397 14.1704311,55.5218768 C14.595109,55.8556526 15.9793092,56.9028935 15.9561918,56.8851621 C16.5607145,57.3488395 17.0176701,57.7213891 17.4649452,58.1243427 C18.1456985,58.7534713 18.5818975,59.3619792 18.9832232,60.1001714 C19.0526054,59.4223639 18.9663212,58.3301838 18.8337539,56.7739302 C18.7795196,56.1372547 18.7524901,55.815654 18.7222125,55.4415501 C18.1525437,48.4028203 18.5512494,44.5690139 20.9641252,41.1138573 C22.014809,39.6093137 22.8600268,37.961219 24.0397644,35.2869778 C24.1967784,34.9310569 24.7698897,33.6193391 24.721199,33.7304998 C27.7241814,26.8746954 29.7939924,24.2670618 34.1533188,23.8107692 C49.5070411,22.2036884 58.6891978,25.2981917 61.5146994,33.1134717 C62.7034968,26.8752787 68.0577176,23.5953008 77.4469456,23.3468018 Z M102.258061,132.050543 C101.907076,134.196361 99.9274628,134.562669 97.3086323,133.549981 C95.1697769,132.722897 92.7962487,131.041551 91.6005107,129.516694 C89.1763387,126.425285 88.392156,121.128853 89.5818329,116.911732 C89.7116049,116.451721 89.8052411,116.011784 89.971931,115.131667 C90.0253943,114.848825 90.0513008,114.712426 90.0802933,114.562794 C90.4742376,112.529629 90.8567095,111.411667 91.6552392,110.511627 C92.5031079,109.555975 93.1963233,108.260947 94.2182335,105.923381 C94.2492985,105.852321 94.7914213,104.602276 94.9491985,104.245841 C95.4007872,103.225656 95.7530698,102.499685 96.1155228,101.872764 C99.9412389,95.2555765 101.559756,86.8175428 101.845586,75.3054443 C101.930716,71.8767664 101.910729,69.0104392 101.80377,63.1333941 C101.712496,58.118175 101.690401,56.1287598 101.724352,53.6741705 C101.494192,53.0800204 101.236396,52.3912792 100.900756,51.4783655 C100.750135,51.0686863 100.120339,49.3457199 99.9586979,48.9059655 C99.8462148,48.5999477 99.7425374,48.3190728 99.6430942,48.0511274 C98.229543,44.2423757 97.2703385,42.0705146 96.8662979,41.829571 C94.9006713,40.657399 94.0563579,39.7780591 93.9261046,38.7517406 C93.8566774,38.2046959 93.8674354,38.1589901 94.2868209,36.7559581 C94.9797479,34.4378073 94.7259429,32.3662561 92.541616,28.6276092 C91.3943824,26.6640286 90.8445509,25.4720201 90.1605198,23.7200018 C89.8265968,22.8647203 89.7959223,22.8227241 89.65097,22.8248349 C89.4549314,22.8276896 87.4525571,23.3218188 86.5414116,23.4958017 C84.1821923,23.9462938 81.2895651,24.2454516 77.4734027,24.3464517 C66.1265034,24.6467633 61.2064765,29.3534806 62.4478799,38.6157204 L61.4523635,38.6893753 C61.2912037,27.5524396 52.3356424,22.9130805 34.2574205,24.8053358 C30.3933429,25.2097905 28.5007871,27.5941107 25.6371812,34.1317188 C25.6865431,34.0190258 25.1125491,35.3327637 24.9546916,35.6905966 C23.7505984,38.4200475 22.881287,40.1151223 21.7839958,41.6864062 C19.5471504,44.8894933 19.1671747,48.5431983 19.7189534,55.3608804 C19.7490827,55.7331521 19.7760269,56.053738 19.8301454,56.689054 C20.0898063,59.7373041 20.1739075,61.0270093 20.1754679,62.6289369 C20.1756848,62.8516858 20.1625716,62.9459433 20.0210916,63.0947063 C19.8045359,63.3224096 19.5043541,63.2901438 19.3147088,63.1297109 C19.1184726,62.8625598 19.0733477,62.7564145 18.9363131,62.4144424 C18.6009643,61.5775732 18.4053054,61.1308002 18.1046657,60.5778081 C17.7508615,59.9270261 17.3746304,59.4021748 16.9738511,59.0302629 C16.3708207,58.4846073 15.9329479,58.1276156 15.3475867,57.6786353 C15.3771592,57.7013179 13.9857782,56.6486443 13.5524947,56.3081048 C12.8057354,55.7211888 12.1307935,55.15027 11.4256866,54.4971122 C10.2704038,53.4269455 9.05290831,52.5094733 8.04298027,51.910893 C7.77761299,51.7536108 7.53901394,51.6264332 7.34118322,51.5347967 C7.52957285,53.131804 8.06022178,55.5686373 8.89807209,58.0742079 C9.09332219,58.6580985 9.33102742,59.2882255 9.64380321,60.0631028 C9.7670086,60.3683344 9.8966059,60.6834957 10.0742874,61.1114033 C10.1851417,61.3781261 10.1851417,61.3781261 10.2971466,61.6473502 C10.4095639,61.9177904 10.4560792,62.0298952 10.5224795,62.1905962 C11.3674969,64.2356942 11.8637299,65.5848079 12.2481915,67.0090733 C12.3667083,67.4481273 12.4828892,67.8975153 12.5969832,68.3573977 C13.4565123,71.8219301 14.9583856,80.2753187 15.0591263,80.5205343 C15.6705742,82.0088759 17.252018,82.737609 18.4424843,82.4624721 C20.0371171,82.0939255 22.128044,87.4431777 22.4695881,91.5345535 C22.6635613,93.8581697 22.4722369,98.5815353 21.8991443,105.675505 L22.4679176,121.328713 L23.3362754,128.732872 L21.8271226,140.135079 C14.2668614,142.447765 8.01389995,143.558876 2.75731804,143.558876 C0.826668906,143.558876 0.527339769,141.235711 1.29365155,137.002886 C1.86871733,133.826434 3.00551162,129.712299 4.85380143,123.8152 C5.05759831,123.164972 5.2720835,122.486223 5.50790266,121.74459 C9.80673857,108.225088 10.0384942,107.448139 10.0598667,105.687643 C10.1498244,98.2776654 9.49236377,91.5844959 7.78602012,79.5929486 C7.70489145,79.0228066 7.64094357,78.5753545 7.49218246,77.5359251 C6.11790933,67.9335497 5.58205162,63.6432814 5.20250432,58.267992 C3.72287375,37.3129164 5.5462657,24.089375 11.955015,15.1064931 C18.9874625,5.24939893 31.7498211,0.62081137 52.4782107,0.62081137 C59.9531912,0.62081137 65.9009398,0.931502463 72.2110697,2.00746838 C81.4709031,3.58640024 88.3258099,6.51709438 91.9129264,11.1939618 C101.169151,23.2621881 106.021845,38.0825148 104.954795,50.6500573 C107.329546,56.5120901 105.919902,109.66316 102.258061,132.050543 Z" id="hair-outline" fill="#000000" fill-rule="nonzero" opacity="0.05"></path>
                </g>
                <g id="horns" transform="translate(60.000000, 0.000000)">
                    <path d="M8.78231298,31.1566791 C5.75560476,26.2259911 3.92065312,18.3586375 3.27745806,7.55461832 C5.1046337,12.7318933 7.27097464,17.0872458 9.77648091,20.6206761 C18.8984473,33.4850749 15.8606348,30.2485761 25.3725456,37.6717502 C30.6770208,41.8114067 36.9532025,41.2611527 43.5296576,41.3785887 C51.4172319,41.5194373 57.8654974,43.9577775 60.4653008,45.811354 C62.1218382,46.9924121 62.1048954,46.6126491 64.6831687,49.3627697 C66.7180805,51.5333124 65.8492368,53.3518112 66.3407691,56.9565221 C65.6804354,56.6781616 65.8025213,58.3921039 64.4985007,59.1780728 C63.19448,59.9640416 62.5510039,58.492439 61.8131186,57.9909705 C58.9528575,56.0471308 56.4191495,53.3206879 50.4540749,52.5206812 C33.1535517,50.2004195 19.5004468,48.6171577 8.78231298,31.1566791 Z M119.389326,31.7135378 C107.188736,52.4284773 105.296831,45.5220693 86.6243372,52.255447 C83.8215271,51.8742976 69.8614948,61.5003658 68.0782106,59.0633383 C66.8522417,57.3879351 68.2883289,49.0618428 69.8576903,47.7403529 C72.3206777,45.6663799 78.5437531,40.748258 86.5064915,39.9266963 C93.1456165,39.2416995 95.4364219,39.7660992 102.282216,37.9951935 C109.056958,36.2426677 108.433284,38.9292466 116.506444,25.3055188 C118.723877,21.5635257 118.788467,16.2900903 116.700215,9.48521262 C121.432817,19.3126118 122.329187,26.7220535 119.389326,31.7135378 Z" fill="#B05C5C" transform="translate(61.883796, 33.450642) rotate(-2.000000) translate(-61.883796, -33.450642) "></path>
                    <path d="M8.90288838,30.4293374 C13.855061,38.2476578 19.4814532,43.2452689 26.4615793,46.453229 C32.0255287,49.0103358 37.4036154,50.2531355 48.2964571,51.9266619 C48.6663011,51.983483 49.047315,52.0417729 49.5497779,52.1184619 C50.1810094,52.214759 50.1810094,52.214759 50.8168305,52.311812 C54.5553475,52.8828966 57.0652867,54.0528333 60.0212557,56.203699 C60.3650484,56.4538545 61.6044485,57.3814877 61.8876071,57.5878471 C62.1445539,57.775104 62.3765314,57.9397128 62.5998066,58.0924976 C62.6993914,58.1606425 62.7968171,58.2399907 62.8988984,58.3336649 C62.9740328,58.4026115 63.0500083,58.47763 63.1401938,58.570692 C63.1916709,58.6238111 63.2546866,58.6900428 63.3653545,58.8063989 C63.9816514,59.4506639 64.2228943,59.5563222 64.6456799,59.3082606 C64.9241922,59.1448487 65.1378343,58.9053222 65.3217934,58.5737507 C65.434195,58.3711559 65.7351902,57.6644116 65.7228189,57.6905582 C65.8321492,57.4594901 65.9641103,57.2715602 66.1257812,57.1496338 C66.0222653,56.4021748 65.9798,55.7614634 65.9253499,54.5492145 C65.8483359,52.8346191 65.7348348,52.1587988 65.293615,51.3497401 C65.0941747,50.9840292 64.8295271,50.6265034 64.4824016,50.2607947 C63.0418201,48.7430926 62.3871006,48.1459327 61.7123054,47.6858313 C61.6602974,47.6503702 61.6300689,47.6301703 61.545806,47.5744976 C61.4626364,47.5197992 61.0939118,47.2820745 60.9875177,47.2123223 C60.7358844,47.0473512 60.5035881,46.8888625 60.2448621,46.7035176 C57.0314916,44.4015384 50.2959557,42.3150857 43.4852739,42.0579974 C42.7982804,42.0320649 42.2699481,42.0171071 41.012232,41.9853319 C32.5129731,41.7706047 28.9133066,41.0700605 24.816962,37.8704842 C23.4523122,36.8045825 20.0487302,34.1941681 19.537113,33.7910244 C18.2058987,32.7420557 17.4133285,32.0377888 16.629323,31.1870759 C15.8582126,30.3503553 15.1029013,29.3823034 13.7961687,27.5793539 C13.6346858,27.3565497 10.1989659,22.5619737 8.66798326,20.455341 C6.68819688,17.731154 4.89595507,14.5444459 3.29014829,10.8951362 C4.31321305,19.6298477 6.1887429,26.1443375 8.90288838,30.4293374 Z M66.3570799,59.0084057 C66.0916723,59.4867813 65.7562242,59.8628716 65.2884849,60.137309 C64.1992511,60.7763966 63.4335093,60.441021 62.4817222,59.446041 C62.0780539,59.0240539 62.1647717,59.1135377 62.0646273,59.0216408 C61.9982234,58.9607057 61.940215,58.9134609 61.8890755,58.8784667 C61.6557341,58.7187936 61.4148154,58.5478402 61.149375,58.3543934 C60.8583781,58.1423216 59.6194266,57.2150242 59.283704,56.9707408 C56.4696492,54.9231367 54.1320647,53.8335383 50.6180076,53.2967415 C49.9825052,53.1997371 49.9825052,53.1997371 49.3511201,53.1034166 C48.8482689,53.0266683 48.4668684,52.9683193 48.0965255,52.9114215 C37.0908085,51.2205535 31.6260576,49.9577269 25.9245846,47.3374164 C18.7389658,44.035015 12.9530048,38.8956679 7.89605522,30.911929 C4.69630093,25.8602666 2.65645151,17.9172691 1.7557975,7.06907754 L1.41796875,3 L2.87540082,6.87767757 C4.814944,12.0380711 7.07055416,16.3858995 9.63964926,19.9209755 C11.1731147,22.0310245 14.6093339,26.8262974 14.7685863,27.046024 C16.0536902,28.8191316 16.7893337,29.761976 17.5262356,30.5615775 C18.2664993,31.3648269 19.0190731,32.0335534 20.3088634,33.049881 C20.813371,33.4474224 24.2143897,36.0558708 25.5849793,37.1264121 C29.4150651,40.1180187 32.8039052,40.7775333 41.045604,40.9857534 C42.3088763,41.0176689 42.8407513,41.0327271 43.5351099,41.0589376 C50.5861499,41.3250988 57.561644,43.4858829 60.9756345,45.9315813 C61.2208791,46.1072684 61.4403304,46.2569934 61.679394,46.4137238 C61.780623,46.4800897 62.1502849,46.7184187 62.2390738,46.7768128 C62.3300572,46.8369229 62.3638469,46.8595026 62.4214608,46.898786 C63.1752132,47.4127235 63.8799688,48.0555206 65.3688343,49.6240915 C65.7750716,50.0520764 66.0911739,50.4791151 66.3322241,50.9211254 C66.8612722,51.8912337 66.9911235,52.6644077 67.074029,54.5101712 C67.1378936,55.9320158 67.1840969,56.5394231 67.3340462,57.4763962 L67.4845737,58.4169824 L66.771673,58.1072398 C66.7078961,58.2589397 66.4724866,58.8003945 66.3570799,59.0084057 Z M86.1368461,52.2594556 C88.926691,51.2387832 91.4992575,50.4606101 94.1361883,49.8030902 C95.1705522,49.5451711 96.1763518,49.3143781 97.3769529,49.0543514 C97.7225713,48.9794972 99.659797,48.5674766 100.179186,48.4532618 C103.757723,47.6663344 105.66022,46.9930502 107.663818,45.6401981 C110.881805,43.4673766 114.084792,39.4699987 118.714677,31.7148232 C121.006994,27.875133 120.983754,22.5340101 118.611524,15.693018 C119.07648,19.7665665 118.515437,23.1356326 116.915919,25.7989325 C112.284654,33.5102866 110.49041,35.9765219 108.571746,37.1353217 C107.774303,37.6169467 107.026162,37.8524976 105.687058,38.1119464 C105.654338,38.118286 104.506444,38.3333942 104.12915,38.4094261 C103.465994,38.5430647 102.854967,38.6834189 102.208292,38.8558629 C99.0116866,39.7082782 96.6980754,40.1025963 93.9442081,40.3338321 C93.3899713,40.3803701 92.8492647,40.4191453 92.015522,40.4741773 C89.0612174,40.6691789 88.1664235,40.7385208 86.3059014,40.9468283 C80.0896896,41.6428071 74.8662233,44.5767992 69.8901886,48.7695012 C68.4532348,49.9802482 67.0473998,58.0584478 68.0774368,59.4749908 C68.5526466,60.1285159 71.4034427,59.0822669 76.765794,56.3219516 C76.9512854,56.2264683 77.1451742,56.1263874 77.3600929,56.0152239 C83.4433668,52.8687431 84.9179588,52.1750918 86.1368461,52.2594556 Z M119.734859,32.175712 C115.03393,40.0498892 111.752155,44.1455962 108.36868,46.4301566 C106.213811,47.8851486 104.179797,48.604976 100.46092,49.4227646 C99.9362396,49.5381428 97.996209,49.95076 97.654681,50.0247283 C96.4661432,50.2821424 95.4727707,50.5100838 94.4529434,50.7643782 C91.8155787,51.4220062 89.2451532,52.2018468 86.4459796,53.2313299 L86.1391614,53.2655583 C85.3125413,53.1606302 83.6500335,53.9252642 77.9475993,56.8747615 C77.7320291,56.9862619 77.5374615,57.0866932 77.3512183,57.1825635 C70.8873392,60.5098995 68.1896574,61.4999552 67.1059252,60.0095687 C65.7763876,58.181142 67.2727574,49.5827121 69.0904008,48.051204 C74.2300859,43.7206136 79.6333034,40.6856563 86.1591567,39.9550095 C88.0461397,39.7437393 88.9543092,39.6733609 91.9285466,39.4770436 C92.7550682,39.4224883 93.2891421,39.3841887 93.83376,39.3384584 C96.5120597,39.1135678 98.7498329,38.7321751 101.871378,37.8997757 C102.545416,37.7200351 103.181902,37.5738328 103.869717,37.4352248 C104.257407,37.3570979 105.412198,37.1406973 105.437148,37.1358632 C106.643229,36.9021873 107.267538,36.7056247 107.916144,36.3138914 C109.610293,35.2906905 111.376036,32.8636298 115.897035,25.3358761 C118.078348,21.7038496 118.195138,16.5534587 116.20861,9.88071175 L117.296429,9.56480015 C121.988367,19.4658772 122.823718,27.0017936 119.734859,32.175712 Z" id="horns-outline" fill="#000000" fill-rule="nonzero" opacity="0.3" transform="translate(61.490234, 31.842566) rotate(-2.000000) translate(-61.490234, -31.842566) "></path>
                </g>
            </g>
        </g>
    </g>
</svg>