<?xml version="1.0" encoding="UTF-8"?>
<svg width="480px" height="300px" viewBox="0 0 480 300" version="1.1" xmlns="http://www.w3.org/2000/svg" xmlns:xlink="http://www.w3.org/1999/xlink">
    <!-- Generator: Sketch 50.2 (55047) - http://www.bohemiancoding.com/sketch -->
    <title>Artboard</title>
    <desc>Created with Sketch.</desc>
    <defs>
        <path d="M0,174.581498 C3.42721519,174.581498 1.35840169,158.455839 3.42721519,154.063094 C3.65890254,153.571148 25.4523906,129.273642 28.3747363,121.635791 C29.224768,119.414146 35.3135828,114.725131 28.3747363,110.553093 C21.5627896,106.457355 17.0822126,107.030029 19.155327,102.50634 C21.2284415,97.9826519 29.0965437,93.0985581 28.3747363,90.186272 C27.9788433,88.5889572 29.3687133,85.9789962 27.4978903,81.5120192 C26.98238,80.2811318 25.2420495,78.0489447 22.2768987,74.8154579 C24.9395312,72.1748931 26.7884681,70.464066 27.8237094,69.6829766 C31.0701896,67.2335079 33.0225889,66.5541982 33.6809072,65.07774 C26.8412828,55.2033537 25.0725591,49.9741564 28.3747363,49.3901482 C29.5409565,49.1838958 40.3218283,50.5824266 48.1739188,46.647341 C55.0117676,43.220544 60.5668105,37.5627717 60.7829641,36.5536098 C61.9450837,31.1279917 86.5048445,8.9605845 96.0371835,4.35194963 C99.7799216,2.54243438 110.182083,-1.74990175 108.272943,1.94509867 C105.465243,7.37919595 104.902674,6.27253878 111.344409,4.49234927 C115.250037,3.41301928 120.602606,0.27699274 124.652426,0.149988992 C164.213732,-1.09066702 105.175494,5.68970457 122.748418,8.54889599 C126.626064,9.17980602 136.844432,5.85951365 147.67119,4.95314362 C156.710484,4.19641234 166.562442,5.90006943 169.832542,5.64563202 C175.111091,5.23492277 180.444891,5.14814492 185.715981,5.64563202 C189.076204,5.96277089 206.562857,9.2891661 209.656382,10.6398478 C210.268409,10.9070685 196.439795,9.8039857 195.822257,10.0581921 L193.131593,11.7028736 C185.54689,14.8250783 166.459204,13.3008826 170.193302,20.6082222 C174.682152,29.3925523 206.116242,15.9268383 200.827795,24.2535985 L219.697521,23.9828278 C217.94809,26.7373409 193.625842,27.9990532 195.446466,30.7069677 C197.864177,34.3029614 204.155244,31.3005247 208.313555,32.5121059 C212.019715,33.5919469 226.426688,30.3108401 246.72943,39.1209175 C267.032173,47.9309949 238.884688,40.6772117 232.583741,42.3246965 C226.33308,43.9590331 220.132698,45.5705868 221.280854,46.647341 L212.792985,48.4424507 C208.313555,48.6380073 211.870894,45.379381 214.867352,45.1631162 C221.506072,44.6839769 235.218654,49.0631121 241.598629,52.8650393 C259.41179,63.4801829 278.177621,83.7334067 285.526108,102.50634 C286.75883,105.655535 266.414531,91.3300843 268.861023,95.3208874 C273.289121,102.544153 254.439523,82.0642397 256.860759,90.186272 L244.980749,84.4248726 C247.330757,92.307971 273.038778,106.801592 281.678006,125.486753 C283.426284,129.267976 265.774494,119.439985 267.578323,125.486753 C268.370204,128.141285 295.797732,168.408928 290.120781,163.645369 C284.548042,158.969255 252.103818,137.265829 252.837289,144.616204 C253.057893,146.826956 273.670275,158.168612 285.526108,173.297844 C299.380677,190.977665 304.676521,212.495877 303.168249,210.383406 C296.473283,201.0065 241.569139,165.986972 241.598629,176.60225 C241.609928,180.669537 276.802743,201.05642 283.461762,206.833301 C290.120781,212.610183 262.424472,203.408744 272.699103,213.893836 C281.194635,222.563387 283.302354,220.730982 286.808808,228.555131 C288.451992,232.221661 293.420786,245.036617 301.71519,267 L268.861023,267 L232.143724,267 L195.696994,267 L110.061709,267 L61.905327,267 L19.155327,267 C24.9285116,255.186778 28.001648,248.270424 28.3747363,246.250939 C33.9165325,216.25382 67.2041953,239.400639 90.2374736,220.013756 C92.2422094,218.32639 101.706379,187.910909 99.2639768,188.862147 C95.0868013,190.489025 56.154272,201.91914 53.3673523,201.693671 C40.7989609,200.676859 41.1831175,198.949438 33.6809072,197.140712 C28.5016562,195.892033 22.3417352,202.272121 19.2755041,202.474631 C14.1582267,202.812602 10.5123801,196.119039 3.42721519,193.28975 L0,174.581498 Z" id="path-1"></path>
    </defs>
    <g id="Artboard" stroke="none" stroke-width="1" fill="none" fill-rule="evenodd">
        <rect id="Frame" fill="#E6E6E6" x="0" y="0" width="480" height="300"></rect>
        <g id="Avatars" transform="translate(87.000000, 29.000000)">
            <g id="Dragonborn" transform="translate(0.000000, 4.000000)">
                <g id="Male">
                    <mask id="mask-2" fill="white">
                        <use xlink:href="#path-1"></use>
                    </mask>
                    <use id="body" fill="{skin-color-a}" xlink:href="#path-1"></use>
                    <g id="scales" opacity="0.5" mask="url(#mask-2)" fill="{skin-color-b}">
                        <g transform="translate(-4.000000, -10.000000)" id="Polygon">
                            <polygon points="79 149 85.0621778 152.5 85.0621778 159.5 79 163 72.9378222 159.5 72.9378222 152.5"></polygon>
                            <polygon points="85 159 91.0621778 162.5 91.0621778 169.5 85 173 78.9378222 169.5 78.9378222 162.5"></polygon>
                            <polygon points="61 159 67.0621778 162.5 67.0621778 169.5 61 173 54.9378222 169.5 54.9378222 162.5"></polygon>
                            <polygon points="79 169 85.0621778 172.5 85.0621778 179.5 79 183 72.9378222 179.5 72.9378222 172.5"></polygon>
                            <polygon points="109 159 115.062178 162.5 115.062178 169.5 109 173 102.937822 169.5 102.937822 162.5"></polygon>
                            <polygon points="115 169 121.062178 172.5 121.062178 179.5 115 183 108.937822 179.5 108.937822 172.5"></polygon>
                            <polygon points="91 169 97.0621778 172.5 97.0621778 179.5 91 183 84.9378222 179.5 84.9378222 172.5"></polygon>
                            <polygon points="97 179 103.062178 182.5 103.062178 189.5 97 193 90.9378222 189.5 90.9378222 182.5"></polygon>
                            <polygon points="109 179 115.062178 182.5 115.062178 189.5 109 193 102.937822 189.5 102.937822 182.5"></polygon>
                            <polygon points="103 189 109.062178 192.5 109.062178 199.5 103 203 96.9378222 199.5 96.9378222 192.5"></polygon>
                            <polygon points="115 189 121.062178 192.5 121.062178 199.5 115 203 108.937822 199.5 108.937822 192.5"></polygon>
                            <polygon points="121 199 127.062178 202.5 127.062178 209.5 121 213 114.937822 209.5 114.937822 202.5"></polygon>
                            <polygon points="115 209 121.062178 212.5 121.062178 219.5 115 223 108.937822 219.5 108.937822 212.5"></polygon>
                            <polygon points="55 149 61.0621778 152.5 61.0621778 159.5 55 163 48.9378222 159.5 48.9378222 152.5"></polygon>
                            <polygon points="61 159 67.0621778 162.5 67.0621778 169.5 61 173 54.9378222 169.5 54.9378222 162.5"></polygon>
                            <polygon points="37 159 43.0621778 162.5 43.0621778 169.5 37 173 30.9378222 169.5 30.9378222 162.5"></polygon>
                            <polygon points="55 169 61.0621778 172.5 61.0621778 179.5 55 183 48.9378222 179.5 48.9378222 172.5"></polygon>
                            <polygon points="31 169 37.0621778 172.5 37.0621778 179.5 31 183 24.9378222 179.5 24.9378222 172.5"></polygon>
                            <polygon points="37 179 43.0621778 182.5 43.0621778 189.5 37 193 30.9378222 189.5 30.9378222 182.5"></polygon>
                            <polygon points="13 179 19.0621778 182.5 19.0621778 189.5 13 193 6.93782217 189.5 6.93782217 182.5"></polygon>
                            <polygon points="37 139 43.0621778 142.5 43.0621778 149.5 37 153 30.9378222 149.5 30.9378222 142.5"></polygon>
                            <polygon points="25 159 31.0621778 162.5 31.0621778 169.5 25 173 18.9378222 169.5 18.9378222 162.5"></polygon>
                            <polygon points="7 169 13.0621778 172.5 13.0621778 179.5 7 183 0.937822174 179.5 0.937822174 172.5"></polygon>
                            <polygon points="49 119 55.0621778 122.5 55.0621778 129.5 49 133 42.9378222 129.5 42.9378222 122.5"></polygon>
                            <polygon points="43 129 49.0621778 132.5 49.0621778 139.5 43 143 36.9378222 139.5 36.9378222 132.5"></polygon>
                            <polygon points="37 139 43.0621778 142.5 43.0621778 149.5 37 153 30.9378222 149.5 30.9378222 142.5"></polygon>
                            <polygon points="19 149 25.0621778 152.5 25.0621778 159.5 19 163 12.9378222 159.5 12.9378222 152.5"></polygon>
                            <polygon points="55 109 61.0621778 112.5 61.0621778 119.5 55 123 48.9378222 119.5 48.9378222 112.5"></polygon>
                            <polygon points="49 119 55.0621778 122.5 55.0621778 129.5 49 133 42.9378222 129.5 42.9378222 122.5"></polygon>
                            <polygon points="67 129 73.0621778 132.5 73.0621778 139.5 67 143 60.9378222 139.5 60.9378222 132.5"></polygon>
                            <polygon points="31 129 37.0621778 132.5 37.0621778 139.5 31 143 24.9378222 139.5 24.9378222 132.5"></polygon>
                            <polygon points="49 99 55.0621778 102.5 55.0621778 109.5 49 113 42.9378222 109.5 42.9378222 102.5"></polygon>
                            <polygon points="43 89 49.0621778 92.5 49.0621778 99.5 43 103 36.9378222 99.5 36.9378222 92.5"></polygon>
                            <polygon points="37 99 43.0621778 102.5 43.0621778 109.5 37 113 30.9378222 109.5 30.9378222 102.5"></polygon>
                            <polygon points="109 59 115.062178 62.5 115.062178 69.5 109 73 102.937822 69.5 102.937822 62.5"></polygon>
                            <polygon points="109 39 115.062178 42.5 115.062178 49.5 109 53 102.937822 49.5 102.937822 42.5"></polygon>
                            <polygon points="121 20 127.062178 23.5 127.062178 30.5 121 34 114.937822 30.5 114.937822 23.5"></polygon>
                            <polygon points="103 49 109.062178 52.5 109.062178 59.5 103 63 96.9378222 59.5 96.9378222 52.5"></polygon>
                            <polygon points="85 59 91.0621778 62.5 91.0621778 69.5 85 73 78.9378222 69.5 78.9378222 62.5"></polygon>
                            <polygon points="85 79 91.0621778 82.5 91.0621778 89.5 85 93 78.9378222 89.5 78.9378222 82.5"></polygon>
                            <polygon points="67 89 73.0621778 92.5 73.0621778 99.5 67 103 60.9378222 99.5 60.9378222 92.5"></polygon>
                            <polygon points="85 59 91.0621778 62.5 91.0621778 69.5 85 73 78.9378222 69.5 78.9378222 62.5"></polygon>
                            <polygon points="79 69 85.0621778 72.5 85.0621778 79.5 79 83 72.9378222 79.5 72.9378222 72.5"></polygon>
                            <polygon points="61 79 67.0621778 82.5 67.0621778 89.5 61 93 54.9378222 89.5 54.9378222 82.5"></polygon>
                            <polygon points="67 49 73.0621778 52.5 73.0621778 59.5 67 63 60.9378222 59.5 60.9378222 52.5"></polygon>
                            <polygon points="61 59 67.0621778 62.5 67.0621778 69.5 61 73 54.9378222 69.5 54.9378222 62.5"></polygon>
                            <polygon points="55 69 61.0621778 72.5 61.0621778 79.5 55 83 48.9378222 79.5 48.9378222 72.5"></polygon>
                            <polygon points="37 79 43.0621778 82.5 43.0621778 89.5 37 93 30.9378222 89.5 30.9378222 82.5"></polygon>
                            <polygon points="73 39 79.0621778 42.5 79.0621778 49.5 73 53 66.9378222 49.5 66.9378222 42.5"></polygon>
                            <polygon points="67 49 73.0621778 52.5 73.0621778 59.5 67 63 60.9378222 59.5 60.9378222 52.5"></polygon>
                            <polygon points="49 59 55.0621778 62.5 55.0621778 69.5 49 73 42.9378222 69.5 42.9378222 62.5"></polygon>
                            <polygon points="37 59 43.0621778 62.5 43.0621778 69.5 37 73 30.9378222 69.5 30.9378222 62.5"></polygon>
                            <polygon points="25 79 31.0621778 82.5 31.0621778 89.5 25 93 18.9378222 89.5 18.9378222 82.5"></polygon>
                            <polygon points="103 29 109.062178 32.5 109.062178 39.5 103 43 96.9378222 39.5 96.9378222 32.5"></polygon>
                            <polygon points="97 39 103.062178 42.5 103.062178 49.5 97 53 90.9378222 49.5 90.9378222 42.5"></polygon>
                            <polygon points="85 19 91.0621778 22.5 91.0621778 29.5 85 33 78.9378222 29.5 78.9378222 22.5"></polygon>
                            <polygon points="79 49 85.0621778 52.5 85.0621778 59.5 79 63 72.9378222 59.5 72.9378222 52.5"></polygon>
                            <polygon points="115 10 121.062178 13.5 121.062178 20.5 115 24 108.937822 20.5 108.937822 13.5"></polygon>
                            <polygon points="97 19 103.062178 22.5 103.062178 29.5 97 33 90.9378222 29.5 90.9378222 22.5"></polygon>
                            <polygon points="31 189 37.0621778 192.5 37.0621778 199.5 31 203 24.9378222 199.5 24.9378222 192.5"></polygon>
                            <polygon points="31 189 37.0621778 192.5 37.0621778 199.5 31 203 24.9378222 199.5 24.9378222 192.5"></polygon>
                            <polygon points="37 199 43.0621778 202.5 43.0621778 209.5 37 213 30.9378222 209.5 30.9378222 202.5"></polygon>
                            <polygon points="13 199 19.0621778 202.5 19.0621778 209.5 13 213 6.93782217 209.5 6.93782217 202.5"></polygon>
                            <polygon points="97 219 103.062178 222.5 103.062178 229.5 97 233 90.9378222 229.5 90.9378222 222.5"></polygon>
                            <polygon points="91 229 97.0621778 232.5 97.0621778 239.5 91 243 84.9378222 239.5 84.9378222 232.5"></polygon>
                            <polygon points="73 179 79.0621778 182.5 79.0621778 189.5 73 193 66.9378222 189.5 66.9378222 182.5"></polygon>
                            <polygon points="79 189 85.0621778 192.5 85.0621778 199.5 79 203 72.9378222 199.5 72.9378222 192.5"></polygon>
                            <polygon points="55 189 61.0621778 192.5 61.0621778 199.5 55 203 48.9378222 199.5 48.9378222 192.5"></polygon>
                            <polygon points="73 199 79.0621778 202.5 79.0621778 209.5 73 213 66.9378222 209.5 66.9378222 202.5"></polygon>
                            <polygon points="55 189 61.0621778 192.5 61.0621778 199.5 55 203 48.9378222 199.5 48.9378222 192.5"></polygon>
                            <polygon points="31 189 37.0621778 192.5 37.0621778 199.5 31 203 24.9378222 199.5 24.9378222 192.5"></polygon>
                            <polygon points="49 199 55.0621778 202.5 55.0621778 209.5 49 213 42.9378222 209.5 42.9378222 202.5"></polygon>
                            <polygon points="97 179 103.062178 182.5 103.062178 189.5 97 193 90.9378222 189.5 90.9378222 182.5"></polygon>
                            <polygon points="103 189 109.062178 192.5 109.062178 199.5 103 203 96.9378222 199.5 96.9378222 192.5"></polygon>
                            <polygon points="79 189 85.0621778 192.5 85.0621778 199.5 79 203 72.9378222 199.5 72.9378222 192.5"></polygon>
                            <polygon points="139 69 145.062178 72.5 145.062178 79.5 139 83 132.937822 79.5 132.937822 72.5"></polygon>
                            <polygon points="145 79 151.062178 82.5 151.062178 89.5 145 93 138.937822 89.5 138.937822 82.5"></polygon>
                            <polygon points="121 79 127.062178 82.5 127.062178 89.5 121 93 114.937822 89.5 114.937822 82.5"></polygon>
                            <polygon points="139 89 145.062178 92.5 145.062178 99.5 139 103 132.937822 99.5 132.937822 92.5"></polygon>
                            <polygon points="169 79 175.062178 82.5 175.062178 89.5 169 93 162.937822 89.5 162.937822 82.5"></polygon>
                            <polygon points="175 89 181.062178 92.5 181.062178 99.5 175 103 168.937822 99.5 168.937822 92.5"></polygon>
                            <polygon points="151 89 157.062178 92.5 157.062178 99.5 151 103 144.937822 99.5 144.937822 92.5"></polygon>
                            <polygon points="157 99 163.062178 102.5 163.062178 109.5 157 113 150.937822 109.5 150.937822 102.5"></polygon>
                            <polygon points="169 99 175.062178 102.5 175.062178 109.5 169 113 162.937822 109.5 162.937822 102.5"></polygon>
                            <polygon points="163 109 169.062178 112.5 169.062178 119.5 163 123 156.937822 119.5 156.937822 112.5"></polygon>
                            <polygon points="175 109 181.062178 112.5 181.062178 119.5 175 123 168.937822 119.5 168.937822 112.5"></polygon>
                            <polygon points="157 119 163.062178 122.5 163.062178 129.5 157 133 150.937822 129.5 150.937822 122.5"></polygon>
                            <polygon points="175 129 181.062178 132.5 181.062178 139.5 175 143 168.937822 139.5 168.937822 132.5"></polygon>
                            <polygon points="115 69 121.062178 72.5 121.062178 79.5 115 83 108.937822 79.5 108.937822 72.5"></polygon>
                            <polygon points="121 79 127.062178 82.5 127.062178 89.5 121 93 114.937822 89.5 114.937822 82.5"></polygon>
                            <polygon points="97 79 103.062178 82.5 103.062178 89.5 97 93 90.9378222 89.5 90.9378222 82.5"></polygon>
                            <polygon points="115 89 121.062178 92.5 121.062178 99.5 115 103 108.937822 99.5 108.937822 92.5"></polygon>
                            <polygon points="91 89 97.0621778 92.5 97.0621778 99.5 91 103 84.9378222 99.5 84.9378222 92.5"></polygon>
                            <polygon points="97 99 103.062178 102.5 103.062178 109.5 97 113 90.9378222 109.5 90.9378222 102.5"></polygon>
                            <polygon points="73 99 79.0621778 102.5 79.0621778 109.5 73 113 66.9378222 109.5 66.9378222 102.5"></polygon>
                            <polygon points="91 109 97.0621778 112.5 97.0621778 119.5 91 123 84.9378222 119.5 84.9378222 112.5"></polygon>
                            <polygon points="91 109 97.0621778 112.5 97.0621778 119.5 91 123 84.9378222 119.5 84.9378222 112.5"></polygon>
                            <polygon points="97 119 103.062178 122.5 103.062178 129.5 97 133 90.9378222 129.5 90.9378222 122.5"></polygon>
                            <polygon points="73 119 79.0621778 122.5 79.0621778 129.5 73 133 66.9378222 129.5 66.9378222 122.5"></polygon>
                            <polygon points="91 129 97.0621778 132.5 97.0621778 139.5 91 143 84.9378222 139.5 84.9378222 132.5"></polygon>
                            <polygon points="103 129 109.062178 132.5 109.062178 139.5 103 143 96.9378222 139.5 96.9378222 132.5"></polygon>
                            <polygon points="109 139 115.062178 142.5 115.062178 149.5 109 153 102.937822 149.5 102.937822 142.5"></polygon>
                            <polygon points="85 139 91.0621778 142.5 91.0621778 149.5 85 153 78.9378222 149.5 78.9378222 142.5"></polygon>
                            <polygon points="103 149 109.062178 152.5 109.062178 159.5 103 163 96.9378222 159.5 96.9378222 152.5"></polygon>
                            <polygon points="127 129 133.062178 132.5 133.062178 139.5 127 143 120.937822 139.5 120.937822 132.5"></polygon>
                            <polygon points="133 139 139.062178 142.5 139.062178 149.5 133 153 126.937822 149.5 126.937822 142.5"></polygon>
                            <polygon points="109 139 115.062178 142.5 115.062178 149.5 109 153 102.937822 149.5 102.937822 142.5"></polygon>
                            <polygon points="127 149 133.062178 152.5 133.062178 159.5 127 163 120.937822 159.5 120.937822 152.5"></polygon>
                            <polygon points="151 129 157.062178 132.5 157.062178 139.5 151 143 144.937822 139.5 144.937822 132.5"></polygon>
                            <polygon points="157 139 163.062178 142.5 163.062178 149.5 157 153 150.937822 149.5 150.937822 142.5"></polygon>
                            <polygon points="133 139 139.062178 142.5 139.062178 149.5 133 153 126.937822 149.5 126.937822 142.5"></polygon>
                            <polygon points="139 149 145.062178 152.5 145.062178 159.5 139 163 132.937822 159.5 132.937822 152.5"></polygon>
                            <polygon points="151 149 157.062178 152.5 157.062178 159.5 151 163 144.937822 159.5 144.937822 152.5"></polygon>
                            <polygon points="133 99 139.062178 102.5 139.062178 109.5 133 113 126.937822 109.5 126.937822 102.5"></polygon>
                            <polygon points="139 109 145.062178 112.5 145.062178 119.5 139 123 132.937822 119.5 132.937822 112.5"></polygon>
                            <polygon points="115 109 121.062178 112.5 121.062178 119.5 115 123 108.937822 119.5 108.937822 112.5"></polygon>
                            <polygon points="109 99 115.062178 102.5 115.062178 109.5 109 113 102.937822 109.5 102.937822 102.5"></polygon>
                            <polygon points="115 109 121.062178 112.5 121.062178 119.5 115 123 108.937822 119.5 108.937822 112.5"></polygon>
                            <polygon points="91 109 97.0621778 112.5 97.0621778 119.5 91 123 84.9378222 119.5 84.9378222 112.5"></polygon>
                            <polygon points="109 119 115.062178 122.5 115.062178 129.5 109 133 102.937822 129.5 102.937822 122.5"></polygon>
                            <polygon points="157 99 163.062178 102.5 163.062178 109.5 157 113 150.937822 109.5 150.937822 102.5"></polygon>
                            <polygon points="163 109 169.062178 112.5 169.062178 119.5 163 123 156.937822 119.5 156.937822 112.5"></polygon>
                            <polygon points="139 109 145.062178 112.5 145.062178 119.5 139 123 132.937822 119.5 132.937822 112.5"></polygon>
                            <polygon points="157 119 163.062178 122.5 163.062178 129.5 157 133 150.937822 129.5 150.937822 122.5"></polygon>
                            <polygon points="163 149 169.062178 152.5 169.062178 159.5 163 163 156.937822 159.5 156.937822 152.5"></polygon>
                            <polygon points="169 159 175.062178 162.5 175.062178 169.5 169 173 162.937822 169.5 162.937822 162.5"></polygon>
                            <polygon points="145 159 151.062178 162.5 151.062178 169.5 145 173 138.937822 169.5 138.937822 162.5"></polygon>
                            <polygon points="163 169 169.062178 172.5 169.062178 179.5 163 183 156.937822 179.5 156.937822 172.5"></polygon>
                            <polygon points="181 159 187.062178 162.5 187.062178 169.5 181 173 174.937822 169.5 174.937822 162.5"></polygon>
                            <polygon points="193 159 199.062178 162.5 199.062178 169.5 193 173 186.937822 169.5 186.937822 162.5"></polygon>
                            <polygon points="199 169 205.062178 172.5 205.062178 179.5 199 183 192.937822 179.5 192.937822 172.5"></polygon>
                            <polygon points="175 169 181.062178 172.5 181.062178 179.5 175 183 168.937822 179.5 168.937822 172.5"></polygon>
                            <polygon points="181 179 187.062178 182.5 187.062178 189.5 181 193 174.937822 189.5 174.937822 182.5"></polygon>
                            <polygon points="193 179 199.062178 182.5 199.062178 189.5 193 193 186.937822 189.5 186.937822 182.5"></polygon>
                            <polygon points="187 189 193.062178 192.5 193.062178 199.5 187 203 180.937822 199.5 180.937822 192.5"></polygon>
                            <polygon points="199 189 205.062178 192.5 205.062178 199.5 199 203 192.937822 199.5 192.937822 192.5"></polygon>
                            <polygon points="205 199 211.062178 202.5 211.062178 209.5 205 213 198.937822 209.5 198.937822 202.5"></polygon>
                            <polygon points="181 199 187.062178 202.5 187.062178 209.5 181 213 174.937822 209.5 174.937822 202.5"></polygon>
                            <polygon points="199 209 205.062178 212.5 205.062178 219.5 199 223 192.937822 219.5 192.937822 212.5"></polygon>
                            <polygon points="139 149 145.062178 152.5 145.062178 159.5 139 163 132.937822 159.5 132.937822 152.5"></polygon>
                            <polygon points="145 159 151.062178 162.5 151.062178 169.5 145 173 138.937822 169.5 138.937822 162.5"></polygon>
                            <polygon points="121 159 127.062178 162.5 127.062178 169.5 121 173 114.937822 169.5 114.937822 162.5"></polygon>
                            <polygon points="139 169 145.062178 172.5 145.062178 179.5 139 183 132.937822 179.5 132.937822 172.5"></polygon>
                            <polygon points="115 169 121.062178 172.5 121.062178 179.5 115 183 108.937822 179.5 108.937822 172.5"></polygon>
                            <polygon points="121 179 127.062178 182.5 127.062178 189.5 121 193 114.937822 189.5 114.937822 182.5"></polygon>
                            <polygon points="97 179 103.062178 182.5 103.062178 189.5 97 193 90.9378222 189.5 90.9378222 182.5"></polygon>
                            <polygon points="115 189 121.062178 192.5 121.062178 199.5 115 203 108.937822 199.5 108.937822 192.5"></polygon>
                            <polygon points="115 189 121.062178 192.5 121.062178 199.5 115 203 108.937822 199.5 108.937822 192.5"></polygon>
                            <polygon points="121 199 127.062178 202.5 127.062178 209.5 121 213 114.937822 209.5 114.937822 202.5"></polygon>
                            <polygon points="115 209 121.062178 212.5 121.062178 219.5 115 223 108.937822 219.5 108.937822 212.5"></polygon>
                            <polygon points="127 209 133.062178 212.5 133.062178 219.5 127 223 120.937822 219.5 120.937822 212.5"></polygon>
                            <polygon points="133 219 139.062178 222.5 139.062178 229.5 133 233 126.937822 229.5 126.937822 222.5"></polygon>
                            <polygon points="109 219 115.062178 222.5 115.062178 229.5 109 233 102.937822 229.5 102.937822 222.5"></polygon>
                            <polygon points="115 229 121.062178 232.5 121.062178 239.5 115 243 108.937822 239.5 108.937822 232.5"></polygon>
                            <polygon points="127 229 133.062178 232.5 133.062178 239.5 127 243 120.937822 239.5 120.937822 232.5"></polygon>
                            <polygon points="157 219 163.062178 222.5 163.062178 229.5 157 233 150.937822 229.5 150.937822 222.5"></polygon>
                            <polygon points="133 219 139.062178 222.5 139.062178 229.5 133 233 126.937822 229.5 126.937822 222.5"></polygon>
                            <polygon points="139 229 145.062178 232.5 145.062178 239.5 139 243 132.937822 239.5 132.937822 232.5"></polygon>
                            <polygon points="151 229 157.062178 232.5 157.062178 239.5 151 243 144.937822 239.5 144.937822 232.5"></polygon>
                            <polygon points="175 209 181.062178 212.5 181.062178 219.5 175 223 168.937822 219.5 168.937822 212.5"></polygon>
                            <polygon points="181 219 187.062178 222.5 187.062178 229.5 181 233 174.937822 229.5 174.937822 222.5"></polygon>
                            <polygon points="157 219 163.062178 222.5 163.062178 229.5 157 233 150.937822 229.5 150.937822 222.5"></polygon>
                            <polygon points="175 229 181.062178 232.5 181.062178 239.5 175 243 168.937822 239.5 168.937822 232.5"></polygon>
                            <polygon points="157 179 163.062178 182.5 163.062178 189.5 157 193 150.937822 189.5 150.937822 182.5"></polygon>
                            <polygon points="163 189 169.062178 192.5 169.062178 199.5 163 203 156.937822 199.5 156.937822 192.5"></polygon>
                            <polygon points="139 189 145.062178 192.5 145.062178 199.5 139 203 132.937822 199.5 132.937822 192.5"></polygon>
                            <polygon points="157 199 163.062178 202.5 163.062178 209.5 157 213 150.937822 209.5 150.937822 202.5"></polygon>
                            <polygon points="139 189 145.062178 192.5 145.062178 199.5 139 203 132.937822 199.5 132.937822 192.5"></polygon>
                            <polygon points="115 189 121.062178 192.5 121.062178 199.5 115 203 108.937822 199.5 108.937822 192.5"></polygon>
                            <polygon points="181 179 187.062178 182.5 187.062178 189.5 181 193 174.937822 189.5 174.937822 182.5"></polygon>
                            <polygon points="187 189 193.062178 192.5 193.062178 199.5 187 203 180.937822 199.5 180.937822 192.5"></polygon>
                            <polygon points="163 189 169.062178 192.5 169.062178 199.5 163 203 156.937822 199.5 156.937822 192.5"></polygon>
                            <polygon points="181 199 187.062178 202.5 187.062178 209.5 181 213 174.937822 209.5 174.937822 202.5"></polygon>
                            <polygon points="61 239 67.0621778 242.5 67.0621778 249.5 61 253 54.9378222 249.5 54.9378222 242.5"></polygon>
                            <polygon points="37 239 43.0621778 242.5 43.0621778 249.5 37 253 30.9378222 249.5 30.9378222 242.5"></polygon>
                            <polygon points="55 249 61.0621778 252.5 61.0621778 259.5 55 263 48.9378222 259.5 48.9378222 252.5"></polygon>
                            <polygon points="85 239 91.0621778 242.5 91.0621778 249.5 85 253 78.9378222 249.5 78.9378222 242.5"></polygon>
                            <polygon points="91 249 97.0621778 252.5 97.0621778 259.5 91 263 84.9378222 259.5 84.9378222 252.5"></polygon>
                            <polygon points="67 249 73.0621778 252.5 73.0621778 259.5 67 263 60.9378222 259.5 60.9378222 252.5"></polygon>
                            <polygon points="73 259 79.0621778 262.5 79.0621778 269.5 73 273 66.9378222 269.5 66.9378222 262.5"></polygon>
                            <polygon points="85 259 91.0621778 262.5 91.0621778 269.5 85 273 78.9378222 269.5 78.9378222 262.5"></polygon>
                            <polygon points="79 269 85.0621778 272.5 85.0621778 279.5 79 283 72.9378222 279.5 72.9378222 272.5"></polygon>
                            <polygon points="91 269 97.0621778 272.5 97.0621778 279.5 91 283 84.9378222 279.5 84.9378222 272.5"></polygon>
                            <polygon points="37 239 43.0621778 242.5 43.0621778 249.5 37 253 30.9378222 249.5 30.9378222 242.5"></polygon>
                            <polygon points="31 249 37.0621778 252.5 37.0621778 259.5 31 263 24.9378222 259.5 24.9378222 252.5"></polygon>
                            <polygon points="49 259 55.0621778 262.5 55.0621778 269.5 49 273 42.9378222 269.5 42.9378222 262.5"></polygon>
                            <polygon points="55 269 61.0621778 272.5 61.0621778 279.5 55 283 48.9378222 279.5 48.9378222 272.5"></polygon>
                            <polygon points="31 269 37.0621778 272.5 37.0621778 279.5 31 283 24.9378222 279.5 24.9378222 272.5"></polygon>
                            <polygon points="19 269 25.0621778 272.5 25.0621778 279.5 19 283 12.9378222 279.5 12.9378222 272.5"></polygon>
                            <polygon points="25 259 31.0621778 262.5 31.0621778 269.5 25 273 18.9378222 269.5 18.9378222 262.5"></polygon>
                            <polygon points="31 269 37.0621778 272.5 37.0621778 279.5 31 283 24.9378222 279.5 24.9378222 272.5"></polygon>
                            <polygon points="73 259 79.0621778 262.5 79.0621778 269.5 73 273 66.9378222 269.5 66.9378222 262.5"></polygon>
                            <polygon points="79 269 85.0621778 272.5 85.0621778 279.5 79 283 72.9378222 279.5 72.9378222 272.5"></polygon>
                            <polygon points="55 269 61.0621778 272.5 61.0621778 279.5 55 283 48.9378222 279.5 48.9378222 272.5"></polygon>
                            <polygon points="139 229 145.062178 232.5 145.062178 239.5 139 243 132.937822 239.5 132.937822 232.5"></polygon>
                            <polygon points="121 239 127.062178 242.5 127.062178 249.5 121 253 114.937822 249.5 114.937822 242.5"></polygon>
                            <polygon points="139 249 145.062178 252.5 145.062178 259.5 139 263 132.937822 259.5 132.937822 252.5"></polygon>
                            <polygon points="169 239 175.062178 242.5 175.062178 249.5 169 253 162.937822 249.5 162.937822 242.5"></polygon>
                            <polygon points="151 249 157.062178 252.5 157.062178 259.5 151 263 144.937822 259.5 144.937822 252.5"></polygon>
                            <polygon points="157 259 163.062178 262.5 163.062178 269.5 157 273 150.937822 269.5 150.937822 262.5"></polygon>
                            <polygon points="169 259 175.062178 262.5 175.062178 269.5 169 273 162.937822 269.5 162.937822 262.5"></polygon>
                            <polygon points="163 269 169.062178 272.5 169.062178 279.5 163 283 156.937822 279.5 156.937822 272.5"></polygon>
                            <polygon points="175 269 181.062178 272.5 181.062178 279.5 175 283 168.937822 279.5 168.937822 272.5"></polygon>
                            <polygon points="115 229 121.062178 232.5 121.062178 239.5 115 243 108.937822 239.5 108.937822 232.5"></polygon>
                            <polygon points="121 239 127.062178 242.5 127.062178 249.5 121 253 114.937822 249.5 114.937822 242.5"></polygon>
                            <polygon points="97 239 103.062178 242.5 103.062178 249.5 97 253 90.9378222 249.5 90.9378222 242.5"></polygon>
                            <polygon points="115 249 121.062178 252.5 121.062178 259.5 115 263 108.937822 259.5 108.937822 252.5"></polygon>
                            <polygon points="91 249 97.0621778 252.5 97.0621778 259.5 91 263 84.9378222 259.5 84.9378222 252.5"></polygon>
                            <polygon points="97 259 103.062178 262.5 103.062178 269.5 97 273 90.9378222 269.5 90.9378222 262.5"></polygon>
                            <polygon points="73 259 79.0621778 262.5 79.0621778 269.5 73 273 66.9378222 269.5 66.9378222 262.5"></polygon>
                            <polygon points="91 269 97.0621778 272.5 97.0621778 279.5 91 283 84.9378222 279.5 84.9378222 272.5"></polygon>
                            <polygon points="91 269 97.0621778 272.5 97.0621778 279.5 91 283 84.9378222 279.5 84.9378222 272.5"></polygon>
                            <polygon points="133 259 139.062178 262.5 139.062178 269.5 133 273 126.937822 269.5 126.937822 262.5"></polygon>
                            <polygon points="139 269 145.062178 272.5 145.062178 279.5 139 283 132.937822 279.5 132.937822 272.5"></polygon>
                            <polygon points="115 269 121.062178 272.5 121.062178 279.5 115 283 108.937822 279.5 108.937822 272.5"></polygon>
                            <polygon points="109 259 115.062178 262.5 115.062178 269.5 109 273 102.937822 269.5 102.937822 262.5"></polygon>
                            <polygon points="115 269 121.062178 272.5 121.062178 279.5 115 283 108.937822 279.5 108.937822 272.5"></polygon>
                            <polygon points="91 269 97.0621778 272.5 97.0621778 279.5 91 283 84.9378222 279.5 84.9378222 272.5"></polygon>
                            <polygon points="157 259 163.062178 262.5 163.062178 269.5 157 273 150.937822 269.5 150.937822 262.5"></polygon>
                            <polygon points="163 269 169.062178 272.5 169.062178 279.5 163 283 156.937822 279.5 156.937822 272.5"></polygon>
                            <polygon points="139 269 145.062178 272.5 145.062178 279.5 139 283 132.937822 279.5 132.937822 272.5"></polygon>
                            <polygon points="235 209 241.062178 212.5 241.062178 219.5 235 223 228.937822 219.5 228.937822 212.5"></polygon>
                            <polygon points="247 209 253.062178 212.5 253.062178 219.5 247 223 240.937822 219.5 240.937822 212.5"></polygon>
                            <polygon points="253 219 259.062178 222.5 259.062178 229.5 253 233 246.937822 229.5 246.937822 222.5"></polygon>
                            <polygon points="229 219 235.062178 222.5 235.062178 229.5 229 233 222.937822 229.5 222.937822 222.5"></polygon>
                            <polygon points="247 229 253.062178 232.5 253.062178 239.5 247 243 240.937822 239.5 240.937822 232.5"></polygon>
                            <polygon points="277 219 283.062178 222.5 283.062178 229.5 277 233 270.937822 229.5 270.937822 222.5"></polygon>
                            <polygon points="283 209 289.062178 212.5 289.062178 219.5 283 223 276.937822 219.5 276.937822 212.5"></polygon>
                            <polygon points="307 209 313.062178 212.5 313.062178 219.5 307 223 300.937822 219.5 300.937822 212.5"></polygon>
                            <polygon points="283 229 289.062178 232.5 289.062178 239.5 283 243 276.937822 239.5 276.937822 232.5"></polygon>
                            <polygon points="259 229 265.062178 232.5 265.062178 239.5 259 243 252.937822 239.5 252.937822 232.5"></polygon>
                            <polygon points="265 239 271.062178 242.5 271.062178 249.5 265 253 258.937822 249.5 258.937822 242.5"></polygon>
                            <polygon points="271 249 277.062178 252.5 277.062178 259.5 271 263 264.937822 259.5 264.937822 252.5"></polygon>
                            <polygon points="283 249 289.062178 252.5 289.062178 259.5 283 263 276.937822 259.5 276.937822 252.5"></polygon>
                            <polygon points="289 259 295.062178 262.5 295.062178 269.5 289 273 282.937822 269.5 282.937822 262.5"></polygon>
                            <polygon points="265 259 271.062178 262.5 271.062178 269.5 265 273 258.937822 269.5 258.937822 262.5"></polygon>
                            <polygon points="283 269 289.062178 272.5 289.062178 279.5 283 283 276.937822 279.5 276.937822 272.5"></polygon>
                            <polygon points="223 209 229.062178 212.5 229.062178 219.5 223 223 216.937822 219.5 216.937822 212.5"></polygon>
                            <polygon points="229 219 235.062178 222.5 235.062178 229.5 229 233 222.937822 229.5 222.937822 222.5"></polygon>
                            <polygon points="241 179 247.062178 182.5 247.062178 189.5 241 193 234.937822 189.5 234.937822 182.5"></polygon>
                            <polygon points="247 189 253.062178 192.5 253.062178 199.5 247 203 240.937822 199.5 240.937822 192.5"></polygon>
                            <polygon points="217 179 223.062178 182.5 223.062178 189.5 217 193 210.937822 189.5 210.937822 182.5"></polygon>
                            <polygon points="223 189 229.062178 192.5 229.062178 199.5 223 203 216.937822 199.5 216.937822 192.5"></polygon>
                            <polygon points="253 199 259.062178 202.5 259.062178 209.5 253 213 246.937822 209.5 246.937822 202.5"></polygon>
                            <polygon points="229 199 235.062178 202.5 235.062178 209.5 229 213 222.937822 209.5 222.937822 202.5"></polygon>
                            <polygon points="235 209 241.062178 212.5 241.062178 219.5 235 223 228.937822 219.5 228.937822 212.5"></polygon>
                            <polygon points="295 189 301.062178 192.5 301.062178 199.5 295 203 288.937822 199.5 288.937822 192.5"></polygon>
                            <polygon points="301 199 307.062178 202.5 307.062178 209.5 301 213 294.937822 209.5 294.937822 202.5"></polygon>
                            <polygon points="205 219 211.062178 222.5 211.062178 229.5 205 233 198.937822 229.5 198.937822 222.5"></polygon>
                            <polygon points="199 229 205.062178 232.5 205.062178 239.5 199 243 192.937822 239.5 192.937822 232.5"></polygon>
                            <polygon points="205 239 211.062178 242.5 211.062178 249.5 205 253 198.937822 249.5 198.937822 242.5"></polygon>
                            <polygon points="181 239 187.062178 242.5 187.062178 249.5 181 253 174.937822 249.5 174.937822 242.5"></polygon>
                            <polygon points="199 249 205.062178 252.5 205.062178 259.5 199 263 192.937822 259.5 192.937822 252.5"></polygon>
                            <polygon points="199 249 205.062178 252.5 205.062178 259.5 199 263 192.937822 259.5 192.937822 252.5"></polygon>
                            <polygon points="205 259 211.062178 262.5 211.062178 269.5 205 273 198.937822 269.5 198.937822 262.5"></polygon>
                            <polygon points="181 259 187.062178 262.5 187.062178 269.5 181 273 174.937822 269.5 174.937822 262.5"></polygon>
                            <polygon points="199 269 205.062178 272.5 205.062178 279.5 199 283 192.937822 279.5 192.937822 272.5"></polygon>
                            <polygon points="211 269 217.062178 272.5 217.062178 279.5 211 283 204.937822 279.5 204.937822 272.5"></polygon>
                            <polygon points="235 269 241.062178 272.5 241.062178 279.5 235 283 228.937822 279.5 228.937822 272.5"></polygon>
                            <polygon points="259 269 265.062178 272.5 265.062178 279.5 259 283 252.937822 279.5 252.937822 272.5"></polygon>
                            <polygon points="241 239 247.062178 242.5 247.062178 249.5 241 253 234.937822 249.5 234.937822 242.5"></polygon>
                            <polygon points="247 249 253.062178 252.5 253.062178 259.5 247 263 240.937822 259.5 240.937822 252.5"></polygon>
                            <polygon points="223 249 229.062178 252.5 229.062178 259.5 223 263 216.937822 259.5 216.937822 252.5"></polygon>
                            <polygon points="241 259 247.062178 262.5 247.062178 269.5 241 273 234.937822 269.5 234.937822 262.5"></polygon>
                            <polygon points="217 239 223.062178 242.5 223.062178 249.5 217 253 210.937822 249.5 210.937822 242.5"></polygon>
                            <polygon points="223 249 229.062178 252.5 229.062178 259.5 223 263 216.937822 259.5 216.937822 252.5"></polygon>
                            <polygon points="199 249 205.062178 252.5 205.062178 259.5 199 263 192.937822 259.5 192.937822 252.5"></polygon>
                            <polygon points="217 259 223.062178 262.5 223.062178 269.5 217 273 210.937822 269.5 210.937822 262.5"></polygon>
                            <polygon points="265 239 271.062178 242.5 271.062178 249.5 265 253 258.937822 249.5 258.937822 242.5"></polygon>
                            <polygon points="271 249 277.062178 252.5 277.062178 259.5 271 263 264.937822 259.5 264.937822 252.5"></polygon>
                            <polygon points="305 268 311.062178 271.5 311.062178 278.5 305 282 298.937822 278.5 298.937822 271.5"></polygon>
                            <polygon points="247 249 253.062178 252.5 253.062178 259.5 247 263 240.937822 259.5 240.937822 252.5"></polygon>
                            <polygon points="283 269 289.062178 272.5 289.062178 279.5 283 283 276.937822 279.5 276.937822 272.5"></polygon>
                            <polygon points="289 239 295.062178 242.5 295.062178 249.5 289 253 282.937822 249.5 282.937822 242.5"></polygon>
                            <polygon points="289 259 295.062178 262.5 295.062178 269.5 289 273 282.937822 269.5 282.937822 262.5"></polygon>
                            <polygon points="295 249 301.062178 252.5 301.062178 259.5 295 263 288.937822 259.5 288.937822 252.5"></polygon>
                            <polygon points="265 259 271.062178 262.5 271.062178 269.5 265 273 258.937822 269.5 258.937822 262.5"></polygon>
                            <polygon points="235 89 241.062178 92.5 241.062178 99.5 235 103 228.937822 99.5 228.937822 92.5"></polygon>
                            <polygon points="241 99 247.062178 102.5 247.062178 109.5 241 113 234.937822 109.5 234.937822 102.5"></polygon>
                            <polygon points="217 99 223.062178 102.5 223.062178 109.5 217 113 210.937822 109.5 210.937822 102.5"></polygon>
                            <polygon points="235 109 241.062178 112.5 241.062178 119.5 235 123 228.937822 119.5 228.937822 112.5"></polygon>
                            <polygon points="271 109 277.062178 112.5 277.062178 119.5 271 123 264.937822 119.5 264.937822 112.5"></polygon>
                            <polygon points="247 109 253.062178 112.5 253.062178 119.5 247 123 240.937822 119.5 240.937822 112.5"></polygon>
                            <polygon points="253 119 259.062178 122.5 259.062178 129.5 253 133 246.937822 129.5 246.937822 122.5"></polygon>
                            <polygon points="265 119 271.062178 122.5 271.062178 129.5 265 133 258.937822 129.5 258.937822 122.5"></polygon>
                            <polygon points="259 129 265.062178 132.5 265.062178 139.5 259 143 252.937822 139.5 252.937822 132.5"></polygon>
                            <polygon points="277 139 283.062178 142.5 283.062178 149.5 277 153 270.937822 149.5 270.937822 142.5"></polygon>
                            <polygon points="253 139 259.062178 142.5 259.062178 149.5 253 153 246.937822 149.5 246.937822 142.5"></polygon>
                            <polygon points="271 149 277.062178 152.5 277.062178 159.5 271 163 264.937822 159.5 264.937822 152.5"></polygon>
                            <polygon points="211 89 217.062178 92.5 217.062178 99.5 211 103 204.937822 99.5 204.937822 92.5"></polygon>
                            <polygon points="217 99 223.062178 102.5 223.062178 109.5 217 113 210.937822 109.5 210.937822 102.5"></polygon>
                            <polygon points="193 99 199.062178 102.5 199.062178 109.5 193 113 186.937822 109.5 186.937822 102.5"></polygon>
                            <polygon points="211 109 217.062178 112.5 217.062178 119.5 211 123 204.937822 119.5 204.937822 112.5"></polygon>
                            <polygon points="187 109 193.062178 112.5 193.062178 119.5 187 123 180.937822 119.5 180.937822 112.5"></polygon>
                            <polygon points="193 119 199.062178 122.5 199.062178 129.5 193 133 186.937822 129.5 186.937822 122.5"></polygon>
                            <polygon points="187 129 193.062178 132.5 193.062178 139.5 187 143 180.937822 139.5 180.937822 132.5"></polygon>
                            <polygon points="187 129 193.062178 132.5 193.062178 139.5 187 143 180.937822 139.5 180.937822 132.5"></polygon>
                            <polygon points="193 139 199.062178 142.5 199.062178 149.5 193 153 186.937822 149.5 186.937822 142.5"></polygon>
                            <polygon points="169 139 175.062178 142.5 175.062178 149.5 169 153 162.937822 149.5 162.937822 142.5"></polygon>
                            <polygon points="187 149 193.062178 152.5 193.062178 159.5 187 163 180.937822 159.5 180.937822 152.5"></polygon>
                            <polygon points="205 159 211.062178 162.5 211.062178 169.5 205 173 198.937822 169.5 198.937822 162.5"></polygon>
                            <polygon points="181 159 187.062178 162.5 187.062178 169.5 181 173 174.937822 169.5 174.937822 162.5"></polygon>
                            <polygon points="199 169 205.062178 172.5 205.062178 179.5 199 183 192.937822 179.5 192.937822 172.5"></polygon>
                            <polygon points="223 149 229.062178 152.5 229.062178 159.5 223 163 216.937822 159.5 216.937822 152.5"></polygon>
                            <polygon points="229 159 235.062178 162.5 235.062178 169.5 229 173 222.937822 169.5 222.937822 162.5"></polygon>
                            <polygon points="205 159 211.062178 162.5 211.062178 169.5 205 173 198.937822 169.5 198.937822 162.5"></polygon>
                            <polygon points="223 169 229.062178 172.5 229.062178 179.5 223 183 216.937822 179.5 216.937822 172.5"></polygon>
                            <polygon points="247 149 253.062178 152.5 253.062178 159.5 247 163 240.937822 159.5 240.937822 152.5"></polygon>
                            <polygon points="253 159 259.062178 162.5 259.062178 169.5 253 173 246.937822 169.5 246.937822 162.5"></polygon>
                            <polygon points="229 159 235.062178 162.5 235.062178 169.5 229 173 222.937822 169.5 222.937822 162.5"></polygon>
                            <polygon points="247 169 253.062178 172.5 253.062178 179.5 247 183 240.937822 179.5 240.937822 172.5"></polygon>
                            <polygon points="277 159 283.062178 162.5 283.062178 169.5 277 173 270.937822 169.5 270.937822 162.5"></polygon>
                            <polygon points="271 169 277.062178 172.5 277.062178 179.5 271 183 264.937822 179.5 264.937822 172.5"></polygon>
                            <polygon points="265 179 271.062178 182.5 271.062178 189.5 265 193 258.937822 189.5 258.937822 182.5"></polygon>
                            <polygon points="289 179 295.062178 182.5 295.062178 189.5 289 193 282.937822 189.5 282.937822 182.5"></polygon>
                            <polygon points="265 79 271.062178 82.5 271.062178 89.5 265 93 258.937822 89.5 258.937822 82.5"></polygon>
                            <polygon points="259 89 265.062178 92.5 265.062178 99.5 259 103 252.937822 99.5 252.937822 92.5"></polygon>
                            <polygon points="253 40 259.062178 43.5 259.062178 50.5 253 54 246.937822 50.5 246.937822 43.5"></polygon>
                            <polygon points="247 69 253.062178 72.5 253.062178 79.5 247 83 240.937822 79.5 240.937822 72.5"></polygon>
                            <polygon points="241 79 247.062178 82.5 247.062178 89.5 241 93 234.937822 89.5 234.937822 82.5"></polygon>
                            <polygon points="283 129 289.062178 132.5 289.062178 139.5 283 143 276.937822 139.5 276.937822 132.5"></polygon>
                            <polygon points="283 89 289.062178 92.5 289.062178 99.5 283 103 276.937822 99.5 276.937822 92.5"></polygon>
                            <polygon points="289 99 295.062178 102.5 295.062178 109.5 289 113 282.937822 109.5 282.937822 102.5"></polygon>
                            <polygon points="289 159 295.062178 162.5 295.062178 169.5 289 173 282.937822 169.5 282.937822 162.5"></polygon>
                            <polygon points="229 119 235.062178 122.5 235.062178 129.5 229 133 222.937822 129.5 222.937822 122.5"></polygon>
                            <polygon points="235 129 241.062178 132.5 241.062178 139.5 235 143 228.937822 139.5 228.937822 132.5"></polygon>
                            <polygon points="211 129 217.062178 132.5 217.062178 139.5 211 143 204.937822 139.5 204.937822 132.5"></polygon>
                            <polygon points="229 139 235.062178 142.5 235.062178 149.5 229 153 222.937822 149.5 222.937822 142.5"></polygon>
                            <polygon points="205 119 211.062178 122.5 211.062178 129.5 205 133 198.937822 129.5 198.937822 122.5"></polygon>
                            <polygon points="211 129 217.062178 132.5 217.062178 139.5 211 143 204.937822 139.5 204.937822 132.5"></polygon>
                            <polygon points="187 129 193.062178 132.5 193.062178 139.5 187 143 180.937822 139.5 180.937822 132.5"></polygon>
                            <polygon points="205 139 211.062178 142.5 211.062178 149.5 205 153 198.937822 149.5 198.937822 142.5"></polygon>
                            <polygon points="253 119 259.062178 122.5 259.062178 129.5 253 133 246.937822 129.5 246.937822 122.5"></polygon>
                            <polygon points="259 129 265.062178 132.5 265.062178 139.5 259 143 252.937822 139.5 252.937822 132.5"></polygon>
                            <polygon points="235 129 241.062178 132.5 241.062178 139.5 235 143 228.937822 139.5 228.937822 132.5"></polygon>
                            <polygon points="253 139 259.062178 142.5 259.062178 149.5 253 153 246.937822 149.5 246.937822 142.5"></polygon>
                            <polygon points="187 10 193.062178 13.5 193.062178 20.5 187 24 180.937822 20.5 180.937822 13.5"></polygon>
                            <polygon points="229 40 235.062178 43.5 235.062178 50.5 229 54 222.937822 50.5 222.937822 43.5"></polygon>
                            <polygon points="241 40 247.062178 43.5 247.062178 50.5 241 54 234.937822 50.5 234.937822 43.5"></polygon>
                            <polygon points="223 50 229.062178 53.5 229.062178 60.5 223 64 216.937822 60.5 216.937822 53.5"></polygon>
                            <polygon points="241 60 247.062178 63.5 247.062178 70.5 241 74 234.937822 70.5 234.937822 63.5"></polygon>
                            <polygon points="187 10 193.062178 13.5 193.062178 20.5 187 24 180.937822 20.5 180.937822 13.5"></polygon>
                            <polygon points="163 10 169.062178 13.5 169.062178 20.5 163 24 156.937822 20.5 156.937822 13.5"></polygon>
                            <polygon points="181 20 187.062178 23.5 187.062178 30.5 181 34 174.937822 30.5 174.937822 23.5"></polygon>
                            <polygon points="157 20 163.062178 23.5 163.062178 30.5 157 34 150.937822 30.5 150.937822 23.5"></polygon>
                            <polygon points="151 10 157.062178 13.5 157.062178 20.5 151 24 144.937822 20.5 144.937822 13.5"></polygon>
                            <polygon points="139 10 145.062178 13.5 145.062178 20.5 139 24 132.937822 20.5 132.937822 13.5"></polygon>
                            <polygon points="133 0 139.062178 3.5 139.062178 10.5 133 14 126.937822 10.5 126.937822 3.5"></polygon>
                            <polygon points="163 30 169.062178 33.5 169.062178 40.5 163 44 156.937822 40.5 156.937822 33.5"></polygon>
                            <polygon points="139 30 145.062178 33.5 145.062178 40.5 139 44 132.937822 40.5 132.937822 33.5"></polygon>
                            <polygon points="127 49 133.062178 52.5 133.062178 59.5 127 63 120.937822 59.5 120.937822 52.5"></polygon>
                            <polygon points="157 40 163.062178 43.5 163.062178 50.5 157 54 150.937822 50.5 150.937822 43.5"></polygon>
                            <polygon points="157 40 163.062178 43.5 163.062178 50.5 157 54 150.937822 50.5 150.937822 43.5"></polygon>
                            <polygon points="163 50 169.062178 53.5 169.062178 60.5 163 64 156.937822 60.5 156.937822 53.5"></polygon>
                            <polygon points="139 49 145.062178 52.5 145.062178 59.5 139 63 132.937822 59.5 132.937822 52.5"></polygon>
                            <polygon points="157 60 163.062178 63.5 163.062178 70.5 157 74 150.937822 70.5 150.937822 63.5"></polygon>
                            <polygon points="169 60 175.062178 63.5 175.062178 70.5 169 74 162.937822 70.5 162.937822 63.5"></polygon>
                            <polygon points="175 70 181.062178 73.5 181.062178 80.5 175 84 168.937822 80.5 168.937822 73.5"></polygon>
                            <polygon points="151 69 157.062178 72.5 157.062178 79.5 151 83 144.937822 79.5 144.937822 72.5"></polygon>
                            <polygon points="169 80 175.062178 83.5 175.062178 90.5 169 94 162.937822 90.5 162.937822 83.5"></polygon>
                            <polygon points="193 60 199.062178 63.5 199.062178 70.5 193 74 186.937822 70.5 186.937822 63.5"></polygon>
                            <polygon points="199 70 205.062178 73.5 205.062178 80.5 199 84 192.937822 80.5 192.937822 73.5"></polygon>
                            <polygon points="175 70 181.062178 73.5 181.062178 80.5 175 84 168.937822 80.5 168.937822 73.5"></polygon>
                            <polygon points="193 80 199.062178 83.5 199.062178 90.5 193 94 186.937822 90.5 186.937822 83.5"></polygon>
                            <polygon points="217 60 223.062178 63.5 223.062178 70.5 217 74 210.937822 70.5 210.937822 63.5"></polygon>
                            <polygon points="223 70 229.062178 73.5 229.062178 80.5 223 84 216.937822 80.5 216.937822 73.5"></polygon>
                            <polygon points="199 70 205.062178 73.5 205.062178 80.5 199 84 192.937822 80.5 192.937822 73.5"></polygon>
                            <polygon points="217 80 223.062178 83.5 223.062178 90.5 217 94 210.937822 90.5 210.937822 83.5"></polygon>
                            <polygon points="199 30 205.062178 33.5 205.062178 40.5 199 44 192.937822 40.5 192.937822 33.5"></polygon>
                            <polygon points="205 40 211.062178 43.5 211.062178 50.5 205 54 198.937822 50.5 198.937822 43.5"></polygon>
                            <polygon points="181 40 187.062178 43.5 187.062178 50.5 181 54 174.937822 50.5 174.937822 43.5"></polygon>
                            <polygon points="199 50 205.062178 53.5 205.062178 60.5 199 64 192.937822 60.5 192.937822 53.5"></polygon>
                            <polygon points="175 30 181.062178 33.5 181.062178 40.5 175 44 168.937822 40.5 168.937822 33.5"></polygon>
                            <polygon points="181 40 187.062178 43.5 187.062178 50.5 181 54 174.937822 50.5 174.937822 43.5"></polygon>
                            <polygon points="157 40 163.062178 43.5 163.062178 50.5 157 54 150.937822 50.5 150.937822 43.5"></polygon>
                            <polygon points="175 50 181.062178 53.5 181.062178 60.5 175 64 168.937822 60.5 168.937822 53.5"></polygon>
                            <polygon points="229 40 235.062178 43.5 235.062178 50.5 229 54 222.937822 50.5 222.937822 43.5"></polygon>
                            <polygon points="205 40 211.062178 43.5 211.062178 50.5 205 54 198.937822 50.5 198.937822 43.5"></polygon>
                            <polygon points="253 60 259.062178 63.5 259.062178 70.5 253 74 246.937822 70.5 246.937822 63.5"></polygon>
                            <polygon points="223 50 229.062178 53.5 229.062178 60.5 223 64 216.937822 60.5 216.937822 53.5"></polygon>
                        </g>
                    </g>
                    <path d="M54.981586,46.44975 C54.1448734,47.2424193 54.4896391,45.6219195 57.010033,42.9193585 C57.6866355,41.7771142 58.3975555,40.6081221 59.1465123,39.4042894 L59.9280195,39.8904992 C60.823105,39.0326355 61.4345798,38.572016 62.0249252,38.2940529 C63.2375961,37.7230688 63.8446194,38.2321326 64.6171579,39.6949266 C65.2237173,40.8435906 65.4653139,41.0460898 66.0614803,40.783591 C66.3975729,40.6356057 67.1882788,39.5497119 69.0185841,36.7906856 C71.0892433,33.6696493 71.8113488,32.6912239 72.4609312,32.4271778 C73.143659,32.1496586 73.7240524,32.4104255 74.1400193,33.0409326 C74.399808,33.4347105 74.5594796,33.841873 74.874461,34.7947698 C75.3252256,36.1584422 75.5875921,36.6507261 75.8557703,36.6896577 C76.4716607,36.779067 77.056392,36.2198781 78.9575148,33.8946476 C80.4848197,32.0266274 81.39613,31.1674206 82.5211967,30.8368026 C83.651143,30.5047507 84.4384382,30.9419469 86.3539048,32.494994 C87.1476705,33.1385738 87.5369913,33.4275804 87.9782914,33.6710402 C88.4567505,33.9350001 88.8608235,34.0449183 89.219995,34.0043651 C89.5290658,33.9694686 89.9901632,33.5881446 92.1509251,31.6366681 C92.3267631,31.4778613 92.4814126,31.3392909 92.629333,31.20825 C94.2495171,29.7729479 95.2570853,29.0748889 96.0923547,29.0151605 C97.0959395,28.9433963 97.4636955,29.5672766 97.9592551,31.2435759 C98.4357147,32.8488207 98.7278357,33.303332 99.2319087,33.2777511 C99.8644537,33.2456505 100.676715,32.7668908 102.882904,31.2351056 C105.194302,29.6361178 106.26134,29.0496353 107.243434,29.014212 C108.265994,28.9773291 108.676968,29.5681388 109.301792,31.191603 C109.801042,32.488608 110.069472,32.8696004 110.501944,32.8588115 C111.480308,32.8344043 112.543288,32.3727383 115.118239,30.9957552 C117.868036,29.5255656 119.048483,29.0230583 120.273873,29.013901 C121.525306,29.004549 122.24118,29.5547164 123.504222,31.0567612 C124.581815,32.337742 125.089476,32.7333705 125.842593,32.7431444 C127.340268,32.7625812 128.708322,32.2461898 131.175744,30.9330855 C134.260766,29.2913084 135.170394,28.9141789 136.573367,29.0151776 C137.974168,29.1160201 139.149047,29.9812051 140.68224,31.6822966 C140.684177,31.6844458 141.821665,32.9794665 142.105071,33.2726458 C142.538253,33.7207652 142.855524,33.9615048 143.07115,34.0169737 C143.300643,34.0760096 142.587604,34.201018 146.673879,33.4230065 C147.58076,33.2503396 148.335332,33.1213491 149.062043,33.0206212 C151.581427,32.6714147 153.413433,32.717115 154.597212,33.3336488 C155.175486,33.6348249 155.1939,34.2130119 154.900826,34.9340415 C154.732872,35.347246 154.580675,35.6180488 153.984298,36.619203 C153.084541,38.1425068 152.897161,38.7587814 153.097198,38.8697152 C153.441358,39.0605739 154.326931,38.9893036 157.611511,38.5583637 C158.285018,38.469999 158.785459,38.4077416 159.279473,38.3526326 C162.540299,37.9888763 164.547756,38.0730456 165.670331,38.9053263 C166.590622,39.5876326 166.271773,40.3998532 164.702226,43.1110362 C164.011042,44.3056046 163.721073,44.8596208 163.545537,45.3747226 C163.510709,45.4769236 163.624099,45.6485699 164.072846,45.9130359 C164.652639,46.2547341 165.621494,46.6045445 166.967452,46.9513384 C167.649779,47.0827368 168.043502,47.0190098 168.556771,46.9051008 C169.390588,46.720053 170.186508,46.5006271 172.218658,45.9135834 C175.81772,44.8739868 177.07797,44.572245 177.826263,44.7233308 C178.596259,44.878799 178.733726,45.5053831 178.407321,46.2071866 C178.235284,46.5770826 178.187795,46.6473599 177.393233,47.7694765 C176.682527,48.8095349 176.455323,49.2516314 176.405835,49.5673541 C176.366321,49.8194417 176.436658,49.92675 176.787288,50.0305586 C178.253846,50.4647523 183.351091,50.4647523 191.930839,50.0106868 L192.933107,49.9576438 L192.371742,50.7896441 C189.726851,54.7096413 188.888256,57.2749616 189.675571,58.4148234 C190.279777,58.3313789 190.404476,58.3122671 190.526741,58.2945543 C192.65879,57.9856782 194.413281,58.150741 196.283078,59.242321 C197.285697,59.8276462 198.457716,61.6376891 199.893968,64.7290512 L200.152731,65.2860099 L196.040993,66.2520293 L194.31674,69.8694373 L199.838391,75.6915249 L197.259649,83.5547595 L211.932546,83.5547595 C215.266518,81.7513657 218.314058,80.791209 221.077767,80.6823372 C223.848473,80.5731897 228.04775,81.2550424 233.696907,82.7234279 L234.923602,83.0422828 L233.809602,83.6468098 C230.881575,85.2357425 228.468757,87.1364223 226.568039,89.3485661 C224.785116,91.4236146 223.027616,94.2672191 221.299882,97.8780872 C227.238125,97.456031 231.285325,97.6537713 233.485595,98.4926521 C238.067254,100.239468 241.980891,105.004915 242.452437,107.478053 C242.551947,107.999954 242.197766,108.267317 241.64646,108.400185 C241.342838,108.47336 240.963146,108.517043 240.266848,108.571278 C237.745055,108.767704 237.146879,108.833841 235.87883,109.142103 C234.789962,109.406805 233.842204,109.776608 233.037907,110.276646 C231.137647,111.458053 228.206198,114.399537 224.275951,119.082549 C229.458228,118.376113 233.912186,118.828379 237.632115,120.44856 C241.683701,122.213191 244.662619,125.276096 246.554567,129.615172 L246.875926,130.352191 L246.072779,130.314463 C241.689563,130.108562 237.807191,130.714113 234.421263,132.127469 C231.2658,133.444625 228.536455,135.465355 226.229017,138.19465 C230.51873,139.423967 233.912147,141.306452 236.401368,143.846726 C239.029634,146.528899 241.04055,150.343298 242.4423,155.283925 L242.938706,157.033562 L241.617639,155.783589 C237.892131,152.258566 233.861069,149.918454 229.520716,148.756454 C225.196799,147.598855 219.448082,147.310505 212.281027,147.898465 L209.236231,150.889363 L198.91404,145.888354 L205.393164,154.79993 L197.549546,162.589591 C189.69306,162.870456 184.038042,163.508489 180.40228,164.504611 C178.50903,165.023322 169.624958,167.515857 166.981052,168.27717 C164.270529,169.057666 152.8038,172.451481 149.788877,173.367874 C146.625044,174.329528 135.066519,177.93251 132.37483,178.789914 C129.21519,179.796377 117.125456,183.73517 114.215189,184.702852 C111.289009,185.675825 99.3301217,189.729956 96.2912857,190.779793 L95.9647494,189.834609 C99.0072417,188.783508 110.9698,184.728132 113.899667,183.753933 C116.813851,182.784949 128.907581,178.844855 132.071319,177.837086 C134.7671,176.978379 146.329837,173.374084 149.498062,172.411095 C152.517666,171.493279 163.989098,168.098072 166.704345,167.316216 C169.35252,166.553673 178.240735,164.059976 180.138039,163.540155 C183.832762,162.527878 189.48991,161.88457 197.12253,161.604312 L204.080171,154.694533 L195.758135,143.248162 L209.038133,149.682202 L211.837966,146.93193 C219.373996,146.30041 225.292287,146.589202 229.779328,147.790473 C233.76252,148.856854 237.487741,150.874692 240.95241,153.839294 C239.636549,149.880289 237.879612,146.78408 235.68712,144.546619 C233.190782,141.999082 229.707336,140.133926 225.227442,138.956614 L224.486479,138.76189 L224.963029,138.16202 C227.473365,135.002069 230.49943,132.6809 234.036055,131.20464 C237.351644,129.820644 241.108661,129.182175 245.303455,129.28621 C243.504799,125.561272 240.81854,122.92711 237.232804,121.365375 C233.396163,119.694361 228.698093,119.32513 223.131336,120.269398 L221.806321,120.494155 L222.662229,119.458007 C227.085643,114.103101 230.354971,110.767143 232.50992,109.427394 C233.412613,108.866182 234.457354,108.458537 235.64261,108.170403 C236.984179,107.844269 237.606346,107.775479 240.189192,107.574298 C240.823266,107.524909 241.170745,107.4852 241.404167,107.42993 C241.151639,106.700441 240.31587,105.269526 239.261181,103.985282 C237.595229,101.956733 235.524018,100.340042 233.129347,99.4270434 C231.006336,98.6176186 226.786822,98.4468202 220.521487,98.9391715 L219.669159,99.0061504 L220.028671,98.2304564 C221.909172,94.1730329 223.83436,90.9956979 225.809561,88.696867 C227.550056,86.6711987 229.695863,84.9008768 232.244881,83.3857096 C227.287571,82.1516944 223.57267,81.5848302 221.11713,81.6815622 C218.491272,81.7850036 215.551011,82.719606 212.29904,84.4936912 L195.879298,84.5547595 L198.702275,75.9467891 L193.1185,70.0591972 L195.34488,65.3883471 L198.724692,64.5942881 C197.496203,62.0316874 196.488494,60.5201789 195.778909,60.105926 C194.14118,59.1498267 192.599174,59.0047545 190.670117,59.2842226 C190.783157,59.2678461 189.992147,59.3881585 189.836314,59.4042614 C189.439151,59.445302 189.218764,59.424658 189.015479,59.1921957 C187.730782,57.7231103 188.445931,55.0340593 190.996096,51.0603655 C182.857466,51.4711354 178.070506,51.4533782 176.503405,50.9894176 C175.678737,50.745264 175.299646,50.1669113 175.417897,49.412498 C175.497057,48.9074823 175.775281,48.3661104 176.269109,47.6351156 C176.359698,47.5010202 176.455945,47.3627136 176.577116,47.1915904 C177.30882,46.1582438 177.367839,46.0709037 177.500592,45.7854717 C177.068498,45.6189476 175.674322,45.9562897 172.543924,46.8605111 C167.889423,48.2050942 166.887148,48.460975 166.493995,47.8611396 C163.5611,47.0822995 162.193705,46.2414426 162.598989,45.0521585 C162.803827,44.4510722 163.109852,43.8663802 163.796307,42.6799611 C164.951068,40.685249 165.27591,39.8577623 165.07476,39.7086289 C164.242861,39.0918565 162.374861,39.0135344 159.390339,39.346468 C158.903965,39.4007247 158.409251,39.4622696 157.741597,39.5498664 C153.876831,40.0569273 153.264869,40.1061776 152.612217,39.7442401 C151.583232,39.1736007 151.868465,38.2354964 152.997871,36.3219761 C153.687223,35.1639085 153.834338,34.902148 153.974429,34.5574926 C153.195619,33.7311717 151.520714,33.6893904 149.199338,34.0111514 C148.491803,34.1092214 147.752668,34.2355729 146.860915,34.4053594 C146.758728,34.4248155 144.861292,34.7975413 144.419653,34.8749686 C143.590593,35.0203175 143.127629,35.0640602 142.822016,34.9854427 C142.374043,34.8702038 141.940627,34.5413356 141.386082,33.9676673 C141.083125,33.654263 139.926441,32.3373874 139.939426,32.3517944 C138.571183,30.8337161 137.559571,30.0887614 136.501564,30.0125964 C135.375766,29.9315512 134.518216,30.2870892 131.645537,31.815862 C129.032489,33.2064655 127.551702,33.7654094 125.829616,33.7430602 C124.678037,33.728115 124.000451,33.2000607 122.812568,31.7880188 C121.663121,30.4210624 121.125085,30.0075678 120.281345,30.0138731 C119.291096,30.0212732 118.165956,30.5002365 115.65825,31.8409869 C112.840716,33.3476908 111.733916,33.8283886 110.526883,33.8585005 C109.464801,33.8849963 109.028843,33.2662264 108.393513,31.6157191 C107.909711,30.3586617 107.660106,29.9998332 107.27948,30.0135621 C106.576326,30.0389243 105.570768,30.5916153 103.699524,31.8857985 C101.001385,33.7588714 100.202435,34.2297853 99.2825917,34.2764659 C98.0958214,34.3366927 97.6099538,33.5807304 97.077259,31.7876063 C96.6534912,30.3540049 96.440581,29.992813 96.1636804,30.0126136 C95.6493424,30.0493928 94.7140963,30.697346 93.2924413,31.9567735 C93.1471598,32.0854767 92.9948105,32.2219859 92.8211774,32.3788014 C90.1793375,34.76476 89.9865848,34.924165 89.3321899,34.9980513 C88.73854,35.065079 88.139723,34.9021854 87.4952387,34.5466315 C86.9841753,34.2646842 86.5645919,33.9532125 85.7241112,33.2717565 C84.1102995,31.9632891 83.4612209,31.6028466 82.8031401,31.7962336 C81.9491157,32.0472017 81.1224537,32.8266 79.7316905,34.5276184 C77.4533162,37.3142585 76.8924403,37.8506342 75.7121055,37.6792841 C74.8566832,37.5551018 74.5327975,36.947388 73.9427873,35.1624707 C73.6409789,34.2494206 73.4969085,33.8820412 73.3053078,33.5916201 C72.4925943,33.4937658 71.6356638,34.654874 69.8842882,37.2946625 C67.7213877,40.5550449 67.088688,41.4239453 66.4644576,41.698801 C65.1919389,42.2591053 64.5611393,41.7303876 63.7664224,40.2254218 C63.1868386,39.1279636 62.9763024,38.9514031 62.4509148,39.1987809 C61.5729466,39.6121707 60.4565899,40.6848893 57.9686088,43.3574263 C50.1651383,56.4571802 46.9524187,65.9460355 42.6489036,84.042798 C38.7150837,100.57964 36.0651352,108.63591 29.880244,120.108971 L29,119.63445 C35.1342736,108.255285 37.7607429,100.270395 41.5771935,84.2270282 C45.6129283,67.2563629 48.6525395,57.838954 54.981586,46.44975 Z" id="face" fill="#000000" fill-rule="nonzero" opacity="0.5" mask="url(#mask-2)"></path>
                </g>
            </g>
        </g>
    </g>
</svg>