<?xml version="1.0" encoding="UTF-8"?>
<svg width="480px" height="300px" viewBox="0 0 480 300" version="1.1" xmlns="http://www.w3.org/2000/svg" xmlns:xlink="http://www.w3.org/1999/xlink">
    <!-- Generator: Sketch 50.2 (55047) - http://www.bohemiancoding.com/sketch -->
    <title>Artboard</title>
    <desc>Created with Sketch.</desc>
    <defs></defs>
    <g id="Artboard" stroke="none" stroke-width="1" fill="none" fill-rule="evenodd">
        <rect id="Frame" fill="#E6E6E6" x="0" y="0" width="480" height="300"></rect>
        <g id="Avatars" transform="translate(87.000000, 27.000000)">
            <g id="Dragonborn" transform="translate(0.000000, 6.000000)">
                <g id="Male">
                    <path d="M0,174.581498 C3.42721519,174.581498 1.35840169,158.455839 3.42721519,154.063094 C3.65890254,153.571148 25.4523906,129.273642 28.3747363,121.635791 C29.224768,119.414146 35.3135828,114.725131 28.3747363,110.553093 C21.5627896,106.457355 17.0822126,107.030029 19.155327,102.50634 C21.2284415,97.9826519 29.0965437,93.0985581 28.3747363,90.186272 C27.9788433,88.5889572 29.3687133,85.9789962 27.4978903,81.5120192 C26.98238,80.2811318 25.2420495,78.0489447 22.2768987,74.8154579 C24.9395312,72.1748931 26.7884681,70.464066 27.8237094,69.6829766 C31.0701896,67.2335079 33.0225889,66.5541982 33.6809072,65.07774 C26.8412828,55.2033537 25.0725591,49.9741564 28.3747363,49.3901482 C29.5409565,49.1838958 40.3218283,50.5824266 48.1739188,46.647341 C55.0117676,43.220544 60.5668105,37.5627717 60.7829641,36.5536098 C61.9450837,31.1279917 86.5048445,8.9605845 96.0371835,4.35194963 C99.7799216,2.54243438 110.182083,-1.74990175 108.272943,1.94509867 C105.465243,7.37919595 104.902674,6.27253878 111.344409,4.49234927 C115.250037,3.41301928 120.602606,0.27699274 124.652426,0.149988992 C164.213732,-1.09066702 105.175494,5.68970457 122.748418,8.54889599 C126.626064,9.17980602 136.844432,5.85951365 147.67119,4.95314362 C156.710484,4.19641234 166.562442,5.90006943 169.832542,5.64563202 C175.111091,5.23492277 180.444891,5.14814492 185.715981,5.64563202 C189.076204,5.96277089 206.562857,9.2891661 209.656382,10.6398478 C210.268409,10.9070685 196.439795,9.8039857 195.822257,10.0581921 L193.131593,11.7028736 C185.54689,14.8250783 166.459204,13.3008826 170.193302,20.6082222 C174.682152,29.3925523 206.116242,15.9268383 200.827795,24.2535985 L219.697521,23.9828278 C217.94809,26.7373409 193.625842,27.9990532 195.446466,30.7069677 C197.864177,34.3029614 204.155244,31.3005247 208.313555,32.5121059 C212.019715,33.5919469 226.426688,30.3108401 246.72943,39.1209175 C267.032173,47.9309949 238.884688,40.6772117 232.583741,42.3246965 C226.33308,43.9590331 220.132698,45.5705868 221.280854,46.647341 L212.792985,48.4424507 C208.313555,48.6380073 211.870894,45.379381 214.867352,45.1631162 C221.506072,44.6839769 235.218654,49.0631121 241.598629,52.8650393 C259.41179,63.4801829 278.177621,83.7334067 285.526108,102.50634 C286.75883,105.655535 266.414531,91.3300843 268.861023,95.3208874 C273.289121,102.544153 254.439523,82.0642397 256.860759,90.186272 L244.980749,84.4248726 C247.330757,92.307971 273.038778,106.801592 281.678006,125.486753 C283.426284,129.267976 265.774494,119.439985 267.578323,125.486753 C268.370204,128.141285 295.797732,168.408928 290.120781,163.645369 C284.548042,158.969255 252.103818,137.265829 252.837289,144.616204 C253.057893,146.826956 273.670275,158.168612 285.526108,173.297844 C299.380677,190.977665 304.676521,212.495877 303.168249,210.383406 C296.473283,201.0065 241.569139,165.986972 241.598629,176.60225 C241.609928,180.669537 276.802743,201.05642 283.461762,206.833301 C290.120781,212.610183 262.424472,203.408744 272.699103,213.893836 C281.194635,222.563387 283.302354,220.730982 286.808808,228.555131 C288.451992,232.221661 293.420786,245.036617 301.71519,267 L268.861023,267 L232.143724,267 L195.696994,267 L110.061709,267 L61.905327,267 L19.155327,267 C24.9285116,255.186778 28.001648,248.270424 28.3747363,246.250939 C33.9165325,216.25382 67.2041953,239.400639 90.2374736,220.013756 C92.2422094,218.32639 101.706379,187.910909 99.2639768,188.862147 C95.0868013,190.489025 56.154272,201.91914 53.3673523,201.693671 C40.7989609,200.676859 41.1831175,198.949438 33.6809072,197.140712 C28.5016562,195.892033 22.3417352,202.272121 19.2755041,202.474631 C14.1582267,202.812602 10.5123801,196.119039 3.42721519,193.28975 L0,174.581498 Z" id="Path-2" fill="#600000"></path>
                    <path d="M31.6282813,117.300474 L30.7480373,116.825953 C36.8823109,105.446788 39.5087802,97.4618987 43.3252308,81.4185315 C43.3746536,81.2107511 43.3746536,81.2107511 43.4240713,81.0029472 C48.1381295,61.179805 51.5656816,51.5905108 60.8945496,36.5957927 L61.7436361,37.1240465 C52.4832395,52.0087075 49.0881937,61.5070585 44.3969409,81.2343013 C44.347519,81.4421229 44.347519,81.4421229 44.2980835,81.649957 C40.463121,97.7711431 37.8131725,105.827413 31.6282813,117.300474 Z" id="Path-20" fill="#000000" fill-rule="nonzero" opacity="0.3"></path>
                    <path d="M207.141201,151.991433 L199.297583,159.781094 C191.441097,160.061959 185.786079,160.699992 182.150317,161.696114 C180.257067,162.214825 171.372995,164.70736 168.729089,165.468673 C166.018566,166.249169 154.551837,169.642984 151.536914,170.559377 C148.373081,171.521031 136.814556,175.124013 134.122867,175.981417 C130.963227,176.98788 118.873493,180.926673 115.963226,181.894355 C113.037046,182.867328 101.078159,186.921459 98.039323,187.971296 L97.7127867,187.026112 C100.755279,185.975011 112.717837,181.919635 115.647704,180.945436 C118.561888,179.976452 130.655618,176.036358 133.819356,175.028589 C136.515137,174.169882 148.077874,170.565587 151.246099,169.602598 C154.265703,168.684782 165.737135,165.289575 168.452382,164.507719 C171.100557,163.745176 179.988772,161.251479 181.886076,160.731658 C185.580799,159.719381 191.237947,159.076073 198.870567,158.795815 L205.828208,151.886036 L197.506172,140.439665 L210.78617,146.873705 L213.586003,144.123433 C221.122033,143.491913 227.040324,143.780705 231.527365,144.981976 C235.510557,146.048357 239.235778,148.066195 242.700447,151.030797 C241.384586,147.071792 239.627649,143.975583 237.435157,141.738122 C234.938819,139.190585 231.455373,137.325429 226.975479,136.148117 L226.234516,135.953393 L226.711066,135.353523 C229.221402,132.193572 232.247467,129.872403 235.784092,128.396143 C239.099681,127.012147 242.856698,126.373678 247.051492,126.477713 C245.252836,122.752775 242.566577,120.118613 238.980841,118.556878 C235.1442,116.885864 230.44613,116.516633 224.879373,117.460901 L223.554358,117.685658 L224.410266,116.64951 C228.83368,111.294604 232.103008,107.958646 234.257957,106.618897 C235.16065,106.057685 236.205391,105.65004 237.390647,105.361906 C238.732216,105.035772 239.354383,104.966982 241.937229,104.765801 C242.571303,104.716412 242.918782,104.676703 243.152204,104.621433 C242.899676,103.891944 242.063907,102.461029 241.009218,101.176785 C239.343266,99.148236 237.272055,97.5315453 234.877384,96.6185467 C232.754373,95.8091219 228.534859,95.6383235 222.269524,96.1306748 L221.417196,96.1976537 L221.776708,95.4219597 C223.657209,91.3645362 225.582397,88.1872012 227.557598,85.8883703 C229.298093,83.862702 231.4439,82.0923801 233.992918,80.5772129 C229.035608,79.3431977 225.320707,78.7763335 222.865167,78.8730655 C220.239309,78.9765069 217.299048,79.9111093 214.047077,81.6851945 L197.627335,81.7462628 L200.450312,73.1382924 L194.866537,67.2507005 L197.092917,62.5798504 L200.472729,61.7857914 C199.24424,59.2231907 198.236531,57.7116822 197.526946,57.2974293 C195.889217,56.34133 194.347211,56.1962578 192.418154,56.4757259 C192.531194,56.4593494 191.740184,56.5796618 191.584351,56.5957647 C191.187188,56.6368053 190.966801,56.6161613 190.763516,56.383699 C189.478819,54.9146136 190.193968,52.2255626 192.744133,48.2518688 C184.605503,48.6626387 179.818543,48.6448815 178.251442,48.1809209 C177.426774,47.9367673 177.047683,47.3584146 177.165934,46.6040013 C177.245094,46.0989856 177.523318,45.5576137 178.017146,44.8266189 C178.107735,44.6925235 178.203982,44.5542169 178.325153,44.3830937 C179.056857,43.3497471 179.115876,43.262407 179.248629,42.976975 C178.816535,42.8104509 177.422359,43.147793 174.291961,44.0520144 C169.63746,45.3965975 168.635185,45.6524783 168.242032,45.0526429 C165.309137,44.2738028 163.941742,43.4329459 164.347026,42.2436618 C164.551864,41.6425755 164.857889,41.0578835 165.544344,39.8714644 C166.699105,37.8767523 167.023947,37.0492656 166.822797,36.9001322 C165.990898,36.2833598 164.122898,36.2050377 161.138376,36.5379713 C160.652002,36.592228 160.157288,36.6537729 159.489634,36.7413697 C155.624868,37.2484306 155.012906,37.2976809 154.360254,36.9357434 C153.331269,36.365104 153.616502,35.4269997 154.745908,33.5134794 C155.43526,32.3554118 155.582375,32.0936513 155.722466,31.7489959 C154.943656,30.922675 153.268751,30.8808937 150.947375,31.2026547 C150.23984,31.3007247 149.500705,31.4270762 148.608952,31.5968627 C148.506765,31.6163188 146.609329,31.9890446 146.16769,32.0664719 C145.33863,32.2118208 144.875666,32.2555635 144.570053,32.176946 C144.12208,32.0617071 143.688664,31.7328389 143.134119,31.1591706 C142.831162,30.8457663 141.674478,29.5288907 141.687463,29.5432977 C140.31922,28.0252194 139.307608,27.2802647 138.249601,27.2040997 C137.123803,27.1230545 136.266253,27.4785925 133.393574,29.0073653 C130.780526,30.3979688 129.299739,30.9569127 127.577653,30.9345635 C126.426074,30.9196183 125.748488,30.391564 124.560605,28.9795221 C123.411158,27.6125657 122.873122,27.1990711 122.029382,27.2053764 C121.039133,27.2127765 119.913993,27.6917398 117.406287,29.0324902 C114.588753,30.5391941 113.481953,31.0198919 112.27492,31.0500038 C111.212838,31.0764996 110.77688,30.4577297 110.14155,28.8072224 C109.657748,27.550165 109.408143,27.1913365 109.027517,27.2050654 C108.324363,27.2304276 107.318805,27.7831186 105.447561,29.0773018 C102.749422,30.9503747 101.950472,31.4212886 101.030629,31.4679692 C99.8438587,31.528196 99.3579911,30.7722337 98.8252963,28.9791096 C98.4015285,27.5455082 98.1886183,27.1843163 97.9117177,27.2041169 C97.3973797,27.2408961 96.4621336,27.8888493 95.0404786,29.1482768 C94.8951971,29.27698 94.7428478,29.4134892 94.5692147,29.5703047 C91.9273748,31.9562633 91.7346221,32.1156683 91.0802272,32.1895546 C90.4865773,32.2565823 89.8877603,32.0936887 89.243276,31.7381348 C88.7322126,31.4561875 88.3126292,31.1447158 87.4721485,30.4632598 C85.8583368,29.1547924 85.2092582,28.7943499 84.5511774,28.9877369 C83.697153,29.238705 82.870491,30.0181033 81.4797278,31.7191217 C79.2013535,34.5057618 78.6404776,35.0421375 77.4601428,34.8707874 C76.6047205,34.7466051 76.2808348,34.1388913 75.6908246,32.353974 C75.3890162,31.4409239 75.2449458,31.0735445 75.0533451,30.7831234 C74.2406316,30.6852691 73.3837011,31.8463773 71.6323255,34.4861658 C69.469425,37.7465482 68.8367253,38.6154486 68.2124949,38.8903043 C66.9399762,39.4506086 66.3091766,38.9218909 65.5144597,37.4169251 C64.9348759,36.3194669 64.7243397,36.1429064 64.1989521,36.3902842 C63.3209839,36.803674 62.2046272,37.8763926 59.7166461,40.5489296 C56.8639938,43.6135262 55.8176284,44.6243554 54.7770475,45.0843402 L54.3727416,44.1697163 C55.2229853,43.7938694 56.2843065,42.7685922 58.9305616,39.9257251 C61.6019311,37.0561924 62.7209934,35.980874 63.7729625,35.4855562 C64.9856334,34.9145721 65.5926567,35.4236359 66.3651952,36.8864299 C66.9717546,38.0350939 67.2133512,38.2375931 67.8095176,37.9750943 C68.1456102,37.827109 68.9363161,36.7412152 70.7666214,33.9821889 C72.8372806,30.8611526 73.5593861,29.8827272 74.2089685,29.6186811 C74.8916963,29.3411619 75.4720897,29.6019288 75.8880566,30.2324359 C76.1478453,30.6262138 76.3075169,31.0333763 76.6224983,31.9862731 C77.0732629,33.3499455 77.3356294,33.8422294 77.6038076,33.881161 C78.219698,33.9705703 78.8044293,33.4113814 80.7055521,31.0861509 C82.232857,29.2181307 83.1441673,28.3589239 84.269234,28.0283059 C85.3991803,27.696254 86.1864755,28.1334502 88.1019421,29.6864973 C88.8957078,30.3300771 89.2850286,30.6190837 89.7263287,30.8625435 C90.2047878,31.1265034 90.6088608,31.2364216 90.9680323,31.1958684 C91.2771031,31.1609719 91.7382005,30.7796479 93.8989624,28.8281714 C94.0748004,28.6693646 94.2294499,28.5307942 94.3773703,28.3997533 C95.9975544,26.9644512 97.0051226,26.2663922 97.840392,26.2066638 C98.8439768,26.1348996 99.2117328,26.7587799 99.7072924,28.4350792 C100.183752,30.040324 100.475873,30.4948353 100.979946,30.4692544 C101.612491,30.4371538 102.424752,29.9583941 104.630941,28.4266089 C106.942339,26.8276211 108.009377,26.2411386 108.991471,26.2057153 C110.014031,26.1688324 110.425005,26.7596421 111.049829,28.3831063 C111.549079,29.6801113 111.817509,30.0611037 112.249981,30.0503148 C113.228345,30.0259076 114.291325,29.5642416 116.866276,28.1872585 C119.616073,26.7170689 120.79652,26.2145616 122.02191,26.2054043 C123.273343,26.1960523 123.989217,26.7462197 125.252259,28.2482645 C126.329852,29.5292453 126.837513,29.9248738 127.59063,29.9346477 C129.088305,29.9540845 130.456359,29.4376931 132.923781,28.1245888 C136.008803,26.4828117 136.918431,26.1056822 138.321404,26.2066809 C139.722205,26.3075234 140.897084,27.1727084 142.430277,28.8737999 C142.432214,28.8759491 143.569702,30.1709698 143.853108,30.4641491 C144.28629,30.9122685 144.603561,31.1530081 144.819187,31.208477 C145.04868,31.2675129 144.335641,31.3925213 148.421916,30.6145098 C149.328797,30.4418429 150.083369,30.3128524 150.81008,30.2121245 C153.329464,29.862918 155.16147,29.9086183 156.345249,30.5251521 C156.923523,30.8263282 156.941937,31.4045152 156.648863,32.1255448 C156.480909,32.5387493 156.328712,32.8095521 155.732335,33.8107063 C154.832578,35.3340101 154.645198,35.9502847 154.845235,36.0612185 C155.189395,36.2520772 156.074968,36.1808069 159.359548,35.749867 C160.033055,35.6615023 160.533496,35.5992449 161.02751,35.5441359 C164.288336,35.1803796 166.295793,35.2645489 167.418368,36.0968296 C168.338659,36.7791359 168.01981,37.5913565 166.450263,40.3025395 C165.759079,41.4971079 165.46911,42.0511241 165.293574,42.5662259 C165.258746,42.6684269 165.372136,42.8400732 165.820883,43.1045392 C166.400676,43.4462374 167.369531,43.7960478 168.715489,44.1428417 C169.397816,44.2742401 169.791539,44.2105131 170.304808,44.0966041 C171.138625,43.9115563 171.934545,43.6921304 173.966695,43.1050867 C177.565757,42.0654901 178.826007,41.7637483 179.5743,41.9148341 C180.344296,42.0703023 180.481763,42.6968864 180.155358,43.3986899 C179.983321,43.7685859 179.935832,43.8388632 179.14127,44.9609798 C179.023981,45.1266201 178.931628,45.2593325 178.845781,45.3864081 C178.430564,46.0010382 178.20336,46.4431347 178.153872,46.7588574 C178.114358,47.010945 178.184695,47.1182533 178.535325,47.2220619 C180.001883,47.6562556 185.099128,47.6562556 193.678876,47.2021901 L194.681144,47.1491471 L194.119779,47.9811474 C191.474888,51.9011446 190.636293,54.4664649 191.423608,55.6063267 C192.027814,55.5228822 192.152513,55.5037704 192.274778,55.4860576 C194.406827,55.1771815 196.161318,55.3422443 198.031115,56.4338243 C199.033734,57.0191495 200.205753,58.8291924 201.642005,61.9205545 L201.900768,62.4775132 L197.78903,63.4435326 L196.064777,67.0609406 L201.586428,72.8830282 L199.007686,80.7462628 L213.680583,80.7462628 C217.014555,78.942869 220.062095,77.9827123 222.825804,77.8738405 C225.59651,77.764693 229.795787,78.4465457 235.444944,79.9149312 L236.671639,80.2337861 L235.557639,80.8383131 C232.629612,82.4272458 230.216794,84.3279256 228.316076,86.5400694 C226.533153,88.6151179 224.775653,91.4587224 223.047919,95.0695905 C228.986162,94.6475343 233.033362,94.8452746 235.233632,95.6841554 C239.815291,97.4309709 243.728928,102.196418 244.200474,104.669556 C244.299984,105.191457 243.945803,105.45882 243.394497,105.591688 C243.090875,105.664863 242.711183,105.708546 242.014885,105.762781 C239.493092,105.959207 238.894916,106.025344 237.626867,106.333606 C236.537999,106.598308 235.590241,106.968111 234.785944,107.468149 C232.885684,108.649556 229.954235,111.59104 226.023988,116.274052 C231.206265,115.567616 235.660223,116.019882 239.380152,117.640063 C243.431738,119.404694 246.410656,122.467599 248.302604,126.806675 L248.623963,127.543694 L247.820816,127.505966 C243.4376,127.300065 239.555228,127.905616 236.1693,129.318972 C233.013837,130.636128 230.284492,132.656858 227.977054,135.386153 C232.266767,136.61547 235.660184,138.497955 238.149405,141.038229 C240.777671,143.720402 242.788587,147.534801 244.190337,152.475428 L244.686743,154.225065 L243.365676,152.975092 C239.640168,149.450069 235.609106,147.109957 231.268753,145.947957 C226.944836,144.790358 221.196119,144.502008 214.029064,145.089968 L210.984268,148.080866 L200.662077,143.079857 L207.141201,151.991433 Z M168.916575,44.2815623 C168.910578,44.2789951 168.904854,44.27701 168.899494,44.2755726 C168.901481,44.2761055 168.903603,44.2766257 168.905857,44.2771322 L168.916575,44.2815623 Z M243.307998,104.574698 C243.31336,104.572421 243.316708,104.570738 243.317967,104.569787 C243.317591,104.570071 243.314268,104.571708 243.307998,104.574698 Z" id="Path-19" fill="#000000" fill-rule="nonzero" opacity="0.3"></path>
                </g>
            </g>
        </g>
    </g>
</svg>