<?xml version="1.0" encoding="UTF-8"?>
<svg width="480px" height="300px" viewBox="0 0 480 300" version="1.1" xmlns="http://www.w3.org/2000/svg" xmlns:xlink="http://www.w3.org/1999/xlink">
    <!-- Generator: Sketch 50.2 (55047) - http://www.bohemiancoding.com/sketch -->
    <title>Artboard</title>
    <desc>Created with Sketch.</desc>
    <defs>
        <path d="M0,171.916768 C3.43712075,171.916768 7.79436667,155.800241 9.86915959,151.409984 C10.1015166,150.918317 16.5211004,126.634572 19.4518924,119.001047 C20.304381,116.78066 28.7424082,106.64972 21.7835065,102.480045 C14.9518715,98.3866264 15.2078326,92.3535971 14.9695654,92.0111614 C14.4647853,91.2856957 18.597354,94.4695967 21.7835065,86.5261481 C23.7872008,81.5307052 19.7313731,73.5878049 19.4518924,72.4640673 C17.7452361,65.6019318 22.8745059,71.4986102 25.7632543,65.0421351 C21.7916298,58.092501 21.4616783,54.3258452 24.7733996,53.7421678 C25.9429904,53.5360321 30.8832739,50.7291786 38.758059,46.7963217 C45.6156711,43.3714655 51.7370104,34.9756438 51.9537887,33.9670534 C53.119267,28.5445083 75.1771966,6.38965588 84.7370866,1.78363118 C88.4906421,-0.0248592297 93.6282011,3.70313258 100.088554,1.9239513 C104.00547,0.845232604 96.4746247,-0.728152026 114.098339,2.12942005 C117.987193,2.75997275 125.662279,3.29034136 136.520329,2.38448467 C145.585749,1.62818198 161.794684,5.59578851 165.539574,12.8989894 C170.041398,21.6783444 183.89421,21.5685613 185.720096,24.2749422 C188.144795,27.8688992 194.454045,29.9998704 198.624374,31.2107653 C202.341247,32.2899948 215.623309,48.1106309 216.774784,49.1867752 L234.111139,81.8112036 C234.403941,82.7900245 240.805586,124.785462 253.316071,207.797517 L263.994994,262.233251 L253.407255,262.233251 C252.134933,246.243762 249.186916,231.553435 244.563202,218.162271 C235.772934,192.703966 224.263239,140.779468 223.819876,140.779468 C222.313087,140.779468 227.257465,164.00123 239.003006,204.205869 C242.378309,215.759434 247.444377,235.101894 254.20121,262.233251 L245.779259,262.233251 L221.237011,262.233251 L184.68494,262.233251 L98.8021465,262.233251 L50.5065799,262.233251 L21.7835065,262.233251 C25.0005616,245.501858 26.7961724,236.126991 27.170339,234.10865 C29.7110773,220.403322 34.3972111,214.507864 38.1497961,214.473488 C42.605915,214.432668 66.0968784,212.097704 78.6366998,201.579439 C80.6472298,199.893029 86.5634442,183.955702 84.1139829,184.906402 C79.9247342,186.532358 49.884534,199.238926 47.0895593,199.013585 C34.4848419,197.997349 40.0157399,196.270907 32.4918462,194.463204 C27.2976258,193.215233 28.8383475,199.591708 25.7632543,199.794102 C20.6311866,200.131882 16.9748025,193.44211 9.86915959,190.614424 L0,171.916768 Z" id="path-1"></path>
    </defs>
    <g id="Artboard" stroke="none" stroke-width="1" fill="none" fill-rule="evenodd">
        <rect id="Frame" fill="#E6E6E6" x="0" y="0" width="480" height="300"></rect>
        <g id="Avatars" transform="translate(87.000000, 29.000000)">
            <g id="Dragonborn" transform="translate(0.000000, 4.000000)">
                <g id="Female" transform="translate(21.000000, 4.000000)">
                    <mask id="mask-2" fill="white">
                        <use xlink:href="#path-1"></use>
                    </mask>
                    <use id="body" fill="{skin-color}" xlink:href="#path-1"></use>
                    <path d="M43.7866795,46.6641812 C45.9905571,44.1510437 47.4018031,42.7349227 48.0204177,42.4158182 C48.6247711,42.1040701 49.1818279,42.1710004 49.6230746,42.5763971 C49.9059537,42.8362931 50.0731948,43.1209515 50.386201,43.7702552 C50.9004365,44.8371305 51.0849174,45.0065315 51.5360234,44.7889258 C51.8099315,44.6567973 52.5124485,43.5998313 54.0868789,40.9997456 C55.9078125,37.9928653 56.5228529,37.0798824 57.1087935,36.8189483 C57.7528463,36.5321353 58.300109,36.8015105 58.6749198,37.4239184 C58.9015907,37.8003264 59.0403493,38.1879691 59.3146254,39.0970047 C59.6972762,40.3652253 59.931658,40.847021 60.1193688,40.8768748 C60.5981349,40.9530186 61.1199197,40.4063481 62.7395223,38.2361661 C64.0778561,36.4428695 64.8731978,35.6213515 65.8747979,35.2988926 C66.9086772,34.9660416 67.6035187,35.3887651 69.2994628,36.8952107 C69.9874022,37.5062823 70.3246405,37.7805464 70.7038636,38.0097492 C71.1050214,38.2522092 71.4368775,38.3511081 71.7237674,38.315621 C71.959725,38.286434 72.3919505,37.894833 74.2276009,36.0785721 C74.3807625,35.9270283 74.5154853,35.7947786 74.6443677,35.6696938 C76.072139,34.283993 76.9511589,33.6168049 77.7103891,33.5573265 C78.649169,33.4837821 78.9678572,34.0760789 79.4088117,35.7101889 C79.8158966,37.2127733 80.0683293,37.6430617 80.4455402,37.6220897 C80.9664211,37.5931301 81.6785063,37.1333123 83.5747776,35.6909066 C85.6051901,34.1520943 86.536799,33.5911231 87.4208541,33.5561891 C88.3695556,33.5187006 88.7275619,34.0825414 89.2821711,35.6612548 C89.7066001,36.8692388 89.9393669,37.23118 90.2584889,37.2224581 C91.0855681,37.1998535 92.0083008,36.7608069 94.2320634,35.4580005 C96.6431882,34.0457092 97.6744642,33.5647563 98.7664773,33.555816 C99.8969137,33.546561 100.529442,34.0791232 101.642716,35.5295606 C102.567152,36.7334786 103.000396,37.1033729 103.616099,37.112127 C104.895329,37.1303151 106.075949,36.6420926 108.209536,35.3981561 C110.916799,33.8197523 111.711825,33.4586419 112.963355,33.557347 C114.216466,33.6561769 115.248311,34.4886344 116.594713,36.1252157 C116.596911,36.1278873 117.586385,37.3620313 117.832388,37.6408337 C118.20143,38.0590805 118.471374,38.2834798 118.63852,38.3305858 C118.811683,38.3793873 118.279615,38.4815812 121.72664,37.7625713 C122.517669,37.5975718 123.176156,37.4742511 123.810813,37.3778774 C126.02412,37.0417827 127.637385,37.0858716 128.690989,37.6870389 C129.53857,38.1706535 129.363391,38.6428126 128.176076,40.8264398 C127.399374,42.2670437 127.231266,42.8727627 127.387084,42.9674307 C127.657221,43.1315528 128.450243,43.0616329 131.25353,42.6586967 C131.840431,42.5743373 132.276673,42.5148811 132.707533,42.4622247 C135.57137,42.1122287 137.337642,42.1933616 138.338918,43.006641 C139.148455,43.6641826 138.876862,44.4221293 137.505609,47.0171087 C136.903972,48.1562679 136.651728,48.6842557 136.498824,49.1758146 C136.404191,49.4800458 137.307898,50.0635295 139.439212,50.6651454 C139.993182,50.7872151 140.330447,50.7274104 140.771575,50.6201574 C141.494361,50.4444238 142.186371,50.2354161 143.952837,49.6763646 C147.123807,48.6729057 148.206691,48.3888573 148.885933,48.5391053 C149.602549,48.6976207 149.722033,49.2942764 149.435475,49.969275 C149.285507,50.3225314 149.243943,50.3899165 148.551875,51.4606748 C148.44985,51.6185258 148.36953,51.7449742 148.294884,51.866027 C147.933493,52.4520953 147.736034,52.8730256 147.692644,53.1762897 C147.657892,53.4191841 147.714004,53.5129702 147.99041,53.602623 C149.249717,54.0110811 153.684443,54.0110811 161.135539,53.5790689 L162.093318,53.5235372 L161.590217,54.3404297 C159.309718,58.0433107 158.57017,60.4862092 159.223098,61.5882452 C159.346674,61.5731554 159.970254,61.4692378 159.903299,61.4798646 C161.780323,61.1819521 163.331356,61.3418162 164.979879,62.3961735 C165.865293,62.9624642 166.885416,64.688456 168.138633,67.6435932 L168.365375,68.1782595 L164.777294,69.1017969 L163.280883,72.5411705 L168.087918,78.0940595 L165.850796,85.5674026 L178.525227,85.5674026 C181.430417,83.8489567 184.090283,82.9326293 186.50814,82.8282809 C188.933424,82.723612 192.597681,83.375441 197.524408,84.778406 L198.640273,85.0961667 L197.642981,85.6890713 C195.100994,87.2003187 193.006024,89.0083003 191.354923,91.1135388 C189.807933,93.0860297 188.282117,95.7889138 186.781867,99.2203152 C191.920039,98.8251944 195.428139,99.0168829 197.350683,99.8199145 C201.359304,101.494283 204.772494,106.04747 205.183323,108.408041 C205.269144,108.901154 204.941817,109.171855 204.442357,109.303729 C204.170609,109.37548 203.836551,109.417585 203.224511,109.469812 C201.035985,109.656568 200.518058,109.719303 199.422093,110.011188 C198.483443,110.261176 197.667344,110.610033 196.975004,111.081594 C195.331971,112.200683 192.791516,114.991718 189.386955,119.433168 C193.871516,118.77913 197.733325,119.217876 200.963911,120.759371 C204.505914,122.449461 207.105851,125.378127 208.754579,129.520685 L209.042847,130.244983 L208.264322,130.204917 C204.464467,130.009364 201.101001,130.584106 198.167766,131.925489 C195.433775,133.175756 193.06678,135.095083 191.063529,137.689637 C194.79333,138.866377 197.746239,140.664617 199.912886,143.086969 C202.203757,145.648206 203.954562,149.286537 205.17476,153.998191 L205.6517,155.83984 L204.33088,154.470688 C201.094965,151.116361 197.596815,148.891579 193.833606,147.787828 C190.090107,146.689858 185.109706,146.414557 178.898536,146.970162 L176.223656,149.84875 L167.352864,145.140277 L172.921596,153.531522 L166.073893,160.98191 C159.20535,161.250918 154.29038,161.85844 151.135126,162.805513 C149.487546,163.300047 141.754779,165.676865 139.453807,166.402738 C137.094891,167.14689 127.114088,170.383169 124.490198,171.256911 C121.736657,172.173825 111.675896,175.609582 109.333304,176.427084 C106.583378,177.386735 96.0601979,181.142732 93.5273206,182.0654 C90.9805677,182.993123 80.5712481,186.859118 77.9264287,187.860138 L77.5724507,186.924885 C80.2211529,185.922395 90.6343737,182.054951 93.185046,181.1258 C95.7220907,180.201613 106.249526,176.444098 109.003817,175.482924 C111.350774,174.663898 121.41603,171.226607 124.17426,170.308131 C126.803154,169.432723 136.788987,166.194813 139.152958,165.449066 C141.458505,164.72175 149.195713,162.343567 150.847639,161.847728 C154.067111,160.88138 158.986382,160.267463 165.618987,159.999094 L171.655156,153.431666 L164.340144,142.409039 L176.013994,148.605328 L178.426526,146.009067 C185.031803,145.402655 190.195735,145.678713 194.11505,146.828251 C197.529506,147.829712 200.7247,149.706326 203.698788,152.45254 C202.558996,148.753225 201.04654,145.854405 199.167534,143.753641 C197.002044,141.332582 193.982248,139.561187 190.096957,138.442576 L189.412213,138.245431 L189.830514,137.668573 C192.019941,134.649241 194.66173,132.429212 197.751884,131.01607 C200.63095,129.699459 203.890571,129.087145 207.525748,129.176161 C205.962499,125.639482 203.634189,123.141518 200.533267,121.661893 C197.212753,120.077488 193.144895,119.727239 188.318672,120.624115 L187.053133,120.859295 L187.828088,119.831509 C191.68156,114.720832 194.529164,111.537562 196.412065,110.255095 C197.205584,109.714621 198.123865,109.322084 199.164737,109.044872 C200.340327,108.731781 200.884654,108.665847 203.139487,108.473434 C203.648328,108.430012 203.942576,108.394556 204.138832,108.348824 C203.91676,107.65047 203.191281,106.29104 202.276678,105.070961 C200.83126,103.142778 199.035992,101.607583 196.965262,100.742655 C195.135718,99.9784693 191.475686,99.8161619 186.037141,100.284377 L185.210499,100.355544 L185.533765,99.5914105 C187.170962,95.7214233 188.847251,92.6905299 190.568058,90.4964141 C192.08054,88.5679215 193.944719,86.8809871 196.158487,85.4359609 C191.876652,84.2707917 188.66808,83.7359944 186.551257,83.827351 C184.283726,83.9252117 181.738542,84.8115348 178.919156,86.49659 L164.507606,86.5674026 L166.972437,78.3333734 L162.1127,72.7196056 L164.055137,68.2550794 L166.988055,67.5001747 C165.922179,65.0651806 165.046493,63.6258161 164.441078,63.2386066 C163.036457,62.3402432 161.718038,62.2043545 160.060052,62.4675024 C160.161852,62.4513452 159.468522,62.5668767 159.329798,62.5825814 C158.956459,62.6248462 158.737411,62.6023672 158.540641,62.3558545 C157.424376,60.9574097 158.040124,58.4075502 160.249264,54.6307657 C153.199731,55.0186696 149.057216,54.99993 147.681882,54.5538382 C146.935245,54.3116652 146.600149,53.7515871 146.702725,53.0346559 C146.771318,52.5552425 147.013811,52.0383115 147.443702,51.3411567 C147.522636,51.2131499 147.606484,51.0811476 147.712027,50.917852 C148.348505,49.9331042 148.399652,49.8501813 148.514989,49.5784998 C148.16444,49.453247 146.934432,49.7817101 144.296116,50.6166089 C140.144326,51.9305683 139.287649,52.1714935 138.938104,51.5616047 C136.395638,50.8175905 135.19424,50.0030625 135.543953,48.8787941 C135.722148,48.3059267 135.988689,47.7480126 136.586224,46.6166018 C137.586359,44.7239144 137.875071,43.9181934 137.708445,43.7828524 C137.008438,43.2142767 135.4013,43.1404536 132.828843,43.4548394 C132.40632,43.5064769 131.976324,43.5650819 131.395805,43.6485239 C127.975907,44.1400899 127.465393,44.1851014 126.86785,43.8220627 C125.953859,43.2667646 126.19714,42.3901873 127.186712,40.5533839 C127.976334,39.1003737 128.181415,38.5476168 128.195404,38.5555986 C127.400642,38.1021217 125.961299,38.0627859 123.960943,38.3665435 C123.347154,38.4597486 122.705436,38.5799288 121.930834,38.7415018 C121.84287,38.7598502 120.189986,39.1155605 119.804286,39.1896417 C119.064339,39.3317627 118.654871,39.3741477 118.367262,39.2930924 C117.956776,39.1774071 117.57328,38.8586134 117.082551,38.3024568 C116.818152,38.0028052 115.810651,36.7461766 115.822465,36.7605375 C114.643298,35.3272343 113.771901,34.6242204 112.884731,34.5542514 C111.93508,34.4793546 111.191857,34.8169351 108.713209,36.2620507 C106.424477,37.5964406 105.125309,38.1336861 103.601882,38.1120259 C102.559633,38.0972072 101.961172,37.5862535 100.913618,36.2220398 C99.9269252,34.9365172 99.4679817,34.5501062 98.7746641,34.5557824 C97.9380626,34.5626317 96.9624289,35.0176349 94.7971293,36.2859329 C92.3269823,37.7330825 91.3610189,38.1926986 90.2858094,38.2220849 C89.3039886,38.2489187 88.9236177,37.6574603 88.3604465,36.0546192 C87.9500456,34.8863921 87.7330483,34.544633 87.4603389,34.5554093 C86.8774627,34.578442 86.0049697,35.1038164 84.3944862,36.3240795 C82.0218552,38.1285638 81.3314539,38.5743796 80.5010518,38.6205478 C79.4064595,38.6814043 78.9816882,37.9573534 78.5103456,36.2191502 C78.1510707,34.8875915 77.9643152,34.5404977 77.7884902,34.5542719 C77.372948,34.5868257 76.5608357,35.20323 75.3408231,36.3872939 C75.2144864,36.5099079 75.0819806,36.6399813 74.9309434,36.7894232 C72.5861452,39.109454 72.4492238,39.2335062 71.8465278,39.3080573 C71.3040297,39.3751622 70.7629151,39.2139006 70.1866013,38.865576 C69.7368349,38.5937369 69.3699586,38.2953692 68.6353601,37.642852 C67.2592264,36.4204824 66.7037694,36.0825568 66.1812516,36.2507782 C65.4601421,36.4829349 64.7426572,37.2240337 63.5409442,38.8342657 C61.5224829,41.5388972 61.0470683,42.0369858 59.9623012,41.8644627 C59.1719685,41.7387668 58.8960441,41.1715759 58.3727474,39.4372188 C58.1101358,38.5668387 57.9845006,38.215858 57.8182574,37.9397959 C57.235891,37.8570241 56.4764518,38.9843565 54.9704758,41.4711501 C53.069001,44.6113294 52.5325075,45.4185063 51.9704977,45.68961 C50.7949975,46.2566509 50.2200969,45.7287443 49.5145843,44.2650486 C49.2317459,43.6783043 49.0996656,43.4534925 48.9465156,43.3127855 C48.1334081,43.5658985 46.6831881,44.8803824 44.5958555,47.2562373 C36.5354216,61.450069 35.3471278,67.238772 31.2634823,86.0517459 C31.2204629,86.2499298 31.2204629,86.2499298 31.1774316,86.448125 C27.8393952,101.821131 25.532949,109.503087 20.1492602,120.444138 L19.2520027,120.002631 C24.5915919,109.151201 26.8780296,101.535887 30.2002035,86.2359334 C30.243224,86.0377879 30.243224,86.0377879 30.2862399,85.8396204 C34.3894938,66.936312 35.6659963,60.9641073 43.7866795,46.6641812 Z" id="face" fill="#000000" fill-rule="nonzero" opacity="0.5" mask="url(#mask-2)"></path>
                </g>
            </g>
        </g>
    </g>
</svg>