<?xml version="1.0" encoding="UTF-8"?>
<svg width="480px" height="300px" viewBox="0 0 480 300" version="1.1" xmlns="http://www.w3.org/2000/svg" xmlns:xlink="http://www.w3.org/1999/xlink">
    <!-- Generator: Sketch 50.2 (55047) - http://www.bohemiancoding.com/sketch -->
    <title>Artboard</title>
    <desc>Created with Sketch.</desc>
    <defs>
        <path d="M1,175.916768 C4.43712075,175.916768 8.79436667,159.800241 10.8691596,155.409984 C11.1015166,154.918317 17.5211004,130.634572 20.4518924,123.001047 C21.304381,120.78066 29.7424082,110.64972 22.7835065,106.480045 C15.9518715,102.386626 16.2078326,96.3535971 15.9695654,96.0111614 C15.4647853,95.2856957 19.597354,98.4695967 22.7835065,90.5261481 C24.7872008,85.5307052 20.7313731,77.5878049 20.4518924,76.4640673 C18.7452361,69.6019318 23.8745059,75.4986102 26.7632543,69.0421351 C22.7916298,62.092501 22.4616783,58.3258452 25.7733996,57.7421678 C26.9429904,57.5360321 31.8832739,54.7291786 39.758059,50.7963217 C46.6156711,47.3714655 52.7370104,38.9756438 52.9537887,37.9670534 C54.119267,32.5445083 76.1771966,10.3896559 85.7370866,5.78363118 C89.4906421,3.97514077 94.6282011,7.70313258 101.088554,5.9239513 C105.00547,4.8452326 97.4746247,3.27184797 115.098339,6.12942005 C118.987193,6.75997275 126.662279,7.29034136 137.520329,6.38448467 C146.585749,5.62818198 162.794684,9.59578851 166.539574,16.8989894 C171.041398,25.6783444 184.89421,25.5685613 186.720096,28.2749422 C189.144795,31.8688992 195.454045,33.9998704 199.624374,35.2107653 C203.341247,36.2899948 216.623309,52.1106309 217.774784,53.1867752 L235.111139,85.8112036 C235.403941,86.7900245 241.805586,128.785462 254.316071,211.797517 L264.994994,266.233251 L254.407255,266.233251 C253.134933,250.243762 250.186916,235.553435 245.563202,222.162271 C236.772934,196.703966 225.263239,144.779468 224.819876,144.779468 C223.313087,144.779468 228.257465,168.00123 240.003006,208.205869 C243.378309,219.759434 248.444377,239.101894 255.20121,266.233251 L246.779259,266.233251 L222.237011,266.233251 L185.68494,266.233251 L99.8021465,266.233251 L51.5065799,266.233251 L22.7835065,266.233251 C26.0005616,249.501858 27.7961724,240.126991 28.170339,238.10865 C30.7110773,224.403322 35.3972111,218.507864 39.1497961,218.473488 C43.605915,218.432668 67.0968784,216.097704 79.6366998,205.579439 C81.6472298,203.893029 87.5634442,187.955702 85.1139829,188.906402 C80.9247342,190.532358 50.884534,203.238926 48.0895593,203.013585 C35.4848419,201.997349 41.0157399,200.270907 33.4918462,198.463204 C28.2976258,197.215233 29.8383475,203.591708 26.7632543,203.794102 C21.6311866,204.131882 17.9748025,197.44211 10.8691596,194.614424 L1,175.916768 Z" id="path-1"></path>
    </defs>
    <g id="Artboard" stroke="none" stroke-width="1" fill="none" fill-rule="evenodd">
        <rect id="Frame" fill="#E6E6E6" x="0" y="0" width="480" height="300"></rect>
        <g id="Avatars" transform="translate(87.000000, 29.000000)">
            <g id="Dragonborn" transform="translate(0.000000, 4.000000)">
                <g id="Female" transform="translate(20.000000, 0.000000)">
                    <mask id="mask-2" fill="white">
                        <use xlink:href="#path-1"></use>
                    </mask>
                    <use id="body" fill="{skin-color-a}" xlink:href="#path-1"></use>
                    <g id="scales" opacity="0.5" mask="url(#mask-2)" fill="{skin-color-b}">
                        <polygon id="Polygon" points="55 139 61.0621778 142.5 61.0621778 149.5 55 153 48.9378222 149.5 48.9378222 142.5"></polygon>
                        <polygon id="Polygon" points="61 149 67.0621778 152.5 67.0621778 159.5 61 163 54.9378222 159.5 54.9378222 152.5"></polygon>
                        <polygon id="Polygon" points="37 149 43.0621778 152.5 43.0621778 159.5 37 163 30.9378222 159.5 30.9378222 152.5"></polygon>
                        <polygon id="Polygon" points="55 159 61.0621778 162.5 61.0621778 169.5 55 173 48.9378222 169.5 48.9378222 162.5"></polygon>
                        <polygon id="Polygon" points="85 149 91.0621778 152.5 91.0621778 159.5 85 163 78.9378222 159.5 78.9378222 152.5"></polygon>
                        <polygon id="Polygon" points="91 159 97.0621778 162.5 97.0621778 169.5 91 173 84.9378222 169.5 84.9378222 162.5"></polygon>
                        <polygon id="Polygon" points="67 159 73.0621778 162.5 73.0621778 169.5 67 173 60.9378222 169.5 60.9378222 162.5"></polygon>
                        <polygon id="Polygon" points="73 169 79.0621778 172.5 79.0621778 179.5 73 183 66.9378222 179.5 66.9378222 172.5"></polygon>
                        <polygon id="Polygon" points="85 169 91.0621778 172.5 91.0621778 179.5 85 183 78.9378222 179.5 78.9378222 172.5"></polygon>
                        <polygon id="Polygon" points="79 179 85.0621778 182.5 85.0621778 189.5 79 193 72.9378222 189.5 72.9378222 182.5"></polygon>
                        <polygon id="Polygon" points="91 179 97.0621778 182.5 97.0621778 189.5 91 193 84.9378222 189.5 84.9378222 182.5"></polygon>
                        <polygon id="Polygon" points="97 189 103.062178 192.5 103.062178 199.5 97 203 90.9378222 199.5 90.9378222 192.5"></polygon>
                        <polygon id="Polygon" points="91 199 97.0621778 202.5 97.0621778 209.5 91 213 84.9378222 209.5 84.9378222 202.5"></polygon>
                        <polygon id="Polygon" points="31 139 37.0621778 142.5 37.0621778 149.5 31 153 24.9378222 149.5 24.9378222 142.5"></polygon>
                        <polygon id="Polygon" points="37 149 43.0621778 152.5 43.0621778 159.5 37 163 30.9378222 159.5 30.9378222 152.5"></polygon>
                        <polygon id="Polygon" points="13 149 19.0621778 152.5 19.0621778 159.5 13 163 6.93782217 159.5 6.93782217 152.5"></polygon>
                        <polygon id="Polygon" points="31 159 37.0621778 162.5 37.0621778 169.5 31 173 24.9378222 169.5 24.9378222 162.5"></polygon>
                        <polygon id="Polygon" points="7 159 13.0621778 162.5 13.0621778 169.5 7 173 0.937822174 169.5 0.937822174 162.5"></polygon>
                        <polygon id="Polygon" points="13 169 19.0621778 172.5 19.0621778 179.5 13 183 6.93782217 179.5 6.93782217 172.5"></polygon>
                        <polygon id="Polygon" points="13 129 19.0621778 132.5 19.0621778 139.5 13 143 6.93782217 139.5 6.93782217 132.5"></polygon>
                        <polygon id="Polygon" points="25 109 31.0621778 112.5 31.0621778 119.5 25 123 18.9378222 119.5 18.9378222 112.5"></polygon>
                        <polygon id="Polygon" points="19 119 25.0621778 122.5 25.0621778 129.5 19 133 12.9378222 129.5 12.9378222 122.5"></polygon>
                        <polygon id="Polygon" points="31 99 37.0621778 102.5 37.0621778 109.5 31 113 24.9378222 109.5 24.9378222 102.5"></polygon>
                        <polygon id="Polygon" points="25 109 31.0621778 112.5 31.0621778 119.5 25 123 18.9378222 119.5 18.9378222 112.5"></polygon>
                        <polygon id="Polygon" points="43 119 49.0621778 122.5 49.0621778 129.5 43 133 36.9378222 129.5 36.9378222 122.5"></polygon>
                        <polygon id="Polygon" points="25 89 31.0621778 92.5 31.0621778 99.5 25 103 18.9378222 99.5 18.9378222 92.5"></polygon>
                        <polygon id="Polygon" points="19 79 25.0621778 82.5 25.0621778 89.5 19 93 12.9378222 89.5 12.9378222 82.5"></polygon>
                        <polygon id="Polygon" points="85 49 91.0621778 52.5 91.0621778 59.5 85 63 78.9378222 59.5 78.9378222 52.5"></polygon>
                        <polygon id="Polygon" points="85 29 91.0621778 32.5 91.0621778 39.5 85 43 78.9378222 39.5 78.9378222 32.5"></polygon>
                        <polygon id="Polygon" points="97 10 103.062178 13.5 103.062178 20.5 97 24 90.9378222 20.5 90.9378222 13.5"></polygon>
                        <polygon id="Polygon" points="79 39 85.0621778 42.5 85.0621778 49.5 79 53 72.9378222 49.5 72.9378222 42.5"></polygon>
                        <polygon id="Polygon" points="61 49 67.0621778 52.5 67.0621778 59.5 61 63 54.9378222 59.5 54.9378222 52.5"></polygon>
                        <polygon id="Polygon" points="61 69 67.0621778 72.5 67.0621778 79.5 61 83 54.9378222 79.5 54.9378222 72.5"></polygon>
                        <polygon id="Polygon" points="43 79 49.0621778 82.5 49.0621778 89.5 43 93 36.9378222 89.5 36.9378222 82.5"></polygon>
                        <polygon id="Polygon" points="61 49 67.0621778 52.5 67.0621778 59.5 61 63 54.9378222 59.5 54.9378222 52.5"></polygon>
                        <polygon id="Polygon" points="55 59 61.0621778 62.5 61.0621778 69.5 55 73 48.9378222 69.5 48.9378222 62.5"></polygon>
                        <polygon id="Polygon" points="37 69 43.0621778 72.5 43.0621778 79.5 37 83 30.9378222 79.5 30.9378222 72.5"></polygon>
                        <polygon id="Polygon" points="43 39 49.0621778 42.5 49.0621778 49.5 43 53 36.9378222 49.5 36.9378222 42.5"></polygon>
                        <polygon id="Polygon" points="37 49 43.0621778 52.5 43.0621778 59.5 37 63 30.9378222 59.5 30.9378222 52.5"></polygon>
                        <polygon id="Polygon" points="31 59 37.0621778 62.5 37.0621778 69.5 31 73 24.9378222 69.5 24.9378222 62.5"></polygon>
                        <polygon id="Polygon" points="25 49 31.0621778 52.5 31.0621778 59.5 25 63 18.9378222 59.5 18.9378222 52.5"></polygon>
                        <polygon id="Polygon" points="79 19 85.0621778 22.5 85.0621778 29.5 79 33 72.9378222 29.5 72.9378222 22.5"></polygon>
                        <polygon id="Polygon" points="73 29 79.0621778 32.5 79.0621778 39.5 73 43 66.9378222 39.5 66.9378222 32.5"></polygon>
                        <polygon id="Polygon" points="55 39 61.0621778 42.5 61.0621778 49.5 55 53 48.9378222 49.5 48.9378222 42.5"></polygon>
                        <polygon id="Polygon" points="91 0 97.0621778 3.5 97.0621778 10.5 91 14 84.9378222 10.5 84.9378222 3.5"></polygon>
                        <polygon id="Polygon" points="73 9 79.0621778 12.5 79.0621778 19.5 73 23 66.9378222 19.5 66.9378222 12.5"></polygon>
                        <polygon id="Polygon" points="7 179 13.0621778 182.5 13.0621778 189.5 7 193 0.937822174 189.5 0.937822174 182.5"></polygon>
                        <polygon id="Polygon" points="7 179 13.0621778 182.5 13.0621778 189.5 7 193 0.937822174 189.5 0.937822174 182.5"></polygon>
                        <polygon id="Polygon" points="13 189 19.0621778 192.5 19.0621778 199.5 13 203 6.93782217 199.5 6.93782217 192.5"></polygon>
                        <polygon id="Polygon" points="73 209 79.0621778 212.5 79.0621778 219.5 73 223 66.9378222 219.5 66.9378222 212.5"></polygon>
                        <polygon id="Polygon" points="67 219 73.0621778 222.5 73.0621778 229.5 67 233 60.9378222 229.5 60.9378222 222.5"></polygon>
                        <polygon id="Polygon" points="49 169 55.0621778 172.5 55.0621778 179.5 49 183 42.9378222 179.5 42.9378222 172.5"></polygon>
                        <polygon id="Polygon" points="55 179 61.0621778 182.5 61.0621778 189.5 55 193 48.9378222 189.5 48.9378222 182.5"></polygon>
                        <polygon id="Polygon" points="31 179 37.0621778 182.5 37.0621778 189.5 31 193 24.9378222 189.5 24.9378222 182.5"></polygon>
                        <polygon id="Polygon" points="49 189 55.0621778 192.5 55.0621778 199.5 49 203 42.9378222 199.5 42.9378222 192.5"></polygon>
                        <polygon id="Polygon" points="31 179 37.0621778 182.5 37.0621778 189.5 31 193 24.9378222 189.5 24.9378222 182.5"></polygon>
                        <polygon id="Polygon" points="7 179 13.0621778 182.5 13.0621778 189.5 7 193 0.937822174 189.5 0.937822174 182.5"></polygon>
                        <polygon id="Polygon" points="25 189 31.0621778 192.5 31.0621778 199.5 25 203 18.9378222 199.5 18.9378222 192.5"></polygon>
                        <polygon id="Polygon" points="73 169 79.0621778 172.5 79.0621778 179.5 73 183 66.9378222 179.5 66.9378222 172.5"></polygon>
                        <polygon id="Polygon" points="79 179 85.0621778 182.5 85.0621778 189.5 79 193 72.9378222 189.5 72.9378222 182.5"></polygon>
                        <polygon id="Polygon" points="55 179 61.0621778 182.5 61.0621778 189.5 55 193 48.9378222 189.5 48.9378222 182.5"></polygon>
                        <polygon id="Polygon" points="73 189 79.0621778 192.5 79.0621778 199.5 73 203 66.9378222 199.5 66.9378222 192.5"></polygon>
                        <polygon id="Polygon" points="115 59 121.062178 62.5 121.062178 69.5 115 73 108.937822 69.5 108.937822 62.5"></polygon>
                        <polygon id="Polygon" points="121 69 127.062178 72.5 127.062178 79.5 121 83 114.937822 79.5 114.937822 72.5"></polygon>
                        <polygon id="Polygon" points="97 69 103.062178 72.5 103.062178 79.5 97 83 90.9378222 79.5 90.9378222 72.5"></polygon>
                        <polygon id="Polygon" points="115 79 121.062178 82.5 121.062178 89.5 115 93 108.937822 89.5 108.937822 82.5"></polygon>
                        <polygon id="Polygon" points="145 69 151.062178 72.5 151.062178 79.5 145 83 138.937822 79.5 138.937822 72.5"></polygon>
                        <polygon id="Polygon" points="151 79 157.062178 82.5 157.062178 89.5 151 93 144.937822 89.5 144.937822 82.5"></polygon>
                        <polygon id="Polygon" points="127 79 133.062178 82.5 133.062178 89.5 127 93 120.937822 89.5 120.937822 82.5"></polygon>
                        <polygon id="Polygon" points="133 89 139.062178 92.5 139.062178 99.5 133 103 126.937822 99.5 126.937822 92.5"></polygon>
                        <polygon id="Polygon" points="145 89 151.062178 92.5 151.062178 99.5 145 103 138.937822 99.5 138.937822 92.5"></polygon>
                        <polygon id="Polygon" points="139 99 145.062178 102.5 145.062178 109.5 139 113 132.937822 109.5 132.937822 102.5"></polygon>
                        <polygon id="Polygon" points="151 99 157.062178 102.5 157.062178 109.5 151 113 144.937822 109.5 144.937822 102.5"></polygon>
                        <polygon id="Polygon" points="133 109 139.062178 112.5 139.062178 119.5 133 123 126.937822 119.5 126.937822 112.5"></polygon>
                        <polygon id="Polygon" points="151 119 157.062178 122.5 157.062178 129.5 151 133 144.937822 129.5 144.937822 122.5"></polygon>
                        <polygon id="Polygon" points="91 59 97.0621778 62.5 97.0621778 69.5 91 73 84.9378222 69.5 84.9378222 62.5"></polygon>
                        <polygon id="Polygon" points="97 69 103.062178 72.5 103.062178 79.5 97 83 90.9378222 79.5 90.9378222 72.5"></polygon>
                        <polygon id="Polygon" points="73 69 79.0621778 72.5 79.0621778 79.5 73 83 66.9378222 79.5 66.9378222 72.5"></polygon>
                        <polygon id="Polygon" points="91 79 97.0621778 82.5 97.0621778 89.5 91 93 84.9378222 89.5 84.9378222 82.5"></polygon>
                        <polygon id="Polygon" points="67 79 73.0621778 82.5 73.0621778 89.5 67 93 60.9378222 89.5 60.9378222 82.5"></polygon>
                        <polygon id="Polygon" points="73 89 79.0621778 92.5 79.0621778 99.5 73 103 66.9378222 99.5 66.9378222 92.5"></polygon>
                        <polygon id="Polygon" points="49 89 55.0621778 92.5 55.0621778 99.5 49 103 42.9378222 99.5 42.9378222 92.5"></polygon>
                        <polygon id="Polygon" points="67 99 73.0621778 102.5 73.0621778 109.5 67 113 60.9378222 109.5 60.9378222 102.5"></polygon>
                        <polygon id="Polygon" points="67 99 73.0621778 102.5 73.0621778 109.5 67 113 60.9378222 109.5 60.9378222 102.5"></polygon>
                        <polygon id="Polygon" points="73 109 79.0621778 112.5 79.0621778 119.5 73 123 66.9378222 119.5 66.9378222 112.5"></polygon>
                        <polygon id="Polygon" points="49 109 55.0621778 112.5 55.0621778 119.5 49 123 42.9378222 119.5 42.9378222 112.5"></polygon>
                        <polygon id="Polygon" points="67 119 73.0621778 122.5 73.0621778 129.5 67 133 60.9378222 129.5 60.9378222 122.5"></polygon>
                        <polygon id="Polygon" points="79 119 85.0621778 122.5 85.0621778 129.5 79 133 72.9378222 129.5 72.9378222 122.5"></polygon>
                        <polygon id="Polygon" points="85 129 91.0621778 132.5 91.0621778 139.5 85 143 78.9378222 139.5 78.9378222 132.5"></polygon>
                        <polygon id="Polygon" points="61 129 67.0621778 132.5 67.0621778 139.5 61 143 54.9378222 139.5 54.9378222 132.5"></polygon>
                        <polygon id="Polygon" points="79 139 85.0621778 142.5 85.0621778 149.5 79 153 72.9378222 149.5 72.9378222 142.5"></polygon>
                        <polygon id="Polygon" points="103 119 109.062178 122.5 109.062178 129.5 103 133 96.9378222 129.5 96.9378222 122.5"></polygon>
                        <polygon id="Polygon" points="109 129 115.062178 132.5 115.062178 139.5 109 143 102.937822 139.5 102.937822 132.5"></polygon>
                        <polygon id="Polygon" points="85 129 91.0621778 132.5 91.0621778 139.5 85 143 78.9378222 139.5 78.9378222 132.5"></polygon>
                        <polygon id="Polygon" points="103 139 109.062178 142.5 109.062178 149.5 103 153 96.9378222 149.5 96.9378222 142.5"></polygon>
                        <polygon id="Polygon" points="127 119 133.062178 122.5 133.062178 129.5 127 133 120.937822 129.5 120.937822 122.5"></polygon>
                        <polygon id="Polygon" points="133 129 139.062178 132.5 139.062178 139.5 133 143 126.937822 139.5 126.937822 132.5"></polygon>
                        <polygon id="Polygon" points="109 129 115.062178 132.5 115.062178 139.5 109 143 102.937822 139.5 102.937822 132.5"></polygon>
                        <polygon id="Polygon" points="115 139 121.062178 142.5 121.062178 149.5 115 153 108.937822 149.5 108.937822 142.5"></polygon>
                        <polygon id="Polygon" points="127 139 133.062178 142.5 133.062178 149.5 127 153 120.937822 149.5 120.937822 142.5"></polygon>
                        <polygon id="Polygon" points="109 89 115.062178 92.5 115.062178 99.5 109 103 102.937822 99.5 102.937822 92.5"></polygon>
                        <polygon id="Polygon" points="115 99 121.062178 102.5 121.062178 109.5 115 113 108.937822 109.5 108.937822 102.5"></polygon>
                        <polygon id="Polygon" points="91 99 97.0621778 102.5 97.0621778 109.5 91 113 84.9378222 109.5 84.9378222 102.5"></polygon>
                        <polygon id="Polygon" points="85 89 91.0621778 92.5 91.0621778 99.5 85 103 78.9378222 99.5 78.9378222 92.5"></polygon>
                        <polygon id="Polygon" points="91 99 97.0621778 102.5 97.0621778 109.5 91 113 84.9378222 109.5 84.9378222 102.5"></polygon>
                        <polygon id="Polygon" points="67 99 73.0621778 102.5 73.0621778 109.5 67 113 60.9378222 109.5 60.9378222 102.5"></polygon>
                        <polygon id="Polygon" points="85 109 91.0621778 112.5 91.0621778 119.5 85 123 78.9378222 119.5 78.9378222 112.5"></polygon>
                        <polygon id="Polygon" points="133 89 139.062178 92.5 139.062178 99.5 133 103 126.937822 99.5 126.937822 92.5"></polygon>
                        <polygon id="Polygon" points="139 99 145.062178 102.5 145.062178 109.5 139 113 132.937822 109.5 132.937822 102.5"></polygon>
                        <polygon id="Polygon" points="115 99 121.062178 102.5 121.062178 109.5 115 113 108.937822 109.5 108.937822 102.5"></polygon>
                        <polygon id="Polygon" points="133 109 139.062178 112.5 139.062178 119.5 133 123 126.937822 119.5 126.937822 112.5"></polygon>
                        <polygon id="Polygon" points="139 139 145.062178 142.5 145.062178 149.5 139 153 132.937822 149.5 132.937822 142.5"></polygon>
                        <polygon id="Polygon" points="145 149 151.062178 152.5 151.062178 159.5 145 163 138.937822 159.5 138.937822 152.5"></polygon>
                        <polygon id="Polygon" points="121 149 127.062178 152.5 127.062178 159.5 121 163 114.937822 159.5 114.937822 152.5"></polygon>
                        <polygon id="Polygon" points="139 159 145.062178 162.5 145.062178 169.5 139 173 132.937822 169.5 132.937822 162.5"></polygon>
                        <polygon id="Polygon" points="157 149 163.062178 152.5 163.062178 159.5 157 163 150.937822 159.5 150.937822 152.5"></polygon>
                        <polygon id="Polygon" points="169 149 175.062178 152.5 175.062178 159.5 169 163 162.937822 159.5 162.937822 152.5"></polygon>
                        <polygon id="Polygon" points="175 159 181.062178 162.5 181.062178 169.5 175 173 168.937822 169.5 168.937822 162.5"></polygon>
                        <polygon id="Polygon" points="151 159 157.062178 162.5 157.062178 169.5 151 173 144.937822 169.5 144.937822 162.5"></polygon>
                        <polygon id="Polygon" points="157 169 163.062178 172.5 163.062178 179.5 157 183 150.937822 179.5 150.937822 172.5"></polygon>
                        <polygon id="Polygon" points="169 169 175.062178 172.5 175.062178 179.5 169 183 162.937822 179.5 162.937822 172.5"></polygon>
                        <polygon id="Polygon" points="163 179 169.062178 182.5 169.062178 189.5 163 193 156.937822 189.5 156.937822 182.5"></polygon>
                        <polygon id="Polygon" points="175 179 181.062178 182.5 181.062178 189.5 175 193 168.937822 189.5 168.937822 182.5"></polygon>
                        <polygon id="Polygon" points="181 189 187.062178 192.5 187.062178 199.5 181 203 174.937822 199.5 174.937822 192.5"></polygon>
                        <polygon id="Polygon" points="157 189 163.062178 192.5 163.062178 199.5 157 203 150.937822 199.5 150.937822 192.5"></polygon>
                        <polygon id="Polygon" points="175 199 181.062178 202.5 181.062178 209.5 175 213 168.937822 209.5 168.937822 202.5"></polygon>
                        <polygon id="Polygon" points="115 139 121.062178 142.5 121.062178 149.5 115 153 108.937822 149.5 108.937822 142.5"></polygon>
                        <polygon id="Polygon" points="121 149 127.062178 152.5 127.062178 159.5 121 163 114.937822 159.5 114.937822 152.5"></polygon>
                        <polygon id="Polygon" points="97 149 103.062178 152.5 103.062178 159.5 97 163 90.9378222 159.5 90.9378222 152.5"></polygon>
                        <polygon id="Polygon" points="115 159 121.062178 162.5 121.062178 169.5 115 173 108.937822 169.5 108.937822 162.5"></polygon>
                        <polygon id="Polygon" points="91 159 97.0621778 162.5 97.0621778 169.5 91 173 84.9378222 169.5 84.9378222 162.5"></polygon>
                        <polygon id="Polygon" points="97 169 103.062178 172.5 103.062178 179.5 97 183 90.9378222 179.5 90.9378222 172.5"></polygon>
                        <polygon id="Polygon" points="73 169 79.0621778 172.5 79.0621778 179.5 73 183 66.9378222 179.5 66.9378222 172.5"></polygon>
                        <polygon id="Polygon" points="91 179 97.0621778 182.5 97.0621778 189.5 91 193 84.9378222 189.5 84.9378222 182.5"></polygon>
                        <polygon id="Polygon" points="91 179 97.0621778 182.5 97.0621778 189.5 91 193 84.9378222 189.5 84.9378222 182.5"></polygon>
                        <polygon id="Polygon" points="97 189 103.062178 192.5 103.062178 199.5 97 203 90.9378222 199.5 90.9378222 192.5"></polygon>
                        <polygon id="Polygon" points="73 189 79.0621778 192.5 79.0621778 199.5 73 203 66.9378222 199.5 66.9378222 192.5"></polygon>
                        <polygon id="Polygon" points="91 199 97.0621778 202.5 97.0621778 209.5 91 213 84.9378222 209.5 84.9378222 202.5"></polygon>
                        <polygon id="Polygon" points="103 199 109.062178 202.5 109.062178 209.5 103 213 96.9378222 209.5 96.9378222 202.5"></polygon>
                        <polygon id="Polygon" points="109 209 115.062178 212.5 115.062178 219.5 109 223 102.937822 219.5 102.937822 212.5"></polygon>
                        <polygon id="Polygon" points="85 209 91.0621778 212.5 91.0621778 219.5 85 223 78.9378222 219.5 78.9378222 212.5"></polygon>
                        <polygon id="Polygon" points="91 219 97.0621778 222.5 97.0621778 229.5 91 233 84.9378222 229.5 84.9378222 222.5"></polygon>
                        <polygon id="Polygon" points="103 219 109.062178 222.5 109.062178 229.5 103 233 96.9378222 229.5 96.9378222 222.5"></polygon>
                        <polygon id="Polygon" points="133 209 139.062178 212.5 139.062178 219.5 133 223 126.937822 219.5 126.937822 212.5"></polygon>
                        <polygon id="Polygon" points="109 209 115.062178 212.5 115.062178 219.5 109 223 102.937822 219.5 102.937822 212.5"></polygon>
                        <polygon id="Polygon" points="115 219 121.062178 222.5 121.062178 229.5 115 233 108.937822 229.5 108.937822 222.5"></polygon>
                        <polygon id="Polygon" points="127 219 133.062178 222.5 133.062178 229.5 127 233 120.937822 229.5 120.937822 222.5"></polygon>
                        <polygon id="Polygon" points="151 199 157.062178 202.5 157.062178 209.5 151 213 144.937822 209.5 144.937822 202.5"></polygon>
                        <polygon id="Polygon" points="157 209 163.062178 212.5 163.062178 219.5 157 223 150.937822 219.5 150.937822 212.5"></polygon>
                        <polygon id="Polygon" points="133 209 139.062178 212.5 139.062178 219.5 133 223 126.937822 219.5 126.937822 212.5"></polygon>
                        <polygon id="Polygon" points="151 219 157.062178 222.5 157.062178 229.5 151 233 144.937822 229.5 144.937822 222.5"></polygon>
                        <polygon id="Polygon" points="133 169 139.062178 172.5 139.062178 179.5 133 183 126.937822 179.5 126.937822 172.5"></polygon>
                        <polygon id="Polygon" points="139 179 145.062178 182.5 145.062178 189.5 139 193 132.937822 189.5 132.937822 182.5"></polygon>
                        <polygon id="Polygon" points="115 179 121.062178 182.5 121.062178 189.5 115 193 108.937822 189.5 108.937822 182.5"></polygon>
                        <polygon id="Polygon" points="133 189 139.062178 192.5 139.062178 199.5 133 203 126.937822 199.5 126.937822 192.5"></polygon>
                        <polygon id="Polygon" points="115 179 121.062178 182.5 121.062178 189.5 115 193 108.937822 189.5 108.937822 182.5"></polygon>
                        <polygon id="Polygon" points="91 179 97.0621778 182.5 97.0621778 189.5 91 193 84.9378222 189.5 84.9378222 182.5"></polygon>
                        <polygon id="Polygon" points="157 169 163.062178 172.5 163.062178 179.5 157 183 150.937822 179.5 150.937822 172.5"></polygon>
                        <polygon id="Polygon" points="163 179 169.062178 182.5 169.062178 189.5 163 193 156.937822 189.5 156.937822 182.5"></polygon>
                        <polygon id="Polygon" points="139 179 145.062178 182.5 145.062178 189.5 139 193 132.937822 189.5 132.937822 182.5"></polygon>
                        <polygon id="Polygon" points="157 189 163.062178 192.5 163.062178 199.5 157 203 150.937822 199.5 150.937822 192.5"></polygon>
                        <polygon id="Polygon" points="31 219 37.0621778 222.5 37.0621778 229.5 31 233 24.9378222 229.5 24.9378222 222.5"></polygon>
                        <polygon id="Polygon" points="37 229 43.0621778 232.5 43.0621778 239.5 37 243 30.9378222 239.5 30.9378222 232.5"></polygon>
                        <polygon id="Polygon" points="31 239 37.0621778 242.5 37.0621778 249.5 31 253 24.9378222 249.5 24.9378222 242.5"></polygon>
                        <polygon id="Polygon" points="61 229 67.0621778 232.5 67.0621778 239.5 61 243 54.9378222 239.5 54.9378222 232.5"></polygon>
                        <polygon id="Polygon" points="67 239 73.0621778 242.5 73.0621778 249.5 67 253 60.9378222 249.5 60.9378222 242.5"></polygon>
                        <polygon id="Polygon" points="43 239 49.0621778 242.5 49.0621778 249.5 43 253 36.9378222 249.5 36.9378222 242.5"></polygon>
                        <polygon id="Polygon" points="49 249 55.0621778 252.5 55.0621778 259.5 49 263 42.9378222 259.5 42.9378222 252.5"></polygon>
                        <polygon id="Polygon" points="61 249 67.0621778 252.5 67.0621778 259.5 61 263 54.9378222 259.5 54.9378222 252.5"></polygon>
                        <polygon id="Polygon" points="55 259 61.0621778 262.5 61.0621778 269.5 55 273 48.9378222 269.5 48.9378222 262.5"></polygon>
                        <polygon id="Polygon" points="67 259 73.0621778 262.5 73.0621778 269.5 67 273 60.9378222 269.5 60.9378222 262.5"></polygon>
                        <polygon id="Polygon" points="25 249 31.0621778 252.5 31.0621778 259.5 25 263 18.9378222 259.5 18.9378222 252.5"></polygon>
                        <polygon id="Polygon" points="31 259 37.0621778 262.5 37.0621778 269.5 31 273 24.9378222 269.5 24.9378222 262.5"></polygon>
                        <polygon id="Polygon" points="49 249 55.0621778 252.5 55.0621778 259.5 49 263 42.9378222 259.5 42.9378222 252.5"></polygon>
                        <polygon id="Polygon" points="55 259 61.0621778 262.5 61.0621778 269.5 55 273 48.9378222 269.5 48.9378222 262.5"></polygon>
                        <polygon id="Polygon" points="31 259 37.0621778 262.5 37.0621778 269.5 31 273 24.9378222 269.5 24.9378222 262.5"></polygon>
                        <polygon id="Polygon" points="115 219 121.062178 222.5 121.062178 229.5 115 233 108.937822 229.5 108.937822 222.5"></polygon>
                        <polygon id="Polygon" points="97 229 103.062178 232.5 103.062178 239.5 97 243 90.9378222 239.5 90.9378222 232.5"></polygon>
                        <polygon id="Polygon" points="115 239 121.062178 242.5 121.062178 249.5 115 253 108.937822 249.5 108.937822 242.5"></polygon>
                        <polygon id="Polygon" points="145 229 151.062178 232.5 151.062178 239.5 145 243 138.937822 239.5 138.937822 232.5"></polygon>
                        <polygon id="Polygon" points="127 239 133.062178 242.5 133.062178 249.5 127 253 120.937822 249.5 120.937822 242.5"></polygon>
                        <polygon id="Polygon" points="133 249 139.062178 252.5 139.062178 259.5 133 263 126.937822 259.5 126.937822 252.5"></polygon>
                        <polygon id="Polygon" points="145 249 151.062178 252.5 151.062178 259.5 145 263 138.937822 259.5 138.937822 252.5"></polygon>
                        <polygon id="Polygon" points="139 259 145.062178 262.5 145.062178 269.5 139 273 132.937822 269.5 132.937822 262.5"></polygon>
                        <polygon id="Polygon" points="151 259 157.062178 262.5 157.062178 269.5 151 273 144.937822 269.5 144.937822 262.5"></polygon>
                        <polygon id="Polygon" points="91 219 97.0621778 222.5 97.0621778 229.5 91 233 84.9378222 229.5 84.9378222 222.5"></polygon>
                        <polygon id="Polygon" points="97 229 103.062178 232.5 103.062178 239.5 97 243 90.9378222 239.5 90.9378222 232.5"></polygon>
                        <polygon id="Polygon" points="73 229 79.0621778 232.5 79.0621778 239.5 73 243 66.9378222 239.5 66.9378222 232.5"></polygon>
                        <polygon id="Polygon" points="91 239 97.0621778 242.5 97.0621778 249.5 91 253 84.9378222 249.5 84.9378222 242.5"></polygon>
                        <polygon id="Polygon" points="67 239 73.0621778 242.5 73.0621778 249.5 67 253 60.9378222 249.5 60.9378222 242.5"></polygon>
                        <polygon id="Polygon" points="73 249 79.0621778 252.5 79.0621778 259.5 73 263 66.9378222 259.5 66.9378222 252.5"></polygon>
                        <polygon id="Polygon" points="49 249 55.0621778 252.5 55.0621778 259.5 49 263 42.9378222 259.5 42.9378222 252.5"></polygon>
                        <polygon id="Polygon" points="67 259 73.0621778 262.5 73.0621778 269.5 67 273 60.9378222 269.5 60.9378222 262.5"></polygon>
                        <polygon id="Polygon" points="67 259 73.0621778 262.5 73.0621778 269.5 67 273 60.9378222 269.5 60.9378222 262.5"></polygon>
                        <polygon id="Polygon" points="109 249 115.062178 252.5 115.062178 259.5 109 263 102.937822 259.5 102.937822 252.5"></polygon>
                        <polygon id="Polygon" points="115 259 121.062178 262.5 121.062178 269.5 115 273 108.937822 269.5 108.937822 262.5"></polygon>
                        <polygon id="Polygon" points="91 259 97.0621778 262.5 97.0621778 269.5 91 273 84.9378222 269.5 84.9378222 262.5"></polygon>
                        <polygon id="Polygon" points="85 249 91.0621778 252.5 91.0621778 259.5 85 263 78.9378222 259.5 78.9378222 252.5"></polygon>
                        <polygon id="Polygon" points="91 259 97.0621778 262.5 97.0621778 269.5 91 273 84.9378222 269.5 84.9378222 262.5"></polygon>
                        <polygon id="Polygon" points="67 259 73.0621778 262.5 73.0621778 269.5 67 273 60.9378222 269.5 60.9378222 262.5"></polygon>
                        <polygon id="Polygon" points="133 249 139.062178 252.5 139.062178 259.5 133 263 126.937822 259.5 126.937822 252.5"></polygon>
                        <polygon id="Polygon" points="139 259 145.062178 262.5 145.062178 269.5 139 273 132.937822 269.5 132.937822 262.5"></polygon>
                        <polygon id="Polygon" points="115 259 121.062178 262.5 121.062178 269.5 115 273 108.937822 269.5 108.937822 262.5"></polygon>
                        <polygon id="Polygon" points="211 199 217.062178 202.5 217.062178 209.5 211 213 204.937822 209.5 204.937822 202.5"></polygon>
                        <polygon id="Polygon" points="223 199 229.062178 202.5 229.062178 209.5 223 213 216.937822 209.5 216.937822 202.5"></polygon>
                        <polygon id="Polygon" points="229 209 235.062178 212.5 235.062178 219.5 229 223 222.937822 219.5 222.937822 212.5"></polygon>
                        <polygon id="Polygon" points="205 209 211.062178 212.5 211.062178 219.5 205 223 198.937822 219.5 198.937822 212.5"></polygon>
                        <polygon id="Polygon" points="223 219 229.062178 222.5 229.062178 229.5 223 233 216.937822 229.5 216.937822 222.5"></polygon>
                        <polygon id="Polygon" points="253 209 259.062178 212.5 259.062178 219.5 253 223 246.937822 219.5 246.937822 212.5"></polygon>
                        <polygon id="Polygon" points="259 219 265.062178 222.5 265.062178 229.5 259 233 252.937822 229.5 252.937822 222.5"></polygon>
                        <polygon id="Polygon" points="235 219 241.062178 222.5 241.062178 229.5 235 233 228.937822 229.5 228.937822 222.5"></polygon>
                        <polygon id="Polygon" points="241 229 247.062178 232.5 247.062178 239.5 241 243 234.937822 239.5 234.937822 232.5"></polygon>
                        <polygon id="Polygon" points="247 239 253.062178 242.5 253.062178 249.5 247 253 240.937822 249.5 240.937822 242.5"></polygon>
                        <polygon id="Polygon" points="259 239 265.062178 242.5 265.062178 249.5 259 253 252.937822 249.5 252.937822 242.5"></polygon>
                        <polygon id="Polygon" points="265 249 271.062178 252.5 271.062178 259.5 265 263 258.937822 259.5 258.937822 252.5"></polygon>
                        <polygon id="Polygon" points="241 249 247.062178 252.5 247.062178 259.5 241 263 234.937822 259.5 234.937822 252.5"></polygon>
                        <polygon id="Polygon" points="259 259 265.062178 262.5 265.062178 269.5 259 273 252.937822 269.5 252.937822 262.5"></polygon>
                        <polygon id="Polygon" points="199 199 205.062178 202.5 205.062178 209.5 199 213 192.937822 209.5 192.937822 202.5"></polygon>
                        <polygon id="Polygon" points="205 209 211.062178 212.5 211.062178 219.5 205 223 198.937822 219.5 198.937822 212.5"></polygon>
                        <polygon id="Polygon" points="217 169 223.062178 172.5 223.062178 179.5 217 183 210.937822 179.5 210.937822 172.5"></polygon>
                        <polygon id="Polygon" points="223 179 229.062178 182.5 229.062178 189.5 223 193 216.937822 189.5 216.937822 182.5"></polygon>
                        <polygon id="Polygon" points="193 169 199.062178 172.5 199.062178 179.5 193 183 186.937822 179.5 186.937822 172.5"></polygon>
                        <polygon id="Polygon" points="199 179 205.062178 182.5 205.062178 189.5 199 193 192.937822 189.5 192.937822 182.5"></polygon>
                        <polygon id="Polygon" points="229 189 235.062178 192.5 235.062178 199.5 229 203 222.937822 199.5 222.937822 192.5"></polygon>
                        <polygon id="Polygon" points="205 189 211.062178 192.5 211.062178 199.5 205 203 198.937822 199.5 198.937822 192.5"></polygon>
                        <polygon id="Polygon" points="211 199 217.062178 202.5 217.062178 209.5 211 213 204.937822 209.5 204.937822 202.5"></polygon>
                        <polygon id="Polygon" points="235 179 241.062178 182.5 241.062178 189.5 235 193 228.937822 189.5 228.937822 182.5"></polygon>
                        <polygon id="Polygon" points="247 179 253.062178 182.5 253.062178 189.5 247 193 240.937822 189.5 240.937822 182.5"></polygon>
                        <polygon id="Polygon" points="253 189 259.062178 192.5 259.062178 199.5 253 203 246.937822 199.5 246.937822 192.5"></polygon>
                        <polygon id="Polygon" points="181 209 187.062178 212.5 187.062178 219.5 181 223 174.937822 219.5 174.937822 212.5"></polygon>
                        <polygon id="Polygon" points="175 219 181.062178 222.5 181.062178 229.5 175 233 168.937822 229.5 168.937822 222.5"></polygon>
                        <polygon id="Polygon" points="181 229 187.062178 232.5 187.062178 239.5 181 243 174.937822 239.5 174.937822 232.5"></polygon>
                        <polygon id="Polygon" points="157 229 163.062178 232.5 163.062178 239.5 157 243 150.937822 239.5 150.937822 232.5"></polygon>
                        <polygon id="Polygon" points="175 239 181.062178 242.5 181.062178 249.5 175 253 168.937822 249.5 168.937822 242.5"></polygon>
                        <polygon id="Polygon" points="175 239 181.062178 242.5 181.062178 249.5 175 253 168.937822 249.5 168.937822 242.5"></polygon>
                        <polygon id="Polygon" points="181 249 187.062178 252.5 187.062178 259.5 181 263 174.937822 259.5 174.937822 252.5"></polygon>
                        <polygon id="Polygon" points="157 249 163.062178 252.5 163.062178 259.5 157 263 150.937822 259.5 150.937822 252.5"></polygon>
                        <polygon id="Polygon" points="175 259 181.062178 262.5 181.062178 269.5 175 273 168.937822 269.5 168.937822 262.5"></polygon>
                        <polygon id="Polygon" points="187 259 193.062178 262.5 193.062178 269.5 187 273 180.937822 269.5 180.937822 262.5"></polygon>
                        <polygon id="Polygon" points="211 259 217.062178 262.5 217.062178 269.5 211 273 204.937822 269.5 204.937822 262.5"></polygon>
                        <polygon id="Polygon" points="235 259 241.062178 262.5 241.062178 269.5 235 273 228.937822 269.5 228.937822 262.5"></polygon>
                        <polygon id="Polygon" points="217 229 223.062178 232.5 223.062178 239.5 217 243 210.937822 239.5 210.937822 232.5"></polygon>
                        <polygon id="Polygon" points="223 239 229.062178 242.5 229.062178 249.5 223 253 216.937822 249.5 216.937822 242.5"></polygon>
                        <polygon id="Polygon" points="199 239 205.062178 242.5 205.062178 249.5 199 253 192.937822 249.5 192.937822 242.5"></polygon>
                        <polygon id="Polygon" points="217 249 223.062178 252.5 223.062178 259.5 217 263 210.937822 259.5 210.937822 252.5"></polygon>
                        <polygon id="Polygon" points="193 229 199.062178 232.5 199.062178 239.5 193 243 186.937822 239.5 186.937822 232.5"></polygon>
                        <polygon id="Polygon" points="199 239 205.062178 242.5 205.062178 249.5 199 253 192.937822 249.5 192.937822 242.5"></polygon>
                        <polygon id="Polygon" points="175 239 181.062178 242.5 181.062178 249.5 175 253 168.937822 249.5 168.937822 242.5"></polygon>
                        <polygon id="Polygon" points="193 249 199.062178 252.5 199.062178 259.5 193 263 186.937822 259.5 186.937822 252.5"></polygon>
                        <polygon id="Polygon" points="241 229 247.062178 232.5 247.062178 239.5 241 243 234.937822 239.5 234.937822 232.5"></polygon>
                        <polygon id="Polygon" points="247 239 253.062178 242.5 253.062178 249.5 247 253 240.937822 249.5 240.937822 242.5"></polygon>
                        <polygon id="Polygon" points="223 239 229.062178 242.5 229.062178 249.5 223 253 216.937822 249.5 216.937822 242.5"></polygon>
                        <polygon id="Polygon" points="259 259 265.062178 262.5 265.062178 269.5 259 273 252.937822 269.5 252.937822 262.5"></polygon>
                        <polygon id="Polygon" points="265 249 271.062178 252.5 271.062178 259.5 265 263 258.937822 259.5 258.937822 252.5"></polygon>
                        <polygon id="Polygon" points="241 249 247.062178 252.5 247.062178 259.5 241 263 234.937822 259.5 234.937822 252.5"></polygon>
                        <polygon id="Polygon" points="211 79 217.062178 82.5 217.062178 89.5 211 93 204.937822 89.5 204.937822 82.5"></polygon>
                        <polygon id="Polygon" points="217 89 223.062178 92.5 223.062178 99.5 217 103 210.937822 99.5 210.937822 92.5"></polygon>
                        <polygon id="Polygon" points="193 89 199.062178 92.5 199.062178 99.5 193 103 186.937822 99.5 186.937822 92.5"></polygon>
                        <polygon id="Polygon" points="211 99 217.062178 102.5 217.062178 109.5 211 113 204.937822 109.5 204.937822 102.5"></polygon>
                        <polygon id="Polygon" points="241 89 247.062178 92.5 247.062178 99.5 241 103 234.937822 99.5 234.937822 92.5"></polygon>
                        <polygon id="Polygon" points="223 99 229.062178 102.5 229.062178 109.5 223 113 216.937822 109.5 216.937822 102.5"></polygon>
                        <polygon id="Polygon" points="229 109 235.062178 112.5 235.062178 119.5 229 123 222.937822 119.5 222.937822 112.5"></polygon>
                        <polygon id="Polygon" points="241 109 247.062178 112.5 247.062178 119.5 241 123 234.937822 119.5 234.937822 112.5"></polygon>
                        <polygon id="Polygon" points="235 119 241.062178 122.5 241.062178 129.5 235 133 228.937822 129.5 228.937822 122.5"></polygon>
                        <polygon id="Polygon" points="229 129 235.062178 132.5 235.062178 139.5 229 143 222.937822 139.5 222.937822 132.5"></polygon>
                        <polygon id="Polygon" points="247 139 253.062178 142.5 253.062178 149.5 247 153 240.937822 149.5 240.937822 142.5"></polygon>
                        <polygon id="Polygon" points="187 79 193.062178 82.5 193.062178 89.5 187 93 180.937822 89.5 180.937822 82.5"></polygon>
                        <polygon id="Polygon" points="193 89 199.062178 92.5 199.062178 99.5 193 103 186.937822 99.5 186.937822 92.5"></polygon>
                        <polygon id="Polygon" points="169 89 175.062178 92.5 175.062178 99.5 169 103 162.937822 99.5 162.937822 92.5"></polygon>
                        <polygon id="Polygon" points="187 99 193.062178 102.5 193.062178 109.5 187 113 180.937822 109.5 180.937822 102.5"></polygon>
                        <polygon id="Polygon" points="163 99 169.062178 102.5 169.062178 109.5 163 113 156.937822 109.5 156.937822 102.5"></polygon>
                        <polygon id="Polygon" points="169 109 175.062178 112.5 175.062178 119.5 169 123 162.937822 119.5 162.937822 112.5"></polygon>
                        <polygon id="Polygon" points="163 119 169.062178 122.5 169.062178 129.5 163 133 156.937822 129.5 156.937822 122.5"></polygon>
                        <polygon id="Polygon" points="163 119 169.062178 122.5 169.062178 129.5 163 133 156.937822 129.5 156.937822 122.5"></polygon>
                        <polygon id="Polygon" points="169 129 175.062178 132.5 175.062178 139.5 169 143 162.937822 139.5 162.937822 132.5"></polygon>
                        <polygon id="Polygon" points="145 129 151.062178 132.5 151.062178 139.5 145 143 138.937822 139.5 138.937822 132.5"></polygon>
                        <polygon id="Polygon" points="163 139 169.062178 142.5 169.062178 149.5 163 153 156.937822 149.5 156.937822 142.5"></polygon>
                        <polygon id="Polygon" points="181 149 187.062178 152.5 187.062178 159.5 181 163 174.937822 159.5 174.937822 152.5"></polygon>
                        <polygon id="Polygon" points="157 149 163.062178 152.5 163.062178 159.5 157 163 150.937822 159.5 150.937822 152.5"></polygon>
                        <polygon id="Polygon" points="175 159 181.062178 162.5 181.062178 169.5 175 173 168.937822 169.5 168.937822 162.5"></polygon>
                        <polygon id="Polygon" points="199 139 205.062178 142.5 205.062178 149.5 199 153 192.937822 149.5 192.937822 142.5"></polygon>
                        <polygon id="Polygon" points="205 149 211.062178 152.5 211.062178 159.5 205 163 198.937822 159.5 198.937822 152.5"></polygon>
                        <polygon id="Polygon" points="181 149 187.062178 152.5 187.062178 159.5 181 163 174.937822 159.5 174.937822 152.5"></polygon>
                        <polygon id="Polygon" points="199 159 205.062178 162.5 205.062178 169.5 199 173 192.937822 169.5 192.937822 162.5"></polygon>
                        <polygon id="Polygon" points="223 139 229.062178 142.5 229.062178 149.5 223 153 216.937822 149.5 216.937822 142.5"></polygon>
                        <polygon id="Polygon" points="229 149 235.062178 152.5 235.062178 159.5 229 163 222.937822 159.5 222.937822 152.5"></polygon>
                        <polygon id="Polygon" points="205 149 211.062178 152.5 211.062178 159.5 205 163 198.937822 159.5 198.937822 152.5"></polygon>
                        <polygon id="Polygon" points="223 159 229.062178 162.5 229.062178 169.5 223 173 216.937822 169.5 216.937822 162.5"></polygon>
                        <polygon id="Polygon" points="247 159 253.062178 162.5 253.062178 169.5 247 173 240.937822 169.5 240.937822 162.5"></polygon>
                        <polygon id="Polygon" points="241 169 247.062178 172.5 247.062178 179.5 241 183 234.937822 179.5 234.937822 172.5"></polygon>
                        <polygon id="Polygon" points="235 179 241.062178 182.5 241.062178 189.5 235 193 228.937822 189.5 228.937822 182.5"></polygon>
                        <polygon id="Polygon" points="235 79 241.062178 82.5 241.062178 89.5 235 93 228.937822 89.5 228.937822 82.5"></polygon>
                        <polygon id="Polygon" points="223 59 229.062178 62.5 229.062178 69.5 223 73 216.937822 69.5 216.937822 62.5"></polygon>
                        <polygon id="Polygon" points="217 69 223.062178 72.5 223.062178 79.5 217 83 210.937822 79.5 210.937822 72.5"></polygon>
                        <polygon id="Polygon" points="205 109 211.062178 112.5 211.062178 119.5 205 123 198.937822 119.5 198.937822 112.5"></polygon>
                        <polygon id="Polygon" points="211 119 217.062178 122.5 217.062178 129.5 211 133 204.937822 129.5 204.937822 122.5"></polygon>
                        <polygon id="Polygon" points="187 119 193.062178 122.5 193.062178 129.5 187 133 180.937822 129.5 180.937822 122.5"></polygon>
                        <polygon id="Polygon" points="205 129 211.062178 132.5 211.062178 139.5 205 143 198.937822 139.5 198.937822 132.5"></polygon>
                        <polygon id="Polygon" points="181 109 187.062178 112.5 187.062178 119.5 181 123 174.937822 119.5 174.937822 112.5"></polygon>
                        <polygon id="Polygon" points="187 119 193.062178 122.5 193.062178 129.5 187 133 180.937822 129.5 180.937822 122.5"></polygon>
                        <polygon id="Polygon" points="163 119 169.062178 122.5 169.062178 129.5 163 133 156.937822 129.5 156.937822 122.5"></polygon>
                        <polygon id="Polygon" points="181 129 187.062178 132.5 187.062178 139.5 181 143 174.937822 139.5 174.937822 132.5"></polygon>
                        <polygon id="Polygon" points="229 109 235.062178 112.5 235.062178 119.5 229 123 222.937822 119.5 222.937822 112.5"></polygon>
                        <polygon id="Polygon" points="235 119 241.062178 122.5 241.062178 129.5 235 133 228.937822 129.5 228.937822 122.5"></polygon>
                        <polygon id="Polygon" points="211 119 217.062178 122.5 217.062178 129.5 211 133 204.937822 129.5 204.937822 122.5"></polygon>
                        <polygon id="Polygon" points="229 129 235.062178 132.5 235.062178 139.5 229 143 222.937822 139.5 222.937822 132.5"></polygon>
                        <polygon id="Polygon" points="205 30 211.062178 33.5 211.062178 40.5 205 44 198.937822 40.5 198.937822 33.5"></polygon>
                        <polygon id="Polygon" points="199 40 205.062178 43.5 205.062178 50.5 199 54 192.937822 50.5 192.937822 43.5"></polygon>
                        <polygon id="Polygon" points="217 50 223.062178 53.5 223.062178 60.5 217 64 210.937822 60.5 210.937822 53.5"></polygon>
                        <polygon id="Polygon" points="139 0 145.062178 3.5 145.062178 10.5 139 14 132.937822 10.5 132.937822 3.5"></polygon>
                        <polygon id="Polygon" points="157 10 163.062178 13.5 163.062178 20.5 157 24 150.937822 20.5 150.937822 13.5"></polygon>
                        <polygon id="Polygon" points="133 10 139.062178 13.5 139.062178 20.5 133 24 126.937822 20.5 126.937822 13.5"></polygon>
                        <polygon id="Polygon" points="127 0 133.062178 3.5 133.062178 10.5 127 14 120.937822 10.5 120.937822 3.5"></polygon>
                        <polygon id="Polygon" points="115 0 121.062178 3.5 121.062178 10.5 115 14 108.937822 10.5 108.937822 3.5"></polygon>
                        <polygon id="Polygon" points="139 20 145.062178 23.5 145.062178 30.5 139 34 132.937822 30.5 132.937822 23.5"></polygon>
                        <polygon id="Polygon" points="115 20 121.062178 23.5 121.062178 30.5 115 34 108.937822 30.5 108.937822 23.5"></polygon>
                        <polygon id="Polygon" points="103 39 109.062178 42.5 109.062178 49.5 103 53 96.9378222 49.5 96.9378222 42.5"></polygon>
                        <polygon id="Polygon" points="133 30 139.062178 33.5 139.062178 40.5 133 44 126.937822 40.5 126.937822 33.5"></polygon>
                        <polygon id="Polygon" points="133 30 139.062178 33.5 139.062178 40.5 133 44 126.937822 40.5 126.937822 33.5"></polygon>
                        <polygon id="Polygon" points="139 40 145.062178 43.5 145.062178 50.5 139 54 132.937822 50.5 132.937822 43.5"></polygon>
                        <polygon id="Polygon" points="115 39 121.062178 42.5 121.062178 49.5 115 53 108.937822 49.5 108.937822 42.5"></polygon>
                        <polygon id="Polygon" points="133 50 139.062178 53.5 139.062178 60.5 133 64 126.937822 60.5 126.937822 53.5"></polygon>
                        <polygon id="Polygon" points="145 50 151.062178 53.5 151.062178 60.5 145 64 138.937822 60.5 138.937822 53.5"></polygon>
                        <polygon id="Polygon" points="151 60 157.062178 63.5 157.062178 70.5 151 74 144.937822 70.5 144.937822 63.5"></polygon>
                        <polygon id="Polygon" points="127 59 133.062178 62.5 133.062178 69.5 127 73 120.937822 69.5 120.937822 62.5"></polygon>
                        <polygon id="Polygon" points="145 70 151.062178 73.5 151.062178 80.5 145 84 138.937822 80.5 138.937822 73.5"></polygon>
                        <polygon id="Polygon" points="169 50 175.062178 53.5 175.062178 60.5 169 64 162.937822 60.5 162.937822 53.5"></polygon>
                        <polygon id="Polygon" points="175 60 181.062178 63.5 181.062178 70.5 175 74 168.937822 70.5 168.937822 63.5"></polygon>
                        <polygon id="Polygon" points="151 60 157.062178 63.5 157.062178 70.5 151 74 144.937822 70.5 144.937822 63.5"></polygon>
                        <polygon id="Polygon" points="169 70 175.062178 73.5 175.062178 80.5 169 84 162.937822 80.5 162.937822 73.5"></polygon>
                        <polygon id="Polygon" points="193 50 199.062178 53.5 199.062178 60.5 193 64 186.937822 60.5 186.937822 53.5"></polygon>
                        <polygon id="Polygon" points="199 60 205.062178 63.5 205.062178 70.5 199 74 192.937822 70.5 192.937822 63.5"></polygon>
                        <polygon id="Polygon" points="175 60 181.062178 63.5 181.062178 70.5 175 74 168.937822 70.5 168.937822 63.5"></polygon>
                        <polygon id="Polygon" points="193 70 199.062178 73.5 199.062178 80.5 193 84 186.937822 80.5 186.937822 73.5"></polygon>
                        <polygon id="Polygon" points="175 20 181.062178 23.5 181.062178 30.5 175 34 168.937822 30.5 168.937822 23.5"></polygon>
                        <polygon id="Polygon" points="181 30 187.062178 33.5 187.062178 40.5 181 44 174.937822 40.5 174.937822 33.5"></polygon>
                        <polygon id="Polygon" points="157 30 163.062178 33.5 163.062178 40.5 157 44 150.937822 40.5 150.937822 33.5"></polygon>
                        <polygon id="Polygon" points="175 40 181.062178 43.5 181.062178 50.5 175 54 168.937822 50.5 168.937822 43.5"></polygon>
                        <polygon id="Polygon" points="151 20 157.062178 23.5 157.062178 30.5 151 34 144.937822 30.5 144.937822 23.5"></polygon>
                        <polygon id="Polygon" points="157 30 163.062178 33.5 163.062178 40.5 157 44 150.937822 40.5 150.937822 33.5"></polygon>
                        <polygon id="Polygon" points="133 30 139.062178 33.5 139.062178 40.5 133 44 126.937822 40.5 126.937822 33.5"></polygon>
                        <polygon id="Polygon" points="151 40 157.062178 43.5 157.062178 50.5 151 54 144.937822 50.5 144.937822 43.5"></polygon>
                        <polygon id="Polygon" points="205 30 211.062178 33.5 211.062178 40.5 205 44 198.937822 40.5 198.937822 33.5"></polygon>
                        <polygon id="Polygon" points="181 30 187.062178 33.5 187.062178 40.5 181 44 174.937822 40.5 174.937822 33.5"></polygon>
                        <polygon id="Polygon" points="199 40 205.062178 43.5 205.062178 50.5 199 54 192.937822 50.5 192.937822 43.5"></polygon>
                    </g>
                    <path d="M44.7866795,50.6641812 C46.9905571,48.1510437 48.4018031,46.7349227 49.0204177,46.4158182 C49.6247711,46.1040701 50.1818279,46.1710004 50.6230746,46.5763971 C50.9059537,46.8362931 51.0731948,47.1209515 51.386201,47.7702552 C51.9004365,48.8371305 52.0849174,49.0065315 52.5360234,48.7889258 C52.8099315,48.6567973 53.5124485,47.5998313 55.0868789,44.9997456 C56.9078125,41.9928653 57.5228529,41.0798824 58.1087935,40.8189483 C58.7528463,40.5321353 59.300109,40.8015105 59.6749198,41.4239184 C59.9015907,41.8003264 60.0403493,42.1879691 60.3146254,43.0970047 C60.6972762,44.3652253 60.931658,44.847021 61.1193688,44.8768748 C61.5981349,44.9530186 62.1199197,44.4063481 63.7395223,42.2361661 C65.0778561,40.4428695 65.8731978,39.6213515 66.8747979,39.2988926 C67.9086772,38.9660416 68.6035187,39.3887651 70.2994628,40.8952107 C70.9874022,41.5062823 71.3246405,41.7805464 71.7038636,42.0097492 C72.1050214,42.2522092 72.4368775,42.3511081 72.7237674,42.315621 C72.959725,42.286434 73.3919505,41.894833 75.2276009,40.0785721 C75.3807625,39.9270283 75.5154853,39.7947786 75.6443677,39.6696938 C77.072139,38.283993 77.9511589,37.6168049 78.7103891,37.5573265 C79.649169,37.4837821 79.9678572,38.0760789 80.4088117,39.7101889 C80.8158966,41.2127733 81.0683293,41.6430617 81.4455402,41.6220897 C81.9664211,41.5931301 82.6785063,41.1333123 84.5747776,39.6909066 C86.6051901,38.1520943 87.536799,37.5911231 88.4208541,37.5561891 C89.3695556,37.5187006 89.7275619,38.0825414 90.2821711,39.6612548 C90.7066001,40.8692388 90.9393669,41.23118 91.2584889,41.2224581 C92.0855681,41.1998535 93.0083008,40.7608069 95.2320634,39.4580005 C97.6431882,38.0457092 98.6744642,37.5647563 99.7664773,37.555816 C100.896914,37.546561 101.529442,38.0791232 102.642716,39.5295606 C103.567152,40.7334786 104.000396,41.1033729 104.616099,41.112127 C105.895329,41.1303151 107.075949,40.6420926 109.209536,39.3981561 C111.916799,37.8197523 112.711825,37.4586419 113.963355,37.557347 C115.216466,37.6561769 116.248311,38.4886344 117.594713,40.1252157 C117.596911,40.1278873 118.586385,41.3620313 118.832388,41.6408337 C119.20143,42.0590805 119.471374,42.2834798 119.63852,42.3305858 C119.811683,42.3793873 119.279615,42.4815812 122.72664,41.7625713 C123.517669,41.5975718 124.176156,41.4742511 124.810813,41.3778774 C127.02412,41.0417827 128.637385,41.0858716 129.690989,41.6870389 C130.53857,42.1706535 130.363391,42.6428126 129.176076,44.8264398 C128.399374,46.2670437 128.231266,46.8727627 128.387084,46.9674307 C128.657221,47.1315528 129.450243,47.0616329 132.25353,46.6586967 C132.840431,46.5743373 133.276673,46.5148811 133.707533,46.4622247 C136.57137,46.1122287 138.337642,46.1933616 139.338918,47.006641 C140.148455,47.6641826 139.876862,48.4221293 138.505609,51.0171087 C137.903972,52.1562679 137.651728,52.6842557 137.498824,53.1758146 C137.404191,53.4800458 138.307898,54.0635295 140.439212,54.6651454 C140.993182,54.7872151 141.330447,54.7274104 141.771575,54.6201574 C142.494361,54.4444238 143.186371,54.2354161 144.952837,53.6763646 C148.123807,52.6729057 149.206691,52.3888573 149.885933,52.5391053 C150.602549,52.6976207 150.722033,53.2942764 150.435475,53.969275 C150.285507,54.3225314 150.243943,54.3899165 149.551875,55.4606748 C149.44985,55.6185258 149.36953,55.7449742 149.294884,55.866027 C148.933493,56.4520953 148.736034,56.8730256 148.692644,57.1762897 C148.657892,57.4191841 148.714004,57.5129702 148.99041,57.602623 C150.249717,58.0110811 154.684443,58.0110811 162.135539,57.5790689 L163.093318,57.5235372 L162.590217,58.3404297 C160.309718,62.0433107 159.57017,64.4862092 160.223098,65.5882452 C160.346674,65.5731554 160.970254,65.4692378 160.903299,65.4798646 C162.780323,65.1819521 164.331356,65.3418162 165.979879,66.3961735 C166.865293,66.9624642 167.885416,68.688456 169.138633,71.6435932 L169.365375,72.1782595 L165.777294,73.1017969 L164.280883,76.5411705 L169.087918,82.0940595 L166.850796,89.5674026 L179.525227,89.5674026 C182.430417,87.8489567 185.090283,86.9326293 187.50814,86.8282809 C189.933424,86.723612 193.597681,87.375441 198.524408,88.778406 L199.640273,89.0961667 L198.642981,89.6890713 C196.100994,91.2003187 194.006024,93.0083003 192.354923,95.1135388 C190.807933,97.0860297 189.282117,99.7889138 187.781867,103.220315 C192.920039,102.825194 196.428139,103.016883 198.350683,103.819914 C202.359304,105.494283 205.772494,110.04747 206.183323,112.408041 C206.269144,112.901154 205.941817,113.171855 205.442357,113.303729 C205.170609,113.37548 204.836551,113.417585 204.224511,113.469812 C202.035985,113.656568 201.518058,113.719303 200.422093,114.011188 C199.483443,114.261176 198.667344,114.610033 197.975004,115.081594 C196.331971,116.200683 193.791516,118.991718 190.386955,123.433168 C194.871516,122.77913 198.733325,123.217876 201.963911,124.759371 C205.505914,126.449461 208.105851,129.378127 209.754579,133.520685 L210.042847,134.244983 L209.264322,134.204917 C205.464467,134.009364 202.101001,134.584106 199.167766,135.925489 C196.433775,137.175756 194.06678,139.095083 192.063529,141.689637 C195.79333,142.866377 198.746239,144.664617 200.912886,147.086969 C203.203757,149.648206 204.954562,153.286537 206.17476,157.998191 L206.6517,159.83984 L205.33088,158.470688 C202.094965,155.116361 198.596815,152.891579 194.833606,151.787828 C191.090107,150.689858 186.109706,150.414557 179.898536,150.970162 L177.223656,153.84875 L168.352864,149.140277 L173.921596,157.531522 L167.073893,164.98191 C160.20535,165.250918 155.29038,165.85844 152.135126,166.805513 C150.487546,167.300047 142.754779,169.676865 140.453807,170.402738 C138.094891,171.14689 128.114088,174.383169 125.490198,175.256911 C122.736657,176.173825 112.675896,179.609582 110.333304,180.427084 C107.583378,181.386735 97.0601979,185.142732 94.5273206,186.0654 C91.9805677,186.993123 81.5712481,190.859118 78.9264287,191.860138 L78.5724507,190.924885 C81.2211529,189.922395 91.6343737,186.054951 94.185046,185.1258 C96.7220907,184.201613 107.249526,180.444098 110.003817,179.482924 C112.350774,178.663898 122.41603,175.226607 125.17426,174.308131 C127.803154,173.432723 137.788987,170.194813 140.152958,169.449066 C142.458505,168.72175 150.195713,166.343567 151.847639,165.847728 C155.067111,164.88138 159.986382,164.267463 166.618987,163.999094 L172.655156,157.431666 L165.340144,146.409039 L177.013994,152.605328 L179.426526,150.009067 C186.031803,149.402655 191.195735,149.678713 195.11505,150.828251 C198.529506,151.829712 201.7247,153.706326 204.698788,156.45254 C203.558996,152.753225 202.04654,149.854405 200.167534,147.753641 C198.002044,145.332582 194.982248,143.561187 191.096957,142.442576 L190.412213,142.245431 L190.830514,141.668573 C193.019941,138.649241 195.66173,136.429212 198.751884,135.01607 C201.63095,133.699459 204.890571,133.087145 208.525748,133.176161 C206.962499,129.639482 204.634189,127.141518 201.533267,125.661893 C198.212753,124.077488 194.144895,123.727239 189.318672,124.624115 L188.053133,124.859295 L188.828088,123.831509 C192.68156,118.720832 195.529164,115.537562 197.412065,114.255095 C198.205584,113.714621 199.123865,113.322084 200.164737,113.044872 C201.340327,112.731781 201.884654,112.665847 204.139487,112.473434 C204.648328,112.430012 204.942576,112.394556 205.138832,112.348824 C204.91676,111.65047 204.191281,110.29104 203.276678,109.070961 C201.83126,107.142778 200.035992,105.607583 197.965262,104.742655 C196.135718,103.978469 192.475686,103.816162 187.037141,104.284377 L186.210499,104.355544 L186.533765,103.59141 C188.170962,99.7214233 189.847251,96.6905299 191.568058,94.4964141 C193.08054,92.5679215 194.944719,90.8809871 197.158487,89.4359609 C192.876652,88.2707917 189.66808,87.7359944 187.551257,87.827351 C185.283726,87.9252117 182.738542,88.8115348 179.919156,90.49659 L165.507606,90.5674026 L167.972437,82.3333734 L163.1127,76.7196056 L165.055137,72.2550794 L167.988055,71.5001747 C166.922179,69.0651806 166.046493,67.6258161 165.441078,67.2386066 C164.036457,66.3402432 162.718038,66.2043545 161.060052,66.4675024 C161.161852,66.4513452 160.468522,66.5668767 160.329798,66.5825814 C159.956459,66.6248462 159.737411,66.6023672 159.540641,66.3558545 C158.424376,64.9574097 159.040124,62.4075502 161.249264,58.6307657 C154.199731,59.0186696 150.057216,58.99993 148.681882,58.5538382 C147.935245,58.3116652 147.600149,57.7515871 147.702725,57.0346559 C147.771318,56.5552425 148.013811,56.0383115 148.443702,55.3411567 C148.522636,55.2131499 148.606484,55.0811476 148.712027,54.917852 C149.348505,53.9331042 149.399652,53.8501813 149.514989,53.5784998 C149.16444,53.453247 147.934432,53.7817101 145.296116,54.6166089 C141.144326,55.9305683 140.287649,56.1714935 139.938104,55.5616047 C137.395638,54.8175905 136.19424,54.0030625 136.543953,52.8787941 C136.722148,52.3059267 136.988689,51.7480126 137.586224,50.6166018 C138.586359,48.7239144 138.875071,47.9181934 138.708445,47.7828524 C138.008438,47.2142767 136.4013,47.1404536 133.828843,47.4548394 C133.40632,47.5064769 132.976324,47.5650819 132.395805,47.6485239 C128.975907,48.1400899 128.465393,48.1851014 127.86785,47.8220627 C126.953859,47.2667646 127.19714,46.3901873 128.186712,44.5533839 C128.976334,43.1003737 129.181415,42.5476168 129.195404,42.5555986 C128.400642,42.1021217 126.961299,42.0627859 124.960943,42.3665435 C124.347154,42.4597486 123.705436,42.5799288 122.930834,42.7415018 C122.84287,42.7598502 121.189986,43.1155605 120.804286,43.1896417 C120.064339,43.3317627 119.654871,43.3741477 119.367262,43.2930924 C118.956776,43.1774071 118.57328,42.8586134 118.082551,42.3024568 C117.818152,42.0028052 116.810651,40.7461766 116.822465,40.7605375 C115.643298,39.3272343 114.771901,38.6242204 113.884731,38.5542514 C112.93508,38.4793546 112.191857,38.8169351 109.713209,40.2620507 C107.424477,41.5964406 106.125309,42.1336861 104.601882,42.1120259 C103.559633,42.0972072 102.961172,41.5862535 101.913618,40.2220398 C100.926925,38.9365172 100.467982,38.5501062 99.7746641,38.5557824 C98.9380626,38.5626317 97.9624289,39.0176349 95.7971293,40.2859329 C93.3269823,41.7330825 92.3610189,42.1926986 91.2858094,42.2220849 C90.3039886,42.2489187 89.9236177,41.6574603 89.3604465,40.0546192 C88.9500456,38.8863921 88.7330483,38.544633 88.4603389,38.5554093 C87.8774627,38.578442 87.0049697,39.1038164 85.3944862,40.3240795 C83.0218552,42.1285638 82.3314539,42.5743796 81.5010518,42.6205478 C80.4064595,42.6814043 79.9816882,41.9573534 79.5103456,40.2191502 C79.1510707,38.8875915 78.9643152,38.5404977 78.7884902,38.5542719 C78.372948,38.5868257 77.5608357,39.20323 76.3408231,40.3872939 C76.2144864,40.5099079 76.0819806,40.6399813 75.9309434,40.7894232 C73.5861452,43.109454 73.4492238,43.2335062 72.8465278,43.3080573 C72.3040297,43.3751622 71.7629151,43.2139006 71.1866013,42.865576 C70.7368349,42.5937369 70.3699586,42.2953692 69.6353601,41.642852 C68.2592264,40.4204824 67.7037694,40.0825568 67.1812516,40.2507782 C66.4601421,40.4829349 65.7426572,41.2240337 64.5409442,42.8342657 C62.5224829,45.5388972 62.0470683,46.0369858 60.9623012,45.8644627 C60.1719685,45.7387668 59.8960441,45.1715759 59.3727474,43.4372188 C59.1101358,42.5668387 58.9845006,42.215858 58.8182574,41.9397959 C58.235891,41.8570241 57.4764518,42.9843565 55.9704758,45.4711501 C54.069001,48.6113294 53.5325075,49.4185063 52.9704977,49.68961 C51.7949975,50.2566509 51.2200969,49.7287443 50.5145843,48.2650486 C50.2317459,47.6783043 50.0996656,47.4534925 49.9465156,47.3127855 C49.1334081,47.5658985 47.6831881,48.8803824 45.5958555,51.2562373 C37.5354216,65.450069 36.3471278,71.238772 32.2634823,90.0517459 C32.2204629,90.2499298 32.2204629,90.2499298 32.1774316,90.448125 C28.8393952,105.821131 26.532949,113.503087 21.1492602,124.444138 L20.2520027,124.002631 C25.5915919,113.151201 27.8780296,105.535887 31.2002035,90.2359334 C31.243224,90.0377879 31.243224,90.0377879 31.2862399,89.8396204 C35.3894938,70.936312 36.6659963,64.9641073 44.7866795,50.6641812 Z" id="face" fill="#000000" fill-rule="nonzero" opacity="0.5" mask="url(#mask-2)"></path>
                </g>
            </g>
        </g>
    </g>
</svg>