<?xml version="1.0" encoding="UTF-8"?>
<svg width="480px" height="300px" viewBox="0 0 480 300" version="1.1" xmlns="http://www.w3.org/2000/svg" xmlns:xlink="http://www.w3.org/1999/xlink">
    <!-- Generator: Sketch 50.2 (55047) - http://www.bohemiancoding.com/sketch -->
    <title>Avatars</title>
    <desc>Created with Sketch.</desc>
    <defs></defs>
    <g id="Avatars" stroke="none" stroke-width="1" fill="none" fill-rule="evenodd">
        <rect id="Frame" fill="#E6E6E6" x="0" y="0" width="480" height="300"></rect>
        <g id="Dwarf" transform="translate(107.000000, 33.000000)">
            <g id="Female" transform="translate(1.000000, 0.000000)">
                <path d="M1,266.747178 C1.73282108,256.660911 1.69896691,249.469144 0.8984375,245.171875 C-1.90803452,230.10664 10.8664471,186.45187 11.4408338,181.403559 C11.988784,176.5876 18.9237169,163.036144 28.3296641,156.332325 C35.3231847,151.347894 54.634249,143.407454 86.2628569,132.511006 C81.6513797,128.355001 78.2187087,124.728936 75.9648438,121.632812 C70.9923502,114.802121 68.3053887,103.935065 67.8319061,102.182045 C65.4223408,93.2608768 66.2976481,49.7913237 73.5272647,43.0323397 C80.4523564,36.5580568 102.277863,25.4794525 120.427734,26.1660156 C132.308458,26.6154329 149.334045,31.0282878 158.341576,40.3398437 C162.319153,44.451673 161.359506,49.4010289 163.261069,52.7990207 C170.865545,66.3878103 166.843683,97.1173339 166.843683,112.402433 C166.843683,124.137744 159.489792,125.695713 158.341576,131.191077 C157.883342,133.384191 163.025483,135.286528 173.768002,136.898089 C178.481409,138.4516 213.269531,150.332325 225.136719,152.332325 C237.003906,154.332325 246.367446,174.406415 251.412412,185.744993 C255.67676,195.329129 265.457509,230.407652 266.243189,235.490243 C267.202494,241.696025 266.813888,252.115003 265.077368,266.747178 L206.737448,266.747178 L45.3550448,266.747178 L1,266.747178 Z" id="body" fill="{skin-color}"></path>
                <path d="M172.953616,262.639718 C179.55764,261.979834 186.906523,258.094101 191.695221,252.169596 C197.533865,244.946114 199.326086,235.363264 195.93051,223.979714 C195.038298,220.988606 194.227006,219.1002 193.272654,217.601953 C192.946003,217.089141 192.624877,216.647445 192.12704,216.007834 C189.967396,213.233164 189.186624,211.998017 187.706905,208.46412 L188.629307,208.07789 C190.069431,211.517224 190.806192,212.682748 192.916177,215.393616 C193.431654,216.055892 193.769377,216.520415 194.11608,217.064708 C195.12486,218.6484 195.971875,220.619959 196.888786,223.693872 C200.377552,235.389835 198.521247,245.315334 192.472936,252.798213 C187.514141,258.933159 179.919922,262.948614 173.053042,263.634763 C153.346994,265.603821 140.418836,257.468239 133.884756,237.857277 C133.803068,238.658048 133.699429,239.296712 133.567462,239.772431 C129.110706,255.838362 115.546035,266.260982 100.261836,266.874259 C84.6305663,267.501462 71.5334247,257.767912 67.5165019,240.40823 C65.9643693,233.700477 66.1858143,227.774859 67.8319259,220.330164 C68.1051516,219.094475 68.4173776,217.806376 68.8121832,216.265482 C68.9669131,215.661584 69.1281634,215.042145 69.3451829,214.215573 C69.3216387,214.305247 69.7662017,212.614609 69.8899062,212.141661 C70.3047499,210.555627 70.6104641,209.353302 70.8998346,208.153752 L71.8719493,208.388258 C71.5808243,209.595081 71.2736782,210.803038 70.85736,212.394708 C70.7334605,212.868402 70.2887053,214.559771 70.3124011,214.46952 C70.0958409,215.294342 69.9350417,215.912048 69.7808917,216.513683 C69.3886188,218.044692 69.0788732,219.322558 68.808342,220.546061 C67.1919864,227.856182 66.9759737,233.636438 68.4907596,240.182793 C72.3981587,257.069153 85.0654006,266.483209 100.221743,265.875063 C115.077716,265.278968 128.264896,255.1464 132.603852,239.505121 C132.828098,238.696747 132.971799,237.247875 133.058365,235.239904 C131.902723,231.208076 130.984931,226.779332 130.303746,221.907571 L131.270683,221.672658 L134.089133,229.698118 C134.182276,229.771918 134.225356,229.845889 134.262159,229.939716 C134.310313,230.062481 134.34791,230.260311 134.395394,230.599911 C134.182336,230.905029 134.170486,231.282611 134.15755,231.821011 C134.159623,231.734738 134.129671,233.037566 134.119167,233.439573 C134.103244,234.048965 134.086082,234.585859 134.065293,235.095656 C140.177042,256.047734 152.947175,264.638792 172.953616,262.639718 Z M134.22235,230.292407 C134.223362,230.288092 134.224026,230.283728 134.224759,230.278677 C134.224366,230.281388 134.223974,230.284158 134.223585,230.286986 L134.22235,230.292407 Z M133.3377,230.329562 C133.334869,230.316914 133.332672,230.308592 133.331214,230.304874 C133.331743,230.306224 133.332276,230.307571 133.332814,230.308914 L133.3377,230.329562 Z M133.221657,230.245966 L132.228499,227.417975 C132.513621,228.894629 132.824114,230.322932 133.160116,231.703308 C133.179236,230.926004 133.195693,230.499822 133.221657,230.245966 Z" id="breast" fill="#000000" fill-rule="nonzero" opacity="0.3" transform="translate(132.552725, 237.490351) rotate(2.000000) translate(-132.552725, -237.490351) "></path>
                <polygon id="armpit-l" fill="#000000" opacity="0.5" points="59.4343274 268.248594 67.1567259 230.435764 67.1567259 268.248594"></polygon>
                <polygon id="armpit-r" fill="#000000" opacity="0.5" transform="translate(202.998255, 249.213082) scale(-1, 1) translate(-202.998255, -249.213082) " points="199.137056 268.119497 206.859454 230.306667 206.859454 268.119497"></polygon>
                <path d="M81.6360631,121.110434 L82.3639369,120.424723 C82.5251432,120.595841 87.2099085,126.304437 89.1931023,128.24822 C95.4404401,134.371407 103.209973,137.769531 114.433594,137.769531 C134.488516,137.769531 145.929068,136.580415 152.313172,133.978964 C157.552561,131.843972 159.313399,129.291403 161.110279,122.884101 C161.204798,122.547067 161.640308,120.966837 161.765619,120.521031 C162.035106,119.562299 162.271549,118.763167 162.523659,117.973016 L163.476341,118.276984 C163.228211,119.054662 162.994901,119.843204 162.72831,120.791631 C162.603894,121.234258 162.168489,122.814104 162.073133,123.154126 C160.201041,129.829615 158.267559,132.632455 152.690534,134.90503 C146.149356,137.570487 134.613282,138.769531 114.433594,138.769531 C102.938888,138.769531 94.921486,135.262998 88.4931273,128.962387 C86.4622276,126.971846 81.7601224,121.242121 81.6360631,121.110434 Z" id="jaw" fill="#000000" fill-rule="nonzero" opacity="0.3"></path>
                <path d="M81.4169586,113.878723 C82.1708568,117.095357 83.1194527,120.273863 83.6948701,122.41748 C84.8016948,126.540764 91.3095494,127.786142 85.6645028,135.108398 C81.9001357,139.991203 74.3661195,162.71831 37.6484375,150.21875 C27.5469904,146.779981 47.8290998,127.627119 51.269094,119.308594 C52.6729639,115.913784 54.8485718,112.277446 57.6796802,109.205625 C52.3695042,106.112106 56.048202,89.6927138 61.4937963,84.9824219 C63.0155558,83.6661411 64.625042,82.2965834 66.4474645,81.2257217 C52.9291342,77.7627832 58.8662231,67.0599408 67.1461719,60.7327129 C58.0587386,56.8839276 56.9184265,50.9034368 63.697515,47.9963359 C62.9735327,44.7369728 64.2029621,39.4358592 68.3378906,31.2827239 L69.3378906,29.5703125 C76.1786934,24.1087039 84.1848738,20.4544586 92.7405393,18.2974244 C83.0964149,15.3407219 91.6971545,2.41786815 102.896484,1.55664063 C115.563671,0.582535055 127.233983,-0.670830232 138.513672,5.68945312 C146.457491,10.1687383 143.960285,15.4910177 139.123027,18.9966889 C141.581879,19.6003671 143.998136,20.282269 146.357422,21.0351563 C152.414615,22.9681066 181.357574,33.6455532 171.891894,46.3940578 C183.309644,47.4015899 184.407314,55.810468 175.138661,60.7327129 C181.741999,67.0599408 186.476884,77.7627832 175.695887,81.2257217 C177.149286,82.2965834 178.432867,83.6661411 179.646484,84.9824219 C183.989397,89.6927138 186.923194,106.112106 182.688278,109.205625 C184.946114,112.277446 186.681182,115.913784 187.800781,119.308594 C190.544209,127.627119 202.96225,141.168652 194.90625,144.607422 C165.623551,157.106982 163.372236,139.991203 160.370117,135.108398 C155.868139,127.786142 161.058215,126.540764 161.940918,122.41748 C162.399819,120.273863 163.156333,117.095357 163.757574,113.878723 L163.646484,81.578125 C163.159671,75.9536934 162.578784,67.5865468 162.622461,61.6902257 C161.639357,58.4495603 160.652629,52.7819804 160.370117,51.9697266 C159.833993,50.428308 159.151042,49.633441 158.505672,49.1666204 C148.50277,47.1761019 136.416004,41.1459064 133.394531,40.7929688 C129.127141,40.2944958 125.167211,43.8914726 120.871094,43.8417969 C104.570541,43.6533146 113.179718,37.3292984 101.292969,42.328125 C98.5076989,43.4994361 94.6497679,45.2637281 90.4566107,46.9934094 C91.315989,49.4181328 87.6705444,47.3700151 85.6645028,51.9697266 C85.31026,52.7819804 84.0729988,58.4495603 82.8402809,61.6902257 C82.8950479,67.5865468 82.1666711,75.9536934 81.5562542,81.578125 L81.4169586,113.878723 Z" id="hair" fill="{hair-color}"></path>
                <path d="M69.7224672,29.903184 L68.7838201,31.5088807 C64.8910107,39.1846125 63.4515707,44.5832375 64.1856187,47.8879165 L63.8945764,48.4558648 C57.4535904,51.217976 58.7850477,56.6485447 67.3411682,60.2723039 L68.1331877,60.6077466 L67.4497608,61.129996 C63.0850245,64.4653645 59.8640033,68.6198291 59.1115217,72.1573554 C58.2543753,76.186926 60.5588614,79.2011164 66.5715413,80.7413614 L67.7464865,81.0423425 L66.7007722,81.6568078 C65.2028386,82.5369987 63.9907238,83.4837406 61.8208957,85.3605832 C56.2092822,90.2144772 53.2866006,106.067716 57.9313677,108.773591 L58.4691065,109.086858 L58.0473454,109.544479 C55.4078008,112.408449 53.2078504,115.928727 51.7311447,119.499667 C50.7134498,121.960637 49.8156356,123.241931 43.7053803,131.437099 C43.1568895,132.172743 42.6937095,132.798625 42.2559741,133.396904 C38.8585295,138.040391 36.8609712,141.249687 35.9097841,143.893978 C34.7864623,147.016802 35.3238809,148.899238 37.8095685,149.745425 C58.3121648,156.724989 70.9684817,153.560495 79.2404831,143.7462 C81.285384,141.320033 85.3207974,134.735306 85.2685189,134.803117 C88.3158279,130.850417 88.0807626,129.13968 85.4746459,126.125449 C84.0533311,124.482646 83.522722,123.704777 83.2119656,122.547108 C83.0819656,122.062815 82.0770485,118.468342 81.7550839,117.26259 C81.4416272,116.0887 81.170197,115.017018 80.9301505,113.992819 L81.0591731,81.524177 C81.8602896,74.1426235 82.3872051,66.7444942 82.3403024,61.6948697 C82.7533468,60.5050347 83.1377799,59.2795811 83.5600273,57.7759533 C83.7827459,56.9828501 85.0446795,52.1401855 85.2061928,51.7698468 C85.7297075,50.5694646 86.3966555,49.7054265 87.20251,49.0973168 C87.6046379,48.7938653 88.0257419,48.5639845 88.4996891,48.3702053 C88.7841339,48.2539064 89.8158677,47.9032266 89.5404628,48.0005604 C90.1577189,47.7824093 90.1888956,47.7347834 89.9853352,47.1604404 L89.8265533,46.7124397 C90.4935808,46.4372902 90.7230983,46.3421033 90.9547861,46.2455231 C93.3502207,45.2469746 100.309605,42.1992524 101.099142,41.8672225 C106.158988,39.7393662 107.776208,39.4853838 109.30464,40.4517886 C109.212568,40.3935729 110.617482,41.3869191 111.179176,41.686237 C113.081968,42.7002046 115.981114,43.2852209 120.876875,43.3418303 C122.474863,43.3603077 123.757291,42.9797253 126.597673,41.830433 C126.931317,41.6954321 127.058394,41.6441547 127.23382,41.574011 C129.967462,40.4809712 131.605423,40.0805839 133.452542,40.2963454 C134.308051,40.3962773 135.715936,40.8638902 138.265409,41.8470267 C137.944918,41.7234381 143.980059,44.0913163 145.925809,44.8193324 C148.470351,45.7713908 150.740996,46.5564774 152.89672,47.2122052 C154.9463,47.8356462 156.844939,48.3263408 158.603255,48.6762354 C159.653816,49.3800229 160.331856,50.3376949 160.842368,51.805472 C160.96906,52.1697274 161.972958,57.0003327 162.152465,57.8018627 C162.489675,59.3075585 162.796769,60.5350329 163.086134,61.4961229 C163.085006,66.7484383 163.505413,74.149864 164.146481,81.5764054 L164.249062,113.97059 C164.057803,114.993822 163.841506,116.064657 163.591694,117.23774 C163.335058,118.442863 162.533643,122.037264 162.42984,122.522148 C162.184821,123.66668 161.762171,124.443602 160.722141,125.950915 C158.543654,129.110213 158.350863,130.869537 160.796051,134.84652 C160.880359,134.983644 160.965319,135.131717 161.052214,135.292385 C161.213093,135.589853 163.115775,139.823418 163.936137,141.22893 C168.744498,149.467005 177.438334,151.520098 194.709956,144.147565 C196.923561,143.202669 197.52114,141.417591 196.79458,138.587678 C196.203799,136.28662 194.976799,133.821581 192.350353,129.276853 C192.246757,129.097593 192.176207,128.97572 192.001719,128.674528 C189.072118,123.618622 188.07043,121.722618 187.325938,119.465196 C186.146606,115.889266 184.390565,112.365859 182.285399,109.501747 L181.988401,109.097677 L182.393346,108.801873 C186.096136,106.097062 183.755374,90.1765149 179.278886,85.3213491 C177.551827,83.4481934 176.58739,82.503641 175.399299,81.6282581 L174.612507,81.0485512 L175.542978,80.7496768 C180.294255,79.2235302 182.133813,76.2065379 181.443442,72.1369518 C180.840356,68.5818893 178.271063,64.4266186 174.792736,61.0937335 L174.293528,60.615399 L174.904148,60.291121 C183.967446,55.4779323 182.507328,47.8327344 171.847944,46.8921224 L170.95766,46.8135615 L171.490452,46.09599 C175.468341,40.7385156 172.653888,35.3571443 164.669881,30.0757927 C159.241486,26.4849568 151.955306,23.3463753 146.205416,21.5114903 C143.846264,20.7586461 141.440692,20.0805524 139.003811,19.4822686 L137.95594,19.2250035 L138.829617,18.5918304 C144.457545,14.5131423 144.927073,9.87979076 138.268088,6.12498561 C133.269657,3.30651769 127.97451,1.85783485 121.816129,1.41304293 C117.122562,1.07404786 113.504188,1.23023131 104.276241,1.95102834 C103.723162,1.99422943 103.328305,2.0249099 102.934821,2.05516875 C97.8515048,2.44607535 92.8865738,5.51519312 90.4248209,9.40844741 C88.004058,13.2368763 88.7621586,16.5547593 92.8870967,17.8193858 L94.5995323,18.3443855 L92.8627731,18.7822531 C84.0686889,20.9993969 76.2571604,24.7046009 69.7224672,29.903184 Z M82.7212329,117.004605 C83.0412425,118.203036 84.0459232,121.796664 84.1777745,122.287853 C84.4363152,123.251001 84.9068096,123.940743 86.1172553,125.339811 C89.1231244,128.816314 89.429228,131.044046 86.0604868,135.41368 C86.1616745,135.282428 82.1108007,141.892383 80.0051127,144.39067 C71.4606833,154.528186 58.3704281,157.801179 37.4873065,150.692075 C34.3873089,149.636763 33.6766787,147.147612 34.9688108,143.555497 C35.9626575,140.792613 37.9963785,137.525217 41.4489249,132.80642 C41.8886497,132.205422 42.3535375,131.577232 42.9036874,130.839363 C48.9228587,122.766358 49.8385098,121.459609 50.8070433,119.11752 C52.2557428,115.614304 54.3781296,112.162156 56.9293843,109.289705 C52.2436058,105.428665 55.3086248,89.6713346 61.166697,84.6042605 C62.9082006,83.097907 64.0520267,82.1733299 65.2230218,81.3995159 C59.5277105,79.6334568 57.2120249,76.2808409 58.1334054,71.9492963 C58.9042101,68.3256305 61.9811812,64.2276166 66.1817714,60.8531834 C57.7618546,56.9728624 56.3467383,50.843796 63.1308909,47.701517 C62.5246418,44.1008427 64.0497587,38.6325845 67.9061212,31.0305827 L68.9061212,29.3181713 C75.3251477,24.1503547 82.7859696,20.4926435 91.1491845,18.1991281 C87.6094406,16.3991485 87.1368092,12.7372962 89.579612,8.87401136 C92.2078468,4.71746638 97.4555104,1.47357484 102.858148,1.0581125 C103.251151,1.02789056 103.645655,0.99723755 104.198368,0.954065059 C113.478225,0.229213297 117.126602,0.0717348052 121.888167,0.415641025 C128.186248,0.870522861 133.623722,2.35814449 138.759256,5.25392064 C145.788155,9.21730918 145.611214,14.41976 140.249918,18.7634626 C142.364665,19.3034949 144.454416,19.9030339 146.509428,20.5588222 C152.339321,22.4192372 159.702764,25.5911002 165.221589,29.2417556 C173.287634,34.5773742 176.468324,40.2611769 172.782245,45.9866815 C183.444122,47.3372674 185.000549,55.6681678 175.968327,60.8459399 C179.342844,64.2307359 181.81481,68.3470797 182.429357,71.9696999 C183.158271,76.2664964 181.309617,79.6160623 176.724224,81.3925375 C177.678376,82.1773094 178.59961,83.1093685 180.014082,84.6434946 C184.693245,89.7184799 187.128678,105.460301 183.360722,109.282301 C185.411,112.164293 187.115124,115.633164 188.275624,119.151992 C188.989206,121.31569 189.978693,123.1886 192.86696,128.173172 C193.041631,128.47468 193.112349,128.596843 193.216168,128.776489 C195.890407,133.403916 197.141348,135.917052 197.763166,138.339001 C198.601026,141.602418 197.831004,143.902614 195.102544,145.067279 C177.397802,152.624693 168.155786,150.442145 163.072487,141.733021 C162.218801,140.270417 160.307054,136.01668 160.172614,135.7681 C157.27251,131.024926 157.511306,128.845781 159.808257,125.514598 C160.867256,123.979786 161.242995,123.289098 161.451996,122.312813 C161.557022,121.822215 162.358281,118.228515 162.613625,117.029456 C162.861812,115.864006 163.0765,114.801137 163.257577,113.880443 L163.148347,81.6212405 C162.509826,74.2440454 162.088929,66.8531237 162.121948,61.7623137 C161.826311,60.7772777 161.516109,59.5362001 161.176638,58.020405 C160.975283,57.1213231 159.999596,52.4264654 159.897867,52.1339812 C159.470685,50.9057857 158.94072,50.1313062 158.296957,49.6347447 C156.535177,49.27953 154.642057,48.7883409 152.605706,48.1689239 C150.427654,47.5064044 148.138046,46.7147614 145.575378,45.7559208 C143.620794,45.0245996 137.578592,42.6539508 137.90561,42.7800569 C135.450276,41.8332225 134.072278,41.3755357 133.336521,41.2895921 C131.702576,41.0987314 130.193197,41.4676877 127.605089,42.5025365 C127.431395,42.5719874 127.305079,42.622958 126.972758,42.7574237 C124.00841,43.9568757 122.64224,44.36231 120.865313,44.3417635 C115.822383,44.2834524 112.771301,43.6677768 110.708896,42.5687545 C110.080775,42.2340388 108.631104,41.2090469 108.77022,41.2970078 C107.618973,40.569091 106.25696,40.7829934 101.486796,42.7890275 C100.706817,43.1170379 93.7455099,46.1656021 91.3395495,47.1685383 C91.2163794,48.1363305 90.8176877,48.6032312 89.9016913,48.9334128 C90.0202507,48.8903228 89.116975,49.1981759 88.8781409,49.2958262 C88.4793914,49.45886 88.1328783,49.6480216 87.8048649,49.8955453 C87.1392645,50.3978171 86.5789558,51.1237029 86.1228129,52.1696063 C85.9979067,52.4560073 84.7776321,57.1388058 84.5227863,58.0463144 C84.0987341,59.5563692 83.7109547,60.7944742 83.3410642,61.7794783 C83.3811201,66.8745335 82.8534401,74.2596883 82.0562495,81.5802812 L81.9172084,113.821888 C82.1514007,114.817949 82.4160978,115.86188 82.7212329,117.004605 Z M89.8805125,48.94099 C89.8898639,48.937675 89.8966876,48.9352314 89.9016913,48.9334128 C89.8946621,48.9359466 89.8876025,48.9384722 89.8805125,48.94099 Z M89.8736849,48.9434087 C89.8759639,48.9426033 89.8782397,48.9417971 89.8805125,48.94099 C89.8787623,48.9416128 89.8762936,48.9424868 89.8736849,48.9434087 Z" id="hair-outline" fill="#000000" fill-rule="nonzero" opacity="0.05"></path>
            </g>
        </g>
    </g>
</svg>