<?xml version="1.0" encoding="UTF-8"?>
<svg width="480px" height="300px" viewBox="0 0 480 300" version="1.1" xmlns="http://www.w3.org/2000/svg" xmlns:xlink="http://www.w3.org/1999/xlink">
    <!-- Generator: Sketch 50.2 (55047) - http://www.bohemiancoding.com/sketch -->
    <title>Artboard</title>
    <desc>Created with Sketch.</desc>
    <defs></defs>
    <g id="Artboard" stroke="none" stroke-width="1" fill="none" fill-rule="evenodd">
        <rect id="Frame" fill="#E6E6E6" x="0" y="0" width="480" height="300"></rect>
        <g id="Avatars" transform="translate(87.000000, 27.000000)">
            <g id="Dwarf" transform="translate(20.000000, 6.000000)">
                <g id="Female" transform="translate(1.000000, 0.000000)">
                    <path d="M1,266.747178 C1.73282108,256.660911 1.69896691,249.469144 0.8984375,245.171875 C-1.90803452,230.10664 10.8664471,186.45187 11.4408338,181.403559 C11.988784,176.5876 18.9237169,163.036144 28.3296641,156.332325 C35.3231847,151.347894 54.634249,143.407454 86.2628569,132.511006 C81.6513797,128.355001 78.2187087,124.728936 75.9648438,121.632812 C70.9923502,114.802121 68.3053887,103.935065 67.8319061,102.182045 C65.4223408,93.2608768 66.2976481,49.7913237 73.5272647,43.0323397 C80.4523564,36.5580568 102.277863,25.4794525 120.427734,26.1660156 C132.308458,26.6154329 149.334045,31.0282878 158.341576,40.3398437 C162.319153,44.451673 161.359506,49.4010289 163.261069,52.7990207 C170.865545,66.3878103 166.843683,97.1173339 166.843683,112.402433 C166.843683,124.137744 159.489792,125.695713 158.341576,131.191077 C157.883342,133.384191 163.025483,135.286528 173.768002,136.898089 C178.481409,138.4516 213.269531,150.332325 225.136719,152.332325 C237.003906,154.332325 246.367446,174.406415 251.412412,185.744993 C255.67676,195.329129 265.457509,230.407652 266.243189,235.490243 C267.202494,241.696025 266.813888,252.115003 265.077368,266.747178 L206.737448,266.747178 L45.3550448,266.747178 L1,266.747178 Z" id="Path-3" fill="#E1B499"></path>
                    <path d="M172.953616,262.639718 C179.55764,261.979834 186.906523,258.094101 191.695221,252.169596 C197.533865,244.946114 199.326086,235.363264 195.93051,223.979714 C195.038298,220.988606 194.227006,219.1002 193.272654,217.601953 C192.946003,217.089141 192.624877,216.647445 192.12704,216.007834 C189.967396,213.233164 189.186624,211.998017 187.706905,208.46412 L188.629307,208.07789 C190.069431,211.517224 190.806192,212.682748 192.916177,215.393616 C193.431654,216.055892 193.769377,216.520415 194.11608,217.064708 C195.12486,218.6484 195.971875,220.619959 196.888786,223.693872 C200.377552,235.389835 198.521247,245.315334 192.472936,252.798213 C187.514141,258.933159 179.919922,262.948614 173.053042,263.634763 C153.346994,265.603821 140.418836,257.468239 133.884756,237.857277 C133.803068,238.658048 133.699429,239.296712 133.567462,239.772431 C129.110706,255.838362 115.546035,266.260982 100.261836,266.874259 C84.6305663,267.501462 71.5334247,257.767912 67.5165019,240.40823 C65.9643693,233.700477 66.1858143,227.774859 67.8319259,220.330164 C68.1051516,219.094475 68.4173776,217.806376 68.8121832,216.265482 C68.9669131,215.661584 69.1281634,215.042145 69.3451829,214.215573 C69.3216387,214.305247 69.7662017,212.614609 69.8899062,212.141661 C70.3047499,210.555627 70.6104641,209.353302 70.8998346,208.153752 L71.8719493,208.388258 C71.5808243,209.595081 71.2736782,210.803038 70.85736,212.394708 C70.7334605,212.868402 70.2887053,214.559771 70.3124011,214.46952 C70.0958409,215.294342 69.9350417,215.912048 69.7808917,216.513683 C69.3886188,218.044692 69.0788732,219.322558 68.808342,220.546061 C67.1919864,227.856182 66.9759737,233.636438 68.4907596,240.182793 C72.3981587,257.069153 85.0654006,266.483209 100.221743,265.875063 C115.077716,265.278968 128.264896,255.1464 132.603852,239.505121 C132.828098,238.696747 132.971799,237.247875 133.058365,235.239904 C131.902723,231.208076 130.984931,226.779332 130.303746,221.907571 L131.270683,221.672658 L134.089133,229.698118 C134.182276,229.771918 134.225356,229.845889 134.262159,229.939716 C134.310313,230.062481 134.34791,230.260311 134.395394,230.599911 C134.182336,230.905029 134.170486,231.282611 134.15755,231.821011 C134.159623,231.734738 134.129671,233.037566 134.119167,233.439573 C134.103244,234.048965 134.086082,234.585859 134.065293,235.095656 C140.177042,256.047734 152.947175,264.638792 172.953616,262.639718 Z M134.22235,230.292407 C134.223362,230.288092 134.224026,230.283728 134.224759,230.278677 C134.224366,230.281388 134.223974,230.284158 134.223585,230.286986 L134.22235,230.292407 Z M133.3377,230.329562 C133.334869,230.316914 133.332672,230.308592 133.331214,230.304874 C133.331743,230.306224 133.332276,230.307571 133.332814,230.308914 L133.3377,230.329562 Z M133.221657,230.245966 L132.228499,227.417975 C132.513621,228.894629 132.824114,230.322932 133.160116,231.703308 C133.179236,230.926004 133.195693,230.499822 133.221657,230.245966 Z" id="Path-7" fill="#000000" fill-rule="nonzero" opacity="0.3" transform="translate(132.552725, 237.490351) rotate(2.000000) translate(-132.552725, -237.490351) "></path>
                    <polygon id="Path-6" fill="#000000" opacity="0.5" points="59.4343274 266.248594 67.1567259 228.435764 67.1567259 266.248594"></polygon>
                    <polygon id="Path-6" fill="#000000" opacity="0.5" transform="translate(202.998255, 247.213082) scale(-1, 1) translate(-202.998255, -247.213082) " points="199.137056 266.119497 206.859454 228.306667 206.859454 266.119497"></polygon>
                    <path d="M81.4169586,113.878723 C82.1708568,117.095357 83.1194527,120.273863 83.6948701,122.41748 C84.8016948,126.540764 91.3095494,127.786142 85.6645028,135.108398 C81.9001357,139.991203 74.3661195,162.71831 37.6484375,150.21875 C27.5469904,146.779981 47.8290998,127.627119 51.269094,119.308594 C52.6729639,115.913784 54.8485718,112.277446 57.6796802,109.205625 C52.3695042,106.112106 56.048202,89.6927138 61.4937963,84.9824219 C63.0155558,83.6661411 64.625042,82.2965834 66.4474645,81.2257217 C52.9291342,77.7627832 58.8662231,67.0599408 67.1461719,60.7327129 C58.0587386,56.8839276 56.9184265,50.9034368 63.697515,47.9963359 C62.9735327,44.7369728 64.2029621,39.4358592 68.3378906,31.2827239 L69.3378906,29.5703125 C76.1786934,24.1087039 84.1848738,20.4544586 92.7405393,18.2974244 C83.0964149,15.3407219 91.6971545,2.41786815 102.896484,1.55664063 C115.563671,0.582535055 127.233983,-0.670830232 138.513672,5.68945312 C146.457491,10.1687383 143.960285,15.4910177 139.123027,18.9966889 C141.581879,19.6003671 143.998136,20.282269 146.357422,21.0351563 C152.414615,22.9681066 181.357574,33.6455532 171.891894,46.3940578 C183.309644,47.4015899 184.407314,55.810468 175.138661,60.7327129 C181.741999,67.0599408 186.476884,77.7627832 175.695887,81.2257217 C177.149286,82.2965834 178.432867,83.6661411 179.646484,84.9824219 C183.989397,89.6927138 186.923194,106.112106 182.688278,109.205625 C184.946114,112.277446 186.681182,115.913784 187.800781,119.308594 C190.544209,127.627119 202.96225,141.168652 194.90625,144.607422 C165.623551,157.106982 163.372236,139.991203 160.370117,135.108398 C155.868139,127.786142 161.058215,126.540764 161.940918,122.41748 C162.399819,120.273863 163.156333,117.095357 163.757574,113.878723 L163.646484,81.578125 C163.159671,75.9536934 162.578784,67.5865468 162.622461,61.6902257 C161.639357,58.4495603 160.652629,52.7819804 160.370117,51.9697266 C159.833993,50.428308 159.151042,49.633441 158.505672,49.1666204 C148.50277,47.1761019 136.416004,41.1459064 133.394531,40.7929688 C129.127141,40.2944958 125.167211,43.8914726 120.871094,43.8417969 C104.570541,43.6533146 113.179718,37.3292984 101.292969,42.328125 C98.5076989,43.4994361 94.6497679,45.2637281 90.4566107,46.9934094 C91.315989,49.4181328 87.6705444,47.3700151 85.6645028,51.9697266 C85.31026,52.7819804 84.0729988,58.4495603 82.8402809,61.6902257 C82.8950479,67.5865468 82.1666711,75.9536934 81.5562542,81.578125 L81.4169586,113.878723 Z" id="Combined-Shape" fill="#000000"></path>
                    <path d="M81.6360631,121.110434 L82.3639369,120.424723 C82.5251432,120.595841 87.2099085,126.304437 89.1931023,128.24822 C95.4404401,134.371407 103.209973,137.769531 114.433594,137.769531 C134.488516,137.769531 145.929068,136.580415 152.313172,133.978964 C157.552561,131.843972 159.313399,129.291403 161.110279,122.884101 C161.204798,122.547067 161.640308,120.966837 161.765619,120.521031 C162.035106,119.562299 162.271549,118.763167 162.523659,117.973016 L163.476341,118.276984 C163.228211,119.054662 162.994901,119.843204 162.72831,120.791631 C162.603894,121.234258 162.168489,122.814104 162.073133,123.154126 C160.201041,129.829615 158.267559,132.632455 152.690534,134.90503 C146.149356,137.570487 134.613282,138.769531 114.433594,138.769531 C102.938888,138.769531 94.921486,135.262998 88.4931273,128.962387 C86.4622276,126.971846 81.7601224,121.242121 81.6360631,121.110434 Z" id="Path-32" fill="#000000" fill-rule="nonzero" opacity="0.3"></path>
                </g>
            </g>
        </g>
    </g>
</svg>