<?xml version="1.0" encoding="UTF-8"?>
<svg width="480px" height="300px" viewBox="0 0 480 300" version="1.1" xmlns="http://www.w3.org/2000/svg" xmlns:xlink="http://www.w3.org/1999/xlink">
    <!-- Generator: Sketch 50.2 (55047) - http://www.bohemiancoding.com/sketch -->
    <title>Artboard</title>
    <desc>Created with Sketch.</desc>
    <defs></defs>
    <g id="Artboard" stroke="none" stroke-width="1" fill="none" fill-rule="evenodd">
        <rect id="Frame" fill="#E6E6E6" x="0" y="0" width="480" height="300"></rect>
        <g id="Avatars" transform="translate(87.000000, 27.000000)">
            <g id="Dwarf" transform="translate(20.000000, 6.000000)">
                <g id="Male" transform="translate(0.000000, 13.000000)">
                    <path d="M2,253.747178 C2.73282108,243.660911 2.69896691,236.469144 1.8984375,232.171875 C-0.908034515,217.10664 0.601436443,205.57206 1.41864441,200.680306 C2.25593454,195.668341 11.8664471,173.45187 12.4408338,168.403559 C12.988784,163.5876 19.9237169,150.036144 29.3296641,143.332325 C39.819945,135.855679 58.4176262,130.860633 62.0982751,126.86105 C65.0025405,123.705124 74.3907345,121.25511 90.2628569,119.511006 C86.9847131,115.355001 84.2187087,111.728936 81.9648438,108.632812 C76.9923502,101.802121 69.3053887,90.9350652 68.8319061,89.1820447 C66.4223408,80.2608768 67.2976481,36.7913237 74.5272647,30.0323397 C81.4523564,23.5580568 103.277863,12.4794525 121.427734,13.1660156 C133.308458,13.6154329 150.334045,18.0282878 159.341576,27.3398438 C163.319153,31.451673 162.359506,36.4010289 164.261069,39.7990207 C171.865545,53.3878103 167.843683,84.1173339 167.843683,99.4024334 C167.843683,111.137744 160.489792,112.695713 159.341576,118.191077 C158.883342,120.384191 162.69215,122.953195 170.768002,125.898089 C175.481409,127.4516 177.842887,128.199858 192.492973,132.989608 C204.043423,136.765951 214.269531,137.332325 226.136719,139.332325 C238.003906,141.332325 247.367446,161.406415 252.412412,172.744993 C256.67676,182.329129 266.457509,217.407652 267.243189,222.490243 C268.202494,228.696025 267.813888,239.115003 266.077368,253.747178 L207.737448,253.747178 L46.3550448,253.747178 L2,253.747178 Z" id="Path-3" fill="#E1B499"></path>
                    <polygon id="Path-6" fill="#000000" opacity="0.5" points="62.4343274 253.248594 70.1567259 215.435764 70.1567259 253.248594"></polygon>
                    <polygon id="Path-6" fill="#000000" opacity="0.5" transform="translate(201.998255, 234.213082) scale(-1, 1) translate(-201.998255, -234.213082) " points="198.137056 253.119497 205.859454 215.306667 205.859454 253.119497"></polygon>
                    <path d="M68.2465127,224.617517 L69.2465127,224.617517 C69.2465127,225.673441 69.2320869,226.582443 69.1984393,228.032226 C69.0469685,234.55869 69.3283619,236.091978 71.6424814,238.364749 C72.2503269,238.961733 73.0047109,239.562995 73.9380806,240.192992 C87.5769823,249.398849 115.697342,250.476106 131.681652,242.638949 C133.663209,241.667386 134.049511,239.31908 133.740749,233.694761 C133.728281,233.468923 133.728281,233.468923 133.715659,233.242937 C133.406922,227.717348 133.584719,225.684281 135.131848,224.250755 L135.811511,224.98428 C134.596328,226.110234 134.426921,228.047363 134.714101,233.18715 C134.726735,233.413333 134.726735,233.413333 134.739245,233.639946 C135.072747,239.714908 134.647758,242.29839 132.121887,243.536832 C115.825926,251.526792 87.3245457,250.434938 73.3786245,241.021852 C72.397607,240.359694 71.5963281,239.721056 70.9417773,239.078201 C68.359964,236.542519 68.0409946,234.804483 68.1987085,228.009024 C68.2321905,226.566378 68.2465127,225.663902 68.2465127,224.617517 Z M199.133725,223.617517 C199.133725,224.663806 199.148335,225.566216 199.182492,227.00879 C199.343419,233.805503 199.017577,235.545853 196.38349,238.081682 C195.716043,238.724232 194.898991,239.362555 193.898616,240.024417 C179.675857,249.434395 150.60658,250.525968 133.986924,242.538546 L134.420095,241.637235 C150.732374,249.47693 179.427899,248.399392 193.346837,239.190427 C194.299497,238.560134 195.069513,237.958557 195.689947,237.361267 C198.05063,235.088644 198.337271,233.55767 198.182772,227.03246 C198.148443,225.582605 198.133725,224.673538 198.133725,223.617517 L199.133725,223.617517 Z" id="Combined-Shape" fill="#000000" fill-rule="nonzero" opacity="0.3"></path>
                    <g id="Hair" transform="translate(60.000000, 0.000000)" fill="#000000">
                        <path d="M105.072363,38.8995156 C112.861621,68.8676251 116.561121,86.4001277 116.170862,91.4970235 C115.037533,106.298615 121.856155,115.978492 120.045098,130.725124 C119.526433,134.94838 124.692321,144.164521 120.045098,143.472414 C114.38851,142.629984 116.068669,133.541258 112.378176,129.583296 C111.706729,128.863186 110.920789,128.252207 110.066812,127.706587 C110.211048,129.261985 110.186025,129.831593 110.010101,127.670512 C108.589281,126.770641 106.984257,126.047773 105.406752,125.302406 C104.588693,128.705966 103.655602,133.942154 102.600335,141.690038 C105.930677,152.4839 108.158195,163.926775 107.39116,173.562423 C107.345309,174.138416 105.976264,173.515539 105.758348,172.980391 L99.3353418,155.219795 C96.4801843,163.704191 92.8488944,172.5679 93.34375,180.441406 C94.1493469,193.259029 87.342977,206.117201 89.9375,218.695313 C91.3339809,225.465378 88.9496357,232.314052 90.2382813,239.105469 C91.1983094,244.165007 90.5509085,249.021281 88.2960783,253.674289 L70.8789062,254.484375 C68.4293287,239.977139 66.7704745,228.287035 65.9023437,219.414063 C63.9149259,199.101104 62.4962532,189.265995 54.8125,169.640625 C53.5701566,166.467508 52.6471288,163.865571 51.8771196,161.663401 L47.7844023,172.980391 C47.5664861,173.515539 46.1974411,174.138416 46.1515898,173.562423 C45.6356268,167.080792 46.4746625,159.781412 48.0929003,152.411908 C46.1277994,149.104089 43.1600617,146.311524 36.4980469,141.259766 C35.6629723,140.626535 31.7598525,133.516005 28.2153986,128.117138 C28.0495377,128.464671 27.8331111,128.794649 27.5550069,129.101562 C24.5926465,132.370801 18.5264646,133.047318 15.2992655,136.148438 C11.8610893,139.452292 13.4263772,147.03898 8.15652655,147.742188 C3.82703135,148.319914 8.63973066,140.626868 8.15652655,137.101563 C6.46928988,124.792015 2.7123814,112.675738 1.65653748,100.320313 C0.83539639,90.7113665 1.222328,81.0687361 1.48433394,71.429589 C0.81167994,67.6284406 0.343911118,64.0213533 0.311963742,63.3999214 C-0.773900871,42.2779714 3.85845519,25.2275455 17.9999402,12.0528188 C34.8456619,-3.64127396 71.4831473,-3.79784825 89.3496094,12.0528188 C91.6817878,14.1218677 101.129582,26.934282 103.376953,29.1477338 L105.072363,38.8995156 Z M104.760865,41.5511273 C101.955332,35.3217001 97.960823,26.7952065 90.6542969,24.3125 C63.0410156,14.9297003 36.0203896,15.9297003 26.1489035,31.1477338 C21.9778982,37.5778193 27.5206129,41.8621329 24.1489035,48.9997494 C22.8275823,51.7968719 24.6379575,57.2460199 22.2463253,58.4692099 C20.206819,59.5123067 19.7909781,53.623555 17.9046348,52.1933539 C6.78861508,43.7653315 7.65738106,68.445098 8.88592002,72.9584643 C8.89637156,72.9968608 9.6707015,76.0625796 10.660364,80.0400847 L17.015625,89.4482422 C20.6041667,91.8544922 23.9290305,103.148922 27.78125,105.105469 C36.2471361,109.405302 44.8813489,113.46883 53.8476563,116.59375 C55.76228,117.261031 57.6341865,118.373191 59.5137113,119.502882 C63.9075705,110.05048 67.9013349,103.73246 68.8303007,104.008712 C71.2794523,104.737031 74.3755474,104.035018 76.7713749,104.044907 C79.1672025,104.035018 82.2632976,104.737031 84.7124491,104.008712 C85.4768889,103.781386 88.3166672,108.019393 91.7469448,114.794797 C92.4803851,113.275327 93.2378188,111.881748 94.1484375,110.992188 C95.733596,109.443686 96.7726642,107.372002 97.6289063,105.328125 C100.681505,98.0414739 102.829041,90.3993792 105.835938,83.09375 L105.959304,82.8908878 C106.261382,73.620231 105.861902,59.8403109 104.760865,41.5511273 Z M11.0530289,94.1423291 C11.2632363,94.6729225 11.4783043,95.2139351 11.6983187,95.7655401 C11.6880586,95.4246595 11.676611,95.0792624 11.6639701,94.7304205 C11.4711791,94.5409759 11.2677069,94.3448657 11.0530289,94.1423291 Z M76.7713749,112.315321 C74.5560104,113.876928 71.915139,115.336978 70.4719023,117.265548 C69.1045719,119.092685 67.8215638,120.999821 66.6674436,122.979406 C67.1629366,123.107443 67.6628474,123.20314 68.1679687,123.259766 C71.4896103,123.632131 74.4268035,125.635666 77.7480469,125.259766 C79.818647,125.025414 84.4316631,123.489107 86.5510145,122.430684 C85.4825598,120.646879 84.3114095,118.923287 83.0708476,117.265548 C81.6276109,115.336978 78.9867395,113.876928 76.7713749,112.315321 Z" id="Combined-Shape"></path>
                    </g>
                </g>
            </g>
        </g>
    </g>
</svg>