<?xml version="1.0" encoding="UTF-8"?>
<svg width="480px" height="300px" viewBox="0 0 480 300" version="1.1" xmlns="http://www.w3.org/2000/svg" xmlns:xlink="http://www.w3.org/1999/xlink">
    <!-- Generator: Sketch 50.2 (55047) - http://www.bohemiancoding.com/sketch -->
    <title>Avatars</title>
    <desc>Created with Sketch.</desc>
    <defs></defs>
    <g id="Avatars" stroke="none" stroke-width="1" fill="none" fill-rule="evenodd">
        <rect id="Frame" fill="#E6E6E6" x="0" y="0" width="480" height="300"></rect>
        <g id="Dwarf" transform="translate(107.000000, 33.000000)">
            <g id="Male" transform="translate(0.000000, 12.000000)">
                <path d="M2,254.747178 C2.73282108,244.660911 2.69896691,237.469144 1.8984375,233.171875 C-0.908034515,218.10664 0.601436443,206.57206 1.41864441,201.680306 C2.25593454,196.668341 11.8664471,174.45187 12.4408338,169.403559 C12.988784,164.5876 19.9237169,151.036144 29.3296641,144.332325 C39.819945,136.855679 58.4176262,131.860633 62.0982751,127.86105 C65.0025405,124.705124 74.3907345,122.25511 90.2628569,120.511006 C86.9847131,116.355001 84.2187087,112.728936 81.9648438,109.632812 C76.9923502,102.802121 69.3053887,91.9350652 68.8319061,90.1820447 C66.4223408,81.2608768 67.2976481,37.7913237 74.5272647,31.0323397 C81.4523564,24.5580568 103.277863,13.4794525 121.427734,14.1660156 C133.308458,14.6154329 150.334045,19.0282878 159.341576,28.3398438 C163.319153,32.451673 162.359506,37.4010289 164.261069,40.7990207 C171.865545,54.3878103 167.843683,85.1173339 167.843683,100.402433 C167.843683,112.137744 160.489792,113.695713 159.341576,119.191077 C158.883342,121.384191 162.69215,123.953195 170.768002,126.898089 C175.481409,128.4516 177.842887,129.199858 192.492973,133.989608 C204.043423,137.765951 214.269531,138.332325 226.136719,140.332325 C238.003906,142.332325 247.367446,162.406415 252.412412,173.744993 C256.67676,183.329129 266.457509,218.407652 267.243189,223.490243 C268.202494,229.696025 267.813888,240.115003 266.077368,254.747178 L207.737448,254.747178 L46.3550448,254.747178 L2,254.747178 Z" id="body" fill="{skin-color}"></path>
                <polygon id="armpit-l" fill="#000000" opacity="0.5" points="59.4343274 256.248594 67.1567259 218.435764 67.1567259 256.248594"></polygon>
                <polygon id="armpit-r" fill="#000000" opacity="0.5" transform="translate(203.998255, 237.213082) scale(-1, 1) translate(-203.998255, -237.213082) " points="200.137056 256.119497 207.859454 218.306667 207.859454 256.119497"></polygon>
                <path d="M68.2465127,225.617517 L69.2465127,225.617517 C69.2465127,226.673441 69.2320869,227.582443 69.1984393,229.032226 C69.0469685,235.55869 69.3283619,237.091978 71.6424814,239.364749 C72.2503269,239.961733 73.0047109,240.562995 73.9380806,241.192992 C87.5769823,250.398849 115.697342,251.476106 131.681652,243.638949 C133.663209,242.667386 134.049511,240.31908 133.740749,234.694761 C133.728281,234.468923 133.728281,234.468923 133.715659,234.242937 C133.406922,228.717348 133.584719,226.684281 135.131848,225.250755 L135.811511,225.98428 C134.596328,227.110234 134.426921,229.047363 134.714101,234.18715 C134.726735,234.413333 134.726735,234.413333 134.739245,234.639946 C135.072747,240.714908 134.647758,243.29839 132.121887,244.536832 C115.825926,252.526792 87.3245457,251.434938 73.3786245,242.021852 C72.397607,241.359694 71.5963281,240.721056 70.9417773,240.078201 C68.359964,237.542519 68.0409946,235.804483 68.1987085,229.009024 C68.2321905,227.566378 68.2465127,226.663902 68.2465127,225.617517 Z M199.133725,224.617517 C199.133725,225.663806 199.148335,226.566216 199.182492,228.00879 C199.343419,234.805503 199.017577,236.545853 196.38349,239.081682 C195.716043,239.724232 194.898991,240.362555 193.898616,241.024417 C179.675857,250.434395 150.60658,251.525968 133.986924,243.538546 L134.420095,242.637235 C150.732374,250.47693 179.427899,249.399392 193.346837,240.190427 C194.299497,239.560134 195.069513,238.958557 195.689947,238.361267 C198.05063,236.088644 198.337271,234.55767 198.182772,228.03246 C198.148443,226.582605 198.133725,225.673538 198.133725,224.617517 L199.133725,224.617517 Z" id="breast" fill="#000000" fill-rule="nonzero" opacity="0.3"></path>
                <path d="M165.072363,39.8995156 C172.861621,69.8676251 176.561121,87.4001277 176.170862,92.4970235 C175.037533,107.298615 181.856155,116.978492 180.045098,131.725124 C179.526433,135.94838 184.692321,145.164521 180.045098,144.472414 C174.38851,143.629984 176.068669,134.541258 172.378176,130.583296 C171.706729,129.863186 170.920789,129.252207 170.066812,128.706587 C170.211048,130.261985 170.186025,130.831593 170.010101,128.670512 C168.589281,127.770641 166.984257,127.047773 165.406752,126.302406 C164.523002,129.979276 163.505003,135.794915 162.34375,144.605469 C160.826385,156.117882 152.615366,169.852294 153.34375,181.441406 C154.149347,194.259029 147.342977,207.117201 149.9375,219.695313 C151.333981,226.465378 148.949636,233.314052 150.238281,240.105469 C151.198309,245.165007 150.550908,250.021281 148.296078,254.674289 L130.878906,255.484375 C128.429329,240.977139 126.770474,229.287035 125.902344,220.414063 C123.914926,200.101104 122.496253,190.265995 114.8125,170.640625 C108.113824,153.531278 110.698712,153.028028 96.4980469,142.259766 C95.6629723,141.626535 91.7598525,134.516005 88.2153986,129.117138 C88.0495377,129.464671 87.8331111,129.794649 87.5550069,130.101562 C84.5926465,133.370801 78.5264646,134.047318 75.2992655,137.148438 C71.8610893,140.452292 73.4263772,148.03898 68.1565266,148.742188 C63.8270313,149.319914 68.6397307,141.626868 68.1565266,138.101563 C66.4692899,125.792015 62.7123814,113.675738 61.6565375,101.320313 C60.8353964,91.7113665 61.222328,82.0687361 61.4843339,72.429589 C60.8116799,68.6284406 60.3439111,65.0213533 60.3119637,64.3999214 C59.2260991,43.2779714 63.8584552,26.2275455 77.9999402,13.0528188 C94.8456619,-2.64127396 131.483147,-2.79784825 149.349609,13.0528188 C151.681788,15.1218677 161.129582,27.934282 163.376953,30.1477338 L165.072363,39.8995156 Z M164.760865,42.5511273 C161.955332,36.3217001 157.960823,27.7952065 150.654297,25.3125 C123.041016,15.9297003 96.0203896,16.9297003 86.1489035,32.1477338 C81.9778982,38.5778193 87.5206129,42.8621329 84.1489035,49.9997494 C82.8275823,52.7968719 84.6379575,58.2460199 82.2463253,59.4692099 C80.206819,60.5123067 79.7909781,54.623555 77.9046348,53.1933539 C66.7886151,44.7653315 67.6573811,69.445098 68.88592,73.9584643 C68.8963726,73.9968647 70.1281643,77.7398428 71.6846539,82.5564159 L77.015625,90.4482422 C80.6041667,92.8544922 83.9290305,104.148922 87.78125,106.105469 C96.2471361,110.405302 104.881349,114.46883 113.847656,117.59375 C118.626327,119.259203 123.138894,123.695993 128.167969,124.259766 C131.48961,124.632131 134.426804,126.635666 137.748047,126.259766 C139.933159,126.012454 144.949673,124.315198 146.878906,123.259766 C150.1381,121.476746 151.490962,114.588209 154.148438,111.992188 C155.733596,110.443686 156.772664,108.372002 157.628906,106.328125 C160.681505,99.0414739 162.829041,91.3993792 165.835938,84.09375 L165.959304,83.8908878 C166.261382,74.620231 165.861902,60.8403109 164.760865,42.5511273 Z" id="hair" fill="{hair-color}"></path>
                <path d="M172.74387,130.242315 C174.022433,131.613543 174.670919,133.293198 175.457265,136.529024 C175.500859,136.708413 175.541612,136.87768 175.624896,137.22428 C176.770805,141.987676 177.668643,143.612976 180.11875,143.977869 C181.157058,144.132503 181.503593,143.760331 181.499977,142.624778 C181.496767,141.61701 181.280222,140.632126 180.520832,137.780982 C179.656559,134.499287 179.389531,132.961246 179.548826,131.664176 C180.298972,125.556078 179.778326,120.956452 177.895273,112.337338 C177.845742,112.110628 177.802537,111.913339 177.70954,111.488958 C175.780987,102.686887 175.214182,98.4422783 175.672321,92.4588512 C176.056181,87.4455362 172.356122,69.9103861 164.588442,40.0252955 L162.911508,30.3896305 C161.993878,29.4620653 160.78542,27.9498723 156.061319,21.9307086 C151.931514,16.6698656 149.965529,14.267655 149.017786,13.4268417 C131.40063,-2.20264724 95.0517875,-2.14994381 78.3407675,13.4186559 C64.9872413,25.8592912 59.669082,42.1560446 60.8113043,64.3742507 C60.8535581,65.1961606 61.4072578,69.1246495 61.9766844,72.3424624 C61.9636798,73.1962438 61.9467577,73.7986336 61.9082742,75.1539209 C61.536719,88.2391114 61.536719,94.0459076 62.1547217,101.27774 C62.6419654,106.979437 63.4903488,111.738534 65.5689735,121.569994 C67.3543234,130.01174 68.0396555,133.566958 68.6518949,138.033664 C68.8036175,139.140584 68.5529324,140.434317 67.8814179,142.721867 C67.0393807,145.556864 66.8382286,146.376584 66.8353008,147.200347 C66.8321321,148.091906 67.1265289,148.375198 68.0903929,148.24658 C70.363519,147.943255 71.1827393,146.614509 72.2445192,142.659873 C73.1377413,139.361982 73.7480496,137.945619 74.9528247,136.787912 C76.3004473,135.492938 77.7135711,134.75078 81.0261231,133.356219 C84.5648959,131.866479 85.9748782,131.100747 87.1844916,129.765827 C87.4226948,129.502948 87.6143923,129.215582 87.7641544,128.901781 L88.1463633,128.100927 L88.6333712,128.842731 C88.9931581,129.390754 89.3673932,129.972709 89.7588851,130.592132 C90.1170644,131.158846 90.4884492,131.754942 90.8794671,132.389964 C91.7875215,133.864665 94.5506575,138.459459 94.7066303,138.715562 C95.8868105,140.653389 96.5801915,141.694559 96.8001572,141.861357 C102.437768,146.136316 105.319548,148.717294 107.275808,151.302839 C108.57549,153.0206 109.494874,154.770385 110.476418,157.28444 C110.77592,158.051563 113.788194,166.652945 115.278087,170.458338 C122.28548,188.356191 124.126626,197.130055 126.399968,220.365375 C127.258077,229.135919 128.890849,240.669626 131.298269,254.964329 L147.973847,254.188735 C150.07833,249.71403 150.668655,245.055741 149.747046,240.198679 C149.267885,237.673405 149.242175,235.2318 149.509411,231.463549 C149.538244,231.056979 149.562723,230.731005 149.618476,230.002135 C150.011556,224.863285 150.025499,222.59693 149.447809,219.796322 C148.23503,213.916833 148.715466,209.22568 150.887448,198.542176 C152.12949,192.432841 152.594686,189.675648 152.819633,186.273143 C152.930298,184.599255 152.941344,183.009894 152.844735,181.47277 C152.530045,176.465827 153.673028,171.263357 156.414939,163.167337 C156.710258,162.295352 156.990453,161.482942 157.468043,160.108534 C160.34037,151.842569 161.315318,148.581931 161.848037,144.540133 C162.951535,136.167779 163.974633,130.121271 164.920598,126.185557 L165.620357,125.85033 C165.770065,125.921066 165.886596,125.975902 166.153827,126.101469 C167.765124,126.858553 168.67466,127.306086 169.47739,127.765425 L170.306944,128.26667 C171.370397,128.960677 172.115014,129.567883 172.74387,130.242315 Z M170.624037,129.869003 C170.624725,129.855396 170.623795,129.843518 170.619655,129.832764 C170.621174,129.845614 170.622636,129.857702 170.624037,129.869003 Z M176.669402,92.5351958 C176.220823,98.3937668 176.777561,102.562983 178.686369,111.274933 C178.779373,111.699351 178.822636,111.896904 178.872229,112.123898 C180.7776,120.845166 181.308753,125.537613 180.541369,131.786072 C180.403393,132.909549 180.657698,134.374304 181.338913,136.964271 C182.275273,140.482653 182.496362,141.488205 182.499972,142.621594 C182.505393,144.324082 181.671106,145.220089 179.971446,144.96696 C176.94343,144.516 175.893109,142.614668 174.652633,137.458173 C174.569317,137.111439 174.528847,136.943347 174.485546,136.765164 C173.739013,133.693168 173.134635,132.127758 172.012482,130.924277 C171.61507,130.498062 171.162567,130.09815 170.647537,129.713579 C170.668459,130.215118 170.668459,130.215118 170.383582,130.534508 C169.672124,130.399208 169.672124,130.399208 169.685717,130.263421 C169.593613,129.653127 169.565213,129.350107 169.532481,128.961551 C168.600195,128.3863 167.680884,127.923856 165.810171,127.044881 C164.854946,130.920205 163.883981,136.745936 162.839463,144.670805 C162.294428,148.806043 161.309196,152.101074 158.412639,160.43677 C157.935858,161.808847 157.656345,162.619282 157.362094,163.488114 C154.659628,171.467664 153.538583,176.57028 153.842765,181.410043 C153.942189,182.991936 153.930846,184.623989 153.817455,186.339112 C153.588552,189.801451 153.118405,192.587988 151.867401,198.741403 C149.722507,209.291668 149.251236,213.893335 150.427191,219.594303 C151.030066,222.517012 151.015733,224.846867 150.615563,230.078404 C150.559951,230.805434 150.535565,231.130175 150.506906,231.53429 C150.245295,235.223223 150.270236,237.591758 150.729516,240.012259 C151.709583,245.177405 151.047635,250.142803 148.74603,254.892334 L130.459639,256.004416 C127.934532,241.049874 126.274149,229.348993 125.40472,220.46275 C123.139647,197.311941 121.31666,188.624612 114.346913,170.822912 C112.84825,166.995119 109.835765,158.393137 109.544897,157.648127 C108.594345,155.213453 107.716368,153.542475 106.478347,151.90621 C104.591864,149.412887 101.765444,146.881492 96.1959366,142.658174 C95.8186975,142.372116 95.1637252,141.388621 93.8525558,139.235713 C93.694029,138.975416 90.9326608,134.383561 90.0279496,132.91429 C89.6388861,132.282442 89.2695441,131.689625 88.9135675,131.126396 C88.6805724,130.757749 88.4538332,130.402624 88.2327643,130.060286 C86.5809503,131.921158 85.0936092,132.728901 81.4901438,134.245875 C78.2186792,135.623138 76.8724097,136.330184 75.6457062,137.508963 C74.6139009,138.500458 74.0570037,139.792869 73.3658995,142.340991 C72.0488649,147.245037 71.0531212,148.860099 68.2226602,149.237795 C66.6357489,149.449552 65.8300561,148.674249 65.8353072,147.196793 C65.8387317,146.233254 66.0452942,145.391485 66.7839222,142.906718 C67.5513781,140.295869 67.7863827,139.083059 67.6611583,138.169461 C67.0532821,133.734588 66.3709764,130.19507 64.6923963,122.258214 C62.5036396,111.905954 61.6502075,107.118536 61.1583532,101.362885 C60.5360467,94.0806895 60.5360467,88.2485967 60.9086771,75.1255373 C60.9462818,73.8011985 60.9632901,73.1960646 60.9831402,72.4666795 C60.4100403,69.2199292 59.8573635,65.2958691 59.8126232,64.4255922 C58.6563083,41.933263 64.0684367,25.3485547 77.659113,12.6869817 C94.7507531,-3.23621771 131.682083,-3.28976572 149.681433,12.6787959 C150.698975,13.5815334 152.646721,15.9614579 156.736227,21.1709495 C161.699784,27.4951995 162.839893,28.916988 163.727808,29.7915024 L165.561453,39.7936254 C173.368753,69.8325997 177.065974,87.3558623 176.669402,92.5351958 Z M169.511749,128.71108 L169.742571,129.092919 C169.672198,129.048348 169.602303,129.004633 169.532481,128.961551 C169.52575,128.88165 169.518836,128.798133 169.511749,128.71108 Z M165.216763,42.3458056 C166.361849,60.8243921 166.761723,74.6179082 166.459039,83.9071713 L166.298306,84.2840543 C165.084159,87.2339752 164.209967,89.6450567 162.328493,95.0744664 C160.328073,100.847124 159.400422,103.393477 158.090073,106.521322 C156.99313,109.139761 155.941755,110.93932 154.497831,112.349852 C153.640165,113.187685 152.959813,114.377504 151.792585,116.864421 C151.726316,117.005615 151.499897,117.489471 151.470343,117.55253 C149.746616,121.230387 148.739354,122.811895 147.11888,123.698414 C145.061066,124.82419 139.984009,126.50989 137.804278,126.756594 C136.28068,126.929035 134.887426,126.682247 132.808297,126.017385 C132.566437,125.940044 132.412083,125.889413 131.924955,125.728523 C130.071902,125.116489 129.195933,124.878135 128.112266,124.756653 C125.567546,124.471383 123.616733,123.553051 119.487435,121.070488 C118.880969,120.705876 118.699673,120.59718 118.405509,120.422629 C116.408384,119.237567 115.057922,118.545046 113.683105,118.065897 C105.66502,115.27145 97.6623459,111.684884 87.5548298,106.551265 C85.7628502,105.641116 84.433097,103.612186 81.7260211,98.4274703 C80.7952091,96.6447364 80.5455516,96.1723827 80.1084044,95.3848415 C78.7670052,92.9682472 77.7194533,91.5221859 76.7371632,90.863524 L71.2703266,82.8362961 C70.1010152,79.2818674 68.3943805,74.0563804 68.4034736,74.0897863 C67.5926121,71.1108696 67.3786605,63.6266759 68.2739195,58.6346279 C68.8516674,55.4130513 69.8405972,53.0706736 71.3161231,51.8609746 C73.0909627,50.4058855 75.4195905,50.6817608 78.2067184,52.7949251 C78.9382762,53.3495828 79.4038671,54.2418637 80.0966666,56.0611477 C80.1230539,56.1304403 80.3351314,56.6914082 80.3966516,56.8517712 C80.7767729,57.8426224 81.0367609,58.3976724 81.315882,58.758463 C81.5782425,59.0975889 81.7548133,59.158992 82.0186517,59.0240529 C82.9080552,58.5691713 83.1109474,57.5025934 83.0983323,54.5004251 C83.0973362,54.2631669 83.096979,54.1570959 83.0968607,54.0243248 C83.0950108,51.9478419 83.2199101,50.7957369 83.6968078,49.7861858 C84.9871278,47.0546902 85.0413829,45.1462902 84.4129027,41.2446554 C84.2806163,40.4234154 84.2348737,40.12799 84.1781462,39.7032787 C83.7644817,36.6062293 84.0957947,34.3940644 85.729427,31.8756319 C95.310103,17.1059157 121.46683,14.8667265 150.81516,24.8390838 C156.993539,26.9384537 160.57138,32.0311612 165.216763,42.3458056 Z M150.493433,25.7859162 C121.528352,15.9437842 95.8287965,18.1438364 86.56838,32.4198357 C85.0809444,34.7128893 84.7846852,36.6910014 85.1693437,39.5708871 C85.2244424,39.9834039 85.2693993,40.2737547 85.4001762,41.0856241 C86.0580704,45.1698617 85.9988115,47.2542658 84.6009993,50.2133131 C84.2092181,51.04268 84.0951423,52.0949465 84.0968603,54.0234339 C84.0969773,54.1547372 84.0973302,54.2595263 84.0983235,54.4962231 C84.1128274,57.9479186 83.8750666,59.1977968 82.473999,59.9143669 C81.7331231,60.2932847 81.0570723,60.0581857 80.5249454,59.3703611 C80.1656331,58.9059157 79.8782626,58.2924067 79.4629984,57.2099496 C79.4004255,57.0468425 79.1877299,56.4842396 79.1621343,56.417026 C78.5422786,54.7892915 78.1235304,53.9867824 77.6025513,53.5917827 C75.1485639,51.7312013 73.3164352,51.5141468 71.9501299,52.6343021 C70.7043765,53.6556238 69.7976255,55.8033528 69.2582164,58.8111488 C68.3882739,63.6620295 68.5979547,70.996829 69.3683664,73.8271423 C69.3517274,73.7660145 71.0100417,78.8434854 72.1386374,82.3352419 L77.3769188,90.0898527 C78.5054967,90.8834397 79.5994451,92.4074482 80.9827388,94.8995174 C81.4257441,95.6976126 81.6770663,96.1731157 82.6124652,97.9646346 C85.189337,102.899978 86.4942486,104.891004 88.0076702,105.659673 C98.0786013,110.77471 106.043678,114.344427 114.012208,117.121603 C115.465599,117.628136 116.865473,118.345996 118.915815,119.562636 C119.212283,119.738555 119.394403,119.847745 120.002691,120.213452 C124.005858,122.620184 125.873649,123.499434 128.223671,123.762878 C129.398344,123.894562 130.320825,124.145572 132.238576,124.778975 C132.722423,124.938782 132.875208,124.988897 133.112882,125.0649 C135.068466,125.690255 136.341564,125.91576 137.691816,125.762938 C139.737655,125.531389 144.691076,123.886738 146.638933,122.821117 C147.993862,122.07987 148.941281,120.592322 150.564859,117.12815 C150.594187,117.065574 150.820769,116.581368 150.887334,116.439544 C152.108233,113.838272 152.823354,112.58765 153.799044,111.634523 C155.126403,110.337859 156.118106,108.640437 157.167739,106.134928 C158.467243,103.032972 159.390089,100.499807 161.377692,94.7641368 C163.271293,89.2997332 164.149807,86.8767294 165.408731,83.8339528 C165.756768,74.50817 165.358112,60.816165 164.267284,42.6728402 C159.7558,32.6708474 156.290461,27.7557058 150.493433,25.7859162 Z" id="hair-outline" fill="#000000" fill-rule="nonzero" opacity="0.05"></path>
                <path d="M136.771375,105.044907 C139.167202,105.035018 142.263298,105.737031 144.712449,105.008712 C147.092722,104.300876 169.594283,146.886346 167.39116,174.562423 C167.345309,175.138416 165.976264,174.515539 165.758348,173.980391 L149.840379,129.964766 C148.141172,125.791937 145.770345,121.872835 143.070848,118.265548 C141.627611,116.336978 138.986739,114.876928 136.771375,113.315321 C134.55601,114.876928 131.915139,116.336978 130.471902,118.265548 C127.772405,121.872835 125.401578,125.791937 123.702371,129.964766 L107.784402,173.980391 C107.566486,174.515539 106.197441,175.138416 106.15159,174.562423 C103.948467,146.886346 126.450028,104.300876 128.830301,105.008712 C131.279452,105.737031 134.375547,105.035018 136.771375,105.044907 Z" id="mustache" fill="{hair-color}"></path>
                <path d="M128.694922,106.010107 C128.644815,105.99629 128.594936,105.982 128.545261,105.967228 C128.632585,105.993196 128.698407,106.010989 128.746985,106.024067 L128.694922,106.010107 Z M127.890179,107.247995 C127.064424,108.380892 126.013953,110.076896 124.846327,112.172618 C122.232474,116.864108 119.316346,123.020736 116.69972,129.515304 C110.208462,145.626856 106.483707,161.135164 107.057285,173.050594 L122.776214,129.587628 C124.421366,125.547545 126.746053,121.575304 129.671267,117.666396 C130.659506,116.34583 131.849751,115.407386 134.416842,113.700113 C134.710559,113.504943 134.867711,113.400502 135.001382,113.311395 C135.4992,112.979543 135.855575,112.737396 136.195228,112.497974 L136.771375,112.091849 L137.347521,112.497974 C137.687175,112.737396 138.04355,112.979543 138.541368,113.311395 C138.675039,113.400502 138.832191,113.504943 139.125908,113.700113 C141.692999,115.407386 142.883243,116.34583 143.871483,117.666396 C146.796697,121.575304 149.121384,125.547545 150.780773,129.624679 L166.485369,173.052585 C167.059458,161.136892 163.334649,145.627754 156.84303,129.515304 C154.226404,123.020736 151.310276,116.864108 148.696423,112.172618 C147.528797,110.076896 146.478326,108.380892 145.652571,107.247995 C145.265089,106.716387 144.938435,106.325124 144.695487,106.094727 C143.705252,106.324214 142.451516,106.393062 140.830985,106.304163 C140.382136,106.279541 139.988708,106.249781 139.259179,106.188812 C137.891171,106.074484 137.394096,106.042346 136.775503,106.044899 C136.148653,106.042346 135.651579,106.074484 134.28357,106.188812 C133.554042,106.249781 133.160614,106.279541 132.711765,106.304163 C131.088448,106.393215 129.833188,106.323977 128.694922,106.010107 C128.604315,106.325124 128.277661,106.716387 127.890179,107.247995 Z M106.844008,173.640304 L106.846068,173.634609 C106.845497,173.636385 106.844812,173.638282 106.844008,173.640304 Z M144.774478,106.0298 C144.824526,106.01629 144.89668,105.997206 144.997489,105.967228 C144.945878,105.982575 144.894045,105.997404 144.841966,106.011721 L144.774478,106.0298 Z M144.712449,105.008712 C147.092722,104.300876 169.594283,146.886346 167.39116,174.562423 C167.345309,175.138416 165.976264,174.515539 165.758348,173.980391 L149.840379,129.964766 C148.141172,125.791937 145.770345,121.872835 143.070848,118.265548 C141.627611,116.336978 138.986739,114.876928 136.771375,113.315321 C134.55601,114.876928 131.915139,116.336978 130.471902,118.265548 C127.772405,121.872835 125.401578,125.791937 123.702371,129.964766 L107.784402,173.980391 C107.566486,174.515539 106.197441,175.138416 106.15159,174.562423 C103.948467,146.886346 126.450028,104.300876 128.830301,105.008712 C131.279452,105.737031 134.375547,105.035018 136.771375,105.044907 C139.167202,105.035018 142.263298,105.737031 144.712449,105.008712 Z" id="mustache-outline" fill="#000000" fill-rule="nonzero" opacity="0.05"></path>
            </g>
        </g>
    </g>
</svg>