<?xml version="1.0" encoding="UTF-8"?>
<svg width="480px" height="300px" viewBox="0 0 480 300" version="1.1" xmlns="http://www.w3.org/2000/svg" xmlns:xlink="http://www.w3.org/1999/xlink">
    <!-- Generator: Sketch 50.2 (55047) - http://www.bohemiancoding.com/sketch -->
    <title>Artboard</title>
    <desc>Created with Sketch.</desc>
    <defs></defs>
    <g id="Artboard" stroke="none" stroke-width="1" fill="none" fill-rule="evenodd">
        <rect id="Frame" fill="#E6E6E6" x="0" y="0" width="480" height="300"></rect>
        <g id="Avatars" transform="translate(87.000000, 27.000000)">
            <g id="Elf-Half-elf" transform="translate(34.000000, 10.000000)">
                <g id="Male" transform="translate(0.000000, 3.000000)">
                    <path d="M0,259.729768 C2.48566655,231.519083 4.32149823,213.680856 5.50749506,206.215086 C6.3585144,200.857977 11.7606596,174.266802 21.8599892,160.277801 C33.0825314,144.732992 77.2475931,143.344851 80.9885944,139.06984 C83.9404817,135.696585 85.012639,130.227548 84.2050665,122.662729 C82.8691975,106.795799 81.7970401,97.288485 80.9885944,94.1407884 C79.4675143,88.2184378 71.0655999,68.2657231 68.2189313,50.4604145 C66.6517207,40.6578444 73.5582916,25.2371729 76.3426322,22.4997145 C90.0232643,9.04943433 142.355067,-4.30932221 155.351054,20.1126 C160.59358,29.9642985 163.420094,54.6865263 163.322631,55.5094849 C162.50645,62.4011545 162.353006,90.0842669 159.983014,97.9058002 C153.59366,118.992175 151.496568,110.640948 149.638931,115.522032 C148.254643,119.159356 148.949439,123.81523 151.72332,129.489653 C160.291102,132.459314 221.570249,138.571294 228.199796,160.277801 C232.401152,174.033913 241.438279,203.77204 243.181587,215.631712 C244.156623,222.264849 245.11684,236.964201 246.062239,259.729768 L203.605913,259.729768 L15.6068247,259.729768 L0,259.729768 Z" id="Path-3" fill="#E1B499"></path>
                    <path d="M162.183149,54.6324515 L162.478579,54.794881 C161.744293,80.380982 164.218179,106.392754 160.275723,131.553184 C159.680116,135.354298 153.043396,131.655426 150.885251,128.782525 C148.578561,125.71188 147.966751,120.514628 149.029469,116.582276 C149.573309,114.569917 149.639032,111.864228 150.919167,110.358059 C152.742345,108.212959 153.87265,104.1186 155.262456,101.609244 C162.850379,87.9089218 160.273044,68.7341628 160.538597,53.7282623 L161.169069,54.0749015 C159.730712,50.5491404 156.951586,41.3968095 155.814123,40.6887422 C149.566461,36.7995885 152.170453,30.3483215 146.615539,25.4458682 C141.715845,21.1216753 142.794069,23.4790549 136.44804,22.6900824 C130.006945,21.8892906 124.49251,25.883304 118.00609,25.9366828 C114.622262,25.9645294 98.9712764,21.3740909 95.8309682,22.6900824 C88.8947429,25.5968076 87.292491,34.2921072 83.0132021,40.6887422 C79.1067464,46.5280701 81.3740569,54.8649781 81.3807028,61.9871208 C81.3814511,62.789077 80.6804786,59.5287984 79.1110809,58.008548 C77.5416831,56.4882976 75.9986773,55.6071881 73.778486,53.4603429 C71.3060181,51.0695553 68.9592895,49.8157974 68.9924347,50.3010591 C69.0550333,51.2175322 69.4303226,54.0280742 70.5669213,57.5761637 C71.4261188,60.2582975 72.9552258,63.3281235 73.778486,66.5117514 C75.3468912,72.5769276 76.0851512,79.0742778 76.4994891,80.1270757 C77.281331,82.113671 79.2271064,82.63324 80.3039046,82.3734555 C81.3807028,82.113671 83.2915103,87.3302757 83.5872231,91.0280465 C83.7707163,93.3225565 83.5875182,98.0437254 83.0376286,105.191553 L83.5872231,120.935866 L84.4217926,128.36412 L83.0132021,139.359473 C76.0842398,141.572034 70.1201213,142.678315 65.1208465,142.678315 C59.8048378,142.678315 72.5549265,110.766189 72.6197587,105.191553 C72.8052962,89.2379919 69.0267719,73.4912795 67.9502406,57.5761637 C65.3660648,19.3724838 72.6197587,0.278340743 112.907074,0.278340743 C120.727616,0.278340743 142.938256,0.498687746 150.426061,10.6895594 C160.53066,24.441875 164.969301,41.5153392 162.183149,54.6324515 Z" id="Combined-Shape" fill="#000000"></path>
                    <polygon id="Path-6" fill="#000000" opacity="0.5" points="55.9202268 259.196849 60.7692511 216.780073 66.7692511 259.196849"></polygon>
                    <polygon id="Path-6" fill="#000000" opacity="0.5" transform="translate(197.272613, 235.781610) scale(-1, 1) translate(-197.272613, -235.781610) " points="192.848101 258.989997 198.697126 212.573222 201.697126 258.989997"></polygon>
                    <path d="M132.613046,209.234719 C132.255006,207.067149 131.940812,205.234212 131.606017,203.375096 L132.590186,203.197864 C133.019485,205.581756 133.414788,207.921456 133.91114,210.972859 C134.044782,211.794441 134.493536,214.572127 134.495308,214.583067 C134.721792,215.981553 134.891545,217.016857 135.057346,218.005317 C137.230142,230.958955 139.167655,236.773244 143.395473,240.766879 C148.315575,245.414452 156.4584,246.761623 170.3508,244.962431 C171.66286,244.792507 172.88014,244.7278 175.641819,244.642087 C176.791302,244.606411 177.207525,244.592547 177.801843,244.568168 C185.31446,244.259999 191.736898,244.017672 192.141656,240.364719 L192.158992,240.208252 L192.76586,235.099123 C193.478951,228.596963 193.597987,223.286094 193.52542,211.420043 C193.488757,205.424974 193.491778,202.760834 193.56807,199.433492 L194.567808,199.456414 C194.491812,202.770847 194.488798,205.428546 194.525401,211.413928 C194.598786,223.413811 194.476659,228.74016 193.742541,235.365603 L193.725205,235.522069 L193.116379,240.633429 C192.556762,244.890651 185.745538,245.243157 177.842829,245.567327 C177.243967,245.591893 176.825823,245.605821 175.672841,245.641605 C172.945637,245.726249 171.746959,245.789967 170.479237,245.954149 C156.318486,247.788095 147.897199,246.394854 142.708787,241.493833 C139.516614,238.478477 137.593348,234.555918 135.944405,227.704309 C135.92657,230.538816 135.631625,233.479852 135.040845,236.734183 C134.222877,241.239989 130.025813,244.895348 123.52477,247.659427 C118.643728,249.734723 112.595777,251.171601 108.474495,251.481205 C106.500241,251.629517 104.51584,251.793723 102.328226,251.987088 C100.932888,252.110422 94.1331915,252.738463 92.4026291,252.885968 C89.0127251,253.174908 86.5255235,253.331932 84.330673,253.377646 C79.1173738,253.486226 75.5622236,252.933515 72.7853174,251.436467 C67.0084691,248.322131 64.4637275,241.076711 62.9659223,224.387332 L63.9619193,224.297945 C65.4309136,240.666298 67.8871707,247.659783 73.2598572,250.556233 C75.8536527,251.954565 79.2537424,252.483169 84.30985,252.377863 C86.4791175,252.332682 88.9473086,252.176858 92.3177018,251.889581 C94.0439714,251.742442 100.841498,251.114602 102.240179,250.990971 C104.431898,250.797244 106.420577,250.632684 108.399582,250.484015 C112.413625,250.182467 118.354677,248.770986 123.133493,246.739154 C129.355662,244.093645 133.314389,240.645863 134.056926,236.555566 C135.3262,229.563725 135.205034,224.073501 133.887038,217.910282 C133.213701,214.761617 129.626522,202.418928 129.543773,202.151318 L130.508388,201.88887 C130.462664,201.720813 131.517206,205.338891 132.613046,209.234719 Z" id="Combined-Shape" fill="#000000" fill-rule="nonzero" opacity="0.3"></path>
                    <path d="M82.4687588,92.1815468 L83.4223048,91.8802994 C85.0006213,96.8761837 86.9707003,99.7811693 91.6089614,104.962098 C91.9345857,105.325623 92.1107886,105.522353 92.2610799,105.690469 C94.7329266,108.455492 96.0839118,110.126794 97.4467672,112.270661 C99.0057286,114.723016 103.51401,118.741271 108.572518,122.728478 C110.141237,123.96497 111.612333,124.698629 113.192617,125.086574 C114.662026,125.447299 115.810782,125.50531 118.780025,125.474143 C121.26246,125.448086 122.535689,125.474346 124.258735,125.641692 C130.66538,126.263917 135.75065,124.60949 142.646943,120.040967 C142.912211,119.865237 144.400327,117.91692 146.980258,114.398221 C147.023938,114.338645 147.023938,114.338645 147.067613,114.279059 C151.425031,108.334036 151.192394,108.648272 151.516457,108.34166 L152.203735,109.068055 C151.954357,109.304004 151.912173,109.360984 147.874165,114.870223 C147.830442,114.929873 147.830442,114.929873 147.786712,114.989518 C144.92315,118.895053 143.628236,120.590421 143.199213,120.874632 C136.127175,125.55958 130.826064,127.284228 124.162068,126.637009 C122.484338,126.474064 121.239262,126.448384 118.790521,126.474088 C115.736337,126.506146 114.533322,126.445396 112.954206,126.057738 C111.232315,125.635031 109.63217,124.837012 107.953482,123.51384 C102.784968,119.439925 98.2495125,115.39745 96.602852,112.807137 C95.2765431,110.72076 93.9536789,109.084247 91.5155544,106.356946 C91.3656312,106.189241 91.1898158,105.992945 90.8639126,105.629108 C86.1386727,100.351024 84.0999636,97.3448397 82.4687588,92.1815468 Z" id="Path-10" fill="#000000" fill-rule="nonzero" opacity="0.3"></path>
                </g>
            </g>
        </g>
    </g>
</svg>