<?xml version="1.0" encoding="UTF-8"?>
<svg width="480px" height="300px" viewBox="0 0 480 300" version="1.1" xmlns="http://www.w3.org/2000/svg" xmlns:xlink="http://www.w3.org/1999/xlink">
    <!-- Generator: Sketch 50.2 (55047) - http://www.bohemiancoding.com/sketch -->
    <title>Avatars</title>
    <desc>Created with Sketch.</desc>
    <defs></defs>
    <g id="Avatars" stroke="none" stroke-width="1" fill="none" fill-rule="evenodd">
        <rect id="Frame" fill="#E6E6E6" x="0" y="0" width="480" height="300"></rect>
        <g id="Gnome" transform="translate(148.000000, 47.000000)">
            <g id="Female" transform="translate(8.000000, 0.000000)">
                <path d="M3.96544903,252 C6.31517625,222.585117 8.05060761,203.985449 9.17174312,196.200997 C9.97622082,190.615215 8.64118576,184.841139 9.19306291,179.214849 C10.3067094,167.861422 25.4307145,133.096719 30.5581696,130.642323 C35.3999606,128.324667 58.0328346,124.975577 61.5692433,120.518082 C64.3596939,117.000837 63.8290161,108.478307 59.9772099,94.950494 C47.9694752,78.3664589 41.5834918,68.4334119 40.8192594,65.1513531 C39.6888902,60.2968892 37.3064799,45.687244 37.0745397,32.4861099 C36.8314373,18.6496739 40.7914472,23.4674984 44.346204,19.6125908 C57.2786522,5.58817338 94.3525187,-8.27563883 106.637765,17.1887549 C111.290552,26.8328746 114.916349,31.130682 116.539569,52.1792608 C117.465359,64.1841429 114.59205,81.1350202 111.956948,84.9023413 C110.831176,86.5118209 108.22014,90.3113255 106.637765,90.3113255 C105.582849,90.3113255 105.582849,92.2358159 106.637765,96.0847967 L109.716789,116.20047 C117.816006,119.296894 128.984935,125.765841 137.481392,126.71357 C172.702935,130.642323 172.702935,193.653666 174.350903,206.019579 C175.272614,212.935858 177.822313,228.262665 182,252 L161.717552,252 L0,252 L3.96544903,252 Z" id="body" fill="{skin-color}"></path>
                <polygon id="armpit-l" fill="#E6E6E6" points="24.1484375 252 29 210 40.40625 252"></polygon>
                <polygon id="armpit-r" fill="#E6E6E6" transform="translate(151.800293, 230.801758) scale(-1, 1) translate(-151.800293, -230.801758) " points="143.600586 253 155.50293 208.603516 160 253"></polygon>
                <path d="M45.7572753,70.4371324 L46.2427247,69.5628676 C48.2386488,70.6711365 50.6103691,72.5011541 53.8146068,75.3184029 C55.609238,76.8962891 62.2904084,83.0225695 62.8900182,83.5635668 C66.8978123,87.1795948 70.050369,89.8249147 73.1043497,92.0474324 C78.5819122,96.0336983 83.2497158,98.235875 87.3108123,98.4813822 C93.4127102,98.8502627 98.3361088,94.5012585 105.864048,84.0971174 C113.126686,74.0596402 113.122053,74.0657036 115.670953,71.837865 L116.329047,72.5908 C113.868519,74.7413989 113.853293,74.7613257 106.674215,84.6833158 C98.9403009,95.3721293 93.8394468,99.877886 87.2504691,99.4795599 C82.9572257,99.2200186 78.1340366,96.9445342 72.5159285,92.855987 C69.4281165,90.6088488 66.251691,87.9435005 62.2201314,84.3060301 C61.6136841,83.7588636 54.9395958,77.6390772 53.1543066,76.0694046 C50.0001843,73.2962186 47.6744066,71.5016503 45.7572753,70.4371324 Z" id="jaw" fill="#000000" fill-rule="nonzero" opacity="0.3"></path>
                <path d="M35.4357291,209.995627 L36.0900482,209.239408 C37.547028,210.500062 38.3860526,211.734573 39.6071254,214.080247 C39.6952647,214.249786 39.6952647,214.249786 39.7828848,214.418707 C41.346884,217.433328 42.2830508,218.696798 44.3226721,219.989443 C57.1085844,228.092732 76.0555569,224.512108 88.6718153,213.535847 L89.3281847,214.290286 C76.4063233,225.532425 56.9903075,229.201689 43.7873586,220.834096 C41.5592851,219.422017 40.53454,218.039 38.8952341,214.879225 C38.8076466,214.710366 38.8076466,214.710366 38.7201134,214.541993 C37.552845,212.299678 36.7737609,211.15336 35.4357291,209.995627 Z M146.465853,209.995627 C145.261685,211.037535 144.560098,212.069825 143.507216,214.092405 C143.428097,214.244595 143.428097,214.244595 143.3489,214.397275 C141.863013,217.261336 140.932183,218.517603 138.908505,219.800143 C126.950258,227.378885 109.371587,224.056845 97.6728404,213.878827 L98.3292099,213.124387 C109.722354,223.036528 126.831981,226.269928 138.373191,218.95549 C140.208417,217.792385 141.050669,216.655664 142.46125,213.936758 C142.540479,213.784014 142.540479,213.784014 142.620204,213.630659 C143.726891,211.504721 144.488418,210.384236 145.811534,209.239408 L146.465853,209.995627 Z" id="breast" fill="#000000" fill-rule="nonzero" opacity="0.3"></path>
                <path d="M111.408478,16.8496442 C114.889713,21.0212834 113.764027,24.1108363 117.538926,35.2146747 C121.053383,45.5524242 118.340145,44.8900113 122.888786,64.407087 C129.619897,93.2885899 133.333079,107.984096 136.307284,114.822233 C137.146668,116.752101 139.710907,121.328463 144,128.551318 L127.536314,126.626548 C124.958834,125.933939 123.038995,125.933939 121.776798,126.626548 C121.117344,126.988412 119.90489,126.083168 119.201159,133.232083 C118.772351,137.588172 118.287598,148.510811 117.746901,166 L112.277962,121.21695 C105.746353,119.136348 102.444063,117.600995 102.37109,116.610892 C102.058435,112.36875 100.636081,99.1247205 100.063239,95.427593 C99.3433472,90.7814108 104.98362,88.3435537 106.12504,84.616692 C108.548305,76.7044612 113.884413,61.8095634 112.505266,46.2833776 C111.167858,31.2270772 106.576218,37.3139468 106.13545,24.6344109 C106.036114,21.7768249 105.570763,19.7601738 105.044156,18.2466033 C94.3240428,17.034143 93.4225932,14.898268 84.066535,16.8478237 C79.0917212,17.8844437 52.9175758,16.697561 49.8757576,30.2460752 C48.9450685,34.3914426 49.8928069,41.779144 47.5071786,40.1417663 C46.2344049,39.2681971 44.7304335,37.2947925 43.3884469,36.4582337 C41.8156619,35.4778013 40.446967,35.5971546 39.6581472,33.9651802 C38.1962632,30.9407157 38.7934062,42.9648021 39.3194599,46.3506816 C39.7898304,49.3781631 40.5936956,50.2598974 40.9726224,53.4834568 C41.4298755,57.3733443 45.5352102,59.0328434 46.3885651,59.5933043 C48.7159346,61.1218589 48.5985526,54.2454559 49.8426585,60.3941639 C52.4193173,73.1287096 59.2896821,72.6173979 62.8584408,82.5600263 C63.5249852,84.4170316 68.4763636,88.1188703 70.1682685,91.929058 C73.2019821,98.7610133 73.3519289,107.359746 73.5207076,116.378194 C73.5702516,119.025505 63.7108565,120.118691 64.1247395,123.979361 C66.3454286,144.693787 60.3183047,135.009523 57.8146598,157.237238 C56.4182413,169.634841 58.1368888,182.543045 55.3390667,194.615331 C53.7078546,201.653827 49.6640003,212.247484 50.0942471,220.853091 C50.7746579,234.46237 47.5469287,243.661424 43.1965465,247.162162 C39.407642,250.211081 28.6843939,252.320966 37.9814129,245.560456 L39.9787484,237.09508 C41.578269,228.567274 40.6680016,221.916002 41.8080646,213.289682 C42.6603319,206.840977 45.3461267,200.777645 45.8177241,194.28038 C45.907408,193.044791 43.6268969,194.871672 43.0689262,195.918609 C39.4998101,202.615449 35.8762397,209.457352 33.7197743,216.980127 C31.7006324,224.023852 31.5719686,246.318417 30.719433,238.999503 C28.9435455,223.753725 28.23561,210.264412 28.922806,194.822558 C29.0659317,191.606408 30.9856104,186.890187 32.0730245,183.31855 C32.5411554,181.780964 34.5086597,179.233799 33.3839068,179.126609 C30.9043171,178.890303 28.1608998,184.138297 25.6387264,186.129164 C12.7186565,196.327565 1.8375635,222.657534 17.7819799,180.299611 C19.3670978,176.088588 23.2328813,171.470389 23.9867945,168.423662 C24.2033311,167.54859 26.85279,165.582062 25.8055734,165.295789 C20.3102461,163.793557 13.7785033,181.390644 10.6020652,185.341126 C1.61540145,196.517686 3.57016695,202.852567 8.4636848,167.61013 L12.214114,154.581402 C19.1572872,134.380599 32.1189317,118.112658 36.6148915,96.6545655 C39.299614,83.8410564 37.2446892,72.9515828 36.9283537,59.7173539 C35.8961792,16.5352492 35.7246889,2.59826739 75.0921251,1.11278209 C80.7123061,0.900710975 96.8808096,-1.32855939 105.735772,4.49216761 C106.450951,4.96228387 110.372172,13.0731567 111.408478,16.8496442 Z" id="hair" fill="{hair-color}"></path>
                <path d="M142.111101,127.323676 C138.414792,121.059881 136.182278,117.04203 135.390268,115.221084 C132.574435,108.747066 129.260262,96.151225 121.914886,64.6340638 C119.929464,56.1151177 119.401509,52.5513172 118.756112,45.6601322 C118.671967,44.761683 118.608443,44.1492388 118.533113,43.5406463 C118.22148,41.0229435 117.701506,38.7997303 116.592142,35.5365464 C115.710908,32.9444029 115.040757,30.6377348 114.463494,28.3116601 C114.142926,27.0199362 113.360625,23.5350059 113.332741,23.4175927 C112.825448,21.2815682 112.385437,20.0606769 111.622599,18.8366944 C111.344142,18.389906 111.021153,17.946265 110.640698,17.4903572 L110.444128,17.1142716 C109.557046,13.8815833 105.708577,5.67099341 105.186479,5.32779722 C102.050687,3.26651395 97.7032791,2.11254467 92.3294556,1.69697734 C88.497953,1.40068043 84.7266148,1.47938876 79.6647083,1.82105242 C79.1249269,1.85748607 77.4186717,1.97771708 77.1490404,1.99610591 C76.2642483,2.05644864 75.6511852,2.09239827 75.1298321,2.11207093 C55.7062412,2.84499798 46.2734178,6.59871354 41.7462454,15.2427883 C39.2684738,19.9737862 38.132658,25.1071884 37.7938552,35.1864332 C37.8252365,34.6989412 37.8707939,34.2889512 37.9316092,33.9642399 C38.0718106,33.215663 38.2603291,32.7753292 38.851246,32.5537874 C39.6972122,32.2366245 40.1625288,32.710802 40.5584892,33.5299972 C40.8451297,34.1230223 41.1603278,34.3574238 42.0597415,34.7254161 C42.4548584,34.8843265 42.6806313,34.9767643 42.9123186,35.0804325 C43.2747793,35.2426149 43.5985597,35.410826 43.9174529,35.6096156 C44.4832702,35.9623311 45.0373457,36.4439547 45.8053582,37.2037501 C45.9259212,37.3230231 46.0444335,37.4416527 46.2180879,37.6164579 C47.1563808,38.5609686 47.5481564,38.9353143 47.9377461,39.2212817 C48.1643004,38.4029484 48.2487796,37.48629 48.3588093,35.365667 C48.4054061,34.4675989 48.4134803,34.3164502 48.4370521,33.9257681 C48.5383185,32.2473603 48.6689861,31.0561766 48.9000462,30.0270152 C50.4063306,23.3178975 56.895714,19.554578 67.0527955,17.6806605 C69.4462957,17.2390747 71.9611026,16.9167287 74.7796717,16.659803 C75.8418498,16.5629805 76.8927274,16.4796924 78.1822146,16.3867437 C78.2065636,16.3849885 80.4804992,16.2247036 81.0403989,16.1820111 C82.4702654,16.0729834 83.3281118,15.9802125 83.8625429,15.8688512 C87.9780172,15.0112949 90.6669105,14.8742244 93.5712847,15.2789504 C94.7870635,15.4483697 99.4082947,16.3910585 100.178096,16.5289185 C101.774104,16.8147397 103.376131,17.0515716 105.156541,17.2529386 L105.78184,17.3236608 L105.988625,17.9180009 C106.646532,19.8089568 107.042657,21.9476686 107.134846,24.5996698 C107.303843,29.4611968 107.901012,31.2862547 109.559091,33.6474989 C109.588498,33.689377 109.851284,34.0619446 109.930412,34.1751153 C110.078061,34.3862842 110.200539,34.5652445 110.318979,34.7441648 C112.03497,37.336407 112.983328,40.3631581 113.501344,46.1948988 C114.338574,55.6202811 112.923717,65.11203 109.819086,75.9689824 C109.375568,77.5199752 108.918529,79.0325476 108.345921,80.8667478 C108.331184,80.9139527 107.323039,84.1199033 107.081201,84.9095338 C106.664813,86.2690862 105.898805,87.3312439 104.310194,89.0632406 C104.205517,89.1773659 104.103086,89.288471 103.897153,89.5116272 C101.496003,92.1155656 100.762232,93.4078814 101.051447,95.2744775 C101.602804,98.832942 103.015317,111.856049 103.359481,116.418017 C103.413417,116.47917 103.503949,116.560404 103.630406,116.655022 C103.987966,116.922557 104.555871,117.241007 105.324133,117.5982 C106.929666,118.344669 109.352511,119.235557 112.581479,120.264124 L113.192813,120.45886 L117.178351,153.094907 C117.549824,142.972627 117.891976,136.323849 118.205969,133.134117 C118.524087,129.902485 118.966066,127.99568 119.590059,126.961289 C119.840098,126.546799 120.132921,126.244985 120.478318,126.041558 C120.734563,125.890639 120.893157,125.839695 121.246534,125.754896 C122.817436,124.914855 124.956298,124.907738 127.7243,125.641715 L142.111101,127.323676 Z M37.9280681,59.6934579 C37.9990389,62.6625972 38.1299952,65.1551913 38.4314591,69.88478 C38.7799562,75.3522603 38.8859951,77.2995051 38.9494165,80.0875895 C39.090448,86.2875107 38.7132526,91.5159988 37.5936388,96.8596354 C35.4265186,107.202758 32.1606098,114.923433 24.2793847,130.372362 C24.0588017,130.8047 24.0588017,130.8047 23.8382243,131.236953 C18.0373795,142.605011 15.5492517,147.954497 13.1750917,154.858028 L9.44436658,167.818305 C8.35097795,175.682136 6.80792938,185.018758 5.95533481,190.104552 C7.21867902,188.140854 8.34154954,186.556637 9.82274348,184.714502 C10.3668377,184.037821 11.0694036,182.856098 12.1027615,180.919561 C12.3554562,180.446005 14.4499414,176.433222 15.123982,175.186436 C17.4210503,170.937506 19.2577635,168.104121 21.0956252,166.282666 C22.7706265,164.622618 24.42263,163.881049 26.0692636,164.331182 C27.170878,164.632325 27.2678135,165.617134 26.7714166,166.44937 C26.5658774,166.793968 26.3459511,167.055304 25.7522782,167.710567 C25.2179598,168.30036 24.9686141,168.61902 24.9575166,168.663867 C24.568343,170.236602 24.2185201,170.867536 21.4639461,175.406689 C20.7862526,176.523433 20.3123588,177.337649 19.8852483,178.136791 C19.3932487,179.057343 19.0069538,179.883923 18.7178711,180.6519 C15.2237304,189.934431 13.2904388,195.198981 12.1380587,198.604477 C11.8776005,199.374179 11.6581192,200.046647 11.4776357,200.627943 C11.6565125,200.398042 11.8526963,200.143543 12.0693904,199.860599 C12.3291409,199.521436 13.398442,198.117592 13.2938352,198.254762 C13.8297663,197.551997 14.2547335,196.99844 14.6865016,196.442413 C15.8243619,194.977085 16.857945,193.692679 17.8960562,192.468275 C20.3875738,189.529647 22.7285019,187.15234 25.019144,185.344232 C25.7184613,184.792229 26.3088736,184.130332 27.7509175,182.36638 C28.056496,181.992588 28.2256081,181.786907 28.4141062,181.561007 C30.5067672,179.053122 31.8355487,177.974519 33.4787774,178.13112 C34.6732163,178.24495 34.9236593,179.219026 34.595556,180.239302 C34.4491168,180.694672 34.3067225,180.985791 33.7372853,182.073303 C33.3087265,182.897264 33.1247521,183.297506 33.029669,183.609809 C32.8688005,184.138185 32.6846848,184.709908 32.4486501,185.419821 C32.3101731,185.836312 31.8009418,187.34837 31.8109696,187.318479 C31.6325582,187.850285 31.4901396,188.280189 31.356182,188.693185 C30.453385,191.476543 29.9878389,193.383456 29.9218173,194.867016 C29.371473,207.2337 29.6935185,218.610765 30.9229236,231.462778 C31.0504458,229.747594 31.1622202,228.248793 31.2168924,227.603476 C31.6487336,222.50628 32.1265169,218.909191 32.7584904,216.704567 C34.5845939,210.334251 36.8511921,205.458957 42.1864347,195.44828 C42.5418384,194.781426 43.3509771,193.949119 44.1188378,193.420076 C44.5868371,193.097632 45.0127504,192.898186 45.4385729,192.870041 C46.3140892,192.812173 46.8775379,193.492561 46.8151002,194.352774 C46.5992724,197.326265 46.0743828,199.766533 44.7722731,204.619614 C43.5549671,209.153575 43.1136873,211.042973 42.7994441,213.420704 C42.3789309,216.602529 42.2464856,218.944366 42.098853,224.10629 C42.0787907,224.807765 42.0688416,225.148012 42.056284,225.552469 C41.9026778,230.499873 41.6428674,233.647317 40.9520249,237.324716 L38.8695145,246.151092 L38.56953,246.369232 C36.9595232,247.53998 35.9405263,248.462848 35.5057043,249.042206 C37.522226,248.980656 40.9214616,247.709352 42.5696228,246.383081 C47.0114646,242.808746 49.7164385,233.322872 49.0954945,220.903025 C48.9482371,217.957646 49.2911309,214.668613 50.0601214,210.883465 C50.5483726,208.480182 51.1647945,206.046559 52.069454,202.813908 C52.2809385,202.058203 53.1307219,199.069444 53.3336296,198.342611 C53.7883952,196.7136 54.110518,195.487131 54.3648866,194.389559 C55.7229238,188.529782 56.0326776,183.667843 56.1427497,172.572449 C56.1481804,172.025012 56.1506281,171.781387 56.1538004,171.477202 C56.2230279,164.839054 56.3666801,161.158325 56.8209436,157.12531 C57.4981124,151.113309 58.4588864,147.009895 59.7686113,143.805342 C60.119618,142.946521 60.4839168,142.17435 60.9286904,141.318611 C61.0997448,140.989505 61.7957027,139.695045 61.9632703,139.369114 C63.6906418,136.009259 64.0621882,132.777264 63.1304369,124.085955 C62.8826182,121.77432 64.5217401,120.497891 68.4067412,118.752851 C68.626391,118.654191 69.4331571,118.295658 69.352547,118.331579 C69.7218917,118.166993 69.9910931,118.045021 70.2448698,117.926382 C71.8348108,117.183091 72.52553,116.645229 72.5208827,116.396906 C72.273713,103.18823 71.7008701,97.8445449 69.2543224,92.3348936 C68.6704591,91.0200274 67.6359945,89.6338778 66.0203034,87.865856 C65.6167275,87.4242302 63.9312265,85.6440734 63.5473211,85.2181049 C62.6544288,84.2273815 62.1482649,83.5415137 61.9172344,82.8978583 C60.6773475,79.4435104 59.3622195,77.5981523 56.2276091,74.2577894 C51.8424433,69.5853458 50.1066096,66.7411058 48.8625206,60.5924813 C48.8105334,60.3355466 48.7609943,60.1021123 48.7138716,59.8914465 C47.9743191,60.8671901 47.0361689,61.2150243 45.8396029,60.4291515 C45.7515794,60.37134 44.9778984,59.947331 44.8387463,59.8680394 C44.2086792,59.5090147 43.6581947,59.1535704 43.1250754,58.7407265 C41.3687311,57.3806257 40.227222,55.7079283 39.9794605,53.6002022 C39.8216879,52.2580188 39.6325576,51.4633211 39.1842442,50.0064233 C38.7166476,48.4849649 38.51461,47.6839614 38.3313151,46.5042066 C38.0461108,44.6685241 37.7747406,40.7261817 37.7433829,37.7646396 C37.7409758,37.5372972 37.7399164,37.3170356 37.7402425,37.1041263 C37.6093175,42.8768877 37.7004108,50.169174 37.9280681,59.6934579 Z M35.2903729,249.407048 C35.2891344,249.410456 35.2879373,249.413837 35.2867816,249.417193 C35.2902485,249.407126 35.2920832,249.394329 35.2923003,249.379456 L35.2903729,249.407048 Z M103.367193,116.521243 C103.367592,116.526638 103.367989,116.53202 103.368385,116.53739 C103.367198,116.521281 103.36562,116.506574 103.363803,116.493236 L103.367193,116.521243 Z M38.8735879,34.4010782 C38.5397357,37.2394776 38.94738,43.9558357 39.3194599,46.3506816 C39.7898304,49.3781631 40.5936956,50.2598974 40.9726224,53.4834568 C41.4298755,57.3733443 45.5352102,59.0328434 46.3885651,59.5933043 C48.7159346,61.1218589 48.5985526,54.2454559 49.8426585,60.3941639 C52.4193173,73.1287096 59.2896821,72.6173979 62.8584408,82.5600263 C63.5249852,84.4170316 68.4763636,88.1188703 70.1682685,91.929058 C73.2019821,98.7610133 73.3519289,107.359746 73.5207076,116.378194 C73.5702516,119.025505 63.7108565,120.118691 64.1247395,123.979361 C66.3454286,144.693787 60.3183047,135.009523 57.8146598,157.237238 C56.4182413,169.634841 58.1368888,182.543045 55.3390667,194.615331 C53.7078546,201.653827 49.6640003,212.247484 50.0942471,220.853091 C50.7746579,234.46237 47.5469287,243.661424 43.1965465,247.162162 C39.407642,250.211081 28.6843939,252.320966 37.9814129,245.560456 L39.9787484,237.09508 C41.578269,228.567274 40.6680016,221.916002 41.8080646,213.289682 C42.6603319,206.840977 45.3461267,200.777645 45.8177241,194.28038 C45.907408,193.044791 43.6268969,194.871672 43.0689262,195.918609 C39.4998101,202.615449 35.8762397,209.457352 33.7197743,216.980127 C31.7006324,224.023852 31.5719686,246.318417 30.719433,238.999503 C28.9435455,223.753725 28.23561,210.264412 28.922806,194.822558 C29.0659317,191.606408 30.9856104,186.890187 32.0730245,183.31855 C32.5411554,181.780964 34.5086597,179.233799 33.3839068,179.126609 C30.9043171,178.890303 28.1608998,184.138297 25.6387264,186.129164 C12.7186565,196.327565 1.8375635,222.657534 17.7819799,180.299611 C19.3670978,176.088588 23.2328813,171.470389 23.9867945,168.423662 C24.2033311,167.54859 26.85279,165.582062 25.8055734,165.295789 C20.3102461,163.793557 13.7785033,181.390644 10.6020652,185.341126 C1.61540145,196.517686 3.57016695,202.852567 8.4636848,167.61013 L12.214114,154.581402 C19.1572872,134.380599 32.1189317,118.112658 36.6148915,96.6545655 C39.299614,83.8410564 37.2446892,72.9515828 36.9283537,59.7173539 C35.8961792,16.5352492 35.7246889,2.59826739 75.0921251,1.11278209 C80.7123061,0.900710975 96.8808096,-1.32855939 105.735772,4.49216761 C106.450951,4.96228387 110.372172,13.0731567 111.408478,16.8496442 C114.889713,21.0212834 113.764027,24.1108363 117.538926,35.2146747 C121.053383,45.5524242 118.340145,44.8900113 122.888786,64.407087 C129.619897,93.2885899 133.333079,107.984096 136.307284,114.822233 C137.146668,116.752101 139.710907,121.328463 144,128.551318 L127.536314,126.626548 C124.958834,125.933939 123.038995,125.933939 121.776798,126.626548 C121.117344,126.988412 119.90489,126.083168 119.201159,133.232083 C118.772351,137.588172 118.287598,148.510811 117.746901,166 L112.277962,121.21695 C105.746353,119.136348 102.444063,117.600995 102.37109,116.610892 C102.058435,112.36875 100.636081,99.1247205 100.063239,95.427593 C99.3433472,90.7814108 104.98362,88.3435537 106.12504,84.616692 C108.548305,76.7044612 113.884413,61.8095634 112.505266,46.2833776 C111.167858,31.2270772 106.576218,37.3139468 106.13545,24.6344109 C106.036114,21.7768249 105.570763,19.7601738 105.044156,18.2466033 C94.3240428,17.034143 93.4225932,14.898268 84.066535,16.8478237 C79.0917212,17.8844437 52.9175758,16.697561 49.8757576,30.2460752 C48.9450685,34.3914426 49.8928069,41.779144 47.5071786,40.1417663 C46.2344049,39.2681971 44.7304335,37.2947925 43.3884469,36.4582337 C41.9602198,35.5679149 40.7002901,35.5845054 39.8900576,34.3730035 C39.2547873,33.1306764 39.0081824,33.4418289 38.8735879,34.4010782 Z" id="hair-outline" fill="#000000" fill-rule="nonzero" opacity="0.05"></path>
            </g>
        </g>
    </g>
</svg>