<?xml version="1.0" encoding="UTF-8"?>
<svg width="480px" height="300px" viewBox="0 0 480 300" version="1.1" xmlns="http://www.w3.org/2000/svg" xmlns:xlink="http://www.w3.org/1999/xlink">
    <!-- Generator: Sketch 50.2 (55047) - http://www.bohemiancoding.com/sketch -->
    <title>Avatars</title>
    <desc>Created with Sketch.</desc>
    <defs></defs>
    <g id="Avatars" stroke="none" stroke-width="1" fill="none" fill-rule="evenodd">
        <rect id="Frame" fill="#E6E6E6" x="0" y="0" width="480" height="300"></rect>
        <g id="Gnome" transform="translate(148.000000, 47.000000)">
            <g id="Male">
                <path d="M0,253 C2.33516429,223.734374 4.05983995,205.229084 5.17402698,197.484131 C5.97351877,191.926692 4.64675787,183.924821 5.19521464,178.32708 C5.71842837,172.986979 4.70144235,151.307653 13.6827706,143.874228 C23.6994819,135.583865 80.6194618,134.537463 80.6194618,114.486291 C80.6194618,110.805324 78.4441226,104.453093 75.9401945,102.846647 C67.0153846,97.1207539 60.324462,89.8423239 55.8674269,81.0113568 C49.8303707,78.763985 46.4320947,76.0075966 45.6725989,72.7421915 C43.3718102,62.8500938 42.2978902,29.0644058 49.2011355,21.569812 C62.0534321,7.61655706 111.216646,-6.24175175 123.425752,19.0934311 C130.686933,34.1611482 140.523005,63.1098002 114.964242,96.9754776 C110.276116,103.187303 109.208328,111.288966 111.760877,121.280466 C119.809897,124.361178 174.626929,124.741645 180.855069,147.259869 C184.802042,161.530393 187.656012,194.949726 189.293766,207.252892 C190.209765,214.134077 191.111843,229.383113 192,253 L168.758873,253 L14.6618619,253 L0,253 Z" id="body" fill="{skin-color}"></path>
                <polygon id="armpit-l" fill="#E6E6E6" points="30 254 37 212 45 254"></polygon>
                <polygon id="armpit-r" fill="#E6E6E6" transform="translate(159.500000, 233.000000) scale(-1, 1) translate(-159.500000, -233.000000) " points="152 254 159 212 167 254"></polygon>
                <path d="M98.7775159,215.27123 C99.3208312,216.659142 100.542883,217.638452 102.507182,218.677369 C102.651535,218.753716 102.80118,218.831939 103.00256,218.936533 C103.255615,219.067805 103.396154,219.140716 103.51331,219.201738 C103.937361,219.422609 104.254677,219.591639 104.569245,219.766101 C105.767394,220.430606 110.752361,220.637055 120.56024,220.410212 C122.937847,220.355221 127.223554,220.038994 133.213011,219.506424 C133.957318,219.440241 134.72651,219.370845 135.527259,219.29771 C137.474924,219.119823 145.845922,218.329485 146.958486,218.236791 L147.041514,219.233339 C145.935421,219.325493 137.570948,220.115215 135.618213,220.293565 C134.816698,220.36677 134.046715,220.436238 133.30158,220.502494 C127.289292,221.037094 122.990815,221.354263 120.583362,221.409944 C110.463451,221.644005 105.524631,221.439466 104.084235,220.64061 C103.778668,220.47114 103.468332,220.305828 103.051357,220.088642 C102.935049,220.028062 102.795409,219.955617 102.541633,219.823971 C102.338236,219.718329 102.186602,219.639067 102.039649,219.561344 C100.471862,218.732143 99.3160406,217.901287 98.5573008,216.901202 L99.4990263,231.968811 L98.5009737,232.031189 L97.5821455,217.329938 C96.8349587,218.144441 95.7968232,218.853495 94.4584804,219.561344 C94.3115269,219.639067 94.1598928,219.718329 93.9564961,219.823971 C93.7027196,219.955617 93.5630798,220.028062 93.4467722,220.088642 C93.0297967,220.305828 92.7194615,220.47114 92.4138942,220.64061 C90.973498,221.439466 86.0346782,221.644005 75.9147666,221.409944 C73.5073138,221.354263 69.2088367,221.037094 63.1965491,220.502494 C62.4514137,220.436238 61.6814307,220.36677 60.8799158,220.293565 C58.9271811,220.115215 50.5627082,219.325493 49.4566154,219.233339 L49.5396427,218.236791 C50.6522073,218.329485 59.0232049,219.119823 60.9708705,219.29771 C61.7716187,219.370845 62.5408111,219.440241 63.2851177,219.506424 C69.2745752,220.038994 73.5602823,220.355221 75.9378891,220.410212 C85.7457683,220.637055 90.7307346,220.430606 91.9288841,219.766101 C92.2434525,219.591639 92.5607683,219.422609 92.9848193,219.201738 C93.1019755,219.140716 93.2425136,219.067805 93.4955694,218.936533 C93.6969486,218.831939 93.8465944,218.753716 93.9909466,218.677369 C95.9552459,217.638452 97.1772979,216.659142 97.7206132,215.27123 C97.3599802,214.090733 97.3710871,212.669683 97.7400683,210.851964 C97.6246842,210.322581 97.4776156,209.753429 97.2995833,209.139193 L98.2360618,208.867761 C98.2367329,208.865443 98.2374045,208.863125 98.2380765,208.860807 L98.2490645,208.863992 L98.2600526,208.860807 C98.2607246,208.863125 98.2613962,208.865443 98.2620673,208.867761 L99.1985458,209.139193 C99.0205135,209.753429 98.8734449,210.322581 98.7580607,210.851964 C99.127042,212.669683 99.1381489,214.090733 98.7775159,215.27123 Z" id="breast" fill="#000000" fill-rule="nonzero" opacity="0.3"></path>
                <path d="M131.652819,40.6381616 C132.145006,46.8799362 131.905587,53.7420653 131.864769,59.9073504 C131.846375,62.6857333 131.868314,65.3225975 132.015718,67.6973931 C132.098556,69.0319703 132.140848,70.3358172 132.144297,71.6090592 C132.149281,73.448336 135.146399,77.5064211 134.994409,79.2183465 C134.831532,81.0528916 131.50828,80.5318566 131.177355,82.2210534 C130.924083,83.5138721 133.773015,86.7729062 133.427844,87.981068 C133.074118,89.2191696 129.524054,88.4042803 129.079843,89.5539211 C128.846078,90.1589141 131.434889,93.3182998 131.177355,93.8988898 C130.719155,94.9318647 127.389355,93.3596574 126.859821,94.3156733 C126.594049,94.7954968 128.733094,97.7397814 128.450299,98.2002884 C127.923308,99.0584478 124.953823,97.4089768 124.370865,98.2002884 C123.409457,99.505313 126.838623,103.101919 125.739748,104.226216 C124.91402,105.071047 119.588174,103.482763 118.693909,104.226216 C116.596375,105.970014 114.464674,111.27699 112.061809,112.468331 C110.22646,113.378297 108.173071,110.28693 106.211336,110.878397 C103.917374,111.57003 102.355711,114.701117 99.9554032,114.962134 C97.6502797,115.212801 94.5092531,112.610033 92.1708323,112.468331 C90.1628003,112.34665 88.441719,115.369939 86.4526306,114.962134 C84.6177158,114.585938 82.5118854,110.799854 80.7259674,110.182592 C78.7780158,109.509326 76.5358011,111.835566 74.6853786,110.878397 C73.6298025,110.332378 72.9262183,106.598201 71.9128409,105.960566 C70.5536029,105.105311 67.3036621,106.979466 66.0363489,105.960566 C64.5759507,104.786429 65.114756,100.692515 63.802636,99.303001 C62.9450459,98.3948264 60.2778206,99.199738 59.4934841,98.2002884 C58.8522092,97.3831366 60.0810309,94.7767059 59.4934841,93.8988898 C58.5379035,92.4712178 57.6562144,90.9635215 56.8576284,89.3764795 L55.7105903,92 C49.1851136,91.1460192 45.4007001,89.9745015 44.3573498,88.4854469 C39.8230656,82.0141816 34.4472248,79.4513748 38.3423407,82.0737414 C42.0559301,84.5738963 41.7976284,78.4012431 42.1345332,74.5112008 C42.4804868,70.5166768 40.8429393,64.900224 40.8736773,61.9834362 C41.0473092,45.5071705 42.1611528,59.4597835 41.1537004,43.0232231 C38.7353461,3.56783352 56.7680904,3.18061853 91.176874,0.975018133 C98.4898193,0.5062589 110.061891,-1.93256 119.194423,3.30542173 C132.273827,10.8071399 137.079698,26.6147595 134.189946,40.2495601 C133.964314,41.3141652 132.832575,41.1498308 131.652819,40.6381616 Z M127.096814,37.8864436 C122.092071,34.9139108 117.337821,33.3394709 112.820564,28.9398613 C108.235274,24.4739901 107.329866,18.3177125 101.39105,17.5028899 C95.3632671,16.675861 89.2959411,15.9599905 83.225742,16.0151182 C80.0590472,16.0438771 76.7847215,16.3939375 73.8459207,17.7530463 C67.3547794,20.7550078 59.2547965,18.9762851 55.2501012,25.5825001 C51.5943151,31.6131485 53.7161367,40.2232079 53.7223561,47.5787013 C53.7230564,48.4069328 51.9816522,45.0006586 50.6230529,44.5932831 C49.0588035,44.1242436 44.9256208,41.0099697 44.9844926,41.9611559 C45.0401289,42.8600675 43.57159,46.133598 44.009174,48.9885735 C45.0441861,55.7414123 46.9078016,65.5788465 47.5126209,67.2748208 C48.4051937,69.7776854 50.3026686,70.7651678 52.0586506,71.8765783 C52.0375067,71.6287638 52.0179514,71.3798581 52,71.1298621 L52.3012248,69.5411303 C51.9410794,68.4606842 51.5531315,67.2796761 51.137381,65.998106 L52.5704049,68.1214102 L52.767047,67.0842727 C58.4507918,79.6047711 60.4683975,89.3257655 72.5522332,94.0716206 C95.132777,102.939996 126.363983,96.1910653 128.450299,61.0284525 C128.732982,56.2641322 127.70395,46.0589324 127.096814,37.8864436 Z" id="hair" fill="{hair-color}"></path>
                <path d="M45.1763201,87.911611 C45.9554201,89.0235314 49.3285917,90.1030315 55.0966494,90.9079477 L56.7941041,87.0255073 L57.7509123,88.9269867 C58.5240394,90.4634338 59.3832776,91.9364208 60.3245123,93.3426595 C60.7829973,94.0276527 60.7521827,94.5938143 60.4658158,96.2028806 C60.2989264,97.1405919 60.2783059,97.5805596 60.2801638,97.582927 C60.3475407,97.6687828 60.7310537,97.7473043 61.7148168,97.7889741 C63.3130102,97.856641 63.9184678,97.9691459 64.5297012,98.6164325 C65.2573614,99.3870132 65.4852078,100.222655 65.8273648,102.402102 C66.1091472,104.19698 66.317666,104.903623 66.6629355,105.181215 C66.8579189,105.337978 67.4314245,105.311493 68.8197748,105.025757 C70.8094117,104.616231 71.5721032,104.56468 72.4454041,105.114176 C73.114564,105.535223 73.4387656,106.159849 74.1280094,107.873942 C74.7116699,109.327299 75.0261238,109.928791 75.144822,109.99019 C75.6024696,110.226917 76.1064107,110.144175 77.4657501,109.64655 C77.6177031,109.590936 77.6861695,109.566008 77.7735326,109.534674 C79.1701917,109.03373 80.0561967,108.893056 81.0526338,109.237452 C81.9999783,109.564881 82.6203463,110.138465 84.2018424,111.870745 C84.3583491,112.042173 84.4506744,112.142942 84.5490241,112.249372 C85.5824814,113.367737 86.2181738,113.893265 86.6534741,113.982511 C87.0897887,114.071964 87.5979431,113.839441 88.6155894,113.088393 C90.3582755,111.793872 91.0998647,111.401599 92.2313186,111.470162 C93.3110233,111.535589 94.1506725,111.854659 96.1979751,112.815465 C98.1994422,113.751788 99.1061521,114.048589 99.8472972,113.967995 C100.622741,113.88367 101.260642,113.446492 102.641321,112.16509 C104.137913,110.775977 104.843015,110.246484 105.922669,109.920967 C106.723441,109.679533 107.513175,109.8111 108.387205,110.213372 C108.734823,110.373363 109.012722,110.528533 109.571228,110.859841 C110.818537,111.599749 111.260587,111.749415 111.617607,111.572404 C112.468705,111.15043 113.332267,110.070006 114.886631,107.648063 C116.621706,104.944543 117.139193,104.218295 118.054622,103.457247 C118.766765,102.865202 119.433129,102.894814 122.271337,103.259713 C123.423117,103.407695 123.942084,103.462843 124.43285,103.478126 C124.663923,103.485322 124.851627,103.479937 124.990811,103.463613 C124.914654,103.281152 124.699149,102.704384 124.184194,101.671616 C123.090336,99.4752683 122.831069,98.604432 123.565754,97.6071647 C124.190104,96.7596662 124.735048,96.8011457 126.623806,97.2433238 C126.821916,97.289703 126.97984,97.3256977 127.112871,97.3542462 C127.028243,97.1938618 126.921426,96.9965353 126.778869,96.7355095 C126.417369,96.0735922 126.268641,95.7907346 126.122799,95.4678989 C125.800629,94.7547391 125.697776,94.3497797 125.985048,93.8311398 C126.531368,92.8448182 127.13734,92.8362419 129.151864,93.1408828 C129.475004,93.1897472 129.704304,93.2219047 129.884383,93.2416347 C129.753716,93.0136987 129.579014,92.7291373 129.281949,92.2534411 C128.830679,91.5308125 128.643371,91.2202081 128.457256,90.8664555 C128.08208,90.1533522 127.94164,89.7251189 128.147053,89.1934991 C128.542263,88.1706771 129.181676,87.9976786 131.127278,87.8114642 C131.822684,87.7448894 132.116238,87.7045342 132.366314,87.6320038 C132.444788,87.4850417 132.13694,86.810535 131.438671,85.5756495 C130.324193,83.6045645 130.021732,82.9183961 130.19601,82.0288011 C130.428012,80.8445528 131.094424,80.4281092 132.736056,79.858966 C133.747487,79.5083025 133.978486,79.3533838 133.998327,79.129911 C134.038268,78.680043 133.68101,77.7979867 132.678203,75.7977849 C131.514784,73.4772095 131.146949,72.5889466 131.144301,71.6117685 C131.140886,70.3513547 131.098811,69.0670804 131.017639,67.7593443 C130.883393,65.5965467 130.84315,63.1694832 130.864791,59.9007301 C130.872023,58.8083271 130.881457,57.990061 130.909103,55.8629662 C130.947769,52.8881183 130.961042,51.4514597 130.958573,49.7337726 C130.953564,46.2488973 130.864586,43.3630996 130.655913,40.7167713 L130.5252,39.059104 L132.050715,39.7207312 C132.962537,40.1161952 133.199063,40.1017371 133.211675,40.042226 C136.219592,25.8498885 130.657816,11.0330794 118.696896,4.17287031 C115.74474,2.47965546 112.360715,1.52577241 108.477572,1.1669777 C104.925414,0.838765405 101.642371,0.981404863 96.2318034,1.51861613 C95.9307037,1.5485121 94.8834822,1.65355924 94.9122643,1.65068142 C94.3932591,1.70257498 94.00804,1.74041848 93.6376585,1.77559447 C92.6953504,1.86508763 91.9366702,1.92836755 91.2408426,1.97297004 C90.81118,2.00051138 87.651212,2.20176657 86.7478857,2.26002658 C66.2905562,3.5794216 58.2725883,5.02061746 51.8250451,9.58258005 C44.1367137,15.022463 41.0531393,25.0369783 42.1518272,42.9620445 C42.6304841,50.7713192 42.6611721,51.8891025 42.4203884,52.7550957 C42.254272,53.3525434 42.2644241,53.3099618 42.2024947,53.7817474 C42.03477,55.059494 41.9201943,57.5746198 41.8736218,61.9939739 C41.8630788,62.9944215 41.9606663,63.7025322 42.5148469,67.0981359 C42.6713117,68.0568354 42.7763694,68.7376074 42.8697426,69.4214702 C43.1550919,71.511361 43.255154,73.1616852 43.1308038,74.5974847 C43.0944673,75.017041 43.0671819,75.4224151 43.021216,76.1843823 C42.9800898,76.866121 42.976074,76.9317074 42.9579974,77.2065393 C42.7993789,79.6181364 42.5831633,81.0201342 42.0682128,82.0819234 C41.833986,82.5648816 41.5397296,82.9396353 41.1966661,83.201351 C42.5646546,84.5496075 43.9362714,86.1418313 45.1763201,87.911611 Z M127.478369,98.1476695 C127.479271,98.1517236 127.480214,98.1557279 127.481194,98.1596855 C127.478383,98.1483272 127.474372,98.1346205 127.469179,98.1187137 L127.478369,98.1476695 Z M130.194656,93.8598523 C130.19594,93.864693 130.197309,93.8693239 130.198734,93.8737678 C130.194545,93.8607012 130.189359,93.8460715 130.183189,93.8299465 L130.194656,93.8598523 Z M38.3423407,82.0737414 C36.1644811,80.6075087 36.8849229,80.7622732 38.7360514,82.3148719 C38.6100318,82.2458548 38.4788706,82.1656595 38.3423407,82.0737414 Z M42.1345332,74.5112008 C42.4804868,70.5166768 40.8429393,64.900224 40.8736773,61.9834362 C41.0473092,45.5071705 42.1611528,59.4597835 41.1537004,43.0232231 C38.7353461,3.56783352 56.7680904,3.18061853 91.176874,0.975018133 C98.4898193,0.5062589 110.061891,-1.93256 119.194423,3.30542173 C132.273827,10.8071399 137.079698,26.6147595 134.189946,40.2495601 C134.032243,40.993653 133.431894,41.1373914 132.681886,40.9817916 C132.671492,40.840396 132.660773,40.6996665 132.649724,40.5595519 L132.229858,40.8593823 C132.041404,40.7977782 131.847767,40.722712 131.652819,40.6381616 C131.66857,40.8379166 131.683572,41.038307 131.697856,41.2392895 L131.254922,41.555592 C131.416436,41.6256417 131.575724,41.6891029 131.732249,41.7454963 C132.117534,47.684599 131.903186,54.1046228 131.864769,59.9073504 C131.846375,62.6857333 131.868314,65.3225975 132.015718,67.6973931 C132.098556,69.0319703 132.140848,70.3358172 132.144297,71.6090592 C132.149281,73.448336 135.146399,77.5064211 134.994409,79.2183465 C134.831532,81.0528916 131.50828,80.5318566 131.177355,82.2210534 C130.924083,83.5138721 133.773015,86.7729062 133.427844,87.981068 C133.074118,89.2191696 129.524054,88.4042803 129.079843,89.5539211 C128.846078,90.1589141 131.434889,93.3182998 131.177355,93.8988898 C130.719155,94.9318647 127.389355,93.3596574 126.859821,94.3156733 C126.594049,94.7954968 128.733094,97.7397814 128.450299,98.2002884 C127.923308,99.0584478 124.953823,97.4089768 124.370865,98.2002884 C123.409457,99.505313 126.838623,103.101919 125.739748,104.226216 C124.91402,105.071047 119.588174,103.482763 118.693909,104.226216 C116.596375,105.970014 114.464674,111.27699 112.061809,112.468331 C110.22646,113.378297 108.173071,110.28693 106.211336,110.878397 C103.917374,111.57003 102.355711,114.701117 99.9554032,114.962134 C97.6502797,115.212801 94.5092531,112.610033 92.1708323,112.468331 C90.1628003,112.34665 88.441719,115.369939 86.4526306,114.962134 C84.6177158,114.585938 82.5118854,110.799854 80.7259674,110.182592 C78.7780158,109.509326 76.5358011,111.835566 74.6853786,110.878397 C73.6298025,110.332378 72.9262183,106.598201 71.9128409,105.960566 C70.5536029,105.105311 67.3036621,106.979466 66.0363489,105.960566 C64.5759507,104.786429 65.114756,100.692515 63.802636,99.303001 C62.9450459,98.3948264 60.2778206,99.199738 59.4934841,98.2002884 C58.8522092,97.3831366 60.0810309,94.7767059 59.4934841,93.8988898 C58.7690494,92.8165582 58.0870824,91.6882342 57.4515966,90.5142136 L57.7738821,89.7770779 L57.0716398,89.7960528 C56.9996558,89.656817 56.9283165,89.5169591 56.8576284,89.3764795 L56.6694338,89.8069206 L55.9643444,89.8259724 C56.0878534,90.0714237 56.2134683,90.3153446 56.3411734,90.557722 L55.7105903,92 C49.1851136,91.1460192 45.4007001,89.9745015 44.3573498,88.4854469 C42.3583006,85.6324327 40.1956781,83.5391059 38.7360514,82.3148719 C42.0377418,84.1231072 41.8100147,78.2582259 42.1345332,74.5112008 Z M52.3726442,63.7962445 L53.6776158,66.6709153 C54.7095195,68.9440554 57.8335154,76.3501994 57.7143587,76.0748935 C61.9463352,85.8526736 65.4760393,90.2181279 72.9177944,93.1408333 C84.4738949,97.6794235 97.5545871,97.8179648 107.771174,93.152031 C119.350159,87.8638871 126.502045,76.9806106 127.452054,60.9692234 C127.621733,58.1094779 127.37833,53.8552576 126.654241,44.9365141 C126.623817,44.5620355 126.623817,44.5620355 126.593348,44.1876625 C126.337279,41.0421416 126.241862,39.8550493 126.138561,38.482298 C125.081243,37.8643307 124.273473,37.4379605 121.747984,36.1285122 C117.104835,33.7210711 114.763968,32.2285707 112.122847,29.6562351 C111.080254,28.6407952 110.177525,27.5153449 109.204261,26.086864 C108.932346,25.687768 108.666931,25.2840288 108.317038,24.741247 C108.221313,24.5927503 108.105115,24.4118815 107.897107,24.0880871 C107.73172,23.8309204 107.607549,23.6389178 107.486593,23.4537837 C105.332758,20.1571476 103.849928,18.8496235 101.25512,18.4936085 C93.4979914,17.4293083 88.4245556,16.9679454 83.2348233,17.0150769 C79.5875728,17.0482001 76.7343517,17.5189938 74.2656762,18.6606835 C72.5743655,19.4428648 70.803243,19.9394534 68.288658,20.4291735 C67.8247374,20.5195229 67.5545278,20.5696895 66.5917403,20.7461509 C60.4220071,21.8769512 58.0446053,22.9016884 56.1052457,26.1008898 C54.1567328,29.3151906 53.8204512,33.0402341 54.3107654,40.0192909 C54.3378188,40.4043657 54.3620269,40.7361754 54.4106666,41.3939634 C54.6449562,44.5624174 54.7209411,45.9047689 54.7223558,47.5778557 C54.7226103,47.8789077 54.6616423,48.1386724 54.408714,48.3961326 C54.0122651,48.7996848 53.5168051,48.7799099 53.1336433,48.5681325 C52.915845,48.4477532 52.7687999,48.2961347 52.552167,48.02933 C52.4232674,47.8705775 51.7668634,46.9935176 51.5756826,46.7527588 C51.2499912,46.3426076 50.969868,46.0318483 50.7224599,45.8146707 C50.546364,45.6600918 50.4077205,45.5727033 50.3358372,45.5511491 C49.7173265,45.3656889 49.0041223,44.9830721 47.5871563,44.1406037 C46.5649234,43.5319964 46.136511,43.2803056 45.808256,43.1052427 C45.7525055,43.3291442 45.4949169,44.2947122 45.4263015,44.5660048 C45.1146206,45.7983355 44.9472019,46.7751501 44.9291331,47.7057415 C44.9213364,48.1072928 44.9435893,48.4844817 44.997631,48.8370721 C46.0492541,55.6982876 47.8949523,65.3698406 48.4545185,66.9389208 C48.9420916,68.3061251 49.6460562,69.1006426 51.1721577,70.1278975 L51.2702921,69.6103136 C50.932644,68.5949603 50.5712791,67.4937637 50.1861813,66.3066819 L47.9963858,59.5565355 L52.0404073,65.5485417 L52.3726442,63.7962445 Z M53.3992909,67.5619927 L53.0180253,67.6405315 C52.9351452,67.4557347 52.8515008,67.2703128 52.767047,67.0842727 L52.6470924,67.7169417 L52.3401071,67.7801791 L51.7758141,66.9440691 L52.0404073,65.5485417 L53.3992909,67.5619927 Z M51.6544855,67.5839853 C51.689285,67.6901305 51.7238654,67.7954832 51.7582267,67.9000435 L51.5879086,67.9351281 L51.6544855,67.5839853 Z M52.6849896,67.517063 L52.5704049,68.1214102 L52.1274753,67.4651237 L52.64746,67.4027509 C52.6599988,67.4409595 52.6725086,67.4790635 52.6849896,67.517063 Z M52.0885807,65.68953 L51.2162116,66.1149088 L50.308495,66.5575235 L52.2808269,69.4799177 C52.2853663,69.4935443 52.1917574,70.0435258 52,71.1298621 C52.0179514,71.3798581 52.0375067,71.6287638 52.0586506,71.8765783 C50.3026686,70.7651678 48.4051937,69.7776854 47.5126209,67.2748208 C46.9078016,65.5788465 45.0441861,55.7414123 44.009174,48.9885735 C43.57159,46.133598 45.0401289,42.8600675 44.9844926,41.9611559 C44.9256208,41.0099697 49.0588035,44.1242436 50.6230529,44.5932831 C51.3131232,44.8002004 52.1019536,45.7808055 52.7110946,46.5872286 C52.7185742,46.9179631 52.7220713,47.2422635 52.7223565,47.5795469 C52.7222031,47.3981189 52.7651098,47.2153072 52.9819997,46.9945313 C53.4348395,47.5520606 53.7226409,47.9155042 53.7223561,47.5787013 C53.7221103,47.2879796 53.7185595,46.995298 53.7121912,46.7008933 C53.8523697,46.711059 53.9855359,46.7538227 54.1011207,46.8177076 C54.0585464,46.7116775 53.8888816,46.4875243 53.6999767,46.2382346 C53.4817242,39.1964604 51.8142733,31.2503017 55.2501012,25.5825001 C59.2547965,18.9762851 67.3547794,20.7550078 73.8459207,17.7530463 C76.7847215,16.3939375 80.0590472,16.0438771 83.225742,16.0151182 C89.2959411,15.9599905 95.3632671,16.675861 101.39105,17.5028899 C107.329866,18.3177125 108.235274,24.4739901 112.820564,28.9398613 C117.337821,33.3394709 122.092071,34.9139108 127.096814,37.8864436 C127.70395,46.0589324 128.732982,56.2641322 128.450299,61.0284525 C126.363983,96.1910653 95.132777,102.939996 72.5522332,94.0716206 C60.988316,89.5299604 58.6430455,80.4320711 53.4814257,68.6846709 L53.7495433,67.2705548 L52.8975834,67.3727483 C52.8542841,67.2767561 52.810774,67.1805973 52.767047,67.0842727 L52.708041,67.3954842 C52.4671448,66.853288 52.2808511,66.2822124 52.0885807,65.68953 Z" id="hair-outline" fill="#000000" fill-rule="nonzero" opacity="0.05"></path>
            </g>
        </g>
    </g>
</svg>