<?xml version="1.0" encoding="UTF-8"?>
<svg width="480px" height="300px" viewBox="0 0 480 300" version="1.1" xmlns="http://www.w3.org/2000/svg" xmlns:xlink="http://www.w3.org/1999/xlink">
    <!-- Generator: Sketch 50.2 (55047) - http://www.bohemiancoding.com/sketch -->
    <title>Artboard</title>
    <desc>Created with Sketch.</desc>
    <defs></defs>
    <g id="Artboard" stroke="none" stroke-width="1" fill="none" fill-rule="evenodd">
        <rect id="Frame" fill="#E6E6E6" x="0" y="0" width="480" height="300"></rect>
        <g id="Avatars" transform="translate(87.000000, 27.000000)">
            <g id="Gnome" transform="translate(61.000000, 20.000000)">
                <g id="Male">
                    <path d="M0,253 C2.33516429,223.734374 4.05983995,205.229084 5.17402698,197.484131 C5.97351877,191.926692 4.64675787,183.924821 5.19521464,178.32708 C5.71842837,172.986979 4.70144235,151.307653 13.6827706,143.874228 C23.6994819,135.583865 80.6194618,134.537463 80.6194618,114.486291 C80.6194618,110.805324 78.4441226,104.453093 75.9401945,102.846647 C67.0153846,97.1207539 60.324462,89.8423239 55.8674269,81.0113568 C49.8303707,78.763985 46.4320947,76.0075966 45.6725989,72.7421915 C43.3718102,62.8500938 42.2978902,29.0644058 49.2011355,21.569812 C62.0534321,7.61655706 111.216646,-6.24175175 123.425752,19.0934311 C130.686933,34.1611482 140.523005,63.1098002 114.964242,96.9754776 C110.276116,103.187303 109.208328,111.288966 111.760877,121.280466 C119.809897,124.361178 174.626929,124.741645 180.855069,147.259869 C184.802042,161.530393 187.656012,194.949726 189.293766,207.252892 C190.209765,214.134077 191.111843,229.383113 192,253 L168.758873,253 L14.6618619,253 L0,253 Z" id="Path-3" fill="#E1B499"></path>
                    <path d="M131.652819,40.6381616 C132.145006,46.8799362 131.905587,53.7420653 131.864769,59.9073504 C131.846375,62.6857333 131.868314,65.3225975 132.015718,67.6973931 C132.098556,69.0319703 132.140848,70.3358172 132.144297,71.6090592 C132.149281,73.448336 135.146399,77.5064211 134.994409,79.2183465 C134.831532,81.0528916 131.50828,80.5318566 131.177355,82.2210534 C130.924083,83.5138721 133.773015,86.7729062 133.427844,87.981068 C133.074118,89.2191696 129.524054,88.4042803 129.079843,89.5539211 C128.846078,90.1589141 131.434889,93.3182998 131.177355,93.8988898 C130.719155,94.9318647 127.389355,93.3596574 126.859821,94.3156733 C126.594049,94.7954968 128.733094,97.7397814 128.450299,98.2002884 C127.923308,99.0584478 124.953823,97.4089768 124.370865,98.2002884 C123.409457,99.505313 126.838623,103.101919 125.739748,104.226216 C124.91402,105.071047 119.588174,103.482763 118.693909,104.226216 C116.596375,105.970014 114.464674,111.27699 112.061809,112.468331 C110.22646,113.378297 108.173071,110.28693 106.211336,110.878397 C103.917374,111.57003 102.355711,114.701117 99.9554032,114.962134 C97.6502797,115.212801 94.5092531,112.610033 92.1708323,112.468331 C90.1628003,112.34665 88.441719,115.369939 86.4526306,114.962134 C84.6177158,114.585938 82.5118854,110.799854 80.7259674,110.182592 C78.7780158,109.509326 76.5358011,111.835566 74.6853786,110.878397 C73.6298025,110.332378 72.9262183,106.598201 71.9128409,105.960566 C70.5536029,105.105311 67.3036621,106.979466 66.0363489,105.960566 C64.5759507,104.786429 65.114756,100.692515 63.802636,99.303001 C62.9450459,98.3948264 60.2778206,99.199738 59.4934841,98.2002884 C58.8522092,97.3831366 60.0810309,94.7767059 59.4934841,93.8988898 C58.5379035,92.4712178 57.6562144,90.9635215 56.8576284,89.3764795 L55.7105903,92 C49.1851136,91.1460192 45.4007001,89.9745015 44.3573498,88.4854469 C39.8230656,82.0141816 34.4472248,79.4513748 38.3423407,82.0737414 C42.0559301,84.5738963 41.7976284,78.4012431 42.1345332,74.5112008 C42.4804868,70.5166768 40.8429393,64.900224 40.8736773,61.9834362 C41.0473092,45.5071705 42.1611528,59.4597835 41.1537004,43.0232231 C38.7353461,3.56783352 56.7680904,3.18061853 91.176874,0.975018133 C98.4898193,0.5062589 110.061891,-1.93256 119.194423,3.30542173 C132.273827,10.8071399 137.079698,26.6147595 134.189946,40.2495601 C133.964314,41.3141652 132.832575,41.1498308 131.652819,40.6381616 Z M127.096814,37.8864436 C122.092071,34.9139108 117.337821,33.3394709 112.820564,28.9398613 C108.235274,24.4739901 107.329866,18.3177125 101.39105,17.5028899 C95.3632671,16.675861 89.2959411,15.9599905 83.225742,16.0151182 C80.0590472,16.0438771 76.7847215,16.3939375 73.8459207,17.7530463 C67.3547794,20.7550078 59.2547965,18.9762851 55.2501012,25.5825001 C51.5943151,31.6131485 53.7161367,40.2232079 53.7223561,47.5787013 C53.7230564,48.4069328 51.9816522,45.0006586 50.6230529,44.5932831 C49.0588035,44.1242436 44.9256208,41.0099697 44.9844926,41.9611559 C45.0401289,42.8600675 43.57159,46.133598 44.009174,48.9885735 C45.0441861,55.7414123 46.9078016,65.5788465 47.5126209,67.2748208 C48.4051937,69.7776854 50.3026686,70.7651678 52.0586506,71.8765783 C52.0375067,71.6287638 52.0179514,71.3798581 52,71.1298621 L52.3012248,69.5411303 C51.9410794,68.4606842 51.5531315,67.2796761 51.137381,65.998106 L52.5704049,68.1214102 L52.767047,67.0842727 C58.4507918,79.6047711 60.4683975,89.3257655 72.5522332,94.0716206 C95.132777,102.939996 126.363983,96.1910653 128.450299,61.0284525 C128.732982,56.2641322 127.70395,46.0589324 127.096814,37.8864436 Z" id="Combined-Shape" fill="#000000"></path>
                    <polygon id="Path-6" fill="#000000" opacity="0.5" points="30 252 37 210 45 252"></polygon>
                    <polygon id="Path-6" fill="#000000" opacity="0.5" transform="translate(159.500000, 231.000000) scale(-1, 1) translate(-159.500000, -231.000000) " points="152 252 159 210 167 252"></polygon>
                    <path d="M98.7775159,215.27123 C99.3208312,216.659142 100.542883,217.638452 102.507182,218.677369 C102.651535,218.753716 102.80118,218.831939 103.00256,218.936533 C103.255615,219.067805 103.396154,219.140716 103.51331,219.201738 C103.937361,219.422609 104.254677,219.591639 104.569245,219.766101 C105.767394,220.430606 110.752361,220.637055 120.56024,220.410212 C122.937847,220.355221 127.223554,220.038994 133.213011,219.506424 C133.957318,219.440241 134.72651,219.370845 135.527259,219.29771 C137.474924,219.119823 145.845922,218.329485 146.958486,218.236791 L147.041514,219.233339 C145.935421,219.325493 137.570948,220.115215 135.618213,220.293565 C134.816698,220.36677 134.046715,220.436238 133.30158,220.502494 C127.289292,221.037094 122.990815,221.354263 120.583362,221.409944 C110.463451,221.644005 105.524631,221.439466 104.084235,220.64061 C103.778668,220.47114 103.468332,220.305828 103.051357,220.088642 C102.935049,220.028062 102.795409,219.955617 102.541633,219.823971 C102.338236,219.718329 102.186602,219.639067 102.039649,219.561344 C100.471862,218.732143 99.3160406,217.901287 98.5573008,216.901202 L99.4990263,231.968811 L98.5009737,232.031189 L97.5821455,217.329938 C96.8349587,218.144441 95.7968232,218.853495 94.4584804,219.561344 C94.3115269,219.639067 94.1598928,219.718329 93.9564961,219.823971 C93.7027196,219.955617 93.5630798,220.028062 93.4467722,220.088642 C93.0297967,220.305828 92.7194615,220.47114 92.4138942,220.64061 C90.973498,221.439466 86.0346782,221.644005 75.9147666,221.409944 C73.5073138,221.354263 69.2088367,221.037094 63.1965491,220.502494 C62.4514137,220.436238 61.6814307,220.36677 60.8799158,220.293565 C58.9271811,220.115215 50.5627082,219.325493 49.4566154,219.233339 L49.5396427,218.236791 C50.6522073,218.329485 59.0232049,219.119823 60.9708705,219.29771 C61.7716187,219.370845 62.5408111,219.440241 63.2851177,219.506424 C69.2745752,220.038994 73.5602823,220.355221 75.9378891,220.410212 C85.7457683,220.637055 90.7307346,220.430606 91.9288841,219.766101 C92.2434525,219.591639 92.5607683,219.422609 92.9848193,219.201738 C93.1019755,219.140716 93.2425136,219.067805 93.4955694,218.936533 C93.6969486,218.831939 93.8465944,218.753716 93.9909466,218.677369 C95.9552459,217.638452 97.1772979,216.659142 97.7206132,215.27123 C97.3599802,214.090733 97.3710871,212.669683 97.7400683,210.851964 C97.6246842,210.322581 97.4776156,209.753429 97.2995833,209.139193 L98.2360618,208.867761 C98.2367329,208.865443 98.2374045,208.863125 98.2380765,208.860807 L98.2490645,208.863992 L98.2600526,208.860807 C98.2607246,208.863125 98.2613962,208.865443 98.2620673,208.867761 L99.1985458,209.139193 C99.0205135,209.753429 98.8734449,210.322581 98.7580607,210.851964 C99.127042,212.669683 99.1381489,214.090733 98.7775159,215.27123 Z" id="Combined-Shape" fill="#000000" fill-rule="nonzero" opacity="0.3"></path>
                </g>
            </g>
        </g>
    </g>
</svg>