<?xml version="1.0" encoding="UTF-8"?>
<svg width="480px" height="300px" viewBox="0 0 480 300" version="1.1" xmlns="http://www.w3.org/2000/svg" xmlns:xlink="http://www.w3.org/1999/xlink">
    <!-- Generator: Sketch 50.2 (55047) - http://www.bohemiancoding.com/sketch -->
    <title>Artboard</title>
    <desc>Created with Sketch.</desc>
    <defs></defs>
    <g id="Artboard" stroke="none" stroke-width="1" fill="none" fill-rule="evenodd">
        <rect id="Frame" fill="#E6E6E6" x="0" y="0" width="480" height="300"></rect>
        <g id="Avatars" transform="translate(87.000000, 27.000000)">
            <g id="Gnome" transform="translate(61.000000, 20.000000)">
                <g id="Female" transform="translate(8.000000, 0.000000)">
                    <path d="M3.96544903,252 C6.31517625,222.585117 8.05060761,203.985449 9.17174312,196.200997 C9.97622082,190.615215 8.64118576,184.841139 9.19306291,179.214849 C10.3067094,167.861422 25.4307145,133.096719 30.5581696,130.642323 C35.3999606,128.324667 58.0328346,124.975577 61.5692433,120.518082 C64.3596939,117.000837 63.8290161,108.478307 59.9772099,94.950494 C47.9694752,78.3664589 41.5834918,68.4334119 40.8192594,65.1513531 C39.6888902,60.2968892 37.3064799,45.687244 37.0745397,32.4861099 C36.8314373,18.6496739 40.7914472,23.4674984 44.346204,19.6125908 C57.2786522,5.58817338 94.3525187,-8.27563883 106.637765,17.1887549 C111.290552,26.8328746 114.916349,31.130682 116.539569,52.1792608 C117.465359,64.1841429 114.59205,81.1350202 111.956948,84.9023413 C110.831176,86.5118209 108.22014,90.3113255 106.637765,90.3113255 C105.582849,90.3113255 105.582849,92.2358159 106.637765,96.0847967 L109.716789,116.20047 C117.816006,119.296894 128.984935,125.765841 137.481392,126.71357 C172.702935,130.642323 172.702935,193.653666 174.350903,206.019579 C175.272614,212.935858 177.822313,228.262665 182,252 L161.717552,252 L0,252 L3.96544903,252 Z" id="Path-3" fill="#E1B499"></path>
                    <polygon id="Path-6" fill="#000000" opacity="0.5" points="24.1484375 252 29 210 40.40625 252"></polygon>
                    <polygon id="Path-6" fill="#000000" opacity="0.5" transform="translate(151.800293, 230.801758) scale(-1, 1) translate(-151.800293, -230.801758) " points="143.600586 253 155.50293 208.603516 160 253"></polygon>
                    <path d="M111.408478,16.8496442 C114.889713,21.0212834 113.764027,24.1108363 117.538926,35.2146747 C121.053383,45.5524242 118.340145,44.8900113 122.888786,64.407087 C129.619897,93.2885899 133.333079,107.984096 136.307284,114.822233 C137.146668,116.752101 139.710907,121.328463 144,128.551318 L127.536314,126.626548 C124.958834,125.933939 123.038995,125.933939 121.776798,126.626548 C121.117344,126.988412 119.90489,126.083168 119.201159,133.232083 C118.772351,137.588172 118.287598,148.510811 117.746901,166 L112.277962,121.21695 C105.746353,119.136348 102.444063,117.600995 102.37109,116.610892 C102.058435,112.36875 100.636081,99.1247205 100.063239,95.427593 C99.3433472,90.7814108 104.98362,88.3435537 106.12504,84.616692 C108.548305,76.7044612 113.884413,61.8095634 112.505266,46.2833776 C111.167858,31.2270772 106.576218,37.3139468 106.13545,24.6344109 C106.036114,21.7768249 105.570763,19.7601738 105.044156,18.2466033 C94.3240428,17.034143 93.4225932,14.898268 84.066535,16.8478237 C79.0917212,17.8844437 52.9175758,16.697561 49.8757576,30.2460752 C48.9450685,34.3914426 49.8928069,41.779144 47.5071786,40.1417663 C46.2344049,39.2681971 44.7304335,37.2947925 43.3884469,36.4582337 C41.8156619,35.4778013 40.446967,35.5971546 39.6581472,33.9651802 C38.1962632,30.9407157 38.7934062,42.9648021 39.3194599,46.3506816 C39.7898304,49.3781631 40.5936956,50.2598974 40.9726224,53.4834568 C41.4298755,57.3733443 45.5352102,59.0328434 46.3885651,59.5933043 C48.7159346,61.1218589 48.5985526,54.2454559 49.8426585,60.3941639 C52.4193173,73.1287096 59.2896821,72.6173979 62.8584408,82.5600263 C63.5249852,84.4170316 68.4763636,88.1188703 70.1682685,91.929058 C73.2019821,98.7610133 73.3519289,107.359746 73.5207076,116.378194 C73.5702516,119.025505 63.7108565,120.118691 64.1247395,123.979361 C66.3454286,144.693787 60.3183047,135.009523 57.8146598,157.237238 C56.4182413,169.634841 58.1368888,182.543045 55.3390667,194.615331 C53.7078546,201.653827 49.6640003,212.247484 50.0942471,220.853091 C50.7746579,234.46237 47.5469287,243.661424 43.1965465,247.162162 C39.407642,250.211081 28.6843939,252.320966 37.9814129,245.560456 L39.9787484,237.09508 C41.578269,228.567274 40.6680016,221.916002 41.8080646,213.289682 C42.6603319,206.840977 45.3461267,200.777645 45.8177241,194.28038 C45.907408,193.044791 43.6268969,194.871672 43.0689262,195.918609 C39.4998101,202.615449 35.8762397,209.457352 33.7197743,216.980127 C31.7006324,224.023852 31.5719686,246.318417 30.719433,238.999503 C28.9435455,223.753725 28.23561,210.264412 28.922806,194.822558 C29.0659317,191.606408 30.9856104,186.890187 32.0730245,183.31855 C32.5411554,181.780964 34.5086597,179.233799 33.3839068,179.126609 C30.9043171,178.890303 28.1608998,184.138297 25.6387264,186.129164 C12.7186565,196.327565 1.8375635,222.657534 17.7819799,180.299611 C19.3670978,176.088588 23.2328813,171.470389 23.9867945,168.423662 C24.2033311,167.54859 26.85279,165.582062 25.8055734,165.295789 C20.3102461,163.793557 13.7785033,181.390644 10.6020652,185.341126 C1.61540145,196.517686 3.57016695,202.852567 8.4636848,167.61013 L12.214114,154.581402 C19.1572872,134.380599 32.1189317,118.112658 36.6148915,96.6545655 C39.299614,83.8410564 37.2446892,72.9515828 36.9283537,59.7173539 C35.8961792,16.5352492 35.7246889,2.59826739 75.0921251,1.11278209 C80.7123061,0.900710975 96.8808096,-1.32855939 105.735772,4.49216761 C106.450951,4.96228387 110.372172,13.0731567 111.408478,16.8496442 Z" id="Combined-Shape" fill="#000000"></path>
                    <path d="M45.7572753,70.4371324 L46.2427247,69.5628676 C48.2386488,70.6711365 50.6103691,72.5011541 53.8146068,75.3184029 C55.609238,76.8962891 62.2904084,83.0225695 62.8900182,83.5635668 C66.8978123,87.1795948 70.050369,89.8249147 73.1043497,92.0474324 C78.5819122,96.0336983 83.2497158,98.235875 87.3108123,98.4813822 C93.4127102,98.8502627 98.3361088,94.5012585 105.864048,84.0971174 C113.126686,74.0596402 113.122053,74.0657036 115.670953,71.837865 L116.329047,72.5908 C113.868519,74.7413989 113.853293,74.7613257 106.674215,84.6833158 C98.9403009,95.3721293 93.8394468,99.877886 87.2504691,99.4795599 C82.9572257,99.2200186 78.1340366,96.9445342 72.5159285,92.855987 C69.4281165,90.6088488 66.251691,87.9435005 62.2201314,84.3060301 C61.6136841,83.7588636 54.9395958,77.6390772 53.1543066,76.0694046 C50.0001843,73.2962186 47.6744066,71.5016503 45.7572753,70.4371324 Z" id="Path-10" fill="#000000" fill-rule="nonzero" opacity="0.3"></path>
                    <path d="M35.4357291,209.995627 L36.0900482,209.239408 C37.547028,210.500062 38.3860526,211.734573 39.6071254,214.080247 C39.6952647,214.249786 39.6952647,214.249786 39.7828848,214.418707 C41.346884,217.433328 42.2830508,218.696798 44.3226721,219.989443 C57.1085844,228.092732 76.0555569,224.512108 88.6718153,213.535847 L89.3281847,214.290286 C76.4063233,225.532425 56.9903075,229.201689 43.7873586,220.834096 C41.5592851,219.422017 40.53454,218.039 38.8952341,214.879225 C38.8076466,214.710366 38.8076466,214.710366 38.7201134,214.541993 C37.552845,212.299678 36.7737609,211.15336 35.4357291,209.995627 Z" id="Path-14" fill="#000000" fill-rule="nonzero" opacity="0.3"></path>
                    <path d="M97.6728404,209.995627 L98.3271596,209.239408 C99.6502759,210.384236 100.411803,211.504721 101.51849,213.630659 C101.598215,213.784014 101.598215,213.784014 101.677444,213.936758 C103.088025,216.655664 103.930277,217.792385 105.765502,218.95549 C117.306713,226.269928 134.41634,223.036528 145.809484,213.124387 L146.465853,213.878827 C134.767107,224.056845 117.188436,227.378885 105.230189,219.800143 C103.206511,218.517603 102.275681,217.261336 100.789793,214.397275 C100.710597,214.244595 100.710597,214.244595 100.631478,214.092405 C99.5785958,212.069825 98.8770089,211.037535 97.6728404,209.995627 Z" id="Path-14" fill="#000000" fill-rule="nonzero" opacity="0.3" transform="translate(122.069347, 216.590116) scale(-1, 1) translate(-122.069347, -216.590116) "></path>
                </g>
            </g>
        </g>
    </g>
</svg>