<?xml version="1.0" encoding="UTF-8"?>
<svg width="480px" height="300px" viewBox="0 0 480 300" version="1.1" xmlns="http://www.w3.org/2000/svg" xmlns:xlink="http://www.w3.org/1999/xlink">
    <!-- Generator: Sketch 50.2 (55047) - http://www.bohemiancoding.com/sketch -->
    <title>Artboard</title>
    <desc>Created with Sketch.</desc>
    <defs></defs>
    <g id="Artboard" stroke="none" stroke-width="1" fill="none" fill-rule="evenodd">
        <rect id="Frame" fill="#E6E6E6" x="0" y="0" width="480" height="300"></rect>
        <g id="Avatars" transform="translate(87.000000, 27.000000)">
            <g id="Elf-Half-elf" transform="translate(34.000000, 10.000000)">
                <g id="Female" transform="translate(16.000000, 0.000000)">
                    <path d="M4.21126761,262.639948 C6.69707589,234.388685 8.53301226,216.5248 9.71907672,209.048291 C10.5701446,203.683476 9.15779289,198.137817 9.74163122,192.734097 C10.9197729,181.829798 18.1264362,156.944257 23.6554373,153.240052 C28.6012644,149.92655 43.84628,148.440348 49.2706843,146.083045 C54.3928806,143.857074 78.336505,140.640469 82.0777196,136.359309 C85.0297752,132.981201 84.468364,124.795814 80.3934859,111.803146 C70.4713805,102.155945 65.106082,95.7562321 64.2975902,92.6040079 C63.1017573,87.9415811 60.0558016,60.8136909 57.3723041,47.5139101 C54.6888067,34.2141292 64.384346,19.5355863 68.1449714,15.8331745 C81.8263837,2.36354749 118.433606,-5.04722805 131.430335,19.4098226 C136.352581,28.6724317 138.514347,50.5079744 140.231573,70.7238948 C141.210979,82.2538771 138.171266,98.5341966 135.383555,102.152487 C134.192586,103.698297 131.430335,107.347497 129.75632,107.347497 C128.64031,107.347497 128.64031,109.195857 129.75632,112.892577 L133.013661,132.212496 C141.581932,135.186429 149.182495,141.176365 158.154557,142.30971 C188.025974,146.083045 177.603438,144.524605 195.691241,162.743693 C205.658522,172.78332 210.226695,206.60173 211.970102,218.478461 C212.945193,225.12114 215.642555,239.841636 220.062186,262.639948 L188.025974,262.639948 L0.0161653011,262.639948 L4.21126761,262.639948 Z" id="Path-3" fill="#E1B499"></path>
                    <polygon id="Path-6" fill="#000000" opacity="0.5" points="40.3318662 262.106263 48.181338 221.631352 48.181338 262.106263"></polygon>
                    <polygon id="Path-6" fill="#000000" opacity="0.5" transform="translate(181.192342, 241.660220) scale(-1, 1) translate(-181.192342, -241.660220) " points="177.267606 261.897675 185.117077 221.422764 185.117077 261.897675"></polygon>
                    <path d="M114.386401,234.683298 C122.437881,255.543766 130.934072,261.436542 148.448894,261.436542 C171.061085,261.436542 182.972339,243.026841 173.314132,219.914881 C168.939721,213.803443 165.599153,207.861399 163.293532,202.087872 L164.222219,201.717006 C166.50213,207.426153 169.814347,213.313607 174.159982,219.378488 C184.185947,243.265281 171.799561,262.436542 148.448894,262.436542 C130.26157,262.436542 121.415613,256.11341 113.114434,234.155131 C111.809642,239.664391 110.793313,243.247559 110.054392,244.93122 C105.808807,254.604947 92.2190936,262.044819 78.2682455,262.613606 C62.6098373,263.252012 50.3480579,255.418404 46.4797255,239.695157 C45.2251258,234.595703 45.110541,230.626212 45.8975277,226.169673 C46.1156501,224.934492 46.3977904,223.663082 46.8069298,222.017149 C46.9701719,221.360441 47.7373535,218.371456 47.9491461,217.519025 C48.1593801,216.672867 48.05947,214.956569 47.6321175,210.485291 C47.1893888,205.852512 47.0900479,204.11865 47.3347766,203.054929 L48.3093172,203.27914 C48.1019965,204.180266 48.2035898,205.95344 48.6212396,210.323794 C49.0762803,215.084771 49.1727244,216.741527 48.9196399,217.760151 C48.7066108,218.617559 47.9394106,221.606616 47.7773966,222.258384 C47.373324,223.883933 47.0957791,225.134635 46.8822909,226.343574 C46.1192541,230.664489 46.2297815,234.493421 47.4507691,239.456254 C51.1972196,254.6841 63.015897,262.234626 78.2275085,261.614436 C91.8274147,261.059957 105.064166,253.813319 109.138699,244.529342 C109.812334,242.994437 110.755565,239.707106 111.958858,234.690265 L111.852034,234.677979 C112.567467,228.457615 111.710907,218.586496 110.051651,214.058204 L110.990602,213.714154 C112.409214,217.585701 113.249622,225.101803 113.08605,231.18779 L113.208745,231.524004 C113.004171,225.381098 113.849231,217.657312 115.294083,213.714154 L116.233034,214.058204 C114.573778,218.586496 113.717219,228.457615 114.432651,234.677979 L114.386401,234.683298 Z" id="Combined-Shape" fill="#000000" fill-rule="nonzero" opacity="0.3"></path>
                    <path d="M130.749504,8.08559981 C139.069068,14.8715336 134.038452,21.2825932 140.359601,33.7513338 C145.397158,43.6881352 143.046234,54.474584 149.566172,73.2346926 C159.214422,100.99603 154.44057,103.227484 156.087662,123.867696 C156.10123,124.037723 156.845928,131.746756 161.1091,138.319677 C162.312257,140.174695 164.962336,142.0851 169.059336,144.050892 L154.689673,142.200775 C150.99516,141.535029 148.243298,141.535029 146.434089,142.200775 C145.48884,142.548604 143.75093,141.678469 142.742216,148.550114 C142.12757,152.737253 141.432734,163.236259 140.657709,180.047132 L132.818633,133.268293 C129.590192,132.097874 127.923672,131.036814 127.819075,130.085112 C126.479407,117.895903 126.479407,117.895903 127.819075,107.54751 C129.949316,91.0922614 136.052433,76.5232675 133.144446,54.5696773 C131.227431,40.0973336 116.365357,35.7129142 115.733569,23.5251524 C115.555979,20.0992855 115.918287,17.1473543 116.705595,14.5953649 C113.559613,14.5850881 111.154694,14.9542847 105.429919,16.008734 C100.159495,16.9794961 72.4385514,24.4139932 69.2832128,37.4243852 C68.3177905,41.4051062 69.0131697,53.5393114 66.8154363,50.194178 C63.7588405,45.5417847 56.1485072,39.8457702 57.1801183,42.7936835 C58.2117295,45.7415969 59.1868396,53.9746249 59.9623486,59.7196326 C61.8452728,73.6684262 67.5078493,70.0238921 69.3547399,78.1120019 C72.1535926,90.3690508 73.5023319,91.4933365 77.3387789,101.071259 C86.479514,123.891659 81.1256308,109.331996 84.8319695,139.32037 C87.2948541,159.247827 80.8526411,149.905511 78.3132187,171.263328 C76.896845,183.17574 78.7866756,195.595287 75.8824118,207.187629 C74.1891409,213.946303 69.9557553,224.11053 70.4568317,232.386635 C71.2492556,245.474825 67.8741158,254.302458 63.2787328,257.645599 C59.2764482,260.557261 47.9153627,262.52999 57.7397146,256.07849 L59.8138337,247.949847 C61.4657428,239.75911 60.465775,233.359502 61.6299137,225.071657 C62.5001791,218.875983 65.3169175,213.06037 65.7832273,206.816026 C65.8719057,205.628535 63.46292,207.373119 62.8766386,208.376793 C59.1264306,214.796893 55.3192285,221.356182 53.0714443,228.577733 C50.9667989,235.339416 50.9464062,256.773868 50.004188,249.732656 C48.0414856,235.065349 47.2204962,222.092357 47.868888,207.249355 C48.0039317,204.157931 50.0152119,199.633511 51.1498286,196.205219 C51.6382802,194.729343 53.7115708,192.290612 52.5182057,192.181699 C49.8873558,191.941595 47.0052642,196.973 44.3408478,198.873991 C30.692125,208.611993 19.2897233,233.870314 35.978375,193.228265 C37.6374812,189.187827 41.7131274,184.76778 42.4967969,181.842427 C42.72188,181.002216 45.5214101,179.125288 44.4093404,178.8446 C38.573693,177.371672 31.7383435,194.256399 28.3902764,198.038057 C18.9180462,208.736986 21.0240634,214.837836 26.0302113,180.97945 L29.9397419,168.472495 C37.1978619,149.086565 50.8590794,133.513217 55.51537,112.905727 C58.2958326,100.600147 56.0598866,90.1197595 55.6555192,77.3940562 C54.3361045,35.8712248 54.0889251,2.05684331 95.8305938,0.833552706 C101.789725,0.658913075 118.924915,-1.40025382 128.345957,4.2421825 C128.719678,4.46601124 129.730225,6.11556277 130.749504,8.08559981 Z" id="Combined-Shape" fill="#000000"></path>
                    <path d="M75.1485277,97.1786036 L75.9487434,96.5788914 C76.3809345,97.1555781 76.7719401,97.7927127 77.3313956,98.7924823 C77.4257057,98.9610184 77.7973656,99.6311257 77.8896081,99.7960297 C79.1386395,102.028952 79.9928934,103.172223 81.1720979,103.921584 C82.9623144,105.059231 84.6954301,106.22931 86.7526575,107.671011 C87.2213148,107.999446 90.5388324,110.348703 91.4062169,110.948295 C94.6547003,113.193855 96.5388397,114.228231 97.9960895,114.455015 C107.002692,115.85667 111.220518,115.643864 114.270538,113.497023 C118.182257,110.743652 128.5341,97.3063875 130.110161,93.9960882 L131.013051,94.4259614 C129.368302,97.8805285 118.912843,111.452292 114.846127,114.314762 C111.514929,116.659517 107.092322,116.882656 97.8423153,115.443122 C96.1800699,115.184434 94.2153903,114.105843 90.8375873,111.770889 C89.9646218,111.167439 86.6432855,108.815477 86.1787566,108.489936 C84.132866,107.05618 82.4115423,105.894062 80.6357532,104.765583 C79.2724185,103.899211 78.3438311,102.656458 77.016868,100.284215 C76.9234338,100.11718 76.5518266,99.447168 76.458735,99.2808095 C75.9194337,98.3170564 75.5473866,97.7108142 75.1485277,97.1786036 Z" id="Path-10" fill="#000000" fill-rule="nonzero" opacity="0.3"></path>
                </g>
            </g>
        </g>
    </g>
</svg>