<?xml version="1.0" encoding="UTF-8"?>
<svg width="480px" height="300px" viewBox="0 0 480 300" version="1.1" xmlns="http://www.w3.org/2000/svg" xmlns:xlink="http://www.w3.org/1999/xlink">
    <!-- Generator: Sketch 50.2 (55047) - http://www.bohemiancoding.com/sketch -->
    <title>Avatars</title>
    <desc>Created with Sketch.</desc>
    <defs></defs>
    <g id="Avatars" stroke="none" stroke-width="1" fill="none" fill-rule="evenodd">
        <rect id="Frame" fill="#E6E6E6" x="0" y="0" width="480" height="300"></rect>
        <g id="Half-Orc" transform="translate(120.000000, 29.000000)">
            <g id="Male" transform="translate(0.000000, 3.000000)">
                <path d="M0,267.722492 C2.66328604,238.752289 4.63030165,220.433802 5.90104683,212.767031 C6.81287788,207.265692 5.29968937,201.578906 5.92521164,196.037672 C7.18746844,184.85588 47.2919948,161.571359 53.2157467,157.772889 C58.514688,154.375065 63.6814761,150.616733 69.4931633,148.199441 C74.981066,145.916823 82.7675122,148.204136 86.7758361,143.814028 C89.9386578,140.349954 91.0874288,134.733674 90.2221492,126.965188 C82.7892929,105.077042 78.6397571,92.516748 77.773542,89.2843057 C76.481137,84.4614572 73.1282351,69.2936985 73.4344645,55.3554728 C73.7499988,40.9937279 77.8023504,27.8704592 81.7978851,24.1054761 C96.4561008,10.293073 152.527402,-3.42534242 166.452051,21.6540931 C174.733525,36.5697083 182.027176,87.9891697 174.764998,102.65888 C164.658517,123.074127 157.850116,120.839817 164.658517,123.101577 L165.915087,133.975913 C175.095102,137.025526 177.614949,133.650397 187.267619,134.275688 C203.818131,135.347815 200.790623,135.130007 217.919022,143.872554 C235.870502,153.035211 256.114343,154.164706 263.21762,176.455618 C267.719195,190.582087 262.040853,210.25821 263.908733,222.437181 C264.953443,229.248903 265.982275,244.344007 266.995229,267.722492 L218.15508,267.722492 L16.7220492,267.722492 L0,267.722492 Z" id="body" fill="{skin-color}"></path>
                <polygon id="armpit-l" fill="#000000" opacity="0.5" points="62.1494792 267.175226 70.559375 225.670306 70.559375 267.175226"></polygon>
                <polygon id="armpit-r" fill="#000000" opacity="0.5" transform="translate(215.254948, 246.300577) scale(-1, 1) translate(-215.254948, -246.300577) " points="211.05 267.053037 219.459896 225.548117 219.459896 267.053037"></polygon>
                <path d="M144.459028,216.454621 C144.032844,213.968646 143.669166,211.926142 143.279432,209.851908 L144.262234,209.667247 C144.722218,212.115361 145.145774,214.518084 145.6776,217.651673 C145.820792,218.495378 146.301613,221.347852 146.303511,221.359083 C146.546178,222.79521 146.728059,223.858377 146.905705,224.873436 C149.234046,238.177435 151.309656,244.14725 155.843185,248.251667 C161.125491,253.033987 169.865678,254.419885 184.764191,252.57059 C186.16753,252.396399 187.47074,252.330004 190.427828,252.24204 C191.659648,252.205397 192.105722,252.191157 192.742765,252.166111 C200.804991,251.849143 206.491881,252.566448 206.926355,248.808279 L206.944952,248.647421 L208.809557,242.427662 C209.573539,235.750922 209.701072,230.297272 209.623323,218.112171 C209.58404,211.955617 209.587277,209.219697 209.669023,205.802667 L210.668737,205.826583 C210.587313,209.230145 210.584084,211.959343 210.623302,218.105791 C210.701934,230.429056 210.571075,235.899025 209.784452,242.703244 L209.765856,242.864102 L207.899151,249.086154 C207.300577,253.450869 201.236566,252.832948 192.782049,253.165339 C192.140651,253.190556 191.692736,253.204855 190.457562,253.241598 C187.533545,253.328578 186.248159,253.394065 184.887372,253.562974 C169.728126,255.444633 160.720572,254.016339 155.172034,248.992987 C151.708813,245.85757 149.639543,241.763273 147.857179,234.552383 C147.857279,237.550826 147.541583,240.658545 146.88801,244.109133 C146.011956,248.734331 141.52196,252.482276 134.563942,255.317687 C129.339253,257.446761 122.864835,258.921025 118.454918,259.238543 C116.339322,259.390868 114.212881,259.559513 111.868715,259.758103 C110.373483,259.884775 103.088018,260.529714 101.234035,260.68117 C97.6029945,260.977799 94.9391336,261.138987 92.588888,261.185902 C87.0114581,261.297238 83.2108988,260.730932 80.2444102,259.198151 C74.065874,256.005709 71.3388766,248.564088 69.7344043,231.429248 L70.7300489,231.336018 C72.3043761,248.148925 74.9357363,255.329565 80.7034528,258.309737 C83.4914426,259.750288 87.1431271,260.29441 92.5689301,260.186101 C94.8946515,260.139675 97.5402831,259.979591 101.152614,259.68449 C103.002479,259.53337 110.285861,258.888616 111.784301,258.761672 C114.132405,258.562749 116.262949,258.393778 118.383103,258.241125 C122.689841,257.931036 129.06113,256.480256 134.186569,254.391625 C140.860931,251.671805 145.109519,248.125371 145.905479,243.923033 C147.265275,236.743882 147.135476,231.106919 145.723487,224.778606 C145.002061,221.545291 141.158476,208.870066 141.069919,208.595589 L142.031581,208.322598 C141.980172,208.1415 143.225767,212.238028 144.459028,216.454621 Z" id="breast" fill="#000000" fill-rule="nonzero" opacity="0.3"></path>
                <path d="M90.6310772,95.6652064 L91.580812,95.3521511 C93.2720727,100.48303 95.3838965,103.467595 100.354688,108.78918 C100.703587,109.162498 100.892372,109.364515 101.053395,109.53715 C103.701268,112.375965 105.148246,114.091617 106.60797,116.292424 C108.279872,118.813128 113.111627,122.940697 118.533927,127.037007 C120.219047,128.310041 121.801023,129.066206 123.501203,129.466235 C125.081602,129.838082 126.315552,129.897805 129.501673,129.865751 C132.159599,129.839012 133.522217,129.865948 135.365841,130.037562 C142.24447,130.677859 147.70415,128.97545 155.10133,124.278789 C155.390674,124.095077 156.978297,122.102876 159.751351,118.477982 C159.798152,118.416801 159.798152,118.416801 159.844949,118.35561 C164.506189,112.260398 164.263643,112.574402 164.609095,112.261139 L165.280847,113.001915 C165.011881,113.245819 164.973397,113.295641 160.639295,118.963076 C160.592448,119.024331 160.592448,119.024331 160.545595,119.085581 C157.486177,123.084804 156.091901,124.834388 155.637342,125.122999 C148.068049,129.92894 142.399163,131.696582 135.273157,131.033257 C133.472993,130.865689 132.137354,130.839286 129.511733,130.865701 C126.244009,130.898575 124.958137,130.836339 123.272171,130.439654 C121.434211,130.007207 119.725483,129.190456 117.931145,127.834912 C112.395625,123.65307 107.5374,119.502889 105.774615,116.845161 C104.353014,114.701833 102.935076,113.020613 100.322123,110.219235 C100.161478,110.047006 99.9730911,109.845415 99.6239058,109.47179 C94.5621044,104.052773 92.3786822,100.967021 90.6310772,95.6652064 Z" id="jaw" fill="#000000" fill-rule="nonzero" opacity="0.3"></path>
                <path d="M91.5910748,103.700083 C91.4899989,105.298645 91.3611815,107.073161 91.2046224,109.023634 L91.7934896,125.191831 L92.6876953,132.820077 L91.1784505,144.111459 C79.2876953,149.362668 70.6640625,151.988273 65.3075521,151.988273 C59.6116748,151.988273 68.1229911,114.748355 68.1924561,109.023634 C68.3912516,92.6405532 73.0350575,69.8198741 71.8815999,53.4762744 C69.1127654,14.2440339 80.0423177,1.28583453 123.208464,1.28583453 C131.587841,1.28583453 155.385598,1.51211395 163.408464,11.9773552 C174.103974,25.9288662 179.976169,43.8520907 177.275637,57.2924569 C177.125151,66.4498542 177.745459,76.4471651 178.136154,86.0665301 C178.341172,86.7182651 178.4919,87.3551463 178.531185,87.9752908 C178.621459,89.4003181 178.667546,90.7925324 178.671306,92.1520677 C178.676736,94.1160003 179.942873,98.4491196 179.77724,100.27707 C179.707416,101.047663 179.10462,101.429021 178.377029,101.717935 C178.301515,104.039167 178.152881,106.358078 177.948537,108.673769 C178.08569,109.054672 178.142602,109.384897 178.070062,109.633679 C178.027702,109.778953 177.943281,109.897756 177.825912,109.99578 C176.974155,118.760349 175.371009,127.476313 173.961957,136.095 C173.323789,139.998452 166.212826,136.199995 163.900466,133.249747 C162.6786,131.690816 161.900581,129.598129 161.563772,127.392516 C159.422136,129.565508 157.233209,134.591814 154.786232,135.780551 C152.786144,136.75219 150.548445,133.451307 148.410626,134.08286 C145.910761,134.821368 144.208924,138.164662 141.593167,138.44337 C139.081138,138.711026 135.658176,135.931857 133.109861,135.780551 C130.92159,135.650623 129.046026,138.878814 126.878399,138.44337 C124.878784,138.041677 122.583936,133.998995 120.637716,133.339898 C118.514918,132.621001 116.071444,135.104901 114.05493,134.08286 C112.904606,133.499835 112.137869,129.512576 111.033532,128.831727 C109.55229,127.918507 106.010637,129.919682 104.629571,128.831727 C103.038089,127.578013 103.625257,123.206637 102.195363,121.722949 C101.260796,120.753224 98.3541631,121.612688 97.4994254,120.545501 C96.8005902,119.672967 98.1397097,116.889887 97.4994254,115.952578 C95.0343813,112.34401 93.020547,108.256642 91.5910748,103.700083 Z M90.0692974,87.8370504 L90.1692297,87.3206166 C96.363142,100.689684 98.561846,111.069513 111.730315,116.137015 C136.337667,125.606439 170.372156,118.400104 172.645737,80.854367 C173.114545,73.1125216 170.272818,51.9158939 170.779025,45.3900263 C170.107699,43.9934882 169.539477,42.9977605 169.181543,42.7842083 C162.487438,38.7903467 165.277505,32.1653916 159.325651,27.1309493 C154.075837,22.6903358 155.231108,25.1111833 148.431608,24.3009692 C141.530248,23.4786177 135.621766,27.5801622 128.671842,27.6349781 C125.046214,27.6635744 108.276849,22.9495472 104.912142,24.3009692 C97.4802714,27.2859524 95.7635266,36.2153563 91.1784505,42.7842083 C86.9928493,48.7807489 88.2684326,52.8123985 88.2755534,60.1262912 C88.2763552,60.9498385 87.6365234,56.4933561 82.2669271,55.5305738 C76.8973307,54.5677914 73.5985114,55.0322473 73.6340251,55.5305738 C73.7010968,56.4717212 78.3435923,60.0054231 79.5614095,63.6490381 C80.4820031,66.4033832 81.3848387,69.7625975 82.2669271,73.0319385 C83.9474065,79.2604078 83.7553385,82.2032007 84.1992839,83.2843431 C85.0369943,85.3244237 87.1218099,85.857981 88.2755534,85.5912024 C88.776582,85.4753501 89.4461309,86.4200663 90.0692974,87.8370504 Z" id="hair" fill="{hair-color}"></path>
                <path d="M91.2938209,125.21003 L90.7062254,108.983629 C90.8625684,107.035848 90.9911834,105.26412 91.0920713,103.668531 L91.2620148,100.980797 L92.0681492,103.550416 C93.4534263,107.9661 95.419741,112.021713 97.9122909,115.670546 C98.2870161,116.219104 98.2554056,116.788172 97.9780832,118.314983 C97.7570178,119.532037 97.7328578,120.037128 97.8896834,120.232933 C98.1197754,120.520215 98.6205332,120.620674 99.8947582,120.673558 C101.452966,120.738201 102.044524,120.845905 102.555382,121.375982 C103.231403,122.077436 103.467807,122.926972 103.818959,125.118591 C104.153331,127.20548 104.395982,128.011205 104.93898,128.438959 C105.357237,128.768447 106.061448,128.736582 107.783674,128.389282 C109.767606,127.989168 110.536998,127.938214 111.295932,128.406114 C111.867209,128.75832 112.211972,129.409161 112.899015,131.08331 C113.613854,132.827407 113.958559,133.473462 114.280972,133.636872 C114.987455,133.994943 115.648633,133.888574 117.290674,133.299585 C119.023407,132.689068 119.880825,132.555679 120.798096,132.866317 C121.692388,133.169174 122.34909,133.764103 123.986592,135.521544 C124.157889,135.705388 124.259131,135.813659 124.367317,135.928372 C125.583629,137.218061 126.330947,137.823406 126.976874,137.953163 C127.679496,138.09431 128.347598,137.794764 129.58963,136.896606 C131.37102,135.600056 132.104365,135.219969 133.139496,135.28143 C134.208812,135.344921 135.091445,135.673558 137.244389,136.663559 C139.530895,137.711638 140.580866,138.0484 141.540192,137.946184 C142.561613,137.837352 143.324338,137.325172 144.9251,135.869483 C146.487179,134.448837 147.211824,133.915648 148.268969,133.603347 C148.978119,133.39385 149.699402,133.51159 150.531727,133.886939 C150.885618,134.046531 151.176382,134.205609 151.767372,134.549114 C153.310506,135.44604 153.916641,135.647119 154.567749,135.330812 C155.633028,134.813302 156.602605,133.624713 158.363473,130.936354 C159.975327,128.475499 160.427078,127.833551 161.207659,127.041541 L161.907534,126.33142 L162.058043,127.317038 C162.396006,129.530217 163.17118,131.508752 164.293994,132.941306 C165.407721,134.362266 167.701014,135.987562 169.739443,136.776193 C171.924369,137.621501 173.245747,137.376875 173.468508,136.014327 C173.704298,134.572078 173.842258,133.743888 174.352951,130.692702 C176.040709,120.609027 176.763072,115.763156 177.328257,109.947417 C177.552856,109.572385 177.577726,109.535986 177.590051,109.493717 C177.622645,109.381931 177.591801,109.158917 177.478105,108.84316 C177.661386,106.239674 177.804467,103.940277 177.877294,101.701677 L178.192503,101.25323 C178.926486,100.961779 179.238903,100.677559 179.27928,100.231949 C179.344929,99.5074376 179.196007,98.447285 178.772436,96.2289815 C178.305169,93.7864213 178.173544,92.9622654 178.171308,92.1534502 C178.167556,90.79652 178.121335,89.4141927 178.032185,88.0069017 C177.998765,87.4793285 177.875369,86.903762 177.659196,86.2165681 C177.562297,84.2582238 177.500531,82.8670547 177.343465,79.420809 C177.293105,78.3158474 177.266329,77.7258097 177.236475,77.0604308 C176.833301,68.0746058 176.686596,62.706685 176.785434,57.193962 C179.400127,44.1808115 173.860177,26.4326683 163.011651,12.2815593 C159.51232,7.71693755 152.663713,4.78751937 143.358072,3.20000865 C136.93026,2.10344573 130.852977,1.78583453 123.208464,1.78583453 C81.0561685,1.78583453 69.5821685,13.7928779 72.3803593,53.4410742 C72.8802174,60.5236762 72.4167306,68.365531 71.0317571,81.3779079 C70.9157487,82.4678527 70.8020339,83.5194087 70.6227267,85.1658264 C69.2021509,98.2097052 68.7636746,103.157429 68.6924192,109.0297 C68.6801699,110.039189 68.4314586,111.931285 67.9142754,115.142386 C67.6695144,116.662065 66.5336258,123.423167 66.2626855,125.080006 C65.9582813,126.941481 65.6929546,128.616834 65.4515646,130.213293 C64.4867968,136.593887 63.9375332,141.518156 63.8558899,145.171403 C63.7632924,149.314807 64.3208203,151.488273 65.3075521,151.488273 C70.5370256,151.488273 79.0214706,148.916573 90.7200271,143.767137 L92.1838007,132.815946 L91.2938209,125.21003 Z M91.7042911,109.005435 L92.2900893,125.133618 L93.184295,132.761864 L91.6369002,144.455585 C79.4300085,149.846407 70.7529657,152.488273 65.3075521,152.488273 C63.409257,152.488273 62.7495929,149.916639 62.8561395,145.14906 C62.938972,141.4426 63.4921199,136.483508 64.4628035,130.063789 C64.7048489,128.462995 64.9707853,126.783792 65.2757939,124.918621 C65.5472854,123.258412 66.6829019,116.49893 66.9269988,114.983374 C67.435074,111.828822 67.6810909,109.957225 67.6924929,109.017567 C67.7642935,103.100353 68.2041497,98.1370587 69.6286049,85.0575591 C69.8078304,83.4118914 69.9214723,82.3610096 70.0373737,81.2720707 C71.4163014,68.3164958 71.8772729,60.5171984 71.3828405,53.5114746 C68.5434064,13.2788925 80.4818447,0.785834532 123.208464,0.785834532 C130.905184,0.785834532 137.029291,1.10589288 143.526239,2.21425014 C153.058354,3.84039655 160.114253,6.85848141 163.805276,11.673151 C174.816022,26.0358649 180.4435,44.0644181 177.77557,57.3006725 C177.68689,62.6970073 177.833162,68.0490889 178.23547,77.0156082 C178.26531,77.6806827 178.292078,78.270544 178.342428,79.3752802 C178.497683,82.7817886 178.559883,84.1816554 178.633067,85.9804247 C178.859317,86.7110826 178.992092,87.3423615 179.030185,87.9436799 C179.120601,89.370964 179.167496,90.7734488 179.171304,92.1506852 C179.173287,92.8680414 179.303061,93.6806072 179.722828,95.8747431 C180.200392,98.3756321 180.353086,99.4626344 180.2752,100.32219 C180.200824,101.143021 179.721908,101.655145 178.865965,102.052221 C178.79082,104.17613 178.653461,106.354138 178.455963,108.611187 C178.605263,109.060742 178.647328,109.440099 178.550073,109.773642 C178.501069,109.941704 178.418298,110.09172 178.306162,110.222436 C177.740589,115.989637 177.013495,120.854728 175.339231,130.857781 C174.828773,133.90756 174.69091,134.735173 174.455406,136.175673 C174.096038,138.373803 172.067918,138.749268 169.378624,137.708829 C167.178498,136.85764 164.736531,135.126977 163.506938,133.558188 C162.449889,132.20954 161.68435,130.452062 161.257801,128.488678 C160.796916,129.06743 160.251935,129.878266 159.200001,131.484278 C157.32437,134.347848 156.303464,135.59936 155.004714,136.23029 C153.922268,136.756141 153.112129,136.487385 151.264854,135.413681 C150.703398,135.087342 150.432915,134.939359 150.120631,134.798531 C149.486537,134.512577 148.993357,134.432072 148.552284,134.562373 C147.693813,134.815982 147.044165,135.29399 145.640697,136.570387 C143.836319,138.211241 142.958472,138.800728 141.646142,138.940556 C140.438745,139.069203 139.28645,138.699622 137.066079,137.682083 C134.802265,136.641241 133.973658,136.33272 133.080226,136.279672 C132.369535,136.237475 131.761994,136.552359 130.412971,137.534488 C128.712909,138.764663 127.854639,139.149471 126.779924,138.933577 C125.849374,138.746643 125.007635,138.064815 123.639818,136.614481 C123.529881,136.497912 123.427546,136.388471 123.25496,136.203244 C121.762294,134.601248 121.14071,134.038133 120.477336,133.813478 C119.836726,133.596532 119.155967,133.702438 117.95397,134.124864 C115.72133,134.924883 114.877971,135.06056 113.828887,134.528848 C113.176638,134.198265 112.824392,133.538077 112.043631,131.633088 C111.397871,130.059362 111.070936,129.442176 110.771132,129.25734 C110.33171,128.986426 109.660687,129.030865 108.001405,129.365505 C105.911564,129.786938 105.081799,129.824484 104.320163,129.224494 C103.486084,128.567436 103.214084,127.66426 102.831704,125.277736 C102.519041,123.326338 102.30503,122.557272 101.835343,122.069916 C101.587398,121.812643 101.103664,121.72457 99.870725,121.673421 C98.2381415,121.605664 97.6064364,121.478936 97.1091674,120.858069 C96.6751621,120.31619 96.7026666,119.74118 96.9928404,118.143656 C97.2088079,116.954638 97.2366029,116.454257 97.0865599,116.23461 C94.9894833,113.164708 93.2572091,109.814074 91.9210347,106.210368 C91.855763,107.106449 91.7834592,108.040695 91.7042911,109.005435 Z M90.2560615,89.5037345 L89.6116034,88.0383368 C89.058763,86.7812634 88.496703,86.0532588 88.3881957,86.0783489 C86.695695,86.4697037 84.5630315,85.4864917 83.7367596,83.4742677 C83.611978,83.1703864 83.5333707,82.7868418 83.4477816,82.1459884 C83.4128212,81.8842202 83.2796706,80.7719693 83.272585,80.7146058 C83.1881743,80.0312422 83.1054023,79.431487 83.0026352,78.7853995 C82.72599,77.0461553 82.3402146,75.2230177 81.784189,73.1621842 C81.6128547,72.5270483 81.5318663,72.2269839 81.4409087,71.8906904 C80.409027,68.0755601 79.7693674,65.8485402 79.087196,63.807536 C78.6541269,62.5118268 77.7415089,61.1402169 76.3645548,59.5525463 C76.0312067,59.1681857 75.6879444,58.7896953 75.2484167,58.3173522 C75.1185529,58.1777926 74.9821227,58.0319361 74.7291298,57.7616341 C74.5265531,57.5449311 74.3876687,57.3952755 74.2578486,57.2532251 C73.4744638,56.3960381 73.1647129,55.9789787 73.13529,55.5661166 C73.0448715,54.2973686 77.2986967,54.1317836 82.3551711,55.0384224 C84.3646773,55.398732 85.9071686,56.2469377 87.0510883,57.4430823 C87.3141919,57.7181978 87.5447142,57.9981764 87.7493495,58.2844581 C87.7342501,57.7217688 87.7121429,57.0972013 87.6817809,56.32487 C87.5209689,52.2342332 87.5398834,50.8468781 87.929833,48.8728122 C88.3568206,46.7112471 89.2400418,44.6877155 90.7684502,42.498027 C91.8659136,40.9257359 92.7607555,39.3208364 94.1435433,36.5765412 C94.2241025,36.4166626 94.2798017,36.3058569 94.4157905,36.0350414 C94.5517114,35.7642246 94.5517114,35.7642246 94.6876301,35.4935337 C98.226595,28.4488241 100.416572,25.5677754 104.725788,23.8369947 C106.330359,23.192525 110.105378,23.6497126 116.941195,25.0112544 C117.471307,25.1168408 118.026252,25.2290125 118.649756,25.3563641 C126.914898,27.0445319 127.445098,27.1446382 128.667899,27.1349937 C131.223811,27.1148345 133.219896,26.6831066 137.48786,25.4339142 C138.139286,25.243248 138.341013,25.1844135 138.6614,25.0921864 C142.909828,23.8692285 145.5232,23.4508722 148.490769,23.8044815 C150.266476,24.0160711 151.438896,24.0248019 152.952154,23.9180471 C154.191678,23.8306032 154.407537,23.8234122 154.917183,23.8931775 C156.139803,24.0605415 157.302794,24.7650116 159.648557,26.749201 C161.685344,28.4720401 162.827323,30.3668482 163.777375,33.1090553 C163.943482,33.5885022 164.036885,33.879106 164.344593,34.8568617 C165.644182,38.9863742 166.648934,40.6909655 169.437724,42.3548236 C169.898148,42.6295233 170.439823,43.5303245 171.229662,45.1734018 C171.06936,48.112324 171.305751,51.9019773 172.206557,62.7441657 C172.239771,63.1440284 172.239771,63.1440284 172.272944,63.5441138 C173.070004,73.163588 173.336256,77.7232872 173.144823,80.8845891 C172.075027,98.5511228 163.932862,110.691382 150.767419,116.582765 C139.222308,121.749068 124.52533,121.596549 111.550742,116.603656 C102.966974,113.300442 98.8675986,108.332713 94.1031382,97.5467299 C94.2067931,97.781388 91.7806217,92.1447014 90.3613725,88.959504 L90.2560615,89.5037345 Z M89.8553608,86.3107895 L89.9723432,85.7062434 L90.6229045,87.1104282 C91.7436326,89.5294307 95.1449986,97.4304673 95.0178699,97.1426681 C99.6852438,107.708863 103.623809,112.481718 111.909888,115.670375 C124.647309,120.572001 139.069985,120.721674 150.358961,115.669988 C163.179232,109.933065 171.099038,98.1243509 172.146652,80.8241448 C172.333865,77.7325178 172.068261,73.1839097 171.27636,63.6266898 C171.243199,63.2267511 171.243199,63.2267511 171.209991,62.8269639 C170.316385,52.071438 170.073839,48.2409766 170.270447,45.4866571 C169.624124,44.1541931 169.127197,43.3340125 168.925362,43.213593 C165.872911,41.3924283 164.75751,39.5001184 163.390714,35.1570547 C163.086159,34.1893162 162.994237,33.9033177 162.832477,33.4364204 C161.936343,30.8498429 160.884268,29.1042045 159.002745,27.5126975 C156.794055,25.6444521 155.759557,25.0178156 154.781558,24.8839377 C154.370694,24.8276947 154.176375,24.8341681 153.022526,24.9155679 C151.450742,25.0264515 150.217127,25.017265 148.372448,24.7974569 C145.571018,24.4636444 143.067761,24.8643733 138.938028,26.0531635 C138.619624,26.1448198 138.418631,26.2034404 137.768766,26.3936496 C133.413839,27.6682951 131.353873,28.1138398 128.675786,28.1349625 C127.339077,28.1455055 126.930363,28.0683369 118.449636,26.3361355 C117.827619,26.2090876 117.274223,26.097229 116.745855,25.9919899 C110.219368,24.6920597 106.424291,24.232443 105.098496,24.7649437 C101.093379,26.3735838 99.0139218,29.1092371 95.5812129,35.942432 C95.4454864,36.2127401 95.4454864,36.2127401 95.3094948,36.4836978 C95.1733041,36.7549154 95.1174032,36.8661226 95.0365812,37.0265227 C93.6337149,39.8106658 92.7204125,41.4486741 91.5884508,43.0703896 C90.1376442,45.1489012 89.3103578,47.0442817 88.9108758,49.0666038 C88.5417388,50.9353084 88.5234406,52.2774582 88.681009,56.2855881 C88.7470559,57.965647 88.7744132,58.9549161 88.7755531,60.1258044 C88.7733209,60.3482722 88.7142968,60.5268702 88.5396619,60.6428056 C87.9373546,60.6817261 87.9373546,60.6817261 87.8481758,60.519558 C87.7531168,60.3567839 87.6055973,60.0262328 87.5408205,59.892418 C87.239641,59.2702462 86.8599971,58.6901232 86.3283805,58.134236 C85.3284969,57.0887034 83.9760388,56.3449956 82.1786831,56.0227252 C79.7606342,55.5891628 77.5944871,55.4179939 75.9430082,55.4822796 C75.2589401,55.5089077 74.7039144,55.5761114 74.3359035,55.6695683 C74.3831607,55.8783281 74.6323035,56.1806299 74.9960185,56.5786103 C75.1932992,56.7944767 76.0685487,57.7307595 75.9804962,57.636133 C76.4272933,58.1162882 76.7777832,58.502748 77.1200147,58.8973514 C78.5756158,60.5757044 79.5517135,62.0427204 80.035623,63.4905403 C80.7258705,65.5557077 81.3694028,67.7962108 82.4062233,71.6296009 C82.4972618,71.9661935 82.5783263,72.2665399 82.7496652,72.9016928 C83.3150695,74.9972873 83.7081403,76.8549022 83.9902201,78.6283136 C84.0950035,79.2870773 84.1793088,79.8979423 84.2650423,80.5920152 C84.2729015,80.6556408 84.4050838,81.7598034 84.4389807,82.0136089 C84.513633,82.5725723 84.579508,82.8939928 84.6618081,83.0944186 C85.2943741,84.6349098 86.9302391,85.3890851 88.1629111,85.1040559 C88.7603437,84.9659122 89.3104558,85.4129475 89.8553608,86.3107895 Z M74.1334563,55.5063506 C74.1332638,55.5026197 74.1330321,55.4988466 74.1327602,55.495031 C74.1328508,55.4963028 74.1330304,55.4976741 74.133299,55.4991443 L74.1334563,55.5063506 Z" id="hair-outline" fill="#000000" fill-rule="nonzero" opacity="0.049999997"></path>
            </g>
        </g>
    </g>
</svg>