<?xml version="1.0" encoding="UTF-8"?>
<svg width="480px" height="300px" viewBox="0 0 480 300" version="1.1" xmlns="http://www.w3.org/2000/svg" xmlns:xlink="http://www.w3.org/1999/xlink">
    <!-- Generator: Sketch 50.2 (55047) - http://www.bohemiancoding.com/sketch -->
    <title>Artboard</title>
    <desc>Created with Sketch.</desc>
    <defs></defs>
    <g id="Artboard" stroke="none" stroke-width="1" fill="none" fill-rule="evenodd">
        <rect id="Frame" fill="#E6E6E6" x="0" y="0" width="480" height="300"></rect>
        <g id="Avatars" transform="translate(87.000000, 27.000000)">
            <g id="Half-Orc" transform="translate(33.000000, 2.000000)">
                <g id="Female" transform="translate(12.000000, 0.000000)">
                    <path d="M0,270.72231 C2.44388291,241.733142 4.24885458,223.402662 5.41491501,215.730872 C6.25162886,210.225931 4.86309773,204.535422 5.43708911,198.99056 C6.59536042,187.801448 43.3960515,164.501683 48.8318011,160.700727 C53.6942124,157.300678 58.4353574,153.539886 63.7682743,151.121011 C68.8040802,148.836898 75.9490742,151.125709 79.62719,146.732727 C82.5294565,143.266386 83.5835911,137.646429 82.7895937,129.872856 C75.9690606,107.970381 72.1613661,95.4018645 71.3665103,92.167306 C70.1805744,87.3413002 67.1038866,72.1636115 67.3848887,58.216261 C67.4370031,55.6295961 64.3947827,44.7268142 64.6487719,42.2678243 C65.8059112,31.0650112 72.0528578,30.0351502 75.0593255,26.9458058 C88.5099886,13.1243601 139.962102,-0.603036304 152.73963,24.4928179 C160.338871,39.418198 167.031667,90.8713221 160.367751,105.550637 C151.093848,125.979248 144.846327,123.743476 151.093848,126.006716 L152.246901,136.888172 C160.670661,139.939781 162.982921,136.562442 171.840399,137.188142 C187.027469,138.260971 184.24937,138.043021 199.966721,146.791291 C216.439347,155.959947 235.015488,157.090181 241.533592,179.395687 C245.664325,193.531404 240.453768,213.220408 242.167771,225.407352 C243.126417,232.223534 244.070493,247.32852 245,270.72231 L200.183332,270.72231 L15.3444766,270.72231 L0,270.72231 Z" id="Path-3" fill="#709B5C"></path>
                    <polygon id="Path-6" fill="#000000" opacity="0.5" points="45.4830194 270.174686 53.9083904 228.642594 53.9083904 270.174686"></polygon>
                    <polygon id="Path-6" fill="#000000" opacity="0.5" transform="translate(197.751498, 249.286371) scale(-1, 1) translate(-197.751498, -249.286371) " points="193.538813 270.052417 201.964184 228.520325 201.964184 270.052417"></polygon>
                    <path d="M127.171944,240.916962 C135.817013,262.327488 144.949433,268.382646 163.769808,268.382646 C188.071714,268.382646 200.863656,249.481827 190.496172,225.765325 C185.800978,219.494592 182.215402,213.397565 179.740614,207.473214 L180.663341,207.087762 C183.110629,212.946279 186.666157,218.988021 191.331102,225.211952 C202.091501,249.720648 188.803114,269.382646 163.769808,269.382646 C144.23618,269.382646 134.755092,262.881275 125.834447,240.262772 C124.420212,245.981162 123.319861,249.696224 122.521347,251.435577 C117.967457,261.355039 103.395709,268.981378 88.4377641,269.564381 C71.6516178,270.21864 58.5069923,262.190668 54.3562989,246.062374 C53.0093768,240.828657 52.8863432,236.754097 53.7312896,232.179964 C53.9654505,230.91233 54.2683221,229.607576 54.707513,227.918523 C54.8827389,227.244634 55.706207,224.177579 55.9335311,223.302912 C56.1588256,222.436053 56.0515696,220.674669 55.5930473,216.088445 C55.1176699,211.332994 55.0110493,209.553991 55.2740613,208.461123 L56.2463023,208.695105 C56.0240989,209.618405 56.1331547,211.438038 56.5812799,215.920877 C57.0698901,220.808049 57.1733944,222.507822 56.9013777,223.554453 C56.6727119,224.434283 55.8492237,227.501413 55.6753303,228.170177 C55.2416456,229.838054 54.943769,231.12129 54.7146529,232.361614 C53.8958539,236.794197 54.0144485,240.721749 55.3247423,245.813141 C59.3475123,261.444364 72.050076,269.20235 88.3988175,268.56514 C103.012967,267.995537 117.235885,260.551763 121.612542,251.018357 C122.335484,249.443618 123.347685,246.071309 124.638973,240.924756 L124.524663,240.911003 C125.292433,234.529431 124.373162,224.401943 122.592481,219.756187 L123.52624,219.398285 C125.049042,223.371239 125.951216,231.083656 125.775823,237.329362 L125.989037,237.887899 C125.741294,231.550211 126.651364,223.49054 128.219892,219.398285 L129.153651,219.756187 C127.37297,224.401943 126.4537,234.529431 127.22147,240.911003 L127.171944,240.916962 Z" id="Combined-Shape" fill="#000000" fill-rule="nonzero" opacity="0.3"></path>
                    <path d="M142.870791,5.8149954 C143.487683,5.31820517 144.132129,4.85153599 144.800139,4.41253017 C162.858923,13.1219989 153.745997,19.5510553 161.799349,34.7373761 C167.206502,44.9337208 164.683095,56.0019053 171.681388,75.2520166 C182.037509,103.738464 176.91341,106.028202 178.681345,127.207524 C178.695908,127.381992 179.495244,135.29238 184.071195,142.036982 C185.362626,143.940452 188.207136,145.900756 192.604724,147.917893 L177.180789,146.019452 C173.215217,145.336317 170.261457,145.336317 168.31951,146.019452 C167.30491,146.376366 165.439493,145.483504 164.356772,152.534632 C163.697031,156.831137 162.951216,167.604371 162.119329,184.854334 L153.705116,136.853659 C150.239811,135.652669 148.451023,134.563895 148.338751,133.587335 C146.900795,121.079751 146.900795,121.079751 148.338751,110.461065 C150.625284,93.5760145 157.176174,78.6264872 154.054834,56.0994823 C151.997171,41.2491296 136.044699,36.7501918 135.366558,24.244093 C135.1858,20.9106159 135.526139,18.0144349 136.282416,15.4908086 C127.780791,14.9468335 126.775544,14.9417145 117.309346,16.5878759 C111.655322,17.5711045 81.9224973,25.1322941 78.5681945,38.4764017 C77.5418961,42.5592279 78.3181681,55.0136588 75.9512155,51.5752926 C72.6592707,46.7932314 64.0441395,44.0150953 65.1585839,47.0429353 C65.836072,48.8836065 68.0160385,52.0719829 68.6195371,56.1291892 C69.0087727,58.7459458 69.7384479,61.0366867 69.7385469,63.5696766 C69.7387936,69.887786 71.6660961,71.2714034 72.7758321,72.1709516 C74.3552085,73.4511887 75.4258053,72.6045959 76.7626682,73.7798717 C78.4940207,75.3019552 77.8804703,76.6442607 78.7454343,80.2321969 C81.7795384,92.8178904 83.2298336,93.9750178 87.3709079,103.813824 C97.2374492,127.255804 91.4555021,112.300746 95.5073409,143.085432 C98.1998123,163.542043 91.2627115,153.938594 88.5900468,175.850757 C87.0993567,188.072359 89.1582645,200.82257 86.069923,212.712026 C84.2693295,219.643926 79.7509968,230.064498 80.3092083,238.559078 C81.1919881,251.992775 77.5914573,261.043789 72.667771,264.463335 C68.3795553,267.441541 56.1912727,269.437997 66.7192138,262.841413 L68.9251653,254.504525 C70.6778314,246.10287 69.5888243,239.53281 70.8177567,231.030294 C71.7364593,224.674139 74.7451302,218.712829 75.2301721,212.30573 C75.3224128,211.087288 72.7413047,212.871716 72.1145634,213.900287 C68.1055497,220.479648 64.0357115,227.201709 61.641136,234.607266 C59.3990469,241.541238 59.4300911,263.538268 58.4014786,256.309906 C56.2588113,241.252753 55.3456583,227.937208 56.004884,212.706196 C56.1421841,209.533959 58.2895947,204.895745 59.4988432,201.380267 C60.0194237,199.866856 62.2385367,197.369231 60.9575024,197.254513 C58.1333802,197.00161 55.0526332,202.157966 52.1977734,204.102276 C37.573486,214.062185 25.3983629,239.95535 43.2089042,198.287707 C44.9795433,194.145308 49.3427687,189.619305 50.1766091,186.6191 C50.4161022,185.75739 53.4160306,183.838109 52.2218215,183.547306 C45.9551429,182.021305 38.6608782,199.332357 35.0769422,203.205011 C24.9374004,214.161384 27.2127245,220.427575 32.5019049,185.692808 L36.6668788,172.867215 C44.4087006,152.99035 59.031988,137.041955 63.97841,115.905041 C66.9321219,103.28332 64.5065383,92.5223136 64.0411307,79.461577 C62.5225473,36.8455622 62.1737635,2.14298275 106.969507,0.990659337 C113.364645,0.826151136 131.749706,-1.24475272 141.874663,4.56905526 C142.070073,4.68126099 142.428098,5.14017531 142.870791,5.8149954 Z" id="Combined-Shape" fill="#000000"></path>
                    <path d="M81.2417227,98.0793439 L82.0916106,97.5523803 C82.6712001,98.4871434 83.1984233,99.5255308 83.9548897,101.159489 C84.0830244,101.436258 84.5893898,102.539776 84.7154222,102.812109 C86.4366292,106.531314 87.6216934,108.448308 89.2677421,109.712641 C91.7042468,111.584124 94.0633779,113.509239 96.8641817,115.881664 C97.5019262,116.421866 102.022727,120.291319 103.205595,121.279638 C107.649125,124.99233 110.230984,126.705555 112.238655,127.083205 C124.537574,129.396674 130.29707,129.04544 134.492792,125.475831 C139.857277,120.91187 153.989317,98.739362 156.155795,93.2393321 L157.086215,93.6058272 C154.864387,99.2463741 140.646793,121.553113 135.140782,126.23748 C130.642192,130.06476 124.629229,130.431452 112.053794,128.06597 C109.811201,127.64413 107.149102,125.877661 102.564417,122.04703 C101.376085,121.054145 96.8515478,117.181495 96.2178404,116.644712 C93.4282082,114.28175 91.0807179,112.366135 88.6585939,110.505697 C86.8404716,109.109194 85.5964416,107.096815 83.8078951,103.232102 C83.6809459,102.957789 83.1746211,101.854359 83.0474237,101.579614 C82.3068509,99.9799863 81.7944262,98.9707451 81.2417227,98.0793439 Z" id="Path-10" fill="#000000" fill-rule="nonzero" opacity="0.3"></path>
                </g>
            </g>
        </g>
    </g>
</svg>