<?xml version="1.0" encoding="UTF-8"?>
<svg width="480px" height="300px" viewBox="0 0 480 300" version="1.1" xmlns="http://www.w3.org/2000/svg" xmlns:xlink="http://www.w3.org/1999/xlink">
    <!-- Generator: Sketch 50.2 (55047) - http://www.bohemiancoding.com/sketch -->
    <title>Artboard</title>
    <desc>Created with Sketch.</desc>
    <defs></defs>
    <g id="Artboard" stroke="none" stroke-width="1" fill="none" fill-rule="evenodd">
        <rect id="Frame" fill="#E6E6E6" x="0" y="0" width="480" height="300"></rect>
        <g id="Avatars" transform="translate(87.000000, 27.000000)">
            <g id="Halfling" transform="translate(44.000000, 23.000000)">
                <g id="Male" transform="translate(5.000000, 0.000000)">
                    <path d="M0,250 C2.67570908,221.088393 4.65189994,202.806958 5.92857258,195.155694 C6.84465692,189.665482 5.32441005,181.760408 5.95285011,176.230382 C6.55236584,170.954878 5.38706935,149.537802 15.6781747,142.194298 C27.1556564,134.004222 57.3504511,130.723386 61.3774721,126.342158 C64.5550469,122.885091 65.7091764,117.28017 64.8398607,109.527397 C57.3723334,87.6835227 53.2034419,75.1486337 52.3331862,71.9227295 C49.6968658,62.1502943 48.4663325,28.7733041 56.3763011,21.3693708 C71.1028909,7.58490516 127.43574,-6.10576282 141.425341,18.9229461 C149.745444,33.8083924 147.533313,70.7564228 147.533313,87.5000427 C147.533313,100.355149 141.675587,97.6800965 140.419318,103.699834 C139.91796,106.102218 140.073478,110.37692 140.885872,116.523942 C150.108708,119.567387 200.093356,123.293157 207.229766,145.538984 C211.752339,159.63688 215.022513,192.651947 216.899107,204.806284 C217.948689,211.604229 218.98232,226.668801 220,250 L193.369542,250 L16.8000501,250 L0,250 Z" id="Path-3" fill="#E1B499"></path>
                    <path d="M46.5789489,107.380384 C40.913066,106.514504 52.3119508,96.9819429 52.3815342,91.2819072 C52.5806687,74.9694739 48.5252376,58.8685426 47.3698133,42.5954198 C44.5962577,3.53235661 65.2776021,3.14899191 104.740253,0.965322999 C113.127304,0.501224893 126.39905,-1.91334351 136.872943,3.27255413 C151.873414,10.6996786 157.385158,26.3501145 154.070967,39.8493368 C153.628856,41.650125 150.153381,39.899357 148.552394,38.9499078 C141.846875,34.9732685 135.524912,33.6648294 129.562909,28.6520965 C124.304144,24.2306319 123.265753,18.1355695 116.454659,17.3288492 C109.541533,16.5100438 102.583054,15.8012917 95.621281,15.8558712 C91.9894708,15.8843441 88.2342211,16.2309237 84.8637773,17.5765181 C77.419235,20.5486295 68.1295487,18.7875936 63.5366548,25.3281195 C59.3439169,31.2988018 61.7773858,39.8232467 61.7845187,47.1056005 C61.7853219,47.9255964 59.788145,44.5531926 58.2299983,44.1498679 C56.4359963,43.6854923 51.6957431,40.6021854 51.7632617,41.5439134 C51.8270697,42.4338866 50.1428359,45.6748666 50.6446911,48.5014536 C51.8317229,55.1871452 55.8519348,63.9744993 56.5455882,65.6536096 C58.6317933,70.7036366 63.621794,70.4746784 64.1527425,76.7997954 C64.349683,79.1459199 64.1530592,83.9732905 63.5628713,91.2819072 L64.1527425,107.380384 L65.0484729,114.975735 L65.0484729,121 C59.3944502,112.937907 53.2379422,108.398035 46.5789489,107.380384 Z" id="Path-4" fill="#000000"></path>
                    <polygon id="Path-6" fill="#000000" opacity="0.5" points="34 249 42 208 42 249"></polygon>
                    <polygon id="Path-6" fill="#000000" opacity="0.5" transform="translate(187.000000, 228.500000) scale(-1, 1) translate(-187.000000, -228.500000) " points="183 249 191 208 191 249"></polygon>
                    <path d="M64.5,84 L65.5,84 C65.5,84.1589978 65.5189376,84.474698 65.5767604,84.9245349 C65.6744315,85.6843748 65.8507885,86.5336973 66.1256477,87.4501065 C66.913604,90.0772352 68.3334273,92.7071458 70.5454888,95.1655604 C76.9091039,102.237879 88.4141687,106.5 106.390426,106.5 C122.970686,106.5 134.445027,104.939499 140.780494,101.843887 L141.219506,102.742368 C134.710887,105.922586 123.112179,107.5 106.390426,107.5 C88.1500608,107.5 76.3730109,103.137121 69.8021177,95.8344396 C67.4871013,93.2616042 65.9966603,90.5008898 65.1678031,87.7373935 C64.8767776,86.7670839 64.6893515,85.8644534 64.5849209,85.0520276 C64.5214827,84.5585052 64.5,84.2003772 64.5,84 Z" id="Path-13" fill="#000000" fill-rule="nonzero" opacity="0.3"></path>
                    <path d="M44.6697602,219.375422 L45.3302398,218.624578 C47.0954396,220.177335 48.1126815,221.698976 49.5971809,224.598143 C49.704721,224.808443 49.704721,224.808443 49.811697,225.018113 C51.7300786,228.777339 52.8836164,230.360084 55.395107,231.978271 C71.0500733,242.064971 94.2318328,237.611151 109.66874,223.957414 L110.33126,224.706458 C94.5873285,238.631754 70.9296901,243.177002 54.8534836,232.818892 C52.1543203,231.079786 50.9136773,229.377525 48.9209744,225.47266 C48.8140303,225.263053 48.8140303,225.263053 48.7070827,225.053912 C47.2755301,222.258147 46.3171376,220.824537 44.6697602,219.375422 Z M180.33126,219.375422 C178.683883,220.824537 177.72549,222.258147 176.293937,225.053912 C176.18699,225.263053 176.18699,225.263053 176.080046,225.47266 C174.087343,229.377525 172.8467,231.079786 170.147536,232.818892 C154.07133,243.177002 130.413692,238.631754 114.66976,224.706458 L115.33228,223.957414 C130.769187,237.611151 153.950947,242.064971 169.605913,231.978271 C172.117404,230.360084 173.270942,228.777339 175.189323,225.018113 C175.296299,224.808443 175.296299,224.808443 175.403839,224.598143 C176.888339,221.698976 177.90558,220.177335 179.67078,218.624578 L180.33126,219.375422 Z" id="Combined-Shape" fill="#000000" fill-rule="nonzero" opacity="0.3"></path>
                </g>
            </g>
        </g>
    </g>
</svg>