<?xml version="1.0" encoding="UTF-8"?>
<svg width="480px" height="300px" viewBox="0 0 480 300" version="1.1" xmlns="http://www.w3.org/2000/svg" xmlns:xlink="http://www.w3.org/1999/xlink">
    <!-- Generator: Sketch 50.2 (55047) - http://www.bohemiancoding.com/sketch -->
    <title>Artboard</title>
    <desc>Created with Sketch.</desc>
    <defs></defs>
    <g id="Artboard" stroke="none" stroke-width="1" fill="none" fill-rule="evenodd">
        <rect id="Frame" fill="#E6E6E6" x="0" y="0" width="480" height="300"></rect>
        <g id="Avatars" transform="translate(87.000000, 27.000000)">
            <g id="Half-Orc" transform="translate(33.000000, 2.000000)">
                <g id="Male" transform="translate(0.000000, 4.000000)">
                    <path d="M0,266.722492 C2.66328604,237.752289 4.63030165,219.433802 5.90104683,211.767031 C6.81287788,206.265692 5.29968937,200.578906 5.92521164,195.037672 C7.18746844,183.85588 47.2919948,160.571359 53.2157467,156.772889 C58.514688,153.375065 63.6814761,149.616733 69.4931633,147.199441 C74.981066,144.916823 82.7675122,147.204136 86.7758361,142.814028 C89.9386578,139.349954 91.0874288,133.733674 90.2221492,125.965188 C82.7892929,104.077042 78.6397571,91.516748 77.773542,88.2843057 C76.481137,83.4614572 73.1282351,68.2936985 73.4344645,54.3554728 C73.7499988,39.9937279 77.8023504,26.8704592 81.7978851,23.1054761 C96.4561008,9.29307295 152.527402,-4.42534242 166.452051,20.6540931 C174.733525,35.5697083 182.027176,86.9891697 174.764998,101.65888 C164.658517,122.074127 157.850116,119.839817 164.658517,122.101577 L165.915087,132.975913 C175.095102,136.025526 177.614949,132.650397 187.267619,133.275688 C203.818131,134.347815 200.790623,134.130007 217.919022,142.872554 C235.870502,152.035211 256.114343,153.164706 263.21762,175.455618 C267.719195,189.582087 262.040853,209.25821 263.908733,221.437181 C264.953443,228.248903 265.982275,243.344007 266.995229,266.722492 L218.15508,266.722492 L16.7220492,266.722492 L0,266.722492 Z" id="Path-3" fill="#709B5C"></path>
                    <path d="M91.5910748,102.700083 C91.4899989,104.298645 91.3611815,106.073161 91.2046224,108.023634 L91.7934896,124.191831 L92.6876953,131.820077 L91.1784505,143.111459 C79.2876953,148.362668 70.6640625,150.988273 65.3075521,150.988273 C59.6116748,150.988273 68.1229911,113.748355 68.1924561,108.023634 C68.3912516,91.6405532 73.0350575,68.8198741 71.8815999,52.4762744 C69.1127654,13.2440339 80.0423177,0.285834532 123.208464,0.285834532 C131.587841,0.285834532 155.385598,0.512113954 163.408464,10.9773552 C174.235111,25.0999255 178.990926,42.6330599 176.005683,56.1033251 L176.322223,56.2701278 C176.289454,57.3645254 176.262647,58.4596814 176.241059,59.5555009 C176.635048,65.8154274 176.407913,72.5559296 176.366687,78.6572829 C176.346642,81.6239688 176.37055,84.439545 176.531185,86.9752908 C176.621459,88.4003181 176.667546,89.7925324 176.671306,91.1520677 C176.676736,93.1160003 179.942873,97.4491196 179.77724,99.2770697 C179.644943,100.737125 177.599305,100.799846 176.416721,101.483981 C176.407557,102.558072 176.394316,103.631644 176.376297,104.704608 C177.185053,106.172342 178.304688,107.829012 178.070062,108.633679 C177.908961,109.186184 177.139468,109.355805 176.262912,109.455682 C175.992343,118.06525 175.346361,126.627077 173.961957,135.095 C173.323789,138.998452 166.212826,135.199995 163.900466,132.249747 C162.6786,130.690816 161.900581,128.598129 161.563772,126.392516 C159.422136,128.565508 157.233209,133.591814 154.786232,134.780551 C152.786144,135.75219 150.548445,132.451307 148.410626,133.08286 C145.910761,133.821368 144.208924,137.164662 141.593167,137.44337 C139.081138,137.711026 135.658176,134.931857 133.109861,134.780551 C130.92159,134.650623 129.046026,137.878814 126.878399,137.44337 C124.878784,137.041677 122.583936,132.998995 120.637716,132.339898 C118.514918,131.621001 116.071444,134.104901 114.05493,133.08286 C112.904606,132.499835 112.137869,128.512576 111.033532,127.831727 C109.55229,126.918507 106.010637,128.919682 104.629571,127.831727 C103.038089,126.578013 103.625257,122.206637 102.195363,120.722949 C101.260796,119.753224 98.3541631,120.612688 97.4994254,119.545501 C96.8005902,118.672967 98.1397097,115.889887 97.4994254,114.952578 C95.0343813,111.34401 93.020547,107.256642 91.5910748,102.700083 Z M90.0692974,86.8370504 L90.1692297,86.3206166 C96.363142,99.689684 98.561846,110.069513 111.730315,115.137015 C136.337667,124.606439 170.372156,117.400104 172.645737,79.854367 C173.109271,72.1996064 170.33633,51.3910554 170.763204,44.6157754 C170.127547,43.1098915 169.566705,42.0140051 169.181543,41.7842083 C162.487438,37.7903467 165.277505,31.1653916 159.325651,26.1309493 C154.075837,21.6903358 155.231108,24.1111833 148.431608,23.3009692 C141.530248,22.4786177 135.621766,26.5801622 128.671842,26.6349781 C125.046214,26.6635744 108.276849,21.9495472 104.912142,23.3009692 C97.4802714,26.2859524 95.7635266,35.2153563 91.1784505,41.7842083 C86.9928493,47.7807489 88.2684326,51.8123985 88.2755534,59.1262912 C88.2763552,59.9498385 87.6365234,55.4933561 82.2669271,54.5305738 C76.8973307,53.5677914 73.5985114,54.0322473 73.6340251,54.5305738 C73.7010968,55.4717212 78.3435923,59.0054231 79.5614095,62.6490381 C80.4820031,65.4033832 81.3848387,68.7625975 82.2669271,72.0319385 C83.9474065,78.2604078 83.7553385,81.2032007 84.1992839,82.2843431 C85.0369943,84.3244237 87.1218099,84.857981 88.2755534,84.5912024 C88.776582,84.4753501 89.4461309,85.4200663 90.0692974,86.8370504 Z" id="Combined-Shape" fill="#000000"></path>
                    <polygon id="Path-6" fill="#000000" opacity="0.5" points="62.1494792 266.175226 70.559375 224.670306 70.559375 266.175226"></polygon>
                    <polygon id="Path-6" fill="#000000" opacity="0.5" transform="translate(215.254948, 245.300577) scale(-1, 1) translate(-215.254948, -245.300577) " points="211.05 266.053037 219.459896 224.548117 219.459896 266.053037"></polygon>
                    <path d="M144.459028,215.454621 C144.032844,212.968646 143.669166,210.926142 143.279432,208.851908 L144.262234,208.667247 C144.722218,211.115361 145.145774,213.518084 145.6776,216.651673 C145.820792,217.495378 146.301613,220.347852 146.303511,220.359083 C146.546178,221.79521 146.728059,222.858377 146.905705,223.873436 C149.234046,237.177435 151.309656,243.14725 155.843185,247.251667 C161.125491,252.033987 169.865678,253.419885 184.764191,251.57059 C186.16753,251.396399 187.47074,251.330004 190.427828,251.24204 C191.659648,251.205397 192.105722,251.191157 192.742765,251.166111 C200.804991,250.849143 206.491881,251.566448 206.926355,247.808279 L206.944952,247.647421 L208.809557,241.427662 C209.573539,234.750922 209.701072,229.297272 209.623323,217.112171 C209.58404,210.955617 209.587277,208.219697 209.669023,204.802667 L210.668737,204.826583 C210.587313,208.230145 210.584084,210.959343 210.623302,217.105791 C210.701934,229.429056 210.571075,234.899025 209.784452,241.703244 L209.765856,241.864102 L207.899151,248.086154 C207.300577,252.450869 201.236566,251.832948 192.782049,252.165339 C192.140651,252.190556 191.692736,252.204855 190.457562,252.241598 C187.533545,252.328578 186.248159,252.394065 184.887372,252.562974 C169.728126,254.444633 160.720572,253.016339 155.172034,247.992987 C151.708813,244.85757 149.639543,240.763273 147.857179,233.552383 C147.857279,236.550826 147.541583,239.658545 146.88801,243.109133 C146.011956,247.734331 141.52196,251.482276 134.563942,254.317687 C129.339253,256.446761 122.864835,257.921025 118.454918,258.238543 C116.339322,258.390868 114.212881,258.559513 111.868715,258.758103 C110.373483,258.884775 103.088018,259.529714 101.234035,259.68117 C97.6029945,259.977799 94.9391336,260.138987 92.588888,260.185902 C87.0114581,260.297238 83.2108988,259.730932 80.2444102,258.198151 C74.065874,255.005709 71.3388766,247.564088 69.7344043,230.429248 L70.7300489,230.336018 C72.3043761,247.148925 74.9357363,254.329565 80.7034528,257.309737 C83.4914426,258.750288 87.1431271,259.29441 92.5689301,259.186101 C94.8946515,259.139675 97.5402831,258.979591 101.152614,258.68449 C103.002479,258.53337 110.285861,257.888616 111.784301,257.761672 C114.132405,257.562749 116.262949,257.393778 118.383103,257.241125 C122.689841,256.931036 129.06113,255.480256 134.186569,253.391625 C140.860931,250.671805 145.109519,247.125371 145.905479,242.923033 C147.265275,235.743882 147.135476,230.106919 145.723487,223.778606 C145.002061,220.545291 141.158476,207.870066 141.069919,207.595589 L142.031581,207.322598 C141.980172,207.1415 143.225767,211.238028 144.459028,215.454621 Z" id="Combined-Shape" fill="#000000" fill-rule="nonzero" opacity="0.3"></path>
                    <path d="M90.6310772,94.6652064 L91.580812,94.3521511 C93.2720727,99.4830301 95.3838965,102.467595 100.354688,107.78918 C100.703587,108.162498 100.892372,108.364515 101.053395,108.53715 C103.701268,111.375965 105.148246,113.091617 106.60797,115.292424 C108.279872,117.813128 113.111627,121.940697 118.533927,126.037007 C120.219047,127.310041 121.801023,128.066206 123.501203,128.466235 C125.081602,128.838082 126.315552,128.897805 129.501673,128.865751 C132.159599,128.839012 133.522217,128.865948 135.365841,129.037562 C142.24447,129.677859 147.70415,127.97545 155.10133,123.278789 C155.390674,123.095077 156.978297,121.102876 159.751351,117.477982 C159.798152,117.416801 159.798152,117.416801 159.844949,117.35561 C164.506189,111.260398 164.263643,111.574402 164.609095,111.261139 L165.280847,112.001915 C165.011881,112.245819 164.973397,112.295641 160.639295,117.963076 C160.592448,118.024331 160.592448,118.024331 160.545595,118.085581 C157.486177,122.084804 156.091901,123.834388 155.637342,124.122999 C148.068049,128.92894 142.399163,130.696582 135.273157,130.033257 C133.472993,129.865689 132.137354,129.839286 129.511733,129.865701 C126.244009,129.898575 124.958137,129.836339 123.272171,129.439654 C121.434211,129.007207 119.725483,128.190456 117.931145,126.834912 C112.395625,122.65307 107.5374,118.502889 105.774615,115.845161 C104.353014,113.701833 102.935076,112.020613 100.322123,109.219235 C100.161478,109.047006 99.9730911,108.845415 99.6239058,108.47179 C94.5621044,103.052773 92.3786822,99.9670208 90.6310772,94.6652064 Z" id="Path-10" fill="#000000" fill-rule="nonzero" opacity="0.3"></path>
                </g>
            </g>
        </g>
    </g>
</svg>