<?xml version="1.0" encoding="UTF-8"?>
<svg width="480px" height="300px" viewBox="0 0 480 300" version="1.1" xmlns="http://www.w3.org/2000/svg" xmlns:xlink="http://www.w3.org/1999/xlink">
    <!-- Generator: Sketch 50.2 (55047) - http://www.bohemiancoding.com/sketch -->
    <title>Avatars</title>
    <desc>Created with Sketch.</desc>
    <defs></defs>
    <g id="Avatars" stroke="none" stroke-width="1" fill="none" fill-rule="evenodd">
        <rect id="Frame" fill="#E6E6E6" x="0" y="0" width="480" height="300"></rect>
        <g id="Half-Orc" transform="translate(120.000000, 29.000000)">
            <g id="Female" transform="translate(12.000000, 0.000000)">
                <path d="M0,270.72231 C2.44388291,241.733142 4.24885458,223.402662 5.41491501,215.730872 C6.25162886,210.225931 4.86309773,204.535422 5.43708911,198.99056 C6.59536042,187.801448 43.3960515,164.501683 48.8318011,160.700727 C53.6942124,157.300678 58.4353574,153.539886 63.7682743,151.121011 C68.8040802,148.836898 75.9490742,151.125709 79.62719,146.732727 C82.5294565,143.266386 83.5835911,137.646429 82.7895937,129.872856 C75.9690606,107.970381 72.1613661,95.4018645 71.3665103,92.167306 C70.1805744,87.3413002 67.1038866,72.1636115 67.3848887,58.216261 C67.4370031,55.6295961 64.3947827,44.7268142 64.6487719,42.2678243 C65.8059112,31.0650112 72.0528578,30.0351502 75.0593255,26.9458058 C88.5099886,13.1243601 139.962102,-0.603036304 152.73963,24.4928179 C160.338871,39.418198 167.031667,90.8713221 160.367751,105.550637 C151.093848,125.979248 144.846327,123.743476 151.093848,126.006716 L152.246901,136.888172 C160.670661,139.939781 162.982921,136.562442 171.840399,137.188142 C187.027469,138.260971 184.24937,138.043021 199.966721,146.791291 C216.439347,155.959947 235.015488,157.090181 241.533592,179.395687 C245.664325,193.531404 240.453768,213.220408 242.167771,225.407352 C243.126417,232.223534 244.070493,247.32852 245,270.72231 L200.183332,270.72231 L15.3444766,270.72231 L0,270.72231 Z" id="body" fill="{skin-color}"></path>
                <polygon id="armpit-l" fill="#000000" opacity="0.5" points="45.4830194 270.174686 53.9083904 228.642594 53.9083904 270.174686"></polygon>
                <polygon id="armpit-r" fill="#000000" opacity="0.5" transform="translate(197.751498, 249.286371) scale(-1, 1) translate(-197.751498, -249.286371) " points="193.538813 270.052417 201.964184 228.520325 201.964184 270.052417"></polygon>
                <path d="M127.171944,240.916962 C135.817013,262.327488 144.949433,268.382646 163.769808,268.382646 C188.071714,268.382646 200.863656,249.481827 190.496172,225.765325 C185.800978,219.494592 182.215402,213.397565 179.740614,207.473214 L180.663341,207.087762 C183.110629,212.946279 186.666157,218.988021 191.331102,225.211952 C202.091501,249.720648 188.803114,269.382646 163.769808,269.382646 C144.23618,269.382646 134.755092,262.881275 125.834447,240.262772 C124.420212,245.981162 123.319861,249.696224 122.521347,251.435577 C117.967457,261.355039 103.395709,268.981378 88.4377641,269.564381 C71.6516178,270.21864 58.5069923,262.190668 54.3562989,246.062374 C53.0093768,240.828657 52.8863432,236.754097 53.7312896,232.179964 C53.9654505,230.91233 54.2683221,229.607576 54.707513,227.918523 C54.8827389,227.244634 55.706207,224.177579 55.9335311,223.302912 C56.1588256,222.436053 56.0515696,220.674669 55.5930473,216.088445 C55.1176699,211.332994 55.0110493,209.553991 55.2740613,208.461123 L56.2463023,208.695105 C56.0240989,209.618405 56.1331547,211.438038 56.5812799,215.920877 C57.0698901,220.808049 57.1733944,222.507822 56.9013777,223.554453 C56.6727119,224.434283 55.8492237,227.501413 55.6753303,228.170177 C55.2416456,229.838054 54.943769,231.12129 54.7146529,232.361614 C53.8958539,236.794197 54.0144485,240.721749 55.3247423,245.813141 C59.3475123,261.444364 72.050076,269.20235 88.3988175,268.56514 C103.012967,267.995537 117.235885,260.551763 121.612542,251.018357 C122.335484,249.443618 123.347685,246.071309 124.638973,240.924756 L124.524663,240.911003 C125.292433,234.529431 124.373162,224.401943 122.592481,219.756187 L123.52624,219.398285 C125.049042,223.371239 125.951216,231.083656 125.775823,237.329362 L125.989037,237.887899 C125.741294,231.550211 126.651364,223.49054 128.219892,219.398285 L129.153651,219.756187 C127.37297,224.401943 126.4537,234.529431 127.22147,240.911003 L127.171944,240.916962 Z" id="breast" fill="#000000" fill-rule="nonzero" opacity="0.3"></path>
                <path d="M81.2417227,98.0793439 L82.0916106,97.5523803 C82.6712001,98.4871434 83.1984233,99.5255308 83.9548897,101.159489 C84.0830244,101.436258 84.5893898,102.539776 84.7154222,102.812109 C86.4366292,106.531314 87.6216934,108.448308 89.2677421,109.712641 C91.7042468,111.584124 94.0633779,113.509239 96.8641817,115.881664 C97.5019262,116.421866 102.022727,120.291319 103.205595,121.279638 C107.649125,124.99233 110.230984,126.705555 112.238655,127.083205 C124.537574,129.396674 130.29707,129.04544 134.492792,125.475831 C139.857277,120.91187 153.989317,98.739362 156.155795,93.2393321 L157.086215,93.6058272 C154.864387,99.2463741 140.646793,121.553113 135.140782,126.23748 C130.642192,130.06476 124.629229,130.431452 112.053794,128.06597 C109.811201,127.64413 107.149102,125.877661 102.564417,122.04703 C101.376085,121.054145 96.8515478,117.181495 96.2178404,116.644712 C93.4282082,114.28175 91.0807179,112.366135 88.6585939,110.505697 C86.8404716,109.109194 85.5964416,107.096815 83.8078951,103.232102 C83.6809459,102.957789 83.1746211,101.854359 83.0474237,101.579614 C82.3068509,99.9799863 81.7944262,98.9707451 81.2417227,98.0793439 Z" id="jaw" fill="#000000" fill-rule="nonzero" opacity="0.3"></path>
                <path d="M142.870791,5.8149954 C143.487683,5.31820517 144.132129,4.85153599 144.800139,4.41253017 C162.858923,13.1219989 153.745997,19.5510553 161.799349,34.7373761 C167.206502,44.9337208 164.683095,56.0019053 171.681388,75.2520166 C182.037509,103.738464 176.91341,106.028202 178.681345,127.207524 C178.695908,127.381992 179.495244,135.29238 184.071195,142.036982 C185.362626,143.940452 188.207136,145.900756 192.604724,147.917893 L177.180789,146.019452 C173.215217,145.336317 170.261457,145.336317 168.31951,146.019452 C167.30491,146.376366 165.439493,145.483504 164.356772,152.534632 C163.697031,156.831137 162.951216,167.604371 162.119329,184.854334 L153.705116,136.853659 C150.239811,135.652669 148.451023,134.563895 148.338751,133.587335 C146.900795,121.079751 146.900795,121.079751 148.338751,110.461065 C150.625284,93.5760145 157.176174,78.6264872 154.054834,56.0994823 C151.997171,41.2491296 136.044699,36.7501918 135.366558,24.244093 C135.1858,20.9106159 135.526139,18.0144349 136.282416,15.4908086 C127.780791,14.9468335 126.775544,14.9417145 117.309346,16.5878759 C111.655322,17.5711045 81.9224973,25.1322941 78.5681945,38.4764017 C77.5418961,42.5592279 78.3181681,55.0136588 75.9512155,51.5752926 C72.6592707,46.7932314 64.0441395,44.0150953 65.1585839,47.0429353 C65.836072,48.8836065 68.0160385,52.0719829 68.6195371,56.1291892 C69.0087727,58.7459458 69.7384479,61.0366867 69.7385469,63.5696766 C69.7387936,69.887786 71.6660961,71.2714034 72.7758321,72.1709516 C74.3552085,73.4511887 75.4258053,72.6045959 76.7626682,73.7798717 C78.4940207,75.3019552 77.8804703,76.6442607 78.7454343,80.2321969 C81.7795384,92.8178904 83.2298336,93.9750178 87.3709079,103.813824 C97.2374492,127.255804 91.4555021,112.300746 95.5073409,143.085432 C98.1998123,163.542043 91.2627115,153.938594 88.5900468,175.850757 C87.0993567,188.072359 89.1582645,200.82257 86.069923,212.712026 C84.2693295,219.643926 79.7509968,230.064498 80.3092083,238.559078 C81.1919881,251.992775 77.5914573,261.043789 72.667771,264.463335 C68.3795553,267.441541 56.1912727,269.437997 66.7192138,262.841413 L68.9251653,254.504525 C70.6778314,246.10287 69.5888243,239.53281 70.8177567,231.030294 C71.7364593,224.674139 74.7451302,218.712829 75.2301721,212.30573 C75.3224128,211.087288 72.7413047,212.871716 72.1145634,213.900287 C68.1055497,220.479648 64.0357115,227.201709 61.641136,234.607266 C59.3990469,241.541238 59.4300911,263.538268 58.4014786,256.309906 C56.2588113,241.252753 55.3456583,227.937208 56.004884,212.706196 C56.1421841,209.533959 58.2895947,204.895745 59.4988432,201.380267 C60.0194237,199.866856 62.2385367,197.369231 60.9575024,197.254513 C58.1333802,197.00161 55.0526332,202.157966 52.1977734,204.102276 C37.573486,214.062185 25.3983629,239.95535 43.2089042,198.287707 C44.9795433,194.145308 49.3427687,189.619305 50.1766091,186.6191 C50.4161022,185.75739 53.4160306,183.838109 52.2218215,183.547306 C45.9551429,182.021305 38.6608782,199.332357 35.0769422,203.205011 C24.9374004,214.161384 27.2127245,220.427575 32.5019049,185.692808 L36.6668788,172.867215 C44.4087006,152.99035 59.031988,137.041955 63.97841,115.905041 C66.9321219,103.28332 64.5065383,92.5223136 64.0411307,79.461577 C62.5225473,36.8455622 62.1737635,2.14298275 106.969507,0.990659337 C113.364645,0.826151136 131.749706,-1.24475272 141.874663,4.56905526 C142.070073,4.68126099 142.428098,5.14017531 142.870791,5.8149954 Z" id="hair" fill="{hair-color}"></path>
                <path d="M183.243677,142.598421 C181.169987,139.541961 179.690417,136.056864 178.70085,132.421073 C178.352339,131.140597 178.089425,129.927392 177.900365,128.817725 C177.782199,128.124163 177.705273,127.535838 177.684811,127.290709 C177.228268,121.821469 177.189113,118.157037 177.355912,111.668065 C177.418723,109.224517 177.436014,108.415379 177.443273,107.212742 C177.499433,97.9084906 176.010277,90.0862569 170.741567,75.5936843 C167.624344,67.0191798 166.704773,62.4748082 164.905663,50.006304 C163.842579,42.6387405 162.960856,39.0621064 160.915887,35.2058788 C158.302909,30.2785486 157.539514,27.2412004 156.601409,20.5344439 C155.855546,15.2020708 155.038105,13.0061685 152.21809,10.3430975 C150.521152,8.74060078 148.141348,7.17635189 144.879944,5.56428664 C144.399746,5.89560685 143.939072,6.23864617 143.498006,6.59384201 L142.639368,7.2853129 L142.034654,6.36351545 C141.677,5.81832596 141.370859,5.43289971 141.37671,5.43625908 C137.767671,3.3639286 132.791499,2.18207786 126.661153,1.7230241 C122.21561,1.39013202 117.884452,1.44101875 111.971162,1.74867025 C111.443458,1.77612516 109.602305,1.87581632 109.211305,1.89609964 C108.249371,1.94600047 107.570694,1.97552525 106.995223,1.99032864 C86.3428051,2.52159038 74.6707072,10.152117 69.0733956,25.0293688 C66.9009216,30.8036485 65.6374165,36.8767424 65.0361241,45.0234809 C65.254654,44.9184561 65.5054549,44.8454119 65.7838898,44.809489 C66.6755336,44.6944515 67.8932348,44.9316396 69.2550042,45.4445893 C71.9954889,46.4768719 74.7667709,48.3775087 76.446448,50.5578755 C76.6550221,49.5172353 76.7605107,48.1748914 76.9263369,45.0489666 C77.1355886,41.1179641 77.2776444,39.50851 77.5983653,38.2326162 C79.188241,31.9077632 86.1254883,26.5180697 96.6812803,21.9781687 C103.764113,18.93194 112.377615,16.4304909 117.138019,15.6026618 C126.429831,13.9868257 127.512741,13.9276375 136.34627,14.4928493 L137.601355,14.5731557 L137.240327,15.777874 C136.496421,18.2602208 136.195083,21.0547073 136.365091,24.1899477 C136.603429,28.5853186 138.575862,31.8612288 143.280063,36.8773692 C143.770051,37.3998485 145.532843,39.2502022 145.534301,39.2517404 C151.505832,45.5521028 154.181707,49.7290892 155.045371,55.9622337 C156.87522,69.1684277 155.928175,78.2833663 152.213541,95.444131 C151.468507,98.8860193 151.406948,99.1720394 151.125486,100.519451 C150.30359,104.454026 149.742711,107.545395 149.329706,110.595257 C148.496681,116.74679 148.313098,118.390207 148.267269,120.631123 C148.212663,123.301272 148.382051,125.208505 149.332207,133.47312 C149.378779,133.878204 150.972494,134.848244 154.032582,135.908796 L154.588509,136.101466 L161.571229,175.935883 C162.225999,163.770282 162.823732,155.929679 163.368357,152.382858 C163.864842,149.149542 164.564199,147.215296 165.544246,146.173792 C166.1939,145.4834 166.728592,145.281517 167.710633,145.130443 C170.124421,144.324453 173.231853,144.324453 177.302951,145.026942 L187.374269,146.266561 C185.454854,145.047274 184.079037,143.829678 183.243677,142.598421 Z M65.0404964,79.4259655 C65.1444303,82.3426626 65.3135693,84.8107795 65.6903483,89.4319811 C66.1412512,94.9623155 66.2769902,96.8830697 66.3695389,99.6815709 C66.5703695,105.754313 66.1785949,110.891893 64.9521034,116.132903 C62.5635518,126.339596 58.9060836,133.934124 50.0469237,149.134996 C49.8035135,149.552597 49.8035135,149.552597 49.5601144,149.97011 C43.0481217,161.14085 40.2606939,166.395554 37.6179857,173.176077 L33.4782032,185.924096 C32.2563512,193.935028 30.5064002,203.465545 29.5994097,208.338283 C31.1838499,206.161078 32.523026,204.492389 34.3430063,202.525793 C34.9554451,201.864016 35.7434458,200.707082 36.9013121,198.809436 C37.1899016,198.336462 39.535777,194.40385 40.2906933,193.18253 C43.042236,188.731023 45.2280903,185.83646 47.4277883,184.098694 C49.1407532,182.745448 50.8195762,182.176623 52.4584182,182.575699 C53.6204599,182.858668 53.7477435,183.905948 53.174418,184.745074 C52.9415121,185.085958 52.6945818,185.340722 52.0230872,185.9835 C51.4355284,186.545974 51.1451989,186.868495 51.1400897,186.886878 C50.704729,188.45333 50.3088291,189.077605 47.2093541,193.5345 C46.4256772,194.66139 45.8824381,195.477552 45.3948452,196.279569 C44.8615524,197.156755 44.4421371,197.94682 44.1284245,198.680749 C40.2290117,207.803399 38.0714155,212.980101 36.7871033,216.329811 C36.42407,217.276665 36.1328407,218.073753 35.9091729,218.732386 C36.2166806,218.395721 36.5764796,217.99257 37.0085005,217.502179 C37.1967493,217.288497 37.3939039,217.063857 37.6721433,216.746228 C38.0210484,216.347794 38.2112399,216.130631 38.3862531,215.931058 C38.9912015,215.241218 39.4682906,214.700788 39.953811,214.15709 C41.2356415,212.721663 42.3992898,211.464642 43.5687134,210.266301 C46.3885935,207.376692 49.0395619,205.043295 51.6348686,203.275754 C52.4330062,202.732181 53.0994122,202.084116 54.7295906,200.352018 C55.1280128,199.928686 55.3438671,199.701028 55.58734,199.449195 C57.8281376,197.131454 59.320911,196.103953 61.0466966,196.258499 C62.2664474,196.367729 62.5715945,197.370295 62.1993868,198.393805 C62.0330174,198.851294 61.8729767,199.137963 61.229801,200.212647 C60.7510607,201.018129 60.5468619,201.407851 60.4444634,201.70554 C60.2655421,202.225692 60.0606511,202.788091 59.7981726,203.485376 C59.6433829,203.896581 59.068962,205.402502 59.0892637,205.349076 C58.8869932,205.881373 58.726398,206.309547 58.5753977,206.721114 C57.5773401,209.441424 57.0663683,211.307268 57.0039486,212.749437 C56.4569642,225.387184 56.9680538,236.98341 58.6036078,250.248101 C58.7641306,248.163763 58.9268375,246.062688 59.0151684,245.077815 C59.4671767,240.038004 59.9835112,236.483406 60.6896411,234.299602 C62.7209614,228.017461 65.2639506,223.221307 71.2606062,213.379944 C71.6622649,212.720765 72.5711923,211.910781 73.4318312,211.400296 C73.9352725,211.101682 74.3915708,210.919039 74.8201441,210.89747 C75.6800328,210.854195 76.2943238,211.496123 76.2273188,212.381218 C76.004098,215.329825 75.4248793,217.737091 73.9747352,222.537281 C72.6309671,226.982516 72.1448877,228.838894 71.807472,231.173345 C71.3555182,234.300242 71.2233387,236.60907 71.0967899,241.685638 C71.0791405,242.393651 71.0705015,242.730152 71.0592465,243.134911 C70.9236105,248.012731 70.6519134,251.123948 69.8918955,254.760323 L67.584902,263.479077 L67.2501744,263.68881 C65.4897019,264.791884 64.3489987,265.676114 63.83223,266.240888 C63.9182067,266.244265 64.0133977,266.245269 64.1167876,266.243134 C66.3007897,266.198033 70.2049105,264.9563 72.0973392,263.64199 C77.1249344,260.150278 80.1149494,250.85326 79.3113605,238.624651 C79.1206989,235.723259 79.4795956,232.493328 80.3140812,228.787489 C80.8558889,226.381394 81.5471709,223.951565 82.5719434,220.705051 C82.7981998,219.988263 83.7382239,217.05658 83.9677313,216.32695 C84.4683122,214.735546 84.8230758,213.534577 85.1020427,212.460614 C86.5972435,206.704411 86.9104864,201.918353 86.9474036,190.981746 C86.9491447,190.465908 86.9499501,190.236422 86.9510717,189.949683 C86.9768756,183.352961 87.110347,179.722873 87.5974034,175.729683 C88.337783,169.659591 89.4298393,165.56866 90.9514579,162.371096 C91.3303418,161.574901 91.7226326,160.855373 92.2044367,160.047936 C92.3719672,159.767178 93.1298646,158.534225 93.3201638,158.210445 C95.2488901,154.928859 95.642676,151.776903 94.5158917,143.215926 C93.6264871,136.45849 93.1445578,131.457982 92.9156579,127.31363 C92.8350676,125.8545 92.7017835,121.592794 92.6242928,120.792489 C92.3807182,118.276911 92.4543261,118.469327 86.4492195,104.201755 C85.317923,101.5139 82.4804558,95.2403061 82.2493419,94.7018862 C81.6784167,93.3718169 81.2008493,92.1654549 80.7410072,90.8731703 C79.7721406,88.150385 78.8551003,84.9540112 77.7732848,80.4665585 C77.6146196,79.8084034 77.494356,79.1870795 77.3937257,78.5387057 C77.3546564,78.2869772 77.3196749,78.039414 77.2812894,77.7489323 C77.2648581,77.624589 77.2064809,77.171348 77.1928322,77.0682988 C77.0219471,75.778104 76.8677062,75.3230171 76.378687,74.7977862 C76.2971813,74.7102451 76.2055173,74.6215551 76.1024087,74.5309093 C75.8244971,74.2865889 75.5777716,74.1692665 75.2315379,74.0926161 C75.11023,74.0657606 74.9989066,74.0469275 74.7592366,74.0108429 C73.602117,73.8366276 72.9859339,73.6285305 72.1461305,72.9477888 C71.4572062,72.3893491 71.2562244,72.2116819 70.8789681,71.7704304 C69.4864428,70.1416864 68.7387056,67.6355271 68.7385469,63.5697157 C68.7385113,62.6581369 68.6396354,61.7332146 68.438701,60.5916673 C68.3523073,60.1008477 68.3072017,59.8716949 68.0797227,58.7438673 C67.8568336,57.6387962 67.738632,57.0038079 67.6304197,56.2763178 C67.3761021,54.5665886 66.8240878,52.9314024 65.9587643,51.0654325 C65.9010047,50.9408806 65.3012448,49.7310021 64.8153317,48.7087567 C64.4422253,56.623582 64.5774041,66.4302016 65.0404964,79.4259655 Z M144.800139,4.41253017 C162.858923,13.1219989 153.745997,19.5510553 161.799349,34.7373761 C167.206502,44.9337208 164.683095,56.0019053 171.681388,75.2520166 C182.037509,103.738464 176.91341,106.028202 178.681345,127.207524 C178.695908,127.381992 179.495244,135.29238 184.071195,142.036982 C185.362626,143.940452 188.207136,145.900756 192.604724,147.917893 L177.180789,146.019452 C173.215217,145.336317 170.261457,145.336317 168.31951,146.019452 C167.30491,146.376366 165.439493,145.483504 164.356772,152.534632 C163.697031,156.831137 162.951216,167.604371 162.119329,184.854334 L153.705116,136.853659 C150.239811,135.652669 148.451023,134.563895 148.338751,133.587335 C146.900795,121.079751 146.900795,121.079751 148.338751,110.461065 C150.625284,93.5760145 157.176174,78.6264872 154.054834,56.0994823 C151.997171,41.2491296 136.044699,36.7501918 135.366558,24.244093 C135.208876,21.3361683 135.447736,18.7610156 136.013331,16.4756579 C136.13353,16.0056758 136.205841,15.7463325 136.282416,15.4908086 C136.010478,15.4734086 135.74621,15.4565601 135.489089,15.4402992 C127.68252,14.9492649 126.381776,15.0101902 117.309346,16.5878759 C111.655322,17.5711045 81.9224973,25.1322941 78.5681945,38.4764017 C77.5418961,42.5592279 78.3181681,55.0136588 75.9512155,51.5752926 C72.6592707,46.7932314 64.0441395,44.0150953 65.1585839,47.0429353 C65.836072,48.8836065 68.0160385,52.0719829 68.6195371,56.1291892 C69.0087727,58.7459458 69.7384479,61.0366867 69.7385469,63.5696766 C69.7387936,69.887786 71.6660961,71.2714034 72.7758321,72.1709516 C74.3552085,73.4511887 75.4258053,72.6045959 76.7626682,73.7798717 C78.4940207,75.3019552 77.8804703,76.6442607 78.7454343,80.2321969 C81.7795384,92.8178904 83.2298336,93.9750178 87.3709079,103.813824 C97.2374492,127.255804 91.4555021,112.300746 95.5073409,143.085432 C98.1998123,163.542043 91.2627115,153.938594 88.5900468,175.850757 C87.0993567,188.072359 89.1582645,200.82257 86.069923,212.712026 C84.2693295,219.643926 79.7509968,230.064498 80.3092083,238.559078 C81.1919881,251.992775 77.5914573,261.043789 72.667771,264.463335 C68.3795553,267.441541 56.1912727,269.437997 66.7192138,262.841413 L68.9251653,254.504525 C70.6778314,246.10287 69.5888243,239.53281 70.8177567,231.030294 C71.7364593,224.674139 74.7451302,218.712829 75.2301721,212.30573 C75.3224128,211.087288 72.7413047,212.871716 72.1145634,213.900287 C68.1055497,220.479648 64.0357115,227.201709 61.641136,234.607266 C59.3990469,241.541238 59.4300911,263.538268 58.4014786,256.309906 C56.2588113,241.252753 55.3456583,227.937208 56.004884,212.706196 C56.1421841,209.533959 58.2895947,204.895745 59.4988432,201.380267 C60.0194237,199.866856 62.2385367,197.369231 60.9575024,197.254513 C58.1333802,197.00161 55.0526332,202.157966 52.1977734,204.102276 C37.573486,214.062185 25.3983629,239.95535 43.2089042,198.287707 C44.9795433,194.145308 49.3427687,189.619305 50.1766091,186.6191 C50.4161022,185.75739 53.4160306,183.838109 52.2218215,183.547306 C45.9551429,182.021305 38.6608782,199.332357 35.0769422,203.205011 C24.9374004,214.161384 27.2127245,220.427575 32.5019049,185.692808 L36.6668788,172.867215 C44.4087006,152.99035 59.031988,137.041955 63.97841,115.905041 C66.9321219,103.28332 64.5065383,92.5223136 64.0411307,79.461577 C62.5225473,36.8455622 62.1737635,2.14298275 106.969507,0.990659337 C113.364645,0.826151136 131.749706,-1.24475272 141.874663,4.56905526 C141.974764,4.62653402 142.117538,4.77499351 142.292505,4.99685067 C142.281617,5.00557282 142.474379,5.27828773 142.870791,5.8149954 L143.706929,5.26647534 C144.035002,4.92981224 144.413626,4.6665406 144.800139,4.41253017 Z" id="hair-outline" fill="#000000" fill-rule="nonzero" opacity="0.05"></path>
            </g>
        </g>
    </g>
</svg>