<?xml version="1.0" encoding="UTF-8"?>
<svg width="480px" height="300px" viewBox="0 0 480 300" version="1.1" xmlns="http://www.w3.org/2000/svg" xmlns:xlink="http://www.w3.org/1999/xlink">
    <!-- Generator: Sketch 50.2 (55047) - http://www.bohemiancoding.com/sketch -->
    <title>Artboard</title>
    <desc>Created with Sketch.</desc>
    <defs></defs>
    <g id="Artboard" stroke="none" stroke-width="1" fill="none" fill-rule="evenodd">
        <rect id="Frame" fill="#E6E6E6" x="0" y="0" width="480" height="300"></rect>
        <g id="Avatars" transform="translate(87.000000, 27.000000)">
            <g id="Halfling" transform="translate(44.000000, 23.000000)">
                <g id="Female" transform="translate(0.000000, 2.000000)">
                    <path d="M4.38487153,248 C6.98312758,220.100732 8.90211418,202.45942 10.1418313,195.076064 C11.031398,189.778092 9.55515733,184.301528 10.1654061,178.965136 C11.3968421,168.196698 18.9295052,143.621217 24.7086157,139.963164 C29.8781717,136.690946 45.8128093,135.223262 51.4825914,132.895329 C56.8364948,130.697092 81.8632306,127.520565 85.7736825,123.292745 C88.8592769,119.956727 88.2724697,111.873325 84.0132609,99.0425376 C70.7354774,83.313002 63.6740534,73.8917596 62.8289888,70.7788102 C61.5790613,66.1744746 58.9446653,52.3175977 58.6881929,39.7966578 C58.4193778,26.6731501 62.7982349,21.4129017 66.7289756,17.7566199 C81.0292788,4.45481663 122.02442,-8.69465667 135.609067,15.4576732 C140.753976,24.6048755 144.763271,38.5110689 146.558177,58.4751106 C147.581887,69.861436 144.404671,85.938912 141.490855,89.5121202 C140.246011,91.0386707 137.358808,94.6424042 135.609067,94.6424042 C134.442574,94.6424042 134.442574,96.4677344 135.609067,100.118395 L139.013757,119.197599 C147.969622,122.134478 155.914003,128.049784 165.291924,129.169007 C196.514601,132.895329 185.620593,131.356306 204.526613,149.348395 C214.944773,159.262934 219.719591,192.659986 221.541864,204.38874 C222.561064,210.948655 225.380443,225.485742 230,248 L196.514601,248 L0,248 L4.38487153,248 Z" id="Path-3" fill="#E1B499"></path>
                    <polygon id="Path-6" fill="#000000" opacity="0.5" points="42 248 50 208 50 248"></polygon>
                    <polygon id="Path-6" fill="#000000" opacity="0.5" transform="translate(189.000000, 228.000000) scale(-1, 1) translate(-189.000000, -228.000000) " points="185 248 193 208 193 248"></polygon>
                    <path d="M160.84644,245.021115 C167.436535,244.317934 174.773841,240.175026 179.558277,233.854078 C185.398609,226.138134 187.192327,215.896379 183.795673,203.736409 C182.903322,200.541803 182.091303,198.523432 181.135864,196.921681 C180.808918,196.373572 180.487666,195.901715 179.989886,195.218774 C177.834632,192.26182 177.056423,190.947178 175.580263,187.182525 L176.511251,186.817475 C177.951369,190.490211 178.688842,191.736036 180.798005,194.629755 C181.312302,195.335357 181.649094,195.83004 181.994681,196.409399 C182.999977,198.094731 183.844242,200.193255 184.758805,203.467377 C188.238088,215.92316 186.387735,226.488286 180.355621,234.457602 C175.404463,240.998817 167.816908,245.283023 160.95254,246.015471 C141.264755,248.116213 128.354729,239.445903 121.829575,218.549001 C121.748314,219.399684 121.645344,220.077659 121.514481,220.581417 C117.067106,237.70157 103.520958,248.816338 88.2481709,249.470747 C72.6270776,250.14008 59.5475736,239.759947 55.5392994,221.262038 C53.9912663,214.117973 54.2121101,207.807386 55.8544613,199.875607 C56.1272003,198.558406 56.4389053,197.185184 56.8330865,195.542317 C56.9875951,194.898357 57.1486235,194.237789 57.3653525,193.356303 C57.3418286,193.45198 57.7858596,191.648764 57.909424,191.144291 C58.3238438,189.45235 58.629265,188.169658 58.9183809,186.889825 L59.893802,187.110175 C59.603131,188.39689 59.29644,189.684916 58.8807125,191.382196 C58.756975,191.887376 58.3127734,193.691284 58.3364319,193.595059 C58.1201104,194.474889 57.9594824,195.133814 57.8054881,195.775631 C57.4135515,197.409142 57.1040441,198.772683 56.83369,200.078365 C55.2175564,207.883526 55.0014763,214.05799 56.5166182,221.050265 C60.4229931,239.077915 73.0764237,249.119909 88.2053621,248.471664 C103.035957,247.836202 116.209004,237.027568 120.546605,220.329987 C120.772137,219.461806 120.915964,217.913241 121.002618,215.766827 C119.848215,211.455427 118.931243,206.731757 118.250839,201.535324 L119.221581,201.314205 L122.04032,209.885203 C122.133821,209.962721 122.174627,210.036959 122.210045,210.13338 C122.256008,210.258515 122.293111,210.46699 122.339872,210.824116 C122.126333,211.144377 122.114591,211.545573 122.101756,212.116001 C122.103825,212.024076 122.073911,213.413518 122.063423,213.842163 C122.047416,214.496345 122.030157,215.072114 122.009211,215.618873 C128.11487,237.983649 140.871796,247.152466 160.84644,245.021115 Z M122.165632,210.48001 C122.167996,210.47414 122.168622,210.469686 122.169486,210.46332 C122.16909,210.466241 122.168695,210.469222 122.168302,210.472263 L122.165632,210.48001 Z M121.278126,210.504071 C121.275342,210.491498 121.273064,210.482797 121.271365,210.478172 C121.271962,210.479797 121.272563,210.481415 121.27317,210.483027 L121.278126,210.504071 Z M121.166835,210.430112 L120.169624,207.397875 C120.455534,208.982143 120.767032,210.514299 121.104254,211.994803 C121.123663,211.152144 121.140348,210.696449 121.166835,210.430112 Z" id="Path-7" fill="#000000" fill-rule="nonzero" opacity="0.3" transform="translate(120.498282, 218.159357) rotate(2.000000) translate(-120.498282, -218.159357) "></path>
                    <path d="M138.172464,10.8166696 C147.506604,18.1664947 141.528713,23.3745282 146.863996,36.9072064 C150.733727,46.7225847 147.74621,51.009754 152.75467,69.540623 C160.166224,96.9627305 164.254768,110.915666 167.529634,117.408269 C168.45387,119.24062 171.277326,123.585736 176,130.443617 L157.872013,128.616107 C155.033977,127.958496 152.920063,127.958496 151.530272,128.616107 C150.804154,128.959686 149.469134,128.100184 148.694264,134.88786 C148.222107,139.023835 147.688351,149.394548 147.092995,166 L141.071206,123.479858 C138.591195,119.865686 137.311015,117.588564 137.230665,116.648491 C136.453771,107.558986 133.900188,99.186245 134.296289,94.2424082 C134.424877,92.6374736 139.341645,88.2882287 139.593851,85.7830955 C141.230251,69.528922 143.555333,74.0180407 141.321488,52.3327129 C139.848883,38.0372142 137.6202,35.2133187 137.134876,23.1744855 C136.991855,19.626747 136.159762,17.274051 135.388828,15.5258144 C120.677833,14.6703406 121.619366,14.2546713 110.403132,16.1693363 C104.879064,17.1123213 75.8313809,24.3740575 72.5634824,37.2255087 C71.5636208,41.1575995 72.6804603,48.1873588 70.0133014,46.6108242 C68.5903264,45.769716 66.9008711,43.8812946 65.4012336,43.074775 C63.6436843,42.1295479 62.1224663,42.2313561 61.2312887,40.673528 C59.5797094,37.7864754 60.3460278,49.2199474 60.9598687,52.4425567 C61.5087341,55.3240503 62.4102688,56.1689341 62.8590989,59.2360144 C63.4007047,62.9370777 67.980671,64.549253 68.9345168,65.0892004 C71.5359567,66.5618079 71.3469665,60.0250735 72.7828896,65.8797396 C75.7568199,78.0052971 77.1748085,79.120974 81.2284026,88.601361 C90.8865134,111.189372 85.2258217,96.779486 89.2074966,126.43622 C91.8533437,146.143298 85.0678057,136.887583 82.4722135,157.99283 C81.0245109,169.764371 83.0456557,182.047692 80.0365783,193.498123 C78.2821981,200.17406 73.8747446,210.208525 74.426392,218.391455 C75.2987911,231.332295 71.7871616,240.048184 66.9785141,243.338518 C62.7904897,246.204189 50.8822606,248.118414 61.1647449,241.771841 L63.3141928,233.742826 C65.0206693,225.651093 63.9517627,219.321597 65.1464032,211.132326 C66.0394706,205.010342 68.9750221,199.270221 69.444304,193.098847 C69.5335477,191.925233 67.0127395,193.642226 66.4010743,194.632555 C62.4884965,200.967291 58.5165885,207.439442 56.1821488,214.571202 C53.9963661,221.248811 54.0427438,242.43778 53.0323713,235.474209 C50.927699,220.968634 50.0257073,208.141584 50.658756,193.47058 C50.7906042,190.414978 52.8855469,185.94872 54.0645906,182.563269 C54.572168,181.105835 56.7387353,178.701581 55.486899,178.590143 C52.7271456,178.344471 49.7205784,183.309156 46.9323925,185.179958 C32.6496484,194.763313 20.7717066,219.696385 38.1447484,179.572437 C39.8718935,175.583505 44.1320841,171.226952 44.9446766,168.337571 C45.1780669,167.507691 48.1080238,165.661105 46.9408996,165.380114 C40.8163506,163.905602 33.7014423,180.575394 30.2022517,184.303168 C20.3024684,194.849652 22.5303537,200.887307 27.6733019,167.432416 L31.7337195,155.081023 C39.2840834,135.940002 53.5614827,120.588153 58.3794245,100.231334 C61.2564157,88.0754396 58.8784272,77.7079809 58.4141322,65.1267049 C56.8991792,24.0751272 56.5172931,2.21487957 100.288264,1.13755892 C106.537103,0.983758282 124.500411,-0.997659913 134.398174,4.6099561 C134.946365,4.92053592 136.805209,7.98246255 138.172464,10.8166696 Z" id="Combined-Shape" fill="#000000"></path>
                    <path d="M79.7769141,92.4474737 L80.2230859,91.5525263 C98.6034167,100.715953 124.447752,102.833781 136.691322,93.2255693 L137.308678,94.0122538 C124.691537,103.913626 98.465357,101.764508 79.7769141,92.4474737 Z" id="Path-10" fill="#000000" fill-rule="nonzero" opacity="0.3"></path>
                </g>
            </g>
        </g>
    </g>
</svg>