<?xml version="1.0" encoding="UTF-8"?>
<svg width="480px" height="300px" viewBox="0 0 480 300" version="1.1" xmlns="http://www.w3.org/2000/svg" xmlns:xlink="http://www.w3.org/1999/xlink">
    <!-- Generator: Sketch 50.2 (55047) - http://www.bohemiancoding.com/sketch -->
    <title>Avatars</title>
    <desc>Created with Sketch.</desc>
    <defs></defs>
    <g id="Avatars" stroke="none" stroke-width="1" fill="none" fill-rule="evenodd">
        <rect id="Frame" fill="#E6E6E6" x="0" y="0" width="480" height="300"></rect>
        <g id="Halfling" transform="translate(117.000000, 49.000000)">
            <g id="Female">
                <path d="M5.10932856,252 C8.1368617,223.647085 10.3728983,205.718923 11.8174382,198.215513 C12.8539768,192.831394 11.1338355,187.265781 11.844908,181.842618 C13.2797986,170.899083 22.0569887,145.924001 28.7909087,142.206467 C34.8145653,138.881043 53.3818822,137.389494 59.9884108,135.023709 C66.2268723,132.789728 95.38846,129.56155 99.9449865,125.264985 C103.540375,121.874723 102.856617,113.659883 97.8937127,100.620465 C82.4222085,84.6351647 74.1941144,75.0607313 73.2094304,71.8971649 C71.7529931,67.217962 68.6833491,53.1357701 68.384503,40.4112376 C68.071275,27.0743396 73.1735955,21.7285586 77.7537629,18.0128251 C94.4167249,4.49473234 142.184976,-8.86855353 158.014044,15.6764972 C164.00898,24.9724344 168.680681,39.1047448 170.772137,59.3934051 C171.964982,70.9648739 168.262834,87.3037724 164.867605,90.9350815 C163.417092,92.486454 160.052872,96.1487847 158.014044,96.1487847 C156.654825,96.1487847 156.654825,98.0037951 158.014044,101.713816 L161.981248,121.103251 C172.416777,124.087884 181.673707,130.099374 192.601024,131.236796 C228.982231,135.023709 216.288343,133.459661 238.317967,151.744304 C250.457388,161.820055 256.021089,195.760149 258.144432,207.679614 C259.332022,214.346194 262.617212,229.119656 268,252 L228.982231,252 L0,252 L5.10932856,252 Z" id="body" fill="{skin-color}"></path>
                <polygon id="armpit-l" fill="#000000" opacity="0.5" points="49 252 59 211 59 252"></polygon>
                <polygon id="armpit-r" fill="#000000" opacity="0.5" transform="translate(220.000000, 231.500000) scale(-1, 1) translate(-220.000000, -231.500000) " points="215 252 225 211 225 252"></polygon>
                <path d="M186.262781,248.497275 C193.900581,247.790546 202.404386,243.626738 207.94946,237.273901 C214.718298,229.51903 216.797186,219.225606 212.860525,207.004289 C211.826306,203.793567 210.885192,201.765013 209.777854,200.155182 C209.39893,199.604307 209.026605,199.13007 208.449687,198.443683 C205.951787,195.471812 205.049857,194.150537 203.339014,190.366892 L204.418012,190 C206.087083,193.691265 206.9418,194.943375 209.386282,197.851692 C209.982343,198.560854 210.37268,199.058033 210.773208,199.640315 C211.938328,201.33415 212.916815,203.443261 213.976777,206.7339 C218.009204,219.252522 215.864678,229.870948 208.873568,237.88047 C203.135265,244.454685 194.341427,248.760504 186.38575,249.496647 C163.567965,251.607987 148.605479,242.893936 141.042944,221.89161 C140.948765,222.746585 140.829425,223.42798 140.677756,223.934279 C135.52333,241.140803 119.82359,252.311645 102.122708,252.969355 C84.0181447,253.642065 68.8592375,243.209564 64.2137205,224.618335 C62.4195784,217.438228 62.6755323,211.095804 64.5789875,203.124009 C64.895087,201.800164 65.2563475,200.420014 65.7131962,198.768859 C65.8922689,198.12165 66.0788979,197.45775 66.3300829,196.571816 C66.3028191,196.667976 66.817443,194.855663 66.9606519,194.348645 C67.4409569,192.648168 67.7949344,191.359004 68.1300146,190.072716 L69.2605099,190.294176 C68.9236275,191.587383 68.5681781,192.881907 68.0863575,194.58775 C67.9429481,195.095478 67.4281265,196.908487 67.4555462,196.811777 C67.2048336,197.696045 67.0186686,198.358295 66.8401921,199.003349 C66.3859447,200.645102 66.0272313,202.015521 65.7138957,203.327791 C63.8408262,211.172328 63.5903934,217.377943 65.3464153,224.405493 C69.8738327,242.524092 84.5389287,252.616747 102.073093,251.965231 C119.261483,251.326564 134.528805,240.463401 139.556006,223.681581 C139.817393,222.80902 139.984086,221.252643 140.084517,219.095401 C138.746584,214.762249 137.683831,210.014749 136.895254,204.7921 L138.020326,204.569865 L141.287194,213.184103 C141.39556,213.262012 141.442854,213.336625 141.483902,213.433533 C141.537173,213.559299 141.580174,213.768826 141.634369,214.127753 C141.386882,214.44963 141.373273,214.85285 141.358398,215.426156 C141.360795,215.333768 141.326125,216.730219 141.31397,217.161026 C141.295419,217.818509 141.275415,218.397182 141.251139,218.9467 C148.327486,241.424305 163.112532,250.639379 186.262781,248.497275 Z M141.432428,213.781911 C141.435168,213.776012 141.435894,213.771535 141.436896,213.765137 C141.436436,213.768073 141.435979,213.771069 141.435523,213.774125 L141.432428,213.781911 Z M140.403825,213.806094 C140.400598,213.793457 140.397958,213.784712 140.395989,213.780064 C140.396681,213.781697 140.397378,213.783323 140.398082,213.784944 L140.403825,213.806094 Z M140.27484,213.731762 L139.119092,210.684227 C139.450456,212.276487 139.811476,213.816373 140.202311,215.304346 C140.224805,214.457436 140.244142,213.999442 140.27484,213.731762 Z" id="breast" fill="#000000" fill-rule="nonzero" opacity="0.3" transform="translate(139.500000, 221.500000) rotate(2.000000) translate(-139.500000, -221.500000) "></path>
                <path d="M93,93.8998482 L93.5273553,93 C115.252093,102.213606 145.798955,104.343031 160.270313,94.6822047 L161,95.4731972 C146.087098,105.42879 115.088913,103.267903 93,93.8998482 Z" id="jaw" fill="#000000" fill-rule="nonzero" opacity="0.3"></path>
                <path d="M159.141491,9.83658764 C172.601296,17.9317497 164.564924,23.0184298 171.095702,37.4319614 C175.598739,47.370236 172.122296,51.711084 177.950422,70.4739742 C186.574924,98.239428 191.332585,112.367065 195.143404,118.940961 C196.218898,120.796254 199.50443,125.195774 205,132.139521 L183.905251,130.28913 C180.602752,129.623285 178.142883,129.623285 176.525643,130.28913 C175.680692,130.63701 174.127187,129.766747 173.225504,136.63941 C172.676077,140.82717 172.054968,151.327733 171.362178,168.141099 L164.354884,125.088571 C161.469003,121.429147 159.979314,119.123513 159.885815,118.17167 C158.981776,108.968357 156.010283,100.490783 156.471209,95.4850451 C156.620841,93.8600156 162.34227,89.4563146 162.635751,86.9198152 C164.539958,70.4621266 167.245555,75.0074526 164.646127,53.0506074 C162.93252,38.5761178 160.339099,35.7168649 159.774348,23.527296 C159.621661,20.231702 158.794064,17.9545672 157.965705,16.2341282 C139.700005,15.2074229 141.115336,14.7369943 127.81155,16.6264168 C121.393168,17.5379646 87.6610298,24.6641822 83.961185,37.6560507 C82.829163,41.6311042 84.1838461,48.7606137 81.0688406,47.1426192 C79.4069317,46.2793913 77.4267691,44.3531987 75.6759563,43.5244013 C73.624034,42.5530651 71.8552928,42.6441741 70.8063319,41.0591565 C68.86234,38.1217147 69.8440669,49.7091291 70.583568,52.9782708 C71.2447924,55.9013712 72.3001696,56.7643046 72.8464947,59.8746022 C73.5057482,63.627816 78.8460941,65.2970215 79.959913,65.8514873 C82.9976504,67.3636914 82.7261755,60.7409131 84.4427482,66.6826502 C87.9979298,78.9885399 89.656207,80.1298485 94.4464053,89.7648813 C105.859552,112.721352 99.1609719,98.0803639 104.026883,128.152151 C107.260311,148.135036 99.2939743,138.706001 96.4413813,160.063737 C94.8503355,171.976105 97.2984428,184.434272 93.8886029,196.009043 C91.9005665,202.757474 86.8528916,212.886918 87.5592282,221.18005 C88.6762593,234.295167 84.6602296,243.096056 79.0925968,246.390967 C74.243545,249.260623 60.4065077,251.105545 72.3173985,244.758102 L74.7543065,236.642211 C76.6754359,228.459294 75.3820417,222.039484 76.7070114,213.753723 C77.6975078,207.559607 81.0669248,201.768427 81.5640659,195.520934 C81.6586075,194.332845 78.7398589,196.052135 78.0361666,197.050442 C73.5349279,203.436211 68.9657593,209.960703 66.3065737,217.166271 C63.8167248,223.912989 64.0380447,245.376398 62.8077313,238.314774 C60.2449078,223.604948 59.094352,210.604858 59.7148551,195.749089 C59.8440903,192.655005 62.2457376,188.147525 63.5905098,184.727597 C64.1694331,183.255321 66.670685,180.837082 65.2136156,180.714315 C62.0014127,180.443665 58.5432621,185.448819 55.3147033,187.321795 C38.7761076,196.916289 25.1561275,222.078041 45.0482488,181.572328 C47.0258287,177.545443 51.947051,173.166191 52.8694699,170.245855 C53.1344042,169.407085 56.5280683,167.559756 55.1682004,167.265912 C48.0322177,165.72395 39.8875288,182.553161 35.8465674,186.301513 C24.4140256,196.906215 27.0532878,203.039563 32.7715237,169.192566 L37.3972103,156.713483 C46.0289195,137.384519 62.5157326,121.946874 67.9593688,101.364801 C71.2099878,89.0743987 68.3619183,78.5540557 67.7224512,65.8063766 C65.6359276,24.2118401 65.0190277,2.06581894 115.92677,1.3203098 C123.19447,1.21387929 144.074501,-0.65127611 155.632294,5.10705537 C156.155263,5.36760937 157.710321,7.49518506 159.141491,9.83658764 Z" id="hair" fill="{hair-color}"></path>
                <path d="M195.397706,119.208572 C191.798746,113.004259 187.540368,100.869081 178.11141,70.5339008 C175.54123,62.2650238 174.833157,58.0122353 174.061635,49.5066746 C173.866251,47.3526852 173.72907,46.1363329 173.512453,44.8342972 C173.08914,42.2898617 172.412062,40.0175184 171.256811,37.4695509 C169.063315,32.6316769 168.485925,29.5938014 168.047548,23.570011 C167.739448,19.3363796 167.339689,17.5834533 165.865556,15.4651745 C164.865015,14.0274305 163.394169,12.6415604 161.294725,11.204092 C159.599616,8.26712725 157.446048,5.18595693 156.963077,4.94802457 C152.760704,2.87775407 147.01107,1.70330657 139.945855,1.24473989 C134.838407,0.913241739 129.876021,0.960318656 123.092901,1.25872986 C122.502649,1.28469692 120.411744,1.38039213 119.958484,1.40024162 C118.87122,1.44785598 118.103566,1.47595917 117.455135,1.48983674 C93.003167,2.01315264 79.8987446,7.32629133 73.7102709,18.4601356 C68.6048529,27.6454261 67.9584318,37.7729916 69.1522903,65.9033222 C69.273645,68.7627459 69.4691093,71.1818395 69.9029682,75.70222 C70.4223664,81.1138362 70.5784182,82.9875789 70.6856873,85.7176688 C70.9172196,91.6103562 70.477893,96.5896073 69.0964919,101.664881 C66.3971953,111.582109 62.2497414,118.972878 52.1849627,133.788622 C51.9082541,134.195898 51.9082541,134.195898 51.63152,134.603144 C44.2002092,145.539608 41.0166835,150.689138 37.9845709,157.370764 L33.2680358,169.824223 C31.6510792,178.970349 29.1773752,190.289867 28.4052974,193.887216 C28.5615272,193.70113 28.7523561,193.472049 28.9901601,193.185876 C31.1875588,190.541532 32.839701,188.723665 35.2173417,186.521147 C35.9480892,185.844222 36.8595047,184.696539 38.196962,182.816176 C38.5285359,182.350009 41.1986322,178.510015 42.0554012,177.320951 C45.1758414,172.990257 47.6505583,170.18435 50.1045214,168.53761 C51.9186772,167.320214 53.6551095,166.823474 55.3152195,167.171012 C56.1805804,167.352173 56.2710028,167.98607 55.8036177,168.572789 C55.5692939,168.866941 55.296367,169.108323 54.5653361,169.708115 C53.7861631,170.347452 53.4563621,170.66155 53.410582,170.803097 C52.940555,172.256366 52.481354,172.877501 49.0114257,177.156839 C48.1100787,178.268438 47.4844714,179.074739 46.9209885,179.870293 C46.3033108,180.742363 45.81548,181.531226 45.4480802,182.269059 C41.0064741,191.188941 38.5487229,196.251143 37.0835467,199.532204 C36.3059862,201.273445 35.8140662,202.50427 35.574407,203.305096 C36.9092794,202.485625 43.7454382,195.851873 45.7321193,194.106599 C48.9231084,191.303355 51.9192922,189.043014 54.843559,187.336876 C55.8002485,186.778703 56.5729633,186.134603 58.4617848,184.414152 C58.9207091,183.996137 59.1684373,183.772199 59.4473788,183.525046 C61.8710931,181.377534 63.4785054,180.431529 65.2044785,180.565131 C66.13802,180.637393 66.3642702,181.273108 66.045558,182.025729 C65.8736759,182.431619 65.6935801,182.708399 64.985778,183.722978 C64.4208766,184.538386 64.1762001,184.939098 64.0438368,185.269578 C63.8422209,185.772966 63.6107323,186.318605 63.3137522,186.996037 C63.1380287,187.396874 62.4839582,188.869193 62.5076777,188.815598 C62.2763656,189.338261 62.0926626,189.75882 61.9197539,190.163528 C60.7658598,192.864322 60.1738017,194.722373 60.1007814,196.193864 C59.4159724,209.994003 60.2326708,222.528327 62.6581476,237.466788 C62.8608506,235.337718 63.3437048,229.687491 63.5330283,227.862885 C64.0406463,222.970715 64.6227036,219.518413 65.4095682,217.428129 C67.7034935,211.334379 70.5857486,206.669962 77.3942704,197.084574 C77.7992376,196.514441 78.7696372,195.773307 79.6790373,195.311316 C80.1811174,195.056251 80.6276766,194.903277 81.0034195,194.88731 C81.6442492,194.86008 82.0757153,195.246548 82.0244117,195.83321 C81.7761877,198.671672 81.1242849,201.000762 79.4851707,205.66207 C77.9491406,210.02746 77.3918119,211.856833 77.0038644,214.169283 C76.4871827,217.249082 76.3374825,219.519843 76.1970126,224.499155 C76.1774556,225.192404 76.1678954,225.521149 76.1554022,225.916804 C76.005667,230.65886 75.7008423,233.67609 74.8517379,237.173554 L72.2831538,245.516519 C67.1214227,248.286826 66.7886448,249.018895 68.8273592,248.984129 C71.4278231,248.939785 75.986797,247.699507 78.2351559,246.361759 C84.1527616,242.840853 87.6131522,233.598606 86.6749407,221.497103 C86.4591134,218.713259 86.8594396,215.600736 87.7958897,212.02214 C88.4082065,209.682203 89.1917797,207.315381 90.3558351,204.147695 C90.6118011,203.451147 91.6811386,200.586449 91.9432843,199.870519 C92.514941,198.309301 92.9206479,197.129245 93.2404767,196.070973 C94.9559513,190.394689 95.3110402,185.690585 95.343952,174.960294 C95.345491,174.458508 95.34621,174.23536 95.347238,173.956511 C95.3709644,167.520796 95.5194063,163.986511 96.0683273,160.105409 C96.9024778,154.207613 98.132304,150.254111 99.8429561,147.175222 C100.264816,146.415945 100.701942,145.728792 101.240715,144.954507 C101.426092,144.688098 102.288456,143.484621 102.508755,143.163078 C104.775837,139.854112 105.236792,136.673478 103.929957,128.209599 C102.911625,121.614242 102.359072,116.737105 102.095295,112.697719 C102.003014,111.284569 101.846843,107.103842 101.755753,106.303538 C101.467517,103.771156 101.56208,103.982698 94.6592919,89.9448141 C93.3633273,87.3092702 90.1209892,81.1722942 89.8597387,80.6513077 C89.2143799,79.3643311 88.6747166,78.198011 88.1551314,76.9496352 C87.0527312,74.3009656 86.0078155,71.1875913 84.7722712,66.8071232 C84.5061469,65.8636123 84.2868696,65.2368636 84.1045188,64.8784294 C84.0183816,64.9974561 83.7961108,65.3119018 83.7181727,65.415759 C82.8716227,66.5438384 81.905495,66.9878014 80.5600889,66.3255575 C80.4158376,66.2545533 79.36927,65.823236 79.2075421,65.7539341 C78.4104857,65.4123879 77.7169351,65.0760671 77.0489712,64.6883136 C74.8947037,63.4377599 73.5000894,61.9223671 73.179486,60.0173332 C72.956817,58.6942285 72.6963665,57.9045751 72.0912302,56.4747151 C71.4759185,55.0186727 71.2111225,54.2587193 70.9670358,53.1444576 C70.5830001,51.3913253 70.1934246,47.6035644 70.1237536,44.7632744 C70.084064,43.1452461 70.1448115,41.9055278 70.3225908,41.1713881 C70.4561368,40.6199098 70.6502123,40.2782414 71.085995,40.1593879 C71.6192648,40.0139462 72.0019274,40.3040036 72.3635878,40.8537313 C72.8258124,41.5563175 73.3741727,41.8617499 74.6896719,42.2694067 C76.1610692,42.7253743 76.3312279,42.7828467 77.0002399,43.0957095 C77.6841416,43.4155354 78.3799939,43.8675259 79.3621291,44.5914731 C79.5115179,44.70159 79.6594501,44.8118051 79.8743953,44.9727792 C81.2828201,46.0275589 81.7727124,46.3701058 82.4035579,46.6943476 C82.9771857,46.9891806 83.1661264,46.8989091 83.4083368,46.2179493 C83.6551584,45.5240256 83.7553701,44.6365477 83.8801478,42.5399572 C83.9281306,41.733721 83.9392606,41.5533683 83.9654191,41.1841589 C84.0789709,39.581453 84.234527,38.4487307 84.5174,37.481419 C86.270737,31.4857133 94.062107,26.298931 105.949483,21.9227567 C113.982919,18.9653579 123.7617,16.5368704 129.147728,15.7373939 C135.571088,14.7839409 138.164741,14.4762957 140.967027,14.3778237 C142.797794,14.3134908 144.639223,14.3500469 147.561581,14.4937326 C148.614847,14.5455192 155.669382,14.9377959 158.440812,15.0779352 L158.940878,15.3797649 C160.185415,17.8338096 160.882162,20.1840894 161.027841,23.3263298 C161.248135,28.0780069 161.740655,31.4502546 162.727926,35.8657949 C162.728253,35.8672584 163.849169,40.7139406 164.183713,42.2952377 C164.893543,45.6504041 165.443865,48.9388702 165.911472,52.8860396 C167.23697,64.0748254 167.285646,68.6724744 166.364948,73.3220571 C166.402104,73.1344209 165.09237,78.9831149 164.671484,81.4453917 C164.386259,83.1140207 164.129306,84.9146425 163.89527,86.9360294 C163.776183,87.9645936 162.985324,89.1707659 161.50194,90.8627686 C161.258934,91.1399509 160.998914,91.4287262 160.684132,91.7725162 C158.132236,94.5595807 157.759766,95.00869 157.713513,95.5106709 C157.485978,97.9801038 157.649416,98.9644993 159.522627,108.172445 C160.354304,112.260626 160.842354,115.158111 161.137992,118.165776 C161.219122,118.991153 162.69822,121.278877 165.52005,124.854712 L171.726335,162.583301 C172.324994,149.016897 172.867684,140.381399 173.356029,136.661684 C173.757531,133.603447 174.31154,131.811307 175.057804,130.883735 C175.543041,130.280606 175.962098,130.095547 176.745927,129.954513 C178.761744,129.169228 181.35051,129.169228 184.705776,129.849473 L204.610354,131.594309 C199.509761,125.133006 196.445296,121.014531 195.397706,119.208572 Z M84.3027305,64.6390903 C84.3019948,64.6394741 84.3005709,64.6406094 84.2984936,64.6424917 C84.298283,64.6413665 84.3005236,64.6402418 84.3027305,64.6390903 Z M166.864079,14.9397699 C168.464863,17.2400424 168.892934,19.1171156 169.212326,23.505919 C169.643642,29.4326824 170.203877,32.380297 172.342583,37.0973277 C173.531874,39.7203737 174.231616,42.0687816 174.667537,44.6889968 C174.88874,46.0185989 175.027879,47.2523166 175.225129,49.4268765 C175.99147,57.8753149 176.690183,62.0718877 179.238092,70.2691112 C188.638331,100.511898 192.893624,112.638284 196.439759,118.75153 C197.501561,120.581989 200.790709,124.983433 206.285182,131.921194 L207,132.82378 L205.746034,132.713858 L184.515517,130.848669 C181.319387,130.204697 178.973821,130.204697 177.495337,130.81301 C176.462349,131.041887 176.295716,131.115474 176.014126,131.465478 C175.40862,132.218095 174.896681,133.874143 174.515606,136.776791 C173.966974,140.955714 173.344365,151.474662 172.650143,168.311615 L171.489175,168.364587 L164.480265,125.330667 C161.564397,121.628351 160.080616,119.325432 159.975123,118.252202 C159.683096,115.281269 159.199453,112.409952 158.373362,108.349223 C156.469846,98.992312 156.310369,98.0317733 156.550133,95.4296206 C156.626799,94.5975636 156.830441,94.3520206 159.771072,91.1403981 C160.08116,90.8017341 160.336403,90.5182636 160.573776,90.2475072 C161.925703,88.7054487 162.644287,87.6095066 162.734032,86.8343725 C162.969889,84.7972543 163.229104,82.9807855 163.517058,81.2961892 C163.942577,78.8068085 165.255956,72.9418342 165.214766,73.1498493 C166.11384,68.6094679 166.066041,64.0947074 164.750508,52.990031 C164.286154,49.0703277 163.740262,45.8083321 163.035867,42.478852 C162.703402,40.9073858 161.584221,36.0682038 161.58227,36.0594771 C160.584367,31.596389 160.084532,28.1740492 159.86168,23.3672085 C159.727959,20.4828867 159.114321,18.3146799 158.014451,16.0727709 C155.033968,15.9194058 148.500965,15.5563923 147.495693,15.5069654 C144.607743,15.3649715 142.80016,15.3290873 141.014154,15.3918474 C138.277813,15.4880021 135.719081,15.7915052 129.344118,16.7377743 C124.044543,17.5244181 114.352436,19.9313807 106.4045,22.8573042 C94.8305744,27.1180858 87.2828761,32.1426539 85.6485124,37.7315188 C85.3881141,38.6219762 85.2397043,39.7026603 85.1303187,41.2465627 C85.1044945,41.611054 85.0934467,41.7900763 85.0456964,42.5924061 C84.9148614,44.7907746 84.8112508,45.7083526 84.5233332,46.5178154 C84.0778913,47.770148 83.1062248,48.2343879 81.80968,47.5679903 C81.0939712,47.2001305 80.5834368,46.84315 79.112752,45.7417433 C78.8999293,45.5823588 78.7539963,45.4736331 78.6074405,45.3656046 C77.6837042,44.684704 77.0401461,44.2666812 76.4474335,43.9894998 C75.852784,43.7114126 75.7020787,43.6605107 74.2978752,43.2253656 C72.8162279,42.7662216 72.056886,42.3603986 71.440328,41.4893095 C71.3045472,42.1465167 71.2547803,43.281512 71.2905964,44.741633 C71.3589821,47.5295215 71.742968,51.2629366 72.1135305,52.9545634 C72.3435297,54.0045154 72.5915378,54.7162884 73.0874254,55.8900706 C73.8171306,57.6142631 74.0978302,58.4653093 74.3342947,59.8703871 C74.5988261,61.4422393 75.7913553,62.7380458 77.6969884,63.844267 C78.3170539,64.2042155 78.9684103,64.5200753 79.7234484,64.8436162 C79.8458337,64.8960595 80.9475329,65.3500979 81.1350322,65.4423899 C81.8068919,65.7730967 82.1877389,65.5980868 82.7407523,64.8611627 C82.8170541,64.759486 83.0909244,64.3710754 83.1539212,64.2872166 C83.3449482,64.0329293 83.4967922,63.8760689 83.7022193,63.7688828 C84.7280092,63.2336541 85.1975907,64.0545688 85.9057851,66.5653839 C87.1321472,70.9132979 88.1658353,73.9932188 89.2525786,76.6042707 C89.763219,77.8311554 90.2936958,78.9776215 90.929568,80.2456799 C91.1841086,80.7532857 94.4287911,86.8946991 95.7324197,89.5458288 C102.728562,103.773562 102.610554,103.509573 102.917186,106.203585 C103.012801,107.043639 103.170177,111.256615 103.260526,112.640186 C103.522537,116.652522 104.072181,121.503983 105.086687,128.074558 C106.42556,136.745939 105.932381,140.14892 103.511416,143.682489 C103.283745,144.014792 102.418503,145.222284 102.239268,145.479869 C101.718142,146.228791 101.298195,146.88894 100.893847,147.616699 C99.2430022,150.587944 98.0461606,154.435411 97.2267082,160.229285 C96.6850806,164.058821 96.537925,167.56248 96.5143403,173.959764 C96.5133131,174.23837 96.5125948,174.461305 96.5110561,174.963001 C96.4778793,185.779702 96.1184745,190.540982 94.369259,196.328909 C94.0433982,197.407141 93.6325741,198.602081 93.055384,200.178411 C92.7919694,200.897807 91.7223809,203.763177 91.4675661,204.456592 C90.312785,207.59904 89.5373586,209.941255 88.9339088,212.247307 C88.0205774,215.737556 87.6322472,218.75681 87.8394059,221.428842 C88.802612,233.852739 85.2131956,243.439597 78.8942315,247.199307 C76.4559166,248.650076 71.6754605,249.950608 68.8502431,249.998786 C67.1097661,250.028465 66.0302625,249.514821 66.5467181,248.378684 C66.9340852,247.526526 68.47088,246.384528 71.2754823,244.865231 L73.7170395,236.937623 C74.5413371,233.538894 74.840764,230.575092 74.9887337,225.88895 C75.0011856,225.4946 75.0107258,225.166543 75.0302554,224.474267 C75.1718306,219.455773 75.3235121,217.154958 75.8489798,214.022788 C76.248331,211.642364 76.8157889,209.779743 78.2632829,205.66603 C79.9463071,200.879984 80.5910078,198.603221 80.8433874,195.945719 C80.6902227,195.992338 80.4908078,196.074281 80.2677864,196.187579 C79.5100681,196.572513 78.6788261,197.207367 78.3872475,197.617866 C71.6267242,207.13568 68.7745427,211.751427 66.5187657,217.743837 C65.7687071,219.736347 65.195055,223.138796 64.6954148,227.95408 C64.4799976,230.030164 63.8778074,237.141793 63.7507198,238.249312 C63.5963268,239.594786 63.4769199,240.214008 63.2390614,240.482466 C62.9999869,240.752297 62.5574036,240.805841 62.255865,240.545177 C61.9001966,239.867981 61.8084076,239.458874 61.7105289,238.87229 C59.1145335,223.314579 58.2274759,210.403131 58.9347582,196.150114 C59.0146104,194.540948 59.6311458,192.60608 60.8257048,189.810106 C61.0004302,189.401145 61.1856354,188.977148 61.4184402,188.451111 C61.3955722,188.502783 62.0485589,187.032903 62.2231939,186.634549 C62.5164854,185.965531 62.74434,185.428458 62.941658,184.935801 C63.1089435,184.518128 63.3802029,184.073881 63.8603777,183.380066 C64.6414696,182.259808 64.8168618,181.990256 64.9503405,181.675053 C63.8284777,181.501087 62.427035,182.333842 60.2803676,184.235879 C60.006297,184.478717 59.7613462,184.700143 59.3059788,185.114919 C57.350918,186.895704 56.5496667,187.563592 55.4938416,188.179604 C52.6433329,189.842708 49.7024466,192.061333 46.5616012,194.820526 C45.2490222,195.97361 43.9400072,197.185924 42.495327,198.57295 C41.946285,199.100081 41.406101,199.624704 40.7198434,200.295641 C40.5213022,200.489749 40.304678,200.701812 39.9069436,201.091217 C39.5892134,201.402188 39.363523,201.622656 39.1477189,201.832669 C36.3343647,204.570524 35.5927418,205.187159 34.8037514,204.954013 C33.7487758,204.642269 34.1534374,203.290085 35.9955799,199.16486 C37.4680274,195.867516 39.9294,190.797855 44.3770571,181.86582 C44.7689679,181.078763 45.2823644,180.248558 45.9272347,179.338096 C46.5060602,178.520881 47.1434579,177.699384 48.057573,176.572038 C51.3958604,172.455048 51.872379,171.810489 52.2870595,170.528345 C52.4206076,170.115429 52.745587,169.805924 53.7497263,168.981993 C54.3066663,168.525038 54.5752081,168.293604 54.7465693,168.108257 C53.5612708,167.959071 52.2571725,168.374983 50.8175703,169.341033 C48.5068318,170.891663 46.0940891,173.627301 43.0444213,177.859774 C42.1937274,179.040407 39.52603,182.876951 39.189563,183.349997 C37.8114227,185.287557 36.8699322,186.473111 36.068289,187.21571 C33.7317309,189.380172 32.1068236,191.168072 29.9361526,193.780252 C28.965156,194.948747 28.7571419,195.190996 28.4750073,195.453352 C28.1915659,195.716922 27.9806728,195.846792 27.6528897,195.821081 C27.1554195,195.782061 27.0131053,195.476815 27.0000215,195.067443 C26.9904129,194.766802 30.1983605,180.50832 32.1368903,169.588655 L36.8873567,157.026099 C39.9608803,150.250853 43.1644981,145.068823 50.6267011,134.086896 C50.9034448,133.679635 50.9034448,133.679635 51.1800793,133.272468 C61.1868651,118.542092 65.2969929,111.217838 67.9607592,101.431149 C69.3159095,96.4523205 69.747487,91.560896 69.5192597,85.7523216 C69.4128877,83.0450669 69.257608,81.1805942 68.7399034,75.7866234 C68.3046197,71.2513983 68.1081844,68.8202863 67.985976,65.9407484 C66.7838135,37.614754 67.434607,27.4186843 72.6594584,18.0185181 C79.0701447,6.48488553 92.5808205,1.00703293 117.426418,0.475292653 C118.062581,0.461677636 118.821716,0.433886307 119.89978,0.386674889 C120.351322,0.366900608 122.442048,0.271213592 123.033928,0.245174889 C129.861876,-0.055208427 134.86547,-0.102676274 140.032729,0.232703909 C147.254423,0.701426833 153.158867,1.90749638 157.53839,4.06503867 C158.322068,4.45111257 160.460414,7.50193464 162.122711,10.4796165 C164.270945,11.9632655 165.803448,13.4156787 166.864079,14.9397699 Z M55.0322756,168.152904 C55.0366778,168.155665 55.0400535,168.157256 55.0420386,168.157672 C55.0414412,168.157547 55.0381869,168.155958 55.0322756,168.152904 Z M81.0390909,195.897897 C81.0468727,195.900117 81.0540526,195.901221 81.0603856,195.900952 C81.0582746,195.901042 81.0561318,195.901152 81.0539573,195.901282 L81.0390909,195.897897 Z M71.5692107,41.0690386 C71.5720433,41.06663 71.5735156,41.0650106 71.5738659,41.0643938 C71.5736628,41.0647513 71.5721111,41.0662996 71.5692107,41.0690386 Z M71.1641124,41.1201397 C71.1570324,41.1136127 71.1504897,41.1080839 71.1445222,41.1035606 C71.1465859,41.1051249 71.1488169,41.1066882 71.1512105,41.1082421 L71.1641124,41.1201397 Z" id="hair-outline" fill="#000000" fill-rule="nonzero" opacity="0.05"></path>
            </g>
        </g>
    </g>
</svg>