<?xml version="1.0" encoding="UTF-8"?>
<svg width="480px" height="300px" viewBox="0 0 480 300" version="1.1" xmlns="http://www.w3.org/2000/svg" xmlns:xlink="http://www.w3.org/1999/xlink">
    <!-- Generator: Sketch 51 (57462) - http://www.bohemiancoding.com/sketch -->
    <title>Avatars</title>
    <desc>Created with Sketch.</desc>
    <defs></defs>
    <g id="Avatars" stroke="none" stroke-width="1" fill="none" fill-rule="evenodd">
        <rect id="Frame" fill="#E6E6E6" x="0" y="0" width="480" height="300"></rect>
        <g id="Half-Orc" transform="translate(120.000000, 29.000000)">
            <g id="Male" transform="translate(0.000000, 3.000000)">
                <g id="body" transform="translate(0.000000, 7.000000)">
                    <path d="M0,261.722492 C2.66328604,232.085623 4.63030165,213.433802 5.90104683,205.767031 C6.81287788,200.265692 5.29968937,194.578906 5.92521164,189.037672 C7.18746844,177.85588 47.2919948,154.571359 53.2157467,150.772889 C58.514688,147.375065 63.6814761,143.616733 69.4931633,141.199441 C74.981066,138.916823 82.7675122,141.204136 86.7758361,136.814028 C89.9386578,133.349954 91.0874288,127.733674 90.2221492,119.965188 L91.6054755,96.2832517 C82.860112,88.7266254 78.2494675,84.0603101 77.773542,82.2843057 C76.481137,77.4614572 73.1282351,62.2936985 73.4344645,48.3554728 C73.7499988,33.9937279 77.8023504,20.8704592 81.7978851,17.1054761 C96.4561008,3.29307295 152.527402,-10.4253424 166.452051,14.6540931 C174.733525,29.5697083 182.027176,80.9891697 174.764998,95.6588804 C172.738077,99.753291 169.80231,103.24917 165.957696,106.146517 L165.915087,126.975913 C175.095102,130.025526 177.614949,126.650397 187.267619,127.275688 C203.818131,128.347815 200.790623,128.130007 217.919022,136.872554 C235.870502,146.035211 256.114343,147.164706 263.21762,169.455618 C267.719195,183.582087 262.040853,203.25821 263.908733,215.437181 C264.953443,222.248903 265.982275,237.344007 266.995229,260.722492 L218.15508,260.722492 L16.7220492,261.722492 L0,261.722492 Z" fill="{skin-color}"></path>
                    <path d="M7.33207058,231.427201 L8.4017524,231.37358 C8.42211561,231.727584 8.49070749,232.928662 8.50384963,233.157489 C8.54196715,233.82118 8.57138245,234.323196 8.59989288,234.792868 C9.01519572,241.634448 9.49301239,244.02209 11.1880308,246.685157 C12.5416836,248.811899 14.3722049,250.684994 19.7078845,255.582943 L18.9568041,256.295964 C13.5485214,251.331368 11.6865844,249.426127 10.2671056,247.195964 C8.45657175,244.35141 7.9550563,241.845345 7.53038574,234.849444 C7.50180294,234.378579 7.47233371,233.875643 7.434163,233.211026 C7.42100841,232.981982 7.35241975,231.780961 7.33207058,231.427201 Z M4.12291253,256.436791 L3.14155426,256.035865 C4.01769018,254.167014 4.62082727,252.709232 5.09232597,251.396402 C5.15607683,251.218895 5.70918154,249.580567 5.84578236,249.278859 C6.24025093,248.407601 5.66732166,248.814446 9.39787808,246.486655 L9.99316689,247.318032 C6.61644225,249.425039 7.09711183,249.083708 6.83249299,249.668169 C6.71903953,249.918752 6.18929691,251.48788 6.10798625,251.71428 C5.62631421,253.055437 5.01171678,254.540918 4.12291253,256.436791 Z M65.9979399,208.413818 L67.0260755,208.133057 C67.2333226,208.794421 67.4583667,209.465209 67.7253211,210.225322 C70.2452293,217.400384 70.2642635,217.465612 70.1165785,219.923936 C69.9861199,222.095515 69.113648,224.131522 67.3264622,226.254278 L66.4842325,225.636347 C68.1399523,223.669741 68.9293024,221.827708 69.0470361,219.867943 C69.1833162,217.599463 69.161182,217.523612 66.7074087,210.536859 C66.4371164,209.767242 66.2087411,209.086525 65.9979399,208.413818 Z M81.3335398,151.57294 L80.853403,150.679013 C82.4227153,149.944478 83.9834041,149.530013 87.740096,148.71886 C91.4051821,147.927487 92.9249104,147.5239 94.3880535,146.839059 C95.6667509,146.240549 96.2364372,145.63051 97.2350599,144.080828 C98.3297391,142.382084 99.0146102,141.648702 100.519863,140.94415 L101,141.838076 C99.7213026,142.436586 99.1516163,143.046625 98.1529936,144.596307 C97.0583144,146.295051 96.3734433,147.028433 94.8681903,147.732985 C93.298878,148.467521 91.7381892,148.881985 87.9814973,149.693138 C84.3164112,150.484511 82.7966829,150.888098 81.3335398,151.57294 Z" id="arm-lines-l" fill="#000000" fill-rule="nonzero" opacity="0.1"></path>
                    <path d="M166.311958,229.427201 L167.422934,229.37358 C167.444084,229.727584 167.515323,230.928662 167.528973,231.157489 C167.568562,231.82118 167.599113,232.323196 167.628724,232.792868 C168.060059,239.634448 168.556322,242.02209 170.316776,244.685157 C171.722686,246.811899 173.623873,248.684994 179.165535,253.582943 L178.385459,254.295964 C172.768392,249.331368 170.834576,247.426127 169.360299,245.195964 C167.47987,242.35141 166.958994,239.845345 166.517929,232.849444 C166.488243,232.378579 166.457636,231.875643 166.417991,231.211026 C166.404329,230.981982 166.333093,229.780961 166.311958,229.427201 Z M164.160797,255.436791 L163.141554,255.035865 C164.051513,253.167014 163.496048,250.709232 163.985749,249.396402 C164.051961,249.218895 164.626418,247.580567 164.768292,247.278859 C165.177989,246.407601 164.582942,246.814446 168.457515,244.486655 L169.075785,245.318032 C165.568703,247.425039 166.067929,247.083708 165.793094,247.668169 C165.675261,247.918752 165.125068,249.48788 165.040618,249.71428 C164.540351,251.055437 165.083914,253.540918 164.160797,255.436791 Z M215.710302,200.413818 L216.778128,200.133057 C216.993376,200.794421 217.227108,201.465209 217.504368,202.225322 C220.121556,209.400384 220.141325,209.465612 219.987939,211.923936 C219.852444,214.095515 218.94629,216.131522 217.090111,218.254278 L216.215367,217.636347 C217.935006,215.669741 218.754828,213.827708 218.877107,211.867943 C219.018648,209.599463 218.995659,209.523612 216.447159,202.536859 C216.166432,201.767242 215.929241,201.086525 215.710302,200.413818 Z M246.715879,149.57294 L246.217207,148.679013 C247.847102,147.944478 249.46804,147.530013 253.369757,146.71886 C257.176333,145.927487 258.754729,145.5239 260.274356,144.839059 C261.602417,144.240549 262.194096,143.63051 263.23127,142.080828 C264.368209,140.382084 265.079519,139.648702 266.642882,138.94415 L267.141554,139.838076 C265.813493,140.436586 265.221815,141.046625 264.18464,142.596307 C263.047702,144.295051 262.336391,145.028433 260.773029,145.732985 C259.143134,146.467521 257.522195,146.881985 253.620478,147.693138 C249.813903,148.484511 248.235506,148.888098 246.715879,149.57294 Z" id="arm-lines-r" fill="#000000" fill-rule="nonzero" opacity="0.1" transform="translate(215.141554, 197.190471) scale(-1, 1) translate(-215.141554, -197.190471) "></path>
                    <polygon id="armpit-l" fill="#000000" opacity="0.5" points="61.1494792 261.175226 69.559375 218.670306 69.559375 261.175226"></polygon>
                    <polygon id="armpit-r" fill="#000000" opacity="0.5" transform="translate(215.254948, 239.800577) scale(-1, 1) translate(-215.254948, -239.800577) " points="211.05 261.053037 219.459896 218.548117 219.459896 261.053037"></polygon>
                    <path d="M100.054283,164.284801 L98.5837796,163.812855 C99.6598174,162.607711 102.325553,159.43586 102.792412,158.950099 C103.853429,157.846123 104.732863,157.350571 106.192175,157.11167 C106.702529,157.028121 123.078369,156.790537 131.107953,155.078468 L131.348466,156.068017 C123.171811,157.11167 106.917298,158.029571 106.631531,158.076353 C105.663913,158.23476 105.099009,158.553078 104.237605,159.449359 C103.798716,159.906017 101.149998,163.05762 100.054283,164.284801 Z" id="collarbone-l" fill="#000000" fill-rule="nonzero" opacity="0.129999995" transform="translate(114.966123, 159.681635) scale(-1, 1) translate(-114.966123, -159.681635) "></path>
                    <path d="M147.00367,164.284801 L145.704694,163.812855 C146.655217,162.607711 149.010006,159.43586 149.422408,158.950099 C150.359662,157.846123 151.136513,157.350571 152.425603,157.11167 C152.876426,157.028121 167.342094,156.790537 174.435062,155.078468 L174.64752,156.068017 C167.424637,157.11167 153.066144,158.029571 152.81371,158.076353 C151.958961,158.23476 151.45995,158.553078 150.699025,159.449359 C150.311331,159.906017 147.971574,163.05762 147.00367,164.284801 Z" id="collarbone-r" fill="#000000" fill-rule="nonzero" opacity="0.129999995"></path>
                    <path d="M144.459028,209.454621 C144.032844,206.968646 143.669166,204.926142 143.279432,202.851908 L144.262234,202.667247 C144.722218,205.115361 145.145774,207.518084 145.6776,210.651673 C145.820792,211.495378 146.301613,214.347852 146.303511,214.359083 C146.546178,215.79521 146.728059,216.858377 146.905705,217.873436 C149.234046,231.177435 151.309656,237.14725 155.843185,241.251667 C161.125491,246.033987 169.865678,247.419885 184.764191,245.57059 C186.16753,245.396399 187.47074,245.330004 190.427828,245.24204 C191.659648,245.205397 192.105722,245.191157 192.742765,245.166111 C200.804991,244.849143 206.491881,245.566448 206.926355,241.808279 L206.944952,241.647421 L208.809557,235.427662 C209.573539,228.750922 209.701072,223.297272 209.623323,211.112171 C209.58404,204.955617 209.587277,202.219697 209.669023,198.802667 L210.668737,198.826583 C210.587313,202.230145 210.584084,204.959343 210.623302,211.105791 C210.701934,223.429056 210.571075,228.899025 209.784452,235.703244 L209.765856,235.864102 L207.899151,242.086154 C207.300577,246.450869 201.236566,245.832948 192.782049,246.165339 C192.140651,246.190556 191.692736,246.204855 190.457562,246.241598 C187.533545,246.328578 186.248159,246.394065 184.887372,246.562974 C169.728126,248.444633 160.720572,247.016339 155.172034,241.992987 C151.708813,238.85757 149.639543,234.763273 147.857179,227.552383 C147.857279,230.550826 147.541583,233.658545 146.88801,237.109133 C146.011956,241.734331 141.52196,245.482276 134.563942,248.317687 C129.339253,250.446761 122.864835,251.921025 118.454918,252.238543 C116.339322,252.390868 114.212881,252.559513 111.868715,252.758103 C110.373483,252.884775 103.088018,253.529714 101.234035,253.68117 C97.6029945,253.977799 94.9391336,254.138987 92.588888,254.185902 C87.0114581,254.297238 83.2108988,253.730932 80.2444102,252.198151 C74.065874,249.005709 71.3388766,241.564088 69.7344043,224.429248 L70.7300489,224.336018 C72.3043761,241.148925 74.9357363,248.329565 80.7034528,251.309737 C83.4914426,252.750288 87.1431271,253.29441 92.5689301,253.186101 C94.8946515,253.139675 97.5402831,252.979591 101.152614,252.68449 C103.002479,252.53337 110.285861,251.888616 111.784301,251.761672 C114.132405,251.562749 116.262949,251.393778 118.383103,251.241125 C122.689841,250.931036 129.06113,249.480256 134.186569,247.391625 C140.860931,244.671805 145.109519,241.125371 145.905479,236.923033 C147.265275,229.743882 147.135476,224.106919 145.723487,217.778606 C145.002061,214.545291 141.158476,201.870066 141.069919,201.595589 L142.031581,201.322598 C141.980172,201.1415 143.225767,205.238028 144.459028,209.454621 Z" id="breast" fill="#000000" fill-rule="nonzero" opacity="0.3"></path>
                    <g id="nipples" opacity="0.700000048" transform="translate(89.000000, 223.000000)">
                        <g id="right" transform="translate(93.000000, 0.000000)">
                            <path d="M7,14 C3.13400675,14 0,10.8659932 0,7 C0,3.13400675 3.13400675,0 7,0 C10.8659932,0 14,3.13400675 14,7 C14,10.8659932 10.8659932,14 7,14 Z" id="ra" fill="#000000" fill-rule="nonzero" opacity="0.3"></path>
                            <circle id="rn" fill="{skin-color}" opacity="0.400000006" cx="7" cy="7" r="2"></circle>
                            <path d="M7,10 C5.34314575,10 4,8.65685425 4,7 C4,5.34314575 5.34314575,4 7,4 C8.65685425,4 10,5.34314575 10,7 C10,8.65685425 8.65685425,10 7,10 Z M7,8.8 C7.99411255,8.8 8.8,7.99411255 8.8,7 C8.8,6.00588745 7.99411255,5.2 7,5.2 C6.00588745,5.2 5.2,6.00588745 5.2,7 C5.2,7.99411255 6.00588745,8.8 7,8.8 Z" id="rno" fill="#000000" fill-rule="nonzero" opacity="0.3"></path>
                        </g>
                        <g id="left" transform="translate(0.000000, 5.000000)">
                            <path d="M7,14 C3.13400675,14 0,10.8659932 0,7 C0,3.13400675 3.13400675,0 7,0 C10.8659932,0 14,3.13400675 14,7 C14,10.8659932 10.8659932,14 7,14 Z" id="la" fill="#000000" fill-rule="nonzero" opacity="0.3"></path>
                            <circle id="ln" fill="{skin-color}" opacity="0.400000006" cx="7" cy="7" r="2"></circle>
                            <path d="M7,10 C5.34314575,10 4,8.65685425 4,7 C4,5.34314575 5.34314575,4 7,4 C8.65685425,4 10,5.34314575 10,7 C10,8.65685425 8.65685425,10 7,10 Z M7,8.8 C7.99411255,8.8 8.8,7.99411255 8.8,7 C8.8,6.00588745 7.99411255,5.2 7,5.2 C6.00588745,5.2 5.2,6.00588745 5.2,7 C5.2,7.99411255 6.00588745,8.8 7,8.8 Z" id="lno" fill="#000000" fill-rule="nonzero" opacity="0.3"></path>
                        </g>
                    </g>
                    <path d="M90.6310772,88.6652064 L91.580812,88.3521511 C93.2720727,93.4830301 95.3838965,96.4675949 100.354688,101.78918 C100.703587,102.162498 100.892372,102.364515 101.053395,102.53715 C103.701268,105.375965 105.148246,107.091617 106.60797,109.292424 C108.279872,111.813128 113.111627,115.940697 118.533927,120.037007 C120.219047,121.310041 121.801023,122.066206 123.501203,122.466235 C125.081602,122.838082 126.315552,122.897805 129.501673,122.865751 C132.159599,122.839012 133.522217,122.865948 135.365841,123.037562 C142.24447,123.677859 147.70415,121.97545 155.10133,117.278789 C155.390674,117.095077 156.978297,115.102876 159.751351,111.477982 C159.798152,111.416801 159.798152,111.416801 159.844949,111.35561 C164.506189,105.260398 164.263643,105.574402 164.609095,105.261139 L165.280847,106.001915 C165.011881,106.245819 164.973397,106.295641 160.639295,111.963076 C160.592448,112.024331 160.592448,112.024331 160.545595,112.085581 C157.486177,116.084804 156.091901,117.834388 155.637342,118.122999 C148.068049,122.92894 142.399163,124.696582 135.273157,124.033257 C133.472993,123.865689 132.137354,123.839286 129.511733,123.865701 C126.244009,123.898575 124.958137,123.836339 123.272171,123.439654 C121.434211,123.007207 119.725483,122.190456 117.931145,120.834912 C112.395625,116.65307 107.5374,112.502889 105.774615,109.845161 C104.353014,107.701833 102.935076,106.020613 100.322123,103.219235 C100.161478,103.047006 99.9730911,102.845415 99.6239058,102.47179 C94.5621044,97.052773 92.3786822,93.9670208 90.6310772,88.6652064 Z" id="jaw" fill="#000000" fill-rule="nonzero" opacity="0.3"></path>
                </g>
                <g id="face" transform="translate(80.000000, 38.000000)">
                    <path d="M48.5392249,72.2118823 L48.2185876,71.2646802 C49.2675137,70.9096083 50.3349349,70.8345116 52.2856448,70.8630908 C52.7138069,70.8693636 53.1470908,70.89699 53.6040536,70.945222 C54.3281133,71.0216458 54.8519513,71.1066938 56.2660307,71.3603971 L56.089438,72.3446811 C54.7002768,72.0954485 54.1903656,72.0126616 53.4990876,71.9396978 C53.070996,71.8945132 52.6676315,71.8687944 52.2709958,71.8629835 C50.4339656,71.8360698 49.4435886,71.9057461 48.5392249,72.2118823 Z" id="jaw-line" fill="#000000" fill-rule="nonzero" opacity="0.3" transform="translate(52.242309, 71.601129) rotate(-4.000000) translate(-52.242309, -71.601129) "></path>
                    <path d="M40.2681976,88.721207 L39.7005524,87.8979336 C40.0305472,87.670403 40.3345912,87.4725227 40.6445492,87.2806126 C40.824128,87.1694267 41.3202639,86.8712773 41.2853271,86.8925292 C41.5768932,86.7151711 41.660863,86.6457564 41.6696783,86.6242324 C41.6808115,86.597049 41.6714519,86.4779184 41.5969064,86.1183683 C41.5854374,86.0630509 41.5647351,85.9649771 41.5265679,85.7836069 C41.49498,85.6323484 41.4682692,85.5002896 41.4415886,85.3618098 C41.3716775,84.9989509 41.3098674,84.6310204 41.2528686,84.2235677 L42.2432252,84.085026 C42.2846485,84.3811379 42.7499069,86.6251844 42.5950744,87.003234 C42.4312639,87.4032047 40.295549,88.7023483 40.2681976,88.721207 Z" id="jaw-cleft" fill="#000000" fill-rule="nonzero" opacity="0.3" transform="translate(41.163532, 86.403117) rotate(-4.000000) translate(-41.163532, -86.403117) "></path>
                    <path d="M51.9604216,61.1311035 C59.6908769,61.1311035 68.5373465,57.5267426 68.5373465,56.6895035 C68.5373465,55.584934 61.6616251,54.8802994 51.9604216,54.8802994 C42.2592181,54.8802994 33.9191483,56.0806615 33.9191483,57.185231 C33.9191483,58.1411157 45.1344552,61.1311035 51.9604216,61.1311035 Z" id="lips" fill="#3E3E3E" opacity="0.100000001"></path>
                    <path d="M35.9829437,56.6349579 C43.0327331,57.0741937 48.3656081,57.293728 51.977644,57.293728 C55.5973522,57.293728 60.5893361,57.0732204 66.9504987,56.6319897 C66.7142033,56.5868212 66.4643161,56.5387366 66.1950666,56.486673 C59.9108408,55.2715193 60.7612296,55.2692712 57.9229078,55.1555732 C57.4190955,55.1353915 54.5799009,54.9565198 53.978024,55.2680125 C53.949485,55.2827909 53.949485,55.2827909 53.9205713,55.297771 C53.1881623,55.6771071 52.7576206,55.8251117 52.0619451,55.8394277 C51.5178157,55.8506251 51.0222697,55.7448749 49.7062152,55.3958901 C49.6654345,55.3850773 49.6654345,55.3850773 49.6247196,55.3742926 C48.4902761,55.0739119 45.4582262,55.1264584 45.0601194,55.1537954 C41.3947927,55.4054835 39.6870401,55.8092212 35.9829437,56.6349579 Z M66.4176437,57.6713193 C60.3229829,58.0861933 55.5105858,58.293728 51.977644,58.293728 C48.3334199,58.293728 42.9718584,58.0728743 35.8890215,57.6313346 C38.4692061,59.0269174 42.3356141,60.1575359 47.6820048,60.5246582 C48.0801116,60.5519951 55.0125188,60.6550414 55.5163311,60.6348596 C58.8741243,60.5003526 63.3912089,59.0367169 66.4176437,57.6713193 Z M35.3253782,55.753322 C39.3761495,54.8534963 41.1246727,54.4213259 44.9814085,54.1564941 C45.5581533,54.1168906 48.6419988,54.0745751 49.9174843,54.4123012 C49.9584748,54.4231589 49.9584748,54.4231589 49.9993816,54.4340052 C51.1839051,54.7481112 51.6503637,54.8476542 52.0382985,54.839671 C52.5186007,54.8297871 52.8073381,54.7305296 53.4001295,54.4235056 C53.4288382,54.4086317 53.4288382,54.4086317 53.4578847,54.3935905 C54.2173333,54.0005489 57.2237243,54.1266435 57.9689069,54.1564941 C60.8888852,54.2734631 60.0632673,54.2797318 66.4126876,55.5074919 C66.6939247,55.5618735 66.9538729,55.6118815 67.1991528,55.6587357 L67.0116794,55.4559202 L67.8236336,54.8029226 L69.7479424,56.8847097 L69.0696095,57.430245 L69.0825056,57.4490228 C69.0382018,57.4754953 68.9929668,57.5021562 68.9468236,57.5289931 L68.9359881,57.5377073 L68.934533,57.536133 C66.1138453,59.1728441 59.9302881,61.4589664 55.5623302,61.6339387 C54.8171475,61.6637894 48.1800387,61.5615629 47.6032939,61.5219594 C41.0083748,61.069104 36.6227596,59.5274307 33.9025327,57.6034147 L33.5658605,57.9676389 L32.7539062,57.3146413 L34.678215,55.2328542 L35.3253782,55.753322 Z" id="mouth-outline" fill="#000000" fill-rule="nonzero" opacity="0.3"></path>
                    <path d="M57.1748367,47.8521957 C56.7744574,48.945829 55.6574383,49.4617848 53.6109472,49.7651466 C49.5471881,50.3675382 47.6564798,49.8318953 46.6221388,47.9170444 C46.4733304,47.9296154 46.2556034,47.95423 45.8049353,48.0065087 C45.3378637,48.0584673 44.973339,48.0902479 44.6106087,48.1054141 C43.9064908,48.134854 43.3243093,48.093314 42.8451712,47.9504321 C41.4236311,47.5265203 40.778269,45.8447805 41.0678847,44.9174524 C41.2999945,44.1742542 41.4367795,43.7895083 41.5908012,43.4826693 C42.044782,42.5782582 42.3858553,42.4971183 43.7791396,42.595176 C44.6135997,42.6539042 45.2935314,42.6514278 46.243304,42.5446737 L46.3586018,43.7538424 L46.7070004,43.6130627 C46.8323708,43.9787946 46.9300285,44.350711 47.04323,44.8597857 C47.0669799,44.9665906 47.0869417,45.0584862 47.1288865,45.2528841 C47.2619479,45.8687712 47.4060308,46.3898639 47.5896605,46.8236905 C47.6179585,46.8695433 47.6407781,46.9198899 47.6569036,46.9747847 C48.4018361,48.565917 49.7835604,48.8761655 53.4311596,48.3354634 C55.8783015,47.9727112 56.2178994,47.6393484 55.9415278,45.8915581 C55.7221678,44.5043119 52.4498398,34.0476848 51.8479023,31.9580438 C51.1448803,29.517485 50.7776343,27.0516043 50.3274286,22.4383807 C50.3673706,22.8476632 49.9841261,18.845945 49.8643909,17.6753057 C49.664579,15.7217665 49.4633474,13.9785071 49.2264718,12.207347 L50.541709,12 C50.7809207,13.7886277 50.9839539,15.5474935 51.1853014,17.5160469 C51.3056414,18.6925987 51.6894541,22.7002511 51.6490608,22.2863441 C52.0904519,26.809244 52.4471215,29.2041098 53.1163452,31.527337 C53.5125334,32.9027141 55.2812801,38.5870649 56.3774461,42.3615496 C57.0180356,42.4062752 57.5622184,42.3969507 58.1953627,42.3523907 C59.588647,42.2543331 59.9297203,42.3354729 60.3837011,43.2398841 C60.5377229,43.5467231 60.6745079,43.931469 60.9066176,44.6746671 C61.1962333,45.6019952 60.5508712,47.2837351 59.1293311,47.7076469 C58.650193,47.8505288 58.0680115,47.8920688 57.3638936,47.8626288 C57.3089445,47.8603314 57.2459255,47.8568536 57.1748367,47.8521957 Z M57.338758,46.4331963 C57.3663777,46.4239278 57.391804,46.4197792 57.415037,46.4207506 C57.994937,46.4449968 58.4557968,46.4121134 58.7773312,46.3162299 C59.4017034,46.1300383 59.7082827,45.3311277 59.6479762,45.1380307 C59.4408075,44.4746919 59.3215193,44.1391606 59.2167227,43.930387 C59.1067676,43.7113366 59.1810068,43.7289978 58.2813334,43.7923157 C57.7633316,43.8287721 57.2951734,43.8434225 56.7954443,43.8274163 C57.0373127,44.6968386 57.2041629,45.348708 57.2513947,45.647405 C57.2957189,45.9277136 57.3251138,46.1891744 57.338758,46.4331963 Z M46.5559671,47.7903727 C46.4124651,47.6847868 46.3055866,47.5100647 46.3210971,47.2628226 C46.3940586,47.4485522 46.4720878,47.6243544 46.5559671,47.7903727 Z M46.0712521,46.5247704 C45.9852073,46.2305077 45.90716,45.916517 45.8349762,45.5824074 C45.7931884,45.3887524 45.7740987,45.3008714 45.7513175,45.198423 C45.6494746,44.7404285 45.5647299,44.4176897 45.4614379,44.1163652 L45.6310024,44.0478482 C44.9508317,44.0929471 44.3637682,44.0822969 43.6931689,44.035101 C42.7934955,43.971783 42.8677348,43.9541218 42.7577796,44.1731722 C42.652983,44.3819458 42.5336949,44.7174771 42.3265262,45.3808159 C42.2662196,45.5739129 42.5727989,46.3728236 43.1971712,46.5590151 C43.5187056,46.6548986 43.9795653,46.6877821 44.5594654,46.6635358 C44.8886507,46.6497722 45.2280395,46.620183 45.6694706,46.5710767 C45.8271334,46.5527092 45.9589539,46.5374572 46.0712521,46.5247704 Z" id="nose" fill="#000000" fill-rule="nonzero" opacity="0.3"></path>
                    <path d="M82.6909609,50.8654702 L82,50.1425781 C82.6232735,49.5468355 83.3009015,49.0466153 84.6183283,48.1581091 C84.9217882,47.953728 85.0784544,47.8481487 85.2212204,47.751358 C85.4453658,47.5993947 85.6311413,47.4718077 85.804996,47.349984 C86.2318424,47.0508837 86.5764245,46.7932753 86.8733885,46.5475279 C87.1562536,46.3134477 87.3899021,46.0691652 87.5956725,45.8004014 C87.8273419,45.4978101 87.9597348,45.2744808 88.2862999,44.6703431 C88.7246616,43.8593843 88.9907869,43.4605845 89.4726562,43 L90.1636172,43.7228921 C89.7770786,44.0923567 89.5580744,44.4205437 89.1660038,45.1458649 C88.8144576,45.796217 88.6640224,46.0499814 88.3896808,46.4083084 C88.1387056,46.7361157 87.8527927,47.0350412 87.5109318,47.3179424 C87.1905569,47.5830632 86.8257962,47.8557569 86.3788547,48.1689384 C86.2002417,48.2940962 86.0104442,48.4244455 85.7823795,48.5790659 C85.6382667,48.6767698 85.4802085,48.7832872 85.1774739,48.9871786 C83.9067558,49.8441833 83.2597823,50.3217746 82.6909609,50.8654702 Z" id="cheekbone-r" fill="#000000" fill-rule="nonzero" opacity="0.100000001"></path>
                    <path d="M12.6909609,54.8654702 L12,54.1425781 C12.6232735,53.5468355 13.3009015,53.0466153 14.6183283,52.1581091 C14.9217882,51.953728 15.0784544,51.8481487 15.2212204,51.751358 C15.4453658,51.5993947 15.6311413,51.4718077 15.804996,51.349984 C16.2318424,51.0508837 16.5764245,50.7932753 16.8733885,50.5475279 C17.1562536,50.3134477 17.3899021,50.0691652 17.5956725,49.8004014 C17.8273419,49.4978101 17.9597348,49.2744808 18.2862999,48.6703431 C18.7246616,47.8593843 18.9907869,47.4605845 19.4726562,47 L20.1636172,47.7228921 C19.7770786,48.0923567 19.5580744,48.4205437 19.1660038,49.1458649 C18.8144576,49.796217 18.6640224,50.0499814 18.3896808,50.4083084 C18.1387056,50.7361157 17.8527927,51.0350412 17.5109318,51.3179424 C17.1905569,51.5830632 16.8257962,51.8557569 16.3788547,52.1689384 C16.2002417,52.2940962 16.0104442,52.4244455 15.7823795,52.5790659 C15.6382667,52.6767698 15.4802085,52.7832872 15.1774739,52.9871786 C13.9067558,53.8441833 13.2597823,54.3217746 12.6909609,54.8654702 Z" id="cheekbone-l" fill="#000000" fill-rule="nonzero" opacity="0.100000001" transform="translate(16.081809, 50.932735) scale(-1, 1) translate(-16.081809, -50.932735) "></path>
                    <g id="eye-l" transform="translate(27.371205, 13.776170) rotate(-5.000000) translate(-27.371205, -13.776170) translate(7.871205, 1.776170)">
                        <path d="M24.209946,22.8142819 C27.4574829,22.8142819 30.453148,22.4292002 33.1969412,21.6590368 C29.2267956,18.0027587 25.6179544,16.1746196 22.3704175,16.1746196 C19.1228805,16.1746196 16.290908,16.9058134 13.8744999,18.3682011 C17.5172604,21.332255 20.9624091,22.8142819 24.209946,22.8142819 Z" id="eye-white" fill="#FFFFFF" opacity="0.800000012"></path>
                        <path d="M23.9267426,22.2280309 C26.2548312,22.2280309 28.1421199,20.2509685 28.1421199,17.8121385 C28.1421199,17.4794424 26.4123679,16.9441854 22.952864,16.2063675 C20.7918649,15.6509948 19.7113653,16.1862518 19.7113653,17.8121385 C19.7113653,20.2509685 21.598654,22.2280309 23.9267426,22.2280309 Z" id="iris" fill="{eye-color}" opacity="0.700000048"></path>
                        <path d="M19.4762409,16.5935503 C17.813051,16.9075115 16.0695169,17.4821221 14.0571893,18.3154696 C18.6345255,22.622418 25.0577503,23.8719266 32.8934592,21.3738875 C31.6246526,20.1377609 30.5608819,19.2871838 29.7082025,18.8238345 C29.3145347,18.6099139 28.7651012,18.3690226 28.0607864,18.1016584 C28.1822964,18.7438652 28.1146136,19.4093205 27.8540388,19.9339053 C27.0831546,21.485837 25.6982513,22.5115304 24.195639,22.5531989 C20.9381898,22.6435304 18.2475646,19.7051576 19.4762409,16.5935503 Z M19.8960404,16.5195802 L20.1805583,16.6525779 C18.9603554,19.3326966 21.2909112,21.9544458 24.1773056,21.8744039 C25.414902,21.8400844 26.5888044,20.9706635 27.2554343,19.628615 C27.4998809,19.1364991 27.5141942,18.4360111 27.290765,17.820511 C26.8289891,17.6577372 26.3168825,17.486399 25.7546096,17.3065888 C25.6266554,17.3823385 25.5402243,17.4197395 25.3997363,17.4537818 L25.3148592,17.1972652 L25.354282,17.1797956 C24.6432763,16.956699 23.8583719,16.7211447 22.9998627,16.4732982 C23.0168195,16.5488326 23.0381739,16.6430541 23.0495519,16.6895136 L22.7893822,16.7549327 C22.7680107,16.6676672 22.7146632,16.4268294 22.7140765,16.4243113 C22.7043101,16.382392 22.6949165,16.3455355 22.6853344,16.3124829 C21.7532953,16.2969029 20.8350898,16.3660527 19.8960404,16.5195802 Z M13.7861275,18.428596 C13.739828,18.4480651 13.6933852,18.4676679 13.646797,18.4874043 L13.3882994,17.8609056 C21.1110407,14.5892756 25.0185273,14.9084493 34.4651858,18.8690523 L34.2089664,19.4965112 C31.0354775,18.1659952 28.5106913,17.2542036 26.2616649,16.7573514 C28.0215891,17.3291265 29.2742501,17.8174891 30.0249237,18.2254081 C31.1826453,18.8545186 32.6538419,20.1085104 34.4509408,21.9908284 L33.9692868,22.4629682 C33.7873506,22.2724046 33.6089527,22.08854 33.4341069,21.9113783 C25.1713373,24.6433422 18.3417804,23.3385284 13.5094885,18.7261736 L13.7861275,18.428596 Z M26.0518257,18.734969 L26.5895924,18.8594849 L26.5510133,19.1274041 C26.3652206,19.1151276 26.2386304,19.0830366 25.9799567,18.9969492 L25.44219,18.8724334 L25.4807691,18.6045142 C25.6665618,18.6167907 25.793152,18.6488817 26.0518257,18.734969 Z M24.9713568,20.8116696 L24.722912,20.9136622 L24.261692,19.7601407 L24.5101368,19.658148 L24.9713568,20.8116696 Z M25.5457859,18.0889363 L25.5632292,17.8178923 L26.806429,17.900038 L26.7889858,18.171082 L25.5457859,18.0889363 Z M20.4724474,18.0663068 L20.4898906,17.7952628 C20.6567347,17.8062872 20.7899441,17.8051713 21.0905876,17.7950499 C21.399948,17.7846349 21.53914,17.7834689 21.7176292,17.7952628 L21.700186,18.0663068 C21.5333419,18.0552824 21.4001325,18.0563983 21.099489,18.0665197 C20.7901285,18.0769347 20.6509366,18.0781007 20.4724474,18.0663068 Z M21.0005121,19.4533778 L20.9133888,19.1965045 C20.9404779,19.1870132 20.9404779,19.1870132 20.9668366,19.1775475 C21.1088981,19.1262146 21.2331954,19.073594 21.3642432,19.0100853 C21.4996456,18.9444663 21.4947674,18.9470885 21.9332024,18.7077017 L22.0603607,18.9468164 C21.6157929,19.1895517 21.6211969,19.1866469 21.4799016,19.2551217 C21.3406152,19.3226229 21.2077782,19.3788588 21.0568754,19.4333864 C21.0290373,19.4433834 21.0290373,19.4433834 21.0005121,19.4533778 Z M23.6099444,21.0190743 L23.3529987,20.9416701 C23.4196617,20.7144653 23.4514045,20.5727739 23.4670649,20.433475 C23.4806342,20.3127761 23.4828801,20.2206684 23.4827708,19.921746 C23.482762,19.8972349 23.482762,19.8972349 23.482759,19.8718609 L23.7508196,19.8718609 C23.7508226,19.8971536 23.7508226,19.8971536 23.7508314,19.9216455 C23.7509447,20.2316434 23.7485615,20.3293827 23.733403,20.4642179 C23.7156978,20.6217057 23.6807053,20.7779027 23.6099444,21.0190743 Z M26.0642838,19.9126818 L25.8888016,20.1180111 L25.0165084,19.3525887 L25.1919906,19.1472594 L26.0642838,19.9126818 Z M22.0589345,20.4417635 L21.8497144,20.2719574 L22.464729,19.4939355 L22.6739491,19.6637416 L22.0589345,20.4417635 Z M21.1553924,16.6694412 L21.2861546,16.4323306 L22.2516244,16.9790016 L22.1208623,17.2161123 L21.1553924,16.6694412 Z M23.5726848,19.2618605 C22.6473986,19.2618605 22.082432,18.8545 22.082432,18.104443 C22.082432,17.354386 22.9259467,16.9200028 23.8512329,16.9200028 C24.7765192,16.9200028 25.0629376,17.354386 25.0629376,18.104443 C25.0629376,18.8545 24.497971,19.2618605 23.5726848,19.2618605 Z" id="eye" fill="#000000" fill-rule="nonzero" opacity="0.5"></path>
                        <path d="M16.5927858,16.728901 L16.5616434,16.7747042 C15.871917,16.5594521 15.4007915,16.3516927 15.1482668,16.151426 C14.8957421,15.9511592 14.8054586,15.8902988 14.8774164,15.9688449 C15.112224,15.9028143 15.3620686,15.9748323 15.6269502,16.1848988 C15.8221324,16.3396896 16.0739511,16.4411509 16.382406,16.4892826 L15.5329242,15.5217401 C15.6684408,15.4080256 15.8376934,15.4805945 16.0406819,15.7394468 C16.2436704,15.9982991 16.5259272,16.2874131 16.8874524,16.6067886 L16.6645663,16.8106575 L16.5927858,16.728901 Z M15.1862818,17.2965396 L15.0527292,17.5770801 C14.3558398,17.3596519 13.8511264,17.1641661 13.5385888,16.9906228 C13.2260513,16.8170796 13.0788648,16.7437597 13.0970292,16.7706632 C13.4118413,16.7081465 13.7213845,16.7613655 14.0256587,16.9303204 C14.3299328,17.0992753 14.7168072,17.2213483 15.1862818,17.2965396 Z M17.4861648,16.4257658 L17.2561406,16.6201665 L16.1790722,15.3730731 C16.3001032,15.2688109 16.4538105,15.345298 16.6401942,15.6025344 C16.826578,15.8597707 17.1085681,16.1341812 17.4861648,16.4257658 Z M19.0211834,15.9010059 L18.7959583,16.101854 C18.516234,15.8990651 18.2875062,15.6814373 18.1097751,15.4489705 C17.932044,15.2165036 17.8384737,15.1222117 17.8290643,15.1660946 C17.9354023,15.0159289 18.0420838,15.0252033 18.1491088,15.1939178 C18.287444,15.4119898 18.2559394,15.103068 18.3599895,15.2391623 C18.5847892,15.5331935 18.8051871,15.753808 19.0211834,15.9010059 Z M20.5720728,16.0031935 L20.3498547,16.2079112 C20.0443559,16.0082889 19.796958,15.7886421 19.607661,15.5489706 C19.4183641,15.3092991 19.3119063,15.1737565 19.2882875,15.1423427 C19.4559212,15.0957995 19.6389259,15.1981108 19.8373014,15.4492769 C20.0356769,15.7004429 20.2806007,15.8850818 20.5720728,16.0031935 Z M21.8763009,15.9845979 L21.6595227,16.1960093 C21.2163842,15.8846305 20.9091522,15.6264873 20.7378265,15.4215797 C20.5665009,15.2166721 20.5267924,15.1324205 20.618701,15.168825 C20.7636506,15.0931254 20.87419,15.1230382 20.9503192,15.2585633 C21.0481043,15.4326401 20.9089773,15.2303413 20.9980914,15.3369229 C21.1912733,15.5679709 21.4840098,15.7838626 21.8763009,15.9845979 Z M23.0319638,16.1309683 L22.7914467,16.309945 C22.2316357,15.9449159 21.8723515,15.6379779 21.7135942,15.3891311 C21.5548369,15.1402842 21.4450917,15.0129159 21.3843587,15.0070261 C21.5703419,14.866503 21.6891708,14.8751736 21.7408456,15.0330379 C21.8145692,15.2582607 21.9475646,15.1234355 22.0326047,15.2567329 C22.2070547,15.5301776 22.5401745,15.8215894 23.0319638,16.1309683 Z M23.6693029,16.2960853 L23.384042,16.3638548 C23.1323992,15.9118997 22.9840514,15.5753238 22.9389985,15.3541273 C22.8939457,15.1329308 22.8748164,15.0175967 22.8816105,15.0081251 C23.0378124,14.9714956 23.1113282,15.0111693 23.1021579,15.1271463 C23.0861993,15.3289748 23.1853598,15.3770778 23.2100549,15.4983235 C23.2560358,15.7240764 23.4091184,15.989997 23.6693029,16.2960853 Z M24.2460357,16.4557258 L23.9539551,16.4562028 C23.7886068,16.1511105 23.7058187,15.9172358 23.705591,15.7545788 C23.7053633,15.5919218 23.7692336,15.4657394 23.897202,15.3760317 L24.2441816,15.1315536 C24.0808983,15.4282608 23.9993497,15.6430853 23.9995358,15.7760271 C23.999722,15.9089689 24.0818886,16.1355351 24.2460357,16.4557258 Z M24.9481425,16.4502449 L24.6560615,16.4502857 C24.5094075,16.1622249 24.4360721,15.9480892 24.4360553,15.8078787 C24.4360386,15.6676681 24.5295597,15.5610088 24.7166186,15.4879008 L24.9479998,15.2573039 C24.855952,15.5122405 24.8099359,15.7048595 24.8099515,15.8351608 C24.809967,15.9654621 24.8560307,16.1704901 24.9481425,16.4502449 Z M14.1129632,19.6938414 L14.3097883,20.0185227 C14.1245122,20.0524885 14.0136233,20.0786804 13.9771218,20.0970983 C13.7140709,20.2298284 13.5129348,20.3056527 13.3737134,20.3245712 C13.205514,20.3474274 13.0625205,20.2996252 12.9447328,20.1811646 C13.0589863,20.0924522 13.2090015,20.0354736 13.3947785,20.0102288 C13.5805555,19.984984 13.8199504,19.8795215 14.1129632,19.6938414 Z M14.4482863,20.0286285 L14.5947332,20.3015603 C14.4031673,20.5102162 14.2382572,20.6578078 14.1000028,20.7443352 C13.9617484,20.8308626 13.828036,20.8938119 13.6988658,20.9331831 C13.7468874,20.7861745 13.8460688,20.6656243 13.9964099,20.5715324 C14.146751,20.4774405 14.2973764,20.2964725 14.4482863,20.0286285 Z M15.0308904,20.2024377 L15.2021306,20.4579855 C15.021738,20.7218214 14.8654695,20.9053811 14.7333251,21.0086646 C14.6011808,21.1119481 14.4815405,21.1527687 14.3744044,21.1311263 L13.8880953,21.0956417 C14.230302,20.9885174 14.4671807,20.8835454 14.5987314,20.780726 C14.730282,20.6779065 14.8743351,20.4851438 15.0308904,20.2024377 Z M15.3346118,20.8239508 L15.5766809,21.0004701 C15.4307921,21.3943648 15.3169572,21.6567184 15.235176,21.7875309 C15.1125042,21.9837497 14.91791,21.9039513 15.1034017,21.6072494 C15.2270629,21.4094481 15.3041329,21.1483486 15.3346118,20.8239508 Z M15.8391349,20.9660094 L16.0878806,21.1313479 C15.9415252,21.6255389 15.8211917,21.955384 15.7268799,22.1208832 C15.5854122,22.369132 15.3509396,22.2014961 15.5155542,21.9126288 C15.6252973,21.7200505 15.7331575,21.4045107 15.8391349,20.9660094 Z M16.9383702,21.3620747 L17.147389,21.4811265 C17.0477401,21.8733116 16.9576076,22.1389348 16.8769914,22.277996 C16.7963752,22.4170573 16.7295511,22.5043864 16.6765191,22.5399833 C16.5679475,22.4537872 16.5567474,22.3363674 16.6429186,22.1877239 C16.7290898,22.0390804 16.8275736,21.763864 16.9383702,21.3620747 Z M17.2689353,21.639329 L17.5508926,21.6599026 C17.558713,22.054214 17.5413597,22.3103137 17.4988328,22.4282015 C17.4563059,22.5460892 17.4205908,22.6007444 17.3916875,22.5921671 L16.916182,22.7275326 C17.0894288,22.5445124 17.1939998,22.4032503 17.2298949,22.3037464 C17.2657899,22.2042424 17.2788034,21.9827699 17.2689353,21.639329 Z M18.1987388,21.9277632 L18.403583,21.9570489 C18.3855924,22.360769 18.3681447,22.6295511 18.3512398,22.7633951 C18.3343348,22.8972392 18.3270817,22.9970545 18.3294803,23.0628412 C18.1873179,22.9983672 18.1254095,22.8935053 18.143755,22.7482556 C18.1621005,22.6030058 18.1804285,22.3295083 18.1987388,21.9277632 Z M19.4022492,22.2274242 L19.6590887,22.3776367 C19.653354,22.6305599 19.623072,22.8116962 19.5682427,22.9210458 C19.4859988,23.0850701 19.2672348,23.0248882 19.3613927,22.8371031 C19.4241647,22.7119129 19.4377835,22.5086867 19.4022492,22.2274242 Z M20.4339931,22.6423716 L20.7258208,22.6555039 C20.7291817,22.9203 20.7285959,23.1114389 20.7240634,23.2289204 C20.7172647,23.4051428 20.4644494,23.4080018 20.4742554,23.1538309 C20.4807927,22.9843837 20.4673719,22.8138972 20.4339931,22.6423716 Z M16.0444174,17.0714858 L15.8988743,17.344981 C15.2560042,17.1139592 14.7993932,16.9145429 14.5290414,16.7467322 C14.2586896,16.5789214 14.1334184,16.4898335 14.1532277,16.4794682 C14.3143049,16.437582 14.5165303,16.4921714 14.7599039,16.6432365 C15.0032775,16.7943015 15.4314487,16.9370513 16.0444174,17.0714858 Z M14.9487095,17.7946057 L14.8650157,18.096826 C14.0970794,18.1171539 13.5604143,18.077995 13.2550205,17.9793493 C12.9496267,17.8807035 12.7958752,17.7209453 12.7937661,17.5000748 C13.1672862,17.5847912 13.4974661,17.6734758 13.7843057,17.7661283 C14.0711454,17.8587808 14.45928,17.8682733 14.9487095,17.7946057 Z M18.2695014,16.3791734 L18.0319,16.5626365 C17.5519996,16.1756844 17.2353838,15.8663974 17.0820526,15.6347755 C16.9287213,15.4031536 16.8617378,15.2851356 16.8811019,15.2807216 C17.1279571,15.3102888 17.3443225,15.465464 17.5301981,15.7462474 C17.7160737,16.0270308 17.9625082,16.2380061 18.2695014,16.3791734 Z" id="eye-lashes" fill="#000000" fill-rule="nonzero" opacity="0.300000012" transform="translate(18.870954, 19.130837) rotate(1.000000) translate(-18.870954, -19.130837) "></path>
                        <path d="M0.755238588,8.61064965 L1.67665039,5.26483332 C3.53865599,3.58259328 5.67578728,3.65471307 13.3838915,4.68105212 C13.7722005,4.73271985 13.9340146,4.75417381 14.1595663,4.78381948 C17.6042658,5.2365778 19.5591389,5.4003465 21.1696597,5.30199642 C21.7565253,5.26615815 22.3541325,5.22704147 23.0699851,5.17816499 C29.773444,4.72047093 27.6625227,4.3727569 30.0830222,4.68081692 C33.4417123,5.10828163 35.9647939,6.3985043 37.9840455,8.90464815 L34.9771521,11.198176 C32.5129157,8.13975019 33.8251762,8.17043799 23.3374428,8.88651208 C22.6129532,8.93597827 22.0064366,8.97567812 21.4089914,9.01216246 C19.4623577,9.13103803 17.3434053,8.95352366 13.6480804,8.46782408 C13.4198812,8.43783044 13.2559589,8.41609697 12.8658558,8.36419022 C7.1979779,7.60950863 1.26534934,8.14978705 0.755238588,8.61064965 Z" id="eye-brow" fill="{hair-color}" fill-rule="nonzero" transform="translate(19.369642, 7.573127) rotate(12.000000) translate(-19.369642, -7.573127) "></path>
                    </g>
                    <g id="eye-r" transform="translate(73.371205, 13.776170) scale(-1, 1) rotate(-5.000000) translate(-73.371205, -13.776170) translate(53.871205, 1.776170)">
                        <path d="M24.209946,22.8142819 C27.4574829,22.8142819 30.453148,22.4292002 33.1969412,21.6590368 C29.2267956,18.0027587 25.6179544,16.1746196 22.3704175,16.1746196 C19.1228805,16.1746196 16.290908,16.9058134 13.8744999,18.3682011 C17.5172604,21.332255 20.9624091,22.8142819 24.209946,22.8142819 Z" id="eye-white" fill="#FFFFFF" opacity="0.800000012"></path>
                        <path d="M23.9267426,22.2280309 C26.2548312,22.2280309 28.1421199,20.2509685 28.1421199,17.8121385 C28.1421199,17.4794424 26.4123679,16.9441854 22.952864,16.2063675 C20.7918649,15.6509948 19.7113653,16.1862518 19.7113653,17.8121385 C19.7113653,20.2509685 21.598654,22.2280309 23.9267426,22.2280309 Z" id="iris" fill="{eye-color}" opacity="0.700000048"></path>
                        <path d="M19.4762409,16.5935503 C17.813051,16.9075115 16.0695169,17.4821221 14.0571893,18.3154696 C18.6345255,22.622418 25.0577503,23.8719266 32.8934592,21.3738875 C31.6246526,20.1377609 30.5608819,19.2871838 29.7082025,18.8238345 C29.3145347,18.6099139 28.7651012,18.3690226 28.0607864,18.1016584 C28.1822964,18.7438652 28.1146136,19.4093205 27.8540388,19.9339053 C27.0831546,21.485837 25.6982513,22.5115304 24.195639,22.5531989 C20.9381898,22.6435304 18.2475646,19.7051576 19.4762409,16.5935503 Z M19.8960404,16.5195802 L20.1805583,16.6525779 C18.9603554,19.3326966 21.2909112,21.9544458 24.1773056,21.8744039 C25.414902,21.8400844 26.5888044,20.9706635 27.2554343,19.628615 C27.4998809,19.1364991 27.5141942,18.4360111 27.290765,17.820511 C26.8289891,17.6577372 26.3168825,17.486399 25.7546096,17.3065888 C25.6266554,17.3823385 25.5402243,17.4197395 25.3997363,17.4537818 L25.3148592,17.1972652 L25.354282,17.1797956 C24.6432763,16.956699 23.8583719,16.7211447 22.9998627,16.4732982 C23.0168195,16.5488326 23.0381739,16.6430541 23.0495519,16.6895136 L22.7893822,16.7549327 C22.7680107,16.6676672 22.7146632,16.4268294 22.7140765,16.4243113 C22.7043101,16.382392 22.6949165,16.3455355 22.6853344,16.3124829 C21.7532953,16.2969029 20.8350898,16.3660527 19.8960404,16.5195802 Z M13.7861275,18.428596 C13.739828,18.4480651 13.6933852,18.4676679 13.646797,18.4874043 L13.3882994,17.8609056 C21.1110407,14.5892756 25.0185273,14.9084493 34.4651858,18.8690523 L34.2089664,19.4965112 C31.0354775,18.1659952 28.5106913,17.2542036 26.2616649,16.7573514 C28.0215891,17.3291265 29.2742501,17.8174891 30.0249237,18.2254081 C31.1826453,18.8545186 32.6538419,20.1085104 34.4509408,21.9908284 L33.9692868,22.4629682 C33.7873506,22.2724046 33.6089527,22.08854 33.4341069,21.9113783 C25.1713373,24.6433422 18.3417804,23.3385284 13.5094885,18.7261736 L13.7861275,18.428596 Z M26.0518257,18.734969 L26.5895924,18.8594849 L26.5510133,19.1274041 C26.3652206,19.1151276 26.2386304,19.0830366 25.9799567,18.9969492 L25.44219,18.8724334 L25.4807691,18.6045142 C25.6665618,18.6167907 25.793152,18.6488817 26.0518257,18.734969 Z M24.9713568,20.8116696 L24.722912,20.9136622 L24.261692,19.7601407 L24.5101368,19.658148 L24.9713568,20.8116696 Z M25.5457859,18.0889363 L25.5632292,17.8178923 L26.806429,17.900038 L26.7889858,18.171082 L25.5457859,18.0889363 Z M20.4724474,18.0663068 L20.4898906,17.7952628 C20.6567347,17.8062872 20.7899441,17.8051713 21.0905876,17.7950499 C21.399948,17.7846349 21.53914,17.7834689 21.7176292,17.7952628 L21.700186,18.0663068 C21.5333419,18.0552824 21.4001325,18.0563983 21.099489,18.0665197 C20.7901285,18.0769347 20.6509366,18.0781007 20.4724474,18.0663068 Z M21.0005121,19.4533778 L20.9133888,19.1965045 C20.9404779,19.1870132 20.9404779,19.1870132 20.9668366,19.1775475 C21.1088981,19.1262146 21.2331954,19.073594 21.3642432,19.0100853 C21.4996456,18.9444663 21.4947674,18.9470885 21.9332024,18.7077017 L22.0603607,18.9468164 C21.6157929,19.1895517 21.6211969,19.1866469 21.4799016,19.2551217 C21.3406152,19.3226229 21.2077782,19.3788588 21.0568754,19.4333864 C21.0290373,19.4433834 21.0290373,19.4433834 21.0005121,19.4533778 Z M23.6099444,21.0190743 L23.3529987,20.9416701 C23.4196617,20.7144653 23.4514045,20.5727739 23.4670649,20.433475 C23.4806342,20.3127761 23.4828801,20.2206684 23.4827708,19.921746 C23.482762,19.8972349 23.482762,19.8972349 23.482759,19.8718609 L23.7508196,19.8718609 C23.7508226,19.8971536 23.7508226,19.8971536 23.7508314,19.9216455 C23.7509447,20.2316434 23.7485615,20.3293827 23.733403,20.4642179 C23.7156978,20.6217057 23.6807053,20.7779027 23.6099444,21.0190743 Z M26.0642838,19.9126818 L25.8888016,20.1180111 L25.0165084,19.3525887 L25.1919906,19.1472594 L26.0642838,19.9126818 Z M22.0589345,20.4417635 L21.8497144,20.2719574 L22.464729,19.4939355 L22.6739491,19.6637416 L22.0589345,20.4417635 Z M21.1553924,16.6694412 L21.2861546,16.4323306 L22.2516244,16.9790016 L22.1208623,17.2161123 L21.1553924,16.6694412 Z M23.5726848,19.2618605 C22.6473986,19.2618605 22.082432,18.8545 22.082432,18.104443 C22.082432,17.354386 22.9259467,16.9200028 23.8512329,16.9200028 C24.7765192,16.9200028 25.0629376,17.354386 25.0629376,18.104443 C25.0629376,18.8545 24.497971,19.2618605 23.5726848,19.2618605 Z" id="eye" fill="#000000" fill-rule="nonzero" opacity="0.5"></path>
                        <path d="M16.5927858,16.728901 L16.5616434,16.7747042 C15.871917,16.5594521 15.4007915,16.3516927 15.1482668,16.151426 C14.8957421,15.9511592 14.8054586,15.8902988 14.8774164,15.9688449 C15.112224,15.9028143 15.3620686,15.9748323 15.6269502,16.1848988 C15.8221324,16.3396896 16.0739511,16.4411509 16.382406,16.4892826 L15.5329242,15.5217401 C15.6684408,15.4080256 15.8376934,15.4805945 16.0406819,15.7394468 C16.2436704,15.9982991 16.5259272,16.2874131 16.8874524,16.6067886 L16.6645663,16.8106575 L16.5927858,16.728901 Z M15.1862818,17.2965396 L15.0527292,17.5770801 C14.3558398,17.3596519 13.8511264,17.1641661 13.5385888,16.9906228 C13.2260513,16.8170796 13.0788648,16.7437597 13.0970292,16.7706632 C13.4118413,16.7081465 13.7213845,16.7613655 14.0256587,16.9303204 C14.3299328,17.0992753 14.7168072,17.2213483 15.1862818,17.2965396 Z M17.4861648,16.4257658 L17.2561406,16.6201665 L16.1790722,15.3730731 C16.3001032,15.2688109 16.4538105,15.345298 16.6401942,15.6025344 C16.826578,15.8597707 17.1085681,16.1341812 17.4861648,16.4257658 Z M19.0211834,15.9010059 L18.7959583,16.101854 C18.516234,15.8990651 18.2875062,15.6814373 18.1097751,15.4489705 C17.932044,15.2165036 17.8384737,15.1222117 17.8290643,15.1660946 C17.9354023,15.0159289 18.0420838,15.0252033 18.1491088,15.1939178 C18.287444,15.4119898 18.2559394,15.103068 18.3599895,15.2391623 C18.5847892,15.5331935 18.8051871,15.753808 19.0211834,15.9010059 Z M20.5720728,16.0031935 L20.3498547,16.2079112 C20.0443559,16.0082889 19.796958,15.7886421 19.607661,15.5489706 C19.4183641,15.3092991 19.3119063,15.1737565 19.2882875,15.1423427 C19.4559212,15.0957995 19.6389259,15.1981108 19.8373014,15.4492769 C20.0356769,15.7004429 20.2806007,15.8850818 20.5720728,16.0031935 Z M21.8763009,15.9845979 L21.6595227,16.1960093 C21.2163842,15.8846305 20.9091522,15.6264873 20.7378265,15.4215797 C20.5665009,15.2166721 20.5267924,15.1324205 20.618701,15.168825 C20.7636506,15.0931254 20.87419,15.1230382 20.9503192,15.2585633 C21.0481043,15.4326401 20.9089773,15.2303413 20.9980914,15.3369229 C21.1912733,15.5679709 21.4840098,15.7838626 21.8763009,15.9845979 Z M23.0319638,16.1309683 L22.7914467,16.309945 C22.2316357,15.9449159 21.8723515,15.6379779 21.7135942,15.3891311 C21.5548369,15.1402842 21.4450917,15.0129159 21.3843587,15.0070261 C21.5703419,14.866503 21.6891708,14.8751736 21.7408456,15.0330379 C21.8145692,15.2582607 21.9475646,15.1234355 22.0326047,15.2567329 C22.2070547,15.5301776 22.5401745,15.8215894 23.0319638,16.1309683 Z M23.6693029,16.2960853 L23.384042,16.3638548 C23.1323992,15.9118997 22.9840514,15.5753238 22.9389985,15.3541273 C22.8939457,15.1329308 22.8748164,15.0175967 22.8816105,15.0081251 C23.0378124,14.9714956 23.1113282,15.0111693 23.1021579,15.1271463 C23.0861993,15.3289748 23.1853598,15.3770778 23.2100549,15.4983235 C23.2560358,15.7240764 23.4091184,15.989997 23.6693029,16.2960853 Z M24.2460357,16.4557258 L23.9539551,16.4562028 C23.7886068,16.1511105 23.7058187,15.9172358 23.705591,15.7545788 C23.7053633,15.5919218 23.7692336,15.4657394 23.897202,15.3760317 L24.2441816,15.1315536 C24.0808983,15.4282608 23.9993497,15.6430853 23.9995358,15.7760271 C23.999722,15.9089689 24.0818886,16.1355351 24.2460357,16.4557258 Z M24.9481425,16.4502449 L24.6560615,16.4502857 C24.5094075,16.1622249 24.4360721,15.9480892 24.4360553,15.8078787 C24.4360386,15.6676681 24.5295597,15.5610088 24.7166186,15.4879008 L24.9479998,15.2573039 C24.855952,15.5122405 24.8099359,15.7048595 24.8099515,15.8351608 C24.809967,15.9654621 24.8560307,16.1704901 24.9481425,16.4502449 Z M14.1129632,19.6938414 L14.3097883,20.0185227 C14.1245122,20.0524885 14.0136233,20.0786804 13.9771218,20.0970983 C13.7140709,20.2298284 13.5129348,20.3056527 13.3737134,20.3245712 C13.205514,20.3474274 13.0625205,20.2996252 12.9447328,20.1811646 C13.0589863,20.0924522 13.2090015,20.0354736 13.3947785,20.0102288 C13.5805555,19.984984 13.8199504,19.8795215 14.1129632,19.6938414 Z M14.4482863,20.0286285 L14.5947332,20.3015603 C14.4031673,20.5102162 14.2382572,20.6578078 14.1000028,20.7443352 C13.9617484,20.8308626 13.828036,20.8938119 13.6988658,20.9331831 C13.7468874,20.7861745 13.8460688,20.6656243 13.9964099,20.5715324 C14.146751,20.4774405 14.2973764,20.2964725 14.4482863,20.0286285 Z M15.0308904,20.2024377 L15.2021306,20.4579855 C15.021738,20.7218214 14.8654695,20.9053811 14.7333251,21.0086646 C14.6011808,21.1119481 14.4815405,21.1527687 14.3744044,21.1311263 L13.8880953,21.0956417 C14.230302,20.9885174 14.4671807,20.8835454 14.5987314,20.780726 C14.730282,20.6779065 14.8743351,20.4851438 15.0308904,20.2024377 Z M15.3346118,20.8239508 L15.5766809,21.0004701 C15.4307921,21.3943648 15.3169572,21.6567184 15.235176,21.7875309 C15.1125042,21.9837497 14.91791,21.9039513 15.1034017,21.6072494 C15.2270629,21.4094481 15.3041329,21.1483486 15.3346118,20.8239508 Z M15.8391349,20.9660094 L16.0878806,21.1313479 C15.9415252,21.6255389 15.8211917,21.955384 15.7268799,22.1208832 C15.5854122,22.369132 15.3509396,22.2014961 15.5155542,21.9126288 C15.6252973,21.7200505 15.7331575,21.4045107 15.8391349,20.9660094 Z M16.9383702,21.3620747 L17.147389,21.4811265 C17.0477401,21.8733116 16.9576076,22.1389348 16.8769914,22.277996 C16.7963752,22.4170573 16.7295511,22.5043864 16.6765191,22.5399833 C16.5679475,22.4537872 16.5567474,22.3363674 16.6429186,22.1877239 C16.7290898,22.0390804 16.8275736,21.763864 16.9383702,21.3620747 Z M17.2689353,21.639329 L17.5508926,21.6599026 C17.558713,22.054214 17.5413597,22.3103137 17.4988328,22.4282015 C17.4563059,22.5460892 17.4205908,22.6007444 17.3916875,22.5921671 L16.916182,22.7275326 C17.0894288,22.5445124 17.1939998,22.4032503 17.2298949,22.3037464 C17.2657899,22.2042424 17.2788034,21.9827699 17.2689353,21.639329 Z M18.1987388,21.9277632 L18.403583,21.9570489 C18.3855924,22.360769 18.3681447,22.6295511 18.3512398,22.7633951 C18.3343348,22.8972392 18.3270817,22.9970545 18.3294803,23.0628412 C18.1873179,22.9983672 18.1254095,22.8935053 18.143755,22.7482556 C18.1621005,22.6030058 18.1804285,22.3295083 18.1987388,21.9277632 Z M19.4022492,22.2274242 L19.6590887,22.3776367 C19.653354,22.6305599 19.623072,22.8116962 19.5682427,22.9210458 C19.4859988,23.0850701 19.2672348,23.0248882 19.3613927,22.8371031 C19.4241647,22.7119129 19.4377835,22.5086867 19.4022492,22.2274242 Z M20.4339931,22.6423716 L20.7258208,22.6555039 C20.7291817,22.9203 20.7285959,23.1114389 20.7240634,23.2289204 C20.7172647,23.4051428 20.4644494,23.4080018 20.4742554,23.1538309 C20.4807927,22.9843837 20.4673719,22.8138972 20.4339931,22.6423716 Z M16.0444174,17.0714858 L15.8988743,17.344981 C15.2560042,17.1139592 14.7993932,16.9145429 14.5290414,16.7467322 C14.2586896,16.5789214 14.1334184,16.4898335 14.1532277,16.4794682 C14.3143049,16.437582 14.5165303,16.4921714 14.7599039,16.6432365 C15.0032775,16.7943015 15.4314487,16.9370513 16.0444174,17.0714858 Z M14.9487095,17.7946057 L14.8650157,18.096826 C14.0970794,18.1171539 13.5604143,18.077995 13.2550205,17.9793493 C12.9496267,17.8807035 12.7958752,17.7209453 12.7937661,17.5000748 C13.1672862,17.5847912 13.4974661,17.6734758 13.7843057,17.7661283 C14.0711454,17.8587808 14.45928,17.8682733 14.9487095,17.7946057 Z M18.2695014,16.3791734 L18.0319,16.5626365 C17.5519996,16.1756844 17.2353838,15.8663974 17.0820526,15.6347755 C16.9287213,15.4031536 16.8617378,15.2851356 16.8811019,15.2807216 C17.1279571,15.3102888 17.3443225,15.465464 17.5301981,15.7462474 C17.7160737,16.0270308 17.9625082,16.2380061 18.2695014,16.3791734 Z" id="eye-lashes" fill="#000000" fill-rule="nonzero" opacity="0.300000012" transform="translate(18.870954, 19.130837) rotate(1.000000) translate(-18.870954, -19.130837) "></path>
                        <path d="M0.755238588,8.61064965 L1.67665039,5.26483332 C3.53865599,3.58259328 5.67578728,3.65471307 13.3838915,4.68105212 C13.7722005,4.73271985 13.9340146,4.75417381 14.1595663,4.78381948 C17.6042658,5.2365778 19.5591389,5.4003465 21.1696597,5.30199642 C21.7565253,5.26615815 22.3541325,5.22704147 23.0699851,5.17816499 C29.773444,4.72047093 27.6625227,4.3727569 30.0830222,4.68081692 C33.4417123,5.10828163 35.9647939,6.3985043 37.9840455,8.90464815 L34.9771521,11.198176 C32.5129157,8.13975019 33.8251762,8.17043799 23.3374428,8.88651208 C22.6129532,8.93597827 22.0064366,8.97567812 21.4089914,9.01216246 C19.4623577,9.13103803 17.3434053,8.95352366 13.6480804,8.46782408 C13.4198812,8.43783044 13.2559589,8.41609697 12.8658558,8.36419022 C7.1979779,7.60950863 1.26534934,8.14978705 0.755238588,8.61064965 Z" id="eye-brow" fill="{hair-color}" fill-rule="nonzero" transform="translate(19.369642, 7.573127) rotate(12.000000) translate(-19.369642, -7.573127) "></path>
                    </g>
                    <path d="M4.94478596,27.0195855 C4.811217,27.2705932 4.64658916,27.5504267 4.43894943,27.8899914 C3.89055674,28.7868081 3.68564548,29.1979855 3.5470673,29.7955699 C3.45373585,30.1980389 3.46414165,30.6381333 3.55801924,31.6917119 C3.66241481,32.8633327 3.67403937,33.3549725 3.5470673,33.9025084 L2.57291742,33.6766057 C2.66624886,33.2741368 2.65584307,32.8340424 2.56196548,31.7804638 C2.4575699,30.6088429 2.44594534,30.1172032 2.57291742,29.5696672 C2.74314,28.8356241 2.98354252,28.3532296 3.5858107,27.3683073 C4.0840436,26.5535196 4.29875582,26.1395944 4.43778993,25.6225421 C4.31184214,25.3352737 4.21917747,25.0846803 4.05802066,24.6214166 C3.59216993,23.2826604 3.17061713,22.492131 1.83912783,20.7564831 L2.63255185,20.1478138 C4.03000517,21.9694483 4.50205555,22.8546748 4.99529692,24.2721422 C5.18306456,24.8118993 5.26920146,25.039501 5.41938766,25.3675437 C6.15973362,26.984637 6.26764687,28.2612258 6.23615855,32.4003145 C6.21688002,34.9344468 6.23257889,36.3494209 6.33474138,38.2673495 L5.33615706,38.3205412 C5.23265057,36.3773812 5.21676582,34.945654 5.23618749,32.3927072 C5.25783262,29.5474891 5.21211417,28.1232755 4.94478596,27.0195855 Z" id="ear" fill="#000000" fill-rule="nonzero" opacity="0.3" transform="translate(4.086935, 29.234177) rotate(-9.000000) translate(-4.086935, -29.234177) "></path>
                </g>
                <g id="hair" transform="translate(62.000000, 0.000000)">
                    <path d="M29.5910748,103.700083 C29.4899989,105.298645 29.3611815,107.073161 29.2046224,109.023634 L29.7934896,125.191831 L30.6876953,132.820077 L29.1784505,144.111459 C17.2876953,149.362668 8.6640625,151.988273 3.30755208,151.988273 C-2.38832522,151.988273 6.12299114,114.748355 6.19245605,109.023634 C6.39125162,92.6405532 11.0350575,69.8198741 9.88159993,53.4762744 C7.11276539,14.2440339 18.0423177,1.28583453 61.2084635,1.28583453 C69.5878413,1.28583453 93.3855983,1.51211395 101.408464,11.9773552 C112.103974,25.9288662 117.976169,43.8520907 115.275637,57.2924569 C115.125151,66.4498542 115.745459,76.4471651 116.136154,86.0665301 C116.341172,86.7182651 116.4919,87.3551463 116.531185,87.9752908 C116.621459,89.4003181 116.667546,90.7925324 116.671306,92.1520677 C116.676736,94.1160003 117.942873,98.4491196 117.77724,100.27707 C117.707416,101.047663 117.10462,101.429021 116.377029,101.717935 C116.301515,104.039167 116.152881,106.358078 115.948537,108.673769 C116.08569,109.054672 116.142602,109.384897 116.070062,109.633679 C116.027702,109.778953 115.943281,109.897756 115.825912,109.99578 C114.974155,118.760349 113.371009,127.476313 111.961957,136.095 C111.323789,139.998452 104.212826,136.199995 101.900466,133.249747 C100.6786,131.690816 99.9005807,129.598129 99.5637723,127.392516 C97.4221362,129.565508 95.2332089,134.591814 92.7862319,135.780551 C90.7861445,136.75219 88.548445,133.451307 86.4106262,134.08286 C83.9107611,134.821368 82.2089241,138.164662 79.5931673,138.44337 C77.0811382,138.711026 73.658176,135.931857 71.1098608,135.780551 C68.9215898,135.650623 67.0460259,138.878814 64.8783988,138.44337 C62.8787839,138.041677 60.5839361,133.998995 58.6377159,133.339898 C56.5149181,132.621001 54.0714443,135.104901 52.0549296,134.08286 C50.904606,133.499835 50.1378688,129.512576 49.0335317,128.831727 C47.5522898,127.918507 44.0106374,129.919682 42.6295714,128.831727 C41.0380892,127.578013 41.6252572,123.206637 40.1953626,121.722949 C39.260796,120.753224 36.3541631,121.612688 35.4994254,120.545501 C34.8005902,119.672967 36.1397097,116.889887 35.4994254,115.952578 C33.0343813,112.34401 31.020547,108.256642 29.5910748,103.700083 Z M28.0692974,87.8370504 L28.1692297,87.3206166 C34.363142,100.689684 36.561846,111.069513 49.7303152,116.137015 C74.3376669,125.606439 108.372156,118.400104 110.645737,80.854367 C111.114545,73.1125216 108.272818,51.9158939 108.779025,45.3900263 C108.107699,43.9934882 107.539477,42.9977605 107.181543,42.7842083 C100.487438,38.7903467 103.277505,32.1653916 97.325651,27.1309493 C92.0758374,22.6903358 93.2311077,25.1111833 86.4316081,24.3009692 C79.5302484,23.4786177 73.6217657,27.5801622 66.6718424,27.6349781 C63.0462142,27.6635744 46.2768487,22.9495472 42.9121419,24.3009692 C35.4802714,27.2859524 33.7635266,36.2153563 29.1784505,42.7842083 C24.9928493,48.7807489 26.2684326,52.8123985 26.2755534,60.1262912 C26.2763552,60.9498385 25.6365234,56.4933561 20.2669271,55.5305738 C14.8973307,54.5677914 11.5985114,55.0322473 11.6340251,55.5305738 C11.7010968,56.4717212 16.3435923,60.0054231 17.5614095,63.6490381 C18.4820031,66.4033832 19.3848387,69.7625975 20.2669271,73.0319385 C21.9474065,79.2604078 21.7553385,82.2032007 22.1992839,83.2843431 C23.0369943,85.3244237 25.1218099,85.857981 26.2755534,85.5912024 C26.776582,85.4753501 27.4461309,86.4200663 28.0692974,87.8370504 Z" fill="{hair-color}"></path>
                    <path d="M29.2938209,125.21003 L28.7062254,108.983629 C28.8625684,107.035848 28.9911834,105.26412 29.0920713,103.668531 L29.2620148,100.980797 L30.0681492,103.550416 C31.4534263,107.9661 33.419741,112.021713 35.9122909,115.670546 C36.2870161,116.219104 36.2554056,116.788172 35.9780832,118.314983 C35.7570178,119.532037 35.7328578,120.037128 35.8896834,120.232933 C36.1197754,120.520215 36.6205332,120.620674 37.8947582,120.673558 C39.452966,120.738201 40.044524,120.845905 40.5553823,121.375982 C41.2314032,122.077436 41.4678073,122.926972 41.8189592,125.118591 C42.1533308,127.20548 42.3959821,128.011205 42.9389799,128.438959 C43.357237,128.768447 44.061448,128.736582 45.7836744,128.389282 C47.7676057,127.989168 48.5369983,127.938214 49.2959318,128.406114 C49.867209,128.75832 50.2119722,129.409161 50.8990146,131.08331 C51.6138538,132.827407 51.9585589,133.473462 52.2809718,133.636872 C52.9874547,133.994943 53.6486329,133.888574 55.2906736,133.299585 C57.0234066,132.689068 57.8808254,132.555679 58.7980962,132.866317 C59.6923878,133.169174 60.3490897,133.764103 61.9865918,135.521544 C62.157889,135.705388 62.2591309,135.813659 62.3673172,135.928372 C63.5836287,137.218061 64.3309465,137.823406 64.976874,137.953163 C65.679496,138.09431 66.3475979,137.794764 67.5896301,136.896606 C69.3710205,135.600056 70.1043646,135.219969 71.139496,135.28143 C72.2088122,135.344921 73.0914448,135.673558 75.244389,136.663559 C77.5308949,137.711638 78.5808656,138.0484 79.5401924,137.946184 C80.5616135,137.837352 81.3243384,137.325172 82.9251002,135.869483 C84.4871794,134.448837 85.2118237,133.915648 86.2689687,133.603347 C86.9781187,133.39385 87.6994022,133.51159 88.5317271,133.886939 C88.8856179,134.046531 89.1763824,134.205609 89.7673723,134.549114 C91.3105056,135.44604 91.9166407,135.647119 92.5677494,135.330812 C93.6330279,134.813302 94.602605,133.624713 96.3634727,130.936354 C97.9753269,128.475499 98.4270782,127.833551 99.2076589,127.041541 L99.9075336,126.33142 L100.058043,127.317038 C100.396006,129.530217 101.17118,131.508752 102.293994,132.941306 C103.407721,134.362266 105.701014,135.987562 107.739443,136.776193 C109.924369,137.621501 111.245747,137.376875 111.468508,136.014327 C111.704298,134.572078 111.842258,133.743888 112.352951,130.692702 C114.040709,120.609027 114.763072,115.763156 115.328257,109.947417 C115.552856,109.572385 115.577726,109.535986 115.590051,109.493717 C115.622645,109.381931 115.591801,109.158917 115.478105,108.84316 C115.661386,106.239674 115.804467,103.940277 115.877294,101.701677 L116.192503,101.25323 C116.926486,100.961779 117.238903,100.677559 117.27928,100.231949 C117.344929,99.5074376 117.196007,98.447285 116.772436,96.2289815 C116.305169,93.7864213 116.173544,92.9622654 116.171308,92.1534502 C116.167556,90.79652 116.121335,89.4141927 116.032185,88.0069017 C115.998765,87.4793285 115.875369,86.903762 115.659196,86.2165681 C115.562297,84.2582238 115.500531,82.8670547 115.343465,79.420809 C115.293105,78.3158474 115.266329,77.7258097 115.236475,77.0604308 C114.833301,68.0746058 114.686596,62.706685 114.785434,57.193962 C117.400127,44.1808115 111.860177,26.4326683 101.011651,12.2815593 C97.5123202,7.71693755 90.6637129,4.78751937 81.3580722,3.20000865 C74.9302601,2.10344573 68.8529773,1.78583453 61.2084635,1.78583453 C19.0561685,1.78583453 7.58216851,13.7928779 10.3803593,53.4410742 C10.8802174,60.5236762 10.4167306,68.365531 9.03175711,81.3779079 C8.91574875,82.4678527 8.80203392,83.5194087 8.62272673,85.1658264 C7.20215092,98.2097052 6.76367456,103.157429 6.69241925,109.0297 C6.68016992,110.039189 6.43145862,111.931285 5.91427545,115.142386 C5.66951444,116.662065 4.5336258,123.423167 4.26268546,125.080006 C3.95828125,126.941481 3.69295463,128.616834 3.4515646,130.213293 C2.48679679,136.593887 1.93753318,141.518156 1.85588986,145.171403 C1.76329243,149.314807 2.32082034,151.488273 3.30755208,151.488273 C8.53702561,151.488273 17.0214706,148.916573 28.7200271,143.767137 L30.1838007,132.815946 L29.2938209,125.21003 Z M29.7042911,109.005435 L30.2900893,125.133618 L31.184295,132.761864 L29.6369002,144.455585 C17.4300085,149.846407 8.75296566,152.488273 3.30755208,152.488273 C1.40925703,152.488273 0.749592896,149.916639 0.856139483,145.14906 C0.938972037,141.4426 1.49211987,136.483508 2.46280349,130.063789 C2.70484894,128.462995 2.97078535,126.783792 3.27579391,124.918621 C3.54728535,123.258412 4.68290193,116.49893 4.92699876,114.983374 C5.43507399,111.828822 5.68109087,109.957225 5.69249286,109.017567 C5.76429352,103.100353 6.20414972,98.1370587 7.62860491,85.0575591 C7.80783041,83.4118914 7.92147234,82.3610096 8.03737365,81.2720707 C9.41630138,68.3164958 9.87727291,60.5171984 9.38284053,53.5114746 C6.54340638,13.2788925 18.4818447,0.785834532 61.2084635,0.785834532 C68.905184,0.785834532 75.0292913,1.10589288 81.5262392,2.21425014 C91.058354,3.84039655 98.1142527,6.85848141 101.805276,11.673151 C112.816022,26.0358649 118.4435,44.0644181 115.77557,57.3006725 C115.68689,62.6970073 115.833162,68.0490889 116.23547,77.0156082 C116.26531,77.6806827 116.292078,78.270544 116.342428,79.3752802 C116.497683,82.7817886 116.559883,84.1816554 116.633067,85.9804247 C116.859317,86.7110826 116.992092,87.3423615 117.030185,87.9436799 C117.120601,89.370964 117.167496,90.7734488 117.171304,92.1506852 C117.173287,92.8680414 117.303061,93.6806072 117.722828,95.8747431 C118.200392,98.3756321 118.353086,99.4626344 118.2752,100.32219 C118.200824,101.143021 117.721908,101.655145 116.865965,102.052221 C116.79082,104.17613 116.653461,106.354138 116.455963,108.611187 C116.605263,109.060742 116.647328,109.440099 116.550073,109.773642 C116.501069,109.941704 116.418298,110.09172 116.306162,110.222436 C115.740589,115.989637 115.013495,120.854728 113.339231,130.857781 C112.828773,133.90756 112.69091,134.735173 112.455406,136.175673 C112.096038,138.373803 110.067918,138.749268 107.378624,137.708829 C105.178498,136.85764 102.736531,135.126977 101.506938,133.558188 C100.449889,132.20954 99.6843505,130.452062 99.2578011,128.488678 C98.7969163,129.06743 98.2519349,129.878266 97.2000009,131.484278 C95.3243704,134.347848 94.303464,135.59936 93.0047144,136.23029 C91.9222684,136.756141 91.1121291,136.487385 89.2648542,135.413681 C88.7033982,135.087342 88.4329148,134.939359 88.1206315,134.798531 C87.4865368,134.512577 86.9933573,134.432072 86.5522837,134.562373 C85.693813,134.815982 85.0441655,135.29399 83.6406966,136.570387 C81.8363188,138.211241 80.9584719,138.800728 79.6461422,138.940556 C78.4387455,139.069203 77.2864498,138.699622 75.0660791,137.682083 C72.8022648,136.641241 71.9736579,136.33272 71.0802256,136.279672 C70.3695346,136.237475 69.7619935,136.552359 68.4129712,137.534488 C66.7129092,138.764663 65.8546391,139.149471 64.7799236,138.933577 C63.8493735,138.746643 63.0076351,138.064815 61.6398178,136.614481 C61.5298809,136.497912 61.4275464,136.388471 61.2549604,136.203244 C59.7622939,134.601248 59.1407098,134.038133 58.4773356,133.813478 C57.836726,133.596532 57.155967,133.702438 55.9539697,134.124864 C53.7213301,134.924883 52.8779711,135.06056 51.8288874,134.528848 C51.1766378,134.198265 50.8243924,133.538077 50.0436307,131.633088 C49.3978714,130.059362 49.0709363,129.442176 48.7711316,129.25734 C48.33171,128.986426 47.6606872,129.030865 46.0014046,129.365505 C43.9115637,129.786938 43.0817987,129.824484 42.3201629,129.224494 C41.4860838,128.567436 41.2140842,127.66426 40.8317035,125.277736 C40.519041,123.326338 40.3050298,122.557272 39.8353429,122.069916 C39.5873983,121.812643 39.1036639,121.72457 37.870725,121.673421 C36.2381415,121.605664 35.6064364,121.478936 35.1091674,120.858069 C34.6751621,120.31619 34.7026666,119.74118 34.9928404,118.143656 C35.2088079,116.954638 35.2366029,116.454257 35.0865599,116.23461 C32.9894833,113.164708 31.2572091,109.814074 29.9210347,106.210368 C29.855763,107.106449 29.7834592,108.040695 29.7042911,109.005435 Z M28.2560615,89.5037345 L27.6116034,88.0383368 C27.058763,86.7812634 26.496703,86.0532588 26.3881957,86.0783489 C24.695695,86.4697037 22.5630315,85.4864917 21.7367596,83.4742677 C21.611978,83.1703864 21.5333707,82.7868418 21.4477816,82.1459884 C21.4128212,81.8842202 21.2796706,80.7719693 21.272585,80.7146058 C21.1881743,80.0312422 21.1054023,79.431487 21.0026352,78.7853995 C20.72599,77.0461553 20.3402146,75.2230177 19.784189,73.1621842 C19.6128547,72.5270483 19.5318663,72.2269839 19.4409087,71.8906904 C18.409027,68.0755601 17.7693674,65.8485402 17.087196,63.807536 C16.6541269,62.5118268 15.7415089,61.1402169 14.3645548,59.5525463 C14.0312067,59.1681857 13.6879444,58.7896953 13.2484167,58.3173522 C13.1185529,58.1777926 12.9821227,58.0319361 12.7291298,57.7616341 C12.5265531,57.5449311 12.3876687,57.3952755 12.2578486,57.2532251 C11.4744638,56.3960381 11.1647129,55.9789787 11.13529,55.5661166 C11.0448715,54.2973686 15.2986967,54.1317836 20.3551711,55.0384224 C22.3646773,55.398732 23.9071686,56.2469377 25.0510883,57.4430823 C25.3141919,57.7181978 25.5447142,57.9981764 25.7493495,58.2844581 C25.7342501,57.7217688 25.7121429,57.0972013 25.6817809,56.32487 C25.5209689,52.2342332 25.5398834,50.8468781 25.929833,48.8728122 C26.3568206,46.7112471 27.2400418,44.6877155 28.7684502,42.498027 C29.8659136,40.9257359 30.7607555,39.3208364 32.1435433,36.5765412 C32.2241025,36.4166626 32.2798017,36.3058569 32.4157905,36.0350414 C32.5517114,35.7642246 32.5517114,35.7642246 32.6876301,35.4935337 C36.226595,28.4488241 38.416572,25.5677754 42.7257883,23.8369947 C44.3303586,23.192525 48.1053783,23.6497126 54.9411953,25.0112544 C55.471307,25.1168408 56.0262522,25.2290125 56.6497562,25.3563641 C64.914898,27.0445319 65.4450985,27.1446382 66.6678989,27.1349937 C69.2238109,27.1148345 71.2198964,26.6831066 75.4878604,25.4339142 C76.1392863,25.243248 76.3410126,25.1844135 76.6613999,25.0921864 C80.9098277,23.8692285 83.5231995,23.4508722 86.4907685,23.8044815 C88.2664759,24.0160711 89.4388964,24.0248019 90.9521544,23.9180471 C92.191678,23.8306032 92.4075366,23.8234122 92.9171828,23.8931775 C94.1398031,24.0605415 95.3027945,24.7650116 97.648557,26.749201 C99.6853442,28.4720401 100.827323,30.3668482 101.777375,33.1090553 C101.943482,33.5885022 102.036885,33.879106 102.344593,34.8568617 C103.644182,38.9863742 104.648934,40.6909655 107.437724,42.3548236 C107.898148,42.6295233 108.439823,43.5303245 109.229662,45.1734018 C109.06936,48.112324 109.305751,51.9019773 110.206557,62.7441657 C110.239771,63.1440284 110.239771,63.1440284 110.272944,63.5441138 C111.070004,73.163588 111.336256,77.7232872 111.144823,80.8845891 C110.075027,98.5511228 101.932862,110.691382 88.7674188,116.582765 C77.2223075,121.749068 62.5253301,121.596549 49.5507421,116.603656 C40.9669742,113.300442 36.8675986,108.332713 32.1031382,97.5467299 C32.2067931,97.781388 29.7806217,92.1447014 28.3613725,88.959504 L28.2560615,89.5037345 Z M27.8553608,86.3107895 L27.9723432,85.7062434 L28.6229045,87.1104282 C29.7436326,89.5294307 33.1449986,97.4304673 33.0178699,97.1426681 C37.6852438,107.708863 41.6238089,112.481718 49.9098883,115.670375 C62.6473093,120.572001 77.0699848,120.721674 88.3589615,115.669988 C101.179232,109.933065 109.099038,98.1243509 110.146652,80.8241448 C110.333865,77.7325178 110.068261,73.1839097 109.27636,63.6266898 C109.243199,63.2267511 109.243199,63.2267511 109.209991,62.8269639 C108.316385,52.071438 108.073839,48.2409766 108.270447,45.4866571 C107.624124,44.1541931 107.127197,43.3340125 106.925362,43.213593 C103.872911,41.3924283 102.75751,39.5001184 101.390714,35.1570547 C101.086159,34.1893162 100.994237,33.9033177 100.832477,33.4364204 C99.9363434,30.8498429 98.8842677,29.1042045 97.002745,27.5126975 C94.7940546,25.6444521 93.7595568,25.0178156 92.781558,24.8839377 C92.3706936,24.8276947 92.1763746,24.8341681 91.0225259,24.9155679 C89.4507422,25.0264515 88.2171265,25.017265 86.3724476,24.7974569 C83.571018,24.4636444 81.0677606,24.8643733 76.938028,26.0531635 C76.6196235,26.1448198 76.4186306,26.2034404 75.7687658,26.3936496 C71.4138394,27.6682951 69.3538725,28.1138398 66.675786,28.1349625 C65.3390771,28.1455055 64.9303629,28.0683369 56.4496364,26.3361355 C55.8276195,26.2090876 55.2742228,26.097229 54.7458547,25.9919899 C48.2193677,24.6920597 44.4242908,24.232443 43.0984956,24.7649437 C39.0933792,26.3735838 37.0139218,29.1092371 33.5812129,35.942432 C33.4454864,36.2127401 33.4454864,36.2127401 33.3094948,36.4836978 C33.1733041,36.7549154 33.1174032,36.8661226 33.0365812,37.0265227 C31.6337149,39.8106658 30.7204125,41.4486741 29.5884508,43.0703896 C28.1376442,45.1489012 27.3103578,47.0442817 26.9108758,49.0666038 C26.5417388,50.9353084 26.5234406,52.2774582 26.681009,56.2855881 C26.7470559,57.965647 26.7744132,58.9549161 26.7755531,60.1258044 C26.7733209,60.3482722 26.7142968,60.5268702 26.5396619,60.6428056 C25.9373546,60.6817261 25.9373546,60.6817261 25.8481758,60.519558 C25.7531168,60.3567839 25.6055973,60.0262328 25.5408205,59.892418 C25.239641,59.2702462 24.8599971,58.6901232 24.3283805,58.134236 C23.3284969,57.0887034 21.9760388,56.3449956 20.1786831,56.0227252 C17.7606342,55.5891628 15.5944871,55.4179939 13.9430082,55.4822796 C13.2589401,55.5089077 12.7039144,55.5761114 12.3359035,55.6695683 C12.3831607,55.8783281 12.6323035,56.1806299 12.9960185,56.5786103 C13.1932992,56.7944767 14.0685487,57.7307595 13.9804962,57.636133 C14.4272933,58.1162882 14.7777832,58.502748 15.1200147,58.8973514 C16.5756158,60.5757044 17.5517135,62.0427204 18.035623,63.4905403 C18.7258705,65.5557077 19.3694028,67.7962108 20.4062233,71.6296009 C20.4972618,71.9661935 20.5783263,72.2665399 20.7496652,72.9016928 C21.3150695,74.9972873 21.7081403,76.8549022 21.9902201,78.6283136 C22.0950035,79.2870773 22.1793088,79.8979423 22.2650423,80.5920152 C22.2729015,80.6556408 22.4050838,81.7598034 22.4389807,82.0136089 C22.513633,82.5725723 22.579508,82.8939928 22.6618081,83.0944186 C23.2943741,84.6349098 24.9302391,85.3890851 26.1629111,85.1040559 C26.7603437,84.9659122 27.3104558,85.4129475 27.8553608,86.3107895 Z M12.1334563,55.5063506 C12.1332638,55.5026197 12.1330321,55.4988466 12.1327602,55.495031 C12.1328508,55.4963028 12.1330304,55.4976741 12.133299,55.4991443 L12.1334563,55.5063506 Z" id="hair-outline" fill="#000000" fill-rule="nonzero" opacity="0.049999997"></path>
                </g>
            </g>
        </g>
    </g>
</svg>