<?xml version="1.0" encoding="UTF-8"?>
<svg width="480px" height="300px" viewBox="0 0 480 300" version="1.1" xmlns="http://www.w3.org/2000/svg" xmlns:xlink="http://www.w3.org/1999/xlink">
    <!-- Generator: Sketch 50.2 (55047) - http://www.bohemiancoding.com/sketch -->
    <title>Avatars</title>
    <desc>Created with Sketch.</desc>
    <defs></defs>
    <g id="Avatars" stroke="none" stroke-width="1" fill="none" fill-rule="evenodd">
        <rect id="Frame" fill="#E6E6E6" x="0" y="0" width="480" height="300"></rect>
        <g id="Half-Elf" transform="translate(121.000000, 37.000000)">
            <g id="Male" transform="translate(0.000000, 3.000000)">
                <path d="M0,259.729768 C2.48566655,231.519083 4.32149823,213.680856 5.50749506,206.215086 C6.3585144,200.857977 11.7606596,174.266802 21.8599892,160.277801 C33.0825314,144.732992 77.2475931,143.344851 80.9885944,139.06984 C83.9404817,135.696585 85.012639,130.227548 84.2050665,122.662729 C82.8691975,106.795799 81.7970401,97.288485 80.9885944,94.1407884 C79.4675143,88.2184378 71.0655999,68.2657231 68.2189313,50.4604145 C66.6517207,40.6578444 73.5582916,25.2371729 76.3426322,22.4997145 C90.0232643,9.04943433 142.355067,-4.30932221 155.351054,20.1126 C160.59358,29.9642985 163.420094,54.6865263 163.322631,55.5094849 C162.50645,62.4011545 162.353006,90.0842669 159.983014,97.9058002 C153.59366,118.992175 151.496568,110.640948 149.638931,115.522032 C148.254643,119.159356 148.949439,123.81523 151.72332,129.489653 C160.291102,132.459314 221.570249,138.571294 228.199796,160.277801 C232.401152,174.033913 241.438279,203.77204 243.181587,215.631712 C244.156623,222.264849 245.11684,236.964201 246.062239,259.729768 L203.605913,259.729768 L15.6068247,259.729768 L0,259.729768 Z" id="body" fill="{skin-color}"></path>
                <polygon id="armpit-l" fill="#000000" opacity="0.5" points="52.9202268 261.196849 59.7692511 209.780073 63.7692511 261.196849"></polygon>
                <polygon id="armpit-r" fill="#000000" opacity="0.5" transform="translate(200.272613, 230.722538) scale(-1, 1) translate(-200.272613, -230.722538) " points="195.848101 260.989997 203.697126 200.455078 204.697126 260.989997"></polygon>
                <path d="M132.613046,209.234719 C132.255006,207.067149 131.940812,205.234212 131.606017,203.375096 L132.590186,203.197864 C133.019485,205.581756 133.414788,207.921456 133.91114,210.972859 C134.044782,211.794441 134.493536,214.572127 134.495308,214.583067 C134.721792,215.981553 134.891545,217.016857 135.057346,218.005317 C137.230142,230.958955 139.167655,236.773244 143.395473,240.766879 C148.315575,245.414452 156.4584,246.761623 170.3508,244.962431 C171.66286,244.792507 172.88014,244.7278 175.641819,244.642087 C176.791302,244.606411 177.207525,244.592547 177.801843,244.568168 C185.31446,244.259999 191.736898,244.017672 192.141656,240.364719 L192.158992,240.208252 L192.76586,235.099123 C193.478951,228.596963 193.597987,223.286094 193.52542,211.420043 C193.488757,205.424974 193.491778,202.760834 193.56807,199.433492 L194.567808,199.456414 C194.491812,202.770847 194.488798,205.428546 194.525401,211.413928 C194.598786,223.413811 194.476659,228.74016 193.742541,235.365603 L193.725205,235.522069 L193.116379,240.633429 C192.556762,244.890651 185.745538,245.243157 177.842829,245.567327 C177.243967,245.591893 176.825823,245.605821 175.672841,245.641605 C172.945637,245.726249 171.746959,245.789967 170.479237,245.954149 C156.318486,247.788095 147.897199,246.394854 142.708787,241.493833 C139.516614,238.478477 137.593348,234.555918 135.944405,227.704309 C135.92657,230.538816 135.631625,233.479852 135.040845,236.734183 C134.222877,241.239989 130.025813,244.895348 123.52477,247.659427 C118.643728,249.734723 112.595777,251.171601 108.474495,251.481205 C106.500241,251.629517 104.51584,251.793723 102.328226,251.987088 C100.932888,252.110422 94.1331915,252.738463 92.4026291,252.885968 C89.0127251,253.174908 86.5255235,253.331932 84.330673,253.377646 C79.1173738,253.486226 75.5622236,252.933515 72.7853174,251.436467 C67.0084691,248.322131 65.4637275,230.076711 63.9659223,213.387332 L63.9619193,224.297945 C65.4309136,240.666298 67.8871707,247.659783 73.2598572,250.556233 C75.8536527,251.954565 79.2537424,252.483169 84.30985,252.377863 C86.4791175,252.332682 88.9473086,252.176858 92.3177018,251.889581 C94.0439714,251.742442 100.841498,251.114602 102.240179,250.990971 C104.431898,250.797244 106.420577,250.632684 108.399582,250.484015 C112.413625,250.182467 118.354677,248.770986 123.133493,246.739154 C129.355662,244.093645 133.314389,240.645863 134.056926,236.555566 C135.3262,229.563725 135.205034,224.073501 133.887038,217.910282 C133.213701,214.761617 129.626522,202.418928 129.543773,202.151318 L130.508388,201.88887 C130.462664,201.720813 131.517206,205.338891 132.613046,209.234719 Z" id="breast" fill="#000000" fill-rule="nonzero" opacity="0.3"></path>
                <path d="M82.4687588,92.1815468 L83.4223048,91.8802994 C85.0006213,96.8761837 86.9707003,99.7811693 91.6089614,104.962098 C91.9345857,105.325623 92.1107886,105.522353 92.2610799,105.690469 C94.7329266,108.455492 96.0839118,110.126794 97.4467672,112.270661 C99.0057286,114.723016 103.51401,118.741271 108.572518,122.728478 C110.141237,123.96497 111.612333,124.698629 113.192617,125.086574 C114.662026,125.447299 115.810782,125.50531 118.780025,125.474143 C121.26246,125.448086 122.535689,125.474346 124.258735,125.641692 C130.66538,126.263917 135.75065,124.60949 142.646943,120.040967 C142.912211,119.865237 144.400327,117.91692 146.980258,114.398221 C147.023938,114.338645 147.023938,114.338645 147.067613,114.279059 C151.425031,108.334036 151.192394,108.648272 151.516457,108.34166 L152.203735,109.068055 C151.954357,109.304004 151.912173,109.360984 147.874165,114.870223 C147.830442,114.929873 147.830442,114.929873 147.786712,114.989518 C144.92315,118.895053 143.628236,120.590421 143.199213,120.874632 C136.127175,125.55958 130.826064,127.284228 124.162068,126.637009 C122.484338,126.474064 121.239262,126.448384 118.790521,126.474088 C115.736337,126.506146 114.533322,126.445396 112.954206,126.057738 C111.232315,125.635031 109.63217,124.837012 107.953482,123.51384 C102.784968,119.439925 98.2495125,115.39745 96.602852,112.807137 C95.2765431,110.72076 93.9536789,109.084247 91.5155544,106.356946 C91.3656312,106.189241 91.1898158,105.992945 90.8639126,105.629108 C86.1386727,100.351024 84.0999636,97.3448397 82.4687588,92.1815468 Z" id="jaw" fill="#000000" fill-rule="nonzero" opacity="0.3"></path>
                <path d="M162.807281,50.550346 C164.216999,56.0729834 164.149955,106.828155 160.275723,131.553184 C159.680116,135.354298 153.043396,131.655426 150.885251,128.782525 C148.578561,125.71188 147.966751,120.514628 149.029469,116.582276 C149.573309,114.569917 149.639032,111.864228 150.919167,110.358059 C152.742345,108.212959 153.87265,104.1186 155.262456,101.609244 C162.769105,88.0556643 160.069815,66.6605331 160.268242,51.6748992 C158.773281,47.4967634 156.74452,41.2679117 155.814123,40.6887422 C149.566461,36.7995885 152.170453,30.3483215 146.615539,25.4458682 C141.715845,21.1216753 142.794069,23.4790549 136.44804,22.6900824 C130.006945,21.8892906 124.49251,25.883304 118.00609,25.9366828 C114.622262,25.9645294 98.9712764,21.3740909 95.8309682,22.6900824 C88.8947429,25.5968076 87.292491,34.2921072 83.0132021,40.6887422 C79.1067464,46.5280701 81.3740569,54.8649781 81.3807028,61.9871208 C81.3814511,62.789077 80.6804786,59.5287984 79.1110809,58.008548 C77.5416831,56.4882976 75.9986773,55.6071881 73.778486,53.4603429 C71.3060181,51.0695553 68.9592895,49.8157974 68.9924347,50.3010591 C69.0550333,51.2175322 69.4303226,54.0280742 70.5669213,57.5761637 C71.4261188,60.2582975 72.9552258,63.3281235 73.778486,66.5117514 C75.3468912,72.5769276 76.0851512,79.0742778 76.4994891,80.1270757 C77.281331,82.113671 79.2271064,82.63324 80.3039046,82.3734555 C81.3807028,82.113671 83.2915103,87.3302757 83.5872231,91.0280465 C83.7707163,93.3225565 83.5875182,98.0437254 83.0376286,105.191553 L83.5872231,120.935866 L84.4217926,128.36412 L83.0132021,139.359473 C76.0842398,141.572034 70.1201213,142.678315 65.1208465,142.678315 C59.8048378,142.678315 72.5549265,110.766189 72.6197587,105.191553 C72.8052962,89.2379919 69.0267719,73.4912795 67.9502406,57.5761637 C65.3660648,19.3724838 72.6197587,0.278340743 112.907074,0.278340743 C120.727616,0.278340743 142.938256,0.498687746 150.426061,10.6895594 C159.511545,23.0548643 164.016335,38.1051815 162.807281,50.550346 Z" id="hair" fill="{hair-color}"></path>
                <path d="M80.5522074,56.1106619 C80.5000858,55.4719447 80.4741098,55.1493199 80.4450136,54.7740394 C79.8977962,47.7160841 80.2805428,43.8742708 82.5976233,40.4107238 C83.6215606,38.8801533 84.4566181,37.3175277 85.7470423,34.6454765 C85.8222277,34.4897917 85.8742113,34.3818928 86.00113,34.1181791 C86.1279857,33.8544629 86.1279857,33.8544629 86.2548405,33.5908671 C89.5601934,26.725849 91.6052252,23.918812 95.6377187,22.2289374 C97.1495169,21.5953966 100.672553,22.0405702 107.068359,23.3697167 C107.563208,23.4725539 108.081224,23.5818018 108.663223,23.7058312 C116.365383,25.3472328 116.866952,25.4460402 118.001976,25.4366997 C120.380783,25.4171238 122.240452,24.9974579 126.219203,23.7824128 C126.827262,23.5967217 127.015571,23.5394186 127.31469,23.4495798 C131.286028,22.2568085 133.731002,21.8484361 136.509728,22.1939023 C138.163248,22.3994769 139.254109,22.4079526 140.663239,22.3042327 C141.824771,22.2187373 142.027447,22.2116926 142.508486,22.2803975 C143.661585,22.4450902 144.75161,23.1339956 146.94639,25.0709847 C148.850381,26.7513394 149.916913,28.5977073 150.803953,31.2690681 C150.958975,31.735925 151.046145,32.0188984 151.333325,32.9710016 C152.545481,36.9897232 153.482507,38.6483553 156.078359,40.2642663 C156.777531,40.6994995 157.616269,42.681912 159.158377,47.0193487 C159.254319,47.2892024 159.354299,47.5719436 159.462728,47.8798731 C159.34596,47.5482616 160.465577,50.7422493 160.739014,51.5064543 C160.731951,54.4189933 160.769055,56.5529971 160.919845,62.3898665 C161.068497,68.1440022 161.113313,71.0665285 161.06679,74.4943637 C160.90453,86.449844 159.410406,95.1519286 155.699851,101.851495 C155.372326,102.442856 155.046588,103.143575 154.625236,104.137214 C154.47532,104.490747 153.955587,105.741743 153.924469,105.816047 C152.902604,108.25606 152.203983,109.618442 151.30015,110.681867 C150.684105,111.406688 150.356486,112.406329 150.009414,114.276167 C149.981937,114.424202 149.9574,114.559055 149.906014,114.842829 C149.740745,115.753728 149.64679,116.214527 149.512153,116.712722 C148.446413,120.656255 149.15407,125.645516 151.28502,128.482216 C152.321834,129.862414 154.457338,131.441516 156.353596,132.206959 C158.37443,133.022688 159.57572,132.79065 159.78175,131.475782 C163.11217,110.221322 164.145746,57.8154311 162.322815,50.6740115 C163.521033,38.0325836 158.932477,23.1111936 150.023133,10.9856139 C146.762065,6.54731493 140.379623,3.6989013 131.703724,2.15463603 C125.708317,1.08748459 120.038915,0.778340743 112.907074,0.778340743 C93.2743001,0.778340743 81.3084258,5.30845522 74.7646469,14.883002 C68.7681043,23.6568587 67.0412742,36.7295359 68.4491007,57.5424198 C68.8117701,62.9040153 69.324922,67.1927393 70.6425385,76.8031482 C70.7855474,77.8462236 70.8470303,78.2953022 70.9250499,78.8676494 C72.5714291,90.9453924 73.2069315,97.6988544 73.1197249,105.197368 C73.0973216,107.123733 72.9364705,107.686635 68.7006577,121.592365 C68.4743868,122.335189 68.2686327,123.014874 68.0731843,123.665824 C66.3080637,129.544641 65.2232822,133.642774 64.679636,136.777419 C64.0575863,140.364136 64.2815109,142.178315 65.1208465,142.178315 C69.9901331,142.178315 75.8038246,141.113231 82.5577924,138.979508 L83.9182138,128.360159 L83.0875275,120.953309 L82.5391016,105.153201 C83.0869593,98.0317853 83.2695066,93.3273901 83.0888143,91.0679046 C82.8150728,87.6448764 80.9732941,82.7263063 80.4211684,82.8595102 C78.8197765,83.2458563 76.8089081,82.2785912 76.0342245,80.3101847 C75.8917659,79.9482091 74.4291053,71.3543491 73.62479,67.970137 C73.5166537,67.5151459 73.4066011,67.0707868 73.2944092,66.6369298 C72.9380225,65.2587476 72.4726434,63.9380086 71.6748314,61.9224462 C71.6113404,61.7620448 71.5668883,61.6502124 71.4590913,61.3795098 C71.3515208,61.109601 71.3515208,61.109601 71.2447108,60.8413343 C71.0728435,60.4092701 70.9472209,60.0903721 70.8274136,59.7805372 C70.5202079,58.9860695 70.2854071,58.3363348 70.0907564,57.7286989 C69.1538514,54.8039879 68.604874,51.964281 68.493597,50.3351316 C68.4468797,49.6511669 68.982278,49.5902532 69.5400399,49.7805593 C69.8420193,49.8835934 70.2440117,50.089342 70.7089255,50.3769835 C71.740707,51.0153454 72.9661632,51.979331 74.1260523,53.1009022 C74.7832452,53.736384 75.4120671,54.2916266 76.1100631,54.8642848 C76.5180781,55.1990334 77.8483017,56.2495901 77.8261891,56.2318853 C78.4074744,56.6972998 78.8469286,57.0712992 79.2770846,57.4758317 C79.9319841,58.1076208 80.3510949,58.7179408 80.7366684,59.4582734 C80.7576998,58.7038 80.6759162,57.626637 80.5522074,56.1106619 Z M160.769695,131.630586 C160.43242,133.783044 158.507596,134.15484 155.979281,133.134261 C153.919661,132.302875 151.635708,130.614002 150.485483,129.082834 C148.157575,125.983944 147.404884,120.677179 148.546785,116.451831 C148.671698,115.989618 148.761773,115.547845 148.922078,114.664308 C148.973461,114.380545 148.998352,114.243744 149.026208,114.093668 C149.404484,112.05572 149.771266,110.936584 150.538184,110.03425 C151.353097,109.075446 152.019729,107.775443 153.00209,105.429759 C153.031963,105.358429 153.552975,104.104356 153.70459,103.746815 C154.138468,102.723638 154.476896,101.99562 154.825061,101.366993 C158.436827,94.8457937 159.906673,86.2851063 160.066882,74.4807929 C160.113172,71.0701359 160.068501,68.1570761 159.920178,62.4156919 C159.770675,56.6286117 159.732627,54.4710647 159.767116,51.7584388 C159.599935,51.2904241 159.421584,50.7847727 159.17466,50.0803619 C159.105685,49.8835921 159.013289,49.6197369 158.849693,49.1525805 C158.719045,48.7796492 158.618012,48.4917859 158.519495,48.2120062 C158.411384,47.9049782 158.311736,47.6231743 158.216156,47.3543407 C156.859335,43.5380565 155.934783,41.3528139 155.549888,41.1132181 C152.694062,39.3354738 151.652333,37.4915055 150.375929,33.2597784 C150.09168,32.3173929 150.005884,32.0388809 149.854906,31.5842041 C149.018885,29.0664862 148.037688,27.3678501 146.284688,25.8207517 C144.228761,24.0063061 143.267851,23.3990029 142.367095,23.2703513 C141.989014,23.2163515 141.808868,23.222613 140.736646,23.3015347 C139.266481,23.4097473 138.111768,23.4007754 136.386353,23.1862624 C133.780825,22.8623292 131.450408,23.2515677 127.602341,24.4073151 C127.30527,24.4965389 127.117718,24.5536116 126.511271,24.7388103 C122.442208,25.9814352 120.516331,26.4160422 118.010205,26.4366659 C116.756417,26.4469837 116.38169,26.3731637 108.454794,24.6838688 C107.874339,24.5601683 107.35793,24.4512593 106.864891,24.3487983 C100.78955,23.0862492 97.2473534,22.6386546 96.0242176,23.1512273 C92.2968767,24.7132233 90.3572107,27.3756338 87.1558435,34.02468 C87.0291697,34.2878996 87.0291697,34.2878996 86.9022474,34.5517543 C86.7751386,34.815863 86.722965,34.9241564 86.6475321,35.0803536 C85.3380825,37.7918002 84.4855842,39.3870624 83.428781,40.9667605 C81.2770632,44.1831251 80.9114273,47.8531898 81.4420214,54.6967393 C81.4709815,55.0702633 81.4968791,55.391915 81.5488943,56.0293288 C81.798399,59.086853 81.8792037,60.3803708 81.8807026,61.9866542 C81.8809083,62.2071216 81.8689055,62.2971829 81.7342699,62.4449599 C81.5158983,62.6846461 81.2046096,62.6497185 81.0133808,62.4808488 C80.8243209,62.2127506 80.7810004,62.1063793 80.6495845,61.7640409 C80.3271231,60.9240283 80.1389276,60.4754441 79.8497462,59.9201923 C79.5095724,59.2670307 79.147865,58.7403031 78.7631955,58.36768 C78.1840333,57.8206303 77.7634774,57.4627143 77.2011778,57.012501 C77.2297049,57.0353416 75.8923465,55.9791502 75.4757839,55.6373889 C74.7577923,55.0483257 74.1088391,54.4753074 73.4309197,53.8197837 C72.3213003,52.7468216 71.1521379,51.8271185 70.1827854,51.2273814 C69.9444567,51.0799278 69.7288061,50.9590146 69.5471083,50.8691736 C69.729359,52.4731109 70.2391891,54.9141245 71.0430862,57.4236285 C71.230853,58.0097752 71.4594064,58.6422221 71.7601121,59.4198802 C71.8785435,59.7261567 72.0031131,60.0423819 72.1738965,60.4717211 C72.2804412,60.7393213 72.2804412,60.7393213 72.3880868,61.0094189 C72.4961264,61.2807306 72.5408283,61.3931912 72.6046404,61.5544036 C73.4165487,63.6055785 73.8932944,64.9585756 74.2625629,66.3865731 C74.3764355,66.8269297 74.4880649,67.2776554 74.59769,67.7389108 C75.423378,71.2130502 76.8671602,79.6959899 76.9647536,79.9439668 C77.5516152,81.4351331 79.0579451,82.1597058 80.1866408,81.8874008 C81.7490672,81.5104553 83.756387,86.8711118 84.0856319,90.9881885 C84.2719261,93.3177229 84.088077,98.0556656 83.5373242,105.17411 L84.084097,120.880041 L84.9186665,128.308295 L83.4686805,139.738902 L83.1652965,139.835779 C76.1907467,142.062897 70.1773689,143.178315 65.1208465,143.178315 C63.2427613,143.178315 62.9566314,140.860165 63.6943443,136.606538 C64.24685,133.42081 65.339268,129.293827 67.1154242,123.378255 C67.3112839,122.725935 67.5174167,122.045 67.7440535,121.300975 C71.8779153,107.729939 72.0992103,106.955512 72.1197925,105.185739 C72.2062671,97.7501661 71.5743072,91.0343497 69.9342133,79.0027155 C69.8562404,78.4307104 69.7947802,77.9817985 69.6518067,76.9389806 C68.3310782,67.3058743 67.8161119,63.0019854 67.4513806,57.6099076 C66.0295719,36.5903152 67.7814117,23.3283058 73.9390494,14.3187426 C80.7004859,4.4257295 92.9761293,-0.221659257 112.907074,-0.221659257 C120.093332,-0.221659257 125.811587,0.0901485106 131.878964,1.17011037 C140.784496,2.75524904 147.379242,5.69841139 150.82899,10.3935049 C159.858087,22.6820676 164.520341,37.8048472 163.313161,50.5130924 C165.147222,58.131399 164.106371,110.336201 160.769695,131.630586 Z" id="hair-outline" fill="#000000" fill-rule="nonzero" opacity="0.05"></path>
            </g>
        </g>
    </g>
</svg>