<?xml version="1.0" encoding="UTF-8"?>
<svg width="480px" height="300px" viewBox="0 0 480 300" version="1.1" xmlns="http://www.w3.org/2000/svg" xmlns:xlink="http://www.w3.org/1999/xlink">
    <!-- Generator: Sketch 50.2 (55047) - http://www.bohemiancoding.com/sketch -->
    <title>Avatars</title>
    <desc>Created with Sketch.</desc>
    <defs></defs>
    <g id="Avatars" stroke="none" stroke-width="1" fill="none" fill-rule="evenodd">
        <rect id="Frame" fill="#E6E6E6" x="0" y="0" width="480" height="300"></rect>
        <g id="Half-Elf" transform="translate(121.000000, 37.000000)">
            <g id="Female" transform="translate(20.000000, 0.000000)">
                <path d="M4.21126761,263.639948 C6.69707589,235.388685 8.53301226,217.5248 9.71907672,210.048291 C10.5701446,204.683476 9.15779289,199.137817 9.74163122,193.734097 C10.9197729,182.829798 11.8909527,161.397059 21.6554373,154.240052 C31.4199219,147.083045 39.84628,149.440348 45.2706843,147.083045 C50.3928806,144.857074 74.336505,141.640469 78.0777196,137.359309 C81.0297752,133.981201 80.468364,125.795814 76.3934859,112.803146 C66.4713805,103.155945 61.106082,96.7562321 60.2975902,93.6040079 C59.1017573,88.9415811 56.0558016,61.8136909 53.3723041,48.5139101 C50.6888067,35.2141292 60.384346,20.5355863 64.1449714,16.8331745 C77.8263837,3.36354749 114.433606,-4.04722805 127.430335,20.4098226 C132.352581,29.6724317 134.514347,51.5079744 136.231573,71.7238948 C137.210979,83.2538771 134.171266,99.5341966 131.383555,103.152487 C130.192586,104.698297 127.430335,108.347497 125.75632,108.347497 C124.64031,108.347497 124.64031,110.195857 125.75632,113.892577 L129.013661,133.212496 C137.581932,136.186429 143.266244,139.438917 152.154557,141.30971 C162.677734,143.524605 172.629072,141.224117 186.087891,157.884766 C195.15847,169.113219 203.226695,207.60173 204.970102,219.478461 C205.945193,226.12114 208.642555,240.841636 213.062186,263.639948 L184.025974,263.639948 L0.0161653011,263.639948 L4.21126761,263.639948 Z" id="body" fill="{skin-color}"></path>
                <path d="M36.3318662,263.106263 C37.9629169,249.228103 39.4378289,238.888972 40.7566021,232.088867 C42.0753753,225.288763 42.8836206,222.136258 43.181338,222.631352 C42.2342741,227.322973 41.7607422,230.992405 41.7607422,233.639648 C41.7607422,236.286891 43.2342741,246.109096 46.181338,263.106263 L36.3318662,263.106263 Z" id="armpit-l" fill="#000000" opacity="0.5"></path>
                <path d="M170.171875,263.897675 C173.115067,249.872797 175.2726,240.242517 176.644476,235.006836 C178.016352,229.771155 179.173886,224.810869 180.117077,220.125977 C178.281766,226.963205 177.249856,231.923492 177.021347,235.006836 C176.792838,238.09018 177.459505,247.72046 179.021347,263.897675 L170.171875,263.897675 Z" id="armpit-r" fill="#000000" opacity="0.5" transform="translate(175.144476, 242.011826) scale(-1, 1) translate(-175.144476, -242.011826) "></path>
                <path d="M110.386401,234.683298 C118.437881,255.543766 126.934072,261.436542 144.448894,261.436542 C167.061085,261.436542 178.972339,243.026841 169.314132,219.914881 C164.939721,213.803443 161.599153,207.861399 159.293532,202.087872 L160.222219,201.717006 C162.50213,207.426153 165.814347,213.313607 170.159982,219.378488 C180.185947,243.265281 167.799561,262.436542 144.448894,262.436542 C126.26157,262.436542 117.415613,256.11341 109.114434,234.155131 C107.809642,239.664391 106.793313,243.247559 106.054392,244.93122 C101.808807,254.604947 88.2190936,262.044819 74.2682455,262.613606 C58.6098373,263.252012 46.3480579,255.418404 42.4797255,239.695157 C41.2251258,234.595703 41.110541,230.626212 41.8975277,226.169673 C42.1156501,224.934492 42.3977904,223.663082 42.8069298,222.017149 C42.9701719,221.360441 43.7373535,218.371456 43.9491461,217.519025 C44.1593801,216.672867 44.05947,214.956569 43.6321175,210.485291 C43.1893888,205.852512 43.0900479,204.11865 43.3347766,203.054929 L44.3093172,203.27914 C44.1019965,204.180266 44.2035898,205.95344 44.6212396,210.323794 C45.0762803,215.084771 45.1727244,216.741527 44.9196399,217.760151 C44.7066108,218.617559 43.9394106,221.606616 43.7773966,222.258384 C43.373324,223.883933 43.0957791,225.134635 42.8822909,226.343574 C42.1192541,230.664489 42.2297815,234.493421 43.4507691,239.456254 C47.1972196,254.6841 59.015897,262.234626 74.2275085,261.614436 C87.8274147,261.059957 101.064166,253.813319 105.138699,244.529342 C105.812334,242.994437 106.755565,239.707106 107.958858,234.690265 L107.852034,234.677979 C108.567467,228.457615 107.710907,218.586496 106.051651,214.058204 L106.990602,213.714154 C108.409214,217.585701 109.249622,225.101803 109.08605,231.18779 L109.208745,231.524004 C109.004171,225.381098 109.849231,217.657312 111.294083,213.714154 L112.233034,214.058204 C110.573778,218.586496 109.717219,228.457615 110.432651,234.677979 L110.386401,234.683298 Z" id="breast" fill="#000000" fill-rule="nonzero" opacity="0.3"></path>
                <path d="M71.1485277,97.1786036 L71.9487434,96.5788914 C72.3809345,97.1555781 72.7719401,97.7927127 73.3313956,98.7924823 C73.4257057,98.9610184 73.7973656,99.6311257 73.8896081,99.7960297 C75.1386395,102.028952 75.9928934,103.172223 77.1720979,103.921584 C78.9623144,105.059231 80.6954301,106.22931 82.7526575,107.671011 C83.2213148,107.999446 86.5388324,110.348703 87.4062169,110.948295 C90.6547003,113.193855 92.5388397,114.228231 93.9960895,114.455015 C103.002692,115.85667 107.220518,115.643864 110.270538,113.497023 C114.182257,110.743652 124.5341,97.3063875 126.110161,93.9960882 L127.013051,94.4259614 C125.368302,97.8805285 114.912843,111.452292 110.846127,114.314762 C107.514929,116.659517 103.092322,116.882656 93.8423153,115.443122 C92.1800699,115.184434 90.2153903,114.105843 86.8375873,111.770889 C85.9646218,111.167439 82.6432855,108.815477 82.1787566,108.489936 C80.132866,107.05618 78.4115423,105.894062 76.6357532,104.765583 C75.2724185,103.899211 74.3438311,102.656458 73.016868,100.284215 C72.9234338,100.11718 72.5518266,99.447168 72.458735,99.2808095 C71.9194337,98.3170564 71.5473866,97.7108142 71.1485277,97.1786036 Z" id="jaw" fill="#000000" fill-rule="nonzero" opacity="0.3"></path>
                <path d="M126.749504,8.08559981 C135.069068,14.8715336 130.038452,21.2825932 136.359601,33.7513338 C141.397158,43.6881352 139.046234,54.474584 145.566172,73.2346926 C155.214422,100.99603 150.44057,103.227484 152.087662,123.867696 C152.10123,124.037723 152.845928,131.746756 157.1091,138.319677 C158.312257,140.174695 160.962336,142.0851 165.059336,144.050892 L150.689673,142.200775 C146.99516,141.535029 144.243298,141.535029 142.434089,142.200775 C141.48884,142.548604 139.75093,141.678469 138.742216,148.550114 C138.12757,152.737253 137.432734,163.236259 136.657709,180.047132 L128.818633,133.268293 C125.590192,132.097874 123.923672,131.036814 123.819075,130.085112 C122.479407,117.895903 122.479407,117.895903 123.819075,107.54751 C125.949316,91.0922614 132.052433,76.5232675 129.144446,54.5696773 C127.227431,40.0973336 112.365357,35.7129142 111.733569,23.5251524 C111.555979,20.0992855 111.918287,17.1473543 112.705595,14.5953649 C109.559613,14.5850881 107.154694,14.9542847 101.429919,16.008734 C96.1594954,16.9794961 68.4385514,24.4139932 65.2832128,37.4243852 C64.3177905,41.4051062 65.0131697,53.5393114 62.8154363,50.194178 C59.7588405,45.5417847 52.1485072,39.8457702 53.1801183,42.7936835 C54.2117295,45.7415969 55.1868396,53.9746249 55.9623486,59.7196326 C57.8452728,73.6684262 63.5078493,70.0238921 65.3547399,78.1120019 C68.1535926,90.3690508 69.5023319,91.4933365 73.3387789,101.071259 C82.479514,123.891659 77.1256308,109.331996 80.8319695,139.32037 C83.2948541,159.247827 76.8526411,149.905511 74.3132187,171.263328 C72.896845,183.17574 74.7866756,195.595287 71.8824118,207.187629 C70.1891409,213.946303 65.9557553,224.11053 66.4568317,232.386635 C67.2492556,245.474825 63.8741158,254.302458 59.2787328,257.645599 C55.2764482,260.557261 43.9153627,262.52999 53.7397146,256.07849 L55.8138337,247.949847 C57.4657428,239.75911 56.465775,233.359502 57.6299137,225.071657 C58.5001791,218.875983 61.3169175,213.06037 61.7832273,206.816026 C61.8719057,205.628535 59.46292,207.373119 58.8766386,208.376793 C55.1264306,214.796893 51.3192285,221.356182 49.0714443,228.577733 C46.9667989,235.339416 46.9464062,256.773868 46.004188,249.732656 C44.0414856,235.065349 41.7609486,221.659028 42.4093404,206.816026 C42.5443841,203.724601 46.0152119,199.633511 47.1498286,196.205219 C47.6382802,194.729343 49.7115708,192.290612 48.5182057,192.181699 C45.8873558,191.941595 43.0052642,196.973 40.3408478,198.873991 C26.692125,208.611993 15.2897233,233.870314 31.978375,193.228265 C33.6374812,189.187827 37.7131274,184.76778 38.4967969,181.842427 C38.72188,181.002216 41.5214101,179.125288 40.4093404,178.8446 C34.573693,177.371672 27.7383435,194.256399 24.3902764,198.038057 C14.9180462,208.736986 17.0240634,214.837836 22.0302113,180.97945 L25.9397419,168.472495 C33.1978619,149.086565 46.8590794,133.513217 51.51537,112.905727 C54.2958326,100.600147 52.0598866,90.1197595 51.6555192,77.3940562 C50.3361045,35.8712248 50.0889251,2.05684331 91.8305938,0.833552706 C97.7897254,0.658913075 114.924915,-1.40025382 124.345957,4.2421825 C124.719678,4.46601124 125.730225,6.11556277 126.749504,8.08559981 Z" id="hair" fill="{hair-color}"></path>
                <path d="M156.270119,138.863837 C154.337334,135.883887 152.958877,132.487453 152.037002,128.94441 C151.712409,127.696898 151.46755,126.514983 151.291483,125.433988 C151.181464,124.758508 151.109853,124.18562 151.09083,123.947243 C150.665557,118.618012 150.629085,115.04745 150.784467,108.724264 C150.842988,106.342784 150.859099,105.554177 150.865863,104.381984 C150.918196,95.3124493 149.530527,87.6876683 144.621593,73.5629744 C141.717667,65.2073792 140.861098,60.7794452 139.185066,48.6290669 C138.194541,41.4482711 137.372798,37.9614535 135.46767,34.2035066 C133.033233,29.4014734 132.32231,26.4426568 131.448442,19.9074687 C130.753666,14.7116134 129.991728,12.5705629 127.37014,9.98088109 C126.989847,9.60521621 126.573248,9.23229969 126.117438,8.86051404 L125.861341,8.54512759 C124.93456,6.75386859 123.950861,5.17118682 123.832143,5.10008447 C120.48517,3.09551983 115.860153,1.95846567 110.155902,1.52699658 C106.040262,1.21568993 102.01621,1.2738751 96.5538971,1.58329207 C96.0334609,1.61277258 94.2926509,1.71551177 93.950503,1.73492822 C93.0402785,1.78658227 92.4018166,1.81724166 91.8598875,1.83312356 C72.6502705,2.39608485 61.7808532,9.84166643 56.5355126,24.3416509 C54.7422434,29.2988841 53.6046118,34.4799736 52.9631232,41.0643398 C53.2854122,40.9588303 53.6803597,40.9608913 54.1182958,41.0974588 C54.8618671,41.3293365 55.8844129,41.9474724 57.0694847,42.847427 C59.3218937,44.5579275 61.7114954,46.9296056 63.239113,49.0476968 C63.4175468,48.0519839 63.5168218,46.7253383 63.6701416,43.8337194 C63.8741089,39.9993768 64.0100438,38.4312119 64.311385,37.1886932 C65.8075304,31.0196444 72.2950997,25.7427839 82.151743,21.2903636 C88.7649027,18.3030823 96.8036704,15.8440236 101.248776,15.0252773 C107.549259,13.864788 109.69257,13.5855171 112.708861,13.5953703 L114.059247,13.5997815 L113.661154,14.8901624 C112.885476,17.404456 112.565382,20.2547687 112.732228,23.473384 C112.954431,27.7598765 114.790499,30.9497188 119.171174,35.8359678 C119.62754,36.345003 121.269724,38.1481285 121.271181,38.1497364 C126.836635,44.2920374 129.331386,48.3656082 130.135787,54.4383637 C131.840223,67.3058512 130.958085,76.187027 127.497706,92.9092892 C126.803588,96.2636082 126.746236,96.5423527 126.484004,97.8555125 C125.718225,101.690242 125.195629,104.703239 124.810799,107.675895 C124.034616,113.671598 123.86355,115.273469 123.820835,117.458315 C123.769938,120.06168 123.927774,121.920662 124.813089,129.975864 C124.856002,130.366316 126.32122,131.299209 129.15946,132.328167 L129.708381,132.527169 L136.110909,170.733564 C136.708299,159.23324 137.254465,151.799805 137.752819,148.404877 C138.215417,145.253526 138.866608,143.369567 139.783558,142.350248 C140.4006,141.664319 140.916901,141.460403 141.84961,141.310312 C144.100194,140.522133 147.012977,140.522133 150.817371,141.208962 L160.051606,142.397885 C158.299492,141.223656 157.03967,140.050325 156.270119,138.863837 Z M52.6550147,77.3622965 C52.7454275,80.2076449 52.8974167,82.6098427 53.2391747,87.1255471 C53.6438843,92.4730425 53.7661638,94.3442705 53.8467674,97.0567077 C54.0231076,102.990832 53.6476062,108.006323 52.4907807,113.126122 C50.2428143,123.075017 46.8174789,130.484745 38.5309562,145.312854 C38.3019607,145.722574 38.3019607,145.722574 38.0729763,146.132206 C31.9809957,157.030623 29.3719172,162.157389 26.8941978,168.770847 L23.007995,181.203174 C21.873091,188.866763 20.2602714,197.961102 19.391474,202.787848 C20.7939218,200.789427 22.0115977,199.216217 23.6415506,197.375177 C24.2122452,196.730575 24.9489805,195.601538 26.0319086,193.750075 C26.3002878,193.291232 28.4968397,189.450579 29.2038618,188.2574 C31.7296403,183.994867 33.7401971,181.201103 35.7621854,179.483774 C37.4202385,178.075545 39.0513418,177.470477 40.6540672,177.875008 C41.7876099,178.161116 41.9040139,179.182736 41.3628525,180.009438 C41.1438302,180.344027 40.9122835,180.593794 40.2835242,181.223286 C39.7358762,181.771612 39.4675812,182.08311 39.4627373,182.101192 C39.0537591,183.627863 38.6844577,184.235394 35.783708,188.589582 C35.057842,189.679148 34.553332,190.469846 34.09999,191.246346 C33.5958032,192.109936 33.1996289,192.886762 32.9034237,193.608114 C29.2486474,202.508629 27.2264666,207.558352 26.0223934,210.825227 C25.7262929,211.628602 25.4810978,212.321379 25.2841814,212.910851 C25.5208965,212.636684 25.7883936,212.322279 26.0948182,211.958761 C26.2706696,211.750145 26.4546014,211.531126 26.7152925,211.220126 C27.0415182,210.830816 27.2183645,210.619801 27.3829935,210.423621 C27.948091,209.750225 28.3945766,209.221704 28.8487181,208.690252 C30.0470809,207.287886 31.1352317,206.059387 32.2286437,204.888193 C34.8616216,202.067912 37.3367195,199.788925 39.7600476,198.059945 C40.5003254,197.531776 41.1220293,196.89948 42.6422139,195.210954 C42.9980773,194.815684 43.1921497,194.601588 43.4102935,194.365197 C45.5451457,192.051764 46.9480724,191.034245 48.6090929,191.185838 C49.8090113,191.295348 50.0939221,192.281738 49.7417837,193.288441 C49.5858281,193.734291 49.4359959,194.014105 48.834126,195.063056 C48.3865313,195.848492 48.1954457,196.228565 48.0991866,196.519416 C47.690572,197.754062 47.1382723,198.842218 45.9078605,201.009969 C44.0585129,204.266406 43.4645657,205.573639 43.4083877,206.859667 C43.0960103,214.010619 43.4361106,221.134359 44.3691313,229.606161 C44.8003973,233.522044 45.0336962,235.321514 46.1620914,243.508227 C46.3110279,241.552313 46.456036,239.656191 46.5330627,238.781426 C46.9653778,233.871777 47.4542779,230.408497 48.1166281,228.280537 C50.0232433,222.155074 52.4036188,217.47556 58.0131613,207.872405 C58.3911178,207.225369 59.2452152,206.429048 60.0549849,205.925514 C60.5361293,205.626327 60.9733306,205.442441 61.3939818,205.419292 C62.250299,205.372168 62.8452645,206.022573 62.7804506,206.890495 C62.5660397,209.761667 62.0209856,212.108955 60.6605151,216.784626 C59.3971535,221.123736 58.9399665,222.934189 58.6201924,225.210755 C58.1918595,228.260182 58.0635827,230.509809 57.9341918,235.460455 C57.916287,236.145512 57.9074919,236.473121 57.8961553,236.86578 C57.7588503,241.621542 57.4989174,244.6528 56.7827879,248.197087 L54.612787,256.701499 L54.2886249,256.914372 C52.6743546,257.974438 51.6215143,258.825001 51.1313978,259.374406 C53.314893,259.325164 56.936969,258.112601 58.6904409,256.836951 C63.3722299,253.430949 66.1800379,244.361826 65.4586595,232.447069 C65.2872061,229.615233 65.6307498,226.460411 66.420439,222.837612 C66.9293263,220.503028 67.5763502,218.143639 68.5324491,214.997109 C68.747315,214.289984 69.6306446,211.428337 69.8449108,210.720944 C70.3159274,209.165898 70.6496642,207.993278 70.912391,206.944606 C72.3188884,201.330585 72.6215783,196.664973 72.6805023,186.006975 C72.6833228,185.496785 72.6846077,185.269784 72.6863251,184.986214 C72.725172,178.571921 72.8579235,175.033347 73.3202131,171.14526 C74.0191382,165.266949 75.0380224,161.289519 76.4487906,158.180771 C76.8078268,157.389604 77.1798249,156.67568 77.6358145,155.877604 C77.7995472,155.591037 78.5146384,154.377544 78.6920737,154.062634 C80.4960789,150.860907 80.8703816,147.783833 79.8395207,139.44303 C79.026001,132.860756 78.5882032,127.989598 78.3842364,123.952175 C78.3124412,122.531024 78.1977922,118.37807 78.1273257,117.597765 C77.9058534,115.145309 77.9745519,115.334138 72.4104787,101.443091 C71.3624511,98.8266263 68.7326529,92.719757 68.5192076,92.1973488 C67.9834729,90.8861356 67.5364239,89.6977557 67.1059574,88.4216968 C66.2153787,85.7816982 65.3720376,82.6797885 64.3798337,78.3346182 C63.8044776,75.8149543 63.0261167,74.6567071 61.114641,72.8957683 C61.103472,72.8854789 60.6701833,72.4878111 60.5419227,72.3689046 C60.315812,72.1592843 60.1267464,71.9798786 59.9441357,71.8003128 C57.2942868,69.1946485 55.804227,66.0234982 54.9713368,59.8534076 C54.8743812,59.1351553 54.3338071,55.0327963 54.1701214,53.827868 C53.5943287,49.5893251 53.1162096,46.6010531 52.6694877,44.6802155 C52.1277046,52.8529898 52.203449,63.1512326 52.6550147,77.3622965 Z M112.705595,14.5953649 C112.456563,14.5945514 112.212175,14.5961158 111.970416,14.6002096 C108.971487,14.6776337 106.505506,15.073859 101.429919,16.008734 C96.1594954,16.9794961 68.4385514,24.4139932 65.2832128,37.4243852 C64.3177905,41.4051062 65.0131697,53.5393114 62.8154363,50.194178 C59.7588405,45.5417847 52.1485072,39.8457702 53.1801183,42.7936835 C54.2117295,45.7415969 55.1868396,53.9746249 55.9623486,59.7196326 C57.8452728,73.6684262 63.5078493,70.0238921 65.3547399,78.1120019 C68.1535926,90.3690508 69.5023319,91.4933365 73.3387789,101.071259 C82.479514,123.891659 77.1256308,109.331996 80.8319695,139.32037 C83.2948541,159.247827 76.8526411,149.905511 74.3132187,171.263328 C72.896845,183.17574 74.7866756,195.595287 71.8824118,207.187629 C70.1891409,213.946303 65.9557553,224.11053 66.4568317,232.386635 C67.2492556,245.474825 63.8741158,254.302458 59.2787328,257.645599 C55.2764482,260.557261 43.9153627,262.52999 53.7397146,256.07849 L55.8138337,247.949847 C57.4657428,239.75911 56.465775,233.359502 57.6299137,225.071657 C58.5001791,218.875983 61.3169175,213.06037 61.7832273,206.816026 C61.8719057,205.628535 59.46292,207.373119 58.8766386,208.376793 C55.1264306,214.796893 51.3192285,221.356182 49.0714443,228.577733 C46.9667989,235.339416 46.9464062,256.773868 46.004188,249.732656 C44.0414856,235.065349 41.7609486,221.659028 42.4093404,206.816026 C42.5443841,203.724601 46.0152119,199.633511 47.1498286,196.205219 C47.6382802,194.729343 49.7115708,192.290612 48.5182057,192.181699 C45.8873558,191.941595 43.0052642,196.973 40.3408478,198.873991 C26.692125,208.611993 15.2897233,233.870314 31.978375,193.228265 C33.6374812,189.187827 37.7131274,184.76778 38.4967969,181.842427 C38.72188,181.002216 41.5214101,179.125288 40.4093404,178.8446 C34.573693,177.371672 27.7383435,194.256399 24.3902764,198.038057 C14.9180462,208.736986 17.0240634,214.837836 22.0302113,180.97945 L25.9397419,168.472495 C33.1978619,149.086565 46.8590794,133.513217 51.51537,112.905727 C54.2958326,100.600147 52.0598866,90.1197595 51.6555192,77.3940562 C50.3361045,35.8712248 50.0889251,2.05684331 91.8305938,0.833552706 C97.7897254,0.658913075 114.924915,-1.40025382 124.345957,4.2421825 C124.719678,4.46601124 125.730225,6.11556277 126.749504,8.08559981 C135.069068,14.8715336 130.038452,21.2825932 136.359601,33.7513338 C141.397158,43.6881352 139.046234,54.474584 145.566172,73.2346926 C155.214422,100.99603 150.44057,103.227484 152.087662,123.867696 C152.10123,124.037723 152.845928,131.746756 157.1091,138.319677 C158.312257,140.174695 160.962336,142.0851 165.059336,144.050892 L150.689673,142.200775 C146.99516,141.535029 144.243298,141.535029 142.434089,142.200775 C141.48884,142.548604 139.75093,141.678469 138.742216,148.550114 C138.12757,152.737253 137.432734,163.236259 136.657709,180.047132 L128.818633,133.268293 C125.590192,132.097874 123.923672,131.036814 123.819075,130.085112 C122.479407,117.895903 122.479407,117.895903 123.819075,107.54751 C125.949316,91.0922614 132.052433,76.5232675 129.144446,54.5696773 C127.227431,40.0973336 112.365357,35.7129142 111.733569,23.5251524 C111.578715,20.5378864 111.834366,17.9109718 112.424346,15.5953511 C112.563046,15.0727498 112.632488,14.8323332 112.705595,14.5953649 Z" id="hair-outline" fill="#000000" fill-rule="nonzero" opacity="0.05"></path>
            </g>
        </g>
    </g>
</svg>