<?xml version="1.0" encoding="UTF-8"?>
<svg width="480px" height="300px" viewBox="0 0 480 300" version="1.1" xmlns="http://www.w3.org/2000/svg" xmlns:xlink="http://www.w3.org/1999/xlink">
    <!-- Generator: Sketch 50.2 (55047) - http://www.bohemiancoding.com/sketch -->
    <title>Avatars</title>
    <desc>Created with Sketch.</desc>
    <defs></defs>
    <g id="Avatars" stroke="none" stroke-width="1" fill="none" fill-rule="evenodd">
        <rect id="Frame" fill="#E6E6E6" x="0" y="0" width="480" height="300"></rect>
        <g id="Half-Elf" transform="translate(121.000000, 36.000000)">
            <g id="Female" transform="translate(19.000000, 0.000000)">
                <path d="M4.1951023,264.276885 C6.68091059,236.025622 8.51684696,218.161737 9.70291142,210.685228 C10.5539793,205.320414 9.14162759,199.774754 9.72546592,194.371034 C10.9036076,183.466735 11.8747874,162.033996 21.639272,154.876989 C31.4037566,147.719982 39.8301147,150.077286 45.254519,147.719982 C50.3767153,145.494011 77.1044885,141.461825 80.8457031,137.180664 C82.4229482,135.375785 85.3864785,131.023156 85.2783203,124.259766 C85.2154693,120.329546 83.7379303,112.573361 80.8457031,100.991211 C76.9236245,99.6704657 74.181437,98.3683824 72.6191406,97.0849609 C67.7013678,93.0450264 65.747759,85.7716118 65.2001953,83.6367188 C64.8361666,82.2174091 65.2693073,77.0565265 64.1288061,73.6494141 C63.8351932,72.7722802 60.5981503,72.6833448 60.2763672,71.7177734 C57.7420772,64.1131547 55.5391117,53.9637284 53.8828125,45.7548828 C53.5404799,44.0582357 53.8752087,43.4500086 53.8828125,41.8305664 C53.8846594,41.4372114 55.1866261,41.3482231 57.1411133,43.0898438 C59.2787175,44.9946378 60.2343749,47.9520927 60.2763672,47.534668 C60.323629,47.0648608 59.1048721,35.9874258 60.2763672,29.7490234 C62.3067199,18.937064 62.3067199,18.937064 65.2001953,16.0883789 C78.8816076,2.61875186 114.417441,-3.41029085 127.41417,21.0467598 C132.336416,30.3093689 132.097227,51.501853 133.814453,71.7177734 C134.793859,83.2477558 131.785207,85.8289756 128.997496,89.4472656 C127.806527,90.9930761 122.897648,99.0693359 121.223633,99.0693359 C120.107623,99.0693359 118.970253,108.008789 117.811523,125.887695 C117.943483,128.635722 118.483196,130.4811 119.430664,131.423828 C120.045045,132.035136 121.848105,132.520813 124.839844,132.880859 C133.408115,135.854792 143.250079,140.075854 152.138392,141.946647 C162.661569,144.161542 172.612907,141.861055 186.071725,158.521703 C195.142304,169.750157 203.210529,208.238668 204.953937,220.115399 C205.929028,226.758077 208.626389,241.478573 213.046021,264.276885 L184.009808,264.276885 L0,264.276885 L4.1951023,264.276885 Z" id="body" fill="{skin-color}"></path>
                <path d="M37.3318662,264.106263 C39.6122634,250.383077 41.0871754,240.043945 41.7566021,233.088867 C42.4260288,226.133789 42.7607422,223.057617 42.7607422,223.860352 C42.7607422,228.399306 42.7607422,231.992405 42.7607422,234.639648 C42.7607422,237.286891 44.2342741,247.109096 47.181338,264.106263 L37.3318662,264.106263 Z" id="armpit-l" fill="#000000" opacity="0.5"></path>
                <path d="M172.267606,264.897675 C174.998093,251.59317 176.822293,241.962891 177.740207,236.006836 C179.117077,227.072754 178.801134,227.074707 179.117077,227.074707 C179.43302,227.074707 179.459841,231.381819 179.117077,236.006836 C178.888569,239.09018 179.555235,248.72046 181.117077,264.897675 L172.267606,264.897675 Z" id="armpit-r" fill="#000000" opacity="0.5" transform="translate(176.692342, 245.986191) scale(-1, 1) translate(-176.692342, -245.986191) "></path>
                <path d="M107.933282,123.155999 L107.098945,122.604744 C108.93579,119.824637 109.361812,119.134893 109.780816,118.192995 C109.9996,117.701183 110.174484,117.198442 110.356283,116.54516 C110.519701,115.957931 110.645813,115.434825 111.004616,113.887083 C111.276125,112.715897 111.367176,111.730682 111.475921,109.473015 C111.587575,107.154948 111.682227,106.130772 111.971902,104.881223 L112.946067,105.107058 C112.674559,106.278243 112.583508,107.263459 112.474763,109.521126 C112.363108,111.839193 112.268457,112.863369 111.978782,114.112917 C111.616218,115.676883 111.488592,116.206266 111.319674,116.813259 C111.125488,117.511053 110.934776,118.059295 110.69449,118.599444 C110.243256,119.613791 109.807201,120.319779 107.933282,123.155999 Z" id="neck-line" fill="#000000" fill-rule="nonzero" opacity="0.100000001"></path>
                <path d="M96.5392249,97.2118823 L96.2185876,96.2646802 C97.2675137,95.9096083 98.3349349,95.8345116 100.285645,95.8630908 C100.713807,95.8693636 101.147091,95.89699 101.604054,95.945222 C102.328113,96.0216458 102.851951,96.1066938 104.266031,96.3603971 L104.089438,97.3446811 C102.700277,97.0954485 102.190366,97.0126616 101.499088,96.9396978 C101.070996,96.8945132 100.667632,96.8687944 100.270996,96.8629835 C98.4339656,96.8360698 97.4435886,96.9057461 96.5392249,97.2118823 Z" id="jaw-line" fill="#000000" fill-rule="nonzero" opacity="0.3"></path>
                <path d="M68.1485277,91.1786036 L68.9487434,90.5788914 C69.3809345,91.1555781 69.7719401,91.7927127 70.3313956,92.7924823 C70.4257057,92.9610184 70.7973656,93.6311257 70.8896081,93.7960297 C72.1386395,96.0289522 73.9928934,97.1722226 75.1720979,97.9215838 C76.9623144,99.059231 81.6954301,100.22931 83.7526575,101.671011 C84.2213148,101.999446 89.5388324,105.348703 90.4062169,105.948295 C93.6547003,108.193855 96.4282518,109.422465 97.9960895,109.455015 C107.092322,109.643864 105.220518,109.643864 108.270538,107.497023 C110.252732,106.101801 115.658938,102.963196 119.728596,98.7890621 C123.690119,94.7258397 127.332741,92.6289522 128.110161,90.9960882 L129.013051,91.4259614 C128.187303,93.1603304 124.384604,95.4447918 120.287629,99.643866 C116.22413,103.808631 110.871144,106.889398 108.846127,108.314762 C105.514929,110.659517 107.092322,110.659517 97.8423153,110.443122 C96.0532804,110.401269 93.2153903,109.105843 89.8375873,106.770889 C88.9646218,106.167439 83.6432855,102.815477 83.1787566,102.489936 C81.132866,101.05618 76.4115423,99.8940617 74.6357532,98.7655828 C73.2724185,97.8992106 71.3438311,96.6564575 70.016868,94.2842149 C69.9234338,94.1171805 69.5518266,93.447168 69.458735,93.2808095 C68.9194337,92.3170564 68.5473866,91.7108142 68.1485277,91.1786036 Z" id="jaw" fill="#000000" fill-rule="nonzero" opacity="0.3"></path>
                <path d="M111.386401,230.683298 C119.437881,251.543766 127.934072,257.436542 145.448894,257.436542 C168.061085,257.436542 179.972339,239.026841 170.314132,215.914881 C165.939721,209.803443 162.599153,203.861399 160.293532,198.087872 L161.222219,197.717006 C163.50213,203.426153 166.814347,209.313607 171.159982,215.378488 C181.185947,239.265281 168.799561,258.436542 145.448894,258.436542 C127.26157,258.436542 118.415613,252.11341 110.114434,230.155131 C108.809642,235.664391 107.793313,239.247559 107.054392,240.93122 C102.808807,250.604947 89.2190936,258.044819 75.2682455,258.613606 C59.6098373,259.252012 47.3480579,251.418404 43.4797255,235.695157 C42.2251258,230.595703 42.110541,226.626212 42.8975277,222.169673 C43.1156501,220.934492 43.3977904,219.663082 43.8069298,218.017149 C43.9701719,217.360441 44.7373535,214.371456 44.9491461,213.519025 C45.1593801,212.672867 45.05947,210.956569 44.6321175,206.485291 C44.1893888,201.852512 44.0900479,200.11865 44.3347766,199.054929 L45.3093172,199.27914 C45.1019965,200.180266 45.2035898,201.95344 45.6212396,206.323794 C46.0762803,211.084771 46.1727244,212.741527 45.9196399,213.760151 C45.7066108,214.617559 44.9394106,217.606616 44.7773966,218.258384 C44.373324,219.883933 44.0957791,221.134635 43.8822909,222.343574 C43.1192541,226.664489 43.2297815,230.493421 44.4507691,235.456254 C48.1972196,250.6841 60.015897,258.234626 75.2275085,257.614436 C88.8274147,257.059957 102.064166,249.813319 106.138699,240.529342 C106.812334,238.994437 107.755565,235.707106 108.958858,230.690265 L108.852034,230.677979 C109.567467,224.457615 108.710907,214.586496 107.051651,210.058204 L107.990602,209.714154 C109.409214,213.585701 110.249622,221.101803 110.08605,227.18779 L110.208745,227.524004 C110.004171,221.381098 110.849231,213.657312 112.294083,209.714154 L113.233034,210.058204 C111.573778,214.586496 110.717219,224.457615 111.432651,230.677979 L111.386401,230.683298 Z" id="breast" fill="#000000" fill-rule="nonzero" opacity="0.3"></path>
                <g id="nipples" opacity="0.700000048" transform="translate(62.000000, 222.000000)">
                    <path d="M88,14 C84.1340068,14 81,10.8659932 81,7 C81,3.13400675 84.1340068,0 88,0 C91.8659932,0 95,3.13400675 95,7 C95,10.8659932 91.8659932,14 88,14 Z" id="ra" fill="#000000" fill-rule="nonzero" opacity="0.3"></path>
                    <circle id="rn" fill="{skin-color}" opacity="0.400000006" cx="88" cy="7" r="2"></circle>
                    <path d="M88,10 C86.3431458,10 85,8.65685425 85,7 C85,5.34314575 86.3431458,4 88,4 C89.6568542,4 91,5.34314575 91,7 C91,8.65685425 89.6568542,10 88,10 Z M88,8.8 C88.9941125,8.8 89.8,7.99411255 89.8,7 C89.8,6.00588745 88.9941125,5.2 88,5.2 C87.0058875,5.2 86.2,6.00588745 86.2,7 C86.2,7.99411255 87.0058875,8.8 88,8.8 Z" id="rno" fill="#000000" fill-rule="nonzero" opacity="0.3"></path>
                    <path d="M7,14 C3.13400675,14 0,10.8659932 0,7 C0,3.13400675 3.13400675,0 7,0 C10.8659932,0 14,3.13400675 14,7 C14,10.8659932 10.8659932,14 7,14 Z" id="la" fill="#000000" fill-rule="nonzero" opacity="0.3"></path>
                    <circle id="ln" fill="{skin-color}" opacity="0.400000006" cx="7" cy="7" r="2"></circle>
                    <path d="M7,10 C5.34314575,10 4,8.65685425 4,7 C4,5.34314575 5.34314575,4 7,4 C8.65685425,4 10,5.34314575 10,7 C10,8.65685425 8.65685425,10 7,10 Z M7,8.8 C7.99411255,8.8 8.8,7.99411255 8.8,7 C8.8,6.00588745 7.99411255,5.2 7,5.2 C6.00588745,5.2 5.2,6.00588745 5.2,7 C5.2,7.99411255 6.00588745,8.8 7,8.8 Z" id="lno" fill="#000000" fill-rule="nonzero" opacity="0.3"></path>
                </g>
                <path d="M54.5165511,202.89635 L50.8720703,141.305664 L54.5695774,140.305664 L60.0736737,208.311066 C61.5301874,213.18501 64.6832553,219.602515 75.8159338,222.882812 C88.4937502,226.618392 99.7812846,226.897689 109.678537,223.720703 L109.678537,225.094482 C109.775335,224.60718 109.882489,224.149253 110,223.720703 C119.230586,226.897689 130.184787,226.618392 142.862603,222.882812 C155.237282,219.236554 158.16783,211.203285 159.546349,206.118343 L159.054688,206.478035 L147.569577,135.521965 L153.039062,137.521965 L163.649717,202.990416 C171.74871,210.69636 177.945425,230.666454 174.880859,240.357422 C169.888515,256.144537 161.564403,259.37285 142.862603,259.37285 C125.79436,259.37285 111.675535,253.245372 109.339269,238.36598 C107.003003,253.245372 92.8841769,259.37285 75.8159338,259.37285 C57.1141344,259.37285 48.7900224,256.144537 43.7976778,240.357422 C40.7353705,230.673595 42.2356256,209.6727 54.5165511,202.89635 Z" id="bra" fill="#414141"></path>
                <path d="M123.690961,80.8654702 L123,80.1425781 C123.623273,79.5468355 124.300902,79.0466153 125.618328,78.1581091 C125.921788,77.953728 126.078454,77.8481487 126.22122,77.751358 C126.445366,77.5993947 126.631141,77.4718077 126.804996,77.349984 C127.231842,77.0508837 127.576425,76.7932753 127.873388,76.5475279 C128.156254,76.3134477 128.389902,76.0691652 128.595673,75.8004014 C128.827342,75.4978101 128.959735,75.2744808 129.2863,74.6703431 C129.724662,73.8593843 129.990787,73.4605845 130.472656,73 L131.163617,73.7228921 C130.777079,74.0923567 130.558074,74.4205437 130.166004,75.1458649 C129.814458,75.796217 129.664022,76.0499814 129.389681,76.4083084 C129.138706,76.7361157 128.852793,77.0350412 128.510932,77.3179424 C128.190557,77.5830632 127.825796,77.8557569 127.378855,78.1689384 C127.200242,78.2940962 127.010444,78.4244455 126.78238,78.5790659 C126.638267,78.6767698 126.480208,78.7832872 126.177474,78.9871786 C124.906756,79.8441833 124.259782,80.3217746 123.690961,80.8654702 Z" id="cheekbone-r" fill="#000000" fill-rule="nonzero" opacity="0.100000001"></path>
                <path d="M66.6909609,80.8654702 L66,80.1425781 C66.6232735,79.5468355 67.3009015,79.0466153 68.6183283,78.1581091 C68.9217882,77.953728 69.0784544,77.8481487 69.2212204,77.751358 C69.4453658,77.5993947 69.6311413,77.4718077 69.804996,77.349984 C70.2318424,77.0508837 70.5764245,76.7932753 70.8733885,76.5475279 C71.1562536,76.3134477 71.3899021,76.0691652 71.5956725,75.8004014 C71.8273419,75.4978101 71.9597348,75.2744808 72.2862999,74.6703431 C72.7246616,73.8593843 72.9907869,73.4605845 73.4726562,73 L74.1636172,73.7228921 C73.7770786,74.0923567 73.5580744,74.4205437 73.1660038,75.1458649 C72.8144576,75.796217 72.6640224,76.0499814 72.3896808,76.4083084 C72.1387056,76.7361157 71.8527927,77.0350412 71.5109318,77.3179424 C71.1905569,77.5830632 70.8257962,77.8557569 70.3788547,78.1689384 C70.2002417,78.2940962 70.0104442,78.4244455 69.7823795,78.5790659 C69.6382667,78.6767698 69.4802085,78.7832872 69.1774739,78.9871786 C67.9067558,79.8441833 67.2597823,80.3217746 66.6909609,80.8654702 Z" id="cheekbone-l" fill="#000000" fill-rule="nonzero" opacity="0.100000001" transform="translate(70.081809, 76.932735) scale(-1, 1) translate(-70.081809, -76.932735) "></path>
                <path d="M82.5863215,160.284801 L81.7046942,159.812855 C82.3498229,158.607711 83.9480407,155.43586 84.2279416,154.950099 C84.864065,153.846123 85.3913217,153.350571 86.2662389,153.11167 C86.5722172,153.028121 96.3902038,152.790537 101.204268,151.078468 L101.348466,152.068017 C96.4462265,153.11167 86.70098,154.029571 86.5296509,154.076353 C85.9495244,154.23476 85.6108412,154.553078 85.094394,155.449359 C84.8312623,155.906017 83.2432472,159.05762 82.5863215,160.284801 Z" id="collarbone-l" fill="#000000" fill-rule="nonzero" opacity="0.129999995" transform="translate(91.526580, 155.681635) scale(-1, 1) translate(-91.526580, -155.681635) "></path>
                <path d="M116.586321,160.284801 L115.704694,159.812855 C116.349823,158.607711 117.948041,155.43586 118.227942,154.950099 C118.864065,153.846123 119.391322,153.350571 120.266239,153.11167 C120.572217,153.028121 130.390204,152.790537 135.204268,151.078468 L135.348466,152.068017 C130.446227,153.11167 120.70098,154.029571 120.529651,154.076353 C119.949524,154.23476 119.610841,154.553078 119.094394,155.449359 C118.831262,155.906017 117.243247,159.05762 116.586321,160.284801 Z" id="collarbone-r" fill="#000000" fill-rule="nonzero" opacity="0.129999995"></path>
                <path d="M80.3917687,101.187962 L81.3738563,100.999538 C81.5726243,102.035535 81.8674014,103.263214 82.3343964,105.045542 C82.4242992,105.388664 83.366551,108.922379 83.6578373,110.050129 C84.6390993,113.849204 85.2993853,116.866503 85.7339837,119.807222 C87.0665959,128.824369 85.9013426,135.402271 81.2313791,139.358082 L80.5850272,138.595043 C84.9234893,134.920038 86.0318937,128.66305 84.7447285,119.953421 C84.3162396,117.054042 83.6627931,114.067997 82.6896127,110.300211 C82.3995169,109.17707 81.4578912,105.645703 81.3670501,105.299 C80.8948311,103.496735 80.5957482,102.251123 80.3917687,101.187962 Z" id="neck-l" fill="#000000" fill-rule="nonzero" opacity="0.400000006"></path>
                <path d="M116.391769,99.1879624 L117.373856,98.9995376 C117.572624,100.035535 117.867401,101.263214 118.334396,103.045542 C118.424299,103.388664 119.366551,106.922379 119.657837,108.050129 C120.639099,111.849204 121.299385,114.866503 121.733984,117.807222 C123.066596,126.824369 121.901343,133.402271 117.231379,137.358082 L116.585027,136.595043 C120.923489,132.920038 122.031894,126.66305 120.744728,117.953421 C120.31624,115.054042 119.662793,112.067997 118.689613,108.300211 C118.399517,107.17707 117.457891,103.645703 117.36705,103.299 C116.894831,101.496735 116.595748,100.251123 116.391769,99.1879624 Z" id="neck-r" fill="#000000" fill-rule="nonzero" opacity="0.400000006" transform="translate(119.320624, 118.178810) scale(-1, 1) rotate(4.000000) translate(-119.320624, -118.178810) "></path>
                <path d="M104.170406,77.8465079 C103.869149,78.6044243 103.028672,78.9619952 101.488834,79.1722328 C98.4311467,79.5897059 97.0085241,79.2184914 96.2302566,77.8914498 C96.118289,77.9001617 95.954465,77.9172203 95.6153695,77.9534508 C95.2639316,77.9894595 94.9896529,78.0114843 94.7167244,78.0219948 C94.1869261,78.0423975 93.7488762,78.0136092 93.3883591,77.9145883 C92.3187521,77.6208063 91.8331633,76.4553167 92.0510784,75.8126541 C92.2257244,75.2975984 92.3286453,75.0309594 92.4445356,74.818312 C92.7861236,74.1915315 93.0427569,74.1352994 94.0911034,74.2032559 C94.7189748,74.2439562 95.2305747,74.2422399 95.9452106,74.1682565 L96.0319639,75.006242 L96.2941089,74.908678 C96.3884412,75.1621398 96.4619216,75.4198876 96.5470976,75.7726896 C96.5649677,75.8467082 96.5799875,75.9103943 96.611548,76.0451171 C96.7116671,76.4719429 96.8200792,76.8330738 96.9582474,77.1337269 C96.9795396,77.1655041 96.9967097,77.2003956 97.008843,77.2384391 C97.5693514,78.3411354 98.6089999,78.5561457 101.353557,78.181425 C103.194856,77.9300282 103.450379,77.6989991 103.242429,76.4877348 C103.077376,75.526337 100.615184,68.2796213 100.162269,66.8314455 C99.6332955,65.1400746 99.3569693,63.4311548 99.0182217,60.2340704 C99.0482752,60.5177139 98.7599112,57.7444187 98.669819,56.9331351 C98.5194749,55.5792814 98.3680626,54.3711571 98.1898306,53.1436969 L99.1794524,53 C99.3594421,54.2395657 99.51221,55.4585057 99.6637095,56.8227645 C99.7542568,57.6381456 100.043048,60.4155534 100.012655,60.1287051 C100.34477,63.2631928 100.613139,64.9228974 101.116682,66.5329545 C101.414785,67.4861267 102.74564,71.4255303 103.570426,74.0413468 C104.052424,74.0723428 104.461883,74.0658806 104.938278,74.0349994 C105.986625,73.9670429 106.243258,74.0232749 106.584846,74.6500555 C106.700737,74.8627029 106.803658,75.1293419 106.978303,75.6443976 C107.196219,76.2870602 106.71063,77.4525498 105.641023,77.7463318 C105.280506,77.8453527 104.842456,77.874141 104.312658,77.8537383 C104.271312,77.8521461 104.223895,77.849736 104.170406,77.8465079 Z M104.293745,76.8631043 C104.314527,76.8566809 104.333658,76.8538058 104.351139,76.854479 C104.787472,76.8712823 105.134236,76.8484932 105.376168,76.7820435 C105.845963,76.6530079 106.076642,76.0993419 106.031266,75.9655206 C105.875386,75.5058095 105.785631,75.2732776 105.706779,75.128592 C105.624045,74.9767844 105.679905,74.9890241 105.002965,75.032905 C104.613206,75.0581702 104.26095,75.0683234 103.88494,75.0572307 C104.066929,75.659763 104.192472,76.1115255 104.22801,76.3185303 C104.261361,76.5127915 104.283478,76.6939907 104.293745,76.8631043 Z M96.1804672,77.8036629 C96.0724922,77.7304892 95.9920738,77.6094022 96.0037443,77.4380569 C96.0586426,77.5667724 96.117354,77.6886079 96.1804672,77.8036629 Z M95.8157538,76.9265675 C95.7510114,76.7226357 95.6922863,76.505032 95.6379732,76.2734853 C95.6065308,76.1392773 95.5921672,76.0783735 95.575026,76.0073741 C95.4983965,75.689972 95.4346322,75.4663055 95.3569124,75.2574798 L95.4844975,75.2099957 C94.9727178,75.2412504 94.5309946,75.2338696 94.0264166,75.2011615 C93.3494769,75.1572806 93.4053366,75.1450409 93.3226032,75.2968485 C93.2437513,75.4415341 93.1539955,75.6740661 92.9981159,76.1337772 C92.9527395,76.2675984 93.1834185,76.8212644 93.6532139,76.9503 C93.8951455,77.0167498 94.2419094,77.0395388 94.6782427,77.0227355 C94.925931,77.013197 95.1812968,76.9926909 95.513442,76.958659 C95.6320721,76.9459298 95.7312575,76.9353598 95.8157538,76.9265675 Z" id="nose" fill="#000000" fill-rule="nonzero" opacity="0.3"></path>
                <path d="M60.6286888,52.3868673 C60.3632254,52.068187 59.981119,51.7300917 59.3747196,51.2576165 C59.6420862,51.4659348 56.8643622,49.3683212 55.2129449,48.0704466 C55.5257203,49.6390082 56.2422609,53.1363968 56.3673524,53.7626576 C56.5910557,54.8826107 56.7851557,55.8877218 56.9624587,56.8519593 C57.1731413,58.0055351 57.2797502,58.8228813 57.5176257,60.9024791 C57.8517038,63.8231165 58.0702179,65.1508392 58.5481879,66.6347953 C60.1779726,71.6947973 62.924257,73.829005 65.5602326,72.8118448 L65.9202361,73.7447958 C62.6374967,75.0115267 59.3804027,72.4803559 57.5963434,66.9413766 C57.0913515,65.3735254 56.8656818,64.0023241 56.5241042,61.0161234 C56.2888299,58.9592659 56.1839985,58.1555478 55.9854005,57.0680211 C55.802654,56.0740594 55.6094939,55.0738152 55.3867234,53.9585318 C55.2454294,53.2511546 54.3368818,48.8190504 54.1275325,47.7347938 C53.7345085,45.6992537 53.5463867,44.4352715 53.5463867,43.6625977 C53.5463867,42.5473417 54.2862831,42.1997417 55.2491915,42.6264645 C55.7979598,42.8696569 56.2569952,43.1884511 57.5672651,44.1735149 C57.6184808,44.2120135 57.6184808,44.2120135 57.6696375,44.2504313 C57.9619883,44.469909 58.1653897,44.6205068 58.3642288,44.7635303 C59.2625641,45.4096962 59.6388758,45.8000241 62.0455666,48.4414155 C62.6016928,49.0517751 63.0097824,49.4888889 63.4106345,49.8981963 C63.6526612,50.1446165 63.7031518,50.1880601 64.1541555,50.5591809 C64.2504642,50.6384311 64.323349,50.7000534 64.3958433,50.764335 C64.7753841,51.1008788 65.0809093,51.4653947 65.4271342,52.0272426 L64.5757955,52.551859 C64.2807025,52.0729871 64.0383832,51.7838809 63.7323893,51.5125521 C63.6706503,51.4578073 63.6063733,51.4034627 63.5187484,51.3313582 C63.0373144,50.9351971 62.9739004,50.8806338 62.7316986,50.63409 C62.7139406,50.6160042 62.7139406,50.6160042 62.6961869,50.5978852 C62.2852241,50.1782539 61.8699159,49.7334081 61.3063828,49.1149192 C58.9752176,46.5564187 58.5928091,46.1597669 57.7803024,45.5753369 C57.5747255,45.427467 57.366614,45.2733818 57.0692619,45.0501496 C57.0177588,45.0114715 57.0177588,45.0114715 56.9663436,44.9728229 C55.7372463,44.0487849 55.2906678,43.7386418 54.8440336,43.5407112 C54.4838777,43.3811044 54.5463867,43.351738 54.5463867,43.6625977 C54.5463867,44.2916443 54.7003747,45.3779055 55.0197623,47.0752228 L55.1093979,46.8469238 C56.6250768,48.0579455 60.2725267,50.689438 59.9893338,50.4687886 C61.0795935,51.3182629 61.5662035,51.8271559 61.9116611,52.5446938 C62.1186878,52.9747017 63.608653,54.9294319 64.1541555,58.2576925 C64.4821126,60.258649 64.5896745,68.2099537 64.9202361,69.5078125 L64.4271342,68.3286133 C64.0900294,67.0050644 63.444327,61.1457298 63.0673828,59.0385742 C62.5791557,56.3093358 61.7411654,54.4277436 61.2940543,53.5302375 L60.232212,60.9129782 L59.2423974,60.7706155 L60.4518701,52.3614358 L60.6286888,52.3868673 Z" id="ear" fill="#000000" fill-rule="nonzero" opacity="0.3"></path>
                <path d="M100.027415,93.6020508 C106.661621,93.6020508 114.25358,89.028035 114.25358,88.1907959 C114.25358,87.0862264 108.352899,86.3815918 100.027415,86.3815918 C91.7019315,86.3815918 84.5445601,87.5819539 84.5445601,88.6865234 C84.5445601,89.6424081 94.1694336,93.6020508 100.027415,93.6020508 Z" id="lips" fill="#990000" opacity="0.100000001"></path>
                <path d="M86.6526831,88.0774979 C92.6898195,88.5154714 97.2577444,88.734375 100.353104,88.734375 C103.459504,88.734375 107.743579,88.5138674 113.202671,88.0726367 C112.999884,88.0274682 112.785433,87.9793836 112.554366,87.92732 C107.161301,86.7121663 105.708923,86.4374744 103.273101,86.3237765 C102.840734,86.3035947 102.586337,86.3971668 102.069812,86.7086595 C102.04532,86.7234379 102.04532,86.7234379 102.020507,86.7384179 C101.39196,87.117754 101.022473,87.2657587 100.425451,87.2800747 C99.9584837,87.2912721 99.5332107,87.1855219 98.4037848,86.8365371 C98.3687871,86.8257243 98.3687871,86.8257243 98.333846,86.8149395 C97.3602769,86.5145589 96.8914059,86.406641 96.5497543,86.4339779 C93.3973215,86.6862168 90.1591683,87.2245443 86.6526831,88.0774979 Z M112.978404,89.0934038 C107.637523,89.5206499 103.429929,89.734375 100.353104,89.734375 C97.1973659,89.734375 92.5410324,89.5095065 86.3806317,89.0599416 C88.5668491,90.7772181 91.8520037,92.7797605 96.5497543,93.1556466 C96.8914059,93.1829835 102.840734,93.2860297 103.273101,93.265848 C106.246418,93.1270611 110.355827,90.7902005 112.978404,89.0934038 Z M86.0651625,87.196668 C89.7629322,86.278242 93.1673544,85.7019113 96.4822054,85.4366767 C96.9771624,85.3970732 97.490484,85.5152221 98.585094,85.8529481 C98.6202716,85.8638059 98.6202716,85.8638059 98.6553775,85.8746522 C99.6719246,86.1887582 100.072235,86.2883011 100.405157,86.280318 C100.817348,86.2704341 101.06514,86.1711766 101.573868,85.8641525 C101.598506,85.8492787 101.598506,85.8492787 101.623433,85.8342375 C102.275185,85.4411959 102.673068,85.2948468 103.312577,85.3246974 C105.818476,85.4416663 107.292112,85.7203788 112.741126,86.9481389 C112.982481,87.0025205 113.205566,87.0525285 113.416063,87.0993827 L113.255175,86.8965672 L113.951987,86.2435696 L115.603411,88.3253567 L115.021272,88.870892 L115.032339,88.8896698 C114.993231,88.9168991 114.953246,88.9446553 114.912405,88.972914 L114.906599,88.9783543 L114.90587,88.9774348 C112.481528,90.6543305 107.061441,94.0899397 103.312577,94.2649271 C102.673068,94.2947777 96.9771624,94.1925513 96.4822054,94.1529478 C90.8213915,93.7000031 87.1671505,91.039275 84.8395078,89.0462067 L84.5522804,89.4082859 L83.8554687,88.7552883 L85.5068928,86.6735012 L86.0651625,87.196668 Z" id="mouth-outline" fill="#000000" fill-rule="nonzero" opacity="0.3"></path>
                <g id="eye-l" transform="translate(81.184363, 55.298374) rotate(-5.000000) translate(-81.184363, -55.298374) translate(69.684363, 47.298374)">
                    <path d="M13.1142716,14.8970681 C15.9465528,14.8970681 18.5591686,14.561226 20.9521188,13.8895417 C17.4896273,10.7007841 14.3422409,9.10640528 11.5099596,9.10640528 C8.67767837,9.10640528 6.20782417,9.74410291 4.10039701,11.0194982 C7.27736548,13.6045448 10.2819903,14.8970681 13.1142716,14.8970681 Z" id="eye-white" fill="#FFFFFF" opacity="0.800000012"></path>
                    <path d="M12.8672808,14.3857797 C14.8976816,14.3857797 16.5436467,12.6615201 16.5436467,10.5345381 C16.5436467,10.2443832 15.0350745,9.77756838 12.01793,9.13409366 C10.1332532,8.64973528 9.19091484,9.11655009 9.19091484,10.5345381 C9.19091484,12.6615201 10.8368799,14.3857797 12.8672808,14.3857797 Z" id="iris" fill="{eye-color}" opacity="0.700000048"></path>
                    <path d="M8.98585527,9.47176823 C7.53533395,9.74558386 6.01474185,10.2467203 4.25972634,10.9735094 C8.25176825,14.7297374 13.8536689,15.819474 20.6874423,13.6408538 C19.5808753,12.5627882 18.6531268,11.8209725 17.9094777,11.4168707 C17.5661474,11.2303036 17.0869687,11.0202146 16.4727132,10.7870377 C16.5786859,11.3471269 16.5196576,11.9274918 16.292402,12.3849991 C15.6200891,13.7384886 14.4122704,14.6330287 13.101794,14.6693692 C10.2608678,14.7481502 7.91428724,12.1855009 8.98585527,9.47176823 Z M9.3519759,9.40725656 L9.60011312,9.5232481 C8.535935,11.8606657 10.5684876,14.1471774 13.0858048,14.0773703 C14.1651524,14.0474391 15.1889504,13.2891892 15.7703397,12.1187457 C15.9835294,11.6895555 15.9960125,11.0786374 15.8011528,10.54184 C15.3984232,10.3998798 14.9517986,10.2504502 14.4614223,10.093632 C14.3498293,10.1596958 14.27445,10.1923144 14.1519259,10.2220037 L14.0779019,9.9982874 L14.1122837,9.9830516 C13.4921929,9.78848189 12.8076525,9.58304742 12.058919,9.36689254 C12.0737076,9.43276846 12.0923314,9.51494207 12.1022546,9.55546088 L11.8753522,9.61251497 C11.8567135,9.53640795 11.8101874,9.32636555 11.8096757,9.3241695 C11.8011581,9.28761029 11.7929657,9.25546658 11.7846088,9.22664033 C10.9717475,9.21305252 10.170951,9.27336024 9.3519759,9.40725656 Z M4.02332459,11.0721705 C3.9829453,11.0891501 3.94244107,11.1062464 3.90180998,11.1234592 L3.67636593,10.5770695 C10.4116167,7.72377585 13.8194613,8.00213749 22.0581956,11.4563066 L21.8347385,12.0035337 C19.0670368,10.8431479 16.8650897,10.0479452 14.9036416,9.61462439 C16.4385279,10.1132878 17.5310138,10.5392046 18.1857004,10.8949638 C19.1953866,11.4436313 20.4784644,12.5372779 22.0457721,14.1789078 L21.6257061,14.5906761 C21.4670338,14.4244794 21.3114472,14.2641252 21.1589586,14.1096169 C13.9527318,16.4922503 7.99645584,15.3542803 3.78205882,11.3316975 L4.02332459,11.0721705 Z M14.720634,11.3393683 L15.1896376,11.4479626 L15.1559915,11.6816235 C14.9939558,11.6709168 14.8835524,11.6429292 14.6579548,11.5678496 L14.1889512,11.4592554 L14.2225972,11.2255944 C14.384633,11.2363011 14.4950364,11.2642887 14.720634,11.3393683 Z M13.7783224,13.1505256 L13.5616457,13.2394766 L13.1594009,12.2334534 L13.3760776,12.1445024 L13.7783224,13.1505256 Z M14.2793005,10.7759423 L14.2945133,10.5395562 L15.3787478,10.6111981 L15.363535,10.8475843 L14.2793005,10.7759423 Z M9.85467894,10.7562065 L9.86989176,10.5198203 C10.0154019,10.529435 10.131578,10.5284619 10.3937789,10.5196346 C10.6635821,10.5105514 10.7849759,10.5095345 10.940642,10.5198203 L10.9254292,10.7562065 C10.7799191,10.7465917 10.663743,10.7475649 10.4015421,10.7563922 C10.1317389,10.7654754 10.0103451,10.7664923 9.85467894,10.7562065 Z M10.3152211,11.9659156 L10.2392381,11.7418882 C10.2628634,11.7336105 10.2628634,11.7336105 10.2858517,11.7253552 C10.4097481,11.6805861 10.5181517,11.634694 10.6324427,11.579306 C10.7505315,11.5220776 10.7462771,11.5243645 11.1286503,11.3155876 L11.2395492,11.5241272 C10.8518273,11.7358244 10.8565403,11.733291 10.7333121,11.7930101 C10.611836,11.8518801 10.4959846,11.9009252 10.3643774,11.9484805 C10.3400989,11.9571992 10.3400989,11.9571992 10.3152211,11.9659156 Z M12.5909909,13.3314099 L12.3669003,13.2639032 C12.4250392,13.0657505 12.4527232,12.9421769 12.4663811,12.8206899 C12.4782153,12.7154245 12.480174,12.6350944 12.4800787,12.3743946 C12.480071,12.3530177 12.480071,12.3530177 12.4800684,12.3308882 L12.7138527,12.3308882 C12.7138553,12.3529467 12.7138553,12.3529467 12.713863,12.3743069 C12.7139618,12.6446661 12.7118833,12.7299076 12.6986631,12.8475018 C12.6832218,12.9848519 12.6527037,13.1210763 12.5909909,13.3314099 Z M14.7314991,12.3664895 L14.5784554,12.5455637 L13.8177005,11.8780142 L13.9707442,11.69894 L14.7314991,12.3664895 Z M11.2383053,12.8279186 L11.0558377,12.6798252 L11.5922117,12.0012873 L11.7746793,12.1493807 L11.2383053,12.8279186 Z M10.4502973,9.53795512 L10.5643391,9.33116331 L11.4063564,9.80793272 L11.2923145,10.0147245 L10.4502973,9.53795512 Z M12.5584956,11.7988872 C11.7515238,11.7988872 11.2587983,11.4436151 11.2587983,10.7894663 C11.2587983,10.1353175 11.9944545,9.75647796 12.8014264,9.75647796 C13.6083982,9.75647796 13.858193,10.1353175 13.858193,10.7894663 C13.858193,11.4436151 13.3654675,11.7988872 12.5584956,11.7988872 Z" id="eye" fill="#000000" fill-rule="nonzero" opacity="0.5"></path>
                    <path d="M0.225295417,1.62607616 L0,0.487044664 C5.30713031,-0.494304 8.64647826,0.0134959564 12.6510556,1.95469048 C13.3823134,2.30916321 16.3518611,3.87624515 17.1610053,4.27381374 C19.1003042,5.22667772 20.9060784,5.95382672 22.9772871,6.56292515 L22.6282751,7.67241586 C20.485002,7.04212481 18.6157239,6.28940406 16.6176382,5.30765555 C15.7864462,4.89925388 12.8207318,3.33419483 12.1135139,2.99137529 C8.33822496,1.16132692 5.26554138,0.69407744 0.225295417,1.62607616 Z" id="eye-brow" fill="#000000" fill-rule="nonzero" opacity="0.5"></path>
                    <path d="M6.47890559,9.58494107 L6.45174527,9.62488754 C5.85021277,9.4371593 5.43932906,9.25596565 5.21909415,9.08130658 C4.99885924,8.9066475 4.84051004,8.75639629 4.74404653,8.63055292 L4.59462658,7.81076647 C4.89902312,8.29970341 5.16672726,8.63577475 5.39773899,8.81898047 C5.56599046,8.95241365 5.82472747,9.09195445 6.17395001,9.23760286 L5.55456622,8.5321373 L5.27080498,7.610152 C5.57816754,8.12563483 5.82036521,8.49625295 5.99739802,8.72200636 C6.17443082,8.94775976 6.42059606,9.1999053 6.73589374,9.47844295 L6.54150766,9.65624355 L6.47890559,9.58494107 Z M5.25224828,10.0799969 L5.13577271,10.3246653 C4.52799311,10.1350392 4.0878163,9.9645498 3.81524228,9.81319713 C3.54266826,9.66184446 3.34231794,9.52859838 3.2141913,9.4134589 L2.912385,8.78073678 C3.38814696,9.14802866 3.75871158,9.40535008 4.02407885,9.55270105 C4.28944613,9.70005202 4.69883594,9.87581731 5.25224828,10.0799969 Z M7.2580501,9.32056719 L7.05743863,9.49011026 L6.11809266,8.40248002 L5.83972876,7.36307972 C6.13085969,7.9650829 6.35770076,8.37825652 6.52025199,8.6026006 C6.68280321,8.82694467 6.92873592,9.06626687 7.2580501,9.32056719 Z M8.59678909,8.86290716 L8.40036308,9.03807326 C8.02638922,8.7243079 7.76189979,8.46605432 7.60689479,8.26331253 C7.45188979,8.06057074 7.3076295,7.88914355 7.17411392,7.74903095 L7.02759308,6.81044689 C7.23394622,7.30376857 7.38379274,7.62400006 7.47713264,7.77114135 C7.59777921,7.96132894 7.73436934,7.96163993 7.82511474,8.08033212 C8.02116979,8.33676612 8.27839458,8.59762447 8.59678909,8.86290716 Z M9.94936961,8.95202831 L9.75556608,9.13056913 C9.36762386,8.89329797 9.09110679,8.6701498 8.92601487,8.4611246 C8.76092295,8.25209941 8.66807763,8.13388833 8.64747893,8.10649138 L8.5281875,7.15264973 C8.7539139,7.7479523 8.95328193,8.15512856 9.12629159,8.37417852 C9.29930126,8.59322848 9.5736606,8.78584508 9.94936961,8.95202831 Z M11.0868288,8.9358105 L10.8977696,9.12018918 C10.5112943,8.84862572 10.2433473,8.62349073 10.0939287,8.44478421 C9.94451018,8.26607769 9.81929865,8.1198771 9.71829415,8.00618245 L9.76216667,7.35149763 C9.85933351,7.72193413 9.94111431,7.96625028 10.0075091,8.08444608 C10.0927906,8.23626408 10.2431948,8.27799905 10.320914,8.37095229 C10.4893942,8.57245669 10.7446991,8.76074276 11.0868288,8.9358105 Z M12.0947196,9.06346482 L11.8849568,9.21955612 C11.3967277,8.90120249 11.0833844,8.63351202 10.9449271,8.41648471 C10.8064697,8.1994574 10.7135608,8.03184239 10.6662004,7.91363969 L10.8290142,7.07951393 C10.8826736,7.51304312 10.9320369,7.79864695 10.9771041,7.93632543 C11.0414008,8.13274946 11.1489802,8.18476306 11.2231464,8.30101603 C11.3752899,8.5394959 11.6658143,8.79364549 12.0947196,9.06346482 Z M12.6505634,9.2074686 L12.4017783,9.2665726 C12.1823125,8.87240801 12.0529336,8.57886941 12.0136415,8.38595681 C11.9743495,8.19304421 11.9605025,8.03744535 11.9721005,7.91916024 L12.3141117,7.55558667 C12.2223329,7.76602329 12.1724447,7.9218152 12.1644469,8.0229624 C12.1505289,8.19898354 12.2285011,8.40597269 12.2500385,8.51171492 C12.2901399,8.7086013 12.4236482,8.94051919 12.6505634,9.2074686 Z M13.1535506,9.34669626 L12.8988177,9.34711227 C12.7546122,9.08103142 12.6824101,8.8770618 12.6822114,8.73520341 C12.6820128,8.59334501 12.7377162,8.48329732 12.8493216,8.40506031 L13.1519336,8.19184313 C13.009529,8.45061102 12.9384078,8.63796636 12.9385702,8.75390916 C12.9387325,8.86985196 13.0103927,9.06744766 13.1535506,9.34669626 Z M13.7658805,9.34191621 L13.5111473,9.34195174 C13.3832456,9.0907247 13.3192875,8.9039701 13.3192729,8.78168794 C13.3192582,8.65940577 13.400821,8.5663848 13.5639611,8.50262501 L13.7657561,8.30151404 C13.6854782,8.52385242 13.6453461,8.69184159 13.6453597,8.80548155 C13.6453733,8.91912151 13.6855469,9.09793306 13.7658805,9.34191621 Z M4.31617265,12.1707608 L4.4878301,12.4539258 C4.32624485,12.4835485 4.22953513,12.5063913 4.19770095,12.5224542 C3.96828588,12.6382123 3.79286862,12.7043411 3.67144917,12.7208405 C3.52475704,12.7407742 3.40004778,12.6990844 3.2973214,12.5957711 L2.88165619,12.4055134 C3.25841044,12.4549829 3.52779862,12.4687093 3.68982071,12.4466925 C3.85184279,12.4246756 4.06062678,12.3326984 4.31617265,12.1707608 Z M4.60861867,12.4627394 L4.73633973,12.7007721 C4.56926895,12.8827475 4.42544551,13.0114669 4.3048694,13.0869302 C4.1842933,13.1623936 4.0676785,13.2172937 3.955025,13.2516306 L3.49851449,13.1575051 C3.84473601,13.0920445 4.08340541,13.0182839 4.21452271,12.9362234 C4.34564001,12.8541628 4.47700533,12.6963348 4.60861867,12.4627394 Z M5.11672645,12.6143241 L5.26607052,12.8371955 C5.1087443,13.0672953 4.97245752,13.2273836 4.85721019,13.3174604 C4.74196285,13.4075373 4.63762075,13.4431382 4.54418388,13.4242632 L4.12005813,13.393316 C4.41850757,13.2998894 4.62509707,13.20834 4.73982664,13.1186678 C4.8545562,13.0289957 4.98018947,12.8608811 5.11672645,12.6143241 Z M5.38161159,13.1563656 L5.59272784,13.3103138 C5.46549358,13.653842 5.36621444,13.882649 5.29489043,13.9967348 C5.22356641,14.1108205 5.07994037,14.2385729 4.86401232,14.3799919 L4.54316423,14.5424654 C4.85984981,14.2463342 5.07211703,14.0120143 5.17996589,13.8395054 C5.28781476,13.6669966 5.35502999,13.4392833 5.38161159,13.1563656 Z M5.82162242,13.2802594 L6.03856149,13.4244564 C5.9109203,13.8554563 5.80597354,14.1431248 5.72372121,14.287462 C5.64146889,14.4317992 5.43770174,14.6184645 5.11241976,14.8474581 L4.83062676,14.8781857 C5.20744332,14.53124 5.44370683,14.2737903 5.53941731,14.1058366 C5.63512779,13.9378829 5.72919616,13.6626905 5.82162242,13.2802594 Z M6.78030084,13.6256808 L6.96259279,13.7295096 C6.87568584,14.0715468 6.79707838,14.3032053 6.72677041,14.4244851 C6.65646243,14.5457649 6.598183,14.6219274 6.5519321,14.6529727 L6.18836666,14.9259668 C6.33605485,14.6687963 6.44747528,14.4753927 6.52262795,14.3457559 C6.59778063,14.2161191 6.68367159,13.976094 6.78030084,13.6256808 Z M7.06859731,13.8674831 L7.31450131,13.885426 C7.32132167,14.2293177 7.30618732,14.4526704 7.26909827,14.5554841 C7.23200922,14.6582978 7.20086093,14.7059644 7.17565341,14.6984838 L6.7609498,14.8165404 C6.9120439,14.6569226 7.00324357,14.5337234 7.03454884,14.4469428 C7.0658541,14.3601622 7.07720359,14.167009 7.06859731,13.8674831 Z M7.87950877,14.1190358 L8.05815996,14.1445768 C8.04246983,14.4966741 8.02725309,14.7310876 8.01250974,14.8478173 C7.99776639,14.9645469 7.99144069,15.0515991 7.99353264,15.1089738 L7.64375182,15.3764815 C7.75295463,15.1419132 7.81555589,14.9612906 7.83155562,14.8346136 C7.84755534,14.7079366 7.86353973,14.4694106 7.87950877,14.1190358 Z M8.92912887,14.3803798 L9.15312681,14.511385 C9.1481254,14.7319674 9.1217155,14.8899422 9.07389712,14.9853095 C9.02607875,15.0806767 8.89867028,15.2294716 8.69167174,15.4316942 L8.65353141,15.4289112 C8.75876275,15.193553 8.83875114,15.0212827 8.89349658,14.9121003 C8.94824203,14.802918 8.96011946,14.6256778 8.92912887,14.3803798 Z M9.82894579,14.7422688 L10.0834581,14.7537218 C10.0863893,14.9846591 10.0858784,15.1513574 10.0819255,15.2538168 C10.0779726,15.3562763 10.0668331,15.4915565 10.0485069,15.6596576 L9.90960304,15.6495222 C9.87353952,15.4898403 9.85835846,15.3361092 9.86405986,15.1883289 C9.86976126,15.0405485 9.85805657,14.8918618 9.82894579,14.7422688 Z M6.00065588,9.88372029 L5.87372309,10.1222443 C5.31305539,9.9207627 4.91483029,9.74684536 4.6790478,9.60049224 C4.44326531,9.45413912 4.33401223,9.37644262 4.35128857,9.36740274 L4.10247102,8.70549337 C4.40882996,9.110236 4.66813641,9.37848165 4.88039038,9.51023032 C5.09264434,9.64197899 5.46606617,9.76647564 6.00065588,9.88372029 Z M5.0450538,10.5143764 L4.97206179,10.7779524 C4.30231987,10.7956811 3.83427701,10.7615293 3.56793323,10.6754972 C3.30158945,10.5894651 3.05175208,10.4252682 2.81842112,10.1829066 L2.59971507,9.72450362 C3.07127795,10.1039895 3.43214043,10.3341351 3.68230251,10.4149404 C3.93246458,10.4957456 4.38671502,10.528891 5.0450538,10.5143764 Z M7.94122312,9.27993246 L7.73400331,9.4399365 C7.31546677,9.10246317 7.03933595,8.83272404 6.90561083,8.63071912 C6.77188571,8.42871419 6.68521892,8.25273316 6.64561048,8.10277601 L6.62066558,7.28510066 C6.83515166,7.83706657 7.02344874,8.23548961 7.18555683,8.48036979 C7.34766492,8.72524997 7.59955368,8.99177086 7.94122312,9.27993246 Z" id="eye-lashes" fill="#000000" fill-rule="nonzero" opacity="0.400000006" transform="translate(8.182798, 11.235052) rotate(1.000000) translate(-8.182798, -11.235052) "></path>
                </g>
                <g id="eye-r" transform="translate(114.761765, 54.959852) scale(-1, 1) rotate(-1.000000) translate(-114.761765, -54.959852) translate(103.261765, 46.959852)">
                    <path d="M13.0614394,14.2188431 C15.8823105,14.2188431 18.484401,13.898291 20.8677109,13.2571868 C17.4191684,10.2136051 14.2844616,8.69181421 11.4635905,8.69181421 C8.64271943,8.69181421 6.1828153,9.30047911 4.08387813,10.5178089 C7.24804785,12.985165 10.2405683,14.2188431 13.0614394,14.2188431 Z" id="eye-white" fill="#FFFFFF" opacity="0.800000012"></path>
                    <path d="M12.8154436,13.7308324 C14.8376647,13.7308324 16.4769989,12.0850739 16.4769989,10.0549278 C16.4769989,9.77798293 14.9745041,9.33242099 11.9695145,8.718242 C10.0924303,8.2559352 9.15388827,8.70149715 9.15388827,10.0549278 C9.15388827,12.0850739 10.7932224,13.7308324 12.8154436,13.7308324 Z" id="iris" fill="{eye-color}" opacity="0.700000048"></path>
                    <path d="M8.94965481,9.04054312 C7.50497706,9.30189264 5.99051083,9.78021359 4.24256558,10.4739139 C8.21852514,14.0591306 13.797858,15.0992543 20.6041008,13.019821 C19.5019917,11.9908369 18.5779807,11.2827942 17.8373275,10.8970901 C17.4953803,10.719017 17.0181321,10.5184928 16.4063511,10.2959318 C16.511897,10.8305215 16.4531064,11.384464 16.2267663,11.8211422 C15.5571619,13.1130107 14.3542091,13.9668248 13.049012,14.0015108 C10.2195309,14.0767051 7.8824037,11.6307266 8.94965481,9.04054312 Z M9.31430048,8.9789685 L9.56143805,9.08967925 C8.50154709,11.3206803 10.5259113,13.503093 13.0330873,13.436464 C14.1080866,13.4078956 15.1277601,12.6841668 15.7068072,11.5670105 C15.9191381,11.1573603 15.9315709,10.5742557 15.7374962,10.0618973 C15.336389,9.92640017 14.8915637,9.78377375 14.4031629,9.63409502 C14.2920195,9.6971511 14.2169439,9.72828469 14.0949134,9.75662233 L14.0211876,9.54309123 L14.0554309,9.52854909 C13.4378381,9.34283763 12.7560555,9.14675606 12.0103384,8.94044215 C12.0250674,9.00331891 12.0436162,9.08175137 12.0534994,9.12042547 L11.8275111,9.17488202 C11.8089475,9.10223996 11.7626088,8.90176025 11.7620992,8.89966418 C11.7536159,8.86476942 11.7454565,8.83408913 11.7371332,8.80657526 C10.9275467,8.79360607 10.1299763,8.85116814 9.31430048,8.9789685 Z M4.0071162,10.5680832 C3.96689958,10.5842898 3.92655853,10.6006077 3.88609113,10.6170368 L3.66155531,10.0955229 C10.3696724,7.37213231 13.7637882,7.63782086 21.9693318,10.9347306 L21.7467749,11.4570438 C18.9902232,10.3494875 16.7971469,9.59048825 14.8436007,9.17689541 C16.3723036,9.652856 17.4603883,10.0593819 18.1124374,10.3989443 C19.118056,10.9226323 20.3959647,11.966488 21.9569584,13.5333788 L21.5385847,13.9264004 C21.3805516,13.7677702 21.2255918,13.6147165 21.0737175,13.4672425 C13.8965218,15.7414008 7.96424127,14.6552396 3.7668224,10.8157946 L4.0071162,10.5680832 Z M14.6613303,10.8231162 L15.1284445,10.9267664 L15.094934,11.1497894 C14.9335511,11.1395702 14.8235924,11.1128567 14.5989037,11.0411954 L14.1317895,10.9375451 L14.1653,10.7145222 C14.3266829,10.7247414 14.4366416,10.7514548 14.6613303,10.8231162 Z M13.722815,12.5518161 L13.5070112,12.6367175 L13.1063869,11.6764959 L13.3221907,11.5915946 L13.722815,12.5518161 Z M14.2217748,10.2853416 L14.2369263,10.0597174 L15.3167929,10.1280977 L15.3016414,10.3537218 L14.2217748,10.2853416 Z M9.81497833,10.2665042 L9.83012986,10.0408801 C9.97505376,10.0500571 10.0907619,10.0491282 10.3519065,10.0407028 C10.6206227,10.0320332 10.7415275,10.0310626 10.8965665,10.0408801 L10.881415,10.2665042 C10.7364911,10.2573272 10.620783,10.2582561 10.3596384,10.2666815 C10.0909221,10.2753512 9.97001737,10.2763217 9.81497833,10.2665042 Z M10.2736652,11.4211384 L10.1979883,11.2073104 C10.2215184,11.1994096 10.2215184,11.1994096 10.244414,11.1915301 C10.3678113,11.1487992 10.4757782,11.1049964 10.5896088,11.0521302 C10.7072219,10.9975072 10.7029846,10.99969 11.0838174,10.8004182 L11.1942695,10.9994635 C10.8081095,11.2015227 10.8128036,11.1991046 10.6900718,11.2561049 C10.5690851,11.3122946 10.4537004,11.3591069 10.3226235,11.4044971 C10.2984427,11.4128188 10.2984427,11.4128188 10.2736652,11.4211384 Z M12.5402668,12.7244653 L12.317079,12.660032 C12.3749836,12.4709007 12.4025561,12.3529531 12.4161589,12.2369971 C12.4279455,12.1365241 12.4298963,12.0598513 12.4298014,11.8110205 C12.4297937,11.7906167 12.4297937,11.7906167 12.4297911,11.7694947 L12.6626336,11.7694947 C12.6626362,11.790549 12.6626362,11.790549 12.6626439,11.8109367 C12.6627423,12.0689872 12.6606722,12.1503479 12.6475052,12.2625882 C12.6321261,12.3936852 12.601731,12.5237076 12.5402668,12.7244653 Z M14.6721517,11.8034752 L14.5197246,11.9743966 L13.7620344,11.337239 L13.9144616,11.1663175 L14.6721517,11.8034752 Z M11.1930306,12.2438967 L11.0112981,12.1025456 L11.5455113,11.4548997 L11.7272438,11.5962508 L11.1930306,12.2438967 Z M10.4081972,9.10371669 L10.5217796,8.90633958 L11.3604047,9.36140291 L11.2468222,9.55878002 L10.4081972,9.10371669 Z M12.5079024,11.2617144 C11.7041815,11.2617144 11.213441,10.9226169 11.213441,10.2982498 C11.213441,9.67388267 11.9461336,9.31229076 12.7498545,9.31229076 C13.5535753,9.31229076 13.8023638,9.67388267 13.8023638,10.2982498 C13.8023638,10.9226169 13.3116233,11.2617144 12.5079024,11.2617144 Z" id="eye" fill="#000000" fill-rule="nonzero" opacity="0.5"></path>
                    <path d="M0.224387791,1.55204512 L0,0.46487078 C5.28574998,-0.471799618 8.61164501,0.0128815204 12.6000895,1.86569848 C13.3284013,2.20403299 16.2859859,3.69976973 17.0918703,4.07923805 C19.0233566,4.9887206 20.8218561,5.68276439 22.8847207,6.26413215 L22.5371147,7.32311062 C20.402476,6.72151509 18.5407285,6.00306376 16.5506923,5.06601173 C15.7228488,4.67620352 12.7690821,3.18239756 12.0647134,2.85518571 C8.30463354,1.10845471 5.2443286,0.66247789 0.224387791,1.55204512 Z" id="eye-brow" fill="#000000" fill-rule="nonzero" opacity="0.5"></path>
                    <path d="M6.45280464,9.14856349 L6.42575374,9.18669131 C5.82664457,9.00750985 5.41741615,8.83456547 5.19806848,8.66785818 C4.97872081,8.50115088 4.82100953,8.35774021 4.72493464,8.23762617 L4.57611664,7.45516247 C4.87928689,7.92183938 5.14591255,8.24261026 5.37599363,8.4174751 C5.54356728,8.54483342 5.80126194,8.67802128 6.1490776,8.81703869 L5.53218906,8.14369116 L5.24957099,7.26368146 C5.5556953,7.75569569 5.79691726,8.10944053 5.97323687,8.32491597 C6.14955647,8.54039141 6.39473001,8.7810574 6.70875748,9.04691396 L6.5151545,9.21661976 L6.45280464,9.14856349 Z M5.23108905,9.62108074 L5.11508271,9.85461001 C4.50975161,9.67361708 4.0713481,9.51088962 3.79987218,9.36642765 C3.52839625,9.22196567 3.32885306,9.09478594 3.20124259,8.98488846 L2.90065215,8.38097255 C3.37449745,8.73154258 3.74356921,8.97714882 4.00786743,9.11779128 C4.27216564,9.25843374 4.67990618,9.42619689 5.23108905,9.62108074 Z M7.22881028,8.89622588 L7.029007,9.05805009 L6.09344528,8.01993684 L5.8162028,7.02785775 C6.10616087,7.60245328 6.33208809,7.99681617 6.49398447,8.21094644 C6.65588084,8.42507671 6.90082278,8.65350319 7.22881028,8.89622588 Z M8.56215602,8.45940192 L8.36652133,8.62659317 C7.99405407,8.32711273 7.73063016,8.08061677 7.57624962,7.88710529 C7.42186907,7.69359381 7.27818994,7.52997125 7.14521224,7.39623761 L6.99928169,6.50038486 C7.20480351,6.97124688 7.35404635,7.27689906 7.44701022,7.41734138 C7.56717076,7.59887023 7.70321062,7.59916706 7.79359044,7.7124555 C7.98885567,7.95721473 8.24504419,8.20619687 8.56215602,8.45940192 Z M9.90928753,8.54446562 L9.71626475,8.71487793 C9.3298854,8.48840912 9.05448231,8.27542031 8.89005548,8.07591149 C8.72562865,7.87640267 8.63315737,7.76357344 8.61264165,7.7374238 L8.4938308,6.82700809 C8.71864783,7.39520807 8.91721269,7.78384665 9.08952537,7.99292384 C9.26183804,8.20200102 9.5350921,8.38584828 9.90928753,8.54446562 Z M11.0421643,8.52898616 L10.8538668,8.70497055 C10.4689484,8.44577068 10.2020809,8.2308855 10.0532643,8.06031503 C9.90444767,7.88974455 9.77974057,7.7502001 9.67914298,7.64168167 L9.72283876,7.01680295 C9.81961415,7.37037444 9.90106549,7.60356751 9.96719277,7.71638216 C10.0521307,7.86128828 10.201929,7.90112317 10.2793352,7.98984448 C10.4471366,8.18217491 10.701413,8.36188881 11.0421643,8.52898616 Z M12.0459947,8.65082871 L11.837077,8.79981357 C11.3508148,8.49595376 11.0387338,8.24045055 10.9008343,8.03330393 C10.7629347,7.82615731 10.6704001,7.66617338 10.6232305,7.55335214 L10.7853884,6.75720197 C10.8388316,7.1709937 10.887996,7.44359472 10.9328816,7.57500506 C10.9969194,7.76248641 11.1040654,7.81213197 11.1779327,7.92309225 C11.3294633,8.15071474 11.6188173,8.39329356 12.0459947,8.65082871 Z M12.5995993,8.78827637 L12.3518164,8.84468952 C12.1332347,8.46847022 12.004377,8.18829567 11.9652433,8.00416589 C11.9261096,7.8200361 11.9123184,7.67152126 11.9238696,7.55862136 L12.264503,7.21160035 C12.173094,7.41245633 12.1234067,7.56115544 12.1154412,7.65769768 C12.1015792,7.82570502 12.1792373,8.0232705 12.2006879,8.12419855 C12.2406278,8.3121212 12.3735982,8.53348048 12.5995993,8.78827637 Z M13.1005601,8.92116535 L12.8468535,8.92156242 C12.7032289,8.66759555 12.6313176,8.47291214 12.6311198,8.33751219 C12.630922,8.20211224 12.686401,8.09707473 12.7975567,8.02239966 L13.0989497,7.8188897 C12.9571187,8.06587656 12.8862841,8.2447021 12.8864458,8.35536632 C12.8866075,8.46603055 12.9579789,8.65463022 13.1005601,8.92116535 Z M13.7104232,8.91660293 L13.4567163,8.91663684 C13.3293298,8.67684752 13.2656293,8.49859537 13.2656148,8.3818804 C13.2656002,8.26516543 13.3468344,8.17637946 13.5093173,8.11552249 L13.7102993,7.92356758 C13.6303449,8.13578347 13.5903744,8.29612452 13.5903879,8.40459075 C13.5904015,8.51305698 13.6304132,8.6837277 13.7104232,8.91660293 Z M4.2987845,11.6166576 L4.4697504,11.8869308 C4.30881611,11.9152048 4.212496,11.9370077 4.18079007,11.9523392 C3.95229922,12.0628272 3.77758864,12.1259453 3.65665835,12.1416936 C3.51055719,12.1607197 3.38635033,12.1209279 3.28403779,12.0223182 L2.87004714,11.8407225 C3.2452836,11.8879398 3.51358651,11.9010412 3.67495587,11.8800267 C3.83632524,11.8590123 4.04426811,11.7712226 4.2987845,11.6166576 Z M4.59005236,11.8953431 L4.71725889,12.1225388 C4.55086117,12.2962294 4.40761713,12.4190885 4.28752678,12.4911162 C4.16743643,12.5631438 4.05129143,12.6155445 3.93909176,12.6483181 L3.48442035,12.5584779 C3.82924708,12.4959976 4.06695499,12.4255951 4.19754406,12.3472706 C4.32813314,12.268946 4.45896924,12.1183035 4.59005236,11.8953431 Z M5.09611318,12.0400265 L5.2448556,12.2527511 C5.08816318,12.4723751 4.95242545,12.625175 4.83764241,12.7111509 C4.72285936,12.7971268 4.61893761,12.8311069 4.52587716,12.8130912 L4.10346004,12.7835529 C4.40070715,12.6943798 4.60646438,12.6069984 4.72073175,12.5214088 C4.83499911,12.4358192 4.96012626,12.2753584 5.09611318,12.0400265 Z M5.3599312,12.5573903 L5.57019694,12.7043296 C5.44347526,13.0322179 5.34459608,13.2506079 5.2735594,13.3594996 C5.20252272,13.4683914 5.0594753,13.5903275 4.84441713,13.7253081 L4.52486161,13.8803846 C4.84027139,13.5977355 5.05168347,13.3740835 5.15909785,13.2094285 C5.26651224,13.0447736 5.33345669,12.8274275 5.3599312,12.5573903 Z M5.7981694,12.6756435 L6.01423451,12.8132757 C5.88710753,13.2246532 5.78258356,13.4992249 5.7006626,13.6369908 C5.61874164,13.7747567 5.41579539,13.9529236 5.09182384,14.1714917 L4.81116607,14.2008204 C5.18646458,13.8696702 5.42177629,13.6239415 5.51710118,13.4636343 C5.61242608,13.3033272 5.70611549,13.0406636 5.7981694,12.6756435 Z M6.75298568,13.0053388 L6.93454325,13.1044405 C6.84798642,13.4309057 6.76969563,13.6520174 6.6996709,13.7677756 C6.62964617,13.8835339 6.57160152,13.9562289 6.52553695,13.9858607 L6.16343618,14.2464262 C6.31052938,14.000964 6.42150095,13.8163655 6.49635086,13.6926307 C6.57120078,13.568896 6.65674572,13.3397986 6.75298568,13.0053388 Z M7.04012072,13.2361324 L7.28503407,13.2532585 C7.29182695,13.5814936 7.27675358,13.7946777 7.23981394,13.8928106 C7.20287431,13.9909434 7.17185151,14.0364399 7.14674553,14.0292999 L6.7337126,14.1419816 C6.884198,13.9896308 6.97503027,13.8720406 7.00620941,13.7892109 C7.03738856,13.7063812 7.04869233,13.5220217 7.04012072,13.2361324 Z M7.84776534,13.4762326 L8.02569681,13.5006108 C8.01006989,13.836678 7.99491445,14.0604193 7.9802305,14.1718345 C7.96554655,14.2832498 7.95924633,14.3663387 7.96132985,14.4211013 L7.61295816,14.6764301 C7.72172103,14.4525411 7.7840701,14.2801417 7.80000537,14.159232 C7.81594064,14.0383223 7.83186063,13.8106558 7.84776534,13.4762326 Z M8.89315694,13.7256783 L9.11625247,13.8507191 C9.11127121,14.061259 9.08496771,14.2120417 9.03734197,14.3030671 C8.98971624,14.3940925 8.86282105,14.5361132 8.65665642,14.7291291 L8.61866975,14.7264728 C8.72347715,14.5018298 8.8031433,14.3374025 8.8576682,14.233191 C8.91219309,14.1289794 8.92402267,13.9598086 8.89315694,13.7256783 Z M9.78934885,14.0710914 L10.0428358,14.082023 C10.0457552,14.3024463 10.0452464,14.4615553 10.0413094,14.55935 C10.0373724,14.6571447 10.0262778,14.786266 10.0080255,14.9467139 L9.86968116,14.9370399 C9.83376293,14.784628 9.81864303,14.6378959 9.82432146,14.4968435 C9.82999988,14.3557912 9.81834235,14.2138738 9.78934885,14.0710914 Z M5.97648161,9.43374007 L5.85006017,9.66140467 C5.29165119,9.46909604 4.89503038,9.3030967 4.66019776,9.16340666 C4.42536514,9.02371662 4.3165522,8.94955744 4.33375894,8.94092913 L4.08594379,8.30915478 C4.39106853,8.69547052 4.64933033,8.95150364 4.86072921,9.07725413 C5.07212808,9.20300462 5.44404555,9.32183327 5.97648161,9.43374007 Z M5.02472927,10.0356841 L4.95203132,10.2872601 C4.28498752,10.3041816 3.81883022,10.2715847 3.55355944,10.1894694 C3.28828865,10.1073541 3.03945777,9.95063269 2.80706681,9.71930517 L2.58924185,9.28177213 C3.05890498,9.64398104 3.41831369,9.8636487 3.66746796,9.9407751 C3.91662224,10.0179015 4.36904267,10.0495378 5.02472927,10.0356841 Z M7.90923107,8.85744113 L7.70284606,9.01016061 C7.28599565,8.68805156 7.01097724,8.43059296 6.87779085,8.2377848 C6.74460445,8.04497664 6.65828681,7.87700757 6.61883794,7.73387758 L6.59399353,6.95342887 C6.80761553,7.4802652 6.99515404,7.86054907 7.15660906,8.09428049 C7.31806408,8.32801191 7.56893808,8.58239879 7.90923107,8.85744113 Z" id="eye-lashes" fill="#000000" fill-rule="nonzero" opacity="0.400000006" transform="translate(8.149833, 10.723549) rotate(1.000000) translate(-8.149833, -10.723549) "></path>
                </g>
                <path d="M130.239222,11.5592116 C135.012341,17.5224979 131.808086,23.8007303 137.359601,34.7513338 C142.397158,44.6881352 140.046234,55.474584 146.566172,74.2346926 C156.214422,101.99603 151.44057,104.227484 153.087662,124.867696 C153.10123,125.037723 153.845928,132.746756 158.1091,139.319677 C159.312257,141.174695 162.055188,142.468395 166.337891,143.200775 L151.689673,143.200775 C147.99516,142.535029 145.243298,142.535029 143.434089,143.200775 C142.48884,143.548604 140.75093,142.678469 139.742216,149.550114 C139.12757,153.737253 138.432734,164.236259 137.657709,181.047132 L125.345957,141.319677 C120.917417,133.928945 118.563491,129.492633 118.28418,128.010742 C117.333876,122.968895 117.889316,114.729518 118.819075,107.54751 C119.074703,105.572883 120.200464,99.6130247 120.819075,98.2138672 C127.073242,84.0683594 132.703475,74.8888401 130.144446,55.5696773 C128.227431,41.0973336 113.365357,46.7129142 112.733569,34.5251524 C112.448469,29.0253139 113.554826,21.5011158 115.577257,15.3448263 C111.343785,18.023247 109.226548,21.7568593 102.429919,23.008734 C97.1594954,23.9794961 69.4385514,27.4139932 66.2832128,40.4243852 C65.3177905,44.4051062 66.0131697,54.5393114 63.8154363,51.194178 C60.7588405,46.5417847 53.1485072,40.8457702 54.1801183,43.7936835 C55.2117295,46.7415969 56.7507361,54.9882686 57.5262451,60.7332764 C58.8353876,70.4314669 61.3658447,70.4607638 63.8154363,73.2807617 C64.7907315,74.4035329 65.7919386,76.6473196 66.3547399,79.1120019 C67.3809179,83.6059555 71.2853863,87.5070393 72.3203125,88.7470703 C74.1080992,90.8891661 73.4110345,88.9226142 78.3098145,95.9619141 C78.6075697,96.3897734 80.0219727,98.5288086 80.7976074,101.497559 C82.966818,109.800234 85.9392755,118.578143 85.4990234,128.010742 C85.3350782,131.523342 82.8319695,134.687142 82.8319695,140.32037 C82.8319695,161.90983 77.8526411,150.905511 75.3132187,172.263328 C73.896845,184.17574 75.7866756,196.595287 72.8824118,208.187629 C71.1891409,214.946303 66.9557553,225.11053 67.4568317,233.386635 C68.2492556,246.474825 64.8741158,255.302458 60.2787328,258.645599 C56.2764482,261.557261 44.9153627,263.52999 54.7397146,257.07849 L56.8138337,248.949847 C58.4657428,240.75911 57.465775,234.359502 58.6299137,226.071657 C59.5001791,219.875983 62.3169175,214.06037 62.7832273,207.816026 C62.8719057,206.628535 60.46292,208.373119 59.8766386,209.376793 C56.1264306,215.796893 52.3192285,222.356182 50.0714443,229.577733 C47.9667989,236.339416 47.9464062,257.773868 47.004188,250.732656 C45.0414856,236.065349 42.7609486,222.659028 43.4093404,207.816026 C43.5443841,204.724601 47.0152119,200.633511 48.1498286,197.205219 C48.6382802,195.729343 50.7115708,193.290612 49.5182057,193.181699 C46.8873558,192.941595 44.0052642,197.973 41.3408478,199.873991 C27.692125,209.611993 16.2897233,234.870314 32.978375,194.228265 C34.6374812,190.187827 38.7131274,185.76778 39.4967969,182.842427 C39.72188,182.002216 42.5214101,180.125288 41.4093404,179.8446 C35.573693,178.371672 28.7383435,195.256399 25.3902764,199.038057 C15.9180462,209.736986 18.0240634,215.837836 23.0302113,181.97945 L26.9397419,169.472495 C34.1978619,150.086565 47.8590794,134.513217 52.51537,113.905727 C55.2958326,101.600147 53.0598866,91.1197595 52.6555192,78.3940562 C52.2090443,64.3432035 50.1308592,51.7457495 51.51537,40.4243852 C54.2223411,18.2890539 65.2138299,2.64289572 92.8305938,1.83355271 C98.7897254,1.65891307 115.924915,-0.400253818 125.345957,5.2421825 C126.10417,5.69629055 129.483624,9.70629976 130.239222,11.5592116 Z" id="hair" fill="{hair-color}"></path>
                <path d="M157.689609,139.591757 C155.789105,136.661576 154.430245,133.313427 153.520891,129.818506 C152.967998,127.693569 152.661323,125.810691 152.589246,124.907469 C152.165642,119.599154 152.129325,116.043821 152.284316,109.736547 C152.34292,107.351699 152.359066,106.561385 152.365854,105.384869 C152.418532,96.2556183 151.020696,88.5749718 146.093883,74.3988335 C143.203989,66.0836158 142.35209,61.6798173 140.680376,49.5607435 C139.682688,42.3280172 138.850979,38.7989147 136.913636,34.9774202 C134.510982,30.2380806 133.811003,27.3248133 132.944031,20.8411998 C132.326826,16.2254551 131.716865,14.2054378 129.848867,11.8716585 C129.146187,10.2029721 125.909469,6.16249736 125.08905,5.67113348 C121.663487,3.61950045 116.968434,2.46522766 111.193614,2.02842082 C107.050973,1.71507187 103.008189,1.7735279 97.5256195,2.08409233 C97.0044049,2.11361694 95.2635607,2.21635815 94.9221742,2.23573138 C94.0161531,2.2871469 93.381553,2.31762084 92.8452406,2.33333813 C67.5986717,3.07321968 54.987708,16.1495666 52.0116726,40.485079 C51.2356106,46.8310616 51.3874771,51.7014959 52.3903645,65.2975227 C52.8294295,71.2498757 53.0342499,74.5696903 53.155267,78.3781764 C53.2459772,81.2328877 53.3983193,83.6406626 53.7406005,88.1632802 C54.1446974,93.5026801 54.2666961,95.3696104 54.346988,98.0715593 C54.5221648,103.966533 54.1497217,108.941176 53.0030754,114.015924 C50.768967,123.903487 47.3583466,131.281384 39.0944873,146.068938 C38.8655216,146.478605 38.8655216,146.478605 38.6365334,146.888244 C32.5324078,157.808388 29.9153759,162.950782 27.4169698,169.621671 L23.524834,182.052583 C22.1870983,191.100172 20.1524504,202.290213 19.4941802,205.970956 C19.6093302,205.803515 19.7454569,205.604496 19.9084762,205.365693 C21.7116181,202.724313 23.0667705,200.908183 25.0159135,198.706617 C25.6154364,198.029453 26.364152,196.882056 27.4635027,195.002516 C27.7338279,194.540346 29.9294144,190.701381 30.634015,189.512289 C33.1325208,185.295782 35.1191787,182.535226 37.0858606,180.86487 C38.6328473,179.550973 40.1132897,179.001794 41.5317038,179.359804 C42.2541687,179.542155 42.3240815,180.155746 41.9445128,180.735592 C41.7525731,181.028807 41.5285956,181.27041 40.929765,181.869938 C40.2875894,182.512909 40.0192365,182.824474 39.9797671,182.971809 C39.5924689,184.417551 39.2168728,185.035438 36.3675928,189.312367 C35.6367093,190.409465 35.1275508,191.207448 34.6681934,191.994252 C34.1531626,192.876415 33.7468158,193.673188 33.4408993,194.41819 C29.7837574,203.324466 27.7601592,208.377728 26.5532446,211.652312 C25.9124907,213.390797 25.50684,214.619417 25.3086375,215.419085 C25.9670687,215.045392 26.5433683,214.38874 27.4771161,213.281016 C27.653326,213.071975 27.8375159,212.852648 28.0984778,212.541325 C28.4247737,212.151931 28.6014941,211.941066 28.7660014,211.745032 C29.3302222,211.07268 29.7758193,210.545211 30.2288369,210.015074 C31.4227886,208.617871 32.5062663,207.394648 33.5941251,206.229402 C36.2062292,203.431479 38.6582674,201.173725 41.0504477,199.466968 C41.8325533,198.908956 42.4658547,198.264865 44.013805,196.545499 C44.3683566,196.151685 44.5613963,195.938729 44.7777446,195.704283 C46.8022849,193.51039 49.1084604,192.705169 50.5488525,192.836626 C51.3354804,192.908417 50.530281,193.378751 50.2698242,194.123352 C50.1289142,194.52619 49.9810611,194.802308 49.4004448,195.814218 C48.9360304,196.629193 48.7344324,197.030176 48.6245076,197.362318 C48.2298607,198.554759 47.6867992,199.624715 46.4730233,201.763156 C44.577625,205.100681 43.9700146,206.437985 43.908864,207.837847 C43.5952463,215.017191 43.9365216,222.165541 44.8721362,230.660896 C45.3342795,234.857143 45.5692809,236.625608 46.9169982,246.390548 C47.0630025,247.448428 47.1872566,248.354326 47.3016627,249.196959 C47.502141,246.713435 47.8869411,241.462849 48.0311355,239.825283 C48.4602935,234.951489 48.9459286,231.511337 49.5940362,229.429135 C51.4857348,223.351595 53.8541966,218.695502 59.4448999,209.124599 C59.7768896,208.556255 60.5729712,207.814025 61.3190139,207.350118 C61.7347044,207.091632 62.1048215,206.935961 62.4214558,206.918537 C62.9680215,206.888458 63.3247646,207.278443 63.2818389,207.853261 C63.0708327,210.678841 62.5314248,213.001813 61.1804251,217.644935 C59.9103946,222.006949 59.4492748,223.832976 59.1250531,226.141206 C58.6933008,229.214977 58.5642291,231.478544 58.4343625,236.447392 C58.4164694,237.132001 58.4076828,237.459292 58.3963636,237.85135 C58.2598088,242.581127 58.0020025,245.587586 57.2983108,249.073467 L55.1762508,257.389995 C50.9569048,260.160774 50.6748196,260.912674 52.312238,260.873374 C54.4278704,260.822597 58.1484672,259.577052 59.9845869,258.241275 C64.8303637,254.715973 67.6883897,245.484647 66.9577456,233.416852 C66.7894457,230.637101 67.1282633,227.52568 67.9089677,223.944101 C68.4144347,221.625207 69.0583168,219.277274 70.0108512,216.142476 C70.2252665,215.436833 71.1086832,212.574904 71.3234409,211.865889 C71.7966063,210.303748 72.1323303,209.124146 72.3974014,208.066118 C73.8169394,202.400045 74.1213485,197.707934 74.1804946,187.009739 C74.1833149,186.499593 74.1845992,186.272695 74.1863159,185.989242 C74.2250548,179.592778 74.3572721,176.068447 74.8167159,172.204294 C75.5631647,165.926285 76.5420293,162.039958 77.8939683,159.168667 C78.157944,158.608027 78.4337719,158.087417 78.7576645,157.52601 C78.8829471,157.308856 79.0100523,157.094468 79.1761848,156.818576 C79.1633255,156.839931 79.4900737,156.298907 79.5789844,156.150171 C81.633175,152.713775 82.3319695,149.506827 82.3319695,140.32037 C82.3319695,137.784399 82.7554142,135.801243 83.6959679,133.01485 C83.9569742,132.25025 84.0022827,132.118109 84.0417203,132.00264 C84.1769802,131.606613 84.2733585,131.317997 84.3627259,131.038312 C84.5876719,130.334316 84.7431485,129.758111 84.8488761,129.209634 C84.930778,128.784757 84.9811764,128.38146 84.9995672,127.987431 C85.417919,119.024054 82.2220464,108.678991 80.0328583,101.255371 C79.4700055,99.3467159 77.8013271,96.1063743 77.8939106,96.2390411 C75.1364251,92.277516 74.2461255,91.2135866 73.196964,90.3376452 C72.7102286,89.9309618 72.4204925,89.6474315 71.9364405,89.0674487 C71.8036605,88.908354 70.9651978,87.9637356 70.7200684,87.6802224 C70.0640241,86.9214507 69.4871338,86.2075288 68.9359771,85.4522058 C67.4106637,83.3618668 66.3407085,81.2965712 65.8672868,79.22331 C65.2664006,76.5918419 64.4330367,75.351747 62.4534173,73.5280311 C62.4414352,73.5169927 62.0090192,73.1201258 61.8818524,73.0022334 C61.6590602,72.7956895 61.4733872,72.6195031 61.2947042,72.4437996 C58.7272742,69.9191798 57.4750543,66.8506372 56.6564693,60.7865201 C56.5596652,60.0693907 55.8294275,55.9667512 55.6655707,54.7605628 C54.8946377,49.0855467 54.300071,45.6502095 53.7081812,43.9588362 C53.325325,42.8647933 53.9294328,42.2504674 54.9694439,42.5747879 C55.6436003,42.7850191 56.624845,43.3781882 57.7670922,44.2456214 C60.1917407,46.0869222 62.7840513,48.7137286 64.2333175,50.9196324 C64.4965223,51.3745449 64.5993404,51.1872508 64.6952497,50.8082501 C64.9035321,49.9851893 65.0096911,48.8572256 65.169679,46.2520189 C65.1973404,45.8002638 65.2109943,45.5783043 65.2256682,45.3450143 C65.3841844,42.8248907 65.5290592,41.4125709 65.7972989,40.3065392 C67.3032652,34.0969957 74.0585354,29.6086949 84.4941914,26.3813366 C87.8941271,25.3298636 91.4942265,24.4727344 95.3613753,23.7311172 C97.532817,23.3146919 102.540677,22.4799226 102.339347,22.5170057 C106.145538,21.8159415 108.122673,20.6687019 111.711684,17.6638955 C113.417626,16.2357983 114.226104,15.6080024 115.309929,14.9222914 L116.487002,14.177584 L116.052281,15.5008785 C114.054427,21.5823553 112.950269,29.0470865 113.232899,34.4992682 C113.471413,39.1004327 115.25611,40.9145544 120.445327,43.3927364 C121.092762,43.7009153 121.421937,43.8580865 121.748865,44.0171312 C127.270146,46.7031365 129.841568,49.4754468 130.640117,55.5040205 C132.220928,67.4382155 131.240889,75.9333143 127.73247,85.5082692 C126.523514,88.8076727 126.18318,88.6617902 121.975819,98.177885 C121.468911,99.3243959 120.343683,104.829834 120.014384,107.373535 C119.86175,108.552567 119.753762,109.328126 119.406288,111.777327 C119.341789,112.231956 119.297151,112.547468 119.252632,112.863918 C118.168227,120.572102 118.184156,124.780599 118.775528,127.918131 C119.038355,129.312563 121.391291,133.747009 125.774854,141.062681 L137.291614,178.176726 C138.014047,163.003878 138.665091,153.445145 139.247517,149.477496 C139.697037,146.415242 140.31987,144.613322 141.155284,143.684642 C141.677634,143.103977 142.099103,142.937515 142.929048,142.803961 C145.171746,142.028581 148.004069,142.028581 151.689673,142.700775 L162.251058,142.700775 C160.061716,141.933575 158.53968,140.902389 157.689609,139.591757 Z M133.935209,20.7086621 C134.788388,27.0891263 135.466478,29.911295 137.805566,34.5252475 C139.807342,38.473837 140.658981,42.0875094 141.670996,49.4240966 C143.334074,61.4805617 144.176635,65.8360889 147.038462,74.0705517 C152.001034,88.3495787 153.419204,96.1419562 153.365838,105.390639 C153.358999,106.575803 153.342784,107.369529 153.284014,109.761113 C153.129805,116.036562 153.165811,119.561436 153.586077,124.827922 C153.653653,125.674735 153.950969,127.500157 154.488668,129.566697 C155.37298,132.965376 156.692648,136.216956 158.528591,139.047597 C159.638231,140.758431 162.263912,141.99683 166.422172,142.707929 L166.337891,143.700775 L151.601002,143.69285 C147.986251,143.041476 145.314851,143.041476 143.606758,143.670014 C143.457536,143.724924 143.327917,143.75264 143.087923,143.79126 C142.463507,143.89174 142.231702,143.983293 141.898737,144.353431 C141.226395,145.100833 140.660276,146.738672 140.236914,149.622733 C139.625675,153.786662 138.931327,164.278311 138.157178,181.070159 L138.025634,183.923447 L124.886155,141.52509 C120.432697,134.090433 118.087946,129.669085 117.792831,128.103353 C117.173161,124.815686 117.161169,120.552275 118.262383,112.724607 C118.306968,112.407691 118.351654,112.091844 118.416203,111.636862 C118.763046,109.192102 118.870753,108.418566 119.022659,107.24515 C119.364165,104.607158 120.502641,99.0369019 121.061224,97.7735141 C125.255108,88.2879002 125.595804,88.4329448 126.793517,85.1642218 C130.246873,75.7395451 131.208112,67.4074031 129.648776,55.6353342 C128.90154,49.994142 126.560075,47.4697542 121.311402,44.9163677 C120.988311,44.7591893 120.662997,44.6038617 120.014384,44.2951153 C114.52906,41.6755238 112.496455,39.6094056 112.234239,34.5510366 C111.966108,29.378538 112.910661,22.4820993 114.670694,16.5685379 C114.071498,17.0098468 113.419565,17.5383115 112.493836,18.3132585 C108.643993,21.5364427 106.532893,22.761416 102.520491,23.5004624 C102.709231,23.4656982 97.7062659,24.2996515 95.5497169,24.7132208 C91.7160318,25.4484205 88.1503201,26.2973626 84.7896474,27.336693 C74.6645632,30.468003 68.1650652,34.7863651 66.7691267,40.5422312 C66.5197992,41.5702821 66.378327,42.9494325 66.2236959,45.4077904 C66.2090725,45.6402766 66.1954669,45.8614508 66.1677987,46.3133143 C66.0029276,48.9980375 65.895198,50.1426884 65.6646905,51.0535752 C65.4872369,51.7548112 65.2513891,52.1844331 64.8128663,52.3233102 C64.2917487,52.4883444 63.8486157,52.1552755 63.397555,51.4687236 C62.0164869,49.366623 59.5024687,46.8191508 57.1623071,45.0420102 C56.1057092,44.2396198 55.2070665,43.6963842 54.6717401,43.5294462 C55.2760791,45.4117298 55.8742727,48.8680224 56.6564693,54.6259523 C56.8206685,55.8346609 57.507503,60.0716367 57.6040039,60.7865201 C58.3939785,66.6386902 59.8666385,69.3462964 62.269231,71.7088271 C62.4400584,71.8768061 62.4897773,71.7949831 62.7059326,71.9953741 C62.8309118,72.1112385 63.1173616,72.7800202 63.1309699,72.7925568 C65.2468766,74.7418268 66.1902465,76.1456173 66.8421929,79.0006938 C67.2808038,80.9215076 68.2916497,82.8727067 69.7437808,84.8627541 C70.2768928,85.5933482 70.8371533,86.2866901 71.4765256,87.0261792 C71.7128066,87.2994585 72.5597251,88.2536031 72.7041845,88.4266919 C73.1472779,88.957599 73.3948517,89.19987 73.820233,89.5552956 C74.9706358,90.5157681 75.911704,91.6406183 78.7202158,95.6763081 C78.7257949,95.6713731 80.4373188,98.9753418 80.753418,100.688965 C81.0695171,102.402588 86.4250712,118.89414 85.9984797,128.034054 C85.9777565,128.478057 85.921443,128.928687 85.830799,129.398916 C85.7165428,129.991635 85.5513117,130.603992 85.3152805,131.342679 C85.2235112,131.629882 85.125263,131.924097 84.9880473,132.32585 C84.7466119,133.030527 84.6945112,133.18339 84.6434451,133.334673 C83.7346282,136.027046 83.3319695,137.912853 83.3319695,140.32037 C83.3319695,149.673251 82.5955673,153.052791 80.4373188,156.663261 C80.3470353,156.814294 80.0189293,157.357566 80.0328583,157.334435 C79.8696722,157.605434 79.7455027,157.81487 79.6238475,158.025737 C79.3130382,158.564467 79.0499716,159.06099 78.7986968,159.594656 C77.4979871,162.357144 76.5444524,166.142905 75.8097214,172.322361 C75.3559692,176.138646 75.2248205,179.634492 75.1862976,185.995298 C75.1845823,186.278517 75.1832992,186.50521 75.1804793,187.015267 C75.1208887,197.793856 74.8130414,202.538964 73.3674221,208.30914 C73.0976626,209.385882 72.757964,210.579449 72.2805011,212.155778 C72.0647603,212.868039 71.1811696,215.730532 70.9676555,216.433208 C70.02225,219.544546 69.3846516,221.869565 68.886025,224.157077 C68.1232904,227.656218 67.793925,230.680838 67.9559178,233.356418 C68.7050932,245.730289 65.7466313,255.286019 60.5728787,259.049924 C58.5714634,260.505953 54.6538252,261.817462 52.3362321,261.873086 C50.904655,261.907446 50.01223,261.391342 50.429577,260.278901 C50.7470307,259.432727 52.0076544,258.288975 54.3030462,256.767564 L56.3237024,248.850997 C57.0081727,245.457157 57.2617257,242.500298 57.3967801,237.822491 C57.4080647,237.431633 57.4168342,237.104979 57.4347038,236.421265 C57.5655219,231.416014 57.6961834,229.124566 58.1347744,226.002108 C58.4678914,223.630551 58.9368768,221.773376 60.1313734,217.670849 C61.5200995,212.898208 62.0544135,210.624503 62.269231,207.976343 C61.228483,208.58398 60.5484334,209.218027 60.3083773,209.628986 C54.7553521,219.135388 52.4107177,223.744639 50.5488525,229.726332 C49.9292299,231.717019 49.4501248,235.110914 49.0272812,239.912998 C48.852439,241.898618 48.3167476,249.297372 48.1949596,250.472824 C48.0616634,251.759348 47.9728941,252.254142 47.7232403,252.48546 C47.4490073,252.739552 47.0819111,252.652702 46.8923488,252.391074 C46.6531767,251.749024 46.5829002,251.354179 46.5086053,250.798972 C46.3377467,249.522143 46.1599334,248.219428 45.9263885,246.527268 C44.5771328,236.751181 44.3417315,234.979708 43.8781462,230.770366 C42.9373437,222.227906 42.5937185,215.030334 42.9098168,207.794205 C42.9809126,206.166678 43.6158491,204.769231 45.5203802,201.415655 C46.783853,199.189707 47.3084383,198.156155 47.6751496,197.048121 C47.8124056,196.633396 48.0350287,196.190595 48.4290615,195.49844 C49.0711916,194.378713 49.2150864,194.109987 49.3259052,193.793175 C48.4384058,193.614137 47.2892234,194.457269 45.5126469,196.382456 C45.2998897,196.613011 45.1089151,196.823688 44.7569872,197.214588 C43.1535055,198.995635 42.4970091,199.663316 41.631248,200.281014 C39.3013633,201.943325 36.8954445,204.158614 34.3250879,206.911819 C33.2483355,208.065169 32.174204,209.27784 30.9890743,210.66472 C30.5383048,211.192226 30.0944846,211.717592 29.5320173,212.387854 C29.3677533,212.583598 29.1912847,212.794163 28.8648486,213.183723 C28.603345,213.495693 28.4186386,213.715635 28.2417118,213.925526 C25.8979155,216.70602 25.3151205,217.297644 24.6401612,217.060327 C23.7667354,216.753228 24.0938115,215.433607 25.6149469,211.306484 C26.8275443,208.016481 28.8539776,202.956139 32.5158506,194.038341 C32.8411897,193.246039 33.2678814,192.409374 33.8046,191.490063 C34.2759885,190.682651 34.7944438,189.870098 35.5353623,188.757938 C38.281703,184.635526 38.6698885,183.996929 39.0138267,182.713045 C39.1225471,182.307203 39.3910159,181.995504 40.2103585,181.175146 C40.6834778,180.701475 40.9029441,180.469896 41.0430022,180.280797 C40.0553562,180.13561 38.9563958,180.588179 37.7332112,181.627063 C35.8771418,183.203473 33.9382818,185.89761 31.4943213,190.022066 C30.7945638,191.202985 28.600908,195.038575 28.3266909,195.507399 C27.1944949,197.443094 26.4218189,198.627209 25.7646394,199.369497 C23.8490153,201.533203 22.515883,203.319823 20.734383,205.929499 C19.9376985,207.096543 19.7671153,207.338418 19.5359428,207.600523 C19.2966396,207.871846 19.1217781,208.003479 18.8336488,207.97682 C18.4031339,207.936988 18.2905145,207.640307 18.2809864,207.229336 C18.2741432,206.934169 20.9368738,192.719003 22.5529833,181.830274 L26.4714852,169.297179 C29.0022935,162.537568 31.6352318,157.363917 37.7636475,146.400319 C37.9926434,145.990667 37.9926434,145.990667 38.2215495,145.581107 C46.4400821,130.874661 49.8212725,123.560428 52.0276647,113.795529 C53.1539527,108.810881 53.5202793,103.917937 53.3474292,98.1012625 C53.2677606,95.4202901 53.1463237,93.5619554 52.7434521,88.2387465 C52.4001246,83.7023024 52.2470767,81.2833734 52.1557714,78.409936 C52.0353202,74.6192594 51.8311687,71.3102853 51.393074,65.3710861 C50.3849963,51.7046947 50.2320406,46.7993343 51.0190674,40.3636914 C54.052058,15.5624473 67.0460018,2.08898701 92.815947,1.33376728 C93.3410258,1.31837921 93.9679024,1.28827616 94.8655167,1.23733771 C95.2053802,1.2180509 96.9462928,1.11530566 97.4690644,1.08569285 C102.992148,0.772833505 107.072397,0.713835747 111.269038,1.0312693 C117.184994,1.47875166 122.020123,2.66746169 125.602863,4.81323151 C126.606968,5.41460828 129.907255,9.52598233 130.673336,11.3016503 C132.651549,13.7926877 133.30028,15.9603709 133.935209,20.7086621 Z M41.2759213,180.323971 C41.2803958,180.326868 41.2841695,180.328687 41.286977,180.329396 C41.2858876,180.329121 41.2847981,180.328847 41.2837084,180.328573 L41.2759213,180.323971 Z M72.6302508,109.248931 C71.7322113,97.5083031 69.1946171,86.556316 64.8719276,77.8081656 C71.5615759,109.337798 68.069996,145.764625 54.1707003,168.117541 C52.4058551,170.955774 50.4607721,172.754579 45.6989533,176.444853 C43.3531601,178.262776 42.3352771,179.087232 41.1519807,180.18154 L40.4730193,179.447366 C41.6848329,178.326686 42.7175261,177.490234 45.0863957,175.654427 C49.7539025,172.037242 51.6409953,170.292066 53.3214872,167.58949 C67.8370729,144.245454 70.5674677,104.846456 62.3629468,72.4371589 L63.1309699,72.4371589 C63.1684187,72.5850884 63.7263547,72.8540179 63.7633513,73.0022334 C63.9595311,73.7881687 64.1491649,74.577882 64.3322491,75.3710634 L64.6389925,75.2018783 C70.809321,86.3890791 73.8165757,101.631021 73.993927,117.664098 C75.1296869,130.040828 73.564798,142.758228 69.5403575,162.246349 C69.2746437,163.533052 69.0716445,164.506551 68.570202,166.903954 C64.2684326,187.470771 62.8314758,196.757382 62.8749966,208.483496 L61.8750034,208.487207 C61.8311361,196.667712 63.2753278,187.334344 67.5913835,166.699224 C68.0926484,164.30267 68.2955392,163.329691 68.5610215,162.044109 C69.9971891,155.08955 71.1182782,149.004667 71.9137915,143.494643 C68.3582363,164.143914 60.3566968,183.201869 48.6322791,193.585249 L47.9692834,192.836626 C64.2808627,178.390763 73.3025274,146.742599 72.9945783,117.725617 C72.7398947,114.957214 72.3486677,112.207367 71.8182767,109.402471 L72.6302508,109.248931 Z M140.341457,148.812364 L139.342136,148.775526 C139.522875,143.872557 138.840582,140.526138 136.708213,133.577981 C136.657065,133.411328 136.657065,133.411328 136.605918,133.24462 C134.630988,126.806237 133.943849,123.528346 134.011774,118.955465 C134.105565,112.641188 134.434449,107.596014 135.363288,96.2693743 C135.547858,94.0186521 135.628736,93.0244043 135.727708,91.7773462 C136.565701,81.2184613 136.877194,74.2998858 136.672084,67.2078138 C136.28946,53.9778317 134.451333,48.626124 129.282614,40.8749893 C129.226324,40.790581 129.226324,40.790581 129.170009,40.7061435 C124.137839,33.1607564 122.32508,28.1796183 121.785671,16.2961099 L122.784642,16.2507651 C123.315237,27.9400981 125.065429,32.7493106 130.001962,40.1512974 C130.058265,40.2357176 130.058265,40.2357176 130.114601,40.3201928 C135.383483,48.2215352 137.283378,53.7530818 137.671666,67.1789049 C137.878061,74.3154096 137.565198,81.2644222 136.724573,91.8564613 C136.625509,93.1046829 136.544584,94.0995094 136.359942,96.3511047 C135.432929,107.655487 135.105013,112.685816 135.011664,118.970317 C134.945712,123.410341 135.615738,126.606597 137.561952,132.951364 C137.613057,133.117933 137.613057,133.117933 137.664205,133.284589 C139.82741,140.33322 140.527456,143.766714 140.341457,148.812364 Z M156.058852,141.635442 L155.378648,142.368465 C148.246079,135.749848 144.126994,127.941949 142.156398,118.346801 C140.663281,111.076573 140.446262,105.014673 140.679995,90.897051 C140.771794,85.3523425 140.793309,82.8401105 140.746312,79.7326838 C140.659634,74.0014621 140.305268,69.1558024 139.563088,64.5790596 C138.25785,56.530148 136.313689,50.2901134 131.260461,36.39385 C128.725814,29.423629 127.636313,26.3152877 126.414234,22.3928704 L127.368969,22.0954109 C128.584861,25.9979719 129.67094,29.0965511 132.200253,36.0521045 C137.274944,50.0073902 139.231535,56.2873209 140.550193,64.4189873 C141.301083,69.0494406 141.658841,73.9414844 141.746198,79.7175616 C141.793407,82.8390293 141.771831,85.3583855 141.679858,90.9136048 C141.447363,104.956498 141.662729,110.972261 143.135953,118.145626 C145.066359,127.545083 149.086571,135.165563 156.058852,141.635442 Z M28.5900898,183.680519 L27.6032695,183.518699 C29.0437708,174.734155 32.9322623,168.862046 43.2619527,157.229865 C43.6314333,156.81385 43.821446,156.59989 44.0005306,156.39811 C53.5545343,145.633343 57.2720569,140.027329 58.6588259,132.088764 C60.9527606,118.957125 61.6658213,105.896779 60.6763597,93.3802235 C60.2821828,88.3939385 59.4433856,85.1781511 55.5005632,71.9953741 C54.0184968,67.0401038 52.805408,64.5530116 52.3158061,60.4671243 C50.2698242,43.3927364 51.4882701,36.5690371 58.1347744,28.3374023 C60.7214591,25.1338171 61.1194941,21.3629131 67.0148404,16.8769948 C69.9385259,14.6522886 71.2186739,13.6478357 72.74921,12.3318154 L73.4011807,13.0900596 C71.8504812,14.4234172 70.5599628,15.436007 67.6203904,17.6728021 C61.7892209,22.1098866 61.6440597,25.8611904 59.1250531,28.980957 C52.7205708,36.9128497 52.3903645,44.2951153 53.288498,60.2350241 C53.53369,64.5866458 54.9815528,66.7702403 56.4586294,71.7088271 C60.4282483,84.9811978 61.2709016,88.2117691 61.6732497,93.3014171 C62.6695454,105.904424 61.9519005,119.048736 59.6439085,132.260846 C58.2144207,140.443955 54.4232563,146.161021 44.7484461,157.061904 C44.5692423,157.263818 44.3791076,157.477915 44.0096819,157.893869 C33.8038741,169.386547 29.9894629,175.146785 28.5900898,183.680519 Z M64.5364425,51.1576377 L63.59637,51.4986123 C60.6129893,43.2733814 60.1642786,36.0966872 63.8296272,29.6413622 C68.1142361,22.0954109 85.9484506,13.0151707 87,12.3318154 C88.0515494,11.6484602 88.0723058,13.3718457 88.2172852,13.0900596 C88.3622645,12.8082734 69.5403575,23.5004624 64.7536243,30.0237618 C60.6699488,35.588943 61.6400038,43.1721074 64.5364425,51.1576377 Z" id="hair-outline" fill="#000000" fill-rule="nonzero" opacity="0.100000001"></path>
            </g>
        </g>
    </g>
</svg>