<?xml version="1.0" encoding="UTF-8"?>
<svg width="480px" height="300px" viewBox="0 0 480 300" version="1.1" xmlns="http://www.w3.org/2000/svg" xmlns:xlink="http://www.w3.org/1999/xlink">
    <!-- Generator: Sketch 51 (57462) - http://www.bohemiancoding.com/sketch -->
    <title>Avatars</title>
    <desc>Created with Sketch.</desc>
    <defs></defs>
    <g id="Avatars" stroke="none" stroke-width="1" fill="none" fill-rule="evenodd">
        <rect id="Frame" fill="#E6E6E6" x="0" y="0" width="480" height="300"></rect>
        <g id="Halfling" transform="translate(117.000000, 49.000000)">
            <g id="Male" transform="translate(19.000000, 0.000000)">
                <g id="body" transform="translate(0.000000, 6.000000)">
                    <path d="M0,245 C2.67570908,216.088393 4.65189994,197.806958 5.92857258,190.155694 C6.84465692,184.665482 5.32441005,176.760408 5.95285011,171.230382 C6.55236584,165.954878 5.38706935,144.537802 15.6781747,137.194298 C27.1556564,129.004222 57.3504511,125.723386 61.3774721,121.342158 C64.5550469,117.885091 65.7091764,112.28017 64.8398607,104.527397 C57.3723334,82.6835227 53.2034419,70.1486337 52.3331862,66.9227295 C49.6968658,57.1502943 48.4663325,23.7733041 56.3763011,16.3693708 C71.1028909,2.58490516 127.43574,-11.1057628 141.425341,13.9229461 C149.745444,28.8083924 147.533313,65.7564228 147.533313,82.5000427 C147.533313,95.3551488 141.675587,92.6800965 140.419318,98.6998344 C139.91796,101.102218 140.073478,105.37692 140.885872,111.523942 C150.108708,114.567387 200.093356,118.293157 207.229766,140.538984 C211.752339,154.63688 215.022513,187.651947 216.899107,199.806284 C217.948689,206.604229 218.98232,221.668801 220,245 L193.369542,245 L16.8000501,245 L0,245 Z" fill="{skin-color}"></path>
                    <polygon id="armpit-l" fill="#000000" opacity="0.5" points="34 246 42 204 42 246"></polygon>
                    <polygon id="armpit-r" fill="#000000" opacity="0.5" transform="translate(187.000000, 225.000000) scale(-1, 1) translate(-187.000000, -225.000000) " points="183 246 191 204 191 246"></polygon>
                    <path d="M44.6697602,214.375422 L45.3302398,213.624578 C47.0954396,215.177335 48.1126815,216.698976 49.5971809,219.598143 C49.704721,219.808443 49.704721,219.808443 49.811697,220.018113 C51.7300786,223.777339 52.8836164,225.360084 55.395107,226.978271 C71.0500733,237.064971 94.2318328,232.611151 109.66874,218.957414 L110.33126,219.706458 C94.5873285,233.631754 70.9296901,238.177002 54.8534836,227.818892 C52.1543203,226.079786 50.9136773,224.377525 48.9209744,220.47266 C48.8140303,220.263053 48.8140303,220.263053 48.7070827,220.053912 C47.2755301,217.258147 46.3171376,215.824537 44.6697602,214.375422 Z M180.33126,214.375422 C178.683883,215.824537 177.72549,217.258147 176.293937,220.053912 C176.18699,220.263053 176.18699,220.263053 176.080046,220.47266 C174.087343,224.377525 172.8467,226.079786 170.147536,227.818892 C154.07133,238.177002 130.413692,233.631754 114.66976,219.706458 L115.33228,218.957414 C130.769187,232.611151 153.950947,237.064971 169.605913,226.978271 C172.117404,225.360084 173.270942,223.777339 175.189323,220.018113 C175.296299,219.808443 175.296299,219.808443 175.403839,219.598143 C176.888339,216.698976 177.90558,215.177335 179.67078,213.624578 L180.33126,214.375422 Z" id="breast" fill="#000000" fill-rule="nonzero" opacity="0.3"></path>
                    <g id="nipples" opacity="0.700000048" transform="translate(68.000000, 211.000000)">
                        <g id="left" transform="translate(0.000000, 1.000000)">
                            <path d="M5.5,11 C2.46243388,11 0,8.53756612 0,5.5 C0,2.46243388 2.46243388,0 5.5,0 C8.53756612,0 11,2.46243388 11,5.5 C11,8.53756612 8.53756612,11 5.5,11 Z" id="la" fill="#000000" fill-rule="nonzero" opacity="0.3"></path>
                            <circle id="ln" fill="{skin-color}" opacity="0.400000006" cx="5.5" cy="5.5" r="1.5"></circle>
                            <path d="M5.5,8 C4.11928813,8 3,6.88071187 3,5.5 C3,4.11928813 4.11928813,3 5.5,3 C6.88071187,3 8,4.11928813 8,5.5 C8,6.88071187 6.88071187,8 5.5,8 Z M5.5,7 C6.32842712,7 7,6.32842712 7,5.5 C7,4.67157288 6.32842712,4 5.5,4 C4.67157288,4 4,4.67157288 4,5.5 C4,6.32842712 4.67157288,7 5.5,7 Z" id="lno" fill="#000000" fill-rule="nonzero" opacity="0.3"></path>
                        </g>
                        <g id="right" transform="translate(82.000000, 0.000000)">
                            <path d="M5.5,11 C2.46243388,11 0,8.53756612 0,5.5 C0,2.46243388 2.46243388,0 5.5,0 C8.53756612,0 11,2.46243388 11,5.5 C11,8.53756612 8.53756612,11 5.5,11 Z" id="ra" fill="#000000" fill-rule="nonzero" opacity="0.3"></path>
                            <circle id="rn" fill="{skin-color}" opacity="0.400000006" cx="5.5" cy="5.5" r="1.5"></circle>
                            <path d="M5.5,8 C4.11928813,8 3,6.88071187 3,5.5 C3,4.11928813 4.11928813,3 5.5,3 C6.88071187,3 8,4.11928813 8,5.5 C8,6.88071187 6.88071187,8 5.5,8 Z M5.5,7 C6.32842712,7 7,6.32842712 7,5.5 C7,4.67157288 6.32842712,4 5.5,4 C4.67157288,4 4,4.67157288 4,5.5 C4,6.32842712 4.67157288,7 5.5,7 Z" id="rno" fill="#000000" fill-rule="nonzero" opacity="0.3"></path>
                        </g>
                    </g>
                </g>
                <g id="face" transform="translate(55.000000, 30.000000)">
                    <path d="M8.5,55 L9.5,55 C9.5,55.1589978 9.51893763,55.474698 9.57676043,55.9245349 C9.67443154,56.6843748 9.8507885,57.5336973 10.1256477,58.4501065 C10.913604,61.0772352 12.3334273,63.7071458 14.5454888,66.1655604 C20.9091039,73.2378793 32.4141687,77.5 50.3904262,77.5 C66.9706859,77.5 78.4450273,75.9394995 84.7804938,72.8438874 L85.2195062,73.7423684 C78.7108869,76.9225858 67.1121792,78.5 50.3904262,78.5 C32.1500608,78.5 20.3730109,74.1371207 13.8021177,66.8344396 C11.4871013,64.2616042 9.99666031,61.5008898 9.16780312,58.7373935 C8.87677758,57.7670839 8.68935151,56.8644534 8.58492092,56.0520276 C8.52148271,55.5585052 8.5,55.2003772 8.5,55 Z" id="jaw" fill="#000000" fill-rule="nonzero" opacity="0.3"></path>
                    <path d="M51.5392249,64.2118823 L51.2185876,63.2646802 C52.2675137,62.9096083 53.3349349,62.8345116 55.2856448,62.8630908 C55.7138069,62.8693636 56.1470908,62.89699 56.6040536,62.945222 C57.3281133,63.0216458 57.8519513,63.1066938 59.2660307,63.3603971 L59.089438,64.3446811 C57.7002768,64.0954485 57.1903656,64.0126616 56.4990876,63.9396978 C56.070996,63.8945132 55.6676315,63.8687944 55.2709958,63.8629835 C53.4339656,63.8360698 52.4435886,63.9057461 51.5392249,64.2118823 Z" id="jaw-line" fill="#000000" fill-rule="nonzero" opacity="0.3" transform="translate(55.242309, 63.601129) rotate(-4.000000) translate(-55.242309, -63.601129) "></path>
                    <path d="M53.4828552,55.1311035 C60.117061,55.1311035 67.7090201,51.5267426 67.7090201,50.6895035 C67.7090201,49.584934 61.8083391,48.8802994 53.4828552,48.8802994 C45.1573714,48.8802994 38,50.0806615 38,51.185231 C38,52.1411157 47.6248735,55.1311035 53.4828552,55.1311035 Z" id="lips" fill="#3E3E3E" opacity="0.100000001"></path>
                    <path d="M39.7711304,50.6349579 C45.8211949,51.0741937 50.3978192,51.293728 53.4976354,51.293728 C56.6040357,51.293728 60.8881105,51.0732204 66.3472018,50.6319897 C66.1444154,50.5868212 65.9299645,50.5387366 65.698897,50.486673 C60.305832,49.2715193 61.0356279,49.2692712 58.5998062,49.1555732 C58.1674391,49.1353915 55.7308684,48.9565198 55.2143431,49.2680125 C55.1898512,49.2827909 55.1898512,49.2827909 55.1650378,49.297771 C54.536491,49.6771071 54.1670041,49.8251117 53.5699818,49.8394277 C53.1030149,49.8506251 52.6777419,49.7448749 51.548316,49.3958901 C51.5133184,49.3850773 51.5133184,49.3850773 51.4783773,49.3742926 C50.5048082,49.0739119 47.9027308,49.1264584 47.5610792,49.1537954 C44.4155295,49.4054835 42.9499519,49.8092212 39.7711304,50.6349579 Z M65.8899106,51.6713193 C60.6595287,52.0861933 56.5295736,52.293728 53.4976354,52.293728 C50.3701957,52.293728 45.7689528,52.0728743 39.6905271,51.6313346 C41.9048179,53.0269174 45.2229338,54.1575359 49.8111572,54.5246582 C50.1528088,54.5519951 56.1021371,54.6550414 56.5345041,54.6348596 C59.4161315,54.5003526 63.292652,53.0367169 65.8899106,51.6713193 Z M39.2068136,49.753322 C42.6831484,48.8534963 44.1837149,48.4213259 47.4935303,48.1564941 C47.9884873,48.1168906 50.6350153,48.0745751 51.7296252,48.4123012 C51.7648029,48.4231589 51.7648029,48.4231589 51.7999087,48.4340052 C52.8164559,48.7481112 53.2167664,48.8476542 53.5496885,48.839671 C53.9618795,48.8297871 54.2096712,48.7305296 54.7183994,48.4235056 C54.7430369,48.4086317 54.7430369,48.4086317 54.7679644,48.3935905 C55.4197162,48.0005489 57.9997733,48.1266435 58.6392822,48.1564941 C61.1451807,48.2734631 60.4366431,48.2797318 65.8856573,49.5074919 C66.1270124,49.5618735 66.3500976,49.6118815 66.5605945,49.6587357 L66.3997066,49.4559202 L67.0965183,48.8029226 L68.7479424,50.8847097 L68.1658033,51.430245 L68.1768706,51.4490228 C68.1388495,51.4754953 68.1000293,51.5021562 68.0604296,51.5289931 L68.0511307,51.5377073 L68.0498819,51.536133 C65.6291936,53.1728441 60.3225216,55.4589664 56.5739801,55.6339387 C55.9344712,55.6637894 50.2385653,55.5615629 49.7436083,55.5219594 C44.0839092,55.069104 40.3202144,53.5274307 37.9857407,51.6034147 L37.6968117,51.9676389 L37,51.3146413 L38.6514241,49.2328542 L39.2068136,49.753322 Z" id="mouth-outline" fill="#000000" fill-rule="nonzero" opacity="0.3"></path>
                    <path d="M59.0864372,41.8328735 C58.6740563,42.590374 57.5235538,42.9477487 55.4157179,43.1578709 C51.2301453,43.5751149 49.2827619,43.2041041 48.2174159,41.8777907 C48.0641469,41.8864979 47.8398934,41.9035471 47.3757162,41.9397577 C46.8946439,41.9757467 46.5191924,41.9977594 46.145589,42.0082641 C45.4203648,42.0286556 44.820732,41.9998831 44.3272315,41.9009165 C42.8630799,41.6072958 42.1983727,40.4424457 42.4966698,39.8001358 C42.7357372,39.2853627 42.8766224,39.01887 43.035261,38.8063393 C43.5028501,38.1799027 43.8541473,38.1237015 45.2891961,38.1916207 C46.1486696,38.2322986 46.8489827,38.2305834 47.8272253,38.1566405 L47.9459792,38.9941662 L48.3048213,38.8966558 C48.4339498,39.1499784 48.5345348,39.4075848 48.6511296,39.7601932 C48.6755914,39.8341712 48.6961515,39.8978223 48.7393537,40.0324712 C48.8764036,40.4590628 49.0248055,40.8199955 49.2139396,41.1204836 C49.2430858,41.1522434 49.2665895,41.1871158 49.2831983,41.2251384 C50.0504607,42.3272296 51.473603,42.5421219 55.2305411,42.1676068 C57.7510375,41.916348 58.1008151,41.6854457 57.8161591,40.474846 C57.5902236,39.5139758 54.2198056,32.2712367 53.5998247,30.8238556 C52.8757292,29.1334128 52.4974748,27.4254308 52.0337739,24.2301008 C52.0749132,24.5135886 51.6801808,21.7418152 51.5568564,20.9309768 C51.3510551,19.577866 51.1437914,18.3704046 50.8998153,17.143618 L52.2544775,17 C52.5008598,18.2388855 52.7099789,19.4571566 52.9173619,20.8206668 C53.0413092,21.6356005 53.436627,24.4114842 53.3950229,24.1247932 C53.8496449,27.2575609 54.2170059,28.9163548 54.90629,30.5255283 C55.3143541,31.4781775 57.13612,35.4154193 58.2651443,38.0298004 C58.9249359,38.0607794 59.4854308,38.0543208 60.137554,38.0234566 C61.5726028,37.9555373 61.9239,38.0117385 62.3914892,38.6381751 C62.5501278,38.8507059 62.691013,39.1171985 62.9300804,39.6319716 C63.2283775,40.2742815 62.5636703,41.4391316 61.0995187,41.7327524 C60.6060181,41.8317189 60.0063854,41.8604914 59.2811611,41.8401 C59.2245649,41.8385086 59.1596569,41.8360998 59.0864372,41.8328735 Z M59.2552721,40.8500095 C59.2837197,40.8435897 59.3099081,40.8407162 59.3338375,40.841389 C59.9311204,40.8581831 60.4057947,40.8354065 60.7369673,40.7689932 C61.3800555,40.6400284 61.6958247,40.0866663 61.6337104,39.9529184 C61.4203317,39.4934596 61.2974678,39.2610553 61.1895299,39.1164491 C61.0762788,38.9647247 61.1527434,38.9769577 60.2261018,39.0208146 C59.6925726,39.0460659 59.210381,39.0562135 58.6956722,39.0451269 C58.9447908,39.6473286 59.1166424,40.0988432 59.16529,40.3057344 C59.2109428,40.499889 59.2412188,40.6809887 59.2552721,40.8500095 Z M48.1492607,41.790052 C48.0628671,41.6750602 47.9824988,41.5532915 47.9073503,41.4246466 C47.8913749,41.5958979 48.0014571,41.7169184 48.1492607,41.790052 Z M47.650016,40.9134379 C47.561392,40.7096181 47.4810052,40.4921337 47.4066576,40.2607141 C47.3636172,40.1265798 47.3439553,40.0657094 47.3204912,39.9947489 C47.2155955,39.677521 47.1283106,39.4539772 47.0219223,39.2452661 L47.1965696,39.1978081 C46.4960104,39.2290457 45.8913493,39.2216688 45.2006484,39.1889788 C44.2740068,39.1451219 44.3504714,39.1328889 44.2372203,39.2846132 C44.1292823,39.4292194 44.0064184,39.6616238 43.7930397,40.1210826 C43.7309255,40.2548305 44.0466947,40.8081926 44.6897828,40.9371574 C45.0209554,41.0035707 45.4956297,41.0263472 46.0929126,41.0095532 C46.4319654,41.0000199 46.7815276,40.9795251 47.2361909,40.9455118 C47.3985798,40.9327896 47.5343516,40.9222254 47.650016,40.9134379 Z" id="nose" fill="#000000" fill-rule="nonzero" opacity="0.3"></path>
                    <g id="eye-l" transform="translate(29.741880, 12.224317) rotate(-5.000000) translate(-29.741880, -12.224317) translate(12.741880, 2.224317)">
                        <path d="M20.12001,17.0993705 C23.2659011,17.0993705 26.1678039,16.7364235 28.8257182,16.0105294 C28.6740334,14.1314754 27.7189488,12.8746534 25.9604643,12.2400634 C23.2964714,11.2786995 19.9432497,10.1396323 17.9632471,10.1396323 C16.3036621,10.1396323 14.9035568,10.6000577 13.4680345,10.9836453 C12.6109424,11.2126698 11.4909497,11.8544055 10.1080564,12.9088523 C13.636801,15.7025311 16.9741188,17.0993705 20.12001,17.0993705 Z" id="eye-white" fill="#FFFFFF" opacity="0.800000012"></path>
                        <path d="M19.9424768,15.4702226 C22.1976978,15.4702226 24.0259156,13.6068026 24.0259156,11.3081576 C24.0259156,10.994585 22.3503038,10.4900948 18.99908,9.79468699 C16.9057187,9.27123734 15.8590381,9.77572753 15.8590381,11.3081576 C15.8590381,13.6068026 17.6872559,15.4702226 19.9424768,15.4702226 Z" id="iris" fill="{eye-color}" opacity="0.700000048"></path>
                        <path d="M15.9045066,10.3676306 C14.8456376,10.632247 13.7198182,10.9396923 12.4530922,11.5021721 C11.7608836,11.8095419 11.0702858,12.4243965 10.2675895,12.8431639 C14.7841719,16.9901749 21.1605419,18.14179 28.9515716,15.6083901 L29.15491,16.2162009 C21.1061038,18.8334216 14.454887,17.6114746 9.75446957,13.2462484 L10.0274779,12.9605134 C9.98120574,12.9815441 9.93454659,13.0018037 9.88748042,13.0212038 L9.63707364,12.4307164 C10.6073734,12.0307723 11.201912,11.1695061 12.0085071,10.8149703 C17.4207713,8.43602941 19.5434412,8.31492745 27.5075296,11.5637049 L27.2593298,12.1550971 C24.5488568,11.0494184 22.6598438,10.3135653 21.0745475,9.97643599 C24.0423691,10.914332 27.0550766,12.1063955 27.6910533,12.4487498 C28.2153226,12.7309707 28.4094756,12.8621883 28.758396,13.6474444 C28.9134929,13.9964945 28.7099909,14.6607147 29.2456878,15.2066496 L28.7791092,15.6516506 C28.2080273,15.0696544 28.3069551,14.3907318 28.1537816,14.0429186 C27.8514929,13.3565072 27.6756075,13.2693997 27.1897468,12.9289379 C26.8305175,12.6772117 25.7150037,12.2157304 24.2743826,11.6997596 C24.3832683,12.2946139 24.3155271,12.9078256 24.0677709,13.393124 C23.3210148,14.8558499 21.9794581,15.822586 20.5238766,15.8618595 C17.4124827,15.9458088 14.8349317,13.2543766 15.9045066,10.3676306 Z M16.4730068,10.2269749 L16.6344652,10.3004087 C15.4524538,12.826473 17.7100648,15.2975229 20.506117,15.2220819 C21.7049774,15.1897351 22.8421375,14.3702888 23.4879022,13.1053819 C23.7193665,12.6519959 23.7378258,12.010959 23.5363959,11.4405105 C23.0480298,11.2721067 22.5339998,11.100786 22.0081588,10.931537 C21.8979169,10.9932253 21.816689,11.0257577 21.6902864,11.055559 L21.6080659,10.8137871 L21.6213042,10.8080794 C20.8732048,10.5713777 20.1083584,10.3412095 19.3655521,10.1315419 C19.3819742,10.2027163 19.4026448,10.2914544 19.4136612,10.3352213 L19.1616346,10.39688 C19.1409321,10.3146306 19.0892543,10.0876363 19.088686,10.085263 C19.0516044,9.93040344 19.0200711,9.84885224 18.9613424,9.76915592 C18.397213,9.78871429 17.8422061,9.87397622 17.2634067,10.0267789 C17.0026426,10.0956205 16.7395947,10.1611509 16.4730068,10.2269749 Z M19.2905316,9.84723617 L19.3140692,9.76544897 C19.2952792,9.76520039 19.2765076,9.76501953 19.2577522,9.76490989 C19.2695283,9.7907934 19.2803306,9.81800507 19.2905319,9.84723483 Z M22.3219658,12.2631031 L22.8429008,12.3804617 L22.8055292,12.6329808 C22.6255517,12.62141 22.5029236,12.5911636 22.2523463,12.5100245 L21.7314113,12.3926659 L21.7687829,12.1401469 C21.9487604,12.1517176 22.0713885,12.1819641 22.3219658,12.2631031 Z M21.2753149,14.220434 L21.0346463,14.316564 L20.5878621,13.2293474 L20.8285308,13.1332174 L21.2753149,14.220434 Z M21.8317648,11.6542045 L21.848662,11.3987403 L23.0529506,11.4761642 L23.0360533,11.7316285 L21.8317648,11.6542045 Z M16.9172183,11.6328758 L16.9341156,11.3774116 C17.0957376,11.3878023 17.2247776,11.3867506 17.5160112,11.3772109 C17.8156888,11.3673946 17.9505242,11.3662956 18.1234268,11.3774116 L18.1065295,11.6328758 C17.9449075,11.6224851 17.8158675,11.6235368 17.5246339,11.6330765 C17.2249563,11.6428928 17.0901209,11.6439918 16.9172183,11.6328758 Z M17.4287549,12.9402173 L17.3443586,12.6981092 C17.3705998,12.6891636 17.3705998,12.6891636 17.3961335,12.6802419 C17.5337485,12.6318596 17.6541554,12.5822637 17.7811015,12.5224055 C17.9122659,12.4605584 17.9075404,12.4630298 18.3322527,12.2374031 L18.455431,12.4627733 C18.0247779,12.6915561 18.0300127,12.6888183 17.8931399,12.7533571 C17.7582131,12.8169783 17.6295337,12.8699817 17.4833542,12.9213751 C17.4563873,12.9307975 17.4563873,12.9307975 17.4287549,12.9402173 Z M19.9565138,14.415917 L19.7076103,14.342962 C19.7721868,14.128817 19.8029361,13.9952701 19.8181063,13.8639782 C19.8312509,13.7502171 19.8334265,13.6634038 19.8333207,13.3816636 C19.8333121,13.3585614 19.8333121,13.3585614 19.8333092,13.3346459 L20.0929797,13.3346459 C20.0929826,13.3584847 20.0929826,13.3584847 20.0929912,13.3815688 C20.0931009,13.673748 20.0907923,13.7658691 20.0761082,13.892954 C20.0589571,14.0413893 20.0250599,14.188608 19.9565138,14.415917 Z M22.334034,13.3731204 L22.1640443,13.5666473 L21.3190532,12.8452217 L21.489043,12.6516949 L22.334034,13.3731204 Z M18.4540494,13.8717903 L18.2513778,13.7117447 L18.8471428,12.9784438 L19.0498145,13.1384894 L18.4540494,13.8717903 Z M17.5787877,10.3163027 L17.705457,10.0928213 L18.6407083,10.6080694 L18.5140389,10.8315509 L17.5787877,10.3163027 Z M19.9204204,12.7597086 C19.024095,12.7597086 18.4768115,12.3757634 18.4768115,11.66882 C18.4768115,10.9618765 19.2939248,10.5524619 20.1902501,10.5524619 C21.0865755,10.5524619 21.3640293,10.9618765 21.3640293,11.66882 C21.3640293,12.3757634 20.8167458,12.7597086 19.9204204,12.7597086 Z" id="eye" fill="#000000" fill-rule="nonzero" opacity="0.5"></path>
                        <path d="M29.4371892,17.1109718 L29.7307877,17.5156938 C24.835763,21.0667042 16.0086799,20.2621194 8.75982004,16.7569072 L8.97748474,16.3067716 C16.0782015,19.7403486 24.726037,20.5285951 29.4371892,17.1109718 Z" id="eye-line" fill="#000000" fill-rule="nonzero" opacity="0.3"></path>
                        <path d="M0.904202368,4.29614848 L1.7077952,1.37815459 C3.33171009,-0.08898098 5.19557094,-0.0260829952 11.9180563,0.869020253 C12.256713,0.91408134 12.3978362,0.932792026 12.5945472,0.958646972 C15.5987802,1.35351204 17.3036879,1.49633999 18.7082748,1.41056572 C19.2200991,1.37931002 19.7412915,1.3451951 20.3656096,1.30256835 C26.2119114,0.903398666 24.3709091,0.600146091 26.4819045,0.868815128 C29.411126,1.24162083 31.6115866,2.36686547 33.3726407,4.55255402 L30.7502324,6.5528133 C28.6010926,3.88546194 29.7455572,3.91222575 20.5988681,4.53673697 C19.9670174,4.57987802 19.4380548,4.61450154 18.9170036,4.6463207 C17.2192818,4.74999591 15.3712754,4.59517992 12.1484638,4.17158571 C11.949444,4.1454273 11.8064821,4.12647284 11.4662607,4.0812033 C6.52312227,3.42302124 1.34908634,3.89421541 0.904202368,4.29614848 Z" id="eye-brow" fill="{hair-color}" fill-rule="nonzero"></path>
                        <path d="M11.5415091,3.54583269 C11.9529501,3.60054467 12.0295748,3.61069768 12.2228111,3.63609592 C15.5814969,4.07754894 17.3040392,4.2034031 18.8822155,4.1070282 C19.3873052,4.07618376 19.9096637,4.0421115 20.5599917,3.99770886 C29.5507653,3.38384314 28.7026852,3.37119729 30.8360205,5.8007738 L32.5820343,4.46899018 C31.0013153,2.69940648 29.0467375,1.74020153 26.4098729,1.40460446 C24.4085167,1.14988934 26.4013279,1.4321483 20.404486,1.84159645 C19.7598604,1.88560975 19.2424642,1.91936116 18.7430629,1.94985822 C17.3397722,2.03555333 15.6772739,1.90909068 12.5201999,1.49413676 C12.3283932,1.46892641 12.2522866,1.45884195 11.842757,1.40438409 C5.11198053,0.508176875 3.54244775,0.533959775 2.20171252,1.67241586 L1.69490993,3.51270959 C3.78296214,3.13933994 8.08714941,3.08588248 11.5415091,3.54583269 Z M0.904202368,4.29614848 L1.7077952,1.37815459 C3.33171009,-0.08898098 5.19557094,-0.0260829952 11.9180563,0.869020253 C12.256713,0.91408134 12.3978362,0.932792026 12.5945472,0.958646972 C15.5987802,1.35351204 17.3036879,1.49633999 18.7082748,1.41056572 C19.2200991,1.37931002 19.7412915,1.3451951 20.3656096,1.30256835 C26.2119114,0.903398666 24.3709091,0.600146091 26.4819045,0.868815128 C29.411126,1.24162083 31.6115866,2.36686547 33.3726407,4.55255402 L30.7502324,6.5528133 C28.6010926,3.88546194 29.7455572,3.91222575 20.5988681,4.53673697 C19.9670174,4.57987802 19.4380548,4.61450154 18.9170036,4.6463207 C17.2192818,4.74999591 15.3712754,4.59517992 12.1484638,4.17158571 C11.949444,4.1454273 11.8064821,4.12647284 11.4662607,4.0812033 C6.52312227,3.42302124 1.34908634,3.89421541 0.904202368,4.29614848 Z" id="eye-brow" fill="#000000" fill-rule="nonzero" opacity="0.05"></path>
                        <path d="M13.5109486,10.4608525 L13.4786559,10.5070639 C12.7634546,10.289894 12.2749282,10.0802836 12.0130765,9.87823252 C11.7512249,9.67618147 11.6576068,9.61477887 11.7322223,9.69402471 C11.9757025,9.62740586 12.2347751,9.70006547 12.50944,9.91200355 C12.7118313,10.0681735 12.9729507,10.1705388 13.2927984,10.2190993 L12.4119412,9.24293643 C12.5524631,9.12820882 12.7279669,9.2014243 12.9384528,9.46258286 C13.1489387,9.72374142 13.4416206,10.0154312 13.8164986,10.3376522 L13.5853803,10.5433375 L13.5109486,10.4608525 Z M12.0524956,11.0335486 L11.9140102,11.3165886 C11.1913814,11.0972232 10.6680264,10.8999957 10.3439454,10.7249063 C10.0198644,10.5498168 9.86724153,10.4758437 9.88607689,10.5029869 C10.2125165,10.4399132 10.5334926,10.4936064 10.8490051,10.6640665 C11.1645175,10.8345267 11.5656811,10.9576874 12.0524956,11.0335486 Z M14.4373244,10.1550166 L14.1988043,10.3511493 L13.0819545,9.09294486 C13.2074558,8.9877538 13.3668403,9.06492237 13.560108,9.32445056 C13.7533758,9.58397876 14.0457812,9.86083412 14.4373244,10.1550166 Z M16.3892416,9.97814947 L16.07641,10.0331984 C15.5990773,9.69194976 15.2682632,9.40405646 15.0839676,9.16951846 C14.899672,8.93498046 14.8026457,8.83984839 14.7928887,8.88412227 C14.9031543,8.73261873 15.0137761,8.74197576 15.124754,8.91219338 C15.2681986,9.1322083 15.2355304,8.82053422 15.3434235,8.95784103 C15.5765262,9.25449186 15.9251322,9.59459467 16.3892416,9.97814947 Z M17.6372098,9.7286794 L17.4067841,9.93522097 C17.0900017,9.73382019 16.8334662,9.51221637 16.6371776,9.27040953 C16.4408891,9.02860269 16.3304992,8.89185245 16.3060081,8.8601588 C16.4798333,8.81320087 16.6695972,8.9164238 16.8752997,9.1698276 C17.0810022,9.4232314 17.3349722,9.60951534 17.6372098,9.7286794 Z M18.9896093,9.70991814 L18.7648244,9.92321312 C18.3053187,9.60906007 17.9867391,9.34861692 17.8090856,9.14188366 C17.6314321,8.9351504 17.5902569,8.8501482 17.6855601,8.88687705 C17.8358634,8.81050301 17.9504856,8.84068228 18.0294266,8.97741485 C18.1308234,9.15304263 17.9865577,8.94894141 18.0789632,9.0564726 C18.2792803,9.28957916 18.5828289,9.50739434 18.9896093,9.70991814 Z M20.1879564,9.85759262 L19.9385558,10.0381639 C19.3580683,9.66988251 18.985514,9.36020986 18.820893,9.10914592 C18.656272,8.85808198 18.5424734,8.72957885 18.4794973,8.72363653 C18.6723497,8.5818615 18.7955676,8.59060936 18.8491509,8.7498801 C18.9255976,8.97710952 19.0635051,8.84108312 19.1516861,8.97556817 C19.3325794,9.25144909 19.6780029,9.54545724 20.1879564,9.85759262 Z M20.8488355,10.0241807 L20.5530385,10.092554 C20.2921013,9.63657216 20.1382743,9.29699759 20.0915574,9.0738303 C20.0448406,8.850663 20.0250047,8.73430137 20.0320498,8.7247454 C20.194021,8.68778955 20.2702521,8.72781673 20.260743,8.84482697 C20.244195,9.04845368 20.347018,9.09698529 20.3726252,9.21931119 C20.4203044,9.44707547 20.5790411,9.71536529 20.8488355,10.0241807 Z M21.4468697,10.1852435 L21.1440012,10.1857248 C20.9725458,9.87791421 20.8867,9.64195581 20.8864638,9.47784961 C20.8862277,9.31374342 20.9524571,9.18643682 21.085152,9.09592982 L21.4449472,8.84927356 C21.275633,9.1486243 21.1910725,9.36536278 21.1912655,9.49948901 C21.1914585,9.63361525 21.2766599,9.86220009 21.4468697,10.1852435 Z M22.1749087,10.1797138 L21.8720398,10.1797549 C21.7199691,9.88912769 21.6439251,9.67308417 21.6439077,9.53162436 C21.6438903,9.39016456 21.7408656,9.282555 21.9348336,9.2087957 L22.1747608,8.97614428 C22.0793132,9.23335223 22.0315975,9.42768732 22.0316136,9.55914955 C22.0316298,9.69061179 22.0793948,9.89746655 22.1749087,10.1797138 Z M10.9395342,13.4522092 L11.143629,13.7797833 C10.9515097,13.8140517 10.8365252,13.840477 10.7986755,13.859059 C10.5259089,13.9929716 10.3173439,14.0694715 10.1729804,14.0885585 C9.99856855,14.1116184 9.85029357,14.0633903 9.72815546,13.9438743 C9.84662886,13.8543715 10.0021849,13.7968852 10.1948235,13.7714155 C10.3874621,13.7459458 10.6356991,13.6395437 10.9395342,13.4522092 Z M11.2872424,13.7899791 L11.4390983,14.0653427 C11.2404569,14.2758576 11.0694559,14.4247642 10.9260951,14.5120625 C10.7827343,14.5993608 10.6440833,14.6628709 10.5101422,14.7025929 C10.5599375,14.5542746 10.6627821,14.4326503 10.818676,14.33772 C10.9745699,14.2427898 11.1307587,14.0602095 11.2872424,13.7899791 Z M11.8913649,13.9653369 L12.0689298,14.2231615 C11.8818744,14.4893481 11.7198341,14.6745432 11.5828091,14.7787469 C11.445784,14.8829506 11.3217249,14.9241349 11.2106317,14.9022997 L10.7063609,14.866499 C11.0612069,14.7584202 11.3068346,14.652513 11.4432441,14.5487775 C11.5796536,14.4450419 11.7290272,14.2505618 11.8913649,13.9653369 Z M12.2063041,14.5923874 L12.457314,14.7704795 C12.3060369,15.1678836 12.1879975,15.4325746 12.1031957,15.5645526 C11.975993,15.7625196 11.7742116,15.6820102 11.9665544,15.3826648 C12.0947829,15.1831012 12.1746995,14.9196754 12.2063041,14.5923874 Z M12.7294617,14.7357116 L12.9873947,14.9025233 C12.8356338,15.4011173 12.7108557,15.7339012 12.6130606,15.9008749 C12.4663679,16.1513355 12.223235,15.982206 12.3939296,15.690765 C12.5077261,15.496471 12.6195701,15.1781199 12.7294617,14.7357116 Z M13.8692971,15.1353058 L14.0860359,15.2554182 C13.9827065,15.6510975 13.889245,15.9190873 13.8056512,16.0593875 C13.7220575,16.1996877 13.6527653,16.2877949 13.5977746,16.323709 C13.4851929,16.2367449 13.473579,16.118279 13.562933,15.9683111 C13.6522869,15.8183432 13.7544082,15.5406748 13.8692971,15.1353058 Z M14.2120716,15.4150302 L14.5044429,15.4357871 C14.512552,15.8336117 14.4945578,16.0919931 14.4504602,16.2109312 C14.4063626,16.3298693 14.3693284,16.3850115 14.3393575,16.3763577 L13.8462894,16.5129292 C14.025935,16.3282784 14.1343682,16.1857578 14.1715891,16.0853673 C14.20881,15.9849768 14.2223041,15.7615311 14.2120716,15.4150302 Z M15.1762171,15.7060343 L15.3886272,15.7355809 C15.3699722,16.142898 15.35188,16.4140748 15.3343507,16.5491113 C15.3168213,16.6841478 15.3093003,16.7848525 15.3117875,16.8512253 C15.1643744,16.7861769 15.1001794,16.6803807 15.1192025,16.5338368 C15.1382256,16.3872929 15.1572305,16.1113588 15.1762171,15.7060343 Z M16.424179,16.0083651 L16.6905047,16.1599159 C16.6845582,16.4150925 16.6531578,16.5978427 16.5963034,16.7081665 C16.5110218,16.8736522 16.2841778,16.8129342 16.3818134,16.6234759 C16.4469039,16.4971704 16.4610257,16.2921335 16.424179,16.0083651 Z M17.4940301,16.4270095 L17.7966364,16.4402588 C17.8001214,16.7074141 17.799514,16.9002559 17.7948141,17.0187842 C17.7877643,17.1965766 17.5256113,17.1994611 17.5357795,16.9430257 C17.5425582,16.7720687 17.5286418,16.6000633 17.4940301,16.4270095 Z M12.9423263,10.8064896 L12.7914076,11.0824216 C12.1247932,10.8493415 11.6513174,10.6481485 11.3709802,10.4788426 C11.090643,10.3095368 10.9607449,10.2196551 10.9812858,10.2091975 C11.1483124,10.1669381 11.3580069,10.2220139 11.6103695,10.3744248 C11.8627321,10.5268358 12.3067177,10.6708574 12.9423263,10.8064896 Z M11.8061486,11.5360522 L11.7193636,11.8409651 C10.9230637,11.8614742 10.366577,11.8219664 10.0499035,11.7224418 C9.73323003,11.6229171 9.5737998,11.4617356 9.57161285,11.2388972 C9.9589288,11.3243684 10.3013038,11.4138431 10.5987378,11.5073211 C10.8961718,11.6007991 11.2986421,11.6103762 11.8061486,11.5360522 Z M15.2495933,10.1080091 L15.0032162,10.2931068 C14.5055908,9.90270712 14.1772808,9.59066451 14.0182863,9.35697894 C13.8592918,9.12329337 13.7898342,9.00422392 13.8099136,8.99977058 C14.0658863,9.02960119 14.2902431,9.186159 14.482984,9.469444 C14.6757249,9.752729 14.9312613,9.96558404 15.2495933,10.1080091 Z" id="eye-lashes" fill="#000000" fill-rule="nonzero" opacity="0.300000012" transform="translate(15.873261, 12.884189) rotate(-1.000000) translate(-15.873261, -12.884189) "></path>
                    </g>
                    <g id="eye-r" transform="translate(72.110119, 11.569045) scale(-1, 1) rotate(-5.000000) translate(-72.110119, -11.569045) translate(55.110119, 1.569045)">
                        <path d="M17.7689193,17.4267307 C20.8920252,17.4267307 23.7729099,17.0564036 26.4115733,16.3157494 C26.2609871,14.3984872 25.31282,13.1161093 23.567072,12.4686157 C20.922374,11.4877038 17.5934392,10.3254751 15.6277775,10.3254751 C13.9802127,10.3254751 12.5902482,10.7952627 11.1651231,11.18665 C10.3142389,11.4203314 9.20235813,12.075116 7.82948088,13.1510037 C11.3326672,16.0014884 14.6458134,17.4267307 17.7689193,17.4267307 Z" id="eye-white" fill="#FFFFFF" opacity="0.800000012"></path>
                        <path d="M17.592672,15.7644561 C19.8315587,15.7644561 21.646535,13.8631459 21.646535,11.5177608 C21.646535,11.1978122 19.9830594,10.6830638 16.6561081,9.97351574 C14.5779087,9.43942241 13.538809,9.95417076 13.538809,11.5177608 C13.538809,13.8631459 15.3537853,15.7644561 17.592672,15.7644561 Z" id="iris" fill="{eye-color}" opacity="0.700000048"></path>
                        <path d="M13.5839482,10.5581094 C12.5327484,10.8281064 11.4150832,11.1418033 10.1575319,11.7157204 C9.47033694,12.0293402 8.78474099,12.6566971 7.98785851,13.0839795 C12.4717279,17.3153147 18.8019148,18.4903464 26.5365152,15.9054331 L26.7383808,16.525603 C18.7478709,19.1960415 12.144828,17.9492478 7.47845504,13.4952603 L7.74948598,13.2037152 C7.70354899,13.2251735 7.65722779,13.2458451 7.61050251,13.2656396 L7.36190939,12.6631455 C8.32518136,12.255069 8.91541388,11.3762901 9.71616687,11.0145452 C15.0892308,8.58723159 17.1965265,8.46366718 25.1029321,11.7785043 L24.85653,12.3819218 C22.1656886,11.2537605 20.2903574,10.5029448 18.7165432,10.1589604 C21.6628693,11.1159273 24.6537562,12.3322299 25.2851266,12.6815456 C25.8055987,12.9695051 25.9983454,13.1033908 26.3447387,13.904614 C26.4987122,14.2607617 26.2966841,14.9384879 26.828501,15.4955237 L26.3653018,15.9495733 C25.7983562,15.3557429 25.8965675,14.6630153 25.7445034,14.3081298 C25.4444041,13.607761 25.2697926,13.5188823 24.787451,13.1714976 C24.4308235,12.9146529 23.3233892,12.4437879 21.8932023,11.9173256 C22.0012994,12.5242755 21.9340489,13.1499561 21.6880871,13.6451224 C20.9467397,15.137591 19.6148997,16.1239844 18.1698607,16.1640564 C15.0810023,16.2497128 12.5221201,13.5035537 13.5839482,10.5581094 Z M14.1483308,10.4145937 L14.3086198,10.4895206 C13.1351696,13.0669492 15.376429,15.5882448 18.1522297,15.5112698 C19.342407,15.4782653 20.4713308,14.6421566 21.1124184,13.3515294 C21.3422062,12.8889243 21.3605317,12.2348528 21.1605607,11.652805 C20.6757319,11.4809769 20.1654249,11.3061726 19.6433925,11.1334821 C19.533949,11.1964248 19.4533095,11.2296187 19.3278224,11.260026 L19.2461974,11.013338 L19.2593398,11.0075141 C18.5166588,10.7659995 17.7573521,10.5311511 17.0199258,10.3172201 C17.036229,10.3898418 17.0567499,10.4803843 17.0676864,10.5250411 L16.8174853,10.5879536 C16.7969327,10.5040318 16.7456292,10.2724218 16.745065,10.2700002 C16.708252,10.1119918 16.6769471,10.0287824 16.6186437,9.94746553 C16.0586003,9.96742159 15.5076132,10.0544172 14.933006,10.2103269 C14.6741305,10.2805683 14.4129879,10.3474313 14.1483308,10.4145937 Z M16.9454487,10.0271334 L16.9688158,9.9436832 C16.9501619,9.94342956 16.9315263,9.94324503 16.9129067,9.94313316 C16.9245975,9.96954298 16.9353216,9.99730797 16.945449,10.0271321 Z M19.9549266,12.4921239 L20.4720885,12.6118689 L20.4349876,12.8695226 C20.2563137,12.8577165 20.1345738,12.8268551 19.8858114,12.7440662 L19.3686495,12.6243213 L19.4057504,12.3666675 C19.5844243,12.3784736 19.7061642,12.409335 19.9549266,12.4921239 Z M18.9158565,14.4892547 L18.676931,14.5873394 L18.2333828,13.4780156 L18.4723083,13.3799309 L18.9158565,14.4892547 Z M19.4682761,11.8708442 L19.485051,11.6101854 L20.680617,11.6891837 L20.6638421,11.9498425 L19.4682761,11.8708442 Z M14.589325,11.8490818 L14.6060999,11.588423 C14.7665513,11.599025 14.8946566,11.5979519 15.1837809,11.5882182 C15.481288,11.5782023 15.6151468,11.577081 15.7867971,11.588423 L15.7700222,11.8490818 C15.6095708,11.8384798 15.4814654,11.8395529 15.1923412,11.8492866 C14.894834,11.8593025 14.7609753,11.8604238 14.589325,11.8490818 Z M15.0971566,13.1830065 L15.0133715,12.9359754 C15.0394227,12.9268478 15.0394227,12.9268478 15.0647714,12.9177448 C15.2013898,12.8683787 15.3209245,12.8177742 15.4469512,12.756699 C15.5771656,12.6935942 15.5724743,12.6961159 15.9941105,12.4659014 L16.1163966,12.6958542 C15.6888626,12.929289 15.6940596,12.9264955 15.5581781,12.9923466 C15.4242286,13.0572615 15.2964812,13.1113427 15.1513604,13.1637811 C15.1245889,13.173395 15.1245889,13.173395 15.0971566,13.1830065 Z M17.6066073,14.6887126 L17.3595066,14.6142741 C17.4236153,14.3957748 17.4541419,14.2595123 17.4692022,14.1255508 C17.4822516,14.0094765 17.4844115,13.920898 17.4843064,13.633429 C17.4842979,13.609857 17.4842979,13.609857 17.484295,13.5854552 L17.7420848,13.5854552 C17.7420876,13.6097788 17.7420876,13.6097788 17.7420961,13.6333322 C17.7422051,13.9314525 17.7399132,14.0254468 17.7253355,14.1551158 C17.7083086,14.3065693 17.6746569,14.4567815 17.6066073,14.6887126 Z M19.9669074,13.6247121 L19.7981489,13.822174 L18.959278,13.0860792 L19.1280365,12.8886172 L19.9669074,13.6247121 Z M16.1150251,14.1335217 L15.9138213,13.9702218 L16.5052713,13.2220102 L16.706475,13.3853101 L16.1150251,14.1335217 Z M15.2461027,10.5057378 L15.3718546,10.2777122 L16.300332,10.8034373 L16.17458,11.0314629 L15.2461027,10.5057378 Z M17.5707753,12.9988273 C16.6809419,12.9988273 16.1376223,12.607075 16.1376223,11.8857568 C16.1376223,11.1644386 16.9488173,10.746699 17.8386507,10.746699 C18.7284841,10.746699 19.0039283,11.1644386 19.0039283,11.8857568 C19.0039283,12.607075 18.4606087,12.9988273 17.5707753,12.9988273 Z" id="eye" fill="#000000" fill-rule="nonzero" opacity="0.5"></path>
                        <path d="M27.0149186,17.4446195 L27.3137843,17.8454677 C22.4522511,21.4701466 13.6859226,20.6489038 6.48779052,17.0715357 L6.71031691,16.6237835 C13.7578295,20.1262959 22.3398511,20.9302726 27.0149186,17.4446195 Z" id="eye-line" fill="#000000" fill-rule="nonzero" opacity="0.3"></path>
                        <path d="M0.889892536,4.57563797 L1.68766506,1.59831039 C3.29981815,0.101342489 5.15017932,0.165519424 11.8239746,1.07882346 C12.1601785,1.1248008 12.3002796,1.14389195 12.4955658,1.17027262 C15.4780396,1.57316677 17.1705988,1.71889894 18.5650125,1.63138056 C19.0731298,1.59948931 19.5905473,1.56468072 20.2103435,1.5211872 C26.0143013,1.11390091 24.1649873,0.809798684 26.260693,1.08393076 C29.1686985,1.464317 31.3532215,2.61244205 33.1015205,4.84257379 L30.498106,6.88350579 C28.3645322,4.16191724 29.5223534,4.18390866 20.4419125,4.82111851 C19.8146382,4.86513679 19.2895068,4.90046433 18.7722296,4.93293049 C17.0868041,5.03871381 15.2521825,4.88074983 12.0527134,4.44854238 C11.855135,4.42185206 11.7132086,4.40251219 11.3754513,4.35632215 C6.46811538,3.6847568 1.33155427,4.1655321 0.889892536,4.57563797 Z" id="eye-brow" fill="{hair-color}" fill-rule="nonzero"></path>
                        <path d="M11.4501547,3.81006546 C11.8586157,3.86588994 11.9346854,3.8762494 12.1265221,3.90216408 C15.4608815,4.35259348 17.1709476,4.48100673 18.7376934,4.38267217 C19.2391248,4.35120055 19.7576999,4.31643547 20.4033177,4.27112996 C29.3289724,3.64478206 28.4653889,3.63719568 30.5832727,6.11617453 L32.3166405,4.75731079 C30.7473703,2.95174485 28.8069492,1.97303569 26.1891831,1.63061468 C24.2023225,1.37072026 26.2023459,1.65340199 20.2489383,2.07117576 C19.6089816,2.11608401 19.0953328,2.1505217 18.5995487,2.18163888 C17.2064218,2.26907649 15.5559648,2.14004239 12.421757,1.71665091 C12.2313396,1.69092794 12.1557841,1.68063842 11.7492207,1.62507324 C5.06719435,0.710642788 3.50902948,0.73694995 2.178005,1.89855508 L1.67487312,3.77626885 C3.74780185,3.3953072 8.02081449,3.34076275 11.4501547,3.81006546 Z M0.889892536,4.57563797 L1.68766506,1.59831039 C3.29981815,0.101342489 5.15017932,0.165519424 11.8239746,1.07882346 C12.1601785,1.1248008 12.3002796,1.14389195 12.4955658,1.17027262 C15.4780396,1.57316677 17.1705988,1.71889894 18.5650125,1.63138056 C19.0731298,1.59948931 19.5905473,1.56468072 20.2103435,1.5211872 C26.0143013,1.11390091 24.1649873,0.809798684 26.260693,1.08393076 C29.1686985,1.464317 31.3532215,2.61244205 33.1015205,4.84257379 L30.498106,6.88350579 C28.3645322,4.16191724 29.5223534,4.18390866 20.4419125,4.82111851 C19.8146382,4.86513679 19.2895068,4.90046433 18.7722296,4.93293049 C17.0868041,5.03871381 15.2521825,4.88074983 12.0527134,4.44854238 C11.855135,4.42185206 11.7132086,4.40251219 11.3754513,4.35632215 C6.46811538,3.6847568 1.33155427,4.1655321 0.889892536,4.57563797 Z" id="eye-brow" fill="#000000" fill-rule="nonzero" opacity="0.05"></path>
                        <path d="M11.2077264,10.6532269 L11.1756676,10.7003779 C10.4656465,10.4787922 9.98065833,10.2649196 9.72070322,10.0587601 C9.46074812,9.85260057 9.36780812,9.78994942 9.44188323,9.87080662 C9.68359989,9.80283316 9.94079601,9.87697022 10.2134716,10.0932178 C10.414397,10.2525633 10.6736252,10.35701 10.9911563,10.406558 L10.1166789,9.41054604 C10.2561831,9.29348559 10.4304158,9.36818981 10.6393771,9.63465869 C10.8483385,9.90112758 11.1389005,10.1987485 11.5110633,10.5275215 L11.281619,10.7373891 L11.2077264,10.6532269 Z M9.75983683,11.237568 L9.62235445,11.5263632 C8.90495951,11.3025373 8.38539515,11.1012995 8.06366139,10.9226498 C7.74192762,10.7440001 7.59041021,10.6685229 7.60910915,10.696218 C7.93318444,10.6318618 8.25183571,10.6866468 8.56506297,10.860573 C8.87829023,11.0344993 9.27654819,11.1601643 9.75983683,11.237568 Z M12.1273926,10.3411722 L11.8906,10.541293 L10.7818395,9.25750458 C10.9064317,9.15017459 11.0646618,9.22891228 11.2565298,9.49371766 C11.4483977,9.75852303 11.7386853,10.0410079 12.1273926,10.3411722 Z M14.0651723,10.1607087 L13.7546065,10.2168769 C13.2807311,9.86868948 12.952313,9.57494224 12.7693523,9.33563521 C12.5863915,9.09632817 12.490068,8.99926172 12.4803816,9.04443585 C12.5898486,8.88985167 12.6996691,8.89939897 12.8098433,9.07307774 C12.9522489,9.29756639 12.9198173,8.97955481 13.026929,9.11965359 C13.2583433,9.42233643 13.6044244,9.7693548 14.0651723,10.1607087 Z M15.3041017,9.90616597 L15.0753449,10.1169073 C14.7608569,9.91141129 14.5061795,9.68530145 14.3113126,9.43857777 C14.1164457,9.19185409 14.0068554,9.05232321 13.9825417,9.01998511 C14.1551079,8.97207235 14.3434974,9.07739419 14.54771,9.33595063 C14.7519226,9.59450708 15.0040532,9.78457886 15.3041017,9.90616597 Z M16.6467059,9.88702322 L16.4235491,10.1046553 C15.9673715,9.78411434 15.6510994,9.5183754 15.4747326,9.30743849 C15.2983658,9.09650157 15.2574889,9.00977096 15.3521018,9.04724664 C15.5013165,8.96931963 15.6151084,9.00011256 15.6934777,9.13962542 C15.7941401,9.31882436 15.6509193,9.110573 15.7426555,9.2202907 C15.9415217,9.45813718 16.2428718,9.68038136 16.6467059,9.88702322 Z M17.8363735,10.0377005 L17.5887793,10.2219434 C17.0124962,9.84617352 16.6426403,9.53020407 16.4792116,9.27403507 C16.315783,9.01786606 16.2028086,8.88674999 16.1402886,8.88068684 C16.3317442,8.73602899 16.4540696,8.74495472 16.5072649,8.90746403 C16.5831578,9.13931388 16.7200665,9.00052155 16.8076088,9.13774118 C16.987192,9.41923179 17.3301136,9.71921822 17.8363735,10.0377005 Z M18.492466,10.2076759 L18.1988115,10.2774395 C17.9397642,9.81218585 17.7870513,9.46570646 17.7406728,9.23800134 C17.6942943,9.01029623 17.6746021,8.89156853 17.6815962,8.88181825 C17.8423942,8.84411095 17.9180732,8.88495204 17.908633,9.00434152 C17.8922049,9.21210873 17.9942831,9.26162717 18.0197048,9.3864404 C18.0670387,9.61883598 18.2246257,9.89258114 18.492466,10.2076759 Z M19.0861688,10.3720138 L18.7854939,10.3725048 C18.6152803,10.0584353 18.5300563,9.81767897 18.5298218,9.65023588 C18.5295874,9.48279279 18.5953371,9.35289758 18.7270709,9.26055024 L19.0842602,9.00887853 C18.9161723,9.31431618 18.8322242,9.53546177 18.8324158,9.67231529 C18.8326074,9.80916881 18.9171917,10.0424016 19.0861688,10.3720138 Z M19.8089346,10.3663716 L19.5082594,10.3664136 C19.3572902,10.0698768 19.2817969,9.84944028 19.2817796,9.70510407 C19.2817624,9.56076786 19.3780353,9.4509702 19.5705983,9.3757111 L19.8087878,9.13832901 C19.7140315,9.40076695 19.6666614,9.5990536 19.6666775,9.73318895 C19.6666935,9.8673243 19.7141126,10.0783852 19.8089346,10.3663716 Z M8.65493644,13.705409 L8.85755295,14.0396439 C8.66682519,14.0746091 8.55267351,14.1015717 8.51509792,14.1205316 C8.24430697,14.2571672 8.03725255,14.3352225 7.89393464,14.3546977 C7.72078604,14.3782265 7.573585,14.3290177 7.45233152,14.2070714 C7.56994683,14.1157488 7.72437618,14.0570936 7.91561956,14.0311059 C8.10686294,14.0051183 8.3533019,13.8965527 8.65493644,13.705409 Z M9.00012619,14.050047 L9.15088223,14.3310098 C8.9536796,14.5458052 8.78391706,14.6977396 8.6415946,14.786813 C8.49927215,14.8758864 8.36162543,14.940688 8.22865444,14.9812177 C8.27808905,14.8298835 8.38018875,14.7057861 8.53495355,14.6089256 C8.68971834,14.5120651 8.84477589,14.3257722 9.00012619,14.050047 Z M9.59987313,14.2289705 L9.77615196,14.4920376 C9.59045136,14.7636368 9.42958475,14.9525976 9.29355213,15.0589202 C9.1575195,15.1652427 9.03435891,15.2072644 8.92407035,15.1849852 L8.42345192,15.1484566 C8.77572784,15.0381801 9.01957654,14.9301195 9.15499801,14.8242746 C9.29041948,14.7184297 9.43871119,14.519995 9.59987313,14.2289705 Z M9.9125313,14.8687713 L10.1617232,15.0504846 C10.0115417,15.4559694 9.89435722,15.7260426 9.81016965,15.8607042 C9.68388829,16.0626966 9.48356832,15.9805502 9.67451804,15.675118 C9.80181785,15.4714965 9.8811556,15.2027143 9.9125313,14.8687713 Z M10.4318997,15.0150098 L10.6879646,15.1852134 C10.5373028,15.6939456 10.4134285,16.0334963 10.3163417,16.2038652 C10.1707114,16.4594186 9.92933954,16.2868501 10.0987979,15.989483 C10.2117701,15.7912382 10.322804,15.4664139 10.4318997,15.0150098 Z M11.5634794,15.4227292 L11.7786484,15.545284 C11.6760675,15.9490089 11.5832828,16.2224479 11.5002946,16.365601 C11.4173063,16.508754 11.3485159,16.5986527 11.2939235,16.6352971 C11.1821573,16.5465647 11.1706275,16.4256899 11.2593343,16.2726726 C11.348041,16.1196553 11.4494227,15.8363409 11.5634794,15.4227292 Z M11.9037712,15.7081415 L12.1940249,15.7293205 C12.2020754,16.1352343 12.1842115,16.3988695 12.1404333,16.5202261 C12.0966551,16.6415827 12.0598891,16.6978461 12.0301353,16.6890163 L11.5406383,16.8283649 C11.7189828,16.6399594 11.8266307,16.4945408 11.863582,16.392109 C11.9005333,16.2896772 11.9139297,16.061688 11.9037712,15.7081415 Z M12.8609336,16.0050627 L13.0718052,16.0352102 C13.0532853,16.4508095 13.0353242,16.7275003 13.0179218,16.8652826 C13.0005195,17.003065 12.9930529,17.1058173 12.9955221,17.1735397 C12.8491767,17.1071687 12.7854466,16.9992213 12.8043319,16.8496976 C12.8232173,16.7001739 12.8420845,16.418629 12.8609336,16.0050627 Z M14.0998567,16.3135411 L14.3642535,16.4681735 C14.35835,16.7285388 14.327177,16.915005 14.2707344,17.0275721 C14.1860705,17.1964227 13.9608695,17.1344701 14.057798,16.9411594 C14.122417,16.8122856 14.1364365,16.6030795 14.0998567,16.3135411 Z M15.161959,16.7406981 L15.4623735,16.7542168 C15.4658333,17.0268044 15.4652303,17.2235674 15.4605645,17.3445058 C15.4535658,17.5259134 15.1933115,17.5288565 15.203406,17.2672068 C15.2101356,17.0927737 15.19632,16.9172708 15.161959,16.7406981 Z M10.6432226,11.0058921 L10.493397,11.2874348 C9.83161072,11.0496153 9.36156424,10.8443313 9.08325748,10.6715828 C8.80495073,10.4988344 8.67599345,10.407125 8.69638564,10.3964547 C8.86220242,10.3533361 9.07037819,10.4095318 9.32091295,10.5650418 C9.57144771,10.7205519 10.0122176,10.8675019 10.6432226,11.0058921 Z M9.51527405,11.7502894 L9.42911765,12.0614023 C8.63858525,12.0823284 8.08612911,12.0420173 7.77174922,11.940469 C7.45736934,11.8389206 7.29909384,11.6744616 7.29692272,11.4470921 C7.6814334,11.5343013 8.02132862,11.6255953 8.31660837,11.7209741 C8.61188812,11.8163529 9.01144334,11.8261247 9.51527405,11.7502894 Z M12.9337784,10.2932089 L12.6891857,10.4820702 C12.1951645,10.0837323 11.8692325,9.76534473 11.7113895,9.52690746 C11.5535466,9.28847019 11.4845921,9.16697961 11.504526,9.16243572 C11.7586448,9.1928729 11.9813766,9.35261411 12.1727215,9.64165935 C12.3640664,9.93070459 12.617752,10.1478878 12.9337784,10.2932089 Z" id="eye-lashes" fill="#000000" fill-rule="nonzero" opacity="0.300000012" transform="translate(13.552929, 13.125839) rotate(-1.000000) translate(-13.552929, -13.125839) "></path>
                    </g>
                    <path d="M3.94478596,21.0195855 C3.811217,21.2705932 3.64658916,21.5504267 3.43894943,21.8899914 C2.89055674,22.7868081 2.68564548,23.1979855 2.5470673,23.7955699 C2.45373585,24.1980389 2.46414165,24.6381333 2.55801924,25.6917119 C2.66241481,26.8633327 2.67403937,27.3549725 2.5470673,27.9025084 L1.57291742,27.6766057 C1.66624886,27.2741368 1.65584307,26.8340424 1.56196548,25.7804638 C1.4575699,24.6088429 1.44594534,24.1172032 1.57291742,23.5696672 C1.74314,22.8356241 1.98354252,22.3532296 2.5858107,21.3683073 C3.0840436,20.5535196 3.29875582,20.1395944 3.43778993,19.6225421 C3.31184214,19.3352737 3.21917747,19.0846803 3.05802066,18.6214166 C2.59216993,17.2826604 2.17061713,16.492131 0.839127834,14.7564831 L1.63255185,14.1478138 C3.03000517,15.9694483 3.50205555,16.8546748 3.99529692,18.2721422 C4.18306456,18.8118993 4.26920146,19.039501 4.41938766,19.3675437 C5.15973362,20.984637 5.26764687,22.2612258 5.23615855,26.4003145 C5.21688002,28.9344468 5.23257889,30.3494209 5.33474138,32.2673495 L4.33615706,32.3205412 C4.23265057,30.3773812 4.21676582,28.945654 4.23618749,26.3927072 C4.25783262,23.5474891 4.21211417,22.1232755 3.94478596,21.0195855 Z" id="ear" fill="#000000" fill-rule="nonzero" opacity="0.3"></path>
                </g>
                <g id="hair" transform="translate(44.000000, 0.000000)">
                    <path d="M2.57894892,108.380384 C-3.08693401,107.514504 8.31195082,97.9819429 8.38153418,92.2819072 C8.5806687,75.9694739 4.52523758,59.8685426 3.36981333,43.5954198 C0.596257747,4.53235661 21.2776021,4.14899191 60.7402534,1.965323 C69.1273041,1.50122489 82.3990501,-0.913343505 92.8729432,4.27255413 C107.873414,11.6996786 113.385158,27.3501145 110.070967,40.8493368 C109.628856,42.650125 106.153381,40.899357 104.552394,39.9499078 C97.846875,35.9732685 91.5249119,34.6648294 85.5629092,29.6520965 C80.3041443,25.2306319 79.2657526,19.1355695 72.4546594,18.3288492 C65.5415325,17.5100438 58.5830543,16.8012917 51.621281,16.8558712 C47.9894708,16.8843441 44.2342211,17.2309237 40.8637773,18.5765181 C33.419235,21.5486295 24.1295487,19.7875936 19.5366548,26.3281195 C15.3439169,32.2988018 17.7773858,40.8232467 17.7845187,48.1056005 C17.7853219,48.9255964 15.788145,45.5531926 14.2299983,45.1498679 C12.4359963,44.6854923 7.69574308,41.6021854 7.76326173,42.5439134 C7.82706975,43.4338866 6.14283594,46.6748666 6.64469108,49.5014536 C7.83172291,56.1871452 11.8519348,64.9744993 12.5455882,66.6536096 C14.6317933,71.7036366 19.621794,71.4746784 20.1527425,77.7997954 C20.349683,80.1459199 20.1530592,84.9732905 19.5628713,92.2819072 L20.1527425,108.380384 L21.0484729,115.975735 L21.0484729,122 C15.3944502,113.937907 9.23794215,109.398035 2.57894892,108.380384 Z" fill="{hair-color}"></path>
                    <path d="M16.931996,42.0980428 C16.8760533,41.4449407 16.8481726,41.1150459 16.8169422,40.7313004 C16.2295132,33.5132377 16.6406017,29.5822064 19.1274662,26.0407787 C21.6835608,22.4007638 24.7475559,21.2606689 32.2592268,20.0721691 C33.356984,19.8984815 33.6641239,19.8492557 34.1881439,19.7611564 C36.9571501,19.2956254 38.8794895,18.8303382 40.6783888,18.1121571 C43.749938,16.8858915 47.2292673,16.3902887 51.6173612,16.3558865 C57.664055,16.3084811 63.5468688,16.7702967 72.5134694,17.8323199 C76.0659378,18.2530818 78.0952011,19.7977661 80.8043112,23.3773142 C80.9457114,23.5641464 81.0901582,23.7569615 81.2818886,24.014325 C81.2694256,23.9975956 81.6535656,24.5137706 81.7624955,24.6596455 C82.1565143,25.1873004 82.4536328,25.5774655 82.7557361,25.9602395 C83.8127971,27.2995678 84.7803464,28.3408892 85.8846803,29.2693911 C88.7676367,31.6933234 91.3410069,33.1097142 96.5337411,35.4339602 C101.056697,37.4584162 102.49143,38.1463617 104.807437,39.5198464 C105.856997,40.1422773 106.975275,40.6825277 107.887582,40.9513492 C108.946009,41.2632266 109.47799,41.1675682 109.585387,40.7301222 C113.078299,26.5029417 106.612611,11.6333536 92.6510853,4.72063788 C89.1728352,2.99846557 85.1957149,2.03069294 80.6477946,1.66793371 C76.5161909,1.33838146 72.7148972,1.48095451 66.4670214,2.01647702 C66.1212722,2.04611212 64.9198507,2.15014823 64.9531817,2.14727128 C64.3590216,2.19855605 63.9182794,2.23593361 63.4948935,2.27064535 C62.4208431,2.3587025 61.5575139,2.42086473 60.7678787,2.46455926 C60.2753722,2.49181214 56.6510787,2.69107703 55.614728,2.74877701 C32.0115692,4.06290919 22.7463558,5.50057235 15.2067381,10.1057862 C6.18648603,15.6153746 2.59863827,25.6743218 3.86855775,43.560008 C4.25777703,49.0418154 4.80851151,53.4268267 6.22264743,63.2531322 C6.37613702,64.3196744 6.44212602,64.778857 6.52586383,65.3640832 C8.29298217,77.7141083 8.97510474,84.6199717 8.88149693,92.2880105 C8.86106327,93.9618678 8.01069982,95.9078166 6.36321896,98.5130477 C6.00149698,99.0850539 5.61173663,99.6743731 5.10474744,100.421989 C2.42049409,104.380237 2.25363859,104.63964 1.78621127,105.780704 C1.22875157,107.141552 1.43518572,107.699785 2.65448368,107.886123 C9.10654354,108.872149 15.0707645,113.071739 20.5493651,120.453368 L20.551914,116.034295 L19.6530778,108.398693 L19.0644936,92.241662 C19.6524438,84.9607559 19.8483504,80.1509937 19.6544949,77.8416198 C19.419956,75.0475901 18.5373868,73.7424094 16.0963365,71.6941155 C16.1550447,71.7433777 15.7114379,71.3717622 15.5947567,71.2733081 C13.7759931,69.7386578 12.8187527,68.6244014 12.083468,66.8445151 C12.0202219,66.6914168 11.2457425,64.8957231 10.9165013,64.113947 C10.2345917,62.494767 9.60694611,60.9304857 9.01294448,59.3392788 C8.37661732,57.6346906 7.81693201,55.9976493 7.34798832,54.4415465 C6.81700656,52.6795818 6.41269688,51.054979 6.15239035,49.5888606 C6.07396324,49.1471374 6.04235627,48.6846525 6.05323651,48.2009144 C6.07717439,47.1366309 6.28996056,46.0648777 6.67826606,44.7395188 C6.76107788,44.4568666 7.05536316,43.5045798 7.1096861,43.3162736 C7.22333606,42.9223149 7.27176909,42.6804724 7.2645419,42.5796699 C7.2277003,42.0658154 7.62832711,41.8251048 8.08787047,41.8725754 C8.32371561,41.8969382 8.61837268,41.9903415 9.00174614,42.1497352 C9.54847152,42.377045 9.94385049,42.573854 11.4386378,43.3421706 C13.0469138,44.1676835 13.8275698,44.5292206 14.3552933,44.6658213 C14.6943224,44.7535786 15.0394395,44.9413652 15.4025821,45.216548 C15.7755106,45.4991463 16.157763,45.8652199 16.5886899,46.3336927 C16.7242117,46.4810222 17.0179057,46.8158346 17.2712372,47.1043785 C17.2384932,45.8661669 17.1410037,44.5380982 16.931996,42.0980428 Z M8.24888233,42.6325444 C8.26001918,42.5951905 8.26524408,42.5536613 8.26198157,42.5081569 C8.26355018,42.5300353 8.26454274,42.5522955 8.26495784,42.5750209 L8.24888233,42.6325444 Z M8.23352435,42.9284318 C8.2023727,43.1095416 8.14815053,43.3242984 8.07050447,43.5934523 C8.01286621,43.7932508 7.71775792,44.7482009 7.63792622,45.0206813 C7.27214406,46.2691639 7.07455402,47.2643778 7.05298366,48.2234008 C7.04353296,48.6435809 7.07065264,49.040406 7.13699181,49.4140465 C7.38983266,50.8381162 7.78497998,52.4259026 8.30545606,54.1530061 C8.76770922,55.6869077 9.32056218,57.3039648 9.94979544,58.9895499 C10.5384936,60.5665498 11.1611729,62.1184538 11.8381063,63.7258176 C12.1645048,64.5008441 12.9408717,66.3009141 13.0077085,66.4627042 C13.6689614,68.0633835 14.5324848,69.0685506 16.2396445,70.5090308 C16.3547271,70.6061362 16.7964788,70.9761976 16.7391259,70.9280725 C19.3646218,73.1311353 20.3898732,74.6473207 20.6509902,77.7579711 C20.8510156,80.1408461 20.6536746,84.985825 20.062536,92.2635987 L20.6493014,108.321824 L21.5484729,115.975735 L21.5484729,123.583757 L20.639109,122.287091 C15.0570467,114.327606 9.01094539,109.869149 2.50341416,108.874646 C0.554919066,108.57687 0.0829521029,107.30059 0.860842972,105.401635 C1.36890961,104.161364 1.52075442,103.925297 4.27710645,99.8607307 C4.77861688,99.1211943 5.16297805,98.5400388 5.51803364,97.9785743 C7.07164479,95.5217834 7.86408311,93.7083889 7.88157143,92.2758039 C7.97437291,84.6738175 7.29614796,77.807414 5.53594611,65.5057268 C5.45225955,64.9208587 5.38629562,64.4618506 5.23284481,63.395578 C3.81528622,53.5454896 3.26255741,49.1445991 2.8710689,43.6308317 C1.57728708,25.4090656 5.29404911,14.9886923 14.6854801,9.25238706 C22.4258014,4.52458303 31.7685306,3.07489192 55.559138,1.75032333 C56.5959077,1.69260002 60.2204409,1.49332196 60.7126282,1.46608674 C61.4921008,1.42295456 62.3472072,1.36138439 63.4131816,1.27398936 C63.8348729,1.23941656 64.2743318,1.20214782 64.8671867,1.15097571 C64.8334654,1.15388635 66.0353568,1.04980956 66.3816218,1.02013024 C72.6810969,0.480185017 76.5259023,0.335979991 80.7273058,0.671099741 C85.3934516,1.04328908 89.4919199,2.04058992 93.0948012,3.82447037 C107.485859,10.9498584 114.158789,26.2960547 110.556547,40.9685515 C110.263855,42.1607318 109.139834,42.3628483 107.604936,41.9105734 C106.597377,41.6136848 105.412159,41.0410949 104.29735,40.3799692 C102.026174,39.0330715 100.611665,38.3548231 96.1252021,36.346701 C90.8532062,33.9869779 88.2140893,32.5343999 85.2411382,30.0348019 C84.0784512,29.0572379 83.0666451,27.9682852 81.9707669,26.5797742 C81.6621405,26.1887352 81.3601364,25.7921546 80.9612418,25.2579702 C80.8517365,25.1113248 80.467059,24.5944276 80.4799601,24.611745 C80.2896094,24.3562335 80.1465337,24.1652485 80.006933,23.9807941 C77.4461045,20.5971704 75.6201902,19.2072763 72.3958494,18.8253786 C63.467698,17.7679094 57.6200782,17.3088566 51.6252008,17.3558558 C47.3505443,17.3893686 43.9851236,17.8687461 41.0491658,19.0408791 C39.1702646,19.7909995 37.1872252,20.2709788 34.3539392,20.7473166 C33.8254786,20.8361625 33.5168174,20.8856321 32.4155032,21.0598825 C25.1653836,22.2069995 22.2903261,23.2767918 19.9458434,26.6154602 C17.6364164,29.9042073 17.2442777,33.654032 17.8136469,40.6501854 C17.8447274,41.0320886 17.8725219,41.3609632 17.9283476,42.0126984 C18.1961686,45.1393693 18.2829093,46.4622024 18.2845185,48.1051107 C18.2849572,48.5529787 17.9044451,48.8873461 17.4488125,48.6699483 C17.2998889,48.5988918 17.1636159,48.4775936 16.9685897,48.2702431 C16.8299602,48.1228532 16.0797348,47.2575011 15.8527056,47.0106913 C15.4586403,46.5822917 15.1155598,46.2537321 14.7986202,46.0135612 C14.5319404,45.8114761 14.2971789,45.6837367 14.1047033,45.6339146 C13.4740782,45.4706779 12.6707626,45.0986467 11.1059986,44.2955163 C9.51980388,43.4802587 9.12781993,43.2851396 8.61783945,43.0731071 C8.46877615,43.0111316 8.33967072,42.962805 8.23352435,42.9284318 Z" id="hair-outline" fill="#000000" fill-rule="nonzero" opacity="0.05"></path>
                </g>
            </g>
        </g>
    </g>
</svg>