<?xml version="1.0" encoding="UTF-8"?>
<svg width="480px" height="300px" viewBox="0 0 480 300" version="1.1" xmlns="http://www.w3.org/2000/svg" xmlns:xlink="http://www.w3.org/1999/xlink">
    <!-- Generator: Sketch 50.2 (55047) - http://www.bohemiancoding.com/sketch -->
    <title>Avatars</title>
    <desc>Created with Sketch.</desc>
    <defs></defs>
    <g id="Avatars" stroke="none" stroke-width="1" fill="none" fill-rule="evenodd">
        <rect id="Frame" fill="#E6E6E6" x="0" y="0" width="480" height="300"></rect>
        <g id="Halfling" transform="translate(131.000000, 49.000000)">
            <g id="Male" transform="translate(5.000000, 0.000000)">
                <path d="M0,251 C2.67570908,222.088393 4.65189994,203.806958 5.92857258,196.155694 C6.84465692,190.665482 5.32441005,182.760408 5.95285011,177.230382 C6.55236584,171.954878 5.38706935,150.537802 15.6781747,143.194298 C27.1556564,135.004222 57.3504511,131.723386 61.3774721,127.342158 C64.5550469,123.885091 65.7091764,118.28017 64.8398607,110.527397 C57.3723334,88.6835227 53.2034419,76.1486337 52.3331862,72.9227295 C49.6968658,63.1502943 48.4663325,29.7733041 56.3763011,22.3693708 C71.1028909,8.58490516 127.43574,-5.10576282 141.425341,19.9229461 C149.745444,34.8083924 147.533313,71.7564228 147.533313,88.5000427 C147.533313,101.355149 141.675587,98.6800965 140.419318,104.699834 C139.91796,107.102218 140.073478,111.37692 140.885872,117.523942 C150.108708,120.567387 200.093356,124.293157 207.229766,146.538984 C211.752339,160.63688 215.022513,193.651947 216.899107,205.806284 C217.948689,212.604229 218.98232,227.668801 220,251 L193.369542,251 L16.8000501,251 L0,251 Z" id="body" fill="{skin-color}"></path>
                <polygon id="armpit-l" fill="#000000" opacity="0.5" points="34 251 42 210 42 251"></polygon>
                <polygon id="armpit-r" fill="#000000" opacity="0.5" transform="translate(187.000000, 230.500000) scale(-1, 1) translate(-187.000000, -230.500000) " points="183 251 191 210 191 251"></polygon>
                <path d="M64.5,85 L65.5,85 C65.5,85.1589978 65.5189376,85.474698 65.5767604,85.9245349 C65.6744315,86.6843748 65.8507885,87.5336973 66.1256477,88.4501065 C66.913604,91.0772352 68.3334273,93.7071458 70.5454888,96.1655604 C76.9091039,103.237879 88.4141687,107.5 106.390426,107.5 C122.970686,107.5 134.445027,105.939499 140.780494,102.843887 L141.219506,103.742368 C134.710887,106.922586 123.112179,108.5 106.390426,108.5 C88.1500608,108.5 76.3730109,104.137121 69.8021177,96.8344396 C67.4871013,94.2616042 65.9966603,91.5008898 65.1678031,88.7373935 C64.8767776,87.7670839 64.6893515,86.8644534 64.5849209,86.0520276 C64.5214827,85.5585052 64.5,85.2003772 64.5,85 Z" id="jaw" fill="#000000" fill-rule="nonzero" opacity="0.3"></path>
                <path d="M44.6697602,220.375422 L45.3302398,219.624578 C47.0954396,221.177335 48.1126815,222.698976 49.5971809,225.598143 C49.704721,225.808443 49.704721,225.808443 49.811697,226.018113 C51.7300786,229.777339 52.8836164,231.360084 55.395107,232.978271 C71.0500733,243.064971 94.2318328,238.611151 109.66874,224.957414 L110.33126,225.706458 C94.5873285,239.631754 70.9296901,244.177002 54.8534836,233.818892 C52.1543203,232.079786 50.9136773,230.377525 48.9209744,226.47266 C48.8140303,226.263053 48.8140303,226.263053 48.7070827,226.053912 C47.2755301,223.258147 46.3171376,221.824537 44.6697602,220.375422 Z M180.33126,220.375422 C178.683883,221.824537 177.72549,223.258147 176.293937,226.053912 C176.18699,226.263053 176.18699,226.263053 176.080046,226.47266 C174.087343,230.377525 172.8467,232.079786 170.147536,233.818892 C154.07133,244.177002 130.413692,239.631754 114.66976,225.706458 L115.33228,224.957414 C130.769187,238.611151 153.950947,243.064971 169.605913,232.978271 C172.117404,231.360084 173.270942,229.777339 175.189323,226.018113 C175.296299,225.808443 175.296299,225.808443 175.403839,225.598143 C176.888339,222.698976 177.90558,221.177335 179.67078,219.624578 L180.33126,220.375422 Z" id="breast" fill="#000000" fill-rule="nonzero" opacity="0.3"></path>
                <path d="M46.5789489,108.380384 C40.913066,107.514504 52.3119508,97.9819429 52.3815342,92.2819072 C52.5806687,75.9694739 48.5252376,59.8685426 47.3698133,43.5954198 C44.5962577,4.53235661 65.2776021,4.14899191 104.740253,1.965323 C113.127304,1.50122489 126.39905,-0.913343505 136.872943,4.27255413 C151.873414,11.6996786 157.385158,27.3501145 154.070967,40.8493368 C153.628856,42.650125 150.153381,40.899357 148.552394,39.9499078 C141.846875,35.9732685 135.524912,34.6648294 129.562909,29.6520965 C124.304144,25.2306319 123.265753,19.1355695 116.454659,18.3288492 C109.541533,17.5100438 102.583054,16.8012917 95.621281,16.8558712 C91.9894708,16.8843441 88.2342211,17.2309237 84.8637773,18.5765181 C77.419235,21.5486295 68.1295487,19.7875936 63.5366548,26.3281195 C59.3439169,32.2988018 61.7773858,40.8232467 61.7845187,48.1056005 C61.7853219,48.9255964 59.788145,45.5531926 58.2299983,45.1498679 C56.4359963,44.6854923 51.6957431,41.6021854 51.7632617,42.5439134 C51.8270697,43.4338866 50.1428359,46.6748666 50.6446911,49.5014536 C51.8317229,56.1871452 55.8519348,64.9744993 56.5455882,66.6536096 C58.6317933,71.7036366 63.621794,71.4746784 64.1527425,77.7997954 C64.349683,80.1459199 64.1530592,84.9732905 63.5628713,92.2819072 L64.1527425,108.380384 L65.0484729,115.975735 L65.0484729,122 C59.3944502,113.937907 53.2379422,109.398035 46.5789489,108.380384 Z" id="hair" fill="{hair-color}"></path>
                <path d="M60.931996,42.0980428 C60.8760533,41.4449407 60.8481726,41.1150459 60.8169422,40.7313004 C60.2295132,33.5132377 60.6406017,29.5822064 63.1274662,26.0407787 C65.6835608,22.4007638 68.7475559,21.2606689 76.2592268,20.0721691 C77.356984,19.8984815 77.6641239,19.8492557 78.1881439,19.7611564 C80.9571501,19.2956254 82.8794895,18.8303382 84.6783888,18.1121571 C87.749938,16.8858915 91.2292673,16.3902887 95.6173612,16.3558865 C101.664055,16.3084811 107.546869,16.7702967 116.513469,17.8323199 C120.065938,18.2530818 122.095201,19.7977661 124.804311,23.3773142 C124.945711,23.5641464 125.090158,23.7569615 125.281889,24.014325 C125.269426,23.9975956 125.653566,24.5137706 125.762496,24.6596455 C126.156514,25.1873004 126.453633,25.5774655 126.755736,25.9602395 C127.812797,27.2995678 128.780346,28.3408892 129.88468,29.2693911 C132.767637,31.6933234 135.341007,33.1097142 140.533741,35.4339602 C145.056697,37.4584162 146.49143,38.1463617 148.807437,39.5198464 C149.856997,40.1422773 150.975275,40.6825277 151.887582,40.9513492 C152.946009,41.2632266 153.47799,41.1675682 153.585387,40.7301222 C157.078299,26.5029417 150.612611,11.6333536 136.651085,4.72063788 C133.172835,2.99846557 129.195715,2.03069294 124.647795,1.66793371 C120.516191,1.33838146 116.714897,1.48095451 110.467021,2.01647702 C110.121272,2.04611212 108.919851,2.15014823 108.953182,2.14727128 C108.359022,2.19855605 107.918279,2.23593361 107.494894,2.27064535 C106.420843,2.3587025 105.557514,2.42086473 104.767879,2.46455926 C104.275372,2.49181214 100.651079,2.69107703 99.614728,2.74877701 C76.0115692,4.06290919 66.7463558,5.50057235 59.2067381,10.1057862 C50.186486,15.6153746 46.5986383,25.6743218 47.8685578,43.560008 C48.257777,49.0418154 48.8085115,53.4268267 50.2226474,63.2531322 C50.376137,64.3196744 50.442126,64.778857 50.5258638,65.3640832 C52.2929822,77.7141083 52.9751047,84.6199717 52.8814969,92.2880105 C52.8610633,93.9618678 52.0106998,95.9078166 50.363219,98.5130477 C50.001497,99.0850539 49.6117366,99.6743731 49.1047474,100.421989 C46.4204941,104.380237 46.2536386,104.63964 45.7862113,105.780704 C45.2287516,107.141552 45.4351857,107.699785 46.6544837,107.886123 C53.1065435,108.872149 59.0707645,113.071739 64.5493651,120.453368 L64.551914,116.034295 L63.6530778,108.398693 L63.0644936,92.241662 C63.6524438,84.9607559 63.8483504,80.1509937 63.6544949,77.8416198 C63.419956,75.0475901 62.5373868,73.7424094 60.0963365,71.6941155 C60.1550447,71.7433777 59.7114379,71.3717622 59.5947567,71.2733081 C57.7759931,69.7386578 56.8187527,68.6244014 56.083468,66.8445151 C56.0202219,66.6914168 55.2457425,64.8957231 54.9165013,64.113947 C54.2345917,62.494767 53.6069461,60.9304857 53.0129445,59.3392788 C52.3766173,57.6346906 51.816932,55.9976493 51.3479883,54.4415465 C50.8170066,52.6795818 50.4126969,51.054979 50.1523904,49.5888606 C50.0739632,49.1471374 50.0423563,48.6846525 50.0532365,48.2009144 C50.0771744,47.1366309 50.2899606,46.0648777 50.6782661,44.7395188 C50.7610779,44.4568666 51.0553632,43.5045798 51.1096861,43.3162736 C51.2233361,42.9223149 51.2717691,42.6804724 51.2645419,42.5796699 C51.2277003,42.0658154 51.6283271,41.8251048 52.0878705,41.8725754 C52.3237156,41.8969382 52.6183727,41.9903415 53.0017461,42.1497352 C53.5484715,42.377045 53.9438505,42.573854 55.4386378,43.3421706 C57.0469138,44.1676835 57.8275698,44.5292206 58.3552933,44.6658213 C58.6943224,44.7535786 59.0394395,44.9413652 59.4025821,45.216548 C59.7755106,45.4991463 60.157763,45.8652199 60.5886899,46.3336927 C60.7242117,46.4810222 61.0179057,46.8158346 61.2712372,47.1043785 C61.2384932,45.8661669 61.1410037,44.5380982 60.931996,42.0980428 Z M52.2488823,42.6325444 C52.2600192,42.5951905 52.2652441,42.5536613 52.2619816,42.5081569 C52.2635502,42.5300353 52.2645427,42.5522955 52.2649578,42.5750209 L52.2488823,42.6325444 Z M52.2335244,42.9284318 C52.2023727,43.1095416 52.1481505,43.3242984 52.0705045,43.5934523 C52.0128662,43.7932508 51.7177579,44.7482009 51.6379262,45.0206813 C51.2721441,46.2691639 51.074554,47.2643778 51.0529837,48.2234008 C51.043533,48.6435809 51.0706526,49.040406 51.1369918,49.4140465 C51.3898327,50.8381162 51.78498,52.4259026 52.3054561,54.1530061 C52.7677092,55.6869077 53.3205622,57.3039648 53.9497954,58.9895499 C54.5384936,60.5665498 55.1611729,62.1184538 55.8381063,63.7258176 C56.1645048,64.5008441 56.9408717,66.3009141 57.0077085,66.4627042 C57.6689614,68.0633835 58.5324848,69.0685506 60.2396445,70.5090308 C60.3547271,70.6061362 60.7964788,70.9761976 60.7391259,70.9280725 C63.3646218,73.1311353 64.3898732,74.6473207 64.6509902,77.7579711 C64.8510156,80.1408461 64.6536746,84.985825 64.062536,92.2635987 L64.6493014,108.321824 L65.5484729,115.975735 L65.5484729,123.583757 L64.639109,122.287091 C59.0570467,114.327606 53.0109454,109.869149 46.5034142,108.874646 C44.5549191,108.57687 44.0829521,107.30059 44.860843,105.401635 C45.3689096,104.161364 45.5207544,103.925297 48.2771065,99.8607307 C48.7786169,99.1211943 49.162978,98.5400388 49.5180336,97.9785743 C51.0716448,95.5217834 51.8640831,93.7083889 51.8815714,92.2758039 C51.9743729,84.6738175 51.296148,77.807414 49.5359461,65.5057268 C49.4522596,64.9208587 49.3862956,64.4618506 49.2328448,63.395578 C47.8152862,53.5454896 47.2625574,49.1445991 46.8710689,43.6308317 C45.5772871,25.4090656 49.2940491,14.9886923 58.6854801,9.25238706 C66.4258014,4.52458303 75.7685306,3.07489192 99.559138,1.75032333 C100.595908,1.69260002 104.220441,1.49332196 104.712628,1.46608674 C105.492101,1.42295456 106.347207,1.36138439 107.413182,1.27398936 C107.834873,1.23941656 108.274332,1.20214782 108.867187,1.15097571 C108.833465,1.15388635 110.035357,1.04980956 110.381622,1.02013024 C116.681097,0.480185017 120.525902,0.335979991 124.727306,0.671099741 C129.393452,1.04328908 133.49192,2.04058992 137.094801,3.82447037 C151.485859,10.9498584 158.158789,26.2960547 154.556547,40.9685515 C154.263855,42.1607318 153.139834,42.3628483 151.604936,41.9105734 C150.597377,41.6136848 149.412159,41.0410949 148.29735,40.3799692 C146.026174,39.0330715 144.611665,38.3548231 140.125202,36.346701 C134.853206,33.9869779 132.214089,32.5343999 129.241138,30.0348019 C128.078451,29.0572379 127.066645,27.9682852 125.970767,26.5797742 C125.66214,26.1887352 125.360136,25.7921546 124.961242,25.2579702 C124.851736,25.1113248 124.467059,24.5944276 124.47996,24.611745 C124.289609,24.3562335 124.146534,24.1652485 124.006933,23.9807941 C121.446104,20.5971704 119.62019,19.2072763 116.395849,18.8253786 C107.467698,17.7679094 101.620078,17.3088566 95.6252008,17.3558558 C91.3505443,17.3893686 87.9851236,17.8687461 85.0491658,19.0408791 C83.1702646,19.7909995 81.1872252,20.2709788 78.3539392,20.7473166 C77.8254786,20.8361625 77.5168174,20.8856321 76.4155032,21.0598825 C69.1653836,22.2069995 66.2903261,23.2767918 63.9458434,26.6154602 C61.6364164,29.9042073 61.2442777,33.654032 61.8136469,40.6501854 C61.8447274,41.0320886 61.8725219,41.3609632 61.9283476,42.0126984 C62.1961686,45.1393693 62.2829093,46.4622024 62.2845185,48.1051107 C62.2849572,48.5529787 61.9044451,48.8873461 61.4488125,48.6699483 C61.2998889,48.5988918 61.1636159,48.4775936 60.9685897,48.2702431 C60.8299602,48.1228532 60.0797348,47.2575011 59.8527056,47.0106913 C59.4586403,46.5822917 59.1155598,46.2537321 58.7986202,46.0135612 C58.5319404,45.8114761 58.2971789,45.6837367 58.1047033,45.6339146 C57.4740782,45.4706779 56.6707626,45.0986467 55.1059986,44.2955163 C53.5198039,43.4802587 53.1278199,43.2851396 52.6178394,43.0731071 C52.4687761,43.0111316 52.3396707,42.962805 52.2335244,42.9284318 Z" id="hair-outline" fill="#000000" fill-rule="nonzero" opacity="0.05"></path>
            </g>
        </g>
    </g>
</svg>