<?xml version="1.0" encoding="UTF-8"?>
<svg width="480px" height="300px" viewBox="0 0 480 300" version="1.1" xmlns="http://www.w3.org/2000/svg" xmlns:xlink="http://www.w3.org/1999/xlink">
    <!-- Generator: Sketch 50.2 (55047) - http://www.bohemiancoding.com/sketch -->
    <title>Avatars</title>
    <desc>Created with Sketch.</desc>
    <defs></defs>
    <g id="Avatars" stroke="none" stroke-width="1" fill="none" fill-rule="evenodd">
        <rect id="Frame" fill="#E6E6E6" x="0" y="0" width="480" height="300"></rect>
        <g id="Human" transform="translate(109.000000, 42.000000)">
            <g id="Female" transform="translate(22.000000, 7.000000)">
                <path d="M4.19422494,251 C6.67951334,224.010386 8.51506574,206.944269 9.70088214,199.801647 C10.551772,194.676415 9.1397157,189.378414 9.72343192,184.216015 C10.9013272,173.798682 18.1064833,150.024483 23.6343281,146.485701 C28.5791208,143.320173 43.820948,141.900343 49.2442179,139.648313 C54.3653429,137.521749 78.3039597,134.448792 82.0443919,130.35882 C84.9958301,127.131573 84.4345363,119.31173 80.3605104,106.89929 C67.6600219,91.6826155 60.9056163,82.5685523 60.0972936,79.5571006 C58.9017108,75.1028892 53.1821836,59.9751796 52.9368621,47.8624844 C52.6797347,35.1668683 58.0087644,25.4937204 61.7686033,21.9566515 C75.4471542,9.08855309 118.392675,-4.73276214 131.386686,18.6320819 C136.307903,27.48104 138.469216,48.3414478 140.186083,67.6545626 C141.165284,78.6696372 138.126207,94.2229078 135.339079,97.6796117 C134.148359,99.1563891 131.386686,102.642623 129.713021,102.642623 C128.597244,102.642623 128.597244,104.408438 129.713021,107.940069 L132.969681,126.397197 C141.53616,129.238319 149.135133,134.960756 158.105319,136.043487 C187.970488,139.648313 177.550132,138.159469 195.634152,155.564927 C205.599348,165.156203 210.166566,197.464346 211.909609,208.810684 C212.884496,215.156713 215.581293,229.219818 220,251 L187.970488,251 L0,251 L4.19422494,251 Z" id="body" fill="{skin-color}"></path>
                <polygon id="armpit-l" fill="#000000" opacity="0.5" points="40 251 48 212 48 251"></polygon>
                <polygon id="armpit-r" fill="#000000" opacity="0.5" transform="translate(181.000000, 231.500000) scale(-1, 1) translate(-181.000000, -231.500000) " points="177 251 185 212 185 251"></polygon>
                <path d="M153.676528,245.968817 C159.907893,245.365015 166.842552,241.809279 171.359199,236.390475 C176.862207,229.788293 178.550799,221.032803 175.349238,210.62453 C174.50792,207.889405 173.743853,206.164748 172.845737,204.797461 C172.538351,204.329499 172.235928,203.926119 171.766578,203.341357 C169.722418,200.794546 168.981658,199.658163 167.580488,196.413136 L168.534673,196 C169.892806,199.145356 170.586144,200.208989 172.57686,202.689215 C173.06511,203.297523 173.385311,203.724617 173.714257,204.225403 C174.671337,205.682456 175.4744,207.495135 176.342736,210.318095 C179.647003,221.060268 177.887672,230.182549 172.157292,237.057519 C167.462381,242.690194 160.275538,246.375236 153.776653,247.00496 C135.202326,248.804763 122.98706,241.394691 116.782569,223.538028 C116.708705,224.178675 116.617175,224.697935 116.503349,225.095841 C112.283947,239.845797 99.4464523,249.411142 84.9857975,249.973813 C70.1956925,250.549303 57.7976922,241.614209 53.9944219,225.675315 C52.5246234,219.515626 52.7343369,214.073771 54.2923327,207.240846 C54.5507487,206.107507 54.8460031,204.926291 55.2193006,203.513437 C55.3655686,202.959843 55.5179884,202.392047 55.7231117,201.634431 C55.7008739,201.716565 56.1209789,200.167292 56.2378667,199.733931 C56.6297859,198.280893 56.9185792,197.17949 57.1919016,196.080757 L58.2006354,196.332379 C57.925379,197.438886 57.6350081,198.546305 57.2414643,200.005367 C57.1243618,200.439524 56.704045,201.989578 56.7264498,201.906827 C56.5218325,202.662575 56.3699096,203.228519 56.2242805,203.779695 C55.8537746,205.181984 55.5612545,206.35226 55.3058104,207.472565 C53.7807155,214.161197 53.5770235,219.446797 55.0055187,225.433391 C58.6908763,240.878132 70.6406862,249.49022 84.9454334,248.933615 C98.9677883,248.387999 111.411278,239.116231 115.503983,224.809178 C115.713741,224.075918 115.849137,222.752091 115.93068,220.917898 C114.838688,217.235491 113.971751,213.177425 113.328222,208.71427 L112.604328,203.693749 L116.99174,215.808674 C117.126313,215.952461 117.127808,215.956487 117.157364,216.03605 C117.205941,216.156148 117.242066,216.340476 117.28788,216.658216 L118.011774,221.678738 L117.035078,218.981795 C117.03213,219.099835 117.029518,219.202159 117.027595,219.273528 C117.012674,219.827293 116.996601,220.315828 116.977175,220.779663 C122.746301,239.945001 134.793511,247.798531 153.676528,245.968817 Z M117.123792,216.402402 C117.124852,216.397274 117.12569,216.391961 117.126569,216.386077 C117.126104,216.38919 117.125641,216.392392 117.125181,216.395685 L117.123792,216.402402 Z M116.19951,216.450357 C116.196722,216.437146 116.194775,216.42916 116.19384,216.42685 C116.194095,216.42748 116.195985,216.435316 116.19951,216.450357 Z M116.083534,216.354304 L115.371204,214.387355 C115.579319,215.392799 115.800972,216.373252 116.036218,217.328879 C116.050267,216.84512 116.064018,216.548844 116.083534,216.354304 Z" id="breast" fill="#000000" fill-rule="nonzero" opacity="0.300000012"></path>
                <path d="M76,95.8276429 L76.606354,95 C83.672428,99.9284236 93.2799802,103.66018 102.24724,104.688221 C112.643719,105.880113 121.429784,103.47232 127.220626,97.1146004 L128,97.7904235 C121.956102,104.425972 112.832894,106.926157 102.125565,105.698628 C92.9798052,104.650124 83.2064197,100.853954 76,95.8276429 Z" id="jaw" fill="#000000" fill-rule="nonzero" opacity="0.300000012"></path>
                <path d="M129.41788,5.75556648 C140.93224,12.8635415 134.498514,18.9688586 141.32783,31.8327383 C146.360549,41.3125001 144.011883,51.6028303 150.525559,69.5000745 C160.164542,95.9845397 155.395275,98.1133589 157.040784,117.804231 C157.05434,117.966438 157.798323,125.320897 162.0574,131.591499 C163.259402,133.361197 165.906935,135.183733 170,137.059109 L155.644139,135.294087 C151.953174,134.658962 149.203956,134.658962 147.396484,135.294087 C146.452143,135.625918 144.715902,134.795805 143.708157,141.351391 C143.094101,145.345944 142.399933,155.362052 141.625652,171.399715 L133.794105,126.772451 C130.568765,125.655865 128.903847,124.643608 128.799349,123.73568 C127.460968,112.107109 127.460968,112.107109 128.799349,102.234687 C130.927544,86.536291 137.0248,72.6373926 134.119606,51.6935498 C132.204432,37.8868561 117.356633,33.7040965 116.725452,22.0769064 C116.550581,18.8555625 116.899704,16.0734586 117.662909,13.6630028 C113.80911,13.5410505 111.584514,13.8372548 105.11854,14.9600794 C99.856114,15.8739065 72.1827137,22.9021276 69.0614173,35.3082896 C68.1064107,39.1041376 69.1655486,45.8883909 66.6260688,44.3685227 C58.7291722,39.6422626 58.3664218,46.5639513 59.8031312,56.5588872 C61.7168456,69.8722635 67.3647065,66.4082367 69.2286322,74.1296816 C72.0533005,85.8310715 73.4032242,86.9069593 77.2580563,96.0545603 C86.442596,117.849674 81.0602469,103.945279 84.8331514,132.566772 C87.3402693,151.585927 80.8830499,142.656993 78.3966492,163.029122 C77.0098487,174.391763 78.9268625,186.246057 76.053031,197.299808 C74.3775032,203.744468 70.1726292,213.432485 70.6926417,221.330133 C71.5150121,233.819817 68.1643078,242.234571 63.5817742,245.413542 C59.5906806,248.182222 48.246552,250.037719 58.045071,243.905281 L60.0978099,236.154391 C61.7286503,228.343262 60.7147037,222.234858 61.8580738,214.329927 C62.7128133,208.420505 65.5128107,202.878292 65.963918,196.921481 C66.0497053,195.78867 63.6474367,197.447558 63.0641531,198.403812 C59.3331206,204.520588 55.5454834,210.770033 53.3171326,217.655031 C51.2306832,224.101594 51.2607623,244.552772 50.3029925,237.832331 C48.3078954,223.833213 47.4572616,211.453377 48.070015,197.292768 C48.1976362,194.343469 50.1960874,190.031324 51.3214053,186.762964 C51.8058537,185.355937 53.8711572,183.033953 52.6788292,182.927228 C50.0502656,182.691946 47.1831401,187.48577 44.5260859,189.293289 C30.9150763,198.552472 19.584483,222.625324 36.1593885,183.886857 C37.8071866,180.035664 41.868012,175.827963 42.6439468,173.038644 C42.8668085,172.237505 45.6588866,170.453263 44.5473615,170.182833 C38.7145723,168.763735 31.9263725,184.85785 28.590835,188.458158 C19.1540531,198.644019 21.2721471,204.469972 26.1931774,172.176496 L30.0690333,160.252453 C37.2736584,141.772864 50.8834147,126.946039 55.4861553,107.2948 C58.2346409,95.5602375 55.9764509,85.5553362 55.5425696,73.4124254 C55.1546827,62.5567464 52.0473943,48.5771483 52.6648948,39.3163696 C54.3011577,14.7770098 65.2238198,1.23446739 95.493902,0.458409399 C101.446164,0.305806566 118.557935,-1.61857305 127.982046,3.78721155 C128.234188,3.93184309 128.77723,4.69595919 129.41788,5.75556648 Z" id="hair" fill="{hair-color}"></path>
                <path d="M161.230171,132.153364 C159.295247,129.304593 157.91515,126.057403 156.992196,122.670108 C156.667187,121.477307 156.421994,120.347125 156.245653,119.313255 C156.135342,118.666517 156.063481,118.117539 156.044258,117.887508 C155.619069,112.799516 155.582601,109.39034 155.73791,103.355027 C155.796359,101.083711 155.812448,100.331692 155.8192,99.2142198 C155.871417,90.5727553 154.486963,83.3085482 149.58586,69.8420767 C146.682336,61.8642357 145.825717,57.6356482 144.150523,46.0387821 C143.162158,39.1966311 142.343041,35.8776306 140.444583,32.3016462 C138.007712,27.7114918 137.295482,24.880856 136.421277,18.6378515 C135.729095,13.6947329 134.973316,11.6667242 132.36291,9.20432607 C131.437062,8.33097361 130.2935,7.47129128 128.892592,6.6064912 C128.0122,5.36339628 127.509167,4.66879863 127.48448,4.65463759 C124.13584,2.73381712 119.51352,1.63693556 113.817141,1.21048359 C109.682476,0.900947319 105.653519,0.948021302 100.151294,1.23367474 C99.6609921,1.25912923 97.9478983,1.35168566 97.5833517,1.37055396 C96.6878135,1.41690546 96.0557648,1.44433307 95.5195313,1.45808091 C67.2939103,2.18172344 55.3680011,13.8078486 53.6626792,39.3829009 C53.3716936,43.7468688 53.7441831,47.9801674 55.0750216,58.4639003 C55.1295553,58.8935435 55.1295553,58.8935435 55.1840243,59.3234549 C56.0377891,66.0673256 56.4096193,69.6737242 56.5419319,73.376717 C56.6387729,76.0869802 56.7962769,78.3808845 57.147103,82.676015 C57.5672547,87.819892 57.6937401,89.6063214 57.7800668,92.2100727 C57.9674367,97.8614463 57.6025805,102.643809 56.4598048,107.52285 C54.2350872,117.021203 50.8290956,124.086411 42.5807523,138.224561 C42.3542475,138.612757 42.3542475,138.612757 42.1277581,139.000861 C36.0691498,149.383096 33.4762365,154.266111 31.0200547,160.561579 L27.1694364,172.407978 C26.0558317,179.702983 24.4736668,188.339554 23.6164194,192.943524 C25.0156792,191.03557 26.2302685,189.534689 27.8572693,187.778539 C28.4230405,187.167858 29.1546148,186.094904 30.2297623,184.334664 C30.4980886,183.895358 32.6813941,180.239079 33.3843071,179.103075 C35.9504309,174.955867 37.9892285,172.259247 40.0457688,170.637494 C41.6541086,169.369184 43.235656,168.834528 44.7837621,169.211177 C45.9227812,169.488297 46.0485203,170.521244 45.4909254,171.336485 C45.2701833,171.659225 45.0393085,171.897162 44.409969,172.498922 C43.877386,173.008203 43.6068862,173.308368 43.6073645,173.306649 C43.1989387,174.774852 42.8314798,175.353674 39.9391204,179.508342 C39.2103624,180.555151 38.705402,181.313013 38.2524623,182.057287 C37.7579067,182.869945 37.3691968,183.601446 37.0787679,184.280229 C33.450268,192.760671 31.4425861,197.572931 30.2478235,200.686043 C29.9671156,201.417465 29.7326389,202.052529 29.5421432,202.597175 C29.7749595,202.339366 30.0375895,202.044306 30.3377376,201.703976 C30.5128861,201.505379 30.6963439,201.296573 30.9552397,201.001347 C31.2799447,200.630952 31.4569938,200.429014 31.6198659,200.243488 C32.1830155,199.602009 32.6271483,199.099456 33.0791681,198.593823 C34.2727802,197.258637 35.3564341,196.089302 36.4455937,194.974429 C39.0730912,192.284899 41.5436978,190.112673 43.9636223,188.466467 C44.7005703,187.965142 45.3190965,187.364304 46.8323513,185.758199 C47.2037772,185.363983 47.4050235,185.151967 47.6321404,184.917322 C49.7319042,182.747957 51.132927,181.784856 52.7679827,181.93121 C53.9597954,182.037889 54.2596842,183.021917 53.8997315,184.010777 C53.7426201,184.442393 53.593395,184.709414 52.9915927,185.713921 C52.5485917,186.458496 52.360139,186.817799 52.26693,187.088514 C52.1001736,187.572839 51.9092884,188.09629 51.6648103,188.745126 C51.5206947,189.127605 50.9860219,190.527959 51.0050285,190.47799 C50.8168568,190.972702 50.6674804,191.37058 50.5270527,191.752962 C49.6007038,194.275396 49.1266858,196.004745 49.0690801,197.336 C48.5703359,208.861878 49.0195136,219.455567 50.4752136,231.49782 C50.6061657,229.801891 50.7321651,228.190769 50.8046091,227.383401 C51.2255236,222.692431 51.7064135,219.384191 52.3657226,217.347105 C54.2583082,211.499529 56.626726,207.037191 62.210437,197.883073 C62.5909915,197.25918 63.4452008,196.498805 64.2552221,196.018904 C64.7325874,195.736086 65.1663076,195.562693 65.5788946,195.541976 C66.4208557,195.499697 67.0265711,196.131965 66.9610628,196.996994 C66.7529424,199.745195 66.2131,201.986838 64.862146,206.454545 C63.6127304,210.583826 63.1610168,212.307412 62.8477747,214.473078 C62.4278145,217.376561 62.30503,219.521068 62.1875876,224.238086 C62.1711941,224.896524 62.16317,225.209433 62.1527124,225.585878 C62.0266245,230.124695 61.7735836,233.020961 61.0644833,236.410404 L58.9105733,244.543304 C57.0534031,245.70562 56.0323305,246.481459 55.5176604,246.998561 C57.6411905,246.956003 61.2617501,245.805915 63.011783,244.591891 C67.6671679,241.362383 70.4419299,232.742773 69.6948024,221.395835 C69.5166884,218.690743 69.8512247,215.681547 70.6289993,212.230326 C71.1337149,209.990751 71.7775399,207.729785 72.7318693,204.709281 C72.9424284,204.04285 73.8171627,201.317352 74.0306906,200.639155 C74.4961671,199.160733 74.8259827,198.045246 75.0852055,197.048186 C76.4745403,191.704323 76.7655732,187.258593 76.7993248,177.096546 C76.8009171,176.61713 76.8016541,176.403837 76.8026822,176.13733 C76.8263529,170.001223 76.9504573,166.624162 77.404015,162.907972 C78.093775,157.256478 79.1121222,153.44554 80.5320752,150.465096 C80.8856261,149.723002 81.2516269,149.052443 81.7009569,148.300233 C81.8570723,148.038885 82.562108,146.893123 82.7387827,146.592836 C84.5246285,143.557514 84.8890515,140.642524 83.8417281,132.697462 C83.013325,126.413143 82.5643283,121.762243 82.3509529,117.90725 C82.2757514,116.548606 82.1515379,112.588623 82.0796377,111.847311 C81.853882,109.519707 81.9210101,109.694969 76.3365367,96.4428921 C75.283893,93.9449457 72.6427243,88.1123895 72.4271696,87.6108247 C71.8953051,86.3732527 71.4503113,85.2505775 71.0218286,84.0479935 C70.1188389,81.5136526 69.2643743,78.5393061 68.2565537,74.3643374 C67.6795894,71.974222 66.9040253,70.873766 64.995861,69.1937989 C64.9879353,69.186821 64.5469398,68.8000152 64.4167677,68.6846594 C64.1880898,68.4820098 63.9967278,68.3083652 63.81188,68.1344515 C61.1609872,65.6403631 59.6607316,62.5965677 58.8133049,56.7011685 C57.968011,50.8206063 57.8813881,46.9773339 58.7784695,44.5913316 C59.9955314,41.3542649 62.9203864,40.9869419 67.1346231,43.5074742 C67.3718597,42.7471749 67.4528585,41.9176214 67.5533781,39.9756777 C67.5933782,39.202913 67.6024929,39.0329882 67.624259,38.6790307 C67.7197766,37.1257305 67.8505404,36.022592 68.0916392,35.0643008 C69.578168,29.1558211 76.0491903,24.1340324 85.8923643,19.9057449 C92.4896122,17.0717951 100.511627,14.7451104 104.94745,13.9748242 C111.902455,12.7670785 113.958459,12.5452761 117.694538,12.6635031 L119.01507,12.7052909 L118.616263,13.9648564 C117.867656,16.3292075 117.560167,19.0050208 117.723982,22.0227012 C117.944665,26.0879804 119.773107,29.1213799 124.141097,33.7738582 C124.596932,34.2593816 126.237455,35.9794861 126.23898,35.9810935 C131.806319,41.8485019 134.303696,45.7425401 135.110122,51.5561519 C136.814685,63.8445265 135.932487,72.3259419 132.473451,88.2882115 C131.780058,91.4879806 131.722768,91.7538718 131.460849,93.0063412 C130.696184,96.6628817 130.174427,99.5354453 129.790285,102.369026 C129.015357,108.085196 128.844627,109.61186 128.80205,111.691469 C128.751319,114.169385 128.908867,115.941331 129.792791,123.62134 C129.831486,123.957546 131.301503,124.851304 134.121248,125.827476 L134.677339,126.01999 L141.079088,162.499703 C141.675852,151.530983 142.221502,144.440767 142.719767,141.199453 C143.18386,138.180438 143.839145,136.370088 144.763349,135.389017 C145.381241,134.733106 145.891515,134.540655 146.819406,134.39807 C149.067066,133.647123 151.969782,133.647123 155.766168,134.301561 L164.835795,135.416652 C163.176225,134.333698 161.975261,133.250354 161.230171,132.153364 Z M117.662909,13.6630028 C117.405271,13.6548499 117.154915,13.6485659 116.910086,13.6442729 C113.357782,13.6034178 110.982105,13.9418639 105.11854,14.9600794 C99.856114,15.8739065 72.1827137,22.9021276 69.0614173,35.3082896 C68.1064107,39.1041376 69.1655486,45.8883909 66.6260688,44.3685227 C58.7291722,39.6422626 58.3664218,46.5639513 59.8031312,56.5588872 C61.7168456,69.8722635 67.3647065,66.4082367 69.2286322,74.1296816 C72.0533005,85.8310715 73.4032242,86.9069593 77.2580563,96.0545603 C86.442596,117.849674 81.0602469,103.945279 84.8331514,132.566772 C87.3402693,151.585927 80.8830499,142.656993 78.3966492,163.029122 C77.0098487,174.391763 78.9268625,186.246057 76.053031,197.299808 C74.3775032,203.744468 70.1726292,213.432485 70.6926417,221.330133 C71.5150121,233.819817 68.1643078,242.234571 63.5817742,245.413542 C59.5906806,248.182222 48.246552,250.037719 58.045071,243.905281 L60.0978099,236.154391 C61.7286503,228.343262 60.7147037,222.234858 61.8580738,214.329927 C62.7128133,208.420505 65.5128107,202.878292 65.963918,196.921481 C66.0497053,195.78867 63.6474367,197.447558 63.0641531,198.403812 C59.3331206,204.520588 55.5454834,210.770033 53.3171326,217.655031 C51.2306832,224.101594 51.2607623,244.552772 50.3029925,237.832331 C48.3078954,223.833213 47.4572616,211.453377 48.070015,197.292768 C48.1976362,194.343469 50.1960874,190.031324 51.3214053,186.762964 C51.8058537,185.355937 53.8711572,183.033953 52.6788292,182.927228 C50.0502656,182.691946 47.1831401,187.48577 44.5260859,189.293289 C30.9150763,198.552472 19.584483,222.625324 36.1593885,183.886857 C37.8071866,180.035664 41.868012,175.827963 42.6439468,173.038644 C42.8668085,172.237505 45.6588866,170.453263 44.5473615,170.182833 C38.7145723,168.763735 31.9263725,184.85785 28.590835,188.458158 C19.1540531,198.644019 21.2721471,204.469972 26.1931774,172.176496 L30.0690333,160.252453 C37.2736584,141.772864 50.8834147,126.946039 55.4861553,107.2948 C58.2346409,95.5602375 55.9764509,85.5553362 55.5425696,73.4124254 C55.1546827,62.5567464 52.0473943,48.5771483 52.6648948,39.3163696 C54.3011577,14.7770098 65.2238198,1.23446739 95.493902,0.458409399 C101.446164,0.305806566 118.557935,-1.61857305 127.982046,3.78721155 C128.234188,3.93184309 128.77723,4.69595919 129.41788,5.75556648 C140.93224,12.8635415 134.498514,18.9688586 141.32783,31.8327383 C146.360549,41.3125001 144.011883,51.6028303 150.525559,69.5000745 C160.164542,95.9845397 155.395275,98.1133589 157.040784,117.804231 C157.05434,117.966438 157.798323,125.320897 162.0574,131.591499 C163.259402,133.361197 165.906935,135.183733 170,137.059109 L155.644139,135.294087 C151.953174,134.658962 149.203956,134.658962 147.396484,135.294087 C146.452143,135.625918 144.715902,134.795805 143.708157,141.351391 C143.094101,145.345944 142.399933,155.362052 141.625652,171.399715 L133.794105,126.772451 C130.568765,125.655865 128.903847,124.643608 128.799349,123.73568 C127.460968,112.107109 127.460968,112.107109 128.799349,102.234687 C130.927544,86.536291 137.0248,72.6373926 134.119606,51.6935498 C132.204432,37.8868561 117.356633,33.7040965 116.725452,22.0769064 C116.574078,19.2884086 116.815342,16.8290414 117.377953,14.6549625 C117.513817,14.1508156 117.586276,13.9050357 117.662909,13.6630028 Z" id="hair-outline" fill="#000000" fill-rule="nonzero" opacity="0.05"></path>
            </g>
        </g>
    </g>
</svg>