<?xml version="1.0" encoding="UTF-8"?>
<svg width="480px" height="300px" viewBox="0 0 480 300" version="1.1" xmlns="http://www.w3.org/2000/svg" xmlns:xlink="http://www.w3.org/1999/xlink">
    <!-- Generator: Sketch 50.2 (55047) - http://www.bohemiancoding.com/sketch -->
    <title>Artboard</title>
    <desc>Created with Sketch.</desc>
    <defs></defs>
    <g id="Artboard" stroke="none" stroke-width="1" fill="none" fill-rule="evenodd">
        <rect id="Frame" fill="#E6E6E6" x="0" y="0" width="480" height="300"></rect>
        <g id="Avatars" transform="translate(87.000000, 27.000000)">
            <g id="Human" transform="translate(29.000000, 31.000000)">
                <g id="Female" transform="translate(14.000000, 0.000000)">
                    <path d="M5,240.751594 C7.38503227,214.819465 9.14653879,198.422018 10.2845196,191.559252 C11.1010847,186.634833 9.74599048,181.544414 10.3061597,176.584283 C11.4365389,166.575113 18.3510401,143.732415 23.6558925,140.332286 C28.4012131,137.290788 43.0281876,135.926589 48.2326836,133.762795 C53.1472233,131.719553 76.1201602,128.766998 79.709704,124.837276 C82.5420816,121.736476 82.0034303,114.223023 78.09375,102.296917 C65.9055971,87.6764496 59.4236631,78.919486 58.647948,76.0260265 C57.5005948,71.7463362 52.0117924,57.2113479 51.7763672,45.5732422 C51.5296122,33.375055 56.6436697,24.0809123 60.2518374,20.6824299 C73.3785978,8.31851848 114.591703,-4.96126157 127.061538,17.4881208 C131.784233,25.9903664 133.85836,46.0334392 135.505968,64.5898438 C136.445669,75.173335 133.529188,90.1172103 130.854492,93.4384766 C129.711805,94.8573921 127.061538,98.2070313 125.455388,98.2070313 C124.384622,98.2070313 124.384622,99.9036599 125.455388,103.296917 L128.580675,121.030873 C136.801584,123.760677 144.094015,129.258902 152.702345,130.299211 C181.362758,133.762795 171.362758,132.332286 188.717271,149.055778 C198.280473,158.271256 202.66345,189.313529 204.336179,200.215304 C205.27174,206.312688 207.859748,219.824785 212.100205,240.751594 L181.362758,240.751594 L0.974969411,240.751594 L5,240.751594 Z" id="Path-3" fill="#E1B499"></path>
                    <polygon id="Path-6" fill="#000000" opacity="0.5" points="39.65625 240.261719 47.1875 203.109375 47.1875 240.261719"></polygon>
                    <polygon id="Path-6" fill="#000000" opacity="0.5" transform="translate(174.765625, 222.576172) scale(-1, 1) translate(-174.765625, -222.576172) " points="171 241.152344 178.53125 204 178.53125 241.152344"></polygon>
                    <path d="M148.338083,236.362908 C154.332318,235.782877 161.003084,232.367127 165.347853,227.161656 C170.641448,220.819395 172.265782,212.408601 169.186054,202.410092 C168.376752,199.782646 167.641761,198.125887 166.777822,196.812429 C166.482134,196.36289 166.191219,195.97539 165.73973,195.41365 C163.773359,192.967104 163.060788,191.87546 161.712938,188.758187 L162.630812,188.361315 C163.937263,191.382842 164.604216,192.4046 166.519177,194.787182 C166.988847,195.371542 167.296863,195.781822 167.613292,196.262892 C168.53395,197.662583 169.306454,199.403898 170.141746,202.115721 C173.320271,212.434984 171.62789,221.19813 166.115575,227.802439 C161.599326,233.213361 154.685973,236.753326 148.434398,237.358259 C130.566903,239.087205 118.816479,231.968861 112.848096,214.815197 C112.777042,215.430623 112.688996,215.929441 112.579501,216.311682 C108.520665,230.480945 96.1716919,239.669712 82.2613264,240.210231 C68.0340477,240.763065 56.1078439,232.179737 52.4493042,216.868342 C51.0354378,210.951154 51.2371709,205.723539 52.7358782,199.15962 C52.9844604,198.0709 53.2684792,196.936187 53.6275711,195.578956 C53.768273,195.047156 53.9148925,194.501714 54.1122101,193.773924 C54.0908185,193.852825 54.4949368,192.364545 54.6073764,191.948245 C54.9843815,190.552412 55.2621849,189.49437 55.5251063,188.438893 L56.4954535,188.680609 C56.2306717,189.743554 55.9513507,190.807375 55.5727829,192.208995 C55.4601366,192.62606 55.0558147,194.11509 55.0773669,194.035596 C54.8805361,194.761591 54.7343946,195.305255 54.5943072,195.834732 C54.2379006,197.181813 53.9565122,198.306017 53.7107889,199.382217 C52.2437302,205.807523 52.0477896,210.885035 53.4219245,216.635942 C56.9670386,231.472639 68.4621075,239.745677 82.2224984,239.210985 C95.7112431,238.686849 107.681205,229.780101 111.618165,216.036303 C111.819941,215.331911 111.950185,214.060202 112.028625,212.29822 C110.978188,208.760785 110.144241,204.862482 109.525201,200.575037 L108.828854,195.752169 L113.049307,207.390141 C113.178758,207.528267 113.180197,207.532135 113.208628,207.608565 C113.255357,207.723935 113.290107,207.901006 113.334178,208.206237 L114.030524,213.029106 L113.090996,210.438339 C113.08816,210.551732 113.085647,210.650028 113.083797,210.718587 C113.069444,211.250551 113.053983,211.719852 113.035296,212.165427 C118.584883,230.576244 130.173645,238.120588 148.338083,236.362908 Z M113.176334,207.960495 C113.177353,207.955568 113.178159,207.950465 113.179005,207.944813 C113.178558,207.947803 113.178113,207.950879 113.17767,207.954042 L113.176334,207.960495 Z M112.287225,208.006561 C112.284543,207.99387 112.28267,207.986199 112.281771,207.983979 C112.282016,207.984585 112.283834,207.992112 112.287225,208.006561 Z M112.175662,207.91429 L111.490439,206.024778 C111.690635,206.990639 111.903852,207.932492 112.130146,208.850496 C112.143661,208.385783 112.156888,208.101171 112.175662,207.91429 Z" id="Path-7" fill="#000000" fill-rule="nonzero" opacity="0.300000012"></path>
                    <path d="M125.212835,5.57550483 C136.240642,12.4086975 130.074434,18.2834359 136.628806,30.6523438 C141.462138,39.7734375 139.206522,49.6744316 145.462138,66.8945312 C154.719243,92.3769531 150.138926,94.4252282 151.719243,113.371094 C151.732261,113.527164 152.446769,120.603366 156.537109,126.636719 C157.69149,128.339459 160.234134,130.09304 164.165039,131.897461 L150.37793,130.199219 C146.833194,129.588123 144.192894,129.588123 142.457031,130.199219 C141.550103,130.518495 139.882649,129.719789 138.914829,136.027344 C138.325101,139.870763 137.658434,149.50791 136.914829,164.938786 L129.393553,122 C126.295995,120.92566 124.697037,119.951702 124.59668,119.078125 C123.311323,107.889523 123.311323,107.889523 124.59668,98.390625 C126.64056,83.2861802 132.496253,69.9131485 129.706158,49.7617187 C127.866859,36.4774032 113.607302,32.4528989 113.001127,21.265625 C112.833098,18.1645629 113.168821,15.486558 113.902578,13.1664752 C110.207179,13.0502699 108.069056,13.3359011 101.864329,14.4159331 C96.8102792,15.2956714 70.2324562,22.0605232 67.2336483,33.9975267 C66.3161189,37.6498287 67.3326687,44.1772671 64.8939275,42.7151474 C57.3102927,38.1684649 56.9612671,44.8282706 58.3401324,54.4448641 C60.1767978,67.2542836 65.6012517,63.9208094 67.3906217,71.349901 C70.1023055,82.6082469 71.398654,83.6432973 75.0999315,92.4443937 C83.9186111,113.413924 78.7507698,100.036173 82.3715504,127.574277 C84.777581,145.873513 78.5769848,137.283052 76.18718,156.884531 C74.8542563,167.817339 76.6942265,179.222887 73.9332066,189.858632 C72.3234513,196.059582 68.284243,205.381396 68.7829203,212.980149 C69.57155,224.997146 66.3527938,233.093798 61.9514928,236.152903 C58.1182413,238.817188 47.2233171,240.60353 56.6342567,234.702231 L58.6064023,227.244443 C60.1733678,219.728736 59.2001561,213.851569 60.2989702,206.245654 C61.1204014,200.559764 63.8099984,195.227008 64.243791,189.495561 C64.3262855,188.405608 62.0190239,190.001947 61.4587569,190.922071 C57.8749526,196.807735 54.2367735,202.821054 52.0960533,209.445732 C50.0916541,215.64855 50.1186359,235.325853 49.1994328,228.859803 C47.2846723,215.390598 46.4688885,203.479294 47.0586884,189.854466 C47.1815289,187.016757 49.1012168,182.867597 50.1822618,179.722806 C50.6476508,178.368977 52.6313574,176.134664 51.4862713,176.032089 C48.9618555,175.805954 46.2078592,180.418648 43.655891,182.158017 C30.5831944,191.068101 19.699199,214.231092 35.6211292,176.956945 C37.2040116,173.251327 41.1043668,169.202468 41.8498242,166.518624 C42.0639323,165.747779 44.7455735,164.030793 43.6781047,163.770699 C38.0765032,162.405844 31.5557061,177.891589 28.3519644,181.355972 C19.2880546,191.15728 21.3217012,196.762582 26.050803,165.690633 L29.7742349,154.217435 C36.6951837,136.436442 49.7671955,122.169396 54.1894379,103.261332 C56.8301407,91.9705488 54.6623372,82.3444435 54.2467748,70.6610611 C53.875265,60.2161973 50.8923689,46.765877 51.4862713,37.8554688 C53.0600032,14.2445263 63.5512455,1.21341609 92.6223049,0.463903427 C98.3387926,0.316520426 114.772891,-1.53663519 123.823179,3.66371624 C124.066746,3.80367124 124.592933,4.54668679 125.212835,5.57550483 Z" id="Combined-Shape" fill="#000000"></path>
                    <path d="M74.1545451,92.004417 L74.7360799,91.1908955 C81.5129252,96.03523 90.7272209,99.7033151 99.3274325,100.713815 C109.298363,101.885371 117.724797,99.5186604 123.278607,93.2694164 L124.02608,93.9337086 C118.229572,100.456041 109.479795,102.913568 99.2107382,101.706983 C90.4393327,100.676368 81.0659915,96.9449693 74.1545451,92.004417 Z" id="Path-10" fill="#000000" fill-rule="nonzero" opacity="0.300000012"></path>
                </g>
            </g>
        </g>
    </g>
</svg>