<?xml version="1.0" encoding="UTF-8"?>
<svg width="480px" height="300px" viewBox="0 0 480 300" version="1.1" xmlns="http://www.w3.org/2000/svg" xmlns:xlink="http://www.w3.org/1999/xlink">
    <!-- Generator: Sketch 50.2 (55047) - http://www.bohemiancoding.com/sketch -->
    <title>Artboard</title>
    <desc>Created with Sketch.</desc>
    <defs></defs>
    <g id="Artboard" stroke="none" stroke-width="1" fill="none" fill-rule="evenodd">
        <rect id="Frame" fill="#E6E6E6" x="0" y="0" width="480" height="300"></rect>
        <g id="Avatars" transform="translate(87.000000, 27.000000)">
            <g id="Human" transform="translate(29.000000, 31.000000)">
                <g id="Male" transform="translate(0.000000, 5.000000)">
                    <path d="M0,236.751594 C2.38503227,210.819465 4.14653879,194.422018 5.28451955,187.559252 C6.10108467,182.634833 4.74599048,177.544414 5.30615968,172.584283 C6.4365389,162.575113 42.3510401,141.732415 47.6558925,138.332286 C52.4012131,135.290788 57.0281876,131.926589 62.2326836,129.762795 C67.1472233,127.719553 74.1201602,129.766998 77.709704,125.837276 C80.5420816,122.736476 81.5708318,117.709169 80.7959545,110.755355 C74.1396652,91.1625956 70.4236631,79.919486 69.647948,77.0260265 C67.2980254,68.2606868 66.2011716,25.323353 73.2518374,18.6824299 C86.3785978,6.31851848 136.591703,-5.96126157 149.061538,16.4881208 C156.477784,29.8395516 163.009412,75.86671 156.505968,88.998024 C147.455388,107.272346 141.358313,105.272346 147.455388,107.296917 L148.580675,117.030873 C156.801584,119.760677 159.058163,116.739494 167.702345,117.299211 C182.523699,118.258905 179.812499,118.063939 195.151363,125.889664 C211.227315,134.091443 229.356128,135.102489 235.717271,155.055778 C239.748533,167.70082 234.66345,185.313529 236.336179,196.215304 C237.27174,202.312688 238.193082,215.824785 239.100205,236.751594 L195.362758,236.751594 L14.9749694,236.751594 L0,236.751594 Z" id="Path-3" fill="#E1B499"></path>
                    <path d="M156.451897,48.096333 C156.577512,48.2363756 156.713146,48.4103384 156.859375,48.6201172 C162.196286,56.2764212 159.719825,70.7522761 160.472656,80.0546875 C164.139763,125.367549 89.4014507,125.103135 80.1643664,87.3919822 C80.0679751,89.4050115 79.9051133,91.8394549 79.6757812,94.6953125 L80.203125,109.167969 L81.0039062,115.996248 L81.0039062,121.412109 C75.9492208,114.164225 70.4453146,110.082844 64.4921875,109.167969 C59.4268991,108.389536 69.6174801,99.819689 69.6796875,94.6953125 C69.8577134,80.0303079 66.2321658,65.5554454 65.1992187,50.9257812 C62.7196654,15.8077832 81.2087473,3.46313536 116.488281,1.5 C123.986288,1.08277219 135.851204,-1.0879436 145.214844,3.57421875 C158.625236,10.2512615 163.552724,36.3211252 160.589844,48.4570312 C160.257688,49.817536 158.010355,48.9231261 156.451897,48.096333 Z M155.670626,47.6570015 C155.665815,47.6541389 155.661023,47.6512842 155.65625,47.6484375 C149.661529,44.0734078 144.009706,30.8971109 138.679688,26.390625 C133.978362,22.4156939 133.050042,16.9361853 126.960938,16.2109375 C120.780615,15.4748251 114.559749,14.8376514 108.335937,14.8867187 C105.089106,14.9123162 101.73192,15.2238939 98.71875,16.4335937 C92.0633436,19.105545 83.758382,29.5223601 79.6523437,35.4023437 C75.9040441,40.7700337 78.0795607,48.433576 78.0859375,54.9804687 C78.0866555,55.7176515 76.3011832,52.6858342 74.9082031,52.3232422 C73.3043688,51.9057649 72.0665916,54.1338479 72.1269531,54.9804687 C72.3189234,57.6730115 72.5200416,69.5075374 73.4023438,71.6552734 C75.1008392,75.7898208 78.952336,75.9883641 79.9852488,80.2856651 L80.1601562,79.578125 C85.9201993,89.3099823 87.9648892,96.865858 100.210938,100.554688 C123.094601,107.447845 154.745053,102.202077 156.859375,74.8710938 C157.370032,68.2700392 153.656852,48.231446 155.670626,47.6570015 Z" id="Combined-Shape" fill="#000000"></path>
                    <polygon id="Path-6" fill="#000000" opacity="0.5" points="53.65625 236.261719 61.1875 199.109375 61.1875 236.261719"></polygon>
                    <polygon id="Path-6" fill="#000000" opacity="0.5" transform="translate(189.765625, 217.576172) scale(-1, 1) translate(-189.765625, -217.576172) " points="186 236.152344 193.53125 199 193.53125 236.152344"></polygon>
                    <path d="M125.242698,183.566528 C125.160281,183.276324 128.754257,195.10599 129.42365,198.104792 C130.715743,203.89322 130.834979,209.069132 129.59282,215.624339 C128.804086,219.786707 124.770569,223.152143 118.524665,225.696254 C113.840671,227.60416 108.037315,228.925041 104.082767,229.209648 C102.188441,229.345981 100.284378,229.496924 98.1853304,229.674671 C96.8464833,229.788044 90.3220783,230.365359 88.6615805,230.50095 C85.4089291,230.766551 83.0224336,230.910892 80.9164603,230.952913 C75.9138545,231.052731 72.5026227,230.544659 69.8367652,229.167816 C64.2822543,226.299061 61.8351335,219.624105 60.3967109,204.269292 L61.3923516,204.176021 C62.8006152,219.208892 65.1520235,225.622776 70.2956494,228.27932 C72.7830561,229.563998 76.0454756,230.049905 80.8965111,229.953112 C82.977971,229.91158 85.346245,229.768341 88.5801945,229.504267 C90.2365759,229.369012 96.7588996,228.791882 98.1009525,228.678237 C100.203937,228.500157 102.112101,228.348889 104.010983,228.212227 C114.588031,227.451004 127.316405,222.266424 128.610305,215.438161 C129.826675,209.019041 129.710603,203.980447 128.44767,198.322651 C127.802016,195.430196 124.359783,184.083621 124.281029,183.83964 L125.242698,183.566528 Z M170.642685,223.773428 C170.068071,223.79601 169.666858,223.808812 168.560557,223.841707 C165.943756,223.919514 164.793591,223.978087 163.577189,224.129008 C149.988163,225.815024 141.907786,224.534309 136.925051,220.025175 C132.652474,216.158701 130.74507,210.675075 128.623782,198.559459 C128.464317,197.648683 128.301157,196.695368 128.083561,195.408176 C128.081784,195.397659 127.651284,192.844838 127.523159,192.090234 C127.047749,189.290279 126.669331,187.144553 126.258606,184.959557 L127.241394,184.774818 C127.653386,186.966555 128.032739,189.117587 128.509048,191.922838 C128.637286,192.678099 129.067877,195.231466 129.069572,195.241494 C129.28687,196.526923 129.449733,197.478505 129.608798,198.386996 C131.691874,210.284365 133.547927,215.620363 137.596041,219.28371 C142.312568,223.551937 150.12569,224.790293 163.454061,223.136617 C164.712996,222.980419 165.880978,222.920939 168.530837,222.842149 C169.633784,222.809354 170.033158,222.79661 170.603417,222.7742 C177.797326,222.491493 181.079629,221.350056 181.464249,218.024585 L181.482858,217.863682 L184.943674,214.086471 C185.625794,208.12041 185.739688,203.239016 185.670141,192.34419 C185.634959,186.832735 185.637858,184.383373 185.711081,181.323974 L186.710794,181.347901 C186.637894,184.393826 186.635003,186.836462 186.670121,192.337806 C186.74055,203.370878 186.623329,208.268638 185.918564,214.362134 L185.899954,214.523037 L182.43681,218.302789 C181.888319,222.234512 178.229304,223.475289 170.642685,223.773428 Z" id="Combined-Shape" fill="#000000" fill-rule="nonzero" opacity="0.3"></path>
                </g>
            </g>
        </g>
    </g>
</svg>