<?xml version="1.0" encoding="UTF-8"?>
<svg width="480px" height="300px" viewBox="0 0 480 300" version="1.1" xmlns="http://www.w3.org/2000/svg" xmlns:xlink="http://www.w3.org/1999/xlink">
    <!-- Generator: Sketch 50.2 (55047) - http://www.bohemiancoding.com/sketch -->
    <title>Avatars</title>
    <desc>Created with Sketch.</desc>
    <defs></defs>
    <g id="Avatars" stroke="none" stroke-width="1" fill="none" fill-rule="evenodd">
        <rect id="Frame" fill="#E6E6E6" x="0" y="0" width="480" height="300"></rect>
        <g id="Human" transform="translate(109.000000, 42.000000)">
            <g id="Male">
                <path d="M0,258 C2.61345846,229.589054 4.54367306,211.624197 5.7906438,204.10543 C6.68541535,198.710292 5.20053717,193.133286 5.81435651,187.699024 C7.05299767,176.733091 46.4072061,153.898068 52.2201302,150.172926 C57.4199333,146.840695 62.4900557,143.154916 68.1930117,140.784289 C73.5782408,138.545735 81.21901,140.788893 85.1523419,136.483534 C88.2559902,133.086333 89.3832688,127.578473 88.5341777,119.959953 C81.2403831,98.4943487 77.1684813,86.1765257 76.3184722,83.0064843 C73.7434861,73.4032778 72.5415812,26.3616231 80.2675236,19.0859032 C94.651498,5.54014249 149.673758,-7.91344491 163.33789,16.6818431 C171.464425,31.3095189 178.621619,81.7363503 171.49531,96.1228687 C161.577911,116.144007 154.896889,113.95283 161.577911,116.170928 L162.810972,126.83534 C171.819237,129.826082 174.29194,126.516107 183.764018,127.129327 C200.004886,128.180757 197.03402,127.967155 213.841963,136.54093 C231.457587,145.526706 251.322685,146.634397 258.293066,168.494993 C262.710421,182.348757 257.138315,201.64504 258.971249,213.588902 C259.996413,220.269126 261.005997,235.072826 262,258 L214.073604,258 L16.4091954,258 L0,258 Z" id="body" fill="{skin-color}"></path>
                <polygon id="armpit-l" fill="#000000" opacity="0.5" points="59 258 67 217 67 258"></polygon>
                <polygon id="armpit-r" fill="#000000" opacity="0.5" transform="translate(208.000000, 237.500000) scale(-1, 1) translate(-208.000000, -237.500000) " points="204 258 212 217 212 258"></polygon>
                <path d="M136.845198,200.439469 C136.755156,200.123783 140.681628,212.992194 141.41295,216.254317 C142.824581,222.551018 142.954847,228.181418 141.597771,235.312228 C140.736067,239.840087 136.32939,243.501037 129.505648,246.268542 C124.388315,248.343979 118.048063,249.780845 113.727661,250.090442 C111.658082,250.238747 109.577865,250.402943 107.284624,250.596298 C105.821914,250.719627 98.6939055,251.347634 96.8797871,251.495131 C93.3262175,251.784055 90.7189359,251.94107 88.4181291,251.986781 C82.9527083,252.095363 79.2258873,251.542679 76.3133986,250.044937 C70.2450135,246.924281 67.571498,239.663207 66,222.960111 L67.0877523,222.85865 C68.6263009,239.211535 71.1952492,246.188612 76.8147364,249.078424 C79.532265,250.475908 83.0965064,251.004481 88.3963343,250.899189 C90.6703599,250.85401 93.2577341,250.698194 96.7908718,250.410931 C98.6004929,250.2638 105.726228,249.635993 107.19244,249.512369 C109.489982,249.318652 111.574679,249.154101 113.649236,249.00544 C125.204817,248.177374 139.110753,242.537544 140.524358,235.109702 C141.853261,228.126928 141.72645,222.645904 140.346677,216.491305 C139.641291,213.344868 135.8806,201.001967 135.79456,200.736563 L136.845198,200.439469 Z M186.445353,244.176877 C185.817579,244.201441 185.379248,244.215368 184.170598,244.25115 C181.311704,244.33579 180.055132,244.399506 178.726195,244.563679 C163.879984,246.397742 155.052053,245.004569 149.60834,240.099495 C144.940487,235.893512 142.85662,229.928376 140.539082,216.748907 C140.364864,215.758157 140.18661,214.721133 139.948883,213.320914 C139.946941,213.309474 139.476614,210.532494 139.336635,209.711629 C138.817242,206.665814 138.403815,204.331675 137.955093,201.954818 L139.028802,201.753857 C139.47891,204.138048 139.893359,206.477958 140.413734,209.529534 C140.553835,210.351114 141.024262,213.128687 141.026114,213.139596 C141.263515,214.537896 141.441446,215.573036 141.615227,216.5613 C143.891017,229.503358 145.918783,235.307903 150.341407,239.292922 C155.494283,243.935937 164.030234,245.283031 178.591676,243.484148 C179.967081,243.314234 181.243118,243.249531 184.138128,243.163823 C185.343114,243.128148 185.779436,243.114285 186.402453,243.089907 C194.261905,242.782377 197.847869,241.540711 198.268071,237.923236 L198.288403,237.748204 L202.069395,233.639322 C202.814621,227.14939 202.939052,221.839369 202.863071,209.987884 C202.824633,203.992476 202.827801,201.328041 202.907798,198 L204,198.026028 C203.920356,201.339411 203.917196,203.996531 203.955563,209.98094 C204.032509,221.982809 203.904443,227.310634 203.134477,233.93919 L203.114145,234.114222 L199.330609,238.225869 C198.731375,242.502831 194.733847,243.852558 186.445353,244.176877 Z" id="breast" fill="#000000" fill-rule="nonzero" opacity="0.3"></path>
                <path d="M171.543429,52.2664107 C171.681383,52.4206222 171.830342,52.612186 171.990935,52.8431894 C177.852107,61.2741292 175.132375,77.2145965 175.959159,87.4581906 C179.986497,137.355636 97.9064157,137.064469 87.7619449,95.537845 C87.6560847,97.754545 87.4772246,100.435296 87.2253645,103.580099 L87.8045109,119.517044 L88.6839553,127.036183 L88.6839553,133 C83.1327329,125.018802 77.0881614,120.524483 70.5502408,119.517044 C64.9873739,118.659852 76.1790063,109.22294 76.2473245,103.580099 C76.4428384,87.4313444 72.4611423,71.49197 71.3267258,55.3821318 C68.6035985,16.7110275 88.9089184,3.11739491 127.654067,0.955636943 C135.888626,0.4961956 148.919067,-1.89414501 159.202526,3.2397173 C173.930262,10.592318 179.341792,39.2998319 176.087859,52.663603 C175.723074,54.1617585 173.254978,53.1768556 171.543429,52.2664107 Z M170.685411,51.7826292 C170.680128,51.779477 170.674865,51.7763335 170.669623,51.7731988 C164.086023,47.8364612 157.879004,33.3270363 152.025402,28.3646012 C146.862251,23.9875016 145.842739,17.9535971 139.155484,17.1549715 C132.36805,16.344382 125.53609,15.6427414 118.700894,15.6967733 C115.135117,15.7249605 111.448144,16.0680625 108.138981,17.4001552 C100.829794,20.3424444 91.7090115,31.8131934 87.1996247,38.2880916 C83.0831184,44.1988641 85.4723424,52.6377747 85.4793457,59.8470572 C85.4801342,60.6588254 83.5192696,57.3202603 81.9894529,56.9209825 C80.2280691,56.4612665 78.8687013,58.9147785 78.9349923,59.8470572 C79.1458205,62.8120213 79.3666951,75.8439197 80.3356684,78.2089556 C82.2010122,82.7618208 86.430853,82.980452 87.5652321,87.7125376 L87.7573212,86.9334113 C94.0831905,97.6499011 96.3287365,105.970252 109.777751,110.032303 C134.909345,117.622884 169.668916,111.846369 171.990935,81.7501404 C172.551755,74.4812161 168.473818,52.4151939 170.685411,51.7826292 Z" id="hair" fill="{hair-color}"></path>
                <path d="M87.6839553,129.956205 L87.6839553,127.094253 L86.8051705,119.553359 L86.2260242,103.616415 C86.4796183,100.365427 86.6577862,97.6950512 86.7630833,95.4901436 L87.092845,88.5849719 L88.7333789,95.300535 C93.3241256,114.092862 114.224917,125.830735 137.129288,124.783088 C160.675224,123.706097 176.75247,109.717041 174.962401,87.5386413 C174.757176,84.9959698 174.747944,82.8023893 174.840548,77.3231454 C174.883546,74.7790236 174.898302,73.5508652 174.895559,72.0834867 C174.878723,63.0766568 173.914994,57.3627192 171.169855,53.4140025 C171.03224,53.2160525 170.907695,53.0556178 170.798128,52.9331386 L167.050326,48.7436615 L172.013061,51.3835482 C172.96939,51.8922599 173.854387,52.2570933 174.51405,52.387106 C174.796672,52.4428078 175.005353,52.4479804 175.117534,52.4217308 C176.733865,45.7766509 176.112499,35.3832884 173.426708,25.971892 C170.406577,15.3889178 165.262922,7.38297118 158.75586,4.13441811 C155.404911,2.46150703 151.562717,1.51880797 147.158519,1.16459725 C143.138145,0.841255849 139.428478,0.981546961 133.320892,1.5093892 C132.981696,1.53870389 131.802361,1.64167488 131.834884,1.63884437 C131.250852,1.68967329 130.81746,1.72673256 130.400895,1.76116846 C129.342196,1.84868737 128.49031,1.91053466 127.709775,1.95408407 C86.8122215,4.23593392 69.7914665,19.3437732 72.3242557,55.3118881 C72.7052798,60.7228073 73.2450174,65.0559241 74.6317544,74.77181 C74.7824724,75.8277845 74.8472739,76.2824464 74.9295145,76.8619786 C76.6679127,89.1121078 77.3395544,95.9682906 77.2472512,103.592205 C77.2257355,105.369328 76.3620561,107.36215 74.697968,110.015481 C74.3394908,110.58706 73.9541167,111.174583 73.4536054,111.918771 C70.8540353,115.783956 70.6828227,116.052341 70.2441049,117.132209 C69.8064469,118.209468 69.8768684,118.40148 70.702535,118.528708 C76.8232028,119.471852 82.4821454,123.298927 87.6839553,129.956205 Z M175.959159,87.4581906 C179.891088,136.173549 101.747098,137.050097 88.6019389,98.4196366 C88.6661316,97.4038069 88.7190879,96.4591303 88.7608066,95.5855464 L87.796579,95.6783375 C87.7719631,95.6166414 87.4366071,95.6489139 86.790511,95.775155 C87.0201511,96.7151921 87.287859,97.6381863 87.5920397,98.5435272 C87.4947301,100.064 87.372505,101.742857 87.2253645,103.580099 L87.8045109,119.517044 L88.6839553,127.036183 L88.6839553,133 C83.1327329,125.018802 77.0881614,120.524483 70.5502408,119.517044 C64.9873739,118.659852 76.1790063,109.22294 76.2473245,103.580099 C76.4428384,87.4313444 72.4611423,71.49197 71.3267258,55.3821318 C68.6035985,16.7110275 88.9089184,3.11739491 127.654067,0.955636943 C135.888626,0.4961956 148.919067,-1.89414501 159.202526,3.2397173 C173.930262,10.592318 179.341792,39.2998319 176.087859,52.663603 C175.840928,53.6777384 174.630208,53.5540761 173.342779,53.0859128 C173.173128,52.8084866 172.996283,52.5374345 172.812015,52.2723762 C172.630566,52.0113737 172.456945,51.787721 172.28873,51.5996828 L171.543429,52.2664107 L171.073798,53.1492732 C171.621526,53.4406331 172.152375,53.6928308 172.656631,53.8949065 C177.639287,62.5458352 175.165594,77.6261604 175.959159,87.4581906 Z M159.761909,40.2744535 C155.031536,33.0252018 153.548914,30.9671595 151.378747,29.127384 C150.207682,28.1346054 149.191968,27.0323747 148.096469,25.6328254 C147.79018,25.2415275 147.491216,24.8456813 147.097129,24.3135542 C146.989326,24.1679908 146.611373,23.6559149 146.624259,23.6733559 C146.438061,23.4213445 146.298274,23.2332013 146.162114,23.0518001 C143.723125,19.8024187 142.033792,18.5058194 139.036901,18.1479157 C130.290967,17.1034321 124.567871,16.6504264 118.708799,16.696742 C114.570467,16.7294553 111.325126,17.1955647 108.512408,18.327815 C102.674598,20.677806 94.7170196,29.2438602 88.0202262,38.8595924 C85.8410244,41.9886453 85.4653359,45.6109778 86.0154114,52.4261486 C86.0458529,52.8033044 86.0730995,53.128372 86.1278524,53.7728884 C86.3920237,56.8825447 86.4777468,58.2007079 86.4793452,59.8460858 C86.4801003,60.6233887 85.7605944,61.2608871 84.9276103,60.8601438 C84.7039524,60.7525434 84.5400197,60.6054139 84.3045994,60.3530397 C84.1597157,60.197722 83.4206561,59.3381748 83.2051929,59.1019949 C82.8369203,58.6983128 82.5198741,58.3921658 82.2370953,58.176103 C82.0245427,58.013698 81.8505129,57.9182183 81.7369155,57.8885697 C81.0161109,57.7004418 79.8830734,59.0813912 79.9324738,59.7761299 C79.9869735,60.5425809 80.2413297,67.0494147 80.332407,68.862031 C80.5763713,73.7173965 80.8894268,76.922874 81.2610153,77.8298339 C81.8733349,79.324362 82.6739973,80.2640915 84.2939764,81.6423534 C84.4061562,81.7377949 84.8389354,82.1033486 84.7833124,82.0562877 C85.900779,83.0017393 86.7040664,83.7871255 87.2965068,84.6249842 L87.3729274,84.3150173 L88.6184799,86.4250753 C89.7691228,88.3743492 93.2478019,94.7165699 93.1136107,94.4781369 C97.8143211,102.830432 101.733505,106.558056 110.066884,109.075014 C123.00285,112.982108 137.657313,113.101469 149.106559,109.080276 C162.019747,104.544919 169.944827,95.270472 170.993898,81.6732159 C171.180413,79.2557478 170.909868,75.6192782 170.106818,68.012525 C170.072964,67.6920656 170.072964,67.6920656 170.039056,67.3716662 C169.405537,61.3869797 169.200639,59.2399171 169.079493,56.8403811 C168.963885,54.5505624 168.976202,53.0148534 169.275251,52.0561663 C166.544007,50.1166955 164.042884,46.8350055 159.761909,40.2744535 Z M88.537681,87.4794214 L88.1336988,87.5762643 C88.0098033,87.3629568 87.8843853,87.1486674 87.7573212,86.9334113 L87.5652321,87.7125376 C87.4124066,87.0750229 87.2033987,86.5194272 86.9515589,86.0241161 L87.2965068,84.6249842 C87.8839645,85.4557961 88.2641069,86.3382017 88.537681,87.4794214 Z M84.4793461,59.8480287 C84.4791745,59.671313 84.5231878,59.4861663 84.70189,59.2944085 C85.1705402,59.8371946 85.4796589,60.1694634 85.4793457,59.8470572 C85.4790629,59.5559792 85.4748967,59.2628966 85.4674321,58.9680569 C85.5844544,58.977412 85.6954032,59.0101088 85.794674,59.0578673 C85.7273006,58.9461556 85.6068924,58.8084315 85.4577256,58.6371948 C85.2273997,51.7097507 83.3113593,43.8711395 87.1996247,38.2880916 C91.7090115,31.8131934 100.829794,20.3424444 108.138981,17.4001552 C111.448144,16.0680625 115.135117,15.7249605 118.700894,15.6967733 C125.53609,15.6427414 132.36805,16.344382 139.155484,17.1549715 C145.842739,17.9535971 146.862251,23.9875016 152.025402,28.3646012 C157.879004,33.3270363 164.086023,47.8364612 170.669623,51.7731988 C168.473818,52.4151939 172.551755,74.4812161 171.990935,81.7501404 C169.668916,111.846369 134.909345,117.622884 109.777751,110.032303 C96.8538339,106.128849 94.2756173,98.293122 88.4805241,88.1775723 L88.728248,87.1727877 L87.7573212,86.9334113 L87.4066115,87.1404328 C86.0802899,82.9544969 82.122797,82.570916 80.3356684,78.2089556 C79.3666951,75.8439197 79.1458205,62.8120213 78.9349923,59.8470572 C78.8687013,58.9147785 80.2280691,56.4612665 81.9894529,56.9209825 C82.8163934,57.1368116 83.769283,58.2114797 84.4702078,59.02522 C84.4762051,59.298157 84.4790747,59.5685619 84.4793461,59.8480287 Z" id="hair-outline" fill="#000000" fill-rule="nonzero" opacity="0.05"></path>
            </g>
        </g>
    </g>
</svg>