<?xml version="1.0" encoding="UTF-8"?>
<svg width="480px" height="300px" viewBox="0 0 480 300" version="1.1" xmlns="http://www.w3.org/2000/svg" xmlns:xlink="http://www.w3.org/1999/xlink">
    <!-- Generator: Sketch 50.2 (55047) - http://www.bohemiancoding.com/sketch -->
    <title>Artboard</title>
    <desc>Created with Sketch.</desc>
    <defs></defs>
    <g id="Artboard" stroke="none" stroke-width="1" fill="none" fill-rule="evenodd">
        <rect id="Frame" fill="#E6E6E6" x="0" y="0" width="480" height="300"></rect>
        <g id="Avatars" transform="translate(87.000000, 27.000000)">
            <g id="Tiefling" transform="translate(33.000000, 0.000000)">
                <g id="Female" transform="translate(14.000000, 0.000000)">
                    <path d="M4.42253521,272.730412 C7.00911951,244.587016 8.91948573,226.791337 10.1536339,219.343375 C11.0392045,213.999043 9.56959531,208.474558 10.1771028,203.09147 C11.403007,192.228805 18.9018322,167.43828 24.654982,163.748218 C29.8013157,160.447367 45.6643724,158.96684 51.308685,156.618538 C56.6385379,154.401065 81.5528498,151.196742 85.4457353,146.931927 C88.5174688,143.566718 87.9332976,135.412583 83.6932218,122.469523 C73.3688689,112.859156 67.7860583,106.483878 66.9447898,103.343689 C65.7004772,98.6990644 62.5310368,71.6747517 59.7387489,58.425751 C56.946461,45.1767502 67.0350627,30.5542518 70.9481459,26.8659763 C85.18421,13.4477778 123.275509,6.06529752 136.799133,30.4289683 C141.920929,39.6562116 144.170334,61.4083836 145.957177,81.5471172 C146.976288,93.0330767 143.813344,109.251236 140.912618,112.855711 C139.673366,114.395619 136.799133,118.030887 135.057252,118.030887 C133.895998,118.030887 133.895998,119.872189 135.057252,123.554794 L138.446648,142.800948 C147.362281,145.763526 155.270974,151.730592 164.606769,152.859609 C195.689189,156.618538 184.844118,155.066047 203.66521,173.215573 C214.03657,183.216867 218.789939,216.906155 220.604025,228.737539 C221.618647,235.354856 224.425361,250.019147 229.024166,272.730412 L195.689189,272.730412 L0.0573611917,272.730412 L4.42253521,272.730412 Z" id="Path-3" fill="#B05C5C"></path>
                    <polygon id="Path-6" fill="#000000" opacity="0.5" points="42.0074824 272.198765 50.1751761 231.878391 50.1751761 272.198765"></polygon>
                    <polygon id="Path-6" fill="#000000" opacity="0.5" transform="translate(188.619058, 251.834605) scale(-1, 1) translate(-188.619058, -251.834605) " points="184.535211 271.994792 192.702905 231.674419 192.702905 271.994792"></polygon>
                    <path d="M119.04478,244.878294 C127.422687,265.655674 136.270408,271.529692 154.507633,271.529692 C178.054751,271.529692 190.448217,253.191822 180.403158,230.177461 C175.851368,224.089237 172.375189,218.169523 169.975786,212.417294 L170.898712,212.032318 C173.270674,217.718761 176.716862,223.583212 181.23845,229.624641 C191.67558,253.43063 178.78637,272.529692 154.507633,272.529692 C135.577753,272.529692 126.380759,266.222711 117.73583,244.294799 C116.370178,249.82079 115.307111,253.412561 114.534706,255.097486 C110.117479,264.733239 95.9859797,272.13991 81.4801303,272.706113 C65.2005272,273.34155 52.451127,265.543649 48.4255191,249.878679 C47.119281,244.795675 46.9999488,240.837954 47.8194166,236.395306 C48.0464864,235.164275 48.3401648,233.897287 48.7660005,232.257217 C48.9358861,231.602917 49.7341693,228.625346 49.9545223,227.77627 C50.172277,226.937204 50.0682487,225.226345 49.6240731,220.777167 C49.1629505,216.157614 49.0596249,214.431085 49.31516,213.367743 L50.2874782,213.601404 C50.0726375,214.495407 50.1783922,216.262523 50.6125282,220.611728 C51.0865185,225.359556 51.1868047,227.008871 50.9224577,228.027469 C50.7007665,228.881702 49.9024632,231.859348 49.7339067,232.508529 C49.3135625,234.127449 49.0248657,235.372945 48.802827,236.576701 C48.0094327,240.877994 48.1243387,244.68892 49.3940497,249.629785 C53.2919319,264.797732 65.5992234,272.325227 81.4411272,271.706874 C95.6029546,271.154099 109.385479,263.930334 113.625672,254.680766 C114.325964,253.153147 115.306877,249.880383 116.558262,244.885779 L116.447549,244.872478 C117.191584,238.679207 116.300631,228.849436 114.575287,224.341516 L115.50922,223.984066 C116.985937,227.842383 117.860741,235.329864 117.691001,241.394615 L117.864554,241.849915 C117.63633,235.709197 118.517623,227.939526 120.031521,223.984066 L120.965453,224.341516 C119.240109,228.849436 118.349156,238.679207 119.093191,244.872478 L119.04478,244.878294 Z" id="Combined-Shape" fill="#000000" fill-rule="nonzero" opacity="0.3"></path>
                    <path d="M104.261407,12.810871 C133.141277,9.55517387 138.357496,30.1125029 146.090395,44.7157219 C151.332178,54.6145833 148.885946,65.3598483 155.670206,84.0483285 C165.709601,111.70367 160.742215,113.926604 162.45608,134.488009 C162.470199,134.657387 163.245088,142.336986 167.68109,148.884811 C168.933025,150.732746 171.690539,152.635857 175.953634,154.594144 L161.001417,152.75109 C157.157126,152.087886 154.293702,152.087886 152.411147,152.75109 C151.427577,153.097591 149.619211,152.230779 148.569603,159.076187 C147.930039,163.247339 147.207034,173.706259 146.400589,190.452946 L138.243712,143.852713 C134.884389,142.686763 133.150308,141.629754 133.04147,140.681686 C131.647491,128.539017 131.647491,128.539017 133.04147,118.230136 C135.258072,101.837715 141.608613,87.3243472 138.582735,65.4545785 C136.588002,51.0374919 121.123412,46.6698127 120.466011,34.5285853 C120.401863,33.343874 119.068796,29.3308411 114.807136,28.3296088 C111.80109,27.6233698 107.379586,30.3017015 105.028602,31.6691824 C104.954344,31.7900007 104.859484,31.8490896 104.74026,31.836118 C103.882206,32.3297253 103.371494,32.5868693 103.424048,32.3167091 C103.505937,31.8957506 103.554298,31.4506378 103.575051,30.9859253 C100.436959,28.3422653 99.4165065,26.7196605 88.3366862,28.6500279 C82.8554878,29.6049827 75.1714796,35.3910265 71.9187682,48.3460088 C70.9235533,52.3097764 71.6751706,64.4007382 69.3808516,61.0628754 C66.1899252,56.4205938 58.258784,50.7279918 59.3389263,53.6673994 C60.4190685,56.6068071 61.4526789,64.8116614 62.2728522,70.53723 C64.264221,84.4388255 70.1472239,80.8208918 72.0875153,88.8833847 C75.0279114,101.101613 76.4337719,102.224869 80.4474896,111.776281 C90.0105906,134.533514 84.4065538,120.015259 88.3322235,149.901371 C90.9408547,169.760873 84.2165946,160.438157 81.6240466,181.711135 C80.1780419,193.576228 82.1730507,205.954245 79.1782747,217.497002 C77.4322326,224.226767 73.051302,234.343606 73.5918185,242.590278 C74.4466147,255.631924 70.9555207,264.4191 66.1821474,267.739229 C62.0248446,270.630848 50.2091284,272.569946 60.4156142,266.165071 L62.554722,258.071285 C64.2544106,249.914656 63.1991884,243.536386 64.3911662,235.281877 C65.2822429,229.111124 68.1993484,223.323539 68.6700293,217.103359 C68.759539,215.920463 66.257229,217.653013 65.6495775,218.651618 C61.7626739,225.039291 57.8167952,231.565507 55.4949,238.755151 C53.320863,245.486959 53.349339,266.842129 52.3527131,259.824761 C50.2766759,245.207124 49.3924267,232.280184 50.0326143,217.493554 C50.1659493,214.413871 52.2480341,209.910839 53.4205629,206.497851 C53.9253356,205.028563 56.0767727,202.603653 54.8349205,202.492377 C52.0971775,202.247061 49.1102592,207.253185 46.3425569,209.140971 C32.164742,218.811333 20.3600244,243.949849 37.628992,203.496728 C39.3457905,199.475072 43.575923,195.080814 44.3844857,192.168092 C44.6167186,191.331508 47.5250515,189.468009 46.3673823,189.18578 C40.2924488,187.704768 33.2199662,204.511232 29.7453407,208.271148 C19.9150562,218.908568 22.1203406,224.991748 27.2503358,191.270129 L31.2888901,178.818471 C38.7954325,159.521031 52.9727186,144.036923 57.7694362,123.516406 C60.6337535,111.262761 58.2831353,100.815932 57.8329208,88.1363331 C56.3639113,46.7639369 56.0283469,13.0739812 99.4543377,11.9519853 C101.932609,11.8879543 103.420187,12.1120069 104.261407,12.810871 Z" id="Combined-Shape" fill="#000000"></path>
                    <path d="M78.263856,107.820993 L79.0400613,107.190513 C79.4904386,107.744988 79.8978329,108.357485 80.4804906,109.318187 C80.5786635,109.480057 80.9653924,110.123406 81.0613359,110.28166 C82.3605527,112.424663 83.247836,113.520297 84.4772545,114.241143 C86.3396647,115.333132 88.1427505,116.456301 90.2831031,117.840247 C90.7706655,118.155503 94.2227648,120.410997 95.1254425,120.986725 C98.5110279,123.146054 100.473816,124.140267 102.000506,124.359483 C111.384036,125.706853 115.785935,125.501937 118.970801,123.433562 C123.042345,120.789345 133.812413,107.89045 135.450854,104.715288 L136.339515,105.173853 C134.626573,108.493392 123.745799,121.524875 119.515458,124.272221 C116.060409,126.516063 111.471587,126.729681 101.858375,125.34933 C100.139104,125.102462 98.0970393,124.068093 94.587705,121.829838 C93.6794781,121.25057 90.2235807,118.992595 89.7401251,118.679994 C87.6110171,117.303318 85.8196187,116.18743 83.9714553,115.103794 C82.5552588,114.273434 81.5874234,113.078334 80.2062136,110.800087 C80.108953,110.639659 79.7222822,109.996408 79.6254561,109.836758 C79.0648129,108.912354 78.6782198,108.331131 78.263856,107.820993 Z" id="Path-10" fill="#000000" fill-rule="nonzero" opacity="0.3"></path>
                    <g id="horns" transform="translate(98.125084, 30.294980) rotate(-3.000000) translate(-98.125084, -30.294980) translate(45.625084, 3.294980)">
                        <path d="M6.15803761,24.3023453 C3.41635041,19.3265144 1.65613712,11.4473234 0.877397721,0.664772377 C2.57674768,5.86229291 4.55569606,10.2473256 6.81424284,13.8198703 C15.0370871,26.8266761 12.3197605,23.5394173 20.7736834,31.1301603 C25.4881541,35.3632643 30.9567337,34.9409219 36.7008989,35.1901796 C43.5902533,35.4891308 49.2691515,38.0493268 51.5762603,39.9492615 C53.0462992,41.1598581 53.023873,40.7809636 55.330206,43.5741553 C57.1504879,45.7786921 56.4284678,47.5739362 56.9300768,51.1770512 C56.3479539,50.8863033 56.4889979,52.597243 55.366276,53.3544969 C54.2435541,54.1117508 53.6521635,52.6318987 52.9978467,52.1171943 C50.4615217,50.1220481 48.1945739,47.3533546 42.9704752,46.4359888 C27.8190067,43.7753503 15.8668593,41.9226833 6.15803761,24.3023453 Z M102.542604,25.1573593 C91.7340368,45.9696385 90.1495934,39.0847303 73.8335877,45.9828897 C71.3970958,45.6273557 59.1572621,55.3737119 57.6269146,52.9543714 C56.5748342,51.2911277 57.9003746,42.9573053 59.2785211,41.6224443 C61.4414123,39.5274866 66.9033376,34.5561399 73.8426127,33.6630106 C79.6284005,32.9183426 81.6178779,33.4216715 87.593409,31.5899111 C93.5069208,29.7771622 92.9396693,32.4676865 100.090969,18.779496 C102.055198,15.0197971 102.159167,9.74911536 100.402877,2.96745073 C104.433801,12.7457838 105.147043,20.14242 102.542604,25.1573593 Z" id="Combined-Shape" fill="#B05C5C"></path>
                        <path d="M6.59596035,24.0610495 C10.9038618,31.87937 15.7982677,36.876981 21.8702885,40.0849411 C26.7103754,42.6420479 31.38878,43.8848476 40.8644773,45.558374 C41.186205,45.6151951 41.5176495,45.673485 41.9547427,45.7501741 C42.5038518,45.8464711 42.5038518,45.8464711 43.0569533,45.9435241 C46.3090942,46.5146087 48.4924936,47.6845454 51.0638949,49.8354111 C51.3629606,50.0855667 52.4411164,51.0131998 52.6874364,51.2195593 C52.9109548,51.4068161 53.1127523,51.571425 53.3069796,51.7242098 C53.3936087,51.7923546 53.4783594,51.8717028 53.56716,51.965377 C53.6325195,52.0343236 53.6986107,52.1093421 53.7770632,52.2024042 C53.8218432,52.2555232 53.8766607,52.3217549 53.9729308,52.438111 C54.5090483,53.082376 54.7189058,53.1880343 55.0866875,52.9399727 C55.3289657,52.7765608 55.5148133,52.5370343 55.6748396,52.2054628 C55.7726179,52.002868 56.034454,51.2961237 56.0236922,51.3222704 C56.1187987,51.0912022 56.2335919,50.9032724 56.3742296,50.7813459 C56.2841809,50.0338869 56.2472404,49.3931755 56.1998741,48.1809267 C56.1328796,46.4663312 56.0341448,45.7905109 55.6503271,44.9814522 C55.4768338,44.6157413 55.2466165,44.2582155 54.9446515,43.8925069 C53.6914878,42.3748047 53.1219464,41.7776448 52.5349412,41.3175434 C52.4896994,41.2820823 52.4634036,41.2618824 52.3901032,41.2062097 C52.3177538,41.1515113 51.9969998,40.9137866 51.9044474,40.8440344 C51.6855513,40.6790633 51.4834764,40.5205746 51.2584104,40.3352297 C48.4630952,38.0332505 42.6038437,35.9467978 36.6792227,35.6897096 C36.0816062,35.6637771 35.6220092,35.6488192 34.5279203,35.617044 C27.1344039,35.4023169 24.0030493,34.7017726 20.4396338,31.5021963 C19.2525232,30.4362946 16.2917428,27.8258802 15.8466862,27.4227366 C14.6886612,26.3737678 13.9992033,25.6695009 13.3171959,24.8187881 C12.646406,23.9820674 11.9893597,23.0140155 10.8526313,21.211066 C10.7121571,20.9882618 7.72341985,16.1936858 6.39161608,14.0870531 C4.66939732,11.3628662 3.11032383,8.17615804 1.71343041,4.52684829 C2.60339578,13.2615598 4.23492165,19.7760496 6.59596035,24.0610495 Z M56.5754366,52.6401179 C56.3445582,53.1184934 56.0527515,53.4945837 55.6458644,53.7690211 C54.6983386,54.4081087 54.0322188,54.0727331 53.2042579,53.0777531 C52.8531063,52.655766 52.9285423,52.7452498 52.8414265,52.653353 C52.7836617,52.5924178 52.7332001,52.545173 52.6887138,52.5101788 C52.4857298,52.3505058 52.2761543,52.1795523 52.0452474,51.9861056 C51.7921088,51.7740338 50.7143433,50.8467364 50.4222977,50.6024529 C47.9743478,48.5548488 45.9408799,47.4652504 42.8839971,46.9284536 C42.3311727,46.8314492 42.3311727,46.8314492 41.7819299,46.7351288 C41.3444991,46.6583804 41.0127183,46.6000314 40.6905565,46.5431336 C31.1166689,44.8522656 26.3628749,43.589439 21.4031561,40.9691285 C15.152377,37.6667271 10.119162,32.52738 5.72011487,24.5436412 C2.93664443,19.4919787 1.16217675,11.5489812 0.378696653,0.700789658 L0.084818982,-3.36828788 L1.35264105,0.509389686 C3.03985219,5.66978324 5.00201042,10.0176116 7.23686961,13.5526876 C8.57083316,15.6627366 11.5600048,20.4580095 11.6985386,20.6777361 C12.8164522,22.4508438 13.4563894,23.3936882 14.0974214,24.1932897 C14.7413778,24.996539 15.3960426,25.6652655 16.5180329,26.6815931 C16.9569048,27.0791345 19.9154554,29.687583 21.1077331,30.7581242 C24.4395297,33.7497308 27.3874861,34.4092454 34.5569507,34.6174655 C35.6558729,34.6493811 36.1185517,34.6644392 36.7225751,34.6906497 C42.856284,34.956811 48.9242755,37.117595 51.8941102,39.5632934 C52.1074488,39.7389805 52.2983498,39.8887055 52.5063116,40.0454359 C52.5943708,40.1118018 52.9159401,40.3501309 52.9931777,40.4085249 C53.0723243,40.468635 53.101718,40.4912147 53.1518364,40.5304981 C53.8075266,41.0444356 54.4205944,41.6872327 55.7157605,43.2558037 C56.0691468,43.6837886 56.3441247,44.1108273 56.5538145,44.5528376 C57.0140342,45.5229458 57.126992,46.2961199 57.1991116,48.1418834 C57.2546675,49.5637279 57.2948598,50.1711352 57.4253009,51.1081083 L57.556245,52.0486945 L56.9360917,51.7389519 C56.8806121,51.8906519 56.675829,52.4321066 56.5754366,52.6401179 Z M73.7818811,45.8911677 C76.2087708,44.8704953 78.4466498,44.0923222 80.7405193,43.4348024 C81.6403139,43.1768833 82.5152602,42.9460902 83.5596647,42.6860635 C83.8603186,42.6112093 85.5455138,42.1991887 85.9973312,42.084974 C89.1103053,41.2980465 90.7652896,40.6247623 92.5082222,39.2719102 C95.3075536,37.0990887 98.0938361,33.1017108 102.121379,25.3465353 C104.115468,21.5068451 104.095252,16.1657222 102.031646,9.32473014 C102.436111,13.3982787 101.948059,16.7673447 100.556637,19.4306446 C96.5278935,27.1419987 94.9670785,29.608234 93.2980301,30.7670338 C92.6043334,31.2486588 91.9535241,31.4842097 90.7886363,31.7436585 C90.7601726,31.7499981 89.7616181,31.9651063 89.4334099,32.0411382 C88.8565295,32.1747768 88.3249968,32.315131 87.7624533,32.4875751 C84.9817217,33.3399904 82.9691083,33.7343084 80.5735155,33.9655443 C80.0913842,34.0120822 79.6210229,34.0508574 78.895749,34.1058894 C76.3257955,34.300891 75.5474132,34.3702329 73.9289426,34.5785405 C68.5214517,35.2745192 63.9775516,38.2085113 59.6488925,42.4012133 C58.3988845,43.6119603 57.1759468,51.6901599 58.0719774,53.1067029 C58.485363,53.760228 60.9652743,52.713979 65.6299906,49.9536637 C65.7913498,49.8581805 65.960014,49.7580995 66.146972,49.6469361 C71.4388199,46.5004552 72.7215694,45.8068039 73.7818811,45.8911677 Z M103.008836,25.8074242 C98.9194921,33.6816013 96.0646715,37.7773083 93.1213825,40.0618687 C91.246859,41.5168607 89.477468,42.2366882 86.2424114,43.0544768 C85.7859916,43.169855 84.0983564,43.5824721 83.8012607,43.6564404 C82.7673501,43.9138545 81.9032141,44.141796 81.016065,44.3960903 C78.721818,45.0537184 76.4858015,45.833559 74.0507968,46.863042 L73.7838952,46.8972704 C73.0648173,46.7923423 71.6185996,47.5569763 66.6580446,50.5064736 C66.4705198,50.617974 66.3012652,50.7184054 66.139252,50.8142756 C60.5163152,54.1416116 58.1695982,55.1316673 57.2268582,53.6412808 C56.0702917,51.8128541 57.3719857,43.2144242 58.953156,41.6829162 C63.4241748,37.3523258 68.1244408,34.3173684 73.8012891,33.5867216 C75.4427781,33.3754515 76.2327959,33.305073 78.820089,33.1087557 C79.5390812,33.0542004 80.0036727,33.0159008 80.4774365,32.9701705 C82.8072929,32.74528 84.7539348,32.3638872 87.4693709,31.5314879 C88.0557173,31.3517472 88.6093971,31.2055449 89.2077289,31.0669369 C89.5449808,30.98881 90.5495348,30.7724094 90.5712389,30.7675754 C91.6204103,30.5338994 92.1634978,30.3373368 92.7277211,29.9456035 C94.201463,28.9224027 95.7374854,26.4953419 99.670308,18.9675883 C101.567835,15.3355617 101.669431,10.1851708 99.9413483,3.51242386 L100.887643,3.19651227 C104.969166,13.0975893 105.695839,20.6335057 103.008836,25.8074242 Z" id="Combined-Shape" fill="#000000" fill-rule="nonzero" opacity="0.3"></path>
                    </g>
                </g>
            </g>
        </g>
    </g>
</svg>