<?xml version="1.0" encoding="UTF-8"?>
<svg width="480px" height="300px" viewBox="0 0 480 300" version="1.1" xmlns="http://www.w3.org/2000/svg" xmlns:xlink="http://www.w3.org/1999/xlink">
    <!-- Generator: Sketch 50.2 (55047) - http://www.bohemiancoding.com/sketch -->
    <title>Avatars</title>
    <desc>Created with Sketch.</desc>
    <defs></defs>
    <g id="Avatars" stroke="none" stroke-width="1" fill="none" fill-rule="evenodd">
        <rect id="Frame" fill="#E6E6E6" x="0" y="0" width="480" height="300"></rect>
        <g id="Tiefling" transform="translate(120.000000, 29.000000)">
            <g id="Female" transform="translate(14.000000, 0.000000)">
                <path d="M4.42253521,270.730412 C7.00911951,242.587016 8.91948573,224.791337 10.1536339,217.343375 C11.0392045,211.999043 9.56959531,206.474558 10.1771028,201.09147 C11.403007,190.228805 18.9018322,165.43828 24.654982,161.748218 C29.8013157,158.447367 45.6643724,156.96684 51.308685,154.618538 C56.6385379,152.401065 81.5528498,149.196742 85.4457353,144.931927 C88.5174688,141.566718 87.9332976,133.412583 83.6932218,120.469523 C73.3688689,110.859156 67.7860583,104.483878 66.9447898,101.343689 C65.7004772,96.6990644 62.5310368,69.6747517 59.7387489,56.425751 C56.946461,43.1767502 67.0350627,28.5542518 70.9481459,24.8659763 C85.18421,11.4477778 123.275509,4.06529752 136.799133,28.4289683 C141.920929,37.6562116 144.170334,59.4083836 145.957177,79.5471172 C146.976288,91.0330767 143.813344,107.251236 140.912618,110.855711 C139.673366,112.395619 136.799133,116.030887 135.057252,116.030887 C133.895998,116.030887 133.895998,117.872189 135.057252,121.554794 L138.446648,140.800948 C147.362281,143.763526 155.270974,149.730592 164.606769,150.859609 C195.689189,154.618538 184.844118,153.066047 203.66521,171.215573 C214.03657,181.216867 218.789939,214.906155 220.604025,226.737539 C221.618647,233.354856 224.425361,248.019147 229.024166,270.730412 L195.689189,270.730412 L0.0573611917,270.730412 L4.42253521,270.730412 Z" id="body" fill="{skin-color}"></path>
                <path d="M39.0074824,271.198765 C41.0060281,259.556794 42.6266072,251.119282 43.8692197,245.88623 C45.1118322,240.653179 46.7324113,235.441102 48.730957,230.25 C47.6937697,235.968853 47.1751761,239.343853 47.1751761,240.375 C47.1751761,241.406147 47.1751761,251.680736 47.1751761,271.198765 L39.0074824,271.198765 Z" id="armpit-l" fill="#000000" opacity="0.5"></path>
                <path d="M183.117188,270.994792 L192.702905,233.641113 C191.820342,237.919818 191.347667,240.886126 191.284881,242.540039 C191.222095,244.193952 191.222095,253.678869 191.284881,270.994792 L183.117188,270.994792 Z" id="armpit-r" fill="#000000" opacity="0.5" transform="translate(187.910046, 252.317952) scale(-1, 1) translate(-187.910046, -252.317952) "></path>
                <path d="M119.04478,242.878294 C127.422687,263.655674 136.270408,269.529692 154.507633,269.529692 C178.054751,269.529692 190.448217,251.191822 180.403158,228.177461 C175.851368,222.089237 172.375189,216.169523 169.975786,210.417294 L170.898712,210.032318 C173.270674,215.718761 176.716862,221.583212 181.23845,227.624641 C191.67558,251.43063 178.78637,270.529692 154.507633,270.529692 C135.577753,270.529692 126.380759,264.222711 117.73583,242.294799 C116.370178,247.82079 115.307111,251.412561 114.534706,253.097486 C110.117479,262.733239 95.9859797,270.13991 81.4801303,270.706113 C65.2005272,271.34155 52.451127,263.543649 48.4255191,247.878679 C47.119281,242.795675 46.9999488,238.837954 47.8194166,234.395306 C48.0464864,233.164275 48.3401648,231.897287 48.7660005,230.257217 C48.9358861,229.602917 49.7341693,226.625346 49.9545223,225.77627 C50.172277,224.937204 50.0682487,223.226345 49.6240731,218.777167 C49.1629505,214.157614 49.0596249,212.431085 49.31516,211.367743 L50.2874782,211.601404 C50.0726375,212.495407 50.1783922,214.262523 50.6125282,218.611728 C51.0865185,223.359556 51.1868047,225.008871 50.9224577,226.027469 C50.7007665,226.881702 49.9024632,229.859348 49.7339067,230.508529 C49.3135625,232.127449 49.0248657,233.372945 48.802827,234.576701 C48.0094327,238.877994 48.1243387,242.68892 49.3940497,247.629785 C53.2919319,262.797732 65.5992234,270.325227 81.4411272,269.706874 C95.6029546,269.154099 109.385479,261.930334 113.625672,252.680766 C114.325964,251.153147 115.306877,247.880383 116.558262,242.885779 L116.447549,242.872478 C117.191584,236.679207 116.300631,226.849436 114.575287,222.341516 L115.50922,221.984066 C116.985937,225.842383 117.860741,233.329864 117.691001,239.394615 L117.864554,239.849915 C117.63633,233.709197 118.517623,225.939526 120.031521,221.984066 L120.965453,222.341516 C119.240109,226.849436 118.349156,236.679207 119.093191,242.872478 L119.04478,242.878294 Z" id="breast" fill="#000000" fill-rule="nonzero" opacity="0.3"></path>
                <path d="M78.263856,105.820993 L79.0400613,105.190513 C79.4904386,105.744988 79.8978329,106.357485 80.4804906,107.318187 C80.5786635,107.480057 80.9653924,108.123406 81.0613359,108.28166 C82.3605527,110.424663 83.247836,111.520297 84.4772545,112.241143 C86.3396647,113.333132 88.1427505,114.456301 90.2831031,115.840247 C90.7706655,116.155503 94.2227648,118.410997 95.1254425,118.986725 C98.5110279,121.146054 100.473816,122.140267 102.000506,122.359483 C111.384036,123.706853 115.785935,123.501937 118.970801,121.433562 C123.042345,118.789345 133.812413,105.89045 135.450854,102.715288 L136.339515,103.173853 C134.626573,106.493392 123.745799,119.524875 119.515458,122.272221 C116.060409,124.516063 111.471587,124.729681 101.858375,123.34933 C100.139104,123.102462 98.0970393,122.068093 94.587705,119.829838 C93.6794781,119.25057 90.2235807,116.992595 89.7401251,116.679994 C87.6110171,115.303318 85.8196187,114.18743 83.9714553,113.103794 C82.5552588,112.273434 81.5874234,111.078334 80.2062136,108.800087 C80.108953,108.639659 79.7222822,107.996408 79.6254561,107.836758 C79.0648129,106.912354 78.6782198,106.331131 78.263856,105.820993 Z" id="jaw" fill="#000000" fill-rule="nonzero" opacity="0.3"></path>
                <path d="M104.261407,10.810871 C133.141277,7.55517387 138.357496,28.1125029 146.090395,42.7157219 C151.332178,52.6145833 148.885946,63.3598483 155.670206,82.0483285 C165.709601,109.70367 160.742215,111.926604 162.45608,132.488009 C162.470199,132.657387 163.245088,140.336986 167.68109,146.884811 C168.933025,148.732746 171.690539,150.635857 175.953634,152.594144 L161.001417,150.75109 C157.157126,150.087886 154.293702,150.087886 152.411147,150.75109 C151.427577,151.097591 149.619211,150.230779 148.569603,157.076187 C147.930039,161.247339 147.207034,171.706259 146.400589,188.452946 L138.243712,141.852713 C134.884389,140.686763 133.150308,139.629754 133.04147,138.681686 C131.647491,126.539017 131.647491,126.539017 133.04147,116.230136 C135.258072,99.837715 141.608613,85.3243472 138.582735,63.4545785 C136.588002,49.0374919 121.123412,44.6698127 120.466011,32.5285853 C120.401863,31.343874 119.068796,27.3308411 114.807136,26.3296088 C111.80109,25.6233698 107.379586,28.3017015 105.028602,29.6691824 C104.954344,29.7900007 104.859484,29.8490896 104.74026,29.836118 C103.882206,30.3297253 103.371494,30.5868693 103.424048,30.3167091 C103.505937,29.8957506 103.554298,29.4506378 103.575051,28.9859253 C100.436959,26.3422653 99.4165065,24.7196605 88.3366862,26.6500279 C82.8554878,27.6049827 75.1714796,33.3910265 71.9187682,46.3460088 C70.9235533,50.3097764 71.6751706,62.4007382 69.3808516,59.0628754 C66.1899252,54.4205938 58.258784,48.7279918 59.3389263,51.6673994 C60.4190685,54.6068071 61.4526789,62.8116614 62.2728522,68.53723 C64.264221,82.4388255 70.1472239,78.8208918 72.0875153,86.8833847 C75.0279114,99.1016128 76.4337719,100.224869 80.4474896,109.776281 C90.0105906,132.533514 84.4065538,118.015259 88.3322235,147.901371 C90.9408547,167.760873 84.2165946,158.438157 81.6240466,179.711135 C80.1780419,191.576228 82.1730507,203.954245 79.1782747,215.497002 C77.4322326,222.226767 73.051302,232.343606 73.5918185,240.590278 C74.4466147,253.631924 70.9555207,262.4191 66.1821474,265.739229 C62.0248446,268.630848 50.2091284,270.569946 60.4156142,264.165071 L62.554722,256.071285 C64.2544106,247.914656 63.1991884,241.536386 64.3911662,233.281877 C65.2822429,227.111124 68.1993484,221.323539 68.6700293,215.103359 C68.759539,213.920463 66.257229,215.653013 65.6495775,216.651618 C61.7626739,223.039291 57.8167952,229.565507 55.4949,236.755151 C53.320863,243.486959 53.349339,264.842129 52.3527131,257.824761 C50.2766759,243.207124 49.3924267,230.280184 50.0326143,215.493554 C50.1659493,212.413871 52.2480341,207.910839 53.4205629,204.497851 C53.9253356,203.028563 56.0767727,200.603653 54.8349205,200.492377 C52.0971775,200.247061 49.1102592,205.253185 46.3425569,207.140971 C32.164742,216.811333 20.3600244,241.949849 37.628992,201.496728 C39.3457905,197.475072 43.575923,193.080814 44.3844857,190.168092 C44.6167186,189.331508 47.5250515,187.468009 46.3673823,187.18578 C40.2924488,185.704768 33.2199662,202.511232 29.7453407,206.271148 C19.9150562,216.908568 22.1203406,222.991748 27.2503358,189.270129 L31.2888901,176.818471 C38.7954325,157.521031 52.9727186,142.036923 57.7694362,121.516406 C60.6337535,109.262761 58.2831353,98.8159318 57.8329208,86.1363331 C56.3639113,44.7639369 56.0283469,11.0739812 99.4543377,9.95198532 C101.932609,9.88795431 103.420187,10.1120069 104.261407,10.810871 Z" id="hair" fill="{hair-color}"></path>
                <path d="M166.853194,147.445692 C164.840958,144.475502 163.405446,141.089273 162.445383,137.556758 C162.107283,136.312731 161.85222,135.134044 161.668796,134.055896 C161.554117,133.38182 161.479442,132.80988 161.459536,132.571074 C161.016855,127.260189 160.978888,123.701785 161.140609,117.401209 C161.201494,115.029148 161.218255,114.243716 161.22529,113.076417 C161.279711,104.047087 159.836716,96.4563137 154.730227,82.3895584 C151.707487,74.0628718 150.815756,69.6496834 149.071408,57.5431353 C148.041272,50.393543 147.18712,46.9237142 145.206652,43.1836939 C144.538019,41.9210117 143.871954,40.5885381 143.006781,38.8014921 C143.165339,39.1289995 141.196079,35.0366696 140.645463,33.9179387 C136.617691,25.7343894 133.336483,20.8984978 128.618583,17.2172052 C122.634199,12.5476977 114.871795,10.6210707 104.37343,11.8045766 L103.950082,11.8523017 L103.622384,11.5800592 C103.050378,11.1048505 101.810007,10.8914557 99.4801661,10.9516517 C79.4715055,11.4686148 68.1670042,18.8699943 62.7441006,33.3020023 C60.8893791,38.2379847 59.7180378,43.3995377 59.0666116,49.9639341 C59.403316,49.8390591 59.8241564,49.831906 60.2914782,49.9724017 C61.0559882,50.202244 62.1167732,50.8178399 63.3469027,51.7136265 C65.7267919,53.4466739 68.2558345,55.85853 69.8456419,57.994819 C70.037914,56.9962316 70.1391414,55.6839889 70.296086,52.72544 C70.4993545,48.9067506 70.6372343,47.3436887 70.9488722,46.1024892 C73.8927523,34.3775283 80.9435175,26.9230298 88.165048,25.6648679 C96.6154536,24.1926068 99.7199898,24.559439 102.689974,26.9312397 C102.913279,27.1095686 103.135366,27.295188 103.446342,27.5610757 C103.525766,27.628984 103.635564,27.7231827 103.827318,27.8876561 C103.979958,28.0184085 104.100236,28.1208047 104.219337,28.221141 L104.596029,28.538482 C104.68304,28.7132196 104.825959,28.6298585 105.046675,28.5011577 C105.266534,28.3731165 105.446796,28.2687204 105.626915,28.1653525 C106.093193,27.8977612 106.514541,27.662625 106.933629,27.4380866 C108.157599,26.7823107 109.2742,26.2655785 110.3448,25.8864101 C112.126154,25.255518 113.689194,25.0397326 115.035848,25.3561147 C118.929972,26.2709983 121.31746,29.7580192 121.464548,32.4745183 C121.695146,36.7333083 123.604228,39.9086082 128.160297,44.7738502 C128.635205,45.2809849 130.344,47.0772644 130.345485,47.0788334 C136.138201,53.1994104 138.735034,57.2589022 139.573299,63.3175252 C141.347738,76.1424248 140.429372,84.9941768 136.82771,101.657208 C136.105481,104.998588 136.045807,105.276252 135.772973,106.584255 C134.976337,110.403443 134.432722,113.404014 134.032451,116.364137 C133.225062,122.335013 133.047148,123.929993 133.002752,126.104045 C132.949851,128.694512 133.114016,130.545614 134.034944,138.567635 C134.078214,138.944551 135.617,139.882518 138.571603,140.907998 L139.127314,141.100873 L145.853127,179.525439 C146.482281,167.866454 147.057014,160.343008 147.581155,156.924628 C148.063251,153.780459 148.742942,151.897874 149.697991,150.881462 C150.333573,150.205042 150.857725,150.006851 151.816026,149.859216 C154.156475,149.07599 157.173798,149.07599 161.123754,149.758601 L170.758149,150.946165 C168.950365,149.783374 167.649691,148.621373 166.853194,147.445692 Z M58.832291,86.1008485 C58.9328162,88.9319864 59.0965763,91.327667 59.4614956,95.8140133 C59.8981375,101.182124 60.0296052,103.047061 60.1191601,105.764057 C60.3135774,111.662466 59.9332577,116.65286 58.7431871,121.744022 C56.426099,131.656602 52.8790138,139.031683 44.2883437,153.791893 C44.052302,154.197402 44.052302,154.197402 43.8162732,154.602823 C37.5033506,165.446785 34.8012513,170.547467 32.2401089,177.126988 L28.2266832,189.50117 C27.0519143,197.210437 25.3751601,206.3638 24.4892857,211.129082 C25.9916067,209.067551 27.2760558,207.469762 29.0109203,205.592453 C29.6029297,204.951836 30.3661978,203.82966 31.487816,201.988908 C31.7674449,201.529993 34.0419968,197.711754 34.774093,196.525735 C37.4419021,192.203798 39.5615087,189.39259 41.6964183,187.702032 C43.3652591,186.380537 45.0032042,185.823918 46.604236,186.214235 C47.7558766,186.494994 47.8820725,187.535467 47.3164144,188.364517 C47.0889589,188.697885 46.8490983,188.945711 46.1962674,189.571531 C45.6323731,190.112134 45.3509156,190.425246 45.3480485,190.435574 C44.9245777,191.961062 44.541172,192.566464 41.5329343,196.898173 C40.7736774,197.991464 40.2473904,198.783238 39.7751082,199.561087 C39.2585252,200.411899 38.8523633,201.177991 38.5486966,201.88934 C34.767965,210.745827 32.6760455,215.771446 31.4309371,219.023056 C31.1038721,219.877188 30.836962,220.605673 30.6269145,221.217269 C30.9025568,220.913332 31.2201785,220.556339 31.5934479,220.132033 C31.7759335,219.924596 31.9670512,219.706524 32.2368141,219.398133 C32.5750828,219.011296 32.7594519,218.800481 32.9291735,218.606667 C33.5157208,217.936858 33.9783378,217.412075 34.4491351,216.884114 C35.6921582,215.490163 36.8206256,214.269406 37.9547386,213.105585 C40.6897767,210.298901 43.2611779,208.032243 45.7790741,206.314843 C46.5502898,205.788815 47.1956567,205.160301 48.7744224,203.480422 C49.1602186,203.069918 49.3692962,202.849087 49.6051398,202.604777 C51.7850876,200.346573 53.2374004,199.345224 54.9241681,199.496367 C56.1319091,199.604587 56.4340882,200.599072 56.0676449,201.607999 C55.90542,202.054653 55.7501355,202.333177 55.1252545,203.378716 C54.662122,204.158997 54.4647739,204.536147 54.3663079,204.822761 C54.1927151,205.328054 53.9939585,205.874303 53.7393603,206.551512 C53.5892517,206.950788 53.0323253,208.412705 53.051944,208.361011 C52.8558902,208.877605 52.7002302,209.293148 52.5538796,209.692545 C51.5870591,212.331036 51.0921355,214.14041 51.0316783,215.536809 C50.5047531,227.70738 50.987352,238.882731 52.5421562,251.631903 C52.6901839,249.71044 52.8366849,247.824872 52.9180005,246.917675 C53.3567424,242.022845 53.8577424,238.57061 54.5432941,236.44783 C56.5138592,230.346064 58.9801597,225.688307 64.795305,216.131792 C65.1875235,215.487227 66.0722568,214.69765 66.9105081,214.199685 C67.4025803,213.907368 67.849045,213.728376 68.2708852,213.707083 C69.1234349,213.66405 69.7334908,214.302478 69.6671786,215.178813 C69.4503688,218.044016 68.8883421,220.382525 67.4816595,225.044515 C66.17902,229.358935 65.7079043,231.160278 65.3809003,233.424798 C64.9427382,236.459093 64.81448,238.699721 64.6914515,243.627203 C64.674293,244.314427 64.6658932,244.641119 64.6549535,245.034046 C64.5230639,249.771161 64.2593248,252.793053 63.5215266,256.326802 L61.2815457,264.802264 L60.9471532,265.012105 C59.2879658,266.053295 58.198181,266.893009 57.6823904,267.438431 C57.7473932,267.439946 57.8173076,267.440095 57.8917084,267.43855 C60.0027429,267.394733 63.7815368,266.190868 65.6111384,264.918285 C70.4752528,261.535041 73.3714916,252.518506 72.5939596,240.655682 C72.409129,237.835718 72.7576383,234.697218 73.5675571,231.096693 C74.0931392,228.760198 74.7635684,226.400861 75.7572593,223.248932 C75.9767572,222.552698 76.8882732,219.706423 77.1107467,218.998289 C77.5960396,217.4536 77.9399378,216.28801 78.2103228,215.245866 C79.6594404,209.660536 79.9633568,205.015641 79.9999418,194.400502 C80.0016685,193.899469 80.0024666,193.676564 80.0035757,193.39805 C80.0290817,186.993204 80.1587781,183.468153 80.6313911,179.590159 C81.3497801,173.695467 82.409267,169.721259 83.8855412,166.614238 C84.253453,165.839918 84.6343702,165.14023 85.1020942,164.35529 C85.2648989,164.08207 85.9998388,162.884831 86.1841486,162.570813 C88.0504692,159.391069 88.4316919,156.337018 87.3407404,148.031607 C86.4789426,141.470743 86.0120517,136.615488 85.7904163,132.591352 C85.7123537,131.174005 85.5834862,127.037533 85.5085278,126.26166 C85.2730122,123.823907 85.3438252,124.009316 79.5255808,110.163687 C78.4292603,107.554782 75.6790788,101.464578 75.4549364,100.941571 C74.9011208,99.6493138 74.4378707,98.4771996 73.9918121,97.2215033 C73.0526027,94.5775414 72.163705,91.4739107 71.115273,87.1173612 C70.5121738,84.611303 69.699513,83.4551695 67.7061516,81.6957836 C67.6976417,81.6882725 67.2388683,81.2848625 67.1034983,81.1646005 C66.8657639,80.9533984 66.6668844,80.772485 66.4748319,80.5913503 C63.7210914,77.9941542 62.1634238,74.8255034 61.2829569,68.67903 C61.1804393,67.9633624 60.6083983,63.8741553 60.4352634,62.673045 C59.7981911,58.2534046 59.2755168,55.1979719 58.7882036,53.2994522 C58.224913,61.4777244 58.3245126,71.8000483 58.832291,86.1008485 Z M104.52426,28.8067157 L104.361813,28.900166 L104.308372,28.9312507 L104.176656,29.1455531 C104.254243,29.0193185 104.400397,28.9078985 104.581624,28.861052 L104.583762,28.8131895 L104.52426,28.8067157 Z M146.090395,42.7157219 C151.332178,52.6145833 148.885946,63.3598483 155.670206,82.0483285 C165.709601,109.70367 160.742215,111.926604 162.45608,132.488009 C162.470199,132.657387 163.245088,140.336986 167.68109,146.884811 C168.933025,148.732746 171.690539,150.635857 175.953634,152.594144 L161.001417,150.75109 C157.157126,150.087886 154.293702,150.087886 152.411147,150.75109 C151.427577,151.097591 149.619211,150.230779 148.569603,157.076187 C147.930039,161.247339 147.207034,171.706259 146.400589,188.452946 L138.243712,141.852713 C134.884389,140.686763 133.150308,139.629754 133.04147,138.681686 C131.647491,126.539017 131.647491,126.539017 133.04147,116.230136 C135.258072,99.837715 141.608613,85.3243472 138.582735,63.4545785 C136.588002,49.0374919 121.123412,44.6698127 120.466011,32.5285853 C120.401863,31.343874 119.068796,27.3308411 114.807136,26.3296088 C111.80109,25.6233698 107.379586,28.3017015 105.028602,29.6691824 C103.882206,30.3297253 103.371494,30.5868693 103.424048,30.3167091 C103.505937,29.8957506 103.554298,29.4506378 103.575051,28.9859253 C100.436959,26.3422653 99.4165065,24.7196605 88.3366862,26.6500279 C82.8554878,27.6049827 75.1714796,33.3910265 71.9187682,46.3460088 C70.9235533,50.3097764 71.6751706,62.4007382 69.3808516,59.0628754 C66.1899252,54.4205938 58.258784,48.7279918 59.3389263,51.6673994 C60.4190685,54.6068071 61.4526789,62.8116614 62.2728522,68.53723 C64.264221,82.4388255 70.1472239,78.8208918 72.0875153,86.8833847 C75.0279114,99.1016128 76.4337719,100.224869 80.4474896,109.776281 C90.0105906,132.533514 84.4065538,118.015259 88.3322235,147.901371 C90.9408547,167.760873 84.2165946,158.438157 81.6240466,179.711135 C80.1780419,191.576228 82.1730507,203.954245 79.1782747,215.497002 C77.4322326,222.226767 73.051302,232.343606 73.5918185,240.590278 C74.4466147,253.631924 70.9555207,262.4191 66.1821474,265.739229 C62.0248446,268.630848 50.2091284,270.569946 60.4156142,264.165071 L62.554722,256.071285 C64.2544106,247.914656 63.1991884,241.536386 64.3911662,233.281877 C65.2822429,227.111124 68.1993484,221.323539 68.6700293,215.103359 C68.759539,213.920463 66.257229,215.653013 65.6495775,216.651618 C61.7626739,223.039291 57.8167952,229.565507 55.4949,236.755151 C53.320863,243.486959 53.349339,264.842129 52.3527131,257.824761 C50.2766759,243.207124 49.3924267,230.280184 50.0326143,215.493554 C50.1659493,212.413871 52.2480341,207.910839 53.4205629,204.497851 C53.9253356,203.028563 56.0767727,200.603653 54.8349205,200.492377 C52.0971775,200.247061 49.1102592,205.253185 46.3425569,207.140971 C32.164742,216.811333 20.3600244,241.949849 37.628992,201.496728 C39.3457905,197.475072 43.575923,193.080814 44.3844857,190.168092 C44.6167186,189.331508 47.5250515,187.468009 46.3673823,187.18578 C40.2924488,185.704768 33.2199662,202.511232 29.7453407,206.271148 C19.9150562,216.908568 22.1203406,222.991748 27.2503358,189.270129 L31.2888901,176.818471 C38.7954325,157.521031 52.9727186,142.036923 57.7694362,121.516406 C60.6337535,109.262761 58.2831353,98.8159318 57.8329208,86.1363331 C56.3639113,44.7639369 56.0283469,11.0739812 99.4543377,9.95198532 C101.932609,9.88795431 103.420187,10.1120069 104.261407,10.810871 C133.141277,7.55517387 138.357496,28.1125029 146.090395,42.7157219 Z" id="hair-outline" fill="#000000" fill-rule="nonzero" opacity="0.05"></path>
                <path d="M50.4755895,28.3351354 C47.7339023,23.3593045 45.973689,15.4801135 45.1949496,4.69756243 C46.8942995,9.89508297 48.8732479,14.2801156 51.1317947,17.8526604 C59.354639,30.8594662 56.6373123,27.5722074 65.0912353,35.1629503 C69.805706,39.3960544 75.2742855,38.973712 81.0184507,39.2229697 C87.9078052,39.5219208 93.5867034,42.0821168 95.8938122,43.9820516 C97.3638511,45.1926482 97.3414249,44.8137537 99.6477579,47.6069453 C101.46804,49.8114821 100.74602,51.6067263 101.247629,55.2098412 C100.665506,54.9190933 100.80655,56.630033 99.6838279,57.3872869 C98.561106,58.1445409 97.9697154,56.6646887 97.3153986,56.1499843 C94.7790736,54.1548382 92.5121257,51.3861446 87.2880271,50.4687789 C72.1365586,47.8081404 60.1844111,45.9554734 50.4755895,28.3351354 Z M146.860156,29.1901494 C136.051589,50.0024286 134.467145,43.1175204 118.15114,50.0156797 C115.714648,49.6601458 103.474814,59.406502 101.944467,56.9871615 C100.892386,55.3239178 102.217926,46.9900953 103.596073,45.6552344 C105.758964,43.5602766 111.220889,38.5889299 118.160165,37.6958007 C123.945952,36.9511327 125.93543,37.4544616 131.910961,35.6227011 C137.824473,33.8099523 137.257221,36.5004766 144.408521,22.8122861 C146.37275,19.0525872 146.476719,13.7819054 144.720429,7.00024078 C148.751353,16.7785739 149.464595,24.1752101 146.860156,29.1901494 Z" id="horns" fill="{skin-color}"></path>
                <path d="M50.7035244,28.1408471 C55.0114258,35.9591675 59.9058317,40.9567786 65.9778525,44.1647387 C70.8179394,46.7218455 75.496344,47.9646452 84.9720413,49.6381716 C85.293769,49.6949927 85.6252135,49.7532826 86.0623067,49.8299716 C86.6114158,49.9262687 86.6114158,49.9262687 87.1645173,50.0233217 C90.4166582,50.5944063 92.6000576,51.764343 95.1714589,53.9152087 C95.4705246,54.1653642 96.5486804,55.0929974 96.7950004,55.2993568 C97.0185188,55.4866137 97.2203163,55.6512226 97.4145436,55.8040073 C97.5011727,55.8721522 97.5859234,55.9515004 97.674724,56.0451746 C97.7400835,56.1141212 97.8061747,56.1891397 97.8846272,56.2822018 C97.9294072,56.3353208 97.9842247,56.4015525 98.0804948,56.5179086 C98.6166123,57.1621736 98.8264698,57.2678319 99.1942515,57.0197703 C99.4365297,56.8563584 99.6223773,56.6168319 99.7824036,56.2852604 C99.8801819,56.0826656 100.142018,55.3759213 100.131256,55.4020679 C100.226363,55.1709998 100.341156,54.9830699 100.481794,54.8611435 C100.391745,54.1136845 100.354804,53.4729731 100.307438,52.2607242 C100.240444,50.5461288 100.141709,49.8703085 99.7578911,49.0612498 C99.5843978,48.6955389 99.3541805,48.3380131 99.0522155,47.9723045 C97.7990518,46.4546023 97.2295104,45.8574424 96.6425052,45.397341 C96.5972634,45.3618799 96.5709676,45.34168 96.4976672,45.2860073 C96.4253178,45.2313089 96.1045638,44.9935842 96.0120114,44.923832 C95.7931153,44.7588609 95.5910404,44.6003722 95.3659744,44.4150273 C92.5706592,42.1130481 86.7114077,40.0265954 80.7867867,39.7695071 C80.1891702,39.7435746 79.7295732,39.7286168 78.6354843,39.6968416 C71.2419679,39.4821144 68.1106133,38.7815702 64.5471978,35.5819939 C63.3600872,34.5160922 60.3993068,31.9056778 59.9542502,31.5025341 C58.7962252,30.4535654 58.1067673,29.7492985 57.4247599,28.8985856 C56.75397,28.061865 56.0969237,27.0938131 54.9601953,25.2908636 C54.8197211,25.0680594 51.8309839,20.2734834 50.4991801,18.1668507 C48.7769613,15.4426637 47.2178878,12.2559556 45.8209944,8.60664588 C46.7109598,17.3413574 48.3424856,23.8558472 50.7035244,28.1408471 Z M100.683001,56.7199154 C100.452122,57.198291 100.160316,57.5743813 99.7534284,57.8488187 C98.8059026,58.4879063 98.1397828,58.1525307 97.3118219,57.1575507 C96.9606703,56.7355636 97.0361063,56.8250474 96.9489905,56.7331505 C96.8912257,56.6722154 96.8407641,56.6249706 96.7962778,56.5899764 C96.5932938,56.4303034 96.3837183,56.2593499 96.1528114,56.0659031 C95.8996728,55.8538314 94.8219073,54.9265339 94.5298617,54.6822505 C92.0819118,52.6346464 90.0484439,51.545048 86.9915611,51.0082512 C86.4387367,50.9112468 86.4387367,50.9112468 85.8894939,50.8149263 C85.4520631,50.738178 85.1202823,50.679829 84.7981205,50.6229312 C75.2242329,48.9320632 70.4704389,47.6692366 65.5107201,45.0489261 C59.259941,41.7465247 54.226726,36.6071776 49.8276789,28.6234387 C47.0442084,23.5717763 45.2697408,15.6287788 44.4862607,4.78058725 L44.192383,0.711509708 L45.460205,4.58918728 C47.1474162,9.74958083 49.1095744,14.0974092 51.3444336,17.6324852 C52.6783972,19.7425342 55.6675688,24.5378071 55.8061026,24.7575337 C56.9240162,26.5306413 57.5639534,27.4734857 58.2049854,28.2730872 C58.8489418,29.0763366 59.5036066,29.7450631 60.6255969,30.7613907 C61.0644688,31.1589321 64.0230194,33.7673805 65.2152971,34.8379218 C68.5470937,37.8295284 71.4950501,38.489043 78.6645147,38.6972631 C79.7634369,38.7291787 80.2261157,38.7442368 80.8301391,38.7704473 C86.963848,39.0366085 93.0318395,41.1973926 96.0016742,43.643091 C96.2150128,43.8187781 96.4059138,43.9685031 96.6138756,44.1252335 C96.7019348,44.1915994 97.0235041,44.4299284 97.1007417,44.4883225 C97.1798883,44.5484326 97.209282,44.5710123 97.2594004,44.6102957 C97.9150906,45.1242332 98.5281584,45.7670303 99.8233245,47.3356012 C100.176711,47.7635861 100.451689,48.1906248 100.661379,48.6326351 C101.121598,49.6027434 101.234556,50.3759174 101.306676,52.221681 C101.362231,53.6435255 101.402424,54.2509328 101.532865,55.1879059 L101.663809,56.1284921 L101.043656,55.8187495 C100.988176,55.9704494 100.783393,56.5119042 100.683001,56.7199154 Z M117.889445,49.9709653 C120.316335,48.9502929 122.554214,48.1721198 124.848083,47.5146 C125.747878,47.2566809 126.622824,47.0258878 127.667229,46.7658611 C127.967883,46.6910069 129.653078,46.2789863 130.104895,46.1647715 C133.217869,45.3778441 134.872854,44.7045599 136.615786,43.3517078 C139.415118,41.1788863 142.2014,37.1815084 146.228943,29.4263329 C148.223032,25.5866427 148.202816,20.2455198 146.13921,13.4045277 C146.543675,17.4780763 146.055623,20.8471423 144.664201,23.5104422 C140.635457,31.2217963 139.074643,33.6880316 137.405594,34.8468314 C136.711897,35.3284564 136.061088,35.5640073 134.8962,35.8234561 C134.867737,35.8297957 133.869182,36.0449039 133.540974,36.1209358 C132.964093,36.2545744 132.432561,36.3949286 131.870017,36.5673727 C129.089286,37.419788 127.076672,37.814106 124.681079,38.0453419 C124.198948,38.0918798 123.728587,38.130655 123.003313,38.185687 C120.433359,38.3806886 119.654977,38.4500305 118.036507,38.6583381 C112.629016,39.3543168 108.085116,42.2883089 103.756456,46.4810109 C102.506449,47.6917579 101.283511,55.7699575 102.179541,57.1865005 C102.592927,57.8400256 105.072838,56.7937766 109.737555,54.0334613 C109.898914,53.937978 110.067578,53.8378971 110.254536,53.7267337 C115.546384,50.5802528 116.829133,49.8866015 117.889445,49.9709653 Z M147.1164,29.8872217 C143.027056,37.7613989 140.172236,41.8571059 137.228947,44.1416663 C135.354423,45.5966583 133.585032,46.3164858 130.349975,47.1342744 C129.893556,47.2496525 128.20592,47.6622697 127.908825,47.736238 C126.874914,47.9936521 126.010778,48.2215935 125.123629,48.4758879 C122.829382,49.1335159 120.593366,49.9133565 118.158361,50.9428396 L117.891459,50.977068 C117.172381,50.8721399 115.726164,51.6367739 110.765609,54.5862712 C110.578084,54.6977716 110.408829,54.7982029 110.246816,54.8940732 C104.623879,58.2214092 102.277162,59.2114649 101.334422,57.7210784 C100.177856,55.8926517 101.47955,47.2942218 103.06072,45.7627138 C107.531739,41.4321234 112.232005,38.397166 117.908853,37.6665192 C119.550342,37.4552491 120.34036,37.3848706 122.927653,37.1885533 C123.646645,37.133998 124.111237,37.0956984 124.585001,37.0499681 C126.914857,36.8250776 128.861499,36.4436848 131.576935,35.6112855 C132.163281,35.4315448 132.716961,35.2853425 133.315293,35.1467345 C133.652545,35.0686076 134.657099,34.852207 134.678803,34.847373 C135.727974,34.613697 136.271062,34.4171344 136.835285,34.0254011 C138.309027,33.0022003 139.845049,30.5751395 143.777872,23.0473858 C145.675399,19.4153593 145.776995,14.2649684 144.048912,7.59222145 L144.995207,7.27630986 C149.07673,17.1773869 149.803403,24.7133033 147.1164,29.8872217 Z" id="horns-outline" fill="#000000" fill-rule="nonzero" opacity="0.3"></path>
            </g>
        </g>
    </g>
</svg>