<?xml version="1.0" encoding="UTF-8"?>
<svg width="480px" height="300px" viewBox="0 0 480 300" version="1.1" xmlns="http://www.w3.org/2000/svg" xmlns:xlink="http://www.w3.org/1999/xlink">
    <!-- Generator: Sketch 50.2 (55047) - http://www.bohemiancoding.com/sketch -->
    <title>Avatars</title>
    <desc>Created with Sketch.</desc>
    <defs></defs>
    <g id="Avatars" stroke="none" stroke-width="1" fill="none" fill-rule="evenodd">
        <rect id="Frame" fill="#E6E6E6" x="0" y="0" width="480" height="300"></rect>
        <g id="Tiefling" transform="translate(120.000000, 29.000000)">
            <g id="Male" transform="translate(0.000000, 2.000000)">
                <path d="M0,268.730644 C2.58630082,240.611468 4.49645767,222.831103 5.73047057,215.389551 C6.61594414,210.049819 12.2367997,183.544898 22.745009,169.601274 C34.4219051,154.106889 80.375026,152.723251 84.2674849,148.462106 C87.3388818,145.099793 88.121113,139.648497 86.6141785,132.108216 C85.8908924,116.292754 85.1086612,106.81628 84.2674849,103.678793 C82.6848226,97.7756532 73.9427497,77.88766 70.9808314,60.1401073 C69.3501709,50.3693343 76.53636,34.9986835 79.433427,32.2701047 C93.6679309,18.8634538 148.11843,5.54802963 161.640571,29.8907334 C167.095344,39.7104755 170.036292,64.3525107 169.934883,65.1727998 C169.085659,72.0421146 168.926002,99.63543 166.460059,107.431592 C159.812026,128.449569 157.630032,120.12543 155.697188,124.990681 C154.256856,128.616208 154.979781,133.256979 157.865964,138.912995 C166.78062,141.873023 230.540705,147.965178 237.438654,169.601274 C241.810106,183.312765 251.213108,212.954429 253.026996,224.775631 C254.041507,231.387252 255.040599,246.038924 256.024273,268.730644 L211.849067,268.730644 L16.2386799,268.730644 L0,268.730644 Z" id="body" fill="{skin-color}"></path>
                <polygon id="armpit-l" fill="#000000" opacity="0.5" points="58.1842036 269.199454 66.3510021 228.91378 66.3510021 269.199454"></polygon>
                <polygon id="armpit-r" fill="#000000" opacity="0.5" transform="translate(205.779602, 248.853680) scale(-1, 1) translate(-205.779602, -248.853680) " points="201.696203 268.996517 209.863001 228.710843 209.863001 268.996517"></polygon>
                <path d="M135.771112,211.071605 C135.68216,210.758408 139.578821,223.583766 140.304296,226.833656 C141.704197,233.104759 141.833361,238.711406 140.487466,245.813726 C139.635551,250.309306 135.271838,253.950076 128.510822,256.703876 C123.435742,258.770984 117.147004,260.202274 112.863092,260.51057 C110.808715,260.658415 108.743799,260.822102 106.46745,261.014854 C105.015485,261.1378 97.9405849,261.763796 96.1401345,261.910808 C92.6137873,262.198745 90.026669,262.355213 87.7440114,262.400757 C82.3256431,262.508866 78.632826,261.958881 75.7495338,260.469808 C69.7436212,257.368062 67.0940268,250.141161 65.5354901,233.504939 L66.5311305,233.411665 C68.0595066,249.725944 70.6133804,256.691761 76.208401,259.581303 C78.9132476,260.978218 82.4572591,261.506041 87.7240632,261.400956 C89.9822085,261.355901 92.5511061,261.200535 96.0587523,260.914125 C97.8550866,260.767449 104.927905,260.141638 106.383076,260.01842 C108.663362,259.825335 110.732379,259.661323 112.791312,259.51315 C116.97209,259.212276 123.157741,257.804448 128.133606,255.77775 C134.610912,253.139508 138.733184,249.700178 139.504952,245.627539 C140.825057,238.661312 140.699057,233.191989 139.328317,227.051524 C138.627858,223.913695 134.895314,211.610649 134.809473,211.344721 L135.771112,211.071605 Z M185.041254,254.615798 C184.418333,254.640277 183.98334,254.654157 182.783822,254.689821 C179.944798,254.774232 178.69682,254.837783 177.375973,255.001655 C162.651196,256.828501 153.900214,255.441561 148.508228,250.562305 C143.884562,246.378309 141.81836,240.43843 139.519673,227.310217 C139.346767,226.322725 139.169851,225.289083 138.933905,223.893407 C138.931981,223.882023 138.465149,221.113881 138.326206,220.295609 C137.810639,217.259289 137.400248,214.932375 136.95481,212.562818 L137.937596,212.37807 C138.384301,214.754369 138.795628,217.086589 139.312094,220.128205 C139.451149,220.947135 139.918073,223.715823 139.919915,223.726717 C140.155563,225.12063 140.332182,226.15254 140.504687,227.137746 C142.765161,240.047709 144.780007,245.839954 149.179201,249.820823 C154.304981,254.459188 162.788721,255.803772 177.252851,254.009264 C178.61623,253.840115 179.882023,253.775657 182.754103,253.690263 C183.950268,253.654698 184.383421,253.640877 185.001988,253.61657 C192.823933,253.309197 196.39894,252.066028 196.819602,248.429091 L196.838213,248.268183 L200.591101,244.17239 C201.332422,237.694754 201.45618,232.401406 201.3807,220.577768 C201.342552,214.601918 201.345696,211.946267 201.425084,208.629414 L202.424798,208.653342 C202.345732,211.95672 202.342596,214.605645 202.38068,220.571384 C202.457042,232.533248 202.329956,237.842933 201.565979,244.448074 L201.547368,244.608982 L197.792319,248.707133 C197.207534,252.950557 193.25562,254.293005 185.041254,254.615798 Z" id="breast" fill="#000000" fill-rule="nonzero" opacity="0.3"></path>
                <path d="M85.8288056,101.732368 L86.7784954,101.419176 C88.4200338,106.3968 90.4697615,109.292205 95.2955288,114.456031 C95.6343381,114.818379 95.8176721,115.014468 95.9740458,115.182037 C98.5458899,117.938007 99.9514664,119.603764 101.369556,121.740763 C102.991798,124.185414 107.683507,128.191408 112.947416,132.166136 C114.582252,133.400586 116.116681,134.133668 117.765746,134.521484 C119.298959,134.882054 120.496503,134.939987 123.589366,134.908886 C126.17092,134.882928 127.494533,134.90908 129.285483,135.07571 C135.961758,135.69687 141.260634,134.045402 148.441524,129.488275 C148.720109,129.31148 150.264634,127.374297 152.953377,123.861313 C152.998825,123.80193 152.998825,123.80193 153.044269,123.742538 C157.57554,117.820144 157.33591,118.130223 157.672491,117.825152 L158.344065,118.566089 C158.083989,118.801818 158.042522,118.855476 153.838472,124.350189 C153.792979,124.409646 153.792979,124.409646 153.747479,124.469098 C150.772345,128.356266 149.421166,130.050949 148.977351,130.332603 C141.62439,134.99893 136.116384,136.715576 129.192843,136.07141 C127.445333,135.908821 126.148686,135.883202 123.599421,135.908836 C120.424992,135.940756 119.175553,135.880313 117.536818,135.494927 C115.750018,135.07472 114.088864,134.281093 112.344819,132.964182 C106.967656,128.903936 102.249485,124.875347 100.536324,122.293687 C99.1563754,120.214164 97.7798495,118.582836 95.2429382,115.864299 C95.0869428,115.697135 94.9040069,115.501472 94.564911,115.138818 C89.6480881,109.877558 87.5267286,106.880967 85.8288056,101.732368 Z" id="jaw" fill="#000000" fill-rule="nonzero" opacity="0.3"></path>
                <path d="M169.445698,59.7335704 C171.572271,64.1841257 170.774101,116.45707 166.764618,140.969832 C166.144898,144.758616 159.239484,141.071743 156.993966,138.208161 C154.593887,135.147477 153.957307,129.967083 155.063051,126.047487 C155.628909,124.041655 155.697293,121.344743 157.029255,119.843459 C158.926246,117.705317 160.102312,113.624239 161.548386,111.123023 C169.355684,97.6190517 167.011606,77.4936217 167.225673,62.5839383 C165.656396,58.5494072 163.191917,51.0379293 162.122388,50.4001318 C155.621783,46.5235936 163.602567,47.0102539 157.973332,37.3753765 C152.344097,27.7404991 159.894573,32.385201 142.460174,32.8466267 C130.837241,33.1542439 125.667954,38.0994152 126.952311,47.6821407 C126.785876,36.1806464 117.536895,31.3892837 99.2053697,33.3080525 C91.7088955,34.0927118 90.8265999,44.0242459 86.3740605,50.4001318 C82.3094487,56.2205185 84.6685531,64.5303836 84.6754681,71.6294239 C84.6762467,72.4287787 83.9468948,69.1790757 82.3139587,67.6637566 C80.6810225,66.1484375 79.0755468,65.2701861 76.7654693,63.1303047 C74.1929014,60.7472722 71.7511636,59.4975812 71.7856507,59.9812688 C71.8507836,60.8947692 72.2412669,63.6961944 73.4238817,67.2327748 C74.3178646,69.9062085 75.9088786,72.9660767 76.7654693,76.1393778 C78.3973726,82.1848801 79.1655217,88.6611546 79.5966344,89.7105375 C80.4101299,91.6906887 82.4346816,92.2085724 83.5550748,91.9496306 C84.6754681,91.6906887 86.6636362,96.8903721 86.9713212,100.576148 C87.1622433,102.863215 86.9716282,107.56907 86.3994759,114.693712 L86.9713212,130.386954 L87.8396789,137.791113 L86.3740605,148.7508 C79.1645734,150.956184 72.9589926,152.058876 67.757318,152.058876 C62.2260863,152.058876 75.4923729,120.250265 75.5598299,114.693712 C75.7528791,98.7919002 71.8213781,83.0962661 70.7012625,67.2327748 C68.0124642,29.1530179 75.5598299,10.1208114 117.478211,10.1208114 C125.615373,10.1208114 148.72523,10.3404436 156.516185,20.4982587 C165.843809,32.6595748 170.531186,47.4264973 169.445698,59.7335704 Z" id="hair" fill="{hair-color}"></path>
                <path d="M127.452259,47.6749061 L126.456742,47.748561 C126.176785,45.6597687 126.196934,43.7809392 126.514699,42.1134717 C127.109311,43.7581549 127.422406,45.6119067 127.452259,47.6749061 Z M142.446946,32.3468018 C146.210445,32.2471955 149.049335,31.9535952 151.353851,31.5135488 C152.155319,31.3605087 154.306126,30.8297505 154.63641,30.8249409 C155.391404,30.8139467 155.602927,31.1035394 156.09204,32.3563131 C156.758633,34.0636671 157.287824,35.2109274 158.405048,37.1231439 C160.728589,41.1000672 161.017467,43.4578802 160.244933,46.042351 C159.886358,47.2419444 159.875358,47.2886813 159.918147,47.6258373 C159.998562,48.2594568 160.65454,48.9426481 162.378477,49.9706925 C163.102393,50.4023891 163.977867,52.3846643 165.58061,56.7031849 C165.680443,56.9721794 165.784476,57.2540183 165.8973,57.5609633 C166.059359,58.0018555 166.689137,59.7247736 166.839332,60.133291 C167.190285,61.0878561 167.455224,61.7948115 167.691664,62.4026857 C167.689941,65.0762554 167.711336,67.0453115 167.803605,72.1151978 C167.910819,78.0062939 167.930876,80.8827135 167.845278,84.3302653 C167.555658,95.9950103 165.909042,104.579536 161.981249,111.373282 C161.640656,111.962392 161.301883,112.660523 160.863617,113.650612 C160.707655,114.002945 160.166897,115.249843 160.134502,115.323945 C159.071043,117.756552 158.343733,119.115274 157.40327,120.175291 C156.762847,120.897126 156.422804,121.891069 156.062035,123.753015 C156.033453,123.900527 156.007931,124.034901 155.954464,124.317754 C155.782399,125.226253 155.684555,125.68596 155.544269,126.183241 C154.436927,130.108504 155.172215,135.0747 157.387421,137.899627 C158.467267,139.276693 160.692121,140.852722 162.6693,141.617287 C164.783795,142.434951 166.05686,142.199383 166.271175,140.889121 C169.927927,118.53285 171.327388,64.8313615 168.994554,59.949137 C170.03541,47.3565923 165.261003,32.7212812 156.119444,20.8025555 C152.724052,16.3756569 146.076378,13.5335615 137.042982,11.9932404 C130.801956,10.9290577 124.901009,10.6208114 117.478211,10.6208114 C97.0411115,10.6208114 84.5805145,15.1399576 77.7690739,24.6872754 C71.5315708,33.4301286 69.7354561,46.4558509 71.2000207,67.1975577 C71.5773235,72.5410594 72.1112083,76.8155317 73.4820958,86.3942506 C73.6308952,87.4339482 73.6948679,87.8815739 73.7760473,88.4520722 C75.4892322,100.491697 76.1505482,107.224115 76.0597931,114.699782 C76.0364398,116.623434 75.8705778,117.179477 71.4608859,131.047613 C71.225461,131.788006 71.0113838,132.465464 70.8080302,133.114278 C68.9716716,138.97331 67.8431206,143.057611 67.2776559,146.18103 C66.629154,149.763117 66.8605293,151.558876 67.757318,151.558876 C72.830498,151.558876 78.8863953,150.495671 85.9210659,148.366016 L87.3357808,137.786979 L86.4716528,130.405161 L85.9010804,114.653688 C86.4710196,107.556605 86.6609254,102.868261 86.4730543,100.617743 C86.1871996,97.1934723 84.2731941,92.2968411 83.6676654,92.436789 C82.0175142,92.8181668 79.9393631,91.8605499 79.1341424,89.9005407 C78.9851123,89.5377824 77.4628732,80.9697641 76.626407,77.5981917 C76.5139232,77.1447996 76.3994472,76.7020062 76.2827471,76.2696823 C75.9121747,74.8968705 75.4281402,73.5809211 74.5982664,71.5724733 C74.5322096,71.4126037 74.4859615,71.301143 74.3738039,71.031327 C74.2618794,70.7622964 74.2618794,70.7622964 74.1507412,70.4948905 C73.9718996,70.064189 73.8411754,69.7462872 73.7164968,69.4374059 C73.3967494,68.6452569 73.1523412,67.9973614 72.9496913,67.3913418 C71.9743681,64.4746618 71.4028273,61.6424936 71.2869168,60.0168287 C71.237923,59.3296818 71.7700576,59.2716839 72.3427714,59.4588789 C72.6542446,59.5606858 73.0707549,59.7649055 73.5528485,60.0506404 C74.625072,60.686143 75.8991433,61.6462492 77.105252,62.7634973 C77.7893104,63.3971573 78.4438754,63.9508397 79.1704311,64.5218768 C79.595109,64.8556526 80.9793092,65.9028935 80.9561918,65.8851621 C81.5607145,66.3488395 82.0176701,66.7213891 82.4649452,67.1243427 C83.1456985,67.7534713 83.5818975,68.3619792 83.9832232,69.1001714 C84.0526054,68.4223639 83.9663212,67.3301838 83.8337539,65.7739302 C83.7795196,65.1372547 83.7524901,64.815654 83.7222125,64.4415501 C83.1525437,57.4028203 83.5512494,53.5690139 85.9641252,50.1138573 C87.014809,48.6093137 87.8600268,46.961219 89.0397644,44.2869778 C89.1967784,43.9310569 89.7698897,42.6193391 89.721199,42.7304998 C92.7241814,35.8746954 94.7939924,33.2670618 99.1533188,32.8107692 C114.507041,31.2036884 123.689198,34.2981917 126.514699,42.1134717 C127.703497,35.8752787 133.057718,32.5953008 142.446946,32.3468018 Z M167.258061,141.050543 C166.907076,143.196361 164.927463,143.562669 162.308632,142.549981 C160.169777,141.722897 157.796249,140.041551 156.600511,138.516694 C154.176339,135.425285 153.392156,130.128853 154.581833,125.911732 C154.711605,125.451721 154.805241,125.011784 154.971931,124.131667 C155.025394,123.848825 155.051301,123.712426 155.080293,123.562794 C155.474238,121.529629 155.85671,120.411667 156.655239,119.511627 C157.503108,118.555975 158.196323,117.260947 159.218233,114.923381 C159.249299,114.852321 159.791421,113.602276 159.949198,113.245841 C160.400787,112.225656 160.75307,111.499685 161.115523,110.872764 C164.941239,104.255577 166.559756,95.8175428 166.845586,84.3054443 C166.930716,80.8767664 166.910729,78.0104392 166.80377,72.1333941 C166.712496,67.118175 166.690401,65.1287598 166.724352,62.6741705 C166.494192,62.0800204 166.236396,61.3912792 165.900756,60.4783655 C165.750135,60.0686863 165.120339,58.3457199 164.958698,57.9059655 C164.846215,57.5999477 164.742537,57.3190728 164.643094,57.0511274 C163.229543,53.2423757 162.270339,51.0705146 161.866298,50.829571 C159.900671,49.657399 159.056358,48.7780591 158.926105,47.7517406 C158.856677,47.2046959 158.867435,47.1589901 159.286821,45.7559581 C159.979748,43.4378073 159.725943,41.3662561 157.541616,37.6276092 C156.394382,35.6640286 155.844551,34.4720201 155.16052,32.7200018 C154.826597,31.8647203 154.795922,31.8227241 154.65097,31.8248349 C154.454931,31.8276896 152.452557,32.3218188 151.541412,32.4958017 C149.182192,32.9462938 146.289565,33.2454516 142.473403,33.3464517 C131.126503,33.6467633 126.206477,38.3534806 127.44788,47.6157204 L126.452364,47.6893753 C126.291204,36.5524396 117.335642,31.9130805 99.2574205,33.8053358 C95.3933429,34.2097905 93.5007871,36.5941107 90.6371812,43.1317188 C90.6865431,43.0190258 90.1125491,44.3327637 89.9546916,44.6905966 C88.7505984,47.4200475 87.881287,49.1151223 86.7839958,50.6864062 C84.5471504,53.8894933 84.1671747,57.5431983 84.7189534,64.3608804 C84.7490827,64.7331521 84.7760269,65.053738 84.8301454,65.689054 C85.0898063,68.7373041 85.1739075,70.0270093 85.1754679,71.6289369 C85.1756848,71.8516858 85.1625716,71.9459433 85.0210916,72.0947063 C84.8045359,72.3224096 84.5043541,72.2901438 84.3147088,72.1297109 C84.1184726,71.8625598 84.0733477,71.7564145 83.9363131,71.4144424 C83.6009643,70.5775732 83.4053054,70.1308002 83.1046657,69.5778081 C82.7508615,68.9270261 82.3746304,68.4021748 81.9738511,68.0302629 C81.3708207,67.4846073 80.9329479,67.1276156 80.3475867,66.6786353 C80.3771592,66.7013179 78.9857782,65.6486443 78.5524947,65.3081048 C77.8057354,64.7211888 77.1307935,64.15027 76.4256866,63.4971122 C75.2704038,62.4269455 74.0529083,61.5094733 73.0429803,60.910893 C72.777613,60.7536108 72.5390139,60.6264332 72.3411832,60.5347967 C72.5295729,62.131804 73.0602218,64.5686373 73.8980721,67.0742079 C74.0933222,67.6580985 74.3310274,68.2882255 74.6438032,69.0631028 C74.7670086,69.3683344 74.8966059,69.6834957 75.0742874,70.1114033 C75.1851417,70.3781261 75.1851417,70.3781261 75.2971466,70.6473502 C75.4095639,70.9177904 75.4560792,71.0298952 75.5224795,71.1905962 C76.3674969,73.2356942 76.8637299,74.5848079 77.2481915,76.0090733 C77.3667083,76.4481273 77.4828892,76.8975153 77.5969832,77.3573977 C78.4565123,80.8219301 79.9583856,89.2753187 80.0591263,89.5205343 C80.6705742,91.0088759 82.252018,91.737609 83.4424843,91.4624721 C85.0371171,91.0939255 87.128044,96.4431777 87.4695881,100.534554 C87.6635613,102.85817 87.4722369,107.581535 86.8991443,114.675505 L87.4679176,130.328713 L88.3362754,137.732872 L86.8271226,149.135079 C79.2668614,151.447765 73.0138999,152.558876 67.757318,152.558876 C65.8266689,152.558876 65.5273398,150.235711 66.2936516,146.002886 C66.8687173,142.826434 68.0055116,138.712299 69.8538014,132.8152 C70.0575983,132.164972 70.2720835,131.486223 70.5079027,130.74459 C74.8067386,117.225088 75.0384942,116.448139 75.0598667,114.687643 C75.1498244,107.277665 74.4923638,100.584496 72.7860201,88.5929486 C72.7048915,88.0228066 72.6409436,87.5753545 72.4921825,86.5359251 C71.1179093,76.9335497 70.5820516,72.6432814 70.2025043,67.267992 C68.7228737,46.3129164 70.5462657,33.089375 76.955015,24.1064931 C83.9874625,14.2493989 96.7498211,9.62081137 117.478211,9.62081137 C124.953191,9.62081137 130.90094,9.93150246 137.21107,11.0074684 C146.470903,12.5864002 153.32581,15.5170944 156.912926,20.1939618 C166.169151,32.2621881 171.021845,47.0825148 169.954795,59.6500573 C172.329546,65.5120901 170.919902,118.66316 167.258061,141.050543 Z" id="hair-outline" fill="#000000" fill-rule="nonzero" opacity="0.05"></path>
                <path d="M68.782313,31.1566791 C65.7556048,26.2259911 63.9206531,18.3586375 63.2774581,7.55461832 C65.1046337,12.7318933 67.2709746,17.0872458 69.7764809,20.6206761 C78.8984473,33.4850749 75.8606348,30.2485761 85.3725456,37.6717502 C90.6770208,41.8114067 96.9532025,41.2611527 103.529658,41.3785887 C111.417232,41.5194373 117.865497,43.9577775 120.465301,45.811354 C122.121838,46.9924121 122.104895,46.6126491 124.683169,49.3627697 C126.71808,51.5333124 125.849237,53.3518112 126.340769,56.9565221 C125.680435,56.6781616 125.802521,58.3921039 124.498501,59.1780728 C123.19448,59.9640416 122.551004,58.492439 121.813119,57.9909705 C118.952858,56.0471308 116.419149,53.3206879 110.454075,52.5206812 C93.1535517,50.2004195 79.5004468,48.6171577 68.782313,31.1566791 Z M179.389326,31.7135378 C167.188736,52.4284773 165.296831,45.5220693 146.624337,52.255447 C143.821527,51.8742976 129.861495,61.5003658 128.078211,59.0633383 C126.852242,57.3879351 128.288329,49.0618428 129.85769,47.7403529 C132.320678,45.6663799 138.543753,40.748258 146.506492,39.9266963 C153.145617,39.2416995 155.436422,39.7660992 162.282216,37.9951935 C169.056958,36.2426677 168.433284,38.9292466 176.506444,25.3055188 C178.723877,21.5635257 178.788467,16.2900903 176.700215,9.48521262 C181.432817,19.3126118 182.329187,26.7220535 179.389326,31.7135378 Z" id="horns" fill="#B05C5C" transform="translate(121.883796, 33.450642) rotate(-2.000000) translate(-121.883796, -33.450642) "></path>
                <path d="M68.9028884,30.4293374 C73.855061,38.2476578 79.4814532,43.2452689 86.4615793,46.453229 C92.0255287,49.0103358 97.4036154,50.2531355 108.296457,51.9266619 C108.666301,51.983483 109.047315,52.0417729 109.549778,52.1184619 C110.181009,52.214759 110.181009,52.214759 110.81683,52.311812 C114.555347,52.8828966 117.065287,54.0528333 120.021256,56.203699 C120.365048,56.4538545 121.604448,57.3814877 121.887607,57.5878471 C122.144554,57.775104 122.376531,57.9397128 122.599807,58.0924976 C122.699391,58.1606425 122.796817,58.2399907 122.898898,58.3336649 C122.974033,58.4026115 123.050008,58.47763 123.140194,58.570692 C123.191671,58.6238111 123.254687,58.6900428 123.365354,58.8063989 C123.981651,59.4506639 124.222894,59.5563222 124.64568,59.3082606 C124.924192,59.1448487 125.137834,58.9053222 125.321793,58.5737507 C125.434195,58.3711559 125.73519,57.6644116 125.722819,57.6905582 C125.832149,57.4594901 125.96411,57.2715602 126.125781,57.1496338 C126.022265,56.4021748 125.9798,55.7614634 125.92535,54.5492145 C125.848336,52.8346191 125.734835,52.1587988 125.293615,51.3497401 C125.094175,50.9840292 124.829527,50.6265034 124.482402,50.2607947 C123.04182,48.7430926 122.387101,48.1459327 121.712305,47.6858313 C121.660297,47.6503702 121.630069,47.6301703 121.545806,47.5744976 C121.462636,47.5197992 121.093912,47.2820745 120.987518,47.2123223 C120.735884,47.0473512 120.503588,46.8888625 120.244862,46.7035176 C117.031492,44.4015384 110.295956,42.3150857 103.485274,42.0579974 C102.79828,42.0320649 102.269948,42.0171071 101.012232,41.9853319 C92.5129731,41.7706047 88.9133066,41.0700605 84.816962,37.8704842 C83.4523122,36.8045825 80.0487302,34.1941681 79.537113,33.7910244 C78.2058987,32.7420557 77.4133285,32.0377888 76.629323,31.1870759 C75.8582126,30.3503553 75.1029013,29.3823034 73.7961687,27.5793539 C73.6346858,27.3565497 70.1989659,22.5619737 68.6679833,20.455341 C66.6881969,17.731154 64.8959551,14.5444459 63.2901483,10.8951362 C64.313213,19.6298477 66.1887429,26.1443375 68.9028884,30.4293374 Z M126.35708,59.0084057 C126.091672,59.4867813 125.756224,59.8628716 125.288485,60.137309 C124.199251,60.7763966 123.433509,60.441021 122.481722,59.446041 C122.078054,59.0240539 122.164772,59.1135377 122.064627,59.0216408 C121.998223,58.9607057 121.940215,58.9134609 121.889076,58.8784667 C121.655734,58.7187936 121.414815,58.5478402 121.149375,58.3543934 C120.858378,58.1423216 119.619427,57.2150242 119.283704,56.9707408 C116.469649,54.9231367 114.132065,53.8335383 110.618008,53.2967415 C109.982505,53.1997371 109.982505,53.1997371 109.35112,53.1034166 C108.848269,53.0266683 108.466868,52.9683193 108.096525,52.9114215 C97.0908085,51.2205535 91.6260576,49.9577269 85.9245846,47.3374164 C78.7389658,44.035015 72.9530048,38.8956679 67.8960552,30.911929 C64.6963009,25.8602666 62.6564515,17.9172691 61.7557975,7.06907754 L61.4179688,3 L62.8754008,6.87767757 C64.814944,12.0380711 67.0705542,16.3858995 69.6396493,19.9209755 C71.1731147,22.0310245 74.6093339,26.8262974 74.7685863,27.046024 C76.0536902,28.8191316 76.7893337,29.761976 77.5262356,30.5615775 C78.2664993,31.3648269 79.0190731,32.0335534 80.3088634,33.049881 C80.813371,33.4474224 84.2143897,36.0558708 85.5849793,37.1264121 C89.4150651,40.1180187 92.8039052,40.7775333 101.045604,40.9857534 C102.308876,41.0176689 102.840751,41.0327271 103.53511,41.0589376 C110.58615,41.3250988 117.561644,43.4858829 120.975634,45.9315813 C121.220879,46.1072684 121.44033,46.2569934 121.679394,46.4137238 C121.780623,46.4800897 122.150285,46.7184187 122.239074,46.7768128 C122.330057,46.8369229 122.363847,46.8595026 122.421461,46.898786 C123.175213,47.4127235 123.879969,48.0555206 125.368834,49.6240915 C125.775072,50.0520764 126.091174,50.4791151 126.332224,50.9211254 C126.861272,51.8912337 126.991123,52.6644077 127.074029,54.5101712 C127.137894,55.9320158 127.184097,56.5394231 127.334046,57.4763962 L127.484574,58.4169824 L126.771673,58.1072398 C126.707896,58.2589397 126.472487,58.8003945 126.35708,59.0084057 Z M146.136846,52.2594556 C148.926691,51.2387832 151.499258,50.4606101 154.136188,49.8030902 C155.170552,49.5451711 156.176352,49.3143781 157.376953,49.0543514 C157.722571,48.9794972 159.659797,48.5674766 160.179186,48.4532618 C163.757723,47.6663344 165.66022,46.9930502 167.663818,45.6401981 C170.881805,43.4673766 174.084792,39.4699987 178.714677,31.7148232 C181.006994,27.875133 180.983754,22.5340101 178.611524,15.693018 C179.07648,19.7665665 178.515437,23.1356326 176.915919,25.7989325 C172.284654,33.5102866 170.49041,35.9765219 168.571746,37.1353217 C167.774303,37.6169467 167.026162,37.8524976 165.687058,38.1119464 C165.654338,38.118286 164.506444,38.3333942 164.12915,38.4094261 C163.465994,38.5430647 162.854967,38.6834189 162.208292,38.8558629 C159.011687,39.7082782 156.698075,40.1025963 153.944208,40.3338321 C153.389971,40.3803701 152.849265,40.4191453 152.015522,40.4741773 C149.061217,40.6691789 148.166424,40.7385208 146.305901,40.9468283 C140.08969,41.6428071 134.866223,44.5767992 129.890189,48.7695012 C128.453235,49.9802482 127.0474,58.0584478 128.077437,59.4749908 C128.552647,60.1285159 131.403443,59.0822669 136.765794,56.3219516 C136.951285,56.2264683 137.145174,56.1263874 137.360093,56.0152239 C143.443367,52.8687431 144.917959,52.1750918 146.136846,52.2594556 Z M179.734859,32.175712 C175.03393,40.0498892 171.752155,44.1455962 168.36868,46.4301566 C166.213811,47.8851486 164.179797,48.604976 160.46092,49.4227646 C159.93624,49.5381428 157.996209,49.95076 157.654681,50.0247283 C156.466143,50.2821424 155.472771,50.5100838 154.452943,50.7643782 C151.815579,51.4220062 149.245153,52.2018468 146.44598,53.2313299 L146.139161,53.2655583 C145.312541,53.1606302 143.650033,53.9252642 137.947599,56.8747615 C137.732029,56.9862619 137.537462,57.0866932 137.351218,57.1825635 C130.887339,60.5098995 128.189657,61.4999552 127.105925,60.0095687 C125.776388,58.181142 127.272757,49.5827121 129.090401,48.051204 C134.230086,43.7206136 139.633303,40.6856563 146.159157,39.9550095 C148.04614,39.7437393 148.954309,39.6733609 151.928547,39.4770436 C152.755068,39.4224883 153.289142,39.3841887 153.83376,39.3384584 C156.51206,39.1135678 158.749833,38.7321751 161.871378,37.8997757 C162.545416,37.7200351 163.181902,37.5738328 163.869717,37.4352248 C164.257407,37.3570979 165.412198,37.1406973 165.437148,37.1358632 C166.643229,36.9021873 167.267538,36.7056247 167.916144,36.3138914 C169.610293,35.2906905 171.376036,32.8636298 175.897035,25.3358761 C178.078348,21.7038496 178.195138,16.5534587 176.20861,9.88071175 L177.296429,9.56480015 C181.988367,19.4658772 182.823718,27.0017936 179.734859,32.175712 Z" id="horns-outline" fill="#000000" fill-rule="nonzero" opacity="0.3" transform="translate(121.490234, 31.842566) rotate(-2.000000) translate(-121.490234, -31.842566) "></path>
            </g>
        </g>
    </g>
</svg>