<?xml version="1.0" encoding="UTF-8"?>
<svg width="480px" height="300px" viewBox="0 0 480 300" version="1.1" xmlns="http://www.w3.org/2000/svg" xmlns:xlink="http://www.w3.org/1999/xlink">
    <!-- Generator: Sketch 50.2 (55047) - http://www.bohemiancoding.com/sketch -->
    <title>Artboard</title>
    <desc>Created with Sketch.</desc>
    <defs></defs>
    <g id="Artboard" stroke="none" stroke-width="1" fill="none" fill-rule="evenodd">
        <rect id="Frame" fill="#E6E6E6" x="0" y="0" width="480" height="300"></rect>
        <g id="Avatars" transform="translate(87.000000, 27.000000)">
            <g id="Tiefling" transform="translate(33.000000, 0.000000)">
                <g id="Male" transform="translate(0.000000, 3.000000)">
                    <path d="M0,269.730644 C2.58630082,241.611468 4.49645767,223.831103 5.73047057,216.389551 C6.61594414,211.049819 12.2367997,184.544898 22.745009,170.601274 C34.4219051,155.106889 80.375026,153.723251 84.2674849,149.462106 C87.3388818,146.099793 88.121113,140.648497 86.6141785,133.108216 C85.8908924,117.292754 85.1086612,107.81628 84.2674849,104.678793 C82.6848226,98.7756532 73.9427497,78.88766 70.9808314,61.1401073 C69.3501709,51.3693343 76.53636,35.9986835 79.433427,33.2701047 C93.6679309,19.8634538 148.11843,6.54802963 161.640571,30.8907334 C167.095344,40.7104755 170.036292,65.3525107 169.934883,66.1727998 C169.085659,73.0421146 168.926002,100.63543 166.460059,108.431592 C159.812026,129.449569 157.630032,121.12543 155.697188,125.990681 C154.256856,129.616208 154.979781,134.256979 157.865964,139.912995 C166.78062,142.873023 230.540705,148.965178 237.438654,170.601274 C241.810106,184.312765 251.213108,213.954429 253.026996,225.775631 C254.041507,232.387252 255.040599,247.038924 256.024273,269.730644 L211.849067,269.730644 L16.2386799,269.730644 L0,269.730644 Z" id="Path-3" fill="#B05C5C"></path>
                    <path d="M168.749269,65.2986112 L169.056659,65.4605139 C168.292645,90.9636201 170.866689,116.891017 166.764618,141.969832 C166.144898,145.758616 159.239484,142.071743 156.993966,139.208161 C154.593887,136.147477 153.957307,130.967083 155.063051,127.047487 C155.628909,125.041655 155.697293,122.344743 157.029255,120.843459 C158.926246,118.705317 160.102312,114.624239 161.548386,112.123023 C169.443511,98.4671412 166.761831,79.3545803 167.038135,64.397355 L167.694133,64.7428698 C166.197542,61.2285454 163.305901,52.1059024 162.122388,51.4001318 C155.621783,47.5235936 163.602567,48.0102539 157.973332,38.3753765 C152.344097,28.7404991 159.894573,33.385201 142.460174,33.8466267 C130.837241,34.1542439 125.667954,39.0994152 126.952311,48.6821407 C126.785876,37.1806464 117.536895,32.3892837 99.2053697,34.3080525 C91.7088955,35.0927118 90.8265999,45.0242459 86.3740605,51.4001318 C82.3094487,57.2205185 84.6685531,65.5303836 84.6754681,72.6294239 C84.6762467,73.4287787 83.9468948,70.1790757 82.3139587,68.6637566 C80.6810225,67.1484375 79.0755468,66.2701861 76.7654693,64.1303047 C74.1929014,61.7472722 71.7511636,60.4975812 71.7856507,60.9812688 C71.8507836,61.8947692 72.2412669,64.6961944 73.4238817,68.2327748 C74.3178646,70.9062085 75.9088786,73.9660767 76.7654693,77.1393778 C78.3973726,83.1848801 79.1655217,89.6611546 79.5966344,90.7105375 C80.4101299,92.6906887 82.4346816,93.2085724 83.5550748,92.9496306 C84.6754681,92.6906887 86.6636362,97.8903721 86.9713212,101.576148 C87.1622433,103.863215 86.9716282,108.56907 86.3994759,115.693712 L86.9713212,131.386954 L87.8396789,138.791113 L86.3740605,149.7508 C79.1645734,151.956184 72.9589926,153.058876 67.757318,153.058876 C62.2260863,153.058876 75.4923729,121.250265 75.5598299,115.693712 C75.7528791,99.7919002 71.8213781,84.0962661 70.7012625,68.2327748 C68.0124642,30.1530179 75.5598299,11.1208114 117.478211,11.1208114 C125.615373,11.1208114 148.72523,11.3404436 156.516185,21.4982587 C167.029877,35.2059653 171.64822,52.2240476 168.749269,65.2986112 Z" id="Combined-Shape" fill="#000000"></path>
                    <polygon id="Path-6" fill="#000000" opacity="0.5" points="58.1842036 269.199454 66.3510021 228.91378 66.3510021 269.199454"></polygon>
                    <polygon id="Path-6" fill="#000000" opacity="0.5" transform="translate(205.779602, 248.853680) scale(-1, 1) translate(-205.779602, -248.853680) " points="201.696203 268.996517 209.863001 228.710843 209.863001 268.996517"></polygon>
                    <path d="M135.771112,212.071605 C135.68216,211.758408 139.578821,224.583766 140.304296,227.833656 C141.704197,234.104759 141.833361,239.711406 140.487466,246.813726 C139.635551,251.309306 135.271838,254.950076 128.510822,257.703876 C123.435742,259.770984 117.147004,261.202274 112.863092,261.51057 C110.808715,261.658415 108.743799,261.822102 106.46745,262.014854 C105.015485,262.1378 97.9405849,262.763796 96.1401345,262.910808 C92.6137873,263.198745 90.026669,263.355213 87.7440114,263.400757 C82.3256431,263.508866 78.632826,262.958881 75.7495338,261.469808 C69.7436212,258.368062 67.0940268,251.141161 65.5354901,234.504939 L66.5311305,234.411665 C68.0595066,250.725944 70.6133804,257.691761 76.208401,260.581303 C78.9132476,261.978218 82.4572591,262.506041 87.7240632,262.400956 C89.9822085,262.355901 92.5511061,262.200535 96.0587523,261.914125 C97.8550866,261.767449 104.927905,261.141638 106.383076,261.01842 C108.663362,260.825335 110.732379,260.661323 112.791312,260.51315 C116.97209,260.212276 123.157741,258.804448 128.133606,256.77775 C134.610912,254.139508 138.733184,250.700178 139.504952,246.627539 C140.825057,239.661312 140.699057,234.191989 139.328317,228.051524 C138.627858,224.913695 134.895314,212.610649 134.809473,212.344721 L135.771112,212.071605 Z M185.041254,255.615798 C184.418333,255.640277 183.98334,255.654157 182.783822,255.689821 C179.944798,255.774232 178.69682,255.837783 177.375973,256.001655 C162.651196,257.828501 153.900214,256.441561 148.508228,251.562305 C143.884562,247.378309 141.81836,241.43843 139.519673,228.310217 C139.346767,227.322725 139.169851,226.289083 138.933905,224.893407 C138.931981,224.882023 138.465149,222.113881 138.326206,221.295609 C137.810639,218.259289 137.400248,215.932375 136.95481,213.562818 L137.937596,213.37807 C138.384301,215.754369 138.795628,218.086589 139.312094,221.128205 C139.451149,221.947135 139.918073,224.715823 139.919915,224.726717 C140.155563,226.12063 140.332182,227.15254 140.504687,228.137746 C142.765161,241.047709 144.780007,246.839954 149.179201,250.820823 C154.304981,255.459188 162.788721,256.803772 177.252851,255.009264 C178.61623,254.840115 179.882023,254.775657 182.754103,254.690263 C183.950268,254.654698 184.383421,254.640877 185.001988,254.61657 C192.823933,254.309197 196.39894,253.066028 196.819602,249.429091 L196.838213,249.268183 L200.591101,245.17239 C201.332422,238.694754 201.45618,233.401406 201.3807,221.577768 C201.342552,215.601918 201.345696,212.946267 201.425084,209.629414 L202.424798,209.653342 C202.345732,212.95672 202.342596,215.605645 202.38068,221.571384 C202.457042,233.533248 202.329956,238.842933 201.565979,245.448074 L201.547368,245.608982 L197.792319,249.707133 C197.207534,253.950557 193.25562,255.293005 185.041254,255.615798 Z" id="Combined-Shape" fill="#000000" fill-rule="nonzero" opacity="0.3"></path>
                    <path d="M85.8288056,102.732368 L86.7784954,102.419176 C88.4200338,107.3968 90.4697615,110.292205 95.2955288,115.456031 C95.6343381,115.818379 95.8176721,116.014468 95.9740458,116.182037 C98.5458899,118.938007 99.9514664,120.603764 101.369556,122.740763 C102.991798,125.185414 107.683507,129.191408 112.947416,133.166136 C114.582252,134.400586 116.116681,135.133668 117.765746,135.521484 C119.298959,135.882054 120.496503,135.939987 123.589366,135.908886 C126.17092,135.882928 127.494533,135.90908 129.285483,136.07571 C135.961758,136.69687 141.260634,135.045402 148.441524,130.488275 C148.720109,130.31148 150.264634,128.374297 152.953377,124.861313 C152.998825,124.80193 152.998825,124.80193 153.044269,124.742538 C157.57554,118.820144 157.33591,119.130223 157.672491,118.825152 L158.344065,119.566089 C158.083989,119.801818 158.042522,119.855476 153.838472,125.350189 C153.792979,125.409646 153.792979,125.409646 153.747479,125.469098 C150.772345,129.356266 149.421166,131.050949 148.977351,131.332603 C141.62439,135.99893 136.116384,137.715576 129.192843,137.07141 C127.445333,136.908821 126.148686,136.883202 123.599421,136.908836 C120.424992,136.940756 119.175553,136.880313 117.536818,136.494927 C115.750018,136.07472 114.088864,135.281093 112.344819,133.964182 C106.967656,129.903936 102.249485,125.875347 100.536324,123.293687 C99.1563754,121.214164 97.7798495,119.582836 95.2429382,116.864299 C95.0869428,116.697135 94.9040069,116.501472 94.564911,116.138818 C89.6480881,110.877558 87.5267286,107.880967 85.8288056,102.732368 Z" id="Path-10" fill="#000000" fill-rule="nonzero" opacity="0.3"></path>
                    <g id="horns" transform="translate(58.556962, 0.000000)">
                        <path d="M7.30053379,28.6010234 C5.33005868,23.2746245 4.8133598,15.2428151 5.75043716,4.50559521 C6.634152,9.88771838 7.9296789,14.5135188 9.63701787,18.3829965 C15.8530425,32.470866 16.8981101,32.7915307 31.5545756,40.9096923 C36.7595455,43.7927056 41.4471075,45.1912436 47.2010916,46.3323618 C54.1022225,47.7009798 59.421196,51.1071178 61.4447213,53.3374267 C62.7340671,54.7585304 62.7719767,54.3819989 64.6520189,57.4916285 C66.1358492,59.9459152 65.1207938,61.6008059 65.0511287,65.2264131 C64.5104232,64.8493887 64.379358,66.5558605 63.1259604,67.1263312 C61.8725627,67.6968019 61.5124726,66.1476189 60.9347271,65.5388442 C58.6952151,63.1790536 56.8509848,60.0996847 51.7282937,58.3818879 C36.8709381,53.399757 14.2783508,47.4627876 7.30053379,28.6010234 Z" id="Path-21" fill="#B05C5C" transform="translate(35.375938, 35.877947) rotate(-9.000000) translate(-35.375938, -35.877947) "></path>
                        <path d="M72.0293726,32.9375183 C69.7676454,27.7772305 71.0024608,20.4824509 75.7338187,11.0531793 C73.4954235,17.6649177 73.2298954,22.9055257 74.9372343,26.7750034 C81.153259,40.8628729 80.7728071,38.1519999 86.5800152,40.3625099 C92.4481277,42.5962032 94.4799585,42.2345691 100.233943,43.3756873 C107.135073,44.7443053 112.267447,50.0597101 114.290973,52.290019 C115.580318,53.7111227 116.325727,62.0780144 115.153211,63.6564418 C113.447679,65.9524092 101.848518,55.4251763 99.3784642,55.6090241 C83.4888533,47.6268187 81.4156674,54.3530018 72.0293726,32.9375183 Z" id="Path-21" fill="#B05C5C" transform="translate(93.335278, 37.518665) scale(-1, 1) rotate(-4.000000) translate(-93.335278, -37.518665) "></path>
                        <path d="M7.30053379,28.6010234 C5.33005868,23.2746245 4.8133598,15.2428151 5.75043716,4.50559521 C6.634152,9.88771838 7.9296789,14.5135188 9.63701787,18.3829965 C15.8530425,32.470866 16.8981101,32.7915307 31.5545756,40.9096923 C36.7595455,43.7927056 41.4471075,45.1912436 47.2010916,46.3323618 C54.1022225,47.7009798 59.421196,51.1071178 61.4447213,53.3374267 C62.7340671,54.7585304 62.7719767,54.3819989 64.6520189,57.4916285 C66.1358492,59.9459152 65.1207938,61.6008059 65.0511287,65.2264131 C64.5104232,64.8493887 64.379358,66.5558605 63.1259604,67.1263312 C61.8725627,67.6968019 61.5124726,66.1476189 60.9347271,65.5388442 C58.6952151,63.1790536 56.8509848,60.0996847 51.7282937,58.3818879 C36.8709381,53.399757 14.2783508,47.4627876 7.30053379,28.6010234 Z" id="Path-21" stroke="#000000" opacity="0.200000003" transform="translate(35.375938, 35.877947) rotate(-9.000000) translate(-35.375938, -35.877947) "></path>
                        <path d="M72.0293726,32.9375183 C69.7676454,27.7772305 71.0024608,20.4824509 75.7338187,11.0531793 C73.4954235,17.6649177 73.2298954,22.9055257 74.9372343,26.7750034 C81.153259,40.8628729 80.7728071,38.1519999 86.5800152,40.3625099 C92.4481277,42.5962032 94.4799585,42.2345691 100.233943,43.3756873 C107.135073,44.7443053 112.267447,50.0597101 114.290973,52.290019 C115.580318,53.7111227 116.325727,62.0780144 115.153211,63.6564418 C113.447679,65.9524092 101.848518,55.4251763 99.3784642,55.6090241 C83.4888533,47.6268187 81.4156674,54.3530018 72.0293726,32.9375183 Z" id="Path-21" stroke="#000000" opacity="0.200000003" transform="translate(93.335278, 37.518665) scale(-1, 1) rotate(-4.000000) translate(-93.335278, -37.518665) "></path>
                    </g>
                </g>
            </g>
        </g>
    </g>
</svg>